<svg width="24" height="24" viewBox="0 0 24 24" fill="none" xmlns="http://www.w3.org/2000/svg">
<path fill-rule="evenodd" clip-rule="evenodd" d="M14.4955 4.46561L6 7.49971H4.5C2.84315 7.49971 1.5 8.84286 1.5 10.4997V11.9997C1.5 13.1101 2.1033 14.0797 3 14.5984V17.9997C3 18.8281 3.67157 19.4997 4.5 19.4997H6C6.82843 19.4997 7.5 18.8281 7.5 17.9997V15.5354L14.4955 18.0338C15.4724 18.3827 16.5 17.6585 16.5 16.6212V5.87822C16.5 4.84092 15.4724 4.11673 14.4955 4.46561ZM7.5 13.9426L15 16.6212V5.87822L7.5 8.55679V13.9426ZM4.5 8.99971H6V13.4997H4.5C3.67157 13.4997 3 12.8281 3 11.9997V10.4997C3 9.67129 3.67157 8.99971 4.5 8.99971ZM4.5 14.9997H6V17.9997H4.5V14.9997Z" fill="#292929"/>
<path d="M20.1591 9.40136L21.5304 8.03004C21.8233 7.73715 21.8233 7.26228 21.5304 6.96938C21.2375 6.67649 20.7626 6.67649 20.4697 6.96938L19.0984 8.3407C18.8055 8.6336 18.8055 9.10847 19.0984 9.40136C19.3913 9.69426 19.8662 9.69426 20.1591 9.40136Z" fill="#292929"/>
<path d="M22.5 11.4958C22.5 11.91 22.1642 12.2458 21.75 12.2458H18.75C18.3358 12.2458 18 11.91 18 11.4958C18 11.0816 18.3358 10.7458 18.75 10.7458H21.75C22.1642 10.7458 22.5 11.0816 22.5 11.4958Z" fill="#292929"/>
<path d="M21.5304 15.0905C21.8233 15.3834 21.8233 15.8582 21.5304 16.1511C21.2375 16.444 20.7626 16.444 20.4697 16.1511L19.0984 14.7798C18.8055 14.4869 18.8055 14.0121 19.0984 13.7192C19.3913 13.4263 19.8662 13.4263 20.1591 13.7192L21.5304 15.0905Z" fill="#292929"/>
</svg>
