<svg width="24" height="24" viewBox="0 0 24 24" fill="none" xmlns="http://www.w3.org/2000/svg">
<path fill-rule="evenodd" clip-rule="evenodd" d="M19.7251 5.1097C20.1105 5.65162 20.3789 6.2833 20.4944 6.96882L20.9933 9.92852C21.1143 10.6465 20.8804 11.3786 20.3655 11.8934L19.3113 12.9477C18.4326 13.8264 17.008 13.8264 16.1293 12.9477L10.826 7.64438C9.94735 6.7657 9.94735 5.34108 10.826 4.4624L11.8803 3.40817C12.3951 2.89333 13.1272 2.65944 13.8452 2.78045L16.8049 3.27926C17.4906 3.39483 18.1225 3.66338 18.6645 4.04896L20.6374 2.07612C20.9303 1.78322 21.4051 1.78322 21.698 2.07612C21.9909 2.36901 21.9909 2.84388 21.698 3.13678L19.7251 5.1097ZM17.19 11.887C17.4829 12.1799 17.9578 12.1799 18.2506 11.887L19.3049 10.8328C19.4765 10.6612 19.5545 10.4171 19.5141 10.1778L19.0153 7.21811C18.8029 5.95802 17.8157 4.97077 16.5556 4.7584L13.5959 4.25959C13.3566 4.21925 13.1125 4.29721 12.9409 4.46883L11.8867 5.52306C11.5938 5.81595 11.5938 6.29083 11.8867 6.58372L17.19 11.887Z" fill="#292929"/>
<path fill-rule="evenodd" clip-rule="evenodd" d="M10.5611 10.0314C10.2682 9.73851 9.79337 9.73851 9.50048 10.0314L8.17531 11.3566L7.64493 10.8262C6.76625 9.94751 5.34163 9.94751 4.46295 10.8262L3.40851 11.8806C2.89369 12.3954 2.6598 13.1275 2.78078 13.8455L3.27949 16.8052C3.39503 17.4909 3.66352 18.1227 4.04902 18.6647L2.07587 20.6378C1.78298 20.9307 1.78298 21.4056 2.07587 21.6985C2.36876 21.9914 2.84364 21.9914 3.13653 21.6985L5.10967 19.7254C5.6517 20.1109 6.28353 20.3794 6.96922 20.4949L9.92894 20.9936C10.6469 21.1146 11.379 20.8807 11.8938 20.3659L12.9482 19.3115C13.8269 18.4328 13.8269 17.0082 12.9482 16.1295L12.4178 15.5991L13.7431 14.2737C14.036 13.9808 14.036 13.5059 13.7431 13.213C13.4502 12.9201 12.9754 12.9201 12.6825 13.213L11.3571 14.5384L9.23597 12.4172L10.5611 11.0921C10.854 10.7992 10.854 10.3243 10.5611 10.0314ZM6.58427 11.8869C6.29137 11.594 5.8165 11.594 5.52361 11.8869L4.46917 12.9413C4.29756 13.1129 4.2196 13.3569 4.25992 13.5962L4.75864 16.556C4.97098 17.8161 5.9583 18.8034 7.21846 19.0158L10.1782 19.5145C10.4175 19.5548 10.6615 19.4769 10.8331 19.3053L11.8876 18.2508C12.1805 17.9579 12.1805 17.483 11.8876 17.1902L6.58427 11.8869Z" fill="#292929"/>
</svg>
