<svg width="24" height="24" viewBox="0 0 24 24" fill="none" xmlns="http://www.w3.org/2000/svg">
<path d="M21.5303 2.46967C21.8232 2.76256 21.8232 3.23744 21.5303 3.53033L15.3107 9.75H19.5C19.9142 9.75 20.25 10.0858 20.25 10.5C20.25 10.9142 19.9142 11.25 19.5 11.25H13.5L13.4978 11.25C13.3081 11.2494 13.1185 11.1773 12.9731 11.0337L12.9648 11.0254C12.8953 10.9547 12.8427 10.8735 12.8069 10.7871C12.7702 10.6987 12.75 10.6017 12.75 10.5V4.5C12.75 4.08579 13.0858 3.75 13.5 3.75C13.9142 3.75 14.25 4.08579 14.25 4.5V8.68934L20.4697 2.46967C20.7626 2.17678 21.2374 2.17678 21.5303 2.46967Z" fill="#292929"/>
<path d="M2.46967 21.5303C2.17678 21.2374 2.17678 20.7626 2.46967 20.4697L8.68934 14.25H4.5C4.08579 14.25 3.75 13.9142 3.75 13.5C3.75 13.0858 4.08579 12.75 4.5 12.75L10.5 12.75L10.5022 12.75C10.6919 12.7506 10.8815 12.8227 11.0269 12.9663L11.0352 12.9746C11.1047 13.0453 11.1573 13.1265 11.1931 13.2129C11.2298 13.3013 11.25 13.3983 11.25 13.5L11.25 19.5C11.25 19.9142 10.9142 20.25 10.5 20.25C10.0858 20.25 9.75 19.9142 9.75 19.5L9.75 15.3107L3.53033 21.5303C3.23744 21.8232 2.76256 21.8232 2.46967 21.5303Z" fill="#292929"/>
</svg>
