<svg width="24" height="24" viewBox="0 0 24 24" fill="none" xmlns="http://www.w3.org/2000/svg">
<path d="M12.0002 1.50236C10.7176 1.4944 9.44614 1.74115 8.25962 2.22831C7.0731 2.71547 5.9951 3.43335 5.08814 4.34031C4.18117 5.24727 3.4633 6.32527 2.97613 7.5118C2.48897 8.69832 2.24222 9.96975 2.25019 11.2524V12.0024C2.25019 14.5882 3.11086 17.2322 4.93934 19.0607C6.76782 20.8891 10.1643 22.5024 12.7502 22.5024H17.2502C17.6644 22.5024 18.0002 22.1666 18.0002 21.7524V21.7524C18.0002 21.3382 17.6644 21.0024 17.2502 21.0024H12.7502C10.5622 21.0024 7.54718 19.5472 6 18C4.45282 16.4528 3.75019 14.1904 3.75019 12.0024V11.2524C3.74422 10.1673 3.95354 9.09181 4.36603 8.08818C4.77851 7.08455 5.38598 6.1727 6.15325 5.40543C6.92053 4.63815 7.83237 4.03069 8.836 3.6182C9.83963 3.20572 10.9151 2.9964 12.0002 3.00236C13.0937 2.96469 14.1834 3.15232 15.2014 3.55359C16.2193 3.95486 17.1439 4.5612 17.9176 5.33492C18.6914 6.10865 19.2977 7.03322 19.699 8.0512C20.1002 9.06918 20.2879 10.1588 20.2502 11.2524C20.2502 13.9449 19.2002 15.7524 17.5052 15.7524C16.3202 15.7524 15.7502 14.7849 15.7502 13.5024V8.25236C15.7502 7.83815 15.4144 7.50236 15.0002 7.50236V7.50236C14.586 7.50236 14.2502 7.83815 14.2502 8.25236V8.95736C13.9887 8.49697 13.6053 8.11759 13.1422 7.8609C12.6791 7.60421 12.1542 7.48015 11.6252 7.50236C10.5377 7.49837 9.49301 7.92551 8.71985 8.69023C7.94669 9.45496 7.50812 10.4949 7.50019 11.5824V13.1724C7.50812 14.2598 7.94669 15.2998 8.71985 16.0645C9.49301 16.8292 10.5377 17.2564 11.6252 17.2524C12.2506 17.2707 12.8678 17.1058 13.4008 16.778C13.9338 16.4502 14.3594 15.9738 14.6252 15.4074C14.8914 15.9592 15.3077 16.425 15.8263 16.7513C16.3449 17.0776 16.945 17.2512 17.5577 17.2524C19.8602 17.2524 21.7502 15.0024 21.7502 11.2524C21.7789 9.96412 21.5463 8.68342 21.0665 7.48753C20.5866 6.29164 19.8695 5.20535 18.9583 4.2942C18.0472 3.38305 16.9609 2.66593 15.765 2.1861C14.5691 1.70627 13.2884 1.47368 12.0002 1.50236ZM14.2502 13.1724C14.2502 13.8686 13.9736 14.5362 13.4813 15.0285C12.9891 15.5208 12.3214 15.7974 11.6252 15.7974C10.929 15.7974 10.2613 15.5208 9.76903 15.0285C9.27675 14.5362 9.00019 13.8686 9.00019 13.1724V11.5824C9.00019 10.8862 9.27675 10.2185 9.76903 9.72621C10.2613 9.23393 10.929 8.95736 11.6252 8.95736C12.3214 8.95736 12.9891 9.23393 13.4813 9.72621C13.9736 10.2185 14.2502 10.8862 14.2502 11.5824V13.1724Z" fill="#292929"/>
</svg>
