<svg width="24" height="24" viewBox="0 0 24 24" fill="none" xmlns="http://www.w3.org/2000/svg">
<path fill-rule="evenodd" clip-rule="evenodd" d="M16.5 18.75C17.7426 18.75 18.75 17.7426 18.75 16.5C18.75 15.2574 17.7426 14.25 16.5 14.25C15.2574 14.25 14.25 15.2574 14.25 16.5C14.25 17.7426 15.2574 18.75 16.5 18.75ZM16.5 17.25C16.9142 17.25 17.25 16.9142 17.25 16.5C17.25 16.0858 16.9142 15.75 16.5 15.75C16.0858 15.75 15.75 16.0858 15.75 16.5C15.75 16.9142 16.0858 17.25 16.5 17.25Z" fill="#292929"/>
<path fill-rule="evenodd" clip-rule="evenodd" d="M9.76053 1.82722C9.29111 1.55108 8.70889 1.55108 8.23947 1.82722L2.61447 5.13604C2.15631 5.40554 1.875 5.89739 1.875 6.42894V12.696C1.875 13.2276 2.15631 13.7194 2.61447 13.9889L8.21457 17.2831C8.71014 17.5746 9.32875 17.5572 9.80715 17.2383L11.1779 16.3245C11.2279 16.3857 11.2817 16.4444 11.3391 16.5002C10.6724 17.147 10.504 18.1879 10.9933 19.0278L11.5502 19.9836C12.0446 20.8323 13.0382 21.1897 13.9269 20.9323C14.1527 21.833 14.9676 22.5 15.9383 22.5H17.0617C18.0324 22.5 18.8473 21.833 19.0731 20.9323C19.9618 21.1897 20.9554 20.8323 21.4498 19.9836L22.0067 19.0278C22.496 18.1879 22.3275 17.147 21.6608 16.5002C22.3275 15.8534 22.496 14.8125 22.0067 13.9727L21.4498 13.0168C20.9555 12.1683 19.962 11.8106 19.0731 12.068C18.8474 11.1672 18.0324 10.5 17.0616 10.5H16.125V6.42894C16.125 5.89739 15.8437 5.40554 15.3855 5.13604L9.76053 1.82722ZM14.625 10.9689V7.78906L9.74983 10.4975V15.4737L10.7199 14.827C10.7463 14.5346 10.8357 14.2432 10.9933 13.9727L11.5502 13.0168C12.0445 12.1683 13.038 11.8106 13.9269 12.0681C14.0367 11.6297 14.286 11.2467 14.625 10.9689ZM14.3479 6.26596L9 3.12012L3.65198 6.26601C3.72446 6.28105 3.79594 6.30716 3.86406 6.34501L8.99983 9.19821L14.1356 6.34501C14.2038 6.30712 14.2754 6.28099 14.3479 6.26596ZM3.375 7.78924V12.696L8.24983 15.5636V10.4975L3.375 7.78924ZM15.9384 12C15.6216 12 15.3648 12.2568 15.3648 12.5736C15.3648 13.4547 14.4014 14.0004 13.6366 13.5628C13.3609 13.4051 13.0062 13.4973 12.8463 13.7719L12.2894 14.7277C12.1299 15.0015 12.224 15.3527 12.499 15.51C13.2647 15.9481 13.2647 17.0523 12.499 17.4904C12.224 17.6477 12.1299 17.999 12.2894 18.2727L12.8463 19.2286C13.0062 19.5031 13.3609 19.5953 13.6367 19.4375C14.4013 19 15.3648 19.5455 15.3648 20.4265C15.3648 20.7432 15.6216 21 15.9383 21H17.0617C17.3784 21 17.6352 20.7432 17.6352 20.4265C17.6352 19.5455 18.5986 19 19.3633 19.4375C19.6391 19.5953 19.9938 19.5031 20.1537 19.2286L20.7106 18.2727C20.8701 17.999 20.776 17.6477 20.501 17.4904C19.7353 17.0523 19.7353 15.9481 20.501 15.51C20.776 15.3527 20.8701 15.0015 20.7106 14.7277L20.1537 13.7719C19.9938 13.4973 19.6391 13.4051 19.3634 13.5628C18.5986 14.0004 17.6352 13.4547 17.6352 12.5736C17.6352 12.2568 17.3784 12 17.0616 12H15.9384Z" fill="#292929"/>
</svg>
