<svg width="24" height="24" viewBox="0 0 24 24" fill="none" xmlns="http://www.w3.org/2000/svg">
<path fill-rule="evenodd" clip-rule="evenodd" d="M20.7803 3.21967C21.0732 3.51256 21.0732 3.98744 20.7803 4.28033L4.28033 20.7803C3.98744 21.0732 3.51256 21.0732 3.21967 20.7803C2.92678 20.4874 2.92678 20.0126 3.21967 19.7197L19.7197 3.21967C20.0126 2.92678 20.4874 2.92678 20.7803 3.21967Z" fill="#292929"/>
<path d="M11.25 2.25C11.25 1.83579 11.5858 1.5 12 1.5C12.4142 1.5 12.75 1.83579 12.75 2.25V3C12.75 3.01239 12.7497 3.0247 12.7491 3.03694C15.1555 3.27557 17.2273 4.65158 18.4196 6.61981L17.3188 7.72058C16.3164 5.80624 14.3107 4.5 12 4.5C8.68629 4.5 6 7.18629 6 10.5V12.7974C6 13.6878 5.60453 14.5321 4.92055 15.1021L4.0373 15.8381C3.85526 15.9898 3.75 16.2146 3.75 16.4515C3.75 16.8925 4.10748 17.25 4.54846 17.25H7.78938L6.28938 18.75H4.54846C3.27906 18.75 2.25 17.7209 2.25 16.4515C2.25 15.7694 2.55299 15.1225 3.07702 14.6858L3.42055 14.3995C4.10453 13.8296 4.5 12.9852 4.5 12.0949V10.5C4.5 6.61068 7.46047 3.41282 11.2509 3.03694C11.2503 3.0247 11.25 3.01239 11.25 3V2.25Z" fill="#292929"/>
<path fill-rule="evenodd" clip-rule="evenodd" d="M8.25325 18.9075C8.33577 20.9055 9.98168 22.5 12 22.5C14.0711 22.5 15.75 20.8211 15.75 18.75H19.3635C20.6815 18.75 21.75 17.6815 21.75 16.3635C21.75 15.7306 21.4986 15.1236 21.051 14.676L20.3787 14.0037C19.8161 13.4411 19.5 12.678 19.5 11.8824V10.5C19.5 9.6476 19.3578 8.82842 19.0958 8.06487L17.8767 9.28399C17.9575 9.67668 18 10.0834 18 10.5V12.5037C18 13.2993 18.3161 14.0624 18.8787 14.625L19.9904 15.7367C20.1566 15.9029 20.25 16.1284 20.25 16.3635C20.25 16.8531 19.8531 17.25 19.3635 17.25H9.9107L8.25325 18.9075ZM12 21C10.7574 21 9.75 19.9926 9.75 18.75H14.25C14.25 19.9926 13.2426 21 12 21Z" fill="#292929"/>
</svg>
