<svg width="24" height="24" viewBox="0 0 24 24" fill="none" xmlns="http://www.w3.org/2000/svg">
<path d="M15.5695 9.48811C15.839 9.17361 15.8026 8.70014 15.4881 8.43057C15.1736 8.161 14.7001 8.19743 14.4306 8.51192L10.5 13.0976L8.81946 11.1369C8.54989 10.8224 8.07641 10.786 7.76192 11.0556C7.44743 11.3251 7.411 11.7986 7.68057 12.1131L9.36113 14.0738C9.95977 14.7722 11.0403 14.7722 11.6389 14.0738L15.5695 9.48811Z" fill="#292929"/>
<path fill-rule="evenodd" clip-rule="evenodd" d="M11.25 2.25C11.25 1.83579 11.5858 1.5 12 1.5C12.4142 1.5 12.75 1.83579 12.75 2.25V3C12.75 3.01239 12.7497 3.0247 12.7491 3.03694C16.5395 3.41282 19.5 6.61068 19.5 10.5V11.8824C19.5 12.678 19.8161 13.4411 20.3787 14.0037L21.051 14.676C21.4986 15.1236 21.75 15.7306 21.75 16.3635C21.75 17.6815 20.6815 18.75 19.3635 18.75H15.75C15.75 20.8211 14.0711 22.5 12 22.5C9.92893 22.5 8.25 20.8211 8.25 18.75H4.54846C3.27906 18.75 2.25 17.7209 2.25 16.4515C2.25 15.7694 2.55299 15.1225 3.07702 14.6858L3.42055 14.3995C4.10453 13.8296 4.5 12.9852 4.5 12.0949V10.5C4.5 6.61068 7.46047 3.41282 11.2509 3.03694C11.2503 3.0247 11.25 3.01239 11.25 3V2.25ZM12 4.5C15.3137 4.5 18 7.18629 18 10.5V12.5037C18 13.2993 18.3161 14.0624 18.8787 14.625L19.9904 15.7367C20.1566 15.9029 20.25 16.1284 20.25 16.3635C20.25 16.8531 19.8531 17.25 19.3635 17.25H4.54846C4.10748 17.25 3.75 16.8925 3.75 16.4515C3.75 16.2146 3.85526 15.9898 4.0373 15.8381L4.92055 15.1021C5.60453 14.5321 6 13.6878 6 12.7974V10.5C6 7.18629 8.68629 4.5 12 4.5ZM12 21C10.7574 21 9.75 19.9926 9.75 18.75H14.25C14.25 19.9926 13.2426 21 12 21Z" fill="#292929"/>
</svg>
