<svg width="24" height="24" viewBox="0 0 24 24" fill="none" xmlns="http://www.w3.org/2000/svg">
<path d="M7.5 5.25C7.5 4.83579 7.83579 4.5 8.25 4.5H12.75C13.1642 4.5 13.5 4.83579 13.5 5.25C13.5 5.66421 13.1642 6 12.75 6H8.25C7.83579 6 7.5 5.66421 7.5 5.25Z" fill="#292929"/>
<path d="M8.25 7.5C7.83579 7.5 7.5 7.83579 7.5 8.25C7.5 8.66421 7.83579 9 8.25 9H15.75C16.1642 9 16.5 8.66421 16.5 8.25C16.5 7.83579 16.1642 7.5 15.75 7.5H8.25Z" fill="#292929"/>
<path d="M7.5 14.25C7.5 13.8358 7.83579 13.5 8.25 13.5H14.25C14.6642 13.5 15 13.8358 15 14.25C15 14.6642 14.6642 15 14.25 15H8.25C7.83579 15 7.5 14.6642 7.5 14.25Z" fill="#292929"/>
<path d="M15.75 4.5C15.3358 4.5 15 4.83579 15 5.25C15 5.66421 15.3358 6 15.75 6C16.1642 6 16.5 5.66421 16.5 5.25C16.5 4.83579 16.1642 4.5 15.75 4.5Z" fill="#292929"/>
<path d="M7.5 11.25C7.5 10.8358 7.83579 10.5 8.25 10.5H9.75C10.1642 10.5 10.5 10.8358 10.5 11.25C10.5 11.6642 10.1642 12 9.75 12H8.25C7.83579 12 7.5 11.6642 7.5 11.25Z" fill="#292929"/>
<path d="M12.75 10.5C12.3358 10.5 12 10.8358 12 11.25C12 11.6642 12.3358 12 12.75 12C13.1642 12 13.5 11.6642 13.5 11.25C13.5 10.8358 13.1642 10.5 12.75 10.5Z" fill="#292929"/>
<path fill-rule="evenodd" clip-rule="evenodd" d="M4.5 3.75C4.5 2.50736 5.50736 1.5 6.75 1.5H17.25C18.4926 1.5 19.5 2.50736 19.5 3.75V21.5689C19.5 22.304 18.6113 22.672 18.0916 22.1523L16.5 20.5607L14.8334 22.2273C14.5112 22.5495 13.9888 22.5495 13.6666 22.2273L12 20.5607L10.3334 22.2273C10.0112 22.5495 9.48882 22.5495 9.16664 22.2273L7.5 20.5607L5.90836 22.1523C5.38864 22.672 4.5 22.3039 4.5 21.5689V3.75ZM6.75 3C6.33579 3 6 3.33579 6 3.75V19.9393L6.91664 19.0227C7.23882 18.7005 7.76118 18.7005 8.08336 19.0227L9.75 20.6893L11.4166 19.0227C11.7388 18.7005 12.2612 18.7005 12.5834 19.0227L14.25 20.6893L15.9166 19.0227C16.2388 18.7005 16.7612 18.7005 17.0834 19.0227L18 19.9393V3.75C18 3.33579 17.6642 3 17.25 3H6.75Z" fill="#292929"/>
</svg>
