<svg width="24" height="24" viewBox="0 0 24 24" fill="none" xmlns="http://www.w3.org/2000/svg">
<path fill-rule="evenodd" clip-rule="evenodd" d="M5.25 2.25C3.17893 2.25 1.5 3.92893 1.5 6V9.375C1.5 11.4461 3.17893 13.125 5.25 13.125H6.37487C6.36122 15.5045 5.25038 17.7458 3.36297 19.1976L2.59271 19.7901C1.76528 20.4266 2.21538 21.75 3.2593 21.75C7.46533 21.75 10.875 18.3403 10.875 14.1343V6C10.875 3.92893 9.19607 2.25 7.125 2.25H5.25ZM3 6C3 4.75736 4.00736 3.75 5.25 3.75H7.125C8.36764 3.75 9.375 4.75736 9.375 6V14.1343C9.375 17.0374 7.35214 19.4681 4.63903 20.0937C6.68638 18.3478 7.875 15.7868 7.875 13.0806C7.875 12.2767 7.2233 11.625 6.41938 11.625H5.25C4.00736 11.625 3 10.6176 3 9.375V6Z" fill="#292929"/>
<path fill-rule="evenodd" clip-rule="evenodd" d="M16.875 2.25C14.8039 2.25 13.125 3.92893 13.125 6V9.375C13.125 11.4461 14.8039 13.125 16.875 13.125H17.9999C17.9862 15.5045 16.8754 17.7458 14.988 19.1976L14.2177 19.7901C13.3903 20.4266 13.8404 21.75 14.8843 21.75C19.0903 21.75 22.5 18.3403 22.5 14.1343V6C22.5 3.92893 20.8211 2.25 18.75 2.25H16.875ZM14.625 6C14.625 4.75736 15.6324 3.75 16.875 3.75H18.75C19.9926 3.75 21 4.75736 21 6V14.1343C21 17.0374 18.9771 19.4681 16.264 20.0937C18.3114 18.3478 19.5 15.7868 19.5 13.0806C19.5 12.2767 18.8483 11.625 18.0444 11.625H16.875C15.6324 11.625 14.625 10.6176 14.625 9.375V6Z" fill="#292929"/>
</svg>
