<svg width="24" height="24" viewBox="0 0 24 24" fill="none" xmlns="http://www.w3.org/2000/svg">
<path d="M9 10.5C9.41421 10.5 9.75 10.8358 9.75 11.25V13.5C9.75 13.9142 9.41421 14.25 9 14.25C8.58579 14.25 8.25 13.9142 8.25 13.5V11.25C8.25 10.8358 8.58579 10.5 9 10.5Z" fill="#26252A"/>
<path d="M15 10.5C15.4142 10.5 15.75 10.8358 15.75 11.25V13.5C15.75 13.9142 15.4142 14.25 15 14.25C14.5858 14.25 14.25 13.9142 14.25 13.5V11.25C14.25 10.8358 14.5858 10.5 15 10.5Z" fill="#26252A"/>
<path fill-rule="evenodd" clip-rule="evenodd" d="M12 3C12.4142 3 12.75 3.33579 12.75 3.75V6H19.5C20.3284 6 21 6.67157 21 7.5V11.25H21.75C22.1642 11.25 22.5 11.5858 22.5 12C22.5 12.4142 22.1642 12.75 21.75 12.75H21V18C21 18.7767 20.4096 19.4152 19.6531 19.4919L19.5 19.5H4.5L4.34692 19.4919C3.64076 19.4204 3.07965 18.8592 3.00806 18.1531L3 18V12.75H2.25C1.83579 12.75 1.5 12.4142 1.5 12C1.5 11.5858 1.83579 11.25 2.25 11.25H3V7.5C3 6.67157 3.67157 6 4.5 6H11.25V4.5H9.75C9.33579 4.5 9 4.16421 9 3.75C9 3.33579 9.33579 3 9.75 3H12ZM4.5 18H19.5V7.5H4.5V18Z" fill="#26252A"/>
</svg>
