<svg width="24" height="24" viewBox="0 0 24 24" fill="none" xmlns="http://www.w3.org/2000/svg">
<path fill-rule="evenodd" clip-rule="evenodd" d="M5.25 3.75C5.25 2.50736 6.25736 1.5 7.5 1.5H16.5C17.7426 1.5 18.75 2.50736 18.75 3.75V20.25C18.75 21.4926 17.7426 22.5 16.5 22.5H7.5C6.25736 22.5 5.25 21.4926 5.25 20.25V3.75ZM7.5 3H16.5C16.9142 3 17.25 3.33579 17.25 3.75V4.5H6.75V3.75C6.75 3.33579 7.08579 3 7.5 3ZM6.75 6V18H17.25V6H6.75ZM6.75 20.25V19.5H11.25V21H7.5C7.08579 21 6.75 20.6642 6.75 20.25ZM12.75 21H16.5C16.9142 21 17.25 20.6642 17.25 20.25V19.5H12.75V21Z" fill="#292929"/>
</svg>
