<svg width="24" height="24" viewBox="0 0 24 24" fill="none" xmlns="http://www.w3.org/2000/svg">
<path fill-rule="evenodd" clip-rule="evenodd" d="M6.02398 7.08464C5.57734 7.34855 5.05636 7.5 4.5 7.5C2.84315 7.5 1.5 6.15685 1.5 4.5C1.5 2.84315 2.84315 1.5 4.5 1.5C6.15685 1.5 7.5 2.84315 7.5 4.5C7.5 5.05636 7.34855 5.57734 7.08464 6.02398L9.93196 8.8713C10.5248 8.47866 11.2357 8.25 12 8.25C12.7643 8.25 13.4752 8.47866 14.068 8.8713L15.9693 6.97006C15.8287 6.67634 15.75 6.34736 15.75 6C15.75 4.75736 16.7574 3.75 18 3.75C19.2426 3.75 20.25 4.75736 20.25 6C20.25 7.24264 19.2426 8.25 18 8.25C17.6526 8.25 17.3237 8.17129 17.0299 8.03072L15.1287 9.93196C15.5213 10.5248 15.75 11.2357 15.75 12C15.75 12.7643 15.5213 13.4752 15.1287 14.068L17.976 16.9154C18.4227 16.6514 18.9436 16.5 19.5 16.5C21.1569 16.5 22.5 17.8431 22.5 19.5C22.5 21.1569 21.1569 22.5 19.5 22.5C17.8431 22.5 16.5 21.1569 16.5 19.5C16.5 18.9436 16.6514 18.4227 16.9154 17.976L14.068 15.1287C13.4752 15.5213 12.7643 15.75 12 15.75C11.2357 15.75 10.5248 15.5213 9.93196 15.1287L8.03072 17.0299C8.17129 17.3237 8.25 17.6526 8.25 18C8.25 19.2426 7.24264 20.25 6 20.25C4.75736 20.25 3.75 19.2426 3.75 18C3.75 16.7574 4.75736 15.75 6 15.75C6.34736 15.75 6.67634 15.8287 6.97006 15.9693L8.8713 14.068C8.47866 13.4752 8.25 12.7643 8.25 12C8.25 11.2357 8.47866 10.5248 8.8713 9.93196L6.02398 7.08464ZM6 4.5C6 5.32843 5.32843 6 4.5 6C3.67157 6 3 5.32843 3 4.5C3 3.67157 3.67157 3 4.5 3C5.32843 3 6 3.67157 6 4.5ZM18 6.75C18.4142 6.75 18.75 6.41421 18.75 6C18.75 5.58579 18.4142 5.25 18 5.25C17.5858 5.25 17.25 5.58579 17.25 6C17.25 6.41421 17.5858 6.75 18 6.75ZM12 14.25C13.2426 14.25 14.25 13.2426 14.25 12C14.25 10.7574 13.2426 9.75 12 9.75C10.7574 9.75 9.75 10.7574 9.75 12C9.75 13.2426 10.7574 14.25 12 14.25ZM19.5 21C20.3284 21 21 20.3284 21 19.5C21 18.6716 20.3284 18 19.5 18C18.6716 18 18 18.6716 18 19.5C18 20.3284 18.6716 21 19.5 21ZM6.75 18C6.75 18.4142 6.41421 18.75 6 18.75C5.58579 18.75 5.25 18.4142 5.25 18C5.25 17.5858 5.58579 17.25 6 17.25C6.41421 17.25 6.75 17.5858 6.75 18Z" fill="#292929"/>
</svg>
