<svg width="24" height="24" viewBox="0 0 24 24" fill="none" xmlns="http://www.w3.org/2000/svg">
<path d="M11.4045 6.51211C11.6517 5.39992 12.6912 4.648 13.8248 4.76137L14.0075 4.77963C15.9214 4.97102 17.1632 6.88868 16.555 8.71342L16.5385 8.76297C16.4205 9.11706 16.5808 9.50405 16.9146 9.67096L18.7561 10.5917C19.6717 11.0495 20.25 11.9853 20.25 13.0089C20.25 14.0396 19.7815 15.0145 18.9766 15.6584L18.6565 15.9145C18.333 16.1732 18.2806 16.6452 18.5393 16.9687C18.7981 17.2921 19.2701 17.3446 19.5935 17.0858L19.9136 16.8297C21.0743 15.9012 21.75 14.4953 21.75 13.0089C21.75 11.4171 20.8507 9.96194 19.4269 9.25007L18.1313 8.60226C18.6202 6.05435 16.8233 3.55373 14.1567 3.28707L13.9741 3.26881C12.0846 3.07987 10.3522 4.33306 9.94025 6.18671L9.92207 6.26848L9.34781 6.17276C7.26862 5.82623 5.42453 7.51745 5.57051 9.60273L4.46831 9.97014C3.14356 10.4117 2.25 11.6515 2.25 13.0479C2.25 14.036 2.70033 14.9702 3.47331 15.5858L3.79843 15.8447C4.12246 16.1027 4.59431 16.0492 4.85234 15.7252C5.11036 15.4011 5.05685 14.9293 4.73282 14.6712L4.4077 14.4124C3.99211 14.0814 3.75 13.5791 3.75 13.0479C3.75 12.2971 4.23041 11.6306 4.94265 11.3932L6.1381 10.9947C6.74788 10.7914 7.13551 10.1929 7.07155 9.55328C6.9568 8.40577 7.96367 7.46277 9.10121 7.65236L10.3767 7.86494C10.7699 7.93047 11.1457 7.67697 11.2321 7.28784L11.4045 6.51211Z" fill="#292929"/>
<path d="M10.2217 13.3338C10.7193 12.9669 11.3332 12.7502 12 12.7502C13.1602 12.7502 14.1665 13.4088 14.6656 14.3724L14.0453 13.9877C13.6933 13.7693 13.231 13.8776 13.0126 14.2296C12.7943 14.5816 12.9026 15.044 13.2546 15.2623L15.3382 16.5549C15.6902 16.7732 16.1525 16.6649 16.3709 16.3129L17.6647 14.2272C17.8831 13.8752 17.7747 13.4129 17.4227 13.1945C17.0708 12.9762 16.6084 13.0845 16.3901 13.4365L16.1029 13.8993C15.3971 12.3373 13.8255 11.2502 12 11.2502C11.0021 11.2502 10.0781 11.5759 9.3314 12.1266C8.99803 12.3725 8.92708 12.842 9.17293 13.1754C9.41878 13.5087 9.88832 13.5797 10.2217 13.3338Z" fill="#292929"/>
<path d="M9.61258 16.9081L9.12421 16.6073C9.493 17.8466 10.641 18.7502 12 18.7502C12.8179 18.7502 13.5581 18.4239 14.1 17.8927C14.3958 17.6027 14.8706 17.6075 15.1606 17.9032C15.4505 18.199 15.4458 18.6739 15.15 18.9639C14.3391 19.7588 13.2262 20.2502 12 20.2502C9.9156 20.2502 8.16219 18.8331 7.65078 16.9097L7.33417 17.4238C7.11696 17.7764 6.65496 17.8863 6.30227 17.6691C5.94958 17.4519 5.83975 16.9899 6.05696 16.6372L7.30704 14.6074C7.52425 14.2547 7.98625 14.1448 8.33894 14.362L10.3992 15.6309C10.7519 15.8481 10.8617 16.3101 10.6445 16.6628C10.4273 17.0155 9.96528 17.1253 9.61258 16.9081Z" fill="#292929"/>
</svg>
