<svg width="24" height="24" viewBox="0 0 24 24" fill="none" xmlns="http://www.w3.org/2000/svg">
<path d="M11.4045 6.51211C11.6517 5.39992 12.6912 4.648 13.8248 4.76137L14.0075 4.77963C15.9214 4.97102 17.1632 6.88868 16.555 8.71342L16.5385 8.76297C16.4205 9.11706 16.5808 9.50405 16.9146 9.67096L18.7561 10.5917C19.6717 11.0495 20.25 11.9853 20.25 13.0089C20.25 14.0396 19.7815 15.0145 18.9766 15.6584L18.6565 15.9145C18.333 16.1732 18.2806 16.6452 18.5393 16.9687C18.7981 17.2921 19.2701 17.3446 19.5935 17.0858L19.9136 16.8297C21.0743 15.9011 21.75 14.4953 21.75 13.0089C21.75 11.4171 20.8507 9.96194 19.4269 9.25007L18.1313 8.60226C18.6202 6.05435 16.8233 3.55373 14.1567 3.28707L13.9741 3.26881C12.0846 3.07987 10.3522 4.33306 9.94025 6.18671L9.92207 6.26848L9.34781 6.17276C7.26862 5.82623 5.42453 7.51745 5.57051 9.60273L4.46831 9.97014C3.14356 10.4117 2.25 11.6515 2.25 13.0479C2.25 14.036 2.70033 14.9702 3.47331 15.5858L3.79843 15.8447C4.12246 16.1027 4.59431 16.0492 4.85234 15.7252C5.11036 15.4011 5.05685 14.9293 4.73282 14.6712L4.4077 14.4124C3.99211 14.0814 3.75 13.5791 3.75 13.0479C3.75 12.2971 4.23041 11.6306 4.94265 11.3932L6.1381 10.9947C6.74788 10.7914 7.13551 10.1929 7.07155 9.55328C6.9568 8.40577 7.96367 7.46277 9.10121 7.65236L10.3767 7.86494C10.7699 7.93047 11.1457 7.67697 11.2321 7.28784L11.4045 6.51211Z" fill="#292929"/>
<path d="M8.46967 18.5306C8.17678 18.2377 8.17678 17.7628 8.46967 17.4699L10.9393 15.0002L8.46967 12.5306C8.17678 12.2377 8.17678 11.7628 8.46967 11.4699C8.76256 11.177 9.23744 11.177 9.53033 11.4699L12 13.9396L14.4697 11.4699C14.7626 11.177 15.2374 11.177 15.5303 11.4699C15.8232 11.7628 15.8232 12.2377 15.5303 12.5306L13.0607 15.0002L15.5303 17.4699C15.8232 17.7628 15.8232 18.2377 15.5303 18.5306C15.2374 18.8235 14.7626 18.8235 14.4697 18.5306L12 16.0609L9.53033 18.5306C9.23744 18.8235 8.76256 18.8235 8.46967 18.5306Z" fill="#292929"/>
</svg>
