<svg width="24" height="24" viewBox="0 0 24 24" fill="none" xmlns="http://www.w3.org/2000/svg">
<path d="M14.3082 2.75494C14.7101 2.85527 14.9545 3.2624 14.8542 3.66428L10.6012 20.6984C10.5009 21.1003 10.0938 21.3448 9.6919 21.2444C9.29002 21.1441 9.04557 20.737 9.14591 20.3351L13.3989 3.30092C13.4992 2.89905 13.9063 2.6546 14.3082 2.75494Z" fill="#292929"/>
<path d="M7.28046 6.21958C7.57335 6.51247 7.57335 6.98734 7.28046 7.28024L3.31079 11.2499L7.28046 15.2196C7.57335 15.5125 7.57335 15.9873 7.28046 16.2802C6.98757 16.5731 6.51269 16.5731 6.2198 16.2802L2.25013 12.3106C1.66434 11.7248 1.66434 10.775 2.25013 10.1892L6.2198 6.21958C6.51269 5.92668 6.98757 5.92668 7.28046 6.21958Z" fill="#292929"/>
<path d="M16.7197 15.2196C16.4268 15.5125 16.4268 15.9873 16.7197 16.2802C17.0126 16.5731 17.4874 16.5731 17.7803 16.2802L21.75 12.3106C22.3358 11.7248 22.3358 10.775 21.75 10.1892L17.7803 6.21958C17.4874 5.92668 17.0126 5.92668 16.7197 6.21958C16.4268 6.51247 16.4268 6.98734 16.7197 7.28024L20.6893 11.2499L16.7197 15.2196Z" fill="#292929"/>
</svg>
