<svg width="24" height="24" viewBox="0 0 24 24" fill="none" xmlns="http://www.w3.org/2000/svg">
<path d="M11.0303 11.4697C11.3232 11.7626 11.3232 12.2374 11.0303 12.5303L9.31066 14.25L11.0303 15.9697C11.3232 16.2626 11.3232 16.7374 11.0303 17.0303C10.7374 17.3232 10.2626 17.3232 9.96967 17.0303L7.71967 14.7803C7.42678 14.4874 7.42678 14.0126 7.71967 13.7197L9.96967 11.4697C10.2626 11.1768 10.7374 11.1768 11.0303 11.4697Z" fill="#292929"/>
<path d="M14.0303 11.4697C13.7374 11.1768 13.2626 11.1768 12.9697 11.4697C12.6768 11.7626 12.6768 12.2374 12.9697 12.5303L14.6893 14.25L12.9697 15.9697C12.6768 16.2626 12.6768 16.7374 12.9697 17.0303C13.2626 17.3232 13.7374 17.3232 14.0303 17.0303L16.2803 14.7803C16.5732 14.4874 16.5732 14.0126 16.2803 13.7197L14.0303 11.4697Z" fill="#292929"/>
<path fill-rule="evenodd" clip-rule="evenodd" d="M8.25 1.5C6.17893 1.5 4.5 3.17893 4.5 5.25V18.75C4.5 20.8211 6.17893 22.5 8.25 22.5H15.75C17.8211 22.5 19.5 20.8211 19.5 18.75V8.74264C19.5 7.74808 19.1049 6.79425 18.4017 6.09099L14.909 2.59835C14.2057 1.89509 13.2519 1.5 12.2574 1.5H8.25ZM6 5.25C6 4.00736 7.00736 3 8.25 3H12.2574C12.4244 3 12.5895 3.01858 12.75 3.05459V6.75C12.75 7.99264 13.7574 9 15 9H18V18.75C18 19.9926 16.9926 21 15.75 21H8.25C7.00736 21 6 19.9926 6 18.75V5.25ZM17.6257 7.5C17.5433 7.37557 17.4481 7.25877 17.341 7.15165L14.25 4.06066V6.75C14.25 7.16421 14.5858 7.5 15 7.5H17.6257Z" fill="#292929"/>
</svg>
