<svg width="24" height="24" viewBox="0 0 24 24" fill="none" xmlns="http://www.w3.org/2000/svg">
<path fill-rule="evenodd" clip-rule="evenodd" d="M4.5 18H9.75V21H6.75C6.33579 21 6 21.3358 6 21.75C6 22.1642 6.33579 22.5 6.75 22.5H17.25C17.6642 22.5 18 22.1642 18 21.75C18 21.3358 17.6642 21 17.25 21H14.25V18H19.5C21.1569 18 22.5 16.6569 22.5 15V4.5C22.5 2.84315 21.1569 1.5 19.5 1.5H4.5C2.84315 1.5 1.5 2.84315 1.5 4.5V15C1.5 16.6569 2.84315 18 4.5 18ZM4.5 3H19.5C20.3284 3 21 3.67157 21 4.5V13.5H3V4.5C3 3.67157 3.67157 3 4.5 3ZM3 15C3 15.8284 3.67157 16.5 4.5 16.5H19.5C20.3284 16.5 21 15.8284 21 15H3ZM12.75 21V18H11.25V21H12.75Z" fill="#292929"/>
</svg>
