<svg width="24" height="24" viewBox="0 0 24 24" fill="none" xmlns="http://www.w3.org/2000/svg">
<path d="M19.7197 3.21967C20.0126 2.92678 20.4874 2.92678 20.7803 3.21967C21.0732 3.51256 21.0732 3.98744 20.7803 4.28033L13.8107 11.25L17.25 11.25C17.6642 11.25 18 11.5858 18 12C18 12.4142 17.6642 12.75 17.25 12.75L12 12.75C11.5858 12.75 11.25 12.4142 11.25 12L11.25 6.75C11.25 6.33579 11.5858 6 12 6C12.4142 6 12.75 6.33579 12.75 6.75L12.75 10.1893L19.7197 3.21967Z" fill="#292929"/>
<path d="M6.75 3C4.67893 3 3 4.67893 3 6.75V17.25C3 19.3211 4.67893 21 6.75 21H17.25C19.3211 21 21 19.3211 21 17.25V12.75C21 12.3358 20.6642 12 20.25 12C19.8358 12 19.5 12.3358 19.5 12.75V17.25C19.5 18.4926 18.4926 19.5 17.25 19.5H6.75C5.50736 19.5 4.5 18.4926 4.5 17.25V6.75C4.5 5.50736 5.50736 4.5 6.75 4.5H11.25C11.6642 4.5 12 4.16421 12 3.75C12 3.33579 11.6642 3 11.25 3H6.75Z" fill="#292929"/>
</svg>
