<svg width="24" height="24" viewBox="0 0 24 24" fill="none" xmlns="http://www.w3.org/2000/svg">
<path d="M18.5303 10.2803C18.2374 10.5732 17.7626 10.5732 17.4697 10.2803L13.7197 6.53033C13.4268 6.23744 13.4268 5.76256 13.7197 5.46967L17.4697 1.71967C17.7626 1.42678 18.2374 1.42678 18.5303 1.71967C18.8232 2.01256 18.8232 2.48744 18.5303 2.78033L16.0607 5.25L21.75 5.25C22.1642 5.25 22.5 5.58579 22.5 6C22.5 6.41421 22.1642 6.75 21.75 6.75L16.0607 6.75L18.5303 9.21967C18.8232 9.51256 18.8232 9.98744 18.5303 10.2803Z" fill="#292929"/>
<path fill-rule="evenodd" clip-rule="evenodd" d="M11.25 9.75C11.25 11.8211 9.57107 13.5 7.5 13.5C5.42893 13.5 3.75 11.8211 3.75 9.75C3.75 7.67893 5.42893 6 7.5 6C9.57107 6 11.25 7.67893 11.25 9.75ZM9.75 9.75C9.75 10.9926 8.74264 12 7.5 12C6.25736 12 5.25 10.9926 5.25 9.75C5.25 8.50736 6.25736 7.5 7.5 7.5C8.74264 7.5 9.75 8.50736 9.75 9.75Z" fill="#292929"/>
<path fill-rule="evenodd" clip-rule="evenodd" d="M13.5 18.75C13.5 20.8211 10.8137 22.5 7.5 22.5C4.18629 22.5 1.5 20.8211 1.5 18.75C1.5 16.6789 4.18629 15 7.5 15C10.8137 15 13.5 16.6789 13.5 18.75ZM12 18.75C12 19.0817 11.7807 19.609 10.9476 20.1297C10.1357 20.6371 8.9207 21 7.5 21C6.0793 21 4.86429 20.6371 4.05236 20.1297C3.21929 19.609 3 19.0817 3 18.75C3 18.4183 3.21929 17.891 4.05236 17.3703C4.86429 16.8629 6.0793 16.5 7.5 16.5C8.9207 16.5 10.1357 16.8629 10.9476 17.3703C11.7807 17.891 12 18.4183 12 18.75Z" fill="#292929"/>
</svg>
