<svg width="24" height="24" viewBox="0 0 24 24" fill="none" xmlns="http://www.w3.org/2000/svg">
<path fill-rule="evenodd" clip-rule="evenodd" d="M21 2.25C21.8284 2.25 22.5 2.92157 22.5 3.75V8.25C22.5 8.52322 22.427 8.77937 22.2993 9C22.427 9.22063 22.5 9.47678 22.5 9.75V14.25C22.5 14.5232 22.427 14.7794 22.2993 15C22.427 15.2206 22.5 15.4768 22.5 15.75V20.25C22.5 21.0784 21.8284 21.75 21 21.75H3C2.17157 21.75 1.5 21.0784 1.5 20.25V15.75C1.5 15.4768 1.57305 15.2206 1.70067 15C1.57305 14.7794 1.5 14.5232 1.5 14.25V9.75C1.5 9.47678 1.57305 9.22063 1.70067 9C1.57305 8.77937 1.5 8.52322 1.5 8.25V3.75C1.5 2.92157 2.17157 2.25 3 2.25H21ZM13.5 3.75H10.5V5.25H13.5V3.75ZM9 5.25V3.75H6V5.25H9ZM3 14.25H21V9.75H15V11.25C15 12.0784 14.3284 12.75 13.5 12.75H6C5.17157 12.75 4.5 12.0784 4.5 11.25V9.75H3L3 14.25ZM21 15.75H15V17.25C15 18.0784 14.3284 18.75 13.5 18.75H6C5.17157 18.75 4.5 18.0784 4.5 17.25V15.75H3L3 20.25H21V15.75ZM6 15.75V17.25H9V15.75H6ZM10.5 15.75V17.25H13.5V15.75H10.5ZM21 3.75V8.25H3V3.75L4.5 3.75V5.25C4.5 6.07843 5.17157 6.75 6 6.75H13.5C14.3284 6.75 15 6.07843 15 5.25V3.75H21ZM6 11.25V9.75H9V11.25H6ZM10.5 11.25V9.75H13.5V11.25H10.5Z" fill="#292929"/>
</svg>
