<svg width="24" height="24" viewBox="0 0 24 24" fill="none" xmlns="http://www.w3.org/2000/svg">
<path fill-rule="evenodd" clip-rule="evenodd" d="M18 1.5C18.4142 1.5 18.75 1.83579 18.75 2.25V6.75C18.75 7.16421 18.4142 7.5 18 7.5C17.5858 7.5 17.25 7.16421 17.25 6.75V5.25H12V11.25H17.25V9.75C17.25 9.33579 17.5858 9 18 9C18.4142 9 18.75 9.33579 18.75 9.75V14.25C18.75 14.6642 18.4142 15 18 15C17.5858 15 17.25 14.6642 17.25 14.25V12.75H12V18.75H16.5V18C16.5 17.1716 17.1716 16.5 18 16.5H21C21.8284 16.5 22.5 17.1716 22.5 18V21C22.5 21.8284 21.8284 22.5 21 22.5H18C17.1716 22.5 16.5 21.8284 16.5 21V20.25H12C11.1716 20.25 10.5 19.5784 10.5 18.75V12.75H7.5V13.5C7.5 14.3284 6.82843 15 6 15H3C2.17157 15 1.5 14.3284 1.5 13.5V10.5C1.5 9.67157 2.17157 9 3 9H6C6.82843 9 7.5 9.67157 7.5 10.5V11.25H10.5V5.25C10.5 4.42157 11.1716 3.75 12 3.75H17.25V2.25C17.25 1.83579 17.5858 1.5 18 1.5ZM18 21H21V18H18V21ZM3 10.5H6V13.5H3V10.5Z" fill="#292929"/>
</svg>
