<svg width="24" height="24" viewBox="0 0 24 24" fill="none" xmlns="http://www.w3.org/2000/svg">
<path d="M18.75 5.25C18.75 6.23023 18.1232 7.06406 17.2485 7.37251C17.2495 7.41488 17.25 7.45738 17.25 7.5C17.25 8.00693 17.1781 8.49708 17.0441 8.96082C18.8573 8.69728 20.25 7.13628 20.25 5.25C20.25 3.17893 18.5711 1.5 16.5 1.5C15.4695 1.5 14.5361 1.91563 13.8583 2.58839C14.3648 2.78011 14.8338 3.04791 15.2515 3.37785C15.6088 3.13916 16.0381 3 16.5 3C17.7426 3 18.75 4.00736 18.75 5.25Z" fill="#292929"/>
<path fill-rule="evenodd" clip-rule="evenodd" d="M13.5 18.75C13.5 20.8211 10.8137 22.5 7.5 22.5C4.18629 22.5 1.5 20.8211 1.5 18.75C1.5 16.6789 4.18629 15 7.5 15C10.8137 15 13.5 16.6789 13.5 18.75ZM12 18.75C12 19.0817 11.7807 19.609 10.9476 20.1297C10.1357 20.6371 8.9207 21 7.5 21C6.0793 21 4.86429 20.6371 4.05236 20.1297C3.21929 19.609 3 19.0817 3 18.75C3 18.4183 3.21929 17.891 4.05236 17.3703C4.86429 16.8629 6.0793 16.5 7.5 16.5C8.9207 16.5 10.1357 16.8629 10.9476 17.3703C11.7807 17.891 12 18.4183 12 18.75Z" fill="#292929"/>
<path d="M12.7485 9.62251C13.6232 9.31406 14.25 8.48023 14.25 7.5C14.25 6.25736 13.2426 5.25 12 5.25C11.5381 5.25 11.1088 5.38916 10.7515 5.62785C10.3338 5.29791 9.86479 5.03011 9.35834 4.83839C10.0361 4.16563 10.9695 3.75 12 3.75C14.0711 3.75 15.75 5.42893 15.75 7.5C15.75 9.38628 14.3573 10.9473 12.5441 11.2108C12.6781 10.7471 12.75 10.2569 12.75 9.75C12.75 9.70738 12.7495 9.66488 12.7485 9.62251Z" fill="#292929"/>
<path fill-rule="evenodd" clip-rule="evenodd" d="M11.25 9.75C11.25 11.8211 9.57107 13.5 7.5 13.5C5.42893 13.5 3.75 11.8211 3.75 9.75C3.75 7.67893 5.42893 6 7.5 6C9.57107 6 11.25 7.67893 11.25 9.75ZM9.75 9.75C9.75 10.9926 8.74264 12 7.5 12C6.25736 12 5.25 10.9926 5.25 9.75C5.25 8.50736 6.25736 7.5 7.5 7.5C8.74264 7.5 9.75 8.50736 9.75 9.75Z" fill="#292929"/>
<path d="M14.7215 14.9464C13.2853 14.3719 12.2562 14.25 12 14.25V12.75C12.4938 12.75 13.7147 12.9281 15.2785 13.5536L14.7215 14.9464Z" fill="#292929"/>
<path d="M20.4699 13.2796C19.5356 12.346 17.8968 11.8857 16.5623 11.9969L16.4377 10.5021C18.1033 10.3633 20.2144 10.9037 21.5302 12.2186L20.4699 13.2796Z" fill="#292929"/>
<path d="M15.9697 22.2803C15.6768 21.9874 15.6768 21.5126 15.9697 21.2197L18.0643 19.125L15.9697 17.0303C15.6768 16.7374 15.6768 16.2626 15.9697 15.9697C16.2626 15.6768 16.7374 15.6768 17.0303 15.9697L19.125 18.0643L21.2197 15.9697C21.5126 15.6768 21.9874 15.6768 22.2803 15.9697C22.5732 16.2626 22.5732 16.7374 22.2803 17.0303L20.1857 19.125L22.2803 21.2197C22.5732 21.5126 22.5732 21.9874 22.2803 22.2803C21.9874 22.5732 21.5126 22.5732 21.2197 22.2803L19.125 20.1857L17.0303 22.2803C16.7374 22.5732 16.2626 22.5732 15.9697 22.2803Z" fill="#292929"/>
</svg>
