<svg width="24" height="24" viewBox="0 0 24 24" fill="none" xmlns="http://www.w3.org/2000/svg">
<path d="M13.5 3C13.5 3.82843 12.8284 4.5 12 4.5C11.1716 4.5 10.5 3.82843 10.5 3C10.5 2.17157 11.1716 1.5 12 1.5C12.8284 1.5 13.5 2.17157 13.5 3Z" fill="#292929"/>
<path d="M13.5 15C13.5 15.8284 12.8284 16.5 12 16.5C11.1716 16.5 10.5 15.8284 10.5 15C10.5 14.1716 11.1716 13.5 12 13.5C12.8284 13.5 13.5 14.1716 13.5 15Z" fill="#292929"/>
<path d="M7.5 9C7.5 9.82843 6.82843 10.5 6 10.5C5.17157 10.5 4.5 9.82843 4.5 9C4.5 8.17157 5.17157 7.5 6 7.5C6.82843 7.5 7.5 8.17157 7.5 9Z" fill="#292929"/>
<path d="M7.5 3C7.5 3.82843 6.82843 4.5 6 4.5C5.17157 4.5 4.5 3.82843 4.5 3C4.5 2.17157 5.17157 1.5 6 1.5C6.82843 1.5 7.5 2.17157 7.5 3Z" fill="#292929"/>
<path d="M7.5 15C7.5 15.8284 6.82843 16.5 6 16.5C5.17157 16.5 4.5 15.8284 4.5 15C4.5 14.1716 5.17157 13.5 6 13.5C6.82843 13.5 7.5 14.1716 7.5 15Z" fill="#292929"/>
<path d="M19.5 9C19.5 9.82843 18.8284 10.5 18 10.5C17.1716 10.5 16.5 9.82843 16.5 9C16.5 8.17157 17.1716 7.5 18 7.5C18.8284 7.5 19.5 8.17157 19.5 9Z" fill="#292929"/>
<path d="M13.5 9C13.5 9.82843 12.8284 10.5 12 10.5C11.1716 10.5 10.5 9.82843 10.5 9C10.5 8.17157 11.1716 7.5 12 7.5C12.8284 7.5 13.5 8.17157 13.5 9Z" fill="#292929"/>
<path d="M19.5 3C19.5 3.82843 18.8284 4.5 18 4.5C17.1716 4.5 16.5 3.82843 16.5 3C16.5 2.17157 17.1716 1.5 18 1.5C18.8284 1.5 19.5 2.17157 19.5 3Z" fill="#292929"/>
<path d="M19.5 15C19.5 15.8284 18.8284 16.5 18 16.5C17.1716 16.5 16.5 15.8284 16.5 15C16.5 14.1716 17.1716 13.5 18 13.5C18.8284 13.5 19.5 14.1716 19.5 15Z" fill="#292929"/>
<path d="M12 22.5C12.8284 22.5 13.5 21.8284 13.5 21C13.5 20.1716 12.8284 19.5 12 19.5C11.1716 19.5 10.5 20.1716 10.5 21C10.5 21.8284 11.1716 22.5 12 22.5Z" fill="#292929"/>
</svg>
