<svg width="24" height="24" viewBox="0 0 24 24" fill="none" xmlns="http://www.w3.org/2000/svg">
<path fill-rule="evenodd" clip-rule="evenodd" d="M12 22.5C17.799 22.5 22.5 17.799 22.5 12C22.5 9.45808 21.5967 7.12713 20.0937 5.3106L22.1011 3.30319C22.4331 2.97124 22.4331 2.43305 22.1011 2.10111C21.7692 1.76916 21.231 1.76916 20.899 2.10111L18.9079 4.09219C17.0617 2.47803 14.6451 1.5 12 1.5C6.20101 1.5 1.5 6.20101 1.5 12C1.5 14.645 2.47803 17.0617 4.09219 18.9079L2.10111 20.899C1.76916 21.231 1.76916 21.7692 2.10111 22.1011C2.43305 22.4331 2.97124 22.4331 3.30319 22.1011L5.3106 20.0937C7.12713 21.5967 9.45808 22.5 12 22.5ZM6.37681 19.0275C7.91733 20.2618 9.87245 21 12 21C16.9706 21 21 16.9706 21 12C21 9.87245 20.2618 7.91733 19.0275 6.37681L6.37681 19.0275ZM5.15565 17.8445L17.8445 5.15565C16.272 3.81161 14.2308 3 12 3C7.02944 3 3 7.02944 3 12C3 14.2308 3.81161 16.272 5.15565 17.8445Z" fill="#292929"/>
</svg>
