<svg width="24" height="24" viewBox="0 0 24 24" fill="none" xmlns="http://www.w3.org/2000/svg">
<path d="M11.7805 8.03033C12.0734 7.73744 12.0734 7.26256 11.7805 6.96967C11.4876 6.67678 11.0127 6.67678 10.7198 6.96967L6.75013 10.9393C6.16434 11.5251 6.16434 12.4749 6.75013 13.0607L10.7198 17.0303C11.0127 17.3232 11.4876 17.3232 11.7805 17.0303C12.0734 16.7374 12.0734 16.2626 11.7805 15.9697L7.81079 12L11.7805 8.03033Z" fill="#292929"/>
<path d="M17.7805 8.03033C18.0734 7.73744 18.0734 7.26256 17.7805 6.96967C17.4876 6.67678 17.0127 6.67678 16.7198 6.96967L12.7501 10.9393C12.1643 11.5251 12.1643 12.4749 12.7501 13.0607L16.7198 17.0303C17.0127 17.3232 17.4876 17.3232 17.7805 17.0303C18.0734 16.7374 18.0734 16.2626 17.7805 15.9697L13.8108 12L17.7805 8.03033Z" fill="#292929"/>
</svg>
