<svg width="24" height="24" viewBox="0 0 24 24" fill="none" xmlns="http://www.w3.org/2000/svg">
<path fill-rule="evenodd" clip-rule="evenodd" d="M8.25 7.5C9.90685 7.5 11.25 6.15685 11.25 4.5C11.25 2.84315 9.90685 1.5 8.25 1.5C6.59315 1.5 5.25 2.84315 5.25 4.5C5.25 6.15685 6.59315 7.5 8.25 7.5ZM8.25 6C9.07843 6 9.75 5.32843 9.75 4.5C9.75 3.67157 9.07843 3 8.25 3C7.42157 3 6.75 3.67157 6.75 4.5C6.75 5.32843 7.42157 6 8.25 6Z" fill="#292929"/>
<path fill-rule="evenodd" clip-rule="evenodd" d="M8.25 15C9.90685 15 11.25 13.6569 11.25 12C11.25 10.3431 9.90685 9 8.25 9C6.59315 9 5.25 10.3431 5.25 12C5.25 13.6569 6.59315 15 8.25 15ZM8.25 13.5C9.07843 13.5 9.75 12.8284 9.75 12C9.75 11.1716 9.07843 10.5 8.25 10.5C7.42157 10.5 6.75 11.1716 6.75 12C6.75 12.8284 7.42157 13.5 8.25 13.5Z" fill="#292929"/>
<path fill-rule="evenodd" clip-rule="evenodd" d="M11.25 19.5C11.25 21.1569 9.90685 22.5 8.25 22.5C6.59315 22.5 5.25 21.1569 5.25 19.5C5.25 17.8431 6.59315 16.5 8.25 16.5C9.90685 16.5 11.25 17.8431 11.25 19.5ZM9.75 19.5C9.75 20.3284 9.07843 21 8.25 21C7.42157 21 6.75 20.3284 6.75 19.5C6.75 18.6716 7.42157 18 8.25 18C9.07843 18 9.75 18.6716 9.75 19.5Z" fill="#292929"/>
<path fill-rule="evenodd" clip-rule="evenodd" d="M15.75 7.5C17.4069 7.5 18.75 6.15685 18.75 4.5C18.75 2.84315 17.4069 1.5 15.75 1.5C14.0931 1.5 12.75 2.84315 12.75 4.5C12.75 6.15685 14.0931 7.5 15.75 7.5ZM15.75 6C16.5784 6 17.25 5.32843 17.25 4.5C17.25 3.67157 16.5784 3 15.75 3C14.9216 3 14.25 3.67157 14.25 4.5C14.25 5.32843 14.9216 6 15.75 6Z" fill="#292929"/>
<path fill-rule="evenodd" clip-rule="evenodd" d="M15.75 15C17.4069 15 18.75 13.6569 18.75 12C18.75 10.3431 17.4069 9 15.75 9C14.0931 9 12.75 10.3431 12.75 12C12.75 13.6569 14.0931 15 15.75 15ZM15.75 13.5C16.5784 13.5 17.25 12.8284 17.25 12C17.25 11.1716 16.5784 10.5 15.75 10.5C14.9216 10.5 14.25 11.1716 14.25 12C14.25 12.8284 14.9216 13.5 15.75 13.5Z" fill="#292929"/>
<path fill-rule="evenodd" clip-rule="evenodd" d="M18.75 19.5C18.75 21.1569 17.4069 22.5 15.75 22.5C14.0931 22.5 12.75 21.1569 12.75 19.5C12.75 17.8431 14.0931 16.5 15.75 16.5C17.4069 16.5 18.75 17.8431 18.75 19.5ZM17.25 19.5C17.25 20.3284 16.5784 21 15.75 21C14.9216 21 14.25 20.3284 14.25 19.5C14.25 18.6716 14.9216 18 15.75 18C16.5784 18 17.25 18.6716 17.25 19.5Z" fill="#292929"/>
</svg>
