<svg width="24" height="24" viewBox="0 0 24 24" fill="none" xmlns="http://www.w3.org/2000/svg">
<path d="M6.23476 6.96967C6.54778 6.67678 7.05527 6.67678 7.36829 6.96967L11.6107 10.9393C12.2367 11.5251 12.2367 12.4749 11.6107 13.0607L7.36829 17.0303C7.05527 17.3232 6.54778 17.3232 6.23476 17.0303C5.92175 16.7374 5.92175 16.2626 6.23476 15.9697L10.4771 12L6.23476 8.03033C5.92175 7.73744 5.92175 7.26256 6.23476 6.96967Z" fill="#292929"/>
<path d="M12.1546 6.96967C12.4676 6.67678 12.9751 6.67678 13.2881 6.96967L17.5305 10.9393C18.1565 11.5251 18.1565 12.4749 17.5305 13.0607L13.2881 17.0303C12.9751 17.3232 12.4676 17.3232 12.1546 17.0303C11.8415 16.7374 11.8415 16.2626 12.1546 15.9697L16.3969 12L12.1546 8.03033C11.8415 7.73744 11.8415 7.26256 12.1546 6.96967Z" fill="#292929"/>
</svg>
