<svg width="24" height="24" viewBox="0 0 24 24" fill="none" xmlns="http://www.w3.org/2000/svg">
<path fill-rule="evenodd" clip-rule="evenodd" d="M1.5 8.25C1.5 6.17893 3.17893 4.5 5.25 4.5H18.75C20.8211 4.5 22.5 6.17893 22.5 8.25V12.75C22.5 13.1642 22.1642 13.5 21.75 13.5C21.3358 13.5 21 13.1642 21 12.75V8.25C21 8.07189 20.9793 7.89861 20.9402 7.73244L13.8 13.0875C12.7334 13.8875 11.2667 13.8875 10.2 13.0875L3.05983 7.73238C3.0207 7.89857 3 8.07187 3 8.25V15.75C3 16.9926 4.00736 18 5.25 18H9.75C10.1642 18 10.5 18.3358 10.5 18.75C10.5 19.1642 10.1642 19.5 9.75 19.5H5.25C3.17893 19.5 1.5 17.8211 1.5 15.75V8.25ZM5.25 6H18.75C19.2678 6 19.7447 6.17491 20.125 6.46886L12.9 11.8875C12.3667 12.2875 11.6334 12.2875 11.1 11.8875L3.87508 6.46882C4.25531 6.17489 4.73223 6 5.25 6Z" fill="#292929"/>
<path d="M22.2699 16.2906C22.5685 16.0035 22.5778 15.5287 22.2907 15.2302C22.0036 14.9316 21.5288 14.9223 21.2302 15.2094L15.5203 20.6996L13.2803 18.4597C12.9874 18.1668 12.5126 18.1668 12.2197 18.4597C11.9268 18.7526 11.9268 19.2274 12.2197 19.5203L14.4597 21.7603C15.0374 22.338 15.9711 22.3471 16.56 21.7809L22.2699 16.2906Z" fill="#292929"/>
</svg>
