<svg width="24" height="24" viewBox="0 0 24 24" fill="none" xmlns="http://www.w3.org/2000/svg">
<path d="M11.1854 9.30479C11.3536 8.92628 11.1832 8.48306 10.8046 8.31483C10.4261 8.1466 9.9829 8.31707 9.81468 8.69558L7.32325 14.3013L5.84205 12.3969C5.58775 12.0699 5.11654 12.011 4.78958 12.2653C4.46262 12.5196 4.40372 12.9908 4.65802 13.3178L6.13923 15.2222C6.83508 16.1169 8.23365 15.9462 8.69397 14.9105L11.1854 9.30479Z" fill="#292929"/>
<path d="M12.75 10.5C12.75 10.0858 13.0858 9.75 13.5 9.75H18.75C19.1642 9.75 19.5 10.0858 19.5 10.5C19.5 10.9142 19.1642 11.25 18.75 11.25H13.5C13.0858 11.25 12.75 10.9142 12.75 10.5Z" fill="#292929"/>
<path d="M13.5 12.75C13.0858 12.75 12.75 13.0858 12.75 13.5C12.75 13.9142 13.0858 14.25 13.5 14.25H18.75C19.1642 14.25 19.5 13.9142 19.5 13.5C19.5 13.0858 19.1642 12.75 18.75 12.75H13.5Z" fill="#292929"/>
<path fill-rule="evenodd" clip-rule="evenodd" d="M1.5 6C1.5 5.17157 2.17157 4.5 3 4.5H21C21.8284 4.5 22.5 5.17157 22.5 6V18C22.5 18.8284 21.8284 19.5 21 19.5H3C2.17157 19.5 1.5 18.8284 1.5 18V6ZM3 6H21V18H3V6Z" fill="#292929"/>
</svg>
