<svg width="24" height="24" viewBox="0 0 24 24" fill="none" xmlns="http://www.w3.org/2000/svg">
<path d="M11.25 6.75C11.25 6.33579 11.5858 6 12 6C12.4142 6 12.75 6.33579 12.75 6.75V12.75C12.75 13.1642 12.4142 13.5 12 13.5C11.5858 13.5 11.25 13.1642 11.25 12.75V6.75Z" fill="#292929"/>
<path d="M12 17.25C12.4142 17.25 12.75 16.9142 12.75 16.5C12.75 16.0858 12.4142 15.75 12 15.75C11.5858 15.75 11.25 16.0858 11.25 16.5C11.25 16.9142 11.5858 17.25 12 17.25Z" fill="#292929"/>
<path fill-rule="evenodd" clip-rule="evenodd" d="M22.5 12C22.5 17.799 17.799 22.5 12 22.5C6.20101 22.5 1.5 17.799 1.5 12C1.5 6.20101 6.20101 1.5 12 1.5C17.799 1.5 22.5 6.20101 22.5 12ZM21 12C21 16.9706 16.9706 21 12 21C7.02944 21 3 16.9706 3 12C3 7.02944 7.02944 3 12 3C16.9706 3 21 7.02944 21 12Z" fill="#292929"/>
</svg>
