<svg width="24" height="24" viewBox="0 0 24 24" fill="none" xmlns="http://www.w3.org/2000/svg">
<path fill-rule="evenodd" clip-rule="evenodd" d="M16.0789 11.1783C15.5858 10.8262 15.4111 10.4392 15.2118 9.63527L15.1616 9.43833C15.0593 9.05755 14.9848 8.93536 14.8395 8.86073C12.8076 7.93301 10.7961 7.93325 8.78761 8.8508C8.60364 8.94449 8.52969 9.08588 8.40801 9.57432L8.34332 9.82792C8.16212 10.5036 7.97735 10.8559 7.52425 11.1788C7.08294 11.4924 4.7226 11.8534 3.79086 11.8414C3.30036 11.8351 2.87174 11.7083 2.51066 11.3747C1.67044 10.5232 1.51809 8.20336 1.77866 7.17261C1.97429 5.89094 2.85433 4.95157 4.28691 4.38317C7.90711 2.75972 15.7029 2.73225 19.2981 4.37557L19.5033 4.46304C20.8448 5.0612 21.6532 5.9591 21.8157 7.12217C22.0871 8.31733 21.9171 10.559 21.0886 11.3803L21.0717 11.3965C20.7324 11.709 20.3046 11.8356 19.8135 11.8418C18.8805 11.8538 16.5216 11.4932 16.0789 11.1783ZM7.29206 8.39214C7.14616 8.67037 7.06331 8.98226 7.00395 9.22032L6.94253 9.46109C6.86475 9.74963 6.81427 9.85639 6.78831 9.90043C6.77863 9.91687 6.7718 9.92529 6.76419 9.93336C6.76101 9.93674 6.75616 9.94165 6.74904 9.94814C6.69771 9.9657 6.62223 9.98859 6.52012 10.0152C6.27735 10.0786 5.95681 10.1445 5.60171 10.2042C4.86846 10.3273 4.14557 10.3978 3.80947 10.3934C3.68218 10.3918 3.61237 10.3751 3.57731 10.3629C3.55901 10.3565 3.5426 10.349 3.52482 10.3367C3.51497 10.3232 3.5011 10.3024 3.48415 10.2728C3.44874 10.2109 3.40787 10.1241 3.36617 10.0093C3.28156 9.77647 3.21196 9.47962 3.16676 9.14622C3.07198 8.44724 3.1117 7.80755 3.18252 7.52739L3.19959 7.45985L3.2101 7.39099C3.30743 6.75335 3.72375 6.1644 4.82084 5.72912L4.85036 5.71741L4.87933 5.70442C6.41812 5.01436 9.03522 4.60661 11.804 4.60235C14.5755 4.59809 17.1781 4.9987 18.6961 5.69255L18.7131 5.70031L18.9238 5.79014C19.9626 6.25597 20.3098 6.80876 20.3816 7.32264L20.3901 7.38325L20.4036 7.44293C20.4927 7.83535 20.5239 8.5143 20.4302 9.19354C20.3847 9.52333 20.3153 9.81009 20.2329 10.0314C20.1923 10.1404 20.153 10.2214 20.1198 10.2782C20.1002 10.3114 20.0854 10.3319 20.0769 10.3427C20.0671 10.3495 20.0545 10.356 20.0344 10.3628C19.9976 10.3753 19.9236 10.3923 19.795 10.3939C19.4581 10.3983 18.7354 10.3279 18.0025 10.2047C17.6475 10.145 17.3271 10.079 17.0844 10.0156C16.9823 9.98885 16.9068 9.96592 16.8555 9.94833C16.8466 9.94021 16.8412 9.93448 16.838 9.93103C16.8317 9.92404 16.8231 9.91368 16.8094 9.88829C16.7709 9.81684 16.7121 9.66892 16.6174 9.28676L16.5624 9.07138L16.56 9.06233C16.5044 8.85561 16.4224 8.57814 16.2764 8.32062C16.0886 7.9893 15.8265 7.73976 15.501 7.57261L15.4713 7.55736L15.441 7.5435C13.0296 6.44251 10.5791 6.44047 8.186 7.53371L8.158 7.54651L8.13057 7.56048C7.77727 7.7404 7.4913 8.01219 7.29206 8.39214Z" fill="#292929"/>
<path d="M9.00002 15.0007C9.41423 15.0007 9.75002 14.6649 9.75002 14.2507C9.75002 13.8364 9.41423 13.5007 9.00002 13.5007C8.58581 13.5007 8.25002 13.8364 8.25002 14.2507C8.25002 14.6649 8.58581 15.0007 9.00002 15.0007Z" fill="#292929"/>
<path d="M12.75 14.2507C12.75 14.6649 12.4142 15.0007 12 15.0007C11.5858 15.0007 11.25 14.6649 11.25 14.2507C11.25 13.8364 11.5858 13.5007 12 13.5007C12.4142 13.5007 12.75 13.8364 12.75 14.2507Z" fill="#292929"/>
<path d="M15.75 14.2507C15.75 14.6649 15.4142 15.0007 15 15.0007C14.5858 15.0007 14.25 14.6649 14.25 14.2507C14.25 13.8364 14.5858 13.5007 15 13.5007C15.4142 13.5007 15.75 13.8364 15.75 14.2507Z" fill="#292929"/>
<path d="M9.75002 17.2507C9.75002 17.6649 9.41423 18.0007 9.00002 18.0007C8.58581 18.0007 8.25002 17.6649 8.25002 17.2507C8.25002 16.8364 8.58581 16.5007 9.00002 16.5007C9.41423 16.5007 9.75002 16.8364 9.75002 17.2507Z" fill="#292929"/>
<path d="M12.75 17.2507C12.75 17.6649 12.4142 18.0007 12 18.0007C11.5858 18.0007 11.25 17.6649 11.25 17.2507C11.25 16.8364 11.5858 16.5007 12 16.5007C12.4142 16.5007 12.75 16.8364 12.75 17.2507Z" fill="#292929"/>
<path d="M15.75 17.2507C15.75 17.6649 15.4142 18.0007 15 18.0007C14.5858 18.0007 14.25 17.6649 14.25 17.2507C14.25 16.8364 14.5858 16.5007 15 16.5007C15.4142 16.5007 15.75 16.8364 15.75 17.2507Z" fill="#292929"/>
<path d="M9.75002 20.2507C9.75002 20.6649 9.41423 21.0007 9.00002 21.0007C8.58581 21.0007 8.25002 20.6649 8.25002 20.2507C8.25002 19.8364 8.58581 19.5007 9.00002 19.5007C9.41423 19.5007 9.75002 19.8364 9.75002 20.2507Z" fill="#292929"/>
<path d="M12.75 20.2507C12.75 20.6649 12.4142 21.0007 12 21.0007C11.5858 21.0007 11.25 20.6649 11.25 20.2507C11.25 19.8364 11.5858 19.5007 12 19.5007C12.4142 19.5007 12.75 19.8364 12.75 20.2507Z" fill="#292929"/>
<path d="M15.75 20.2507C15.75 20.6649 15.4142 21.0007 15 21.0007C14.5858 21.0007 14.25 20.6649 14.25 20.2507C14.25 19.8364 14.5858 19.5007 15 19.5007C15.4142 19.5007 15.75 19.8364 15.75 20.2507Z" fill="#292929"/>
</svg>
