<svg width="24" height="24" viewBox="0 0 24 24" fill="none" xmlns="http://www.w3.org/2000/svg">
<path fill-rule="evenodd" clip-rule="evenodd" d="M21.949 3.15099C22.281 2.81905 22.281 2.28086 21.949 1.94891C21.6171 1.61696 21.0789 1.61696 20.7469 1.94891L17.4876 5.2082C15.9565 4.33491 14.1275 3.7499 12 3.7499C7.49851 3.7499 4.33366 6.36866 2.49881 8.79576C1.05541 10.7051 1.21868 13.2915 2.61562 15.1398C3.26451 15.9984 4.05827 16.8887 5.01478 17.6811L1.94901 20.7468C1.61706 21.0788 1.61706 21.617 1.94901 21.9489C2.28095 22.2809 2.81914 22.2809 3.15109 21.9489L6.41534 18.6847C7.93831 19.6156 9.78435 20.2499 12 20.2499C16.556 20.2499 19.5493 17.5676 21.3843 15.1398C22.7812 13.2915 22.9445 10.7051 21.5011 8.79576C20.8243 7.90045 19.9664 6.97907 18.9273 6.17267L21.949 3.15099ZM16.3814 6.31441C15.1238 5.66512 13.6632 5.2499 12 5.2499C8.1367 5.2499 5.3663 7.49005 3.69536 9.70034C2.70184 11.0145 2.77265 12.8599 3.81227 14.2354C4.43892 15.0645 5.18854 15.8961 6.08016 16.6157L8.2331 14.4627C7.76952 13.7551 7.49994 12.909 7.49994 11.9999C7.49994 9.51462 9.51466 7.4999 11.9999 7.4999C12.909 7.4999 13.7552 7.76948 14.4628 8.23306L16.3814 6.31441ZM15.6844 9.41564L17.8576 7.24236C18.8392 7.97728 19.6549 8.84106 20.3045 9.70034C21.2981 11.0145 21.2273 12.8599 20.1876 14.2354C18.4887 16.4832 15.8858 18.7499 12 18.7499C10.2572 18.7499 8.77252 18.294 7.51169 17.5883L9.41567 15.6843C10.147 16.1982 11.0382 16.4999 11.9999 16.4999C14.4852 16.4999 16.4999 14.4852 16.4999 11.9999C16.4999 11.0382 16.1983 10.1469 15.6844 9.41564ZM13.367 9.32879C12.9571 9.11854 12.4924 8.9999 11.9999 8.9999C10.3431 8.9999 8.99994 10.343 8.99994 11.9999C8.99994 12.4923 9.11858 12.957 9.32883 13.367L13.367 9.32879ZM10.5009 14.5991L14.5991 10.5009C14.8541 10.9419 14.9999 11.4539 14.9999 11.9999C14.9999 13.6568 13.6568 14.9999 11.9999 14.9999C11.4539 14.9999 10.9419 14.854 10.5009 14.5991Z" fill="#292929"/>
</svg>
