<svg width="24" height="24" viewBox="0 0 24 24" fill="none" xmlns="http://www.w3.org/2000/svg">
<path fill-rule="evenodd" clip-rule="evenodd" d="M16.4999 12C16.4999 14.4853 14.4852 16.5 11.9999 16.5C9.51466 16.5 7.49994 14.4853 7.49994 12C7.49994 9.51472 9.51466 7.5 11.9999 7.5C14.4852 7.5 16.4999 9.51472 16.4999 12ZM14.9999 12C14.9999 13.6569 13.6568 15 11.9999 15C10.3431 15 8.99994 13.6569 8.99994 12C8.99994 10.3431 10.3431 9 11.9999 9C13.6568 9 14.9999 10.3431 14.9999 12Z" fill="#292929"/>
<path fill-rule="evenodd" clip-rule="evenodd" d="M12 3.75C7.49851 3.75 4.33366 6.36875 2.49881 8.79586C1.05541 10.7052 1.21868 13.2916 2.61562 15.1399C4.45056 17.5677 7.44388 20.25 12 20.25C16.556 20.25 19.5493 17.5677 21.3843 15.1399C22.7812 13.2916 22.9445 10.7052 21.5011 8.79586C19.6662 6.36875 16.5014 3.75 12 3.75ZM3.69536 9.70044C5.3663 7.49015 8.1367 5.25 12 5.25C15.8632 5.25 18.6336 7.49015 20.3045 9.70044C21.2981 11.0146 21.2273 12.86 20.1876 14.2355C18.4887 16.4833 15.8858 18.75 12 18.75C8.11413 18.75 5.51123 16.4833 3.81227 14.2355C2.77265 12.86 2.70184 11.0146 3.69536 9.70044Z" fill="#292929"/>
</svg>
