<svg width="24" height="24" viewBox="0 0 24 24" fill="none" xmlns="http://www.w3.org/2000/svg">
<path fill-rule="evenodd" clip-rule="evenodd" d="M12.7157 3.0388C12.4963 2.33733 11.5035 2.33733 11.2841 3.0388L9.54251 8.60673C9.44369 8.92265 9.14945 9.13643 8.81845 9.13279L2.98485 9.06857C2.24991 9.06048 1.94313 10.0047 2.54246 10.4301L7.29969 13.8071C7.56962 13.9987 7.68201 14.3446 7.57626 14.6582L5.7125 20.1865C5.4777 20.8829 6.28086 21.4665 6.87069 21.0279L11.5524 17.5471C11.8181 17.3496 12.1818 17.3496 12.4474 17.5471L17.1291 21.0279C17.719 21.4665 18.5221 20.8829 18.2873 20.1865L16.4236 14.6582C16.3178 14.3446 16.4302 13.9987 16.7001 13.8071L21.4574 10.4301C22.0567 10.0047 21.7499 9.06048 21.015 9.06857L15.1814 9.13279C14.8504 9.13643 14.5561 8.92265 14.4573 8.60673L12.7157 3.0388Z" fill="#292929"/>
</svg>
