<svg width="24" height="24" viewBox="0 0 24 24" fill="none" xmlns="http://www.w3.org/2000/svg">
<path fill-rule="evenodd" clip-rule="evenodd" d="M14.1345 3.19046C12.8504 2.30142 11.1496 2.30142 9.86546 3.19046L3.11546 7.86354C2.10372 8.56398 1.5 9.71622 1.5 10.9468V18.7499C1.5 20.821 3.17893 22.4999 5.25 22.4999H18.75C20.8211 22.4999 22.5 20.821 22.5 18.7499V10.9468C22.5 9.71622 21.8963 8.56398 20.8845 7.86354L14.1345 3.19046ZM10.7193 4.42375C11.4898 3.89033 12.5102 3.89033 13.2807 4.42375L20.0307 9.09683C20.0939 9.14057 20.1545 9.18726 20.2122 9.23663L12.9145 14.8502C12.8616 14.8909 12.8066 14.9277 12.75 14.9604V8.99991L14.55 10.3499C14.8814 10.5985 15.3515 10.5313 15.6 10.1999C15.8486 9.86857 15.7814 9.39847 15.45 9.14994L12.45 6.89994C12.1834 6.69994 11.8167 6.69994 11.55 6.89994L8.55004 9.14994C8.21867 9.39847 8.15152 9.86857 8.40004 10.1999C8.64857 10.5313 9.11867 10.5985 9.45004 10.3499L11.25 8.99997V14.9604C11.1934 14.9277 11.1384 14.891 11.0854 14.8502L3.78777 9.23665C3.84553 9.18727 3.90608 9.14058 3.96928 9.09683L10.7193 4.42375ZM3.03519 10.5502C3.01197 10.6799 3 10.8126 3 10.9468V18.7499C3 19.9925 4.00736 20.9999 5.25 20.9999H18.75C19.9926 20.9999 21 19.9925 21 18.7499V10.9468C21 10.8126 20.988 10.6799 20.9648 10.5502L13.8291 16.0392C12.7508 16.8687 11.2492 16.8687 10.1708 16.0392L3.03519 10.5502Z" fill="#292929"/>
</svg>
