<svg width="24" height="24" viewBox="0 0 24 24" fill="none" xmlns="http://www.w3.org/2000/svg">
<path fill-rule="evenodd" clip-rule="evenodd" d="M3 6.40165C3 4.52297 4.52297 3 6.40165 3H17.5983C19.477 3 21 4.52297 21 6.40165C21 7.30382 20.6416 8.16905 20.0037 8.80698L15.2197 13.591C15.079 13.7316 15 13.9224 15 14.1213V18.75C15 19.9926 13.9926 21 12.75 21H11.25C10.0074 21 9 19.9926 9 18.75V14.1213C9 13.9224 8.92098 13.7316 8.78033 13.591L3.99632 8.80698C3.35839 8.16905 3 7.30382 3 6.40165ZM6.40165 4.5C5.3514 4.5 4.5 5.3514 4.5 6.40165C4.5 6.906 4.70035 7.38969 5.05698 7.74632L9.84099 12.5303C10.2629 12.9523 10.5 13.5246 10.5 14.1213V18.75C10.5 19.1642 10.8358 19.5 11.25 19.5H12.75C13.1642 19.5 13.5 19.1642 13.5 18.75V14.1213C13.5 13.5246 13.7371 12.9523 14.159 12.5303L18.943 7.74632C19.2996 7.38969 19.5 6.906 19.5 6.40165C19.5 5.3514 18.6486 4.5 17.5983 4.5H6.40165Z" fill="#292929"/>
</svg>
