<svg width="24" height="24" viewBox="0 0 24 24" fill="none" xmlns="http://www.w3.org/2000/svg">
<path fill-rule="evenodd" clip-rule="evenodd" d="M1.5 4.5C1.5 3.67157 2.17157 3 3 3H8.51344C9.04695 3 9.5403 3.28337 9.80911 3.74419L11.125 6H20.25C21.4926 6 22.5 7.00736 22.5 8.25V18.75C22.5 19.9926 21.4926 21 20.25 21H3.75C2.50736 21 1.5 19.9926 1.5 18.75V4.5ZM3 4.5H8.51344L9.38844 6H3V4.5ZM3 7.5V18.75C3 19.1642 3.33579 19.5 3.75 19.5H20.25C20.6642 19.5 21 19.1642 21 18.75V8.25C21 7.83579 20.6642 7.5 20.25 7.5H3Z" fill="#292929"/>
</svg>
