<svg width="24" height="24" viewBox="0 0 24 24" fill="none" xmlns="http://www.w3.org/2000/svg">
<path fill-rule="evenodd" clip-rule="evenodd" d="M5.25 3C5.25 2.17157 5.92157 1.5 6.75 1.5H13.9393C14.3372 1.5 14.7187 1.65803 15 1.93934L19.0607 6C19.342 6.2813 19.5 6.66284 19.5 7.06066V9H20.25C21.4926 9 22.5 10.0074 22.5 11.25V18.75C22.5 19.9926 21.4926 21 20.25 21H3.75C2.50736 21 1.5 19.9926 1.5 18.75V7.5C1.5 6.67157 2.17157 6 3 6H5.25V3ZM18 7.5V9H6.75V3H13.5V6C13.5 6.82843 14.1716 7.5 15 7.5H18ZM16.9393 6L15 4.06066V6H16.9393ZM3 7.5H5.25V9H3V7.5ZM3 10.5V18.75C3 19.1642 3.33579 19.5 3.75 19.5H20.25C20.6642 19.5 21 19.1642 21 18.75V11.25C21 10.8358 20.6642 10.5 20.25 10.5H3Z" fill="#292929"/>
</svg>
