<svg width="24" height="24" viewBox="0 0 24 24" fill="none" xmlns="http://www.w3.org/2000/svg">
<path d="M11.7502 3.75C9.87499 3.75 8.18941 4.91308 7.54822 6.68473C7.10281 7.91541 6.6453 9.20162 6.18533 10.5H3C2.58579 10.5 2.25 10.8358 2.25 11.25C2.25 11.6642 2.58579 12 3 12H5.65444C4.75697 14.5365 3.86425 17.0559 3.04763 19.237C2.9024 19.6249 3.09913 20.0571 3.48705 20.2024C3.87496 20.3476 4.30717 20.1509 4.45241 19.763C5.29736 17.5061 6.2308 14.8681 7.16154 12.2376L7.24561 12H10.5C10.9142 12 11.25 11.6642 11.25 11.25C11.25 10.8358 10.9142 10.5 10.5 10.5H7.77686C8.17755 9.37032 8.57396 8.25819 8.95868 7.1952C9.38193 6.02577 10.4977 5.25 11.7502 5.25H12.75C13.1642 5.25 13.5 4.91421 13.5 4.5C13.5 4.08579 13.1642 3.75 12.75 3.75H11.7502Z" fill="#292929"/>
<path d="M13.7815 8.41438C14.105 8.15562 14.5769 8.20806 14.8357 8.53151L17.1787 11.4603L20.4955 8.44504C20.802 8.16641 21.2763 8.189 21.555 8.49549C21.8336 8.80198 21.811 9.27632 21.5045 9.55495L18.1176 12.6339L20.8357 16.0315C21.0944 16.355 21.042 16.8269 20.7185 17.0857C20.3951 17.3444 19.9231 17.292 19.6644 16.9685L17.0055 13.645L13.2545 17.0549C12.948 17.3336 12.4737 17.311 12.1951 17.0045C11.9164 16.698 11.939 16.2237 12.2455 15.945L16.0666 12.4713L13.6644 9.46855C13.4056 9.1451 13.4581 8.67313 13.7815 8.41438Z" fill="#292929"/>
</svg>
