<svg width="24" height="24" viewBox="0 0 24 24" fill="none" xmlns="http://www.w3.org/2000/svg">
<path fill-rule="evenodd" clip-rule="evenodd" d="M9 10.5001C10.2426 10.5001 11.25 9.49276 11.25 8.25012C11.25 7.00748 10.2426 6.00012 9 6.00012C7.75736 6.00012 6.75 7.00748 6.75 8.25012C6.75 9.49276 7.75736 10.5001 9 10.5001ZM9 9.00012C9.41421 9.00012 9.75 8.66434 9.75 8.25012C9.75 7.83591 9.41421 7.50012 9 7.50012C8.58579 7.50012 8.25 7.83591 8.25 8.25012C8.25 8.66434 8.58579 9.00012 9 9.00012Z" fill="#292929"/>
<path fill-rule="evenodd" clip-rule="evenodd" d="M12.75 14.2501C12.75 15.4928 11.0711 16.5001 9 16.5001C6.92893 16.5001 5.25 15.4928 5.25 14.2501C5.25 13.0075 6.92893 12.0001 9 12.0001C11.0711 12.0001 12.75 13.0075 12.75 14.2501ZM10.8799 13.9454C11.1147 14.0862 11.2041 14.1959 11.2366 14.2501C11.2041 14.3043 11.1147 14.414 10.8799 14.5549C10.4715 14.7999 9.81041 15.0001 9 15.0001C8.18959 15.0001 7.52852 14.7999 7.12009 14.5549C6.88533 14.414 6.79588 14.3043 6.76343 14.2501C6.79588 14.1959 6.88533 14.0862 7.12009 13.9454C7.52852 13.7003 8.18959 13.5001 9 13.5001C9.81041 13.5001 10.4715 13.7003 10.8799 13.9454ZM6.74657 14.2138L6.74618 14.2129C6.74607 14.2129 6.74639 14.2146 6.74751 14.2178L6.74657 14.2138ZM11.2538 14.2874C11.2539 14.2873 11.2536 14.2857 11.2525 14.2824L11.2529 14.2842C11.2533 14.2864 11.2537 14.2874 11.2538 14.2874Z" fill="#292929"/>
<path fill-rule="evenodd" clip-rule="evenodd" d="M15 9.75012C16.2426 9.75012 17.25 8.74276 17.25 7.50012C17.25 6.25748 16.2426 5.25012 15 5.25012C13.7574 5.25012 12.75 6.25748 12.75 7.50012C12.75 8.74276 13.7574 9.75012 15 9.75012ZM15 8.25012C15.4142 8.25012 15.75 7.91434 15.75 7.50012C15.75 7.08591 15.4142 6.75012 15 6.75012C14.5858 6.75012 14.25 7.08591 14.25 7.50012C14.25 7.91434 14.5858 8.25012 15 8.25012Z" fill="#292929"/>
<path fill-rule="evenodd" clip-rule="evenodd" d="M14.2502 14.2501C14.2502 14.7438 14.1166 15.2152 13.8739 15.6469C14.2294 15.714 14.6077 15.7501 15.0002 15.7501C17.0712 15.7501 18.7502 14.7428 18.7502 13.5001C18.7502 12.2575 17.0712 11.2501 15.0002 11.2501C14.1839 11.2501 13.4286 11.4066 12.813 11.6723C13.2743 12.0202 13.6432 12.4313 13.8917 12.8854C14.2133 12.8021 14.5874 12.7501 15.0002 12.7501C15.8106 12.7501 16.4716 12.9503 16.8801 13.1954C17.1148 13.3362 17.2043 13.4459 17.2367 13.5001C17.2043 13.5543 17.1148 13.664 16.8801 13.8049C16.4716 14.0499 15.8106 14.2501 15.0002 14.2501C14.7324 14.2501 14.4809 14.2283 14.2495 14.1902C14.2499 14.2101 14.2502 14.2301 14.2502 14.2501Z" fill="#292929"/>
<path fill-rule="evenodd" clip-rule="evenodd" d="M6.75 1.25C3.8505 1.25 1.5 3.60051 1.5 6.5V16.625C1.5 18.0747 2.67525 19.25 4.125 19.25C4.74632 19.25 5.25 19.7537 5.25 20.375V21.2185C5.25 23.0976 7.52196 24.0387 8.85071 22.71L11.2123 20.3483C11.9156 19.6451 12.8694 19.25 13.864 19.25H18.25C21.1495 19.25 23.5 16.8995 23.5 14V6.5C23.5 3.6005 21.1495 1.25 18.25 1.25H6.75ZM3 6.5C3 4.42893 4.67893 2.75 6.75 2.75H18.25C20.3211 2.75 22 4.42893 22 6.5V14C22 16.0711 20.3211 17.75 18.25 17.75H13.864C12.4716 17.75 11.1362 18.3031 10.1517 19.2877L7.79005 21.6493C7.40624 22.0331 6.75 21.7613 6.75 21.2185V20.375C6.75 18.9253 5.57475 17.75 4.125 17.75C3.50368 17.75 3 17.2463 3 16.625V6.5Z" fill="#292929"/>
</svg>
