<svg width="24" height="24" viewBox="0 0 24 24" fill="none" xmlns="http://www.w3.org/2000/svg">
<path fill-rule="evenodd" clip-rule="evenodd" d="M12 3C8.68629 3 6 5.68629 6 9V13.5C6 14.7426 4.99264 15.75 3.75 15.75C2.50736 15.75 1.5 14.7426 1.5 13.5V10.5C1.5 9.25736 2.50736 8.25 3.75 8.25C4.02223 8.25 4.28317 8.29835 4.5247 8.38692C4.83661 4.53154 8.06428 1.5 12 1.5C15.9357 1.5 19.1634 4.53154 19.4753 8.38692C19.7168 8.29835 19.9778 8.25 20.25 8.25C21.4926 8.25 22.5 9.25736 22.5 10.5V13.5C22.5 14.7426 21.4926 15.75 20.25 15.75C19.987 15.75 19.7346 15.7049 19.5 15.622V17.25C19.5 18.9069 18.1569 20.25 16.5 20.25H14.9055C14.5725 21.5439 13.3979 22.5 12 22.5C10.3431 22.5 9 21.1569 9 19.5C9 17.8431 10.3431 16.5 12 16.5C13.3979 16.5 14.5725 17.4561 14.9055 18.75H16.5C17.3284 18.75 18 18.0784 18 17.25V9C18 5.68629 15.3137 3 12 3ZM19.5 13.5C19.5 13.9142 19.8358 14.25 20.25 14.25C20.6642 14.25 21 13.9142 21 13.5V10.5C21 10.0858 20.6642 9.75 20.25 9.75C19.8358 9.75 19.5 10.0858 19.5 10.5V13.5ZM3.75 9.75C4.16421 9.75 4.5 10.0858 4.5 10.5V13.5C4.5 13.9142 4.16421 14.25 3.75 14.25C3.33579 14.25 3 13.9142 3 13.5V10.5C3 10.0858 3.33579 9.75 3.75 9.75ZM12 21C12.8284 21 13.5 20.3284 13.5 19.5C13.5 18.6716 12.8284 18 12 18C11.1716 18 10.5 18.6716 10.5 19.5C10.5 20.3284 11.1716 21 12 21Z" fill="#292929"/>
</svg>
