<svg width="24" height="24" viewBox="0 0 24 24" fill="none" xmlns="http://www.w3.org/2000/svg">
<path d="M5.25 7.5C4.83579 7.5 4.5 7.83579 4.5 8.25C4.5 8.66421 4.83579 9 5.25 9H12C12.4142 9 12.75 8.66421 12.75 8.25C12.75 7.83579 12.4142 7.5 12 7.5H5.25Z" fill="#292929"/>
<path d="M4.5 14.25C4.5 13.8358 4.83579 13.5 5.25 13.5H6.75C7.16421 13.5 7.5 13.8358 7.5 14.25C7.5 14.6642 7.16421 15 6.75 15H5.25C4.83579 15 4.5 14.6642 4.5 14.25Z" fill="#292929"/>
<path d="M9.75 13.5C9.33579 13.5 9 13.8358 9 14.25C9 14.6642 9.33579 15 9.75 15H15.75C16.1642 15 16.5 14.6642 16.5 14.25C16.5 13.8358 16.1642 13.5 15.75 13.5H9.75Z" fill="#292929"/>
<path d="M11.25 11.25C11.25 10.8358 11.5858 10.5 12 10.5H18.75C19.1642 10.5 19.5 10.8358 19.5 11.25C19.5 11.6642 19.1642 12 18.75 12H12C11.5858 12 11.25 11.6642 11.25 11.25Z" fill="#292929"/>
<path d="M15.75 16.5C15.3358 16.5 15 16.8358 15 17.25C15 17.6642 15.3358 18 15.75 18H18C18.4142 18 18.75 17.6642 18.75 17.25C18.75 16.8358 18.4142 16.5 18 16.5H15.75Z" fill="#292929"/>
<path fill-rule="evenodd" clip-rule="evenodd" d="M1.5 4.5V19.5C1.5 21.1569 2.84315 22.5 4.5 22.5H19.5C21.1569 22.5 22.5 21.1569 22.5 19.5V4.5C22.5 2.84315 21.1569 1.5 19.5 1.5H4.5C2.84315 1.5 1.5 2.84315 1.5 4.5ZM4.5 3C3.67157 3 3 3.67157 3 4.5L21 4.5C21 3.67157 20.3284 3 19.5 3H4.5ZM21 19.5V6H3V19.5C3 20.3284 3.67157 21 4.5 21H19.5C20.3284 21 21 20.3284 21 19.5Z" fill="#292929"/>
</svg>
