<svg width="24" height="24" viewBox="0 0 24 24" fill="none" xmlns="http://www.w3.org/2000/svg">
<path d="M12 3C9.33503 3 6.94038 4.15777 5.29162 6H8.25C8.66421 6 9 6.33579 9 6.75C9 7.16421 8.66421 7.5 8.25 7.5H3.75C3.33579 7.5 3 7.16421 3 6.75V2.25C3 1.83579 3.33579 1.5 3.75 1.5C4.16421 1.5 4.5 1.83579 4.5 2.25V4.65161C6.40512 2.70755 9.0615 1.5 12 1.5C17.799 1.5 22.5 6.20101 22.5 12C22.5 17.799 17.799 22.5 12 22.5C6.20101 22.5 1.5 17.799 1.5 12C1.5 11.5858 1.83579 11.25 2.25 11.25C2.66421 11.25 3 11.5858 3 12C3 16.9706 7.02944 21 12 21C16.9706 21 21 16.9706 21 12C21 7.02944 16.9706 3 12 3Z" fill="#292929"/>
<path d="M12.75 6.75C12.75 6.33579 12.4142 6 12 6C11.5858 6 11.25 6.33579 11.25 6.75V12C11.25 12.1989 11.329 12.3897 11.4697 12.5303L15.2197 16.2803C15.5126 16.5732 15.9874 16.5732 16.2803 16.2803C16.5732 15.9874 16.5732 15.5126 16.2803 15.2197L12.75 11.6893V6.75Z" fill="#292929"/>
</svg>
