<svg width="24" height="24" viewBox="0 0 24 24" fill="none" xmlns="http://www.w3.org/2000/svg">
<path fill-rule="evenodd" clip-rule="evenodd" d="M17.7607 3.6269C18.2467 3.46323 18.75 3.8248 18.75 4.33769V13.9013C18.3087 13.6461 17.7964 13.5 17.25 13.5C15.5931 13.5 14.25 14.8431 14.25 16.5C14.25 18.1569 15.5931 19.5 17.25 19.5C18.9069 19.5 20.25 18.1569 20.25 16.5C20.25 16.3544 20.2396 16.2113 20.2196 16.0713H20.25V4.33769C20.25 2.79904 18.7402 1.71431 17.282 2.20534L9.78196 4.73085C8.86653 5.0391 8.25 5.89726 8.25 6.8632V16.9013C7.80874 16.6461 7.29643 16.5 6.75 16.5C5.09315 16.5 3.75 17.8431 3.75 19.5C3.75 21.1569 5.09315 22.5 6.75 22.5C8.40685 22.5 9.75 21.1569 9.75 19.5C9.75 19.4999 9.75 19.5001 9.75 19.5V6.8632C9.75 6.54122 9.95551 6.25517 10.2607 6.15241L17.7607 3.6269ZM8.25 19.4998C8.24991 18.6715 7.57837 18 6.75 18C5.92157 18 5.25 18.6716 5.25 19.5C5.25 20.3284 5.92157 21 6.75 21C7.57843 21 8.25 20.3283 8.25 19.4998C8.25 19.4998 8.25 19.4999 8.25 19.4998ZM17.25 18C18.0784 18 18.75 17.3284 18.75 16.5C18.75 15.6716 18.0784 15 17.25 15C16.4216 15 15.75 15.6716 15.75 16.5C15.75 17.3284 16.4216 18 17.25 18Z" fill="#292929"/>
</svg>
