<svg width="24" height="24" viewBox="0 0 24 24" fill="none" xmlns="http://www.w3.org/2000/svg">
<path d="M18 2.25C18 1.83579 18.3358 1.5 18.75 1.5C19.1642 1.5 19.5 1.83579 19.5 2.25V8.25C19.5 8.66421 19.1642 9 18.75 9C18.3358 9 18 8.66421 18 8.25V2.25Z" fill="#292929"/>
<path d="M21.75 1.5C21.3358 1.5 21 1.83579 21 2.25V8.25C21 8.66421 21.3358 9 21.75 9C22.1642 9 22.5 8.66421 22.5 8.25V2.25C22.5 1.83579 22.1642 1.5 21.75 1.5Z" fill="#292929"/>
<path fill-rule="evenodd" clip-rule="evenodd" d="M10.167 7.56272C10.2703 8.18184 10.1148 8.59328 9.67191 9.32816L9.56444 9.5092C9.36051 9.8631 9.32557 10.0072 9.37735 10.1683C10.1861 12.3362 11.6596 13.8095 13.8028 14.6086C14.0062 14.6748 14.1639 14.6254 14.6108 14.3567L14.8439 14.2183C15.4716 13.8561 15.8649 13.7334 16.4333 13.8288C16.9863 13.9223 18.9796 15.3869 19.6532 16.0782C20.0079 16.4421 20.229 16.8489 20.2491 17.3578C20.2408 18.597 18.6532 20.4079 17.7074 20.9721C16.6253 21.7677 15.2927 21.8111 13.827 21.1781C9.98627 19.7154 4.25605 14.025 2.82634 10.1877L2.74011 9.97329C2.1957 8.55253 2.26122 7.30259 2.9941 6.3316C3.67072 5.25731 5.43717 3.73983 6.64559 3.74504L6.66986 3.74559C7.14725 3.76521 7.55333 3.98582 7.91758 4.34099C8.6098 5.01567 10.0734 7.00779 10.167 7.56272ZM14.5623 16.0401C14.873 15.9432 15.1621 15.7754 15.3799 15.6445L15.6013 15.5131C15.8696 15.3588 15.9847 15.3175 16.036 15.3043C16.0552 15.2993 16.0663 15.2982 16.0778 15.2978C16.0826 15.2977 16.0898 15.2976 16.0997 15.2981C16.1502 15.3228 16.2222 15.3614 16.3166 15.4166C16.5408 15.5481 16.8239 15.7346 17.1277 15.951C17.7549 16.3979 18.336 16.8758 18.579 17.1252C18.6711 17.2196 18.7099 17.283 18.7267 17.3176C18.7354 17.3357 18.742 17.3532 18.746 17.3753C18.7433 17.3924 18.7382 17.4177 18.729 17.4519C18.7096 17.5231 18.6759 17.6166 18.6224 17.7313C18.5138 17.9638 18.3473 18.2323 18.1362 18.5096C17.6937 19.091 17.196 19.5305 16.939 19.6839L16.877 19.7209L16.8189 19.7636C16.2805 20.1594 15.5442 20.2858 14.4218 19.801L14.3916 19.788L14.3609 19.7763C12.7283 19.1546 10.5127 17.5362 8.48161 15.5111C6.44845 13.4841 4.83561 11.2842 4.23195 9.66397L4.2252 9.64587L4.13665 9.42571C3.71695 8.32351 3.86754 7.66426 4.19135 7.23525L4.22954 7.18464L4.26333 7.131C4.48549 6.77827 4.95995 6.25808 5.52614 5.8292C5.80104 5.62097 6.0619 5.46174 6.28434 5.35999C6.3939 5.30988 6.48204 5.27928 6.54795 5.2621C6.58663 5.25201 6.61249 5.24789 6.62659 5.2462C6.63877 5.24837 6.65272 5.2529 6.67243 5.26263C6.70856 5.28046 6.77521 5.32214 6.87062 5.41517C7.12056 5.65878 7.59835 6.23978 8.04495 6.86688C8.26126 7.17064 8.44761 7.45365 8.57888 7.67789C8.63414 7.77228 8.67263 7.84438 8.69733 7.89485C8.69789 7.9073 8.69766 7.91547 8.69741 7.92028C8.69692 7.93002 8.69562 7.9439 8.68706 7.97254C8.66298 8.05313 8.59769 8.20454 8.38716 8.55388L8.26962 8.75187L8.26478 8.76029C8.15407 8.95242 8.01095 9.21578 7.92924 9.51134C7.82411 9.8916 7.83331 10.2664 7.94929 10.6273L7.95987 10.6602L7.97196 10.6926C8.93177 13.2655 10.7251 15.062 13.2787 16.0141L13.3086 16.0253L13.339 16.0351C13.7295 16.1621 14.1381 16.1725 14.5623 16.0401Z" fill="#292929"/>
</svg>
