<svg width="24" height="24" viewBox="0 0 24 24" fill="none" xmlns="http://www.w3.org/2000/svg">
<path fill-rule="evenodd" clip-rule="evenodd" d="M12.199 2.25C12.3989 2.25 12.5906 2.32985 12.7314 2.4718L22.2825 12.0997C22.5742 12.3938 22.5723 12.8686 22.2782 13.1604C21.9841 13.4521 21.5093 13.4502 21.2175 13.1561L20.1122 12.0419V20.25C20.1122 20.6642 19.7765 21 19.3622 21H14.5867C14.1725 21 13.8367 20.6642 13.8367 20.25V15.0349H10.5612V20.25C10.5612 20.6642 10.2254 21 9.81122 21H5.03571C4.6215 21 4.28571 20.6642 4.28571 20.25V12.0419L2.78245 13.5573C2.49074 13.8513 2.01587 13.8532 1.7218 13.5615C1.42774 13.2698 1.42583 12.7949 1.71755 12.5009L11.6665 2.4718C11.8073 2.32985 11.999 2.25 12.199 2.25ZM5.78571 10.5298V19.5H9.06122V14.2849C9.06122 13.8707 9.39701 13.5349 9.81122 13.5349H14.5867C15.0009 13.5349 15.3367 13.8707 15.3367 14.2849V19.5H18.6122V10.5298L12.199 4.06494L5.78571 10.5298Z" fill="#292929"/>
</svg>
