<svg width="24" height="24" viewBox="0 0 24 24" fill="none" xmlns="http://www.w3.org/2000/svg">
<path d="M6.96967 9.21967C7.26256 8.92678 7.73744 8.92678 8.03033 9.21967L11.25 12.4393L11.25 2.19643C11.25 1.8118 11.5858 1.5 12 1.5C12.4142 1.5 12.75 1.8118 12.75 2.19643L12.75 12.4393L15.9697 9.21967C16.2626 8.92678 16.7374 8.92678 17.0303 9.21967C17.3232 9.51256 17.3232 9.98744 17.0303 10.2803L12.5303 14.7803C12.2374 15.0732 11.7626 15.0732 11.4697 14.7803L6.96967 10.2803C6.67678 9.98744 6.67678 9.51256 6.96967 9.21967Z" fill="#292929"/>
<path fill-rule="evenodd" clip-rule="evenodd" d="M5.25 15C4.00736 15 3 16.0074 3 17.25V20.25C3 21.4926 4.00736 22.5 5.25 22.5H18.75C19.9926 22.5 21 21.4926 21 20.25V17.25C21 16.0074 19.9926 15 18.75 15H15.75C15.4659 15 15.2062 15.1605 15.0792 15.4146L14.4084 16.7562C14.0272 17.5185 13.2481 18 12.3959 18H10.8541C10.0019 18 9.22277 17.5185 8.84164 16.7562L8.17082 15.4146C8.04378 15.1605 7.78408 15 7.5 15H5.25ZM4.5 17.25C4.5 16.8358 4.83579 16.5 5.25 16.5H7.03647L7.5 17.4271C8.13522 18.6975 9.43371 19.5 10.8541 19.5H12.3959C13.8163 19.5 15.1148 18.6975 15.75 17.4271L16.2135 16.5H18.75C19.1642 16.5 19.5 16.8358 19.5 17.25V20.25C19.5 20.6642 19.1642 21 18.75 21H5.25C4.83579 21 4.5 20.6642 4.5 20.25V17.25Z" fill="#292929"/>
</svg>
