<svg width="24" height="24" viewBox="0 0 24 24" fill="none" xmlns="http://www.w3.org/2000/svg">
<path fill-rule="evenodd" clip-rule="evenodd" d="M3 2.25C3 1.83579 3.33579 1.5 3.75 1.5H20.25C20.6642 1.5 21 1.83579 21 2.25C21 2.66421 20.6642 3 20.25 3H18.7501V3.8402C18.7501 5.90894 17.6843 7.83176 15.9301 8.92819L15.4095 9.25355C14.2282 9.99184 13.9948 11.6152 14.9203 12.6564L17.2345 15.2599C18.2108 16.3582 18.7501 17.7766 18.7501 19.246V21H20.25C20.6642 21 21 21.3358 21 21.75C21 22.1642 20.6642 22.5 20.25 22.5H3.75C3.33579 22.5 3 22.1642 3 21.75C3 21.3358 3.33579 21 3.75 21H5.24994V19.246C5.24994 17.7766 5.78921 16.3582 6.76549 15.2599L9.0797 12.6564C10.0052 11.6152 9.77179 9.99184 8.59053 9.25355L8.06995 8.92819C6.31566 7.83176 5.24994 5.90894 5.24994 3.8402V3H3.75C3.33579 3 3 2.66421 3 2.25ZM13.3501 17.325L17.2501 20.25V19.246C17.2501 18.1439 16.8456 17.0801 16.1134 16.2564L13.7992 13.6529C13.7146 13.5578 13.6358 13.4597 13.5628 13.3591L13.2481 13.5689C12.4923 14.0727 11.5077 14.0727 10.7519 13.5689L10.4372 13.3591C10.3642 13.4597 10.2854 13.5578 10.2008 13.6529L7.8866 16.2564C7.1544 17.0801 6.74994 18.1439 6.74994 19.246V20.2501L10.6501 17.325C11.4501 16.725 12.5501 16.725 13.3501 17.325ZM12.4501 18.525L15.7501 21H8.25007L11.5501 18.525C11.8167 18.325 12.1834 18.325 12.4501 18.525ZM12.939 11.9721L12.416 12.3208C12.1641 12.4888 11.8359 12.4888 11.584 12.3208L11.061 11.9721C11.3886 10.4827 10.7878 8.85796 9.38553 7.98156L8.86495 7.65619C8.3282 7.32073 7.8774 6.88211 7.53175 6.375H16.4683C16.1226 6.88211 15.6718 7.32073 15.1351 7.65619L14.6145 7.98156C13.2122 8.85795 12.6114 10.4827 12.939 11.9721ZM17.1296 4.875H6.87045C6.79122 4.53971 6.74994 4.19278 6.74994 3.8402V3H17.2501V3.8402C17.2501 4.19278 17.2088 4.53971 17.1296 4.875Z" fill="#292929"/>
</svg>
