<svg width="24" height="24" viewBox="0 0 24 24" fill="none" xmlns="http://www.w3.org/2000/svg">
<path fill-rule="evenodd" clip-rule="evenodd" d="M8.625 7.5C10.0747 7.5 11.25 6.32475 11.25 4.875C11.25 3.42525 10.0747 2.25 8.625 2.25C7.43313 2.25 6.42678 3.04434 6.10648 4.1325C6.0717 4.12756 6.03615 4.125 6 4.125H3C2.17157 4.125 1.5 4.79657 1.5 5.625V12.75C1.5 13.5784 2.17157 14.25 3 14.25H10.5V19.125H6.6413C6.31859 18.0407 5.31413 17.25 4.125 17.25C2.67525 17.25 1.5 18.4253 1.5 19.875C1.5 21.3247 2.67525 22.5 4.125 22.5C5.31413 22.5 6.31859 21.7093 6.6413 20.625H10.5C11.3284 20.625 12 19.9534 12 19.125V9.375H13.6087C13.9314 10.4593 14.9359 11.25 16.125 11.25C17.5747 11.25 18.75 10.0747 18.75 8.625C18.75 7.17525 17.5747 6 16.125 6C14.9359 6 13.9314 6.79069 13.6087 7.875H12C11.1716 7.875 10.5 8.54657 10.5 9.375V12.75H3V5.625H6C6.03615 5.625 6.0717 5.62244 6.10648 5.6175C6.42678 6.70566 7.43313 7.5 8.625 7.5ZM11.2701 14.25H11.2299C11.2366 14.2502 11.2433 14.2503 11.25 14.2503C11.2537 14.2503 11.2575 14.2502 11.2612 14.2502C11.2642 14.2501 11.2671 14.2501 11.2701 14.25ZM8.625 6C9.24632 6 9.75 5.49632 9.75 4.875C9.75 4.25368 9.24632 3.75 8.625 3.75C8.00368 3.75 7.5 4.25368 7.5 4.875C7.5 5.49632 8.00368 6 8.625 6ZM15 8.625C15 9.24632 15.5037 9.75 16.125 9.75C16.7463 9.75 17.25 9.24632 17.25 8.625C17.25 8.00368 16.7463 7.5 16.125 7.5C15.5037 7.5 15 8.00368 15 8.625ZM4.125 18.75C4.74632 18.75 5.25 19.2537 5.25 19.875C5.25 20.4963 4.74632 21 4.125 21C3.50368 21 3 20.4963 3 19.875C3 19.2537 3.50368 18.75 4.125 18.75Z" fill="#292929"/>
<path d="M17.4697 21.0001C17.7626 21.293 18.2374 21.293 18.5303 21.0001L22.2803 17.2501C22.5732 16.9572 22.5732 16.4823 22.2803 16.1894L18.5303 12.4394C18.2374 12.1465 17.7626 12.1465 17.4697 12.4394C17.1768 12.7323 17.1768 13.2072 17.4697 13.5001L19.9393 15.9697H14.25C13.8358 15.9697 13.5 16.3055 13.5 16.7197C13.5 17.1339 13.8358 17.4697 14.25 17.4697H19.9393L17.4697 19.9394C17.1768 20.2323 17.1768 20.7072 17.4697 21.0001Z" fill="#292929"/>
</svg>
