<svg width="24" height="24" viewBox="0 0 24 24" fill="none" xmlns="http://www.w3.org/2000/svg">
<path fill-rule="evenodd" clip-rule="evenodd" d="M8.625 7.5C10.0747 7.5 11.25 6.32475 11.25 4.875C11.25 3.42525 10.0747 2.25 8.625 2.25C7.43313 2.25 6.42678 3.04434 6.10648 4.1325C6.0717 4.12756 6.03615 4.125 6 4.125H4.5C3.67157 4.125 3 4.79657 3 5.625V12.75C3 13.5784 3.67157 14.25 4.5 14.25H12.7299C12.7366 14.2502 12.7433 14.2503 12.75 14.2503C12.7567 14.2503 12.7634 14.2502 12.7701 14.25H16.875V19.125H12.6413C12.3186 18.0407 11.3141 17.25 10.125 17.25C8.67525 17.25 7.5 18.4253 7.5 19.875C7.5 21.3247 8.67525 22.5 10.125 22.5C11.3141 22.5 12.3186 21.7093 12.6413 20.625H16.875C17.7034 20.625 18.375 19.9534 18.375 19.125V14.25C18.375 13.4216 17.7034 12.75 16.875 12.75H13.5V9.375H15.1087C15.4314 10.4593 16.4359 11.25 17.625 11.25C19.0747 11.25 20.25 10.0747 20.25 8.625C20.25 7.17525 19.0747 6 17.625 6C16.4359 6 15.4314 6.79069 15.1087 7.875H13.5C12.6716 7.875 12 8.54657 12 9.375V12.75H4.5V5.625H6C6.03615 5.625 6.0717 5.62244 6.10648 5.6175C6.42678 6.70566 7.43313 7.5 8.625 7.5ZM8.625 6C9.24632 6 9.75 5.49632 9.75 4.875C9.75 4.25368 9.24632 3.75 8.625 3.75C8.00368 3.75 7.5 4.25368 7.5 4.875C7.5 5.49632 8.00368 6 8.625 6ZM16.5 8.625C16.5 9.24632 17.0037 9.75 17.625 9.75C18.2463 9.75 18.75 9.24632 18.75 8.625C18.75 8.00368 18.2463 7.5 17.625 7.5C17.0037 7.5 16.5 8.00368 16.5 8.625ZM10.125 18.75C10.7463 18.75 11.25 19.2537 11.25 19.875C11.25 20.4963 10.7463 21 10.125 21C9.50368 21 9 20.4963 9 19.875C9 19.2537 9.50368 18.75 10.125 18.75Z" fill="#292929"/>
</svg>
