<svg width="24" height="24" viewBox="0 0 24 24" fill="none" xmlns="http://www.w3.org/2000/svg">
<path d="M12 3.75H18C18.8284 3.75 19.5 4.42157 19.5 5.25V18.75C19.5 19.5784 18.8284 20.25 18 20.25H12C11.1716 20.25 10.5 19.5784 10.5 18.75V17.25C10.5 16.8358 10.1642 16.5 9.75 16.5C9.33579 16.5 9 16.8358 9 17.25V18.75C9 20.4069 10.3431 21.75 12 21.75H18C19.6569 21.75 21 20.4069 21 18.75V5.25C21 3.59315 19.6569 2.25 18 2.25H12C10.3431 2.25 9 3.59315 9 5.25V6.75C9 7.16421 9.33579 7.5 9.75 7.5C10.1642 7.5 10.5 7.16421 10.5 6.75V5.25C10.5 4.42157 11.1716 3.75 12 3.75Z" fill="#292929"/>
<path d="M3 12C3 11.5858 3.33579 11.25 3.75 11.25H15.4393L12.9697 8.78033C12.6768 8.48744 12.6768 8.01256 12.9697 7.71967C13.2626 7.42678 13.7374 7.42678 14.0303 7.71967L17.25 10.9393C17.8358 11.5251 17.8358 12.4749 17.25 13.0607L14.0303 16.2803C13.7374 16.5732 13.2626 16.5732 12.9697 16.2803C12.6768 15.9874 12.6768 15.5126 12.9697 15.2197L15.4393 12.75H3.75C3.33579 12.75 3 12.4142 3 12Z" fill="#292929"/>
</svg>
