<svg width="24" height="24" viewBox="0 0 24 24" fill="none" xmlns="http://www.w3.org/2000/svg">
<path fill-rule="evenodd" clip-rule="evenodd" d="M12.5303 2.51966C12.2374 2.22676 11.7626 2.22676 11.4697 2.51966L8.21967 5.76966C7.92678 6.06255 7.92678 6.53742 8.21967 6.83032C8.51256 7.12321 8.98744 7.12321 9.28033 6.83032L11.25 4.86065V9.66551C11.25 10.5261 10.6243 11.259 9.77434 11.3939L7.69051 11.7246C6.11203 11.9752 4.95 13.3362 4.95 14.9345V16.4144C3.9357 16.733 3.19995 17.6806 3.19995 18.8C3.19995 20.1807 4.31924 21.3 5.69995 21.3C7.08066 21.3 8.19995 20.1807 8.19995 18.8C8.19995 17.6806 7.46425 16.733 6.45 16.4145V14.9345C6.45 14.0739 7.07571 13.341 7.92566 13.2061L10.0095 12.8753C10.8141 12.7476 11.5106 12.3313 12 11.7422C12.4894 12.3313 13.1859 12.7476 13.9905 12.8753L16.0743 13.2061C16.9243 13.341 17.55 14.0739 17.55 14.9345V16.4145C16.5357 16.733 15.8 17.6806 15.8 18.8C15.8 20.1807 16.9193 21.3 18.3 21.3C19.6808 21.3 20.8 20.1807 20.8 18.8C20.8 17.6806 20.0643 16.733 19.05 16.4144V14.9345C19.05 13.3362 17.888 11.9752 16.3095 11.7246L14.2257 11.3939C13.3757 11.259 12.75 10.5261 12.75 9.66551V4.86065L14.7197 6.83032C15.0126 7.12321 15.4874 7.12321 15.7803 6.83032C16.0732 6.53742 16.0732 6.06255 15.7803 5.76966L12.5303 2.51966ZM4.69995 18.8C4.69995 19.3523 5.14767 19.8 5.69995 19.8C6.25224 19.8 6.69995 19.3523 6.69995 18.8C6.69995 18.2477 6.25224 17.8 5.69995 17.8C5.14767 17.8 4.69995 18.2477 4.69995 18.8ZM19.3 18.8C19.3 19.3523 18.8523 19.8 18.3 19.8C17.7478 19.8 17.3 19.3523 17.3 18.8C17.3 18.2477 17.7478 17.8 18.3 17.8C18.8523 17.8 19.3 18.2477 19.3 18.8Z" fill="#292929"/>
</svg>
