<svg width="24" height="24" viewBox="0 0 24 24" fill="none" xmlns="http://www.w3.org/2000/svg">
<path d="M18.5303 1.71967C18.2374 1.42678 17.7626 1.42678 17.4697 1.71967L13.7197 5.46967C13.4268 5.76256 13.4268 6.23744 13.7197 6.53033L17.4697 10.2803C17.7626 10.5732 18.2374 10.5732 18.5303 10.2803C18.8232 9.98744 18.8232 9.51256 18.5303 9.21967L16.0607 6.75L21.75 6.75C22.1642 6.75 22.5 6.41421 22.5 6C22.5 5.58579 22.1642 5.25 21.75 5.25L16.0607 5.25L18.5303 2.78033C18.8232 2.48744 18.8232 2.01256 18.5303 1.71967Z" fill="#292929"/>
<path d="M6.75 2.25C3.8505 2.25 1.5 4.60051 1.5 7.5V14.625C1.5 16.0747 2.67525 17.25 4.125 17.25C4.74632 17.25 5.25 17.7537 5.25 18.375V19.2185C5.25 21.0976 7.52196 22.0387 8.85071 20.71L11.2123 18.3483C11.9156 17.6451 12.8694 17.25 13.864 17.25H17.25C20.1495 17.25 22.5 14.8995 22.5 12C22.5 11.5858 22.1642 11.25 21.75 11.25C21.3358 11.25 21 11.5858 21 12C21 14.0711 19.3211 15.75 17.25 15.75H13.864C12.4716 15.75 11.1362 16.3031 10.1517 17.2877L7.79005 19.6493C7.40624 20.0331 6.75 19.7613 6.75 19.2185V18.375C6.75 16.9253 5.57475 15.75 4.125 15.75C3.50368 15.75 3 15.2463 3 14.625V7.5C3 5.42893 4.67893 3.75 6.75 3.75H12C12.4142 3.75 12.75 3.41421 12.75 3C12.75 2.58579 12.4142 2.25 12 2.25H6.75Z" fill="#292929"/>
<path d="M6.75 9H12C12.4142 9 12.75 8.66421 12.75 8.25C12.75 7.83579 12.4142 7.5 12 7.5H6.75C6.33579 7.5 6 7.83579 6 8.25C6 8.66421 6.33579 9 6.75 9Z" fill="#292929"/>
<path d="M15 11.25C15 10.8358 14.6642 10.5 14.25 10.5H6.75C6.33579 10.5 6 10.8358 6 11.25C6 11.6642 6.33579 12 6.75 12H14.25C14.6642 12 15 11.6642 15 11.25Z" fill="#292929"/>
</svg>
