<svg width="24" height="24" viewBox="0 0 24 24" fill="none" xmlns="http://www.w3.org/2000/svg">
<path d="M15.5581 6.6C15.5581 8.03119 14.348 9.1923 12.8521 9.19997V8.33295C12.8521 7.58713 12.2197 6.98437 11.442 6.98437H10.1458C10.1264 6.85895 10.1163 6.7306 10.1163 6.6C10.1163 5.16406 11.3345 4 12.8372 4C14.3399 4 15.5581 5.16406 15.5581 6.6Z" fill="#292929"/>
<path fill-rule="evenodd" clip-rule="evenodd" d="M12.2093 8.3332C12.2093 7.92827 11.8657 7.6 11.442 7.6H3.7673C3.34353 7.6 3 7.92827 3 8.3332V15.6668C3 16.0717 3.34353 16.4 3.7673 16.4H11.442C11.8657 16.4 12.2093 16.0717 12.2093 15.6668V8.3332ZM8.08973 10.391H9.62392V9.61658H5.58523V10.391H7.1123V14.383H8.08973V10.391Z" fill="#292929"/>
<path d="M8.29872 17.0151H11.442C12.2197 17.0151 12.8521 16.4124 12.8521 15.6666V10H20.2047C20.6439 10 21 10.3403 21 10.76V14.8068C21 16.3494 19.6913 17.6 18.0769 17.6H18.0631C17.6191 17.6001 17.1983 17.5055 16.8214 17.3364C16.0999 18.8709 14.5052 19.9561 12.6279 20C10.6222 19.9531 8.939 18.7175 8.29872 17.0151Z" fill="#292929"/>
<path d="M20.5813 7.39976C20.5813 8.39387 19.7379 9.19976 18.6976 9.19976C17.6572 9.19976 16.8139 8.39387 16.8139 7.39976C16.8139 6.40565 17.6572 5.59976 18.6976 5.59976C19.7379 5.59976 20.5813 6.40565 20.5813 7.39976Z" fill="#292929"/>
</svg>
