<svg width="24" height="24" viewBox="0 0 24 24" fill="none" xmlns="http://www.w3.org/2000/svg">
<path d="M9.95786 7.38466H11.716C12.1696 7.38466 12.5362 7.74074 12.5362 8.18044V9.32078C13.0741 9.31094 13.5956 9.13959 14.0288 8.83036C14.462 8.52113 14.7856 8.08924 14.9549 7.59427C15.1242 7.09929 15.131 6.56559 14.9742 6.06675C14.8173 5.56792 14.5047 5.12852 14.0794 4.80915C13.6541 4.48977 13.137 4.30615 12.5995 4.28361C12.062 4.26106 11.5305 4.4007 11.0784 4.68326C10.6261 4.96583 10.2756 5.3774 10.0749 5.86124C9.87419 6.34508 9.83331 6.87735 9.95786 7.38466Z" fill="#292929"/>
<path d="M18.174 9.32222H18.1755C18.4103 9.32241 18.6428 9.27778 18.8598 9.19086C19.0767 9.10396 19.2739 8.97648 19.4401 8.8157C19.6062 8.65492 19.7381 8.464 19.8281 8.25383C19.9181 8.04367 19.9646 7.81837 19.9648 7.59081C19.9649 7.36325 19.919 7.13788 19.8293 6.92756C19.7396 6.71726 19.6081 6.52612 19.4422 6.36508C19.2763 6.20403 19.0793 6.07623 18.8625 5.98897C18.6457 5.90172 18.4132 5.8567 18.1785 5.85652C17.7043 5.85594 17.2493 6.03796 16.9137 6.36253C16.578 6.6871 16.389 7.12763 16.3884 7.58721C16.3878 8.04679 16.5756 8.48777 16.9105 8.81315C17.2453 9.13853 17.6999 9.32165 18.174 9.32222Z" fill="#292929"/>
<path fill-rule="evenodd" clip-rule="evenodd" d="M12.1621 8.48318V15.8334C12.1621 16.0281 12.0831 16.2149 11.9413 16.3528C11.7993 16.4906 11.6068 16.5683 11.4058 16.5686H3.8203C3.61939 16.5684 3.42674 16.491 3.28467 16.3533C3.1426 16.2156 3.0627 16.0289 3.0625 15.8341V8.48247C3.0627 8.28778 3.14247 8.1011 3.28436 7.96329C3.42626 7.82549 3.6187 7.7478 3.81956 7.74723H11.4044C11.823 7.74795 12.1621 8.07736 12.1621 8.48318ZM8.08083 10.4345H9.56521V9.63722H5.65942V10.4337H7.13636V14.5381H8.08083V10.4345Z" fill="#292929"/>
<path d="M20.1901 10.2679H12.5369V16.1354C12.5369 16.5751 12.1688 16.9312 11.716 16.9312H8.57909C9.0238 18.0192 9.89619 18.8915 11.0044 19.3561C11.421 19.5308 11.8582 19.6425 12.3013 19.6909C11.9556 18.8929 12.4296 18.1517 12.8556 17.4855C12.9907 17.2743 13.121 17.0706 13.2188 16.875C13.5286 16.2554 14.0935 16.146 14.3299 16.1002C14.4034 16.086 14.4452 16.0779 14.4375 16.0625C13.625 14.8438 15.6562 13.625 17.6875 13.625C18.9062 13.625 20.5312 14.8438 20.7652 15.7749C20.8781 15.4803 20.9375 15.1661 20.9375 14.8459V10.9923C20.9375 10.5923 20.6036 10.2679 20.1901 10.2679Z" fill="#292929"/>
<path d="M16.0426 16.1304C16.4185 15.8322 16.8822 15.6563 17.3859 15.6563C18.2623 15.6563 19.0224 16.1913 19.3994 16.9743L18.9309 16.6616C18.6649 16.4843 18.3157 16.5723 18.1508 16.8583C17.9859 17.1443 18.0677 17.5199 18.3335 17.6973L19.9074 18.7475C20.1733 18.9249 20.5226 18.8369 20.6875 18.5509L21.6649 16.8563C21.8298 16.5703 21.7479 16.1946 21.482 16.0172C21.2162 15.8398 20.8669 15.9279 20.702 16.2138L20.4851 16.5899C19.9519 15.3207 18.7648 14.4375 17.3859 14.4375C16.6321 14.4375 15.9341 14.7021 15.3701 15.1496C15.1183 15.3493 15.0648 15.7308 15.2504 16.0016C15.4361 16.2725 15.7908 16.3301 16.0426 16.1304Z" fill="#292929"/>
<path d="M15.2136 18.7901L15.5826 19.0345C15.8489 19.211 16.1979 19.1217 16.362 18.8352C16.526 18.5486 16.4431 18.1732 16.1767 17.9967L14.6205 16.9658C14.3541 16.7894 14.0051 16.8786 13.841 17.1651L12.8968 18.8144C12.7326 19.1009 12.8156 19.4763 13.082 19.6528C13.3484 19.8293 13.6974 19.74 13.8615 19.4535L14.1006 19.0358C14.487 20.5985 15.8114 21.75 17.3859 21.75C18.3122 21.75 19.1528 21.3507 19.7653 20.7048C19.9887 20.4692 19.9923 20.0834 19.7733 19.8431C19.5542 19.6027 19.1956 19.5989 18.9721 19.8345C18.5628 20.2661 18.0037 20.5313 17.3859 20.5313C16.3593 20.5313 15.4922 19.797 15.2136 18.7901Z" fill="#292929"/>
</svg>
