<svg width="24" height="24" viewBox="0 0 24 24" fill="none" xmlns="http://www.w3.org/2000/svg">
<path fill-rule="evenodd" clip-rule="evenodd" d="M6.75 6C6.75 4.34315 8.09315 3 9.75 3H14.25C15.9069 3 17.25 4.34315 17.25 6H19.5C21.1569 6 22.5 7.34315 22.5 9V12.75C22.5 13.1642 22.1642 13.5 21.75 13.5C21.3358 13.5 21 13.1642 21 12.75V9C21 8.17157 20.3284 7.5 19.5 7.5H4.5C3.67157 7.5 3 8.17157 3 9V18C3 18.8284 3.67157 19.5 4.5 19.5H12.75C13.1642 19.5 13.5 19.8358 13.5 20.25C13.5 20.6642 13.1642 21 12.75 21H4.5C2.84315 21 1.5 19.6569 1.5 18V9C1.5 7.34315 2.84315 6 4.5 6H6.75ZM9.75 4.5H14.25C15.0784 4.5 15.75 5.17157 15.75 6H8.25C8.25 5.17157 8.92157 4.5 9.75 4.5Z" fill="#292929"/>
<path d="M18 15.75C18 15.3358 18.3358 15 18.75 15C19.1642 15 19.5 15.3358 19.5 15.75V18H21.75C22.1642 18 22.5 18.3358 22.5 18.75C22.5 19.1642 22.1642 19.5 21.75 19.5H19.5V21.75C19.5 22.1642 19.1642 22.5 18.75 22.5C18.3358 22.5 18 22.1642 18 21.75V19.5H15.75C15.3358 19.5 15 19.1642 15 18.75C15 18.3358 15.3358 18 15.75 18H18V15.75Z" fill="#292929"/>
</svg>
