<svg width="24" height="24" viewBox="0 0 24 24" fill="none" xmlns="http://www.w3.org/2000/svg">
<path d="M12 21C12.2121 21 12.4224 20.9927 12.6308 20.9782C13.0879 20.9466 13.5 21.293 13.5 21.7512C13.5 22.1198 13.2291 22.4353 12.8616 22.4652C12.5774 22.4882 12.2901 22.5 12 22.5C6.20101 22.5 1.5 17.799 1.5 12C1.5 6.20101 6.20101 1.5 12 1.5C17.799 1.5 22.5 6.20101 22.5 12C22.5 12.2901 22.4882 12.5774 22.4652 12.8616C22.4353 13.2291 22.1198 13.5 21.7512 13.5C21.293 13.5 20.9466 13.0879 20.9782 12.6308C20.9927 12.4224 21 12.2121 21 12C21 7.02944 16.9706 3 12 3C7.02944 3 3 7.02944 3 12C3 16.9706 7.02944 21 12 21Z" fill="#292929"/>
<path fill-rule="evenodd" clip-rule="evenodd" d="M12.6893 17.8915L14.1318 14.5257C14.2077 14.3487 14.3487 14.2077 14.5257 14.1318L17.8915 12.6893C18.4976 12.4296 18.4976 11.5704 17.8915 11.3106L14.5257 9.86816C14.3487 9.7923 14.2077 9.65125 14.1318 9.47424L12.6893 6.10849C12.4296 5.50241 11.5704 5.50241 11.3106 6.10849L9.86816 9.47424C9.7923 9.65125 9.65125 9.7923 9.47424 9.86816L6.10849 11.3106C5.50241 11.5704 5.50241 12.4296 6.10849 12.6893L9.47424 14.1318C9.65125 14.2077 9.7923 14.3487 9.86816 14.5257L11.3106 17.8915C11.5704 18.4976 12.4296 18.4976 12.6893 17.8915ZM12 8.30787L12.7531 10.0651C12.9807 10.5962 13.4038 11.0193 13.9349 11.2469L15.6921 12L13.9349 12.7531C13.4038 12.9807 12.9807 13.4038 12.7531 13.9348L12 15.6921L11.2469 13.9349C11.0193 13.4038 10.5962 12.9807 10.0651 12.7531L8.30787 12L10.0651 11.2469C10.5962 11.0193 11.0193 10.5962 11.2469 10.0651L12 8.30787Z" fill="#292929"/>
<path d="M18.75 15C18.3358 15 18 15.3358 18 15.75V18H15.75C15.3358 18 15 18.3358 15 18.75C15 19.1642 15.3358 19.5 15.75 19.5H18V21.75C18 22.1642 18.3358 22.5 18.75 22.5C19.1642 22.5 19.5 22.1642 19.5 21.75V19.5H21.75C22.1642 19.5 22.5 19.1642 22.5 18.75C22.5 18.3358 22.1642 18 21.75 18H19.5V15.75C19.5 15.3358 19.1642 15 18.75 15Z" fill="#292929"/>
</svg>
