<svg width="24" height="24" viewBox="0 0 24 24" fill="none" xmlns="http://www.w3.org/2000/svg">
<path fill-rule="evenodd" clip-rule="evenodd" d="M9 1.5C8.17157 1.5 7.5 2.17157 7.5 3C5.84315 3 4.5 4.34315 4.5 6V19.5C4.5 21.1569 5.84315 22.5 7.5 22.5H12.75C13.1642 22.5 13.5 22.1642 13.5 21.75C13.5 21.3358 13.1642 21 12.75 21H7.5C6.67157 21 6 20.3284 6 19.5V6C6 5.17157 6.67157 4.5 7.5 4.5C7.5 5.32843 8.17157 6 9 6H15C15.8284 6 16.5 5.32843 16.5 4.5C17.3284 4.5 18 5.17157 18 6V12.75C18 13.1642 18.3358 13.5 18.75 13.5C19.1642 13.5 19.5 13.1642 19.5 12.75V6C19.5 4.34315 18.1569 3 16.5 3C16.5 2.17157 15.8284 1.5 15 1.5H9ZM15 3H9V4.5H15V3Z" fill="#292929"/>
<path d="M15.5117 9.20171C15.8146 9.48434 15.8309 9.95893 15.5483 10.2617L11.3483 14.7617C11.2064 14.9137 11.0079 15 10.8 15C10.5921 15 10.3936 14.9137 10.2517 14.7617L8.45171 12.8332C8.16909 12.5304 8.18545 12.0558 8.48826 11.7731C8.79108 11.4905 9.26567 11.5069 9.54829 11.8097L10.8 13.1508L14.4517 9.23826C14.7343 8.93545 15.2089 8.91909 15.5117 9.20171Z" fill="#292929"/>
<path d="M18 15.75C18 15.3358 18.3358 15 18.75 15C19.1642 15 19.5 15.3358 19.5 15.75V18H21.75C22.1642 18 22.5 18.3358 22.5 18.75C22.5 19.1642 22.1642 19.5 21.75 19.5H19.5V21.75C19.5 22.1642 19.1642 22.5 18.75 22.5C18.3358 22.5 18 22.1642 18 21.75V19.5H15.75C15.3358 19.5 15 19.1642 15 18.75C15 18.3358 15.3358 18 15.75 18H18V15.75Z" fill="#292929"/>
</svg>
