<svg width="24" height="24" viewBox="0 0 24 24" fill="none" xmlns="http://www.w3.org/2000/svg">
<path fill-rule="evenodd" clip-rule="evenodd" d="M8.25 1.5C6.17893 1.5 4.5 3.17893 4.5 5.25V18.75C4.5 20.8211 6.17893 22.5 8.25 22.5H15.75C17.8211 22.5 19.5 20.8211 19.5 18.75V8.74264C19.5 7.74808 19.1049 6.79425 18.4017 6.09099L14.909 2.59835C14.2057 1.89509 13.2519 1.5 12.2574 1.5H8.25ZM6 5.25C6 4.00736 7.00736 3 8.25 3H12.2574C12.4244 3 12.5895 3.01858 12.75 3.05459V6.75C12.75 7.99264 13.7574 9 15 9H18V18.75C18 19.9926 16.9926 21 15.75 21H8.25C7.00736 21 6 19.9926 6 18.75V5.25ZM17.6257 7.5C17.5433 7.37557 17.4481 7.25877 17.341 7.15165L14.25 4.06066V6.75C14.25 7.16421 14.5858 7.5 15 7.5H17.6257Z" fill="#292929"/>
<path d="M8.25 15C8.25 14.5858 8.58579 14.25 9 14.25H15C15.4142 14.25 15.75 14.5858 15.75 15C15.75 15.4142 15.4142 15.75 15 15.75H9C8.58579 15.75 8.25 15.4142 8.25 15Z" fill="#292929"/>
<path d="M12 18.75C11.5858 18.75 11.25 18.4142 11.25 18V12C11.25 11.5858 11.5858 11.25 12 11.25C12.4142 11.25 12.75 11.5858 12.75 12V18C12.75 18.4142 12.4142 18.75 12 18.75Z" fill="#292929"/>
</svg>
