<svg width="24" height="24" viewBox="0 0 24 24" fill="none" xmlns="http://www.w3.org/2000/svg">
<path d="M8.25 12.75C8.25 12.3358 8.58579 12 9 12H15C15.4142 12 15.75 12.3358 15.75 12.75C15.75 13.1642 15.4142 13.5 15 13.5H9C8.58579 13.5 8.25 13.1642 8.25 12.75Z" fill="#292929"/>
<path d="M9 16.5C8.58579 16.5 8.25 16.8358 8.25 17.25C8.25 17.6642 8.58579 18 9 18H15C15.4142 18 15.75 17.6642 15.75 17.25C15.75 16.8358 15.4142 16.5 15 16.5H9Z" fill="#292929"/>
<path fill-rule="evenodd" clip-rule="evenodd" d="M8.25 1.5C6.17893 1.5 4.5 3.17893 4.5 5.25V18.75C4.5 20.8211 6.17893 22.5 8.25 22.5H15.75C17.8211 22.5 19.5 20.8211 19.5 18.75V8.74264C19.5 7.74808 19.1049 6.79425 18.4017 6.09099L14.909 2.59835C14.2057 1.89509 13.2519 1.5 12.2574 1.5H8.25ZM6 5.25C6 4.00736 7.00736 3 8.25 3H12.2574C12.4244 3 12.5895 3.01858 12.75 3.05459V6.75C12.75 7.99264 13.7574 9 15 9H18V18.75C18 19.9926 16.9926 21 15.75 21H8.25C7.00736 21 6 19.9926 6 18.75V5.25ZM17.6257 7.5C17.5433 7.37557 17.4481 7.25877 17.341 7.15165L14.25 4.06066V6.75C14.25 7.16421 14.5858 7.5 15 7.5H17.6257Z" fill="#292929"/>
</svg>
