<svg width="24" height="24" viewBox="0 0 24 24" fill="none" xmlns="http://www.w3.org/2000/svg">
<path d="M9 6C8.58579 6 8.25 6.33579 8.25 6.75V7.5C8.25 7.91421 8.58579 8.25 9 8.25H9.75C10.1642 8.25 10.5 7.91421 10.5 7.5V6.75C10.5 6.33579 10.1642 6 9.75 6H9Z" fill="#292929"/>
<path d="M13.5 6.75C13.5 6.33579 13.8358 6 14.25 6H15C15.4142 6 15.75 6.33579 15.75 6.75V7.5C15.75 7.91421 15.4142 8.25 15 8.25H14.25C13.8358 8.25 13.5 7.91421 13.5 7.5V6.75Z" fill="#292929"/>
<path d="M9 9.75C8.58579 9.75 8.25 10.0858 8.25 10.5V11.25C8.25 11.6642 8.58579 12 9 12H9.75C10.1642 12 10.5 11.6642 10.5 11.25V10.5C10.5 10.0858 10.1642 9.75 9.75 9.75H9Z" fill="#292929"/>
<path d="M13.5 10.5C13.5 10.0858 13.8358 9.75 14.25 9.75H15C15.4142 9.75 15.75 10.0858 15.75 10.5V11.25C15.75 11.6642 15.4142 12 15 12H14.25C13.8358 12 13.5 11.6642 13.5 11.25V10.5Z" fill="#292929"/>
<path fill-rule="evenodd" clip-rule="evenodd" d="M19.5 20.25V5.25C19.5 3.59315 18.1569 2.25 16.5 2.25H7.5C5.84315 2.25 4.5 3.59315 4.5 5.25V20.25H3.75C3.33579 20.25 3 20.5858 3 21C3 21.4142 3.33579 21.75 3.75 21.75H20.25C20.6642 21.75 21 21.4142 21 21C21 20.5858 20.6642 20.25 20.25 20.25H19.5ZM16.5 3.75H7.5C6.67157 3.75 6 4.42157 6 5.25V20.25H8.25V15.75C8.25 14.9216 8.92157 14.25 9.75 14.25H14.25C15.0784 14.25 15.75 14.9216 15.75 15.75V20.25H18V5.25C18 4.42157 17.3284 3.75 16.5 3.75ZM14.25 20.25V15.75H9.75V20.25H14.25Z" fill="#292929"/>
</svg>
