<svg width="24" height="24" viewBox="0 0 24 24" fill="none" xmlns="http://www.w3.org/2000/svg">
<path fill-rule="evenodd" clip-rule="evenodd" d="M19.5 7.5C21.1569 7.5 22.5 6.15685 22.5 4.5C22.5 2.84315 21.1569 1.5 19.5 1.5C17.8431 1.5 16.5 2.84315 16.5 4.5C16.5 5.05636 16.6514 5.57735 16.9154 6.02399L13.524 9.41537C13.0774 9.15145 12.5564 9 12 9C11.4436 9 10.9226 9.15146 10.476 9.4154L9.3346 8.27403C9.59854 7.82739 9.75 7.30638 9.75 6.75C9.75 5.09315 8.40685 3.75 6.75 3.75C5.09315 3.75 3.75 5.09315 3.75 6.75C3.75 8.40685 5.09315 9.75 6.75 9.75C7.30633 9.75 7.8273 9.59857 8.27392 9.33467L9.41533 10.4761C9.15143 10.9227 9 11.4437 9 12C9 12.2155 9.02273 12.4258 9.06593 12.6284L6.76266 13.7801C6.21268 13.1489 5.40292 12.75 4.5 12.75C2.84315 12.75 1.5 14.0931 1.5 15.75C1.5 17.4069 2.84315 18.75 4.5 18.75C6.15685 18.75 7.5 17.4069 7.5 15.75C7.5 15.5344 7.47726 15.3241 7.43404 15.1214L9.73725 13.9698C10.2534 14.5622 10.9983 14.95 11.8343 14.9955L12.1948 16.7981C11.1918 17.2835 10.5 18.311 10.5 19.5C10.5 21.1569 11.8431 22.5 13.5 22.5C15.1569 22.5 16.5 21.1569 16.5 19.5C16.5 17.8988 15.2455 16.5905 13.6658 16.5045L13.3053 14.7019C13.7479 14.4877 14.13 14.1679 14.4187 13.7752L16.5242 14.6174C16.5082 14.7427 16.5 14.8704 16.5 15C16.5 16.6569 17.8431 18 19.5 18C21.1569 18 22.5 16.6569 22.5 15C22.5 13.3431 21.1569 12 19.5 12C18.5075 12 17.6275 12.482 17.0814 13.2247L14.9758 12.3825C14.9918 12.2572 15 12.1296 15 12C15 11.4436 14.8486 10.9227 14.5846 10.476L17.976 7.08464C18.4227 7.34856 18.9436 7.5 19.5 7.5ZM19.5 6C20.3284 6 21 5.32843 21 4.5C21 3.67157 20.3284 3 19.5 3C18.6716 3 18 3.67157 18 4.5C18 5.32843 18.6716 6 19.5 6ZM12 13.5C12.8284 13.5 13.5 12.8284 13.5 12C13.5 11.1716 12.8284 10.5 12 10.5C11.1716 10.5 10.5 11.1716 10.5 12C10.5 12.8284 11.1716 13.5 12 13.5ZM15 19.5C15 20.3284 14.3284 21 13.5 21C12.6716 21 12 20.3284 12 19.5C12 18.6716 12.6716 18 13.5 18C14.3284 18 15 18.6716 15 19.5ZM19.5 16.5C20.3284 16.5 21 15.8284 21 15C21 14.1716 20.3284 13.5 19.5 13.5C18.6716 13.5 18 14.1716 18 15C18 15.8284 18.6716 16.5 19.5 16.5ZM8.25 6.75C8.25 7.57843 7.57843 8.25 6.75 8.25C5.92157 8.25 5.25 7.57843 5.25 6.75C5.25 5.92157 5.92157 5.25 6.75 5.25C7.57843 5.25 8.25 5.92157 8.25 6.75ZM4.5 17.25C5.32843 17.25 6 16.5784 6 15.75C6 14.9216 5.32843 14.25 4.5 14.25C3.67157 14.25 3 14.9216 3 15.75C3 16.5784 3.67157 17.25 4.5 17.25Z" fill="#292929"/>
</svg>
