<svg width="24" height="24" viewBox="0 0 24 24" fill="none" xmlns="http://www.w3.org/2000/svg">
<path fill-rule="evenodd" clip-rule="evenodd" d="M12 3C8.68629 3 6 5.68629 6 9V13.5C6 14.7426 4.99264 15.75 3.75 15.75C2.50736 15.75 1.5 14.7426 1.5 13.5V10.5C1.5 9.25736 2.50736 8.25 3.75 8.25C4.02223 8.25 4.28317 8.29835 4.5247 8.38692C4.83661 4.53154 8.06428 1.5 12 1.5C13.4611 1.5 14.8247 1.91783 15.9777 2.64052C15.9985 2.65233 16.0186 2.66511 16.0381 2.67879C16.0566 2.69064 16.0751 2.70257 16.0935 2.71459L16.0899 2.71866C16.2536 2.85624 16.3575 3.06246 16.3575 3.29297C16.3575 3.70718 16.0218 4.04297 15.6075 4.04297C15.4129 4.04297 15.2356 3.96885 15.1024 3.84731L15.0932 3.85775C14.19 3.31324 13.1316 3 12 3ZM3.75 9.75C4.16421 9.75 4.5 10.0858 4.5 10.5V13.5C4.5 13.9142 4.16421 14.25 3.75 14.25C3.33579 14.25 3 13.9142 3 13.5V10.5C3 10.0858 3.33579 9.75 3.75 9.75Z" fill="#292929"/>
<path fill-rule="evenodd" clip-rule="evenodd" d="M18 12V17.25C18 18.0784 17.3284 18.75 16.5 18.75H14.9055C14.5725 17.4561 13.3979 16.5 12 16.5C10.3431 16.5 9 17.8431 9 19.5C9 21.1569 10.3431 22.5 12 22.5C13.3979 22.5 14.5725 21.5439 14.9055 20.25H16.5C18.1569 20.25 19.5 18.9069 19.5 17.25V15.622C19.7346 15.7049 19.987 15.75 20.25 15.75C21.4926 15.75 22.5 14.7426 22.5 13.5V10.5C22.5 10.0858 22.1642 9.75 21.75 9.75C21.3358 9.75 21 10.0858 21 10.5V13.5C21 13.9142 20.6642 14.25 20.25 14.25C19.8358 14.25 19.5 13.9142 19.5 13.5V12C19.5 11.5858 19.1642 11.25 18.75 11.25C18.3358 11.25 18 11.5858 18 12ZM12 21C12.8284 21 13.5 20.3284 13.5 19.5C13.5 18.6716 12.8284 18 12 18C11.1716 18 10.5 18.6716 10.5 19.5C10.5 20.3284 11.1716 21 12 21Z" fill="#292929"/>
<path d="M19.2803 2.46967C18.9874 2.17678 18.5126 2.17678 18.2197 2.46967C17.9268 2.76256 17.9268 3.23744 18.2197 3.53033L19.9393 5.25H15C14.5858 5.25 14.25 5.58579 14.25 6C14.25 6.41421 14.5858 6.75 15 6.75H19.9393L18.2197 8.46967C17.9268 8.76256 17.9268 9.23744 18.2197 9.53033C18.5126 9.82322 18.9874 9.82322 19.2803 9.53033L22.2803 6.53033C22.5732 6.23744 22.5732 5.76256 22.2803 5.46967L19.2803 2.46967Z" fill="#292929"/>
</svg>
