<svg width="24" height="24" viewBox="0 0 24 24" fill="none" xmlns="http://www.w3.org/2000/svg">
<path fill-rule="evenodd" clip-rule="evenodd" d="M4.5 6C4.5 4.75736 5.50736 3.75 6.75 3.75H8.25C9.49264 3.75 10.5 4.75736 10.5 6V18C10.5 19.2426 9.49264 20.25 8.25 20.25H6.75C5.50736 20.25 4.5 19.2426 4.5 18V6ZM6.75 5.25H8.25C8.66421 5.25 9 5.58579 9 6V18C9 18.4142 8.66421 18.75 8.25 18.75H6.75C6.33579 18.75 6 18.4142 6 18V6C6 5.58579 6.33579 5.25 6.75 5.25Z" fill="#292929"/>
<path fill-rule="evenodd" clip-rule="evenodd" d="M13.5 6C13.5 4.75736 14.5074 3.75 15.75 3.75H17.25C18.4926 3.75 19.5 4.75736 19.5 6V18C19.5 19.2426 18.4926 20.25 17.25 20.25H15.75C14.5074 20.25 13.5 19.2426 13.5 18V6ZM15.75 5.25H17.25C17.6642 5.25 18 5.58579 18 6V18C18 18.4142 17.6642 18.75 17.25 18.75H15.75C15.3358 18.75 15 18.4142 15 18V6C15 5.58579 15.3358 5.25 15.75 5.25Z" fill="#292929"/>
</svg>
