<svg width="24" height="24" viewBox="0 0 24 24" fill="none" xmlns="http://www.w3.org/2000/svg">
<path fill-rule="evenodd" clip-rule="evenodd" d="M4.90673 14.5671L15.0654 3.75302C15.6452 3.13584 16.6206 3.1206 17.2193 3.71937L19.9393 6.43939C20.5251 7.02517 20.5251 7.97492 19.9393 8.56071L9.43934 19.0607C9.15803 19.342 8.7765 19.5 8.37868 19.5H6C5.17157 19.5 4.5 18.8285 4.5 18V15.5941C4.5 15.2125 4.64545 14.8452 4.90673 14.5671ZM16.3447 10.0341L18.8787 7.50005L16.1587 4.78003L13.7038 7.39324L16.3447 10.0341ZM15.284 11.0947L8.37868 18L6 18V15.5941L12.6763 8.48704L15.284 11.0947Z" fill="#292929"/>
<path d="M21.75 21.0001H2.25C1.83579 21.0001 1.5 21.3358 1.5 21.7501C1.5 22.1643 1.83579 22.5001 2.25 22.5001H21.75C22.1642 22.5001 22.5 22.1643 22.5 21.7501C22.5 21.3358 22.1642 21.0001 21.75 21.0001Z" fill="#292929"/>
</svg>
