<svg width="24" height="24" viewBox="0 0 24 24" fill="none" xmlns="http://www.w3.org/2000/svg">
<path d="M22.4691 9.75012C22.5031 10.1629 22.1641 10.4999 21.7499 10.4999C21.3357 10.4999 21.0038 10.1631 20.963 9.75094C20.6116 6.20679 17.793 3.3882 14.2488 3.03682C13.8366 2.99595 13.4999 2.66411 13.4999 2.24989C13.4999 1.83568 13.8368 1.49663 14.2497 1.53068C18.6222 1.8913 22.1085 5.37759 22.4691 9.75012Z" fill="#292929"/>
<path d="M19.4536 9.75138C19.5048 10.1624 19.1641 10.4999 18.7499 10.4999C18.3357 10.4999 18.0064 10.1616 17.9382 9.75303C17.623 7.86612 16.1337 6.37677 14.2467 6.06159C13.8382 5.99334 13.4999 5.66411 13.4999 5.24989C13.4999 4.83568 13.8373 4.49498 14.2484 4.54613C16.9636 4.88402 19.1158 7.03615 19.4536 9.75138Z" fill="#292929"/>
<path fill-rule="evenodd" clip-rule="evenodd" d="M10.167 7.56261C10.2703 8.18173 10.1148 8.59318 9.67191 9.32805L9.56444 9.50909C9.36051 9.863 9.32556 10.0071 9.37735 10.1682C10.1861 12.3361 11.6596 13.8094 13.8028 14.6085C14.0062 14.6747 14.1639 14.6253 14.6108 14.3566L14.8439 14.2182C15.4716 13.856 15.8649 13.7333 16.4333 13.8287C16.9863 13.9222 18.9796 15.3868 19.6532 16.0781C20.0079 16.442 20.229 16.8488 20.2491 17.3577C20.2408 18.5969 18.6532 20.4078 17.7074 20.972C16.6253 21.7676 15.2927 21.811 13.827 21.178C9.98627 19.7153 4.25605 14.0249 2.82634 10.1876L2.74011 9.97319C2.1957 8.55242 2.26122 7.30249 2.9941 6.33149C3.67072 5.25721 5.43717 3.73973 6.64559 3.74494L6.66986 3.74549C7.14725 3.7651 7.55333 3.98572 7.91758 4.34088C8.6098 5.01556 10.0734 7.00769 10.167 7.56261ZM14.5623 16.04C14.8729 15.9431 15.1621 15.7753 15.3799 15.6444L15.6013 15.513C15.8696 15.3586 15.9847 15.3174 16.036 15.3042C16.0552 15.2992 16.0663 15.2981 16.0778 15.2977C16.0805 15.2976 16.0839 15.2976 16.0881 15.2976C16.0915 15.2977 16.0953 15.2978 16.0997 15.298C16.1502 15.3227 16.2222 15.3613 16.3166 15.4165C16.5408 15.5479 16.8239 15.7345 17.1276 15.9509C17.7549 16.3978 18.336 16.8757 18.579 17.1251C18.6711 17.2195 18.7099 17.2829 18.7267 17.3175C18.7354 17.3356 18.742 17.3531 18.746 17.3752C18.7433 17.3923 18.7382 17.4176 18.729 17.4518C18.7096 17.523 18.6759 17.6165 18.6224 17.7312C18.5138 17.9637 18.3473 18.2322 18.1362 18.5095C17.6937 19.0909 17.196 19.5304 16.939 19.6838L16.877 19.7207L16.8189 19.7635C16.2805 20.1593 15.5442 20.2857 14.4218 19.8009L14.3916 19.7879L14.3609 19.7762C12.7283 19.1545 10.5127 17.5361 8.48161 15.511C6.44845 13.484 4.83561 11.2841 4.23195 9.66387L4.2252 9.64576L4.13665 9.4256C3.71695 8.3234 3.86754 7.66416 4.19135 7.23514L4.22954 7.18454L4.26333 7.1309C4.48549 6.77817 4.95995 6.25797 5.52614 5.82909C5.80104 5.62086 6.0619 5.46163 6.28434 5.35989C6.3939 5.30977 6.48204 5.27918 6.54795 5.26199C6.58663 5.25191 6.61249 5.24778 6.62659 5.2461C6.63877 5.24827 6.65272 5.2528 6.67242 5.26252C6.70856 5.28035 6.77521 5.32204 6.87062 5.41507C7.12056 5.65867 7.59835 6.23967 8.04494 6.86678C8.26126 7.17053 8.44761 7.45354 8.57888 7.67779C8.63413 7.77217 8.67263 7.84427 8.69733 7.89475C8.69789 7.90719 8.69766 7.91536 8.69741 7.92018C8.69692 7.92991 8.69562 7.94379 8.68706 7.97243C8.66298 8.05302 8.59769 8.20443 8.38716 8.55377L8.26962 8.75177L8.26478 8.76018C8.15407 8.95231 8.01095 9.21567 7.92924 9.51123C7.82411 9.8915 7.83331 10.2663 7.94929 10.6272L7.95987 10.6601L7.97195 10.6925C8.93177 13.2654 10.7251 15.0618 13.2787 16.014L13.3086 16.0251L13.339 16.035C13.7295 16.162 14.1381 16.1724 14.5623 16.04Z" fill="#292929"/>
</svg>
