<svg width="24" height="24" viewBox="0 0 24 24" fill="none" xmlns="http://www.w3.org/2000/svg">
<path d="M18.2197 11.7803L17.25 10.8106V16.125C17.25 16.7463 16.7463 17.25 16.125 17.25H10.8106L11.7803 18.2197C12.0732 18.5126 12.0732 18.9874 11.7803 19.2803C11.4874 19.5732 11.0125 19.5732 10.7196 19.2803L8.73478 17.2955C8.29544 16.8562 8.29544 16.1438 8.73478 15.7045L10.7196 13.7197C11.0125 13.4268 11.4874 13.4268 11.7803 13.7197C12.0732 14.0126 12.0732 14.4874 11.7803 14.7803L10.8106 15.75H15.75V10.8106L14.7803 11.7803C14.4874 12.0732 14.0126 12.0732 13.7197 11.7803C13.4268 11.4874 13.4268 11.0125 13.7197 10.7196L15.7045 8.73478C16.1438 8.29544 16.8562 8.29544 17.2955 8.73478L19.2803 10.7196C19.5732 11.0125 19.5732 11.4874 19.2803 11.7803C18.9874 12.0732 18.5126 12.0732 18.2197 11.7803Z" fill="#292929"/>
<path fill-rule="evenodd" clip-rule="evenodd" d="M2.25 5.25C2.25 3.59315 3.59315 2.25 5.25 2.25H18.75C20.4069 2.25 21.75 3.59315 21.75 5.25V18.75C21.75 20.4069 20.4069 21.75 18.75 21.75H5.25C3.59315 21.75 2.25 20.4069 2.25 18.75V5.25ZM6.75 3.75H18.75C19.5784 3.75 20.25 4.42157 20.25 5.25L6.75 5.25V3.75ZM5.25 3.75V5.25H3.75C3.75 4.42157 4.42157 3.75 5.25 3.75ZM5.25 20.25L5.25 6.75H3.75V18.75C3.75 19.5784 4.42157 20.25 5.25 20.25ZM18.75 20.25H6.75V6.75H20.25V18.75C20.25 19.5784 19.5784 20.25 18.75 20.25Z" fill="#292929"/>
</svg>
