<svg width="24" height="24" viewBox="0 0 24 24" fill="none" xmlns="http://www.w3.org/2000/svg">
<path d="M7.5 5.25C7.5 4.83579 7.83579 4.5 8.25 4.5H12.75C13.1642 4.5 13.5 4.83579 13.5 5.25C13.5 5.66421 13.1642 6 12.75 6H8.25C7.83579 6 7.5 5.66421 7.5 5.25Z" fill="#292929"/>
<path d="M7.5 8.25C7.5 7.83579 7.83579 7.5 8.25 7.5H15.75C16.1642 7.5 16.5 7.83579 16.5 8.25C16.5 8.66421 16.1642 9 15.75 9H8.25C7.83579 9 7.5 8.66421 7.5 8.25Z" fill="#292929"/>
<path d="M8.25 13.5C7.83579 13.5 7.5 13.8358 7.5 14.25C7.5 14.6642 7.83579 15 8.25 15H10.5C10.9142 15 11.25 14.6642 11.25 14.25C11.25 13.8358 10.9142 13.5 10.5 13.5H8.25Z" fill="#292929"/>
<path d="M15 5.25C15 4.83579 15.3358 4.5 15.75 4.5C16.1642 4.5 16.5 4.83579 16.5 5.25C16.5 5.66421 16.1642 6 15.75 6C15.3358 6 15 5.66421 15 5.25Z" fill="#292929"/>
<path d="M8.25 10.5C7.83579 10.5 7.5 10.8358 7.5 11.25C7.5 11.6642 7.83579 12 8.25 12H9.75C10.1642 12 10.5 11.6642 10.5 11.25C10.5 10.8358 10.1642 10.5 9.75 10.5H8.25Z" fill="#292929"/>
<path d="M12 11.25C12 10.8358 12.3358 10.5 12.75 10.5C13.1642 10.5 13.5 10.8358 13.5 11.25C13.5 11.6642 13.1642 12 12.75 12C12.3358 12 12 11.6642 12 11.25Z" fill="#292929"/>
<path d="M17.25 15C17.6642 15 18 15.3358 18 15.75V16.9393L18.9053 17.8447C19.1982 18.1376 19.1982 18.6124 18.9053 18.9053C18.6124 19.1982 18.1376 19.1982 17.8447 18.9053L16.8295 17.8902C16.6185 17.6792 16.5 17.393 16.5 17.0947V15.75C16.5 15.3358 16.8358 15 17.25 15Z" fill="#292929"/>
<path fill-rule="evenodd" clip-rule="evenodd" d="M19.5 12.5052V3.75C19.5 2.50736 18.4926 1.5 17.25 1.5H6.75C5.50736 1.5 4.5 2.50736 4.5 3.75V21.5689C4.5 22.3039 5.38864 22.672 5.90836 22.1523L7.5 20.5607L9.16664 22.2273C9.48882 22.5495 10.0112 22.5495 10.3334 22.2273L12 20.5607L13.6666 22.2273C13.9888 22.5495 14.5112 22.5495 14.8334 22.2273L15.0448 22.0158C15.7153 22.3266 16.4624 22.5 17.25 22.5C20.1495 22.5 22.5 20.1495 22.5 17.25C22.5 15.1557 21.2737 13.3478 19.5 12.5052ZM6.75 3C6.33579 3 6 3.33579 6 3.75V19.9393L6.91664 19.0227C7.23882 18.7005 7.76118 18.7005 8.08336 19.0227L9.75 20.6893L11.4166 19.0227C11.6388 18.8005 11.9562 18.7316 12.2375 18.8158C12.0832 18.3213 12 17.7954 12 17.25C12 14.3505 14.3505 12 17.25 12C17.5046 12 17.755 12.0181 18 12.0532V3.75C18 3.33579 17.6642 3 17.25 3H6.75ZM21 17.25C21 19.3211 19.3211 21 17.25 21C15.1789 21 13.5 19.3211 13.5 17.25C13.5 15.1789 15.1789 13.5 17.25 13.5C19.3211 13.5 21 15.1789 21 17.25Z" fill="#292929"/>
</svg>
