<svg width="24" height="24" viewBox="0 0 24 24" fill="none" xmlns="http://www.w3.org/2000/svg">
<path d="M17.2485 7.37251C18.1232 7.06406 18.75 6.23023 18.75 5.25C18.75 4.00736 17.7426 3 16.5 3C16.0381 3 15.6088 3.13916 15.2515 3.37785C14.8338 3.04791 14.3648 2.78011 13.8583 2.58839C14.5361 1.91563 15.4695 1.5 16.5 1.5C18.5711 1.5 20.25 3.17893 20.25 5.25C20.25 7.13628 18.8573 8.69728 17.0441 8.96082C17.1781 8.49708 17.25 8.00693 17.25 7.5C17.25 7.45738 17.2495 7.41488 17.2485 7.37251Z" fill="#292929"/>
<path fill-rule="evenodd" clip-rule="evenodd" d="M7.5 22.5C10.8137 22.5 13.5 20.8211 13.5 18.75C13.5 16.6789 10.8137 15 7.5 15C4.18629 15 1.5 16.6789 1.5 18.75C1.5 20.8211 4.18629 22.5 7.5 22.5ZM10.9476 20.1297C11.7807 19.609 12 19.0817 12 18.75C12 18.4183 11.7807 17.891 10.9476 17.3703C10.1357 16.8629 8.9207 16.5 7.5 16.5C6.0793 16.5 4.86429 16.8629 4.05236 17.3703C3.21929 17.891 3 18.4183 3 18.75C3 19.0817 3.21929 19.609 4.05236 20.1297C4.86429 20.6371 6.0793 21 7.5 21C8.9207 21 10.1357 20.6371 10.9476 20.1297Z" fill="#292929"/>
<path d="M12.7485 9.62251C13.6232 9.31406 14.25 8.48023 14.25 7.5C14.25 6.25736 13.2426 5.25 12 5.25C11.5381 5.25 11.1088 5.38916 10.7515 5.62785C10.3338 5.29791 9.86479 5.03011 9.35834 4.83839C10.0361 4.16563 10.9695 3.75 12 3.75C14.0711 3.75 15.75 5.42893 15.75 7.5C15.75 9.38628 14.3573 10.9473 12.5441 11.2108C12.6781 10.7471 12.75 10.2569 12.75 9.75C12.75 9.70738 12.7495 9.66488 12.7485 9.62251Z" fill="#292929"/>
<path fill-rule="evenodd" clip-rule="evenodd" d="M7.5 13.5C9.57107 13.5 11.25 11.8211 11.25 9.75C11.25 7.67893 9.57107 6 7.5 6C5.42893 6 3.75 7.67893 3.75 9.75C3.75 11.8211 5.42893 13.5 7.5 13.5ZM7.5 12C8.74264 12 9.75 10.9926 9.75 9.75C9.75 8.50736 8.74264 7.5 7.5 7.5C6.25736 7.5 5.25 8.50736 5.25 9.75C5.25 10.9926 6.25736 12 7.5 12Z" fill="#292929"/>
<path d="M17.4697 22.2803C17.7626 22.5732 18.2374 22.5732 18.5303 22.2803L22.2803 18.5303C22.5732 18.2374 22.5732 17.7626 22.2803 17.4697L18.5303 13.7197C18.2374 13.4268 17.7626 13.4268 17.4697 13.7197C17.1768 14.0126 17.1768 14.4874 17.4697 14.7803L19.9393 17.25H15.75C15.3358 17.25 15 17.5858 15 18C15 18.4142 15.3358 18.75 15.75 18.75H19.9393L17.4697 21.2197C17.1768 21.5126 17.1768 21.9874 17.4697 22.2803Z" fill="#292929"/>
<path d="M14.7215 14.9464C13.2853 14.3719 12.2562 14.25 12 14.25V12.75C12.4938 12.75 13.7147 12.9281 15.2785 13.5536L14.7215 14.9464Z" fill="#292929"/>
<path d="M16.5623 11.9969C17.8968 11.8857 19.5356 12.346 20.4699 13.2796L21.5302 12.2186C20.2144 10.9037 18.1033 10.3633 16.4377 10.5021L16.5623 11.9969Z" fill="#292929"/>
</svg>
