<svg width="24" height="24" viewBox="0 0 24 24" fill="none" xmlns="http://www.w3.org/2000/svg">
<path d="M18.5303 2.46967C18.2374 2.17678 17.7626 2.17678 17.4697 2.46967C17.1768 2.76256 17.1768 3.23744 17.4697 3.53033L19.9393 6H16.084C15.4107 6 14.7728 6.30154 14.3454 6.82184L11.0893 10.7858L8.175 6.9C7.75008 6.33344 7.0832 6 6.375 6H2.25C1.83579 6 1.5 6.33579 1.5 6.75C1.5 7.16421 1.83579 7.5 2.25 7.5H6.375C6.61107 7.5 6.83336 7.61115 6.975 7.8L10.1092 11.9789L6.62051 16.2261C6.47805 16.3995 6.2654 16.5 6.04096 16.5H2.25C1.83579 16.5 1.5 16.8358 1.5 17.25C1.5 17.6642 1.83579 18 2.25 18H6.04096C6.71428 18 7.35222 17.6985 7.7796 17.1782L11.0357 13.2142L13.95 17.1C14.3749 17.6666 15.0418 18 15.75 18H19.9393L17.4697 20.4697C17.1768 20.7626 17.1768 21.2374 17.4697 21.5303C17.7626 21.8232 18.2374 21.8232 18.5303 21.5303L21.75 18.3107C22.3358 17.7249 22.3358 16.7751 21.75 16.1893L18.5303 12.9697C18.2374 12.6768 17.7626 12.6768 17.4697 12.9697C17.1768 13.2626 17.1768 13.7374 17.4697 14.0303L19.9393 16.5H15.75C15.5139 16.5 15.2916 16.3889 15.15 16.2L12.0158 12.0211L15.5045 7.77395C15.647 7.60051 15.8596 7.5 16.084 7.5H19.9393L17.4697 9.96967C17.1768 10.2626 17.1768 10.7374 17.4697 11.0303C17.7626 11.3232 18.2374 11.3232 18.5303 11.0303L21.75 7.81066C22.3358 7.22487 22.3358 6.27513 21.75 5.68934L18.5303 2.46967Z" fill="#292929"/>
</svg>
