<svg width="24" height="24" viewBox="0 0 24 24" fill="none" xmlns="http://www.w3.org/2000/svg">
<path d="M18.5303 3.96967C18.2374 3.67678 17.7626 3.67678 17.4697 3.96967C17.1768 4.26256 17.1768 4.73744 17.4697 5.03033L19.9393 7.5H7.875C4.35419 7.5 1.5 10.3542 1.5 13.875C1.5 17.3958 4.35419 20.25 7.875 20.25H11.61C12.0242 20.25 12.36 19.9142 12.36 19.5C12.36 19.0858 12.0242 18.75 11.61 18.75H7.875C5.18261 18.75 3 16.5674 3 13.875C3 11.1826 5.18261 9 7.875 9H19.9393L17.4697 11.4697C17.1768 11.7626 17.1768 12.2374 17.4697 12.5303C17.7626 12.8232 18.2374 12.8232 18.5303 12.5303L22.2803 8.78033C22.5732 8.48744 22.5732 8.01256 22.2803 7.71967L18.5303 3.96967Z" fill="#292929"/>
</svg>
