<svg width="24" height="24" viewBox="0 0 24 24" fill="none" xmlns="http://www.w3.org/2000/svg">
<path d="M12 3C7.02944 3 3 7.02944 3 12C3 16.9706 7.02944 21 12 21C16.9706 21 21 16.9706 21 12C21 11.5858 21.3358 11.25 21.75 11.25C22.1642 11.25 22.5 11.5858 22.5 12C22.5 17.799 17.799 22.5 12 22.5C6.20101 22.5 1.5 17.799 1.5 12C1.5 6.20101 6.20101 1.5 12 1.5C14.9383 1.5 17.595 2.70761 19.5 4.65157V3C19.5 2.58579 19.8358 2.25 20.25 2.25C20.6642 2.25 21 2.58579 21 3V6C21 6.82843 20.3284 7.5 19.5 7.5H16.5C16.0858 7.5 15.75 7.16421 15.75 6.75C15.75 6.33579 16.0858 6 16.5 6H18.7083C17.0595 4.15768 14.6651 3 12 3Z" fill="#292929"/>
</svg>
