<svg width="24" height="24" viewBox="0 0 24 24" fill="none" xmlns="http://www.w3.org/2000/svg">
<path d="M4.5 5.76976L4.5 3.75C4.5 3.33579 4.16421 3 3.75 3C3.33579 3 3 3.33579 3 3.75L3 7.125C3 7.74632 3.50368 8.25 4.125 8.25L7.5 8.25C7.91421 8.25 8.25 7.91421 8.25 7.5C8.25 7.08579 7.91421 6.75 7.5 6.75L5.63565 6.75C7.14959 4.91676 9.4388 3.75 12 3.75C16.5563 3.75 20.25 7.44365 20.25 12C20.25 12.4142 20.5858 12.75 21 12.75C21.4142 12.75 21.75 12.4142 21.75 12C21.75 6.61522 17.3848 2.25 12 2.25C8.98359 2.25 6.28771 3.62012 4.5 5.76976Z" fill="#292929"/>
<path d="M3 11.25C3.41421 11.25 3.75 11.5858 3.75 12C3.75 16.5563 7.44365 20.25 12 20.25C14.5613 20.25 16.8502 19.0834 18.3643 17.25H16.5C16.0858 17.25 15.75 16.9142 15.75 16.5C15.75 16.0858 16.0858 15.75 16.5 15.75H19.875C20.4963 15.75 21 16.2537 21 16.875V20.25C21 20.6642 20.6642 21 20.25 21C19.8358 21 19.5 20.6642 19.5 20.25V18.2303C17.7124 20.3798 15.0163 21.75 12 21.75C6.61522 21.75 2.25 17.3848 2.25 12C2.25 11.5858 2.58579 11.25 3 11.25Z" fill="#292929"/>
</svg>
