<svg width="24" height="24" viewBox="0 0 24 24" fill="none" xmlns="http://www.w3.org/2000/svg">
<path fill-rule="evenodd" clip-rule="evenodd" d="M10.167 7.56281C10.2703 8.18192 10.1148 8.59337 9.67191 9.32824L9.56444 9.50928C9.36051 9.86319 9.32557 10.0073 9.37735 10.1684C10.1861 12.3363 11.6596 13.8096 13.8028 14.6087C14.0062 14.6749 14.1639 14.6255 14.6108 14.3568L14.8439 14.2184C15.4716 13.8562 15.8649 13.7335 16.4333 13.8289C16.9863 13.9224 18.9796 15.387 19.6532 16.0783C20.0079 16.4422 20.229 16.849 20.2491 17.3579C20.2409 18.5971 18.6532 20.408 17.7074 20.9722C16.6253 21.7677 15.2927 21.8112 13.827 21.1782C9.98627 19.7155 4.25605 14.0251 2.82634 10.1878L2.74011 9.97338C2.1957 8.55261 2.26122 7.30268 2.9941 6.33168C3.67072 5.2574 5.43717 3.73992 6.64559 3.74513L6.66986 3.74568C7.14725 3.76529 7.55333 3.98591 7.91758 4.34108C8.6098 5.01575 10.0734 7.00788 10.167 7.56281ZM14.5623 16.0402C14.8729 15.9433 15.1621 15.7755 15.3799 15.6446L15.6013 15.5132C15.8696 15.3588 15.9847 15.3176 16.036 15.3044C16.0552 15.2994 16.0663 15.2983 16.0778 15.2979C16.0826 15.2978 16.0898 15.2977 16.0997 15.2982C16.1502 15.3229 16.2222 15.3615 16.3166 15.4167C16.5408 15.5481 16.8239 15.7347 17.1277 15.9511C17.7549 16.398 18.336 16.8759 18.579 17.1253C18.6711 17.2197 18.7099 17.2831 18.7267 17.3177C18.7354 17.3358 18.742 17.3533 18.746 17.3754C18.7433 17.3925 18.7382 17.4178 18.729 17.4519C18.7096 17.5232 18.6759 17.6167 18.6224 17.7314C18.5138 17.9639 18.3473 18.2324 18.1362 18.5097C17.6937 19.0911 17.196 19.5306 16.939 19.684L16.877 19.7209L16.8189 19.7637C16.2805 20.1595 15.5442 20.2859 14.4218 19.8011L14.3916 19.7881L14.3609 19.7764C12.7283 19.1547 10.5127 17.5363 8.48161 15.5112C6.44845 13.4842 4.83561 11.2843 4.23195 9.66406L4.2252 9.64595L4.13665 9.42579C3.71695 8.32359 3.86754 7.66435 4.19135 7.23533L4.22954 7.18473L4.26333 7.13109C4.48549 6.77836 4.95995 6.25817 5.52614 5.82928C5.80104 5.62105 6.0619 5.46182 6.28434 5.36008C6.3939 5.30996 6.48204 5.27937 6.54795 5.26218C6.58663 5.2521 6.61249 5.24798 6.62659 5.24629C6.63877 5.24846 6.65272 5.25299 6.67243 5.26271C6.70856 5.28054 6.77521 5.32223 6.87062 5.41526C7.12056 5.65886 7.59835 6.23986 8.04495 6.86697C8.26126 7.17072 8.44761 7.45373 8.57888 7.67798C8.63414 7.77237 8.67263 7.84447 8.69733 7.89494C8.69789 7.90738 8.69766 7.91555 8.69741 7.92037C8.69692 7.93011 8.69562 7.94399 8.68706 7.97262C8.66298 8.05322 8.59769 8.20463 8.38716 8.55396L8.26962 8.75196L8.26478 8.76037C8.15407 8.9525 8.01095 9.21587 7.92924 9.51143C7.82411 9.89169 7.83331 10.2665 7.94929 10.6274L7.95987 10.6603L7.97196 10.6927C8.93177 13.2655 10.7251 15.062 13.2787 16.0142L13.3086 16.0253L13.339 16.0352C13.7295 16.1622 14.1381 16.1726 14.5623 16.0402Z" fill="#292929"/>
<path fill-rule="evenodd" clip-rule="evenodd" d="M20.2 5.5L16.9 3.59475V7.40526L20.2 5.5ZM22.25 5.93302C22.5833 5.74057 22.5833 5.25944 22.25 5.06699L16.25 1.60289C15.9167 1.41044 15.5 1.651 15.5 2.0359V8.96411C15.5 9.34901 15.9167 9.58957 16.25 9.39712L22.25 5.93302Z" fill="#292929"/>
</svg>
