<svg width="24" height="24" viewBox="0 0 24 24" fill="none" xmlns="http://www.w3.org/2000/svg">
<path d="M8.37804 20.0691C9.45178 20.6624 10.6865 21.0001 12 21.0001C13.3135 21.0001 14.5482 20.6624 15.622 20.0691C15.9108 20.5049 16.2883 20.8769 16.7287 21.1592C15.3545 22.0094 13.7346 22.5001 12 22.5001C10.2654 22.5001 8.64546 22.0094 7.27135 21.1592C7.71174 20.8769 8.08921 20.5049 8.37804 20.0691Z" fill="#292929"/>
<path fill-rule="evenodd" clip-rule="evenodd" d="M4.54391 14.3164C4.77258 14.2728 5.00863 14.25 5.25 14.25C7.32107 14.25 9 15.9289 9 18C9 20.0711 7.32107 21.75 5.25 21.75C3.17893 21.75 1.5 20.0711 1.5 18C1.5 16.7239 2.13743 15.5966 3.11126 14.9193C3.03803 14.457 3 13.983 3 13.5001C3 9.86765 5.15197 6.73781 8.25057 5.31592C8.25019 5.29399 8.25 5.27202 8.25 5.25C8.25 3.17893 9.92893 1.5 12 1.5C14.0711 1.5 15.75 3.17893 15.75 5.25C15.75 5.27202 15.7498 5.29399 15.7494 5.31592C18.848 6.73781 21 9.86765 21 13.5001C21 13.983 20.962 14.457 20.8887 14.9193C21.8626 15.5966 22.5 16.7239 22.5 18C22.5 20.0711 20.8211 21.75 18.75 21.75C16.6789 21.75 15 20.0711 15 18C15 15.9289 16.6789 14.25 18.75 14.25C18.9914 14.25 19.2274 14.2728 19.4561 14.3164C19.4851 14.0483 19.5 13.7759 19.5 13.5001C19.5 10.5851 17.8369 8.05842 15.4078 6.81726C15.5727 6.45938 15.6828 6.07109 15.7275 5.66313C15.5219 7.53981 13.9314 9 12 9C10.0181 9 8.39534 7.46258 8.25923 5.51532C8.29152 5.9774 8.40752 6.4164 8.59216 6.81726C6.16307 8.05842 4.5 10.5851 4.5 13.5001C4.5 13.7759 4.51489 14.0483 4.54391 14.3164ZM5.25 20.25C4.00736 20.25 3 19.2426 3 18C3 16.7574 4.00736 15.75 5.25 15.75C6.49264 15.75 7.5 16.7574 7.5 18C7.5 19.2426 6.49264 20.25 5.25 20.25ZM18.75 20.25C17.5074 20.25 16.5 19.2426 16.5 18C16.5 16.7574 17.5074 15.75 18.75 15.75C19.9926 15.75 21 16.7574 21 18C21 19.2426 19.9926 20.25 18.75 20.25ZM9.75 5.25C9.75 6.49264 10.7574 7.5 12 7.5C13.2426 7.5 14.25 6.49264 14.25 5.25C14.25 4.00736 13.2426 3 12 3C10.7574 3 9.75 4.00736 9.75 5.25Z" fill="#292929"/>
</svg>
