<svg width="24" height="24" viewBox="0 0 24 24" fill="none" xmlns="http://www.w3.org/2000/svg">
<path d="M17.25 8.25C17.25 7.83579 17.5858 7.5 18 7.5C18.4142 7.5 18.75 7.83579 18.75 8.25V9.75C18.75 10.1642 18.4142 10.5 18 10.5C17.5858 10.5 17.25 10.1642 17.25 9.75V8.25Z" fill="#292929"/>
<path fill-rule="evenodd" clip-rule="evenodd" d="M21 4.5V3.75C21 2.50736 19.9926 1.5 18.75 1.5H17.25C16.0074 1.5 15 2.50736 15 3.75V4.5C14.1716 4.5 13.5 5.17157 13.5 6V12C13.5 12.8284 14.1716 13.5 15 13.5H21C21.8284 13.5 22.5 12.8284 22.5 12V6C22.5 5.17157 21.8284 4.5 21 4.5ZM16.5 3.75V4.5H19.5V3.75C19.5 3.33579 19.1642 3 18.75 3H17.25C16.8358 3 16.5 3.33579 16.5 3.75ZM15 12V6H21V12H15Z" fill="#292929"/>
<path fill-rule="evenodd" clip-rule="evenodd" d="M7.5 13.5C9.57107 13.5 11.25 11.8211 11.25 9.75C11.25 7.67893 9.57107 6 7.5 6C5.42893 6 3.75 7.67893 3.75 9.75C3.75 11.8211 5.42893 13.5 7.5 13.5ZM7.5 12C8.74264 12 9.75 10.9926 9.75 9.75C9.75 8.50736 8.74264 7.5 7.5 7.5C6.25736 7.5 5.25 8.50736 5.25 9.75C5.25 10.9926 6.25736 12 7.5 12Z" fill="#292929"/>
<path fill-rule="evenodd" clip-rule="evenodd" d="M7.5 22.5C10.8137 22.5 13.5 20.8211 13.5 18.75C13.5 16.6789 10.8137 15 7.5 15C4.18629 15 1.5 16.6789 1.5 18.75C1.5 20.8211 4.18629 22.5 7.5 22.5ZM10.9476 20.1297C11.7807 19.609 12 19.0817 12 18.75C12 18.4183 11.7807 17.891 10.9476 17.3703C10.1357 16.8629 8.9207 16.5 7.5 16.5C6.0793 16.5 4.86429 16.8629 4.05236 17.3703C3.21929 17.891 3 18.4183 3 18.75C3 19.0817 3.21929 19.609 4.05236 20.1297C4.86429 20.6371 6.0793 21 7.5 21C8.9207 21 10.1357 20.6371 10.9476 20.1297Z" fill="#292929"/>
</svg>
