<svg width="24" height="24" viewBox="0 0 24 24" fill="none" xmlns="http://www.w3.org/2000/svg">
<path d="M6.75 16.5C6.33579 16.5 6 16.8358 6 17.25C6 17.6642 6.33579 18 6.75 18H17.25C17.6642 18 18 17.6642 18 17.25C18 16.8358 17.6642 16.5 17.25 16.5H6.75Z" fill="#292929"/>
<path d="M6 14.25C6 13.8358 6.33579 13.5 6.75 13.5H17.25C17.6642 13.5 18 13.8358 18 14.25C18 14.6642 17.6642 15 17.25 15H6.75C6.33579 15 6 14.6642 6 14.25Z" fill="#292929"/>
<path d="M15.75 4.5C15.3358 4.5 15 4.83579 15 5.25C15 5.66421 15.3358 6 15.75 6C16.1642 6 16.5 5.66421 16.5 5.25C16.5 4.83579 16.1642 4.5 15.75 4.5Z" fill="#292929"/>
<path fill-rule="evenodd" clip-rule="evenodd" d="M21 1.5H3C2.17157 1.5 1.5 2.17157 1.5 3V21C1.5 21.8284 2.17157 22.5 3 22.5H21C21.8284 22.5 22.5 21.8284 22.5 21V3C22.5 2.17157 21.8284 1.5 21 1.5ZM21 3H19.5V7.5C19.5 8.32843 18.8284 9 18 9H6C5.17157 9 4.5 8.32843 4.5 7.5V3L3 3V21H21V3ZM6 3H18V7.5H6V3Z" fill="#292929"/>
</svg>
