<svg width="24" height="24" viewBox="0 0 24 24" fill="none" xmlns="http://www.w3.org/2000/svg">
<path fill-rule="evenodd" clip-rule="evenodd" d="M1.5 3C1.5 2.58579 1.83579 2.25 2.25 2.25H4.06198C5.10609 2.25 6.01302 2.9683 6.25217 3.98466L6.54989 5.25H19.7191C21.2329 5.25 22.3148 6.71482 21.8696 8.16169L19.7926 14.9117C19.5022 15.8558 18.6299 16.5 17.6421 16.5H9.43802C8.39391 16.5 7.48698 15.7817 7.24783 14.7653L4.79204 4.32822C4.71233 3.98943 4.41002 3.75 4.06198 3.75H2.25C1.83579 3.75 1.5 3.41421 1.5 3ZM6.90283 6.75L8.70796 14.4218C8.78767 14.7606 9.08998 15 9.43802 15H17.6421C17.9714 15 18.2621 14.7853 18.359 14.4706L20.4359 7.72056C20.5843 7.23827 20.2237 6.75 19.7191 6.75H6.90283Z" fill="#292929"/>
<path fill-rule="evenodd" clip-rule="evenodd" d="M9.75 22.5C10.9926 22.5 12 21.4926 12 20.25C12 19.0074 10.9926 18 9.75 18C8.50736 18 7.5 19.0074 7.5 20.25C7.5 21.4926 8.50736 22.5 9.75 22.5ZM9.75 21C10.1642 21 10.5 20.6642 10.5 20.25C10.5 19.8358 10.1642 19.5 9.75 19.5C9.33579 19.5 9 19.8358 9 20.25C9 20.6642 9.33579 21 9.75 21Z" fill="#292929"/>
<path fill-rule="evenodd" clip-rule="evenodd" d="M19.5 20.25C19.5 21.4926 18.4926 22.5 17.25 22.5C16.0074 22.5 15 21.4926 15 20.25C15 19.0074 16.0074 18 17.25 18C18.4926 18 19.5 19.0074 19.5 20.25ZM18 20.25C18 20.6642 17.6642 21 17.25 21C16.8358 21 16.5 20.6642 16.5 20.25C16.5 19.8358 16.8358 19.5 17.25 19.5C17.6642 19.5 18 19.8358 18 20.25Z" fill="#292929"/>
</svg>
