<svg width="24" height="24" viewBox="0 0 24 24" fill="none" xmlns="http://www.w3.org/2000/svg">
<path fill-rule="evenodd" clip-rule="evenodd" d="M16.6325 1.94032L13.8907 4.68202L10.3661 6.44426C9.91747 6.66855 9.61067 7.10219 9.54846 7.59985L8.70698 14.3317C8.64631 14.817 9.0589 15.2296 9.54421 15.1689L16.2761 14.3275C16.7737 14.2653 17.2074 13.9584 17.4317 13.5099L19.1938 9.98555L21.9358 7.24362C22.5215 6.65783 22.5215 5.70808 21.9358 5.1223L18.7538 1.94032C18.168 1.35453 17.2182 1.35453 16.6325 1.94032ZM20.8751 6.18296L17.6931 3.00098L16.8774 3.81672L20.0593 6.9987L20.8751 6.18296ZM18.9987 8.05936L15.8167 4.87738L14.9514 5.74268L18.1334 8.92466L18.9987 8.05936ZM13.5945 6.50709L13.8808 6.79344L13.8907 6.80339L17.0727 9.98537L17.0826 9.9952L17.3688 10.2814L16.09 12.839L11.669 13.3917L13.6553 11.4053C13.9482 11.1125 13.9482 10.6376 13.6553 10.3447C13.3624 10.0518 12.8876 10.0518 12.5947 10.3447L10.4488 12.4906L11.0369 7.7859L13.5945 6.50709Z" fill="#292929"/>
<path d="M6.75001 15C6.03085 15 5.14714 15.0038 4.44385 15.2454C4.07374 15.3725 3.69821 15.5823 3.4181 15.9388C3.13162 16.3034 3.00001 16.7512 3.00001 17.25C3.00001 17.903 3.46007 18.2762 3.85466 18.4583C4.2378 18.6352 4.72038 18.7207 5.19692 18.7695C6.00104 18.852 7.0231 18.8485 8.02904 18.8451C8.22894 18.8444 8.42821 18.8438 8.62501 18.8438C9.85563 18.8438 10.9984 18.8697 11.8259 19.0394C12.2422 19.1248 12.501 19.2324 12.6407 19.3337C12.7473 19.411 12.75 19.4518 12.75 19.5C12.75 19.7079 12.6365 19.974 11.9902 20.2527C11.3501 20.5287 10.4036 20.7082 9.25797 20.8158C7.74481 20.958 6.06022 20.965 4.50937 20.9714C3.69686 20.9748 2.92103 20.978 2.22583 21.0004C1.81183 21.0138 1.48704 21.3602 1.5004 21.7742C1.51375 22.1882 1.86019 22.513 2.27419 22.4996C2.88671 22.4799 3.61596 22.4765 4.40272 22.4729C5.99589 22.4655 7.82497 22.4571 9.39829 22.3092C10.5808 22.1981 11.7203 22.0026 12.5841 21.6301C13.4416 21.2604 14.25 20.6047 14.25 19.5C14.25 18.8919 13.948 18.4289 13.5214 18.1195C13.1279 17.834 12.625 17.6721 12.1273 17.57C11.1266 17.3647 9.83188 17.3438 8.62501 17.3438C8.41265 17.3438 8.20289 17.3444 7.99673 17.345C6.98915 17.3481 6.06731 17.3509 5.34997 17.2774C4.93593 17.2349 4.66373 17.1728 4.50853 17.1075C4.52576 16.9756 4.56579 16.906 4.59754 16.8655C4.64556 16.8044 4.73878 16.7301 4.93117 16.664C5.35287 16.5192 5.96917 16.5 6.75001 16.5C7.16422 16.5 7.50001 16.1642 7.50001 15.75C7.50001 15.3358 7.16422 15 6.75001 15Z" fill="#292929"/>
</svg>
