<svg width="24" height="24" viewBox="0 0 24 24" fill="none" xmlns="http://www.w3.org/2000/svg">
<path d="M17.4697 10.2803C17.7626 10.5732 18.2375 10.5732 18.5304 10.2803L22.2804 6.53033C22.5733 6.23744 22.5733 5.76256 22.2804 5.46967L18.5304 1.71967C18.2375 1.42678 17.7626 1.42678 17.4697 1.71967C17.1768 2.01256 17.1768 2.48744 17.4697 2.78033L19.9394 5.25L14.2501 5.25C13.8358 5.25 13.5001 5.58579 13.5001 6C13.5001 6.41421 13.8358 6.75 14.2501 6.75L19.9394 6.75L17.4697 9.21967C17.1768 9.51256 17.1768 9.98744 17.4697 10.2803Z" fill="#292929"/>
<path d="M5.94678 19.2422C5.94678 18.8164 5.83154 18.4902 5.60107 18.2637C5.37061 18.0371 4.95459 17.8164 4.35303 17.6016C3.75146 17.3867 3.29053 17.1621 2.97021 16.9277C2.65381 16.6895 2.41553 16.4199 2.25537 16.1191C2.09912 15.8145 2.021 15.4668 2.021 15.0762C2.021 14.4004 2.24561 13.8438 2.69482 13.4062C3.14795 12.9688 3.73975 12.75 4.47021 12.75C4.97021 12.75 5.41553 12.8633 5.80615 13.0898C6.19678 13.3125 6.49756 13.623 6.7085 14.0215C6.91943 14.4199 7.0249 14.8574 7.0249 15.334H5.94678C5.94678 14.8066 5.81982 14.3984 5.56592 14.1094C5.31201 13.8203 4.94678 13.6758 4.47021 13.6758C4.03662 13.6758 3.70068 13.7969 3.4624 14.0391C3.22412 14.2812 3.10498 14.6211 3.10498 15.0586C3.10498 15.418 3.23389 15.7188 3.4917 15.9609C3.74951 16.2031 4.14795 16.4199 4.68701 16.6113C5.52686 16.8887 6.12646 17.2305 6.48584 17.6367C6.84912 18.043 7.03076 18.5742 7.03076 19.2305C7.03076 19.9219 6.80615 20.4766 6.35693 20.8945C5.90771 21.3086 5.29639 21.5156 4.52295 21.5156C4.02686 21.5156 3.56787 21.4082 3.146 21.1934C2.72803 20.9746 2.39795 20.6699 2.15576 20.2793C1.91748 19.8848 1.79834 19.4336 1.79834 18.9258H2.87646C2.87646 19.4531 3.02295 19.8633 3.31592 20.1562C3.61279 20.4492 4.01514 20.5957 4.52295 20.5957C4.99561 20.5957 5.35107 20.4746 5.58936 20.2324C5.82764 19.9902 5.94678 19.6602 5.94678 19.2422Z" fill="#292929"/>
<path d="M9.76756 12.8672L11.9941 19.8281L14.2207 12.8672H15.6035V21.3984H14.5312V18.0762L14.6308 14.748L12.3984 21.3984H11.5781L9.3574 14.7715L9.45701 18.0762V21.3984H8.38475V12.8672H9.76756Z" fill="#292929"/>
<path d="M20.7778 18.2637C21.0083 18.4902 21.1235 18.8164 21.1235 19.2422C21.1235 19.6602 21.0044 19.9902 20.7661 20.2324C20.5278 20.4746 20.1723 20.5957 19.6997 20.5957C19.1919 20.5957 18.7895 20.4492 18.4926 20.1562C18.1997 19.8633 18.0532 19.4531 18.0532 18.9258H16.9751C16.9751 19.4336 17.0942 19.8848 17.3325 20.2793C17.5747 20.6699 17.9047 20.9746 18.3227 21.1934C18.7446 21.4082 19.2036 21.5156 19.6997 21.5156C20.4731 21.5156 21.0844 21.3086 21.5337 20.8945C21.9829 20.4766 22.2075 19.9219 22.2075 19.2305C22.2075 18.5742 22.0258 18.043 21.6626 17.6367C21.3032 17.2305 20.7036 16.8887 19.8637 16.6113C19.3247 16.4199 18.9262 16.2031 18.6684 15.9609C18.4106 15.7188 18.2817 15.418 18.2817 15.0586C18.2817 14.6211 18.4008 14.2812 18.6391 14.0391C18.8774 13.7969 19.2133 13.6758 19.6469 13.6758C20.1235 13.6758 20.4887 13.8203 20.7426 14.1094C20.9965 14.3984 21.1235 14.8066 21.1235 15.334H22.2016C22.2016 14.8574 22.0962 14.4199 21.8852 14.0215C21.6743 13.623 21.3735 13.3125 20.9829 13.0898C20.5922 12.8633 20.1469 12.75 19.6469 12.75C18.9165 12.75 18.3247 12.9688 17.8715 13.4062C17.4223 13.8438 17.1977 14.4004 17.1977 15.0762C17.1977 15.4668 17.2758 15.8145 17.4321 16.1191C17.5922 16.4199 17.8305 16.6895 18.1469 16.9277C18.4672 17.1621 18.9282 17.3867 19.5297 17.6016C20.1313 17.8164 20.5473 18.0371 20.7778 18.2637Z" fill="#292929"/>
</svg>
