<svg width="24" height="24" viewBox="0 0 24 24" fill="none" xmlns="http://www.w3.org/2000/svg">
<path fill-rule="evenodd" clip-rule="evenodd" d="M13.7418 3.20331C14.0471 3.27591 14.25 3.55683 14.25 3.87058C14.25 4.37996 13.7305 4.73064 13.2319 4.62658C12.8343 4.54361 12.4222 4.5 12 4.5C8.68629 4.5 6 7.18629 6 10.5V12.7974C6 13.6878 5.60453 14.5321 4.92055 15.1021L4.0373 15.8381C3.85526 15.9898 3.75 16.2146 3.75 16.4515C3.75 16.8925 4.10748 17.25 4.54846 17.25H19.3635C19.8531 17.25 20.25 16.8531 20.25 16.3635C20.25 16.1284 20.1566 15.9029 19.9904 15.7367L18.8787 14.625C18.3161 14.0624 18 13.2993 18 12.5037V10.5C18 10.3067 17.9909 10.1156 17.973 9.92703C17.928 9.45196 18.2758 9 18.753 9C19.1004 9 19.4035 9.24432 19.4452 9.58913C19.4814 9.8877 19.5 10.1917 19.5 10.5V11.8824C19.5 12.678 19.8161 13.4411 20.3787 14.0037L21.051 14.676C21.4986 15.1236 21.75 15.7306 21.75 16.3635C21.75 17.6815 20.6815 18.75 19.3635 18.75H15.75C15.75 20.8211 14.0711 22.5 12 22.5C9.92893 22.5 8.25 20.8211 8.25 18.75H4.54846C3.27906 18.75 2.25 17.7209 2.25 16.4515C2.25 15.7694 2.55299 15.1225 3.07702 14.6858L3.42055 14.3995C4.10453 13.8296 4.5 12.9852 4.5 12.0949V10.5C4.5 6.61068 7.46047 3.41282 11.2509 3.03694C11.2503 3.0247 11.25 3.01239 11.25 3V2.25C11.25 1.83579 11.5858 1.5 12 1.5C12.4142 1.5 12.75 1.83579 12.75 2.25V3C12.75 3.01239 12.7497 3.0247 12.7491 3.03694C13.0871 3.07046 13.4185 3.12642 13.7418 3.20331ZM9.75 18.75C9.75 19.9926 10.7574 21 12 21C13.2426 21 14.25 19.9926 14.25 18.75H9.75Z" fill="#292929"/>
<path d="M15.75 2.25C15.75 1.83579 16.0858 1.5 16.5 1.5H20.25C20.541 1.5 20.8058 1.66834 20.9292 1.93188C21.0526 2.19542 21.0125 2.50658 20.8262 2.73014L18.1013 6H20.25C20.6642 6 21 6.33579 21 6.75C21 7.16421 20.6642 7.5 20.25 7.5H16.5C16.209 7.5 15.9443 7.33165 15.8208 7.06812C15.6974 6.80458 15.7375 6.49342 15.9238 6.26986L18.6487 3H16.5C16.0858 3 15.75 2.66421 15.75 2.25Z" fill="#292929"/>
<path d="M9.75001 9C9.75001 8.58579 10.0858 8.25 10.5 8.25H14.25C14.541 8.25 14.8058 8.41834 14.9292 8.68188C15.0526 8.94542 15.0125 9.25658 14.8262 9.48014L12.1013 12.75H14.25C14.6642 12.75 15 13.0858 15 13.5C15 13.9142 14.6642 14.25 14.25 14.25H10.5C10.209 14.25 9.94425 14.0817 9.82082 13.8181C9.69738 13.5546 9.73754 13.2434 9.92384 13.0199L12.6487 9.75H10.5C10.0858 9.75 9.75001 9.41421 9.75001 9Z" fill="#292929"/>
</svg>
