<svg width="24" height="24" viewBox="0 0 24 24" fill="none" xmlns="http://www.w3.org/2000/svg">
<path fill-rule="evenodd" clip-rule="evenodd" d="M8.3936 2.25C8.30605 2.25 8.22645 2.30079 8.18955 2.38018L2.84984 13.871C2.78053 14.0202 2.88942 14.1908 3.05388 14.1908H4.28579C4.37383 14.1908 4.45379 14.1395 4.49041 14.0594L5.77542 11.25H12.2844L13.125 13.125C13.1609 13.2069 13.2418 13.2599 13.3312 13.2599H14.6003C14.7651 13.2599 14.874 13.0887 14.8041 12.9395L9.81072 2.37961C9.7737 2.30052 9.69426 2.25 9.60694 2.25H8.3936ZM11.6287 9.75L9.10372 3.97331L6.46151 9.75H11.6287Z" fill="#292929"/>
<path fill-rule="evenodd" clip-rule="evenodd" d="M20.7804 11.4697C21.0733 11.7626 21.0733 12.2374 20.7804 12.5303L11.9357 21.375C11.3499 21.9608 10.4002 21.9608 9.81439 21.375L6.21972 17.7803C5.92682 17.4874 5.92682 17.0126 6.21972 16.7197C6.51261 16.4268 6.98748 16.4268 7.28038 16.7197L10.875 20.3143L19.7197 11.4697C20.0126 11.1768 20.4875 11.1768 20.7804 11.4697Z" fill="#292929"/>
</svg>
