<svg width="24" height="24" viewBox="0 0 24 24" fill="none" xmlns="http://www.w3.org/2000/svg">
<path d="M6.75 8.25C6.75 5.35051 9.10051 3 12 3C14.8995 3 17.25 5.35051 17.25 8.25V8.5731C17.25 10.1015 16.6667 11.5723 15.6192 12.6853L15.4497 12.8653C14.3576 14.0257 13.6071 15.4651 13.2809 17.0249L12.9725 18.4992C12.6678 19.9563 11.3831 21 9.89455 21C8.15786 21 6.75 19.5921 6.75 17.8555V16.5C6.75 16.0858 6.41421 15.75 6 15.75C5.58579 15.75 5.25 16.0858 5.25 16.5V17.8555C5.25 20.4206 7.32944 22.5 9.89455 22.5C12.0932 22.5 13.9906 20.9584 14.4407 18.8063L14.7491 17.3319C15.0188 16.0425 15.6392 14.8526 16.542 13.8934L16.7115 13.7133C18.0209 12.3221 18.75 10.4836 18.75 8.5731V8.25C18.75 4.52208 15.7279 1.5 12 1.5C8.27208 1.5 5.25 4.52208 5.25 8.25C5.25 8.66421 5.58579 9 6 9C6.41421 9 6.75 8.66421 6.75 8.25Z" fill="#292929"/>
<path d="M12 4.5C9.92893 4.5 8.25 6.17893 8.25 8.25V10.875C8.25 11.4963 8.75368 12 9.375 12H9.75C10.1642 12 10.5 12.3358 10.5 12.75C10.5 13.1642 10.1642 13.5 9.75 13.5H9.375C8.75368 13.5 8.25 14.0037 8.25 14.625V16.5C8.25 16.9142 8.58579 17.25 9 17.25C9.41421 17.25 9.75 16.9142 9.75 16.5V15C10.9926 15 12 13.9926 12 12.75C12 11.5074 10.9926 10.5 9.75 10.5V8.25C9.75 7.00736 10.7574 6 12 6C13.2426 6 14.25 7.00736 14.25 8.25C14.25 8.66421 14.5858 9 15 9C15.4142 9 15.75 8.66421 15.75 8.25C15.75 6.17893 14.0711 4.5 12 4.5Z" fill="#292929"/>
</svg>
