<svg width="24" height="24" viewBox="0 0 24 24" fill="none" xmlns="http://www.w3.org/2000/svg">
<path d="M17.6951 4.81306L18.1644 3.56152C18.2374 3.36686 18.5128 3.36686 18.5858 3.56152L19.0551 4.81306C19.0779 4.8739 19.1259 4.92191 19.1868 4.94473L20.4383 5.41405C20.633 5.48705 20.633 5.7624 20.4383 5.8354L19.1868 6.30473C19.1259 6.32754 19.0779 6.37555 19.0551 6.4364L18.5858 7.68793C18.5128 7.88259 18.2374 7.88259 18.1644 7.68793L17.6951 6.4364C17.6723 6.37555 17.6243 6.32754 17.5634 6.30473L16.3119 5.8354C16.1172 5.7624 16.1172 5.48705 16.3119 5.41405L17.5634 4.94473C17.6243 4.92191 17.6723 4.8739 17.6951 4.81306Z" fill="#292929"/>
<path fill-rule="evenodd" clip-rule="evenodd" d="M11.2022 4.12264C10.9589 3.47377 10.0411 3.47377 9.79774 4.12264L7.9606 9.02169C7.88454 9.22451 7.72451 9.38454 7.52169 9.4606L2.62264 11.2977C1.97377 11.5411 1.97377 12.4589 2.62264 12.7022L7.52169 14.5394C7.72451 14.6154 7.88454 14.7755 7.9606 14.9783L9.79774 19.8773C10.0411 20.5262 10.9589 20.5262 11.2022 19.8773L13.0394 14.9783C13.1154 14.7755 13.2755 14.6154 13.4783 14.5394L18.3773 12.7022C19.0262 12.4589 19.0262 11.5411 18.3773 11.2977L13.4783 9.4606C13.2755 9.38454 13.1154 9.22451 13.0394 9.02169L11.2022 4.12264ZM12.9516 10.8651L15.978 12L12.9516 13.1349C12.3431 13.363 11.8631 13.8431 11.6349 14.4516L10.5 17.478L9.36509 14.4516C9.13692 13.8431 8.65683 13.3631 8.04838 13.1349L5.02199 12L8.04838 10.8651C8.65683 10.6369 9.13692 10.1568 9.36509 9.54838L10.5 6.52199L11.6349 9.54838C11.8631 10.1568 12.3431 10.6369 12.9516 10.8651Z" fill="#292929"/>
<path d="M18.1644 16.3115L17.6951 17.5631C17.6723 17.6239 17.6243 17.6719 17.5634 17.6947L16.3119 18.1641C16.1172 18.2371 16.1172 18.5124 16.3119 18.5854L17.5634 19.0547C17.6243 19.0775 17.6723 19.1256 17.6951 19.1864L18.1644 20.4379C18.2374 20.6326 18.5128 20.6326 18.5858 20.4379L19.0551 19.1864C19.0779 19.1256 19.1259 19.0775 19.1868 19.0547L20.4383 18.5854C20.633 18.5124 20.633 18.2371 20.4383 18.1641L19.1868 17.6947C19.1259 17.6719 19.0779 17.6239 19.0551 17.5631L18.5858 16.3115C18.5128 16.1169 18.2374 16.1169 18.1644 16.3115Z" fill="#292929"/>
</svg>
