<svg width="24" height="24" viewBox="0 0 24 24" fill="none" xmlns="http://www.w3.org/2000/svg">
<path d="M12.75 9.375C12.75 8.96079 12.4142 8.625 12 8.625C11.5858 8.625 11.25 8.96079 11.25 9.375V13.1893C11.25 13.5872 11.408 13.9687 11.6893 14.25L14.4697 17.0303C14.7626 17.3232 15.2374 17.3232 15.5303 17.0303C15.8232 16.7374 15.8232 16.2626 15.5303 15.9697L12.75 13.1893V9.375Z" fill="#292929"/>
<path fill-rule="evenodd" clip-rule="evenodd" d="M8.25 2.25C8.25 1.83579 8.58579 1.5 9 1.5H15C15.4142 1.5 15.75 1.83579 15.75 2.25C15.75 2.66421 15.4142 3 15 3H12.75V4.5C12.75 4.5103 12.7498 4.52055 12.7494 4.53075C14.3368 4.66161 15.8075 5.20445 17.0542 6.05213C16.9239 5.7742 16.9735 5.43278 17.2031 5.20318C17.496 4.91029 17.9708 4.91029 18.2637 5.20318L20.3088 7.24822C20.6017 7.54111 20.6017 8.01598 20.3088 8.30888C20.0776 8.54003 19.7331 8.58876 19.4542 8.45505C20.4299 9.894 21 11.6304 21 13.5C21 18.4706 16.9706 22.5 12 22.5C7.02944 22.5 3 18.4706 3 13.5C3 8.78179 6.63068 4.91157 11.2506 4.53075C11.2502 4.52055 11.25 4.5103 11.25 4.5V3L9 3C8.58579 3 8.25 2.66421 8.25 2.25ZM12 21C16.1421 21 19.5 17.6421 19.5 13.5C19.5 9.35786 16.1421 6 12 6C7.85786 6 4.5 9.35786 4.5 13.5C4.5 17.6421 7.85786 21 12 21Z" fill="#292929"/>
</svg>
