<svg width="24" height="24" viewBox="0 0 24 24" fill="none" xmlns="http://www.w3.org/2000/svg">
<path d="M7.5 7.06197C7.5 4.40439 9.65439 2.25 12.312 2.25H12.75C15.2353 2.25 17.25 4.26472 17.25 6.75V6.95455C17.25 7.36876 16.9142 7.70455 16.5 7.70455C16.0858 7.70455 15.75 7.36876 15.75 6.95455V6.75C15.75 5.09315 14.4069 3.75 12.75 3.75H12.312C10.4828 3.75 9 5.23282 9 7.06197C9 8.60171 9.88617 10.004 11.2769 10.6648L12.5083 11.25H20.25C20.6642 11.25 21 11.5858 21 12C21 12.4142 20.6642 12.75 20.25 12.75H4.5C4.08579 12.75 3.75 12.4142 3.75 12C3.75 11.5858 4.08579 11.25 4.5 11.25H9.44053C8.22751 10.2222 7.5 8.6985 7.5 7.06197Z" fill="#292929"/>
<path d="M14.682 14.25C15.3562 14.9719 15.75 15.9342 15.75 16.9577C15.75 18.776 14.276 20.25 12.4577 20.25H12C10.3431 20.25 9 18.9069 9 17.25V17.0455C9 16.6312 8.66421 16.2955 8.25 16.2955C7.83579 16.2955 7.5 16.6312 7.5 17.0455V17.25C7.5 19.7353 9.51472 21.75 12 21.75H12.4577C15.1044 21.75 17.25 19.6044 17.25 16.9577C17.25 15.9886 16.9939 15.0594 16.5323 14.25H14.682Z" fill="#292929"/>
</svg>
