<svg width="24" height="24" viewBox="0 0 24 24" fill="none" xmlns="http://www.w3.org/2000/svg">
<path fill-rule="evenodd" clip-rule="evenodd" d="M8.25 19.5C7.42157 19.5 6.75 18.8284 6.75 18V9C6.75 8.17157 7.42157 7.5 8.25 7.5H9.75C10.5784 7.5 11.25 8.17157 11.25 9V12H12.75C13.5784 12 14.25 12.6716 14.25 13.5V15H15.75C16.5784 15 17.25 15.6716 17.25 16.5V18C17.25 18.8284 16.5784 19.5 15.75 19.5H8.25ZM8.25 9V18H9.75V9H8.25ZM11.25 13.5V18H12.75V13.5H11.25ZM14.25 18V16.5H15.75V18H14.25Z" fill="#292929"/>
<path fill-rule="evenodd" clip-rule="evenodd" d="M19.5 1.5C20.3284 1.5 21 2.17157 21 3V21C21 21.8284 20.3284 22.5 19.5 22.5H4.5C3.67157 22.5 3 21.8284 3 21V3C3 2.17157 3.67157 1.5 4.5 1.5H19.5ZM16.5 3H19.5V21H4.5L4.5 3L7.5 3V4.5C7.5 5.32843 8.17157 6 9 6H15C15.8284 6 16.5 5.32843 16.5 4.5V3ZM15 3H9V4.5H15V3Z" fill="#292929"/>
</svg>
