<svg width="24" height="24" viewBox="0 0 24 24" fill="none" xmlns="http://www.w3.org/2000/svg">
<path fill-rule="evenodd" clip-rule="evenodd" d="M5.8501 11.54C5.43588 11.54 5.1001 11.2042 5.1001 10.79V10.69C5.1001 8.34278 7.00289 6.43999 9.3501 6.43999L16.2994 6.43999L14.3198 4.46032C14.0269 4.16743 14.0269 3.69256 14.3198 3.39966C14.6127 3.10677 15.0875 3.10677 15.3804 3.39966L18.6304 6.64966C18.9233 6.94256 18.9233 7.41743 18.6304 7.71032L15.3804 10.9603C15.0875 11.2532 14.6127 11.2532 14.3198 10.9603C14.0269 10.6674 14.0269 10.1926 14.3198 9.89966L16.2794 7.93999L9.3501 7.93999C7.83132 7.93999 6.6001 9.17121 6.6001 10.69V10.79C6.6001 11.2042 6.26431 11.54 5.8501 11.54ZM18.3501 12.45C18.7643 12.45 19.1001 12.7858 19.1001 13.2V13.3C19.1001 15.6472 17.1973 17.55 14.8501 17.55H7.90076L9.88043 19.5297C10.1733 19.8226 10.1733 20.2974 9.88043 20.5903C9.58753 20.8832 9.11266 20.8832 8.81977 20.5903L5.56977 17.3403C5.27687 17.0474 5.27687 16.5726 5.56977 16.2797L8.81977 13.0297C9.11266 12.7368 9.58753 12.7368 9.88043 13.0297C10.1733 13.3226 10.1733 13.7974 9.88043 14.0903L7.92076 16.05H14.8501C16.3689 16.05 17.6001 14.8188 17.6001 13.3V13.2C17.6001 12.7858 17.9359 12.45 18.3501 12.45Z" fill="#292929"/>
</svg>
