<svg width="24" height="24" viewBox="0 0 24 24" fill="none" xmlns="http://www.w3.org/2000/svg">
<path fill-rule="evenodd" clip-rule="evenodd" d="M9.75 4.5C9.75 4.91421 10.0858 5.25 10.5 5.25H11.25V7.53081C6.83756 7.89482 3.32766 11.4418 3.02167 15.8705C2.13648 16.1732 1.5 17.0123 1.5 18C1.5 19.2426 2.50736 20.25 3.75 20.25H20.25C21.4926 20.25 22.5 19.2426 22.5 18C22.5 17.0123 21.8635 16.1732 20.9783 15.8705C20.6723 11.4418 17.1624 7.89482 12.75 7.53081V5.25L13.5 5.25C13.9142 5.25 14.25 4.91421 14.25 4.5C14.25 4.08579 13.9142 3.75 13.5 3.75H10.5C10.0858 3.75 9.75 4.08579 9.75 4.5ZM4.53703 15.75C4.91332 11.96 8.11099 9 12 9C15.889 9 19.0867 11.96 19.463 15.75H4.53703ZM3 18C3 17.5858 3.33579 17.25 3.75 17.25H20.25C20.6642 17.25 21 17.5858 21 18C21 18.4142 20.6642 18.75 20.25 18.75H3.75C3.33579 18.75 3 18.4142 3 18Z" fill="#292929"/>
</svg>
