<svg width="24" height="24" viewBox="0 0 24 24" fill="none" xmlns="http://www.w3.org/2000/svg">
<path d="M8.25 9C8.25 8.58579 8.58579 8.25 9 8.25H12C12.4142 8.25 12.75 8.58579 12.75 9C12.75 9.41421 12.4142 9.75 12 9.75H9C8.58579 9.75 8.25 9.41421 8.25 9Z" fill="#292929"/>
<path d="M15 8.25C14.5858 8.25 14.25 8.58579 14.25 9C14.25 9.41421 14.5858 9.75 15 9.75H18C18.4142 9.75 18.75 9.41421 18.75 9C18.75 8.58579 18.4142 8.25 18 8.25H15Z" fill="#292929"/>
<path d="M8.25 12C8.25 11.5858 8.58579 11.25 9 11.25H12C12.4142 11.25 12.75 11.5858 12.75 12C12.75 12.4142 12.4142 12.75 12 12.75H9C8.58579 12.75 8.25 12.4142 8.25 12Z" fill="#292929"/>
<path d="M15 11.25C14.5858 11.25 14.25 11.5858 14.25 12C14.25 12.4142 14.5858 12.75 15 12.75H18C18.4142 12.75 18.75 12.4142 18.75 12C18.75 11.5858 18.4142 11.25 18 11.25H15Z" fill="#292929"/>
<path d="M8.25 15C8.25 14.5858 8.58579 14.25 9 14.25H12C12.4142 14.25 12.75 14.5858 12.75 15C12.75 15.4142 12.4142 15.75 12 15.75H9C8.58579 15.75 8.25 15.4142 8.25 15Z" fill="#292929"/>
<path d="M15 14.25C14.5858 14.25 14.25 14.5858 14.25 15C14.25 15.4142 14.5858 15.75 15 15.75H18C18.4142 15.75 18.75 15.4142 18.75 15C18.75 14.5858 18.4142 14.25 18 14.25H15Z" fill="#292929"/>
<path d="M8.25 18C8.25 17.5858 8.58579 17.25 9 17.25H12C12.4142 17.25 12.75 17.5858 12.75 18C12.75 18.4142 12.4142 18.75 12 18.75H9C8.58579 18.75 8.25 18.4142 8.25 18Z" fill="#292929"/>
<path d="M15 17.25C14.5858 17.25 14.25 17.5858 14.25 18C14.25 18.4142 14.5858 18.75 15 18.75H18C18.4142 18.75 18.75 18.4142 18.75 18C18.75 17.5858 18.4142 17.25 18 17.25H15Z" fill="#292929"/>
<path fill-rule="evenodd" clip-rule="evenodd" d="M2.25 5.25C2.25 3.59315 3.59315 2.25 5.25 2.25H18.75C20.4069 2.25 21.75 3.59315 21.75 5.25V18.75C21.75 20.4069 20.4069 21.75 18.75 21.75H5.25C3.59315 21.75 2.25 20.4069 2.25 18.75V5.25ZM6.75 3.75H18.75C19.5784 3.75 20.25 4.42157 20.25 5.25L6.75 5.25V3.75ZM5.25 3.75V5.25H3.75C3.75 4.42157 4.42157 3.75 5.25 3.75ZM5.25 20.25L5.25 6.75H3.75V18.75C3.75 19.5784 4.42157 20.25 5.25 20.25ZM6.75 20.25V6.75H20.25V18.75C20.25 19.5784 19.5784 20.25 18.75 20.25H6.75Z" fill="#292929"/>
</svg>
