<svg width="24" height="24" viewBox="0 0 24 24" fill="none" xmlns="http://www.w3.org/2000/svg">
<path fill-rule="evenodd" clip-rule="evenodd" d="M19.4999 7.125C19.4999 8.57475 18.3247 9.75 16.8749 9.75C15.4252 9.75 14.2499 8.57475 14.2499 7.125C14.2499 5.67525 15.4252 4.5 16.8749 4.5C18.3247 4.5 19.4999 5.67525 19.4999 7.125ZM17.9999 7.125C17.9999 7.74632 17.4963 8.25 16.8749 8.25C16.2536 8.25 15.7499 7.74632 15.7499 7.125C15.7499 6.50368 16.2536 6 16.8749 6C17.4963 6 17.9999 6.50368 17.9999 7.125Z" fill="#292929"/>
<path fill-rule="evenodd" clip-rule="evenodd" d="M14.0931 1.5C13.5215 1.5 12.9713 1.71758 12.5542 2.10854L2.11714 11.8933C1.18985 12.7626 1.16624 14.227 2.06502 15.1258L8.87416 21.9349C9.77295 22.8337 11.2373 22.8101 12.1066 21.8828L21.8914 11.4457C22.2823 11.0287 22.4999 10.4785 22.4999 9.90683V3.75C22.4999 2.50736 21.4926 1.5 20.2499 1.5H14.0931ZM13.5801 3.20285C13.7191 3.07253 13.9025 3 14.0931 3H20.2499C20.6641 3 20.9999 3.33579 20.9999 3.75V9.90683C20.9999 10.0974 20.9274 10.2808 20.7971 10.4198L11.0123 20.8569C10.7225 21.166 10.2344 21.1738 9.93482 20.8742L3.12568 14.0651C2.82608 13.7655 2.83395 13.2774 3.14305 12.9876L13.5801 3.20285Z" fill="#292929"/>
</svg>
