<svg width="24" height="24" viewBox="0 0 24 24" fill="none" xmlns="http://www.w3.org/2000/svg">
<path fill-rule="evenodd" clip-rule="evenodd" d="M12.75 2.25C12.75 1.83579 12.4142 1.5 12 1.5C11.5858 1.5 11.25 1.83579 11.25 2.25V5.76112C11.139 5.8253 11.0344 5.90489 10.9394 5.99989L8.25007 8.68923C8.15502 8.78427 8.0754 8.8889 8.0112 9H6.75C5.92157 9 5.25 9.67157 5.25 10.5V16.5H3C2.17157 16.5 1.5 17.1716 1.5 18V21C1.5 21.8284 2.17157 22.5 3 22.5H9C9.82843 22.5 10.5 21.8284 10.5 21V18C10.5 17.1716 9.82843 16.5 9 16.5H6.75V10.5H8.01133C8.07551 10.611 8.15509 10.7156 8.25007 10.8105L10.9394 13.4999C11.5252 14.0857 12.4749 14.0857 13.0607 13.4999L15.7501 10.8105C15.8451 10.7156 15.9246 10.611 15.9888 10.5H17.25V16.5H15C14.1716 16.5 13.5 17.1716 13.5 18V21C13.5 21.8284 14.1716 22.5 15 22.5H21C21.8284 22.5 22.5 21.8284 22.5 21V18C22.5 17.1716 21.8284 16.5 21 16.5H18.75V10.5C18.75 9.67157 18.0784 9 17.25 9H15.9889C15.9247 8.8889 15.8451 8.78427 15.7501 8.68923L13.0607 5.99989C12.9657 5.90485 12.8611 5.82524 12.75 5.76104V2.25ZM11.9381 7.12248C11.9585 7.12415 11.9792 7.125 12 7.125C12.0209 7.125 12.0416 7.12415 12.062 7.12247L14.6894 9.74989L12.0001 12.4392L9.31073 9.74989L11.9381 7.12248ZM3 18H9V21H3L3 18ZM21 18V21H15V18H21Z" fill="#292929"/>
</svg>
