<svg width="24" height="24" viewBox="0 0 24 24" fill="none" xmlns="http://www.w3.org/2000/svg">
<path d="M1.5 3C1.5 2.58579 1.83579 2.25 2.25 2.25H8.25C8.66421 2.25 9 2.58579 9 3V4.5C9 4.91421 8.66421 5.25 8.25 5.25C7.83579 5.25 7.5 4.91421 7.5 4.5V3.75H6L6 8.25H6.75C7.16421 8.25 7.5 8.58579 7.5 9C7.5 9.41421 7.16421 9.75 6.75 9.75H3.75C3.33579 9.75 3 9.41421 3 9C3 8.58579 3.33579 8.25 3.75 8.25H4.5L4.5 3.75H3V4.5C3 4.91421 2.66421 5.25 2.25 5.25C1.83579 5.25 1.5 4.91421 1.5 4.5V3Z" fill="#292929"/>
<path d="M11.25 5.25C10.8358 5.25 10.5 5.58579 10.5 6C10.5 6.41421 10.8358 6.75 11.25 6.75H21.75C22.1642 6.75 22.5 6.41421 22.5 6C22.5 5.58579 22.1642 5.25 21.75 5.25H11.25Z" fill="#292929"/>
<path d="M10.5 9C10.5 8.58579 10.8358 8.25 11.25 8.25H21.75C22.1642 8.25 22.5 8.58579 22.5 9C22.5 9.41421 22.1642 9.75 21.75 9.75H11.25C10.8358 9.75 10.5 9.41421 10.5 9Z" fill="#292929"/>
<path d="M2.25 11.25C1.83579 11.25 1.5 11.5858 1.5 12C1.5 12.4142 1.83579 12.75 2.25 12.75H21.75C22.1642 12.75 22.5 12.4142 22.5 12C22.5 11.5858 22.1642 11.25 21.75 11.25H2.25Z" fill="#292929"/>
<path d="M1.5 15C1.5 14.5858 1.83579 14.25 2.25 14.25H21.75C22.1642 14.25 22.5 14.5858 22.5 15C22.5 15.4142 22.1642 15.75 21.75 15.75H2.25C1.83579 15.75 1.5 15.4142 1.5 15Z" fill="#292929"/>
<path d="M2.25 17.25C1.83579 17.25 1.5 17.5858 1.5 18C1.5 18.4142 1.83579 18.75 2.25 18.75H21.75C22.1642 18.75 22.5 18.4142 22.5 18C22.5 17.5858 22.1642 17.25 21.75 17.25H2.25Z" fill="#292929"/>
<path d="M1.5 21C1.5 20.5858 1.83579 20.25 2.25 20.25H17.25C17.6642 20.25 18 20.5858 18 21C18 21.4142 17.6642 21.75 17.25 21.75H2.25C1.83579 21.75 1.5 21.4142 1.5 21Z" fill="#292929"/>
<path d="M11.25 2.25C10.8358 2.25 10.5 2.58579 10.5 3C10.5 3.41421 10.8358 3.75 11.25 3.75H18.75C19.1642 3.75 19.5 3.41421 19.5 3C19.5 2.58579 19.1642 2.25 18.75 2.25H11.25Z" fill="#292929"/>
</svg>
