<svg width="24" height="24" viewBox="0 0 24 24" fill="none" xmlns="http://www.w3.org/2000/svg">
<path fill-rule="evenodd" clip-rule="evenodd" d="M20.25 4.5C21.4926 4.5 22.5 5.50736 22.5 6.75V7.98193C22.5 8.54408 22.0441 9 21.4819 9L21.3413 9.00366C19.8979 9.07696 18.7501 10.2703 18.75 11.7319V12.2681C18.7501 13.7768 19.9732 14.9999 21.4819 15C22.009 15 22.4429 15.4007 22.4949 15.9141L22.5 16.0181V17.25L22.4971 17.3657C22.4368 18.5546 21.4538 19.5 20.25 19.5H3.75C2.50736 19.5 1.5 18.4926 1.5 17.25V16.0181C1.5 15.4559 1.95592 15 2.51807 15L2.65869 14.9963C4.10209 14.923 5.24989 13.7297 5.25 12.2681V11.7319C5.24989 10.2232 4.02682 9.00011 2.51807 9C1.95592 9 1.5 8.54408 1.5 7.98193V6.75C1.5 5.50736 2.50736 4.5 3.75 4.5H20.25ZM3.75 6C3.33579 6 3 6.33579 3 6.75V7.52783C5.11021 7.76718 6.7499 9.55774 6.75 11.7319V12.2681C6.7499 14.4422 5.11017 16.2321 3 16.4714V17.25C3 17.6642 3.33579 18 3.75 18H9.46875L10.5513 13.9622L9.41675 11.595C9.18474 11.1107 9.13354 10.5587 9.27246 10.04L9.51709 9.12744C9.6243 8.72734 10.0354 8.48996 10.4355 8.59717C10.8356 8.70438 11.073 9.11553 10.9658 9.51562L10.7212 10.4282C10.6749 10.6011 10.6922 10.7854 10.7695 10.9468L10.8896 11.1965C11.2871 12.0258 12.3302 12.3054 13.0891 11.7861L13.3184 11.6294C13.4661 11.5283 13.573 11.3775 13.6194 11.2046L13.864 10.292C13.9712 9.89189 14.3824 9.65451 14.7825 9.76172C15.1824 9.86902 15.4199 10.2801 15.3127 10.6802L14.9963 11.8608C14.9037 12.2066 14.6904 12.5082 14.395 12.7104L12 14.3503L11.0215 18H20.25C20.6642 18 21 17.6642 21 17.25V16.4722C18.8898 16.2328 17.2501 14.4423 17.25 12.2681V11.7319C17.2501 9.55777 18.8898 7.76795 21 7.52856V6.75C21 6.33579 20.6642 6 20.25 6H3.75Z" fill="#26252A"/>
</svg>
