<svg width="24" height="24" viewBox="0 0 24 24" fill="none" xmlns="http://www.w3.org/2000/svg">
<path fill-rule="evenodd" clip-rule="evenodd" d="M11.0527 3.75C10.7264 3.75 10.4404 3.96839 10.3546 4.28319L9.47727 7.5H6C5.58579 7.5 5.25 7.83579 5.25 8.25C5.25 8.66421 5.58579 9 6 9H9.06818L7.43182 15H4.5C4.08579 15 3.75 15.3358 3.75 15.75C3.75 16.1642 4.08579 16.5 4.5 16.5H7.02273L6.24926 19.336C6.12373 19.7963 6.47023 20.25 6.94734 20.25C7.27363 20.25 7.55956 20.0316 7.64542 19.7168L8.52273 16.5H13.0227L12.2493 19.336C12.1237 19.7963 12.4702 20.25 12.9473 20.25C13.2736 20.25 13.5596 20.0316 13.6454 19.7168L14.5227 16.5H18C18.4142 16.5 18.75 16.1642 18.75 15.75C18.75 15.3358 18.4142 15 18 15H14.9318L16.5682 9H19.5C19.9142 9 20.25 8.66421 20.25 8.25C20.25 7.83579 19.9142 7.5 19.5 7.5H16.9773L17.7507 4.66396C17.8763 4.20366 17.5298 3.75 17.0527 3.75C16.7264 3.75 16.4404 3.96839 16.3546 4.28319L15.4773 7.5L10.9773 7.5L11.7507 4.66396C11.8763 4.20366 11.5298 3.75 11.0527 3.75ZM10.5682 9L8.93182 15L13.4318 15L15.0682 9H10.5682Z" fill="#292929"/>
</svg>
