<svg width="24" height="24" viewBox="0 0 24 24" fill="none" xmlns="http://www.w3.org/2000/svg">
<path d="M11.775 3H7.5V1.725C7.5 1.60074 7.39926 1.5 7.275 1.5H6.225C6.10074 1.5 6 1.60074 6 1.725V3H1.725C1.60074 3 1.5 3.10074 1.5 3.225V4.275C1.5 4.39926 1.60074 4.5 1.725 4.5H8.80932C8.49876 5.6104 7.88587 7.11811 6.82561 8.51751C6.15915 7.64296 5.65307 6.73923 5.27637 5.95153C5.22276 5.83943 5.08924 5.79033 4.97645 5.84248L4.02341 6.28316C3.91062 6.33532 3.86126 6.46894 3.91476 6.5811C4.34693 7.48717 4.96408 8.59261 5.8183 9.66456C4.81383 10.6492 3.5284 11.4895 1.8987 11.9647C1.7794 11.9995 1.70778 12.1225 1.7398 12.2426L2.01034 13.2571C2.04236 13.3772 2.16584 13.4488 2.28526 13.4144C4.17902 12.8693 5.66533 11.9089 6.82258 10.7857C7.95457 11.9057 9.39557 12.885 11.2148 13.4141C11.3341 13.4488 11.4576 13.3772 11.4897 13.2571L11.7602 12.2426C11.7922 12.1225 11.7206 11.9995 11.6014 11.9643C10.0548 11.5074 8.8158 10.6584 7.83014 9.67179C9.28636 7.84144 10.0366 5.81975 10.3583 4.5H11.775C11.8993 4.5 12 4.39926 12 4.275V3.225C12 3.10074 11.8993 3 11.775 3Z" fill="#292929"/>
<path fill-rule="evenodd" clip-rule="evenodd" d="M17.7448 12C17.8372 12 17.9201 12.0564 17.9541 12.1423L21.6284 21.4423C21.6868 21.59 21.578 21.75 21.4192 21.75H20.4012C20.3098 21.75 20.2274 21.6947 20.1929 21.61L19.3318 19.5H14.4182L13.5571 21.61C13.5226 21.6947 13.4402 21.75 13.3488 21.75H12.3308C12.172 21.75 12.0632 21.59 12.1216 21.4423L15.7958 12.1423C15.8297 12.0564 15.9127 12 16.0051 12H17.7448ZM16.8833 13.5L18.7197 18H15.0303L16.8666 13.5H16.8833Z" fill="#292929"/>
</svg>
