<svg width="24" height="24" viewBox="0 0 24 24" fill="none" xmlns="http://www.w3.org/2000/svg">
<path d="M15.5303 3.21967C15.2374 2.92678 14.7626 2.92678 14.4697 3.21967C14.1768 3.51256 14.1768 3.98744 14.4697 4.28033L16.9393 6.75H2.25C1.83579 6.75 1.5 7.08579 1.5 7.5C1.5 7.91421 1.83579 8.25 2.25 8.25H16.9393L14.4697 10.7197C14.1768 11.0126 14.1768 11.4874 14.4697 11.7803C14.7626 12.0732 15.2374 12.0732 15.5303 11.7803L19.2803 8.03033C19.5732 7.73744 19.5732 7.26256 19.2803 6.96967L15.5303 3.21967Z" fill="#292929"/>
<path d="M9.53033 20.7803C9.23744 21.0732 8.76256 21.0732 8.46967 20.7803L4.71967 17.0303C4.42678 16.7374 4.42678 16.2626 4.71967 15.9697L8.46967 12.2197C8.76256 11.9268 9.23744 11.9268 9.53033 12.2197C9.82322 12.5126 9.82322 12.9874 9.53033 13.2803L7.06066 15.75L21.75 15.75C22.1642 15.75 22.5 16.0858 22.5 16.5C22.5 16.9142 22.1642 17.25 21.75 17.25L7.06066 17.25L9.53033 19.7197C9.82322 20.0126 9.82322 20.4874 9.53033 20.7803Z" fill="#292929"/>
</svg>
