<svg width="24" height="24" viewBox="0 0 24 24" fill="none" xmlns="http://www.w3.org/2000/svg">
<path d="M5.46967 3.96967C5.76256 3.67678 6.23744 3.67678 6.53033 3.96967C6.82322 4.26256 6.82322 4.73744 6.53033 5.03033L4.06066 7.5H16.125C19.6458 7.5 22.5 10.3542 22.5 13.875C22.5 17.3958 19.6458 20.25 16.125 20.25H12.39C11.9758 20.25 11.64 19.9142 11.64 19.5C11.64 19.0858 11.9758 18.75 12.39 18.75H16.125C18.8174 18.75 21 16.5674 21 13.875C21 11.1826 18.8174 9 16.125 9H4.06066L6.53033 11.4697C6.82322 11.7626 6.82322 12.2374 6.53033 12.5303C6.23744 12.8232 5.76256 12.8232 5.46967 12.5303L1.71967 8.78033C1.42678 8.48744 1.42678 8.01256 1.71967 7.71967L5.46967 3.96967Z" fill="#292929"/>
</svg>
