<svg width="24" height="24" viewBox="0 0 24 24" fill="none" xmlns="http://www.w3.org/2000/svg">
<path d="M18.75 5.25C18.75 6.23023 18.1232 7.06406 17.2485 7.37251C17.2495 7.41488 17.25 7.45738 17.25 7.5C17.25 8.00693 17.1781 8.49708 17.0441 8.96082C18.8573 8.69728 20.25 7.13628 20.25 5.25C20.25 3.17893 18.5711 1.5 16.5 1.5C15.4695 1.5 14.5361 1.91563 13.8583 2.58839C14.3648 2.78011 14.8338 3.04791 15.2515 3.37785C15.6088 3.13916 16.0381 3 16.5 3C17.7426 3 18.75 4.00736 18.75 5.25Z" fill="#292929"/>
<path d="M21 14.25C21 14.5817 20.7807 15.109 19.9476 15.6297C19.8097 15.7158 19.6602 15.7979 19.5 15.8746V16.4814L19.5 16.5L19.5 16.5186V17.4983C21.2934 16.8499 22.5 15.638 22.5 14.25C22.5 12.1789 19.8137 10.5 16.5 10.5V12C17.9207 12 19.1357 12.3629 19.9476 12.8703C20.7807 13.391 21 13.9183 21 14.25Z" fill="#292929"/>
<path d="M15.4476 17.8797C16.2807 17.359 16.5 16.8317 16.5 16.5C16.5 16.1683 16.2807 15.641 15.4476 15.1203C14.6357 14.6129 13.4207 14.25 12 14.25V12.75C15.3137 12.75 18 14.4289 18 16.5C18 17.888 16.7934 19.0999 15 19.7483V18.7686L15 18.75L15 18.7314V18.1246C15.1602 18.0479 15.3097 17.9658 15.4476 17.8797Z" fill="#292929"/>
<path fill-rule="evenodd" clip-rule="evenodd" d="M13.5 18.75C13.5 20.8211 10.8137 22.5 7.5 22.5C4.18629 22.5 1.5 20.8211 1.5 18.75C1.5 16.6789 4.18629 15 7.5 15C10.8137 15 13.5 16.6789 13.5 18.75ZM12 18.75C12 19.0817 11.7807 19.609 10.9476 20.1297C10.1357 20.6371 8.9207 21 7.5 21C6.0793 21 4.86429 20.6371 4.05236 20.1297C3.21929 19.609 3 19.0817 3 18.75C3 18.4183 3.21929 17.891 4.05236 17.3703C4.86429 16.8629 6.0793 16.5 7.5 16.5C8.9207 16.5 10.1357 16.8629 10.9476 17.3703C11.7807 17.891 12 18.4183 12 18.75Z" fill="#292929"/>
<path d="M12.7485 9.62251C13.6232 9.31406 14.25 8.48023 14.25 7.5C14.25 6.25736 13.2426 5.25 12 5.25C11.5381 5.25 11.1088 5.38916 10.7515 5.62785C10.3338 5.29791 9.86479 5.03011 9.35834 4.83839C10.0361 4.16563 10.9695 3.75 12 3.75C14.0711 3.75 15.75 5.42893 15.75 7.5C15.75 9.38628 14.3573 10.9473 12.5441 11.2108C12.6781 10.7471 12.75 10.2569 12.75 9.75C12.75 9.70738 12.7495 9.66488 12.7485 9.62251Z" fill="#292929"/>
<path fill-rule="evenodd" clip-rule="evenodd" d="M11.25 9.75C11.25 11.8211 9.57107 13.5 7.5 13.5C5.42893 13.5 3.75 11.8211 3.75 9.75C3.75 7.67893 5.42893 6 7.5 6C9.57107 6 11.25 7.67893 11.25 9.75ZM9.75 9.75C9.75 10.9926 8.74264 12 7.5 12C6.25736 12 5.25 10.9926 5.25 9.75C5.25 8.50736 6.25736 7.5 7.5 7.5C8.74264 7.5 9.75 8.50736 9.75 9.75Z" fill="#292929"/>
</svg>
