<svg width="24" height="24" viewBox="0 0 24 24" fill="none" xmlns="http://www.w3.org/2000/svg">
<path fill-rule="evenodd" clip-rule="evenodd" d="M11.25 5.25C11.25 7.06422 9.96168 8.57753 8.25 8.92499V11.25H12.75C14.1803 11.25 15.3768 10.2491 15.6773 8.90947C14.002 8.53446 12.75 7.03844 12.75 5.25C12.75 3.17893 14.4289 1.5 16.5 1.5C18.5711 1.5 20.25 3.17893 20.25 5.25C20.25 7.08248 18.9356 8.60797 17.1982 8.93512C16.8682 11.0952 15.0023 12.75 12.75 12.75H8.25V15.075C9.96168 15.4225 11.25 16.9358 11.25 18.75C11.25 20.8211 9.57107 22.5 7.5 22.5C5.42893 22.5 3.75 20.8211 3.75 18.75C3.75 16.9358 5.03832 15.4225 6.75 15.075L6.75 8.92499C5.03832 8.57753 3.75 7.06422 3.75 5.25C3.75 3.17893 5.42893 1.5 7.5 1.5C9.57107 1.5 11.25 3.17893 11.25 5.25ZM7.5 7.5C8.74264 7.5 9.75 6.49264 9.75 5.25C9.75 4.00736 8.74264 3 7.5 3C6.25736 3 5.25 4.00736 5.25 5.25C5.25 6.49264 6.25736 7.5 7.5 7.5ZM7.5 21C8.74264 21 9.75 19.9926 9.75 18.75C9.75 17.5074 8.74264 16.5 7.5 16.5C6.25736 16.5 5.25 17.5074 5.25 18.75C5.25 19.9926 6.25736 21 7.5 21ZM18.75 5.25C18.75 6.49264 17.7426 7.5 16.5 7.5C15.2574 7.5 14.25 6.49264 14.25 5.25C14.25 4.00736 15.2574 3 16.5 3C17.7426 3 18.75 4.00736 18.75 5.25Z" fill="#292929"/>
</svg>
