<svg width="24" height="24" viewBox="0 0 24 24" fill="none" xmlns="http://www.w3.org/2000/svg">
<path d="M4.5 6C4.5 3.51472 6.51472 1.5 9 1.5C11.4853 1.5 13.5 3.51472 13.5 6V9.75C13.5 10.1642 13.1642 10.5 12.75 10.5C12.3358 10.5 12 10.1642 12 9.75V6C12 4.34315 10.6569 3 9 3C7.34315 3 6 4.34315 6 6V12C6 13.6569 7.34315 15 9 15C9.41421 15 9.75 15.3358 9.75 15.75C9.75 16.1642 9.41421 16.5 9 16.5C6.51472 16.5 4.5 14.4853 4.5 12V6Z" fill="#292929"/>
<path d="M9.75 17.9536C9.50431 17.9842 9.254 18 9 18C5.68629 18 3 15.3137 3 12V10.5C3 10.0858 2.66421 9.75 2.25 9.75C1.83579 9.75 1.5 10.0858 1.5 10.5V12C1.5 15.889 4.46001 19.0867 8.25 19.463V21.75C8.25 22.1642 8.58579 22.5 9 22.5C9.41421 22.5 9.75 22.1642 9.75 21.75V17.9536Z" fill="#292929"/>
<path fill-rule="evenodd" clip-rule="evenodd" d="M16.5002 18.75C17.7428 18.75 18.7502 17.7426 18.7502 16.5C18.7502 15.2574 17.7428 14.25 16.5002 14.25C15.2575 14.25 14.2502 15.2574 14.2502 16.5C14.2502 17.7426 15.2575 18.75 16.5002 18.75ZM16.5002 17.25C16.9144 17.25 17.2502 16.9142 17.2502 16.5C17.2502 16.0858 16.9144 15.75 16.5002 15.75C16.086 15.75 15.7502 16.0858 15.7502 16.5C15.7502 16.9142 16.086 17.25 16.5002 17.25Z" fill="#292929"/>
<path fill-rule="evenodd" clip-rule="evenodd" d="M11.3393 16.5002C11.2818 16.4444 11.228 16.3857 11.1781 16.3245C10.7201 15.8347 10.6936 15.1194 10.7201 14.827C10.7465 14.5346 10.8359 14.2432 10.9935 13.9727L11.5503 13.0168C12.0447 12.1683 13.0382 11.8106 13.9271 12.0681C14.2005 10.9764 15 10.5 16.1252 10.5H17.0618C18.0326 10.5 18.8476 11.1672 19.0733 12.068C19.9622 11.8106 20.9557 12.1683 21.45 13.0168L22.0069 13.9727C22.4962 14.8125 22.3277 15.8534 21.661 16.5002C22.3277 17.147 22.4962 18.1879 22.0069 19.0278L21.45 19.9836C20.9556 20.8323 19.962 21.1897 19.0732 20.9323C18.8475 21.833 18.0326 22.5 17.0619 22.5H15.9385C14.9678 22.5 14.1529 21.833 13.9271 20.9323C13.0383 21.1897 12.0448 20.8323 11.5503 19.9836L10.9935 19.0278C10.5042 18.1879 10.6726 17.147 11.3393 16.5002ZM15.9386 12C15.6218 12 15.365 12.2568 15.365 12.5736C15.365 13.4547 14.4016 14.0004 13.6368 13.5628C13.3611 13.4051 13.0064 13.4973 12.8464 13.7719L12.2896 14.7277C12.1301 15.0015 12.2242 15.3527 12.4992 15.51C13.2649 15.9481 13.2649 17.0523 12.4992 17.4904C12.2242 17.6477 12.1301 17.999 12.2896 18.2727L12.8464 19.2286C13.0064 19.5031 13.3611 19.5953 13.6369 19.4375C14.4015 19 15.365 19.5455 15.365 20.4265C15.365 20.7432 15.6218 21 15.9385 21H17.0619C17.3786 21 17.6354 20.7432 17.6354 20.4265C17.6354 19.5455 18.5988 19 19.3635 19.4375C19.6392 19.5953 19.994 19.5031 20.1539 19.2286L20.7108 18.2727C20.8702 17.999 20.7761 17.6477 20.5012 17.4904C19.7355 17.0523 19.7355 15.9481 20.5012 15.51C20.7761 15.3527 20.8702 15.0015 20.7108 14.7277L20.1539 13.7719C19.994 13.4973 19.6393 13.4051 19.3635 13.5628C18.5988 14.0004 17.6354 13.4547 17.6354 12.5736C17.6354 12.2568 17.3786 12 17.0618 12H15.9386Z" fill="#292929"/>
</svg>
