<svg width="24" height="24" viewBox="0 0 24 24" fill="none" xmlns="http://www.w3.org/2000/svg">
<path fill-rule="evenodd" clip-rule="evenodd" d="M4.97098 16.5812L2.69392 12.6372C2.08715 11.5863 2.44723 10.2424 3.49819 9.63567C3.70924 9.51381 3.93211 9.43095 4.15845 9.38485L3.70083 8.59223C3.09406 7.54127 3.45414 6.19742 4.5051 5.59065C4.71627 5.46873 4.93927 5.38585 5.16573 5.33976L5.08287 5.19623C4.4761 4.14528 4.83618 2.80142 5.88714 2.19465C6.93809 1.58788 8.28194 1.94797 8.88872 2.99892L8.97152 3.14234C9.12461 2.96938 9.30781 2.8178 9.51886 2.69595C10.5698 2.08918 11.9137 2.44927 12.5204 3.50022L16.2698 9.99436L16.8565 8.53658C17.2883 7.46356 18.4425 6.90146 19.5596 7.22014C20.7941 7.57233 21.5418 8.86729 21.2295 10.1125L19.8934 15.4403L19.2221 17.4641C18.8835 18.4846 18.1923 19.3375 17.2741 19.8676L14.5648 21.4318C11.7416 23.0618 8.08839 22.0196 6.40508 19.104L4.95415 16.591L4.97098 16.5812ZM6.63714 3.49369C6.97065 3.30113 7.39712 3.41541 7.58968 3.74892L8.70393 5.67886L8.71459 5.69753L12.1158 11.5887C12.3229 11.9474 12.7816 12.0703 13.1404 11.8632C13.2318 11.8104 13.3079 11.7413 13.3671 11.6617C13.3805 11.6436 13.3931 11.625 13.4048 11.606C13.5437 11.3791 13.5573 11.0852 13.4149 10.8386L10.0076 4.93696C9.8235 4.60505 9.93886 4.18552 10.2689 3.99499C10.6024 3.80243 11.0288 3.91671 11.2214 4.25022L15.7476 12.0899C15.9547 12.4486 16.4134 12.5715 16.7721 12.3644C16.9493 12.2621 17.069 12.0984 17.1198 11.9157L18.2359 9.14203C18.3891 8.76144 18.7985 8.56206 19.1947 8.6751C19.6326 8.80002 19.8978 9.25934 19.787 9.70102L18.4646 14.9746L17.8108 16.9455C17.5851 17.6259 17.1242 18.1944 16.5121 18.5479L13.8028 20.112C11.6855 21.3345 8.94552 20.5529 7.68304 18.3662L6.69119 16.6483C6.6762 16.5656 6.64697 16.4841 6.60256 16.4072L3.99296 11.8872C3.8004 11.5537 3.91467 11.1273 4.24819 10.9347C4.57821 10.7442 4.99923 10.8541 5.19459 11.1795L7.10208 14.4834C7.30919 14.8421 7.76788 14.965 8.1266 14.7579C8.48532 14.5508 8.60822 14.0921 8.40112 13.7334L8.03225 13.0945L8.02607 13.0836L6.49977 10.4399L6.48893 10.4214L4.99986 7.84223C4.80731 7.50871 4.92158 7.08224 5.2551 6.88969C5.58861 6.69713 6.01508 6.8114 6.20764 7.14492L9.60889 13.0361C9.816 13.3948 10.2747 13.5177 10.6334 13.3106C10.9921 13.1035 11.115 12.6448 10.9079 12.2861L10.7304 11.9786C10.7273 11.9728 10.724 11.9669 10.7206 11.9611L6.3819 4.44623C6.18935 4.11271 6.30362 3.68625 6.63714 3.49369Z" fill="#292929"/>
</svg>
