<svg width="24" height="24" viewBox="0 0 24 24" fill="none" xmlns="http://www.w3.org/2000/svg">
<path fill-rule="evenodd" clip-rule="evenodd" d="M14.1791 18.4929C14.5332 18.493 14.8407 18.5767 15.1004 18.7434C15.36 18.9101 15.5609 19.1444 15.7025 19.4458C15.8457 19.7472 15.9171 20.0984 15.9171 20.499C15.917 20.8998 15.8457 21.2503 15.7025 21.55C15.5609 21.8497 15.36 22.0828 15.1004 22.2495C14.8407 22.4163 14.5332 22.5 14.1791 22.5C13.8249 22.5 13.5175 22.4162 13.2577 22.2495C12.998 22.0828 12.7967 21.8496 12.6534 21.55C12.5117 21.2503 12.4403 20.8998 12.4403 20.499C12.4403 20.0983 12.5118 19.7472 12.6534 19.4458C12.7967 19.1444 12.9979 18.9102 13.2577 18.7434C13.5175 18.5767 13.8248 18.493 14.1791 18.4929ZM14.1834 19.218C13.9867 19.2181 13.8233 19.2757 13.6927 19.3901C13.5637 19.5045 13.4665 19.6582 13.402 19.8516C13.339 20.0436 13.3075 20.2594 13.3075 20.4968C13.3075 20.7325 13.339 20.9466 13.402 21.1384C13.4665 21.3303 13.5637 21.4832 13.6927 21.5977C13.8233 21.7104 13.9867 21.7668 14.1834 21.7668C14.3755 21.7668 14.5363 21.7105 14.6654 21.5977C14.7944 21.4832 14.891 21.3303 14.954 21.1384C15.0185 20.9466 15.0506 20.7325 15.0506 20.4968C15.0506 20.2594 15.0185 20.0436 14.954 19.8516C14.891 19.6581 14.7943 19.5046 14.6654 19.3901C14.5363 19.2756 14.3755 19.218 14.1834 19.218Z" fill="#26252A"/>
<path d="M7.81357 21.0527H7.85898L8.78989 17.25H9.64683L10.5799 21.0549H10.6224L11.494 17.25H12.4366L11.0714 22.4238H10.2064L9.23814 18.7932H9.20078L8.22959 22.4238H7.36533L6.0001 17.25H6.94272L7.81357 21.0527Z" fill="#26252A"/>
<path d="M18.5238 18.4958C18.5834 18.4993 18.6332 18.5043 18.6725 18.5127V19.355C18.6363 19.3415 18.5783 19.3292 18.4996 19.3191C18.4226 19.3074 18.3478 19.3015 18.2755 19.3015C18.1197 19.3015 17.9794 19.3376 17.8551 19.4099C17.7323 19.4806 17.6351 19.5795 17.5643 19.7058C17.4935 19.8321 17.4581 19.9781 17.4581 20.1431V22.4238H16.6034V18.5435H17.4325V19.1902H17.4706C17.5367 18.9663 17.6498 18.7936 17.8104 18.6724C17.9726 18.5494 18.1578 18.4878 18.3656 18.4878C18.4127 18.4878 18.4657 18.4908 18.5238 18.4958Z" fill="#26252A"/>
<path d="M20.0553 20.1021H20.1146L21.419 18.5435H22.4173L21.0111 20.2185L22.5001 22.4238H21.4776L20.3666 20.7627L20.0553 21.1194V22.4238H19.2005V17.25H20.0553V20.1021Z" fill="#26252A"/>
<path d="M12.3363 1.5C13.4054 1.50009 14.2721 2.37841 14.2721 3.44751C14.2721 4.92703 15.8772 5.86943 17.1556 5.12476C18.0757 4.58898 19.2561 4.9052 19.785 5.82935L20.8404 7.67285C21.3709 8.59995 21.0543 9.78208 20.1314 10.3198C18.8435 11.07 18.8435 12.93 20.1314 13.6802C20.6142 13.9614 20.9303 14.4188 21.0462 14.9238C21.1517 15.3833 20.6974 15.7102 20.2289 15.6584C19.9027 15.6221 19.6599 15.1419 19.3763 14.9766C17.095 13.6478 17.095 10.3522 19.3763 9.02344C19.5872 8.9004 19.6594 8.6297 19.5382 8.41772L18.4835 6.57422C18.3683 6.37294 18.1104 6.30377 17.91 6.42041C15.6085 7.7609 12.7721 6.05743 12.7721 3.44751C12.7721 3.19516 12.5653 3.0001 12.3363 3H10.2613C10.0322 3 9.82554 3.1951 9.82554 3.44751C9.82552 6.05741 6.9891 7.76076 4.6876 6.42041C4.48718 6.30367 4.22935 6.37295 4.11411 6.57422L3.05942 8.41772C2.93808 8.62976 3.01022 8.90043 3.22129 9.02344C5.50242 10.3523 5.50242 13.6477 3.22129 14.9766C3.01022 15.0996 2.93808 15.3702 3.05942 15.5823L4.11411 17.4258C4.23865 17.6434 4.4999 17.8446 4.5001 18.0952V18.4094C4.49999 18.8116 4.16525 19.1514 3.78965 19.0078C3.39138 18.8554 3.04114 18.57 2.8126 18.1707L1.75718 16.3271C1.22659 15.4 1.54313 14.2179 2.46616 13.6802C3.75393 12.93 3.75393 11.07 2.46616 10.3198C1.54313 9.78211 1.22659 8.60001 1.75718 7.67285L2.8126 5.82935C3.34151 4.9052 4.52187 4.58889 5.44199 5.12476C6.72045 5.8693 8.32552 4.927 8.32554 3.44751C8.32554 2.37835 9.19216 1.5 10.2613 1.5H12.3363Z" fill="#26252A"/>
<path fill-rule="evenodd" clip-rule="evenodd" d="M11.2992 8.25C13.37 8.25027 15.0492 9.9291 15.0492 12C15.0492 14.0709 13.37 15.7497 11.2992 15.75C9.2281 15.75 7.54917 14.0711 7.54917 12C7.54917 9.92893 9.2281 8.25 11.2992 8.25ZM11.2992 9.75C10.0565 9.75 9.04917 10.7574 9.04917 12C9.04917 13.2426 10.0565 14.25 11.2992 14.25C12.5416 14.2497 13.5492 13.2425 13.5492 12C13.5492 10.7575 12.5416 9.75027 11.2992 9.75Z" fill="#26252A"/>
</svg>
