<svg width="24" height="24" viewBox="0 0 24 24" fill="none" xmlns="http://www.w3.org/2000/svg">
<path fill-rule="evenodd" clip-rule="evenodd" d="M8 7C8 9.20914 9.79086 11 12 11C14.2091 11 16 9.20914 16 7C16 4.79086 14.2091 3 12 3C9.79086 3 8 4.79086 8 7ZM12 12C5.98633 12 4 14.25 4 18.75C4 20.25 4.66667 21 6 21H13.5997C13.2163 20.2499 13 19.4002 13 18.5C13 15.8219 14.9141 13.5909 17.4488 13.1003C16.1995 12.3668 14.428 12 12 12ZM17.5024 14.0851L17.2147 14.9483L16.8974 15.0797L16.0836 14.6728C15.7307 14.4963 15.3045 14.5655 15.0255 14.8445L14.8445 15.0255C14.5655 15.3045 14.4963 15.7307 14.6728 16.0836L15.0811 16.8957L14.9486 17.2146L14.0851 17.5024C13.7108 17.6272 13.4583 17.9775 13.4583 18.372V18.628C13.4583 19.0225 13.7108 19.3728 14.0851 19.4976L14.9483 19.7853L15.0797 20.1026L14.6728 20.9164C14.4963 21.2693 14.5655 21.6955 14.8445 21.9745L15.0255 22.1555C15.3045 22.4345 15.7307 22.5037 16.0836 22.3272L16.8957 21.9189L17.2146 22.0514L17.5024 22.9149C17.6272 23.2892 17.9775 23.5417 18.372 23.5417H18.628C19.0225 23.5417 19.3728 23.2892 19.4976 22.9149L19.7853 22.0517L20.1026 21.9203L20.9164 22.3272C21.2693 22.5037 21.6955 22.4345 21.9745 22.1555L22.1555 21.9745C22.4345 21.6955 22.5037 21.2693 22.3272 20.9164L21.9189 20.1043L22.0514 19.7854L22.9149 19.4976C23.2892 19.3728 23.5417 19.0225 23.5417 18.628V18.372C23.5417 17.9775 23.2892 17.6272 22.9149 17.5024L22.0518 17.2161L21.9202 16.8976L22.3272 16.0836C22.5037 15.7307 22.4345 15.3045 22.1555 15.0255L21.9745 14.8445C21.6955 14.5655 21.2693 14.4963 20.9164 14.6728L20.1043 15.0811L19.7854 14.9486L19.4976 14.0851C19.3728 13.7108 19.0225 13.4583 18.628 13.4583H18.372C17.9775 13.4583 17.6272 13.7108 17.5024 14.0851ZM18.5 20.3333C19.5125 20.3333 20.3333 19.5125 20.3333 18.5C20.3333 17.4875 19.5125 16.6667 18.5 16.6667C17.4875 16.6667 16.6667 17.4875 16.6667 18.5C16.6667 19.5125 17.4875 20.3333 18.5 20.3333Z" fill="#636363"/>
</svg>
