<svg width="24" height="24" viewBox="0 0 24 24" fill="none" xmlns="http://www.w3.org/2000/svg">
<path fill-rule="evenodd" clip-rule="evenodd" d="M11.5 2C10.1875 2 9.24997 3.25 9.24997 5C9.24997 7.29019 9.86207 9.50084 10.9366 11.5144C10.5091 12.6114 9.9891 13.6783 9.39458 14.6832C8.37081 14.9666 7.218 15.274 7.27037 15.2593C5.36673 15.7945 4.09123 16.28 3.19146 16.9044C1.86665 17.8238 1.48266 19.0761 2.37593 20.416C3.79301 22.5416 6.73463 20.9371 9.34997 17.45C9.70583 16.9755 10.0457 16.4806 10.3674 15.9689C10.7513 15.8603 11.0719 15.7666 11.2371 15.7115L11.1973 15.7236C12.0129 15.452 12.8017 15.2578 13.5551 15.1356C13.8948 15.4967 14.2509 15.8456 14.6218 16.1812C17.5293 18.8118 20.7939 20.0892 21.6708 18.3354C22.4178 16.8413 21.307 15.1293 19.2328 14.2125C17.8189 13.5876 16.0752 13.347 14.1415 13.5441C13.5563 12.8617 13.0344 12.1385 12.5858 11.3833C13.3274 9.28538 13.75 7.09929 13.75 5C13.75 3.25 12.8125 2 11.5 2ZM11.9017 13.095C11.5484 12.5839 11.2257 12.0563 10.9366 11.5144C11.2029 10.8307 11.4334 10.1353 11.6237 9.43575C11.8897 10.1039 12.2124 10.7547 12.5858 11.3833C12.3813 11.9618 12.1525 12.5336 11.9017 13.095ZM12.4341 13.823C12.2497 13.5844 12.0721 13.3416 11.9017 13.095C11.7533 13.427 11.5972 13.7554 11.4339 14.0795C11.2116 14.1438 10.9878 14.2135 10.7628 14.2885L10.8026 14.2764C10.5652 14.3551 10.0026 14.5149 9.39458 14.6832C9.00939 15.3343 8.5929 15.9594 8.14997 16.55L8.12437 16.5841C7.8251 16.6645 7.6428 16.7128 7.67632 16.7034C5.92718 17.1951 4.76749 17.6365 4.04665 18.1368C3.34156 18.6261 3.22936 18.992 3.62401 19.584C4.13812 20.3551 6.07607 19.3024 8.12437 16.5841C8.67972 16.4349 9.63789 16.1752 10.3674 15.9689C10.7497 15.3608 11.1064 14.7289 11.4339 14.0795C11.7708 13.9819 12.1044 13.8965 12.4341 13.823ZM12.4341 13.823C13.0167 13.6932 13.5869 13.6007 14.1415 13.5441C14.571 14.045 15.0345 14.5239 15.5281 14.9776C14.9046 14.9725 14.2447 15.0238 13.5551 15.1356C13.1585 14.7141 12.7841 14.276 12.4341 13.823ZM15.5281 14.9776C16.7053 14.9873 17.753 15.1984 18.6264 15.5844C20.014 16.1977 20.6042 17.1032 20.3314 17.66C20.3452 17.6317 20.3386 17.6319 20.2305 17.6348L20.2204 17.635C19.9659 17.6418 19.5872 17.5576 19.1326 17.3797C18.0892 16.9714 16.8207 16.1479 15.6282 15.0688C15.5947 15.0386 15.5613 15.0081 15.5281 14.9776ZM11.6237 9.43575C11.0596 8.01915 10.75 6.52486 10.75 5C10.75 4 11.125 3.5 11.5 3.5C11.875 3.5 12.25 4 12.25 5C12.25 6.44841 12.0274 7.95134 11.6237 9.43575Z" fill="#636363"/>
</svg>
