<svg width="24" height="24" viewBox="0 0 24 24" fill="none" xmlns="http://www.w3.org/2000/svg">
    <path fill-rule="evenodd" clip-rule="evenodd" d="M3.84912 3.00003V18.9585H21.9999V20H3.84912L2.5 20V18.9584V3L3.84912 3.00003ZM5.267 9.14686L4.30273 10.1958V11.2338H5.05273H5.30273V11.1958L6.29207 10.0892L5.81915 9.65443L5.267 9.14686ZM5.05273 13.3099H5.30273V15.3859H5.05273H4.30273V13.3099H5.05273ZM4.30273 17H5.30273V18.5H5.05273H4.30273V17.75V17.462V17ZM21.2498 18.5H20.9998V17H21.9998V17.5V17.75V18.5H21.2498ZM21.2498 15.5H20.9998V13.5H21.2498H21.9998V15.5H21.2498ZM21.2498 11.5H20.9998V9.5L20.1022 10.5334L19.7252 10.1995L19.1637 9.70226L20.2981 8.42136L20.8596 8.91861L21.421 9.41586L21.3465 9.5H21.9998V11.5H21.2498ZM18.5907 11.4804L18.9801 11.8253L17.8581 13.1172L17.4563 12.7613L16.8948 12.2641L18.0293 10.9832L18.5907 11.4804ZM16.3219 14.0422L16.7361 14.409L16.1874 15.0408L15.1932 16.1854L14.2051 15.0355L13.6185 14.3528L14.0382 13.9921L14.5137 13.5836L14.0703 13.1909L14.2065 13.0371L14.6071 13.5033L14.6999 13.6113L15.1932 14.1854L15.6951 13.6187L15.7604 13.545L16.197 13.052L16.3309 13.2078L15.8481 13.6227L16.3219 14.0422ZM12.866 12.6279L12.4462 12.9885L11.274 11.6243L11.6938 11.2636L12.2626 10.7748L13.4349 12.1391L12.866 12.6279ZM10.5215 9.89938L10.1018 10.2601L9.14586 9.14759L8.92953 8.89583L9.34929 8.53514L9.91813 8.04635L11.0904 9.41059L10.5215 9.89938ZM8.7459 6.68212L8.65197 6.5728L8.15978 6L7.64868 6.55599L7.19552 7.04895L7.13758 7.11198L7.6082 7.6597L7.7383 7.54791L7.74767 7.55652L8.29982 8.0641L9.14415 7.1456L8.7459 6.68212ZM21.1141 7.5L21.2498 7.34684L21.4325 7.14045L21.9998 6.5V7.5V7.63121V7.6428L21.994 7.63771L21.8385 7.5H21.2498H21.1141Z"
          fill="#636363"/>
</svg>
