<svg width="24" height="24" viewBox="0 0 24 24" fill="none" xmlns="http://www.w3.org/2000/svg">
<path fill-rule="evenodd" clip-rule="evenodd" d="M11.9547 11H19.5858L17.2929 13.2929C16.9024 13.6834 16.9024 14.3166 17.2929 14.7071C17.6834 15.0976 18.3166 15.0976 18.7071 14.7071L22.7071 10.7071C23.0976 10.3166 23.0976 9.68342 22.7071 9.29289L18.7071 5.29289C18.3166 4.90237 17.6834 4.90237 17.2929 5.29289C16.9024 5.68342 16.9024 6.31658 17.2929 6.70711L19.5858 9H11.9547C11.4274 9 11 9.44772 11 10C11 10.5523 11.4274 11 11.9547 11ZM12.0453 13H4.41421L6.70711 10.7071C7.09763 10.3166 7.09763 9.68342 6.70711 9.29289C6.31658 8.90237 5.68342 8.90237 5.29289 9.29289L1.29289 13.2929C0.902369 13.6834 0.902369 14.3166 1.29289 14.7071L5.29289 18.7071C5.68342 19.0976 6.31658 19.0976 6.70711 18.7071C7.09763 18.3166 7.09763 17.6834 6.70711 17.2929L4.41421 15H12.0453C12.5726 15 13 14.5523 13 14C13 13.4477 12.5726 13 12.0453 13Z" fill="#636363"/>
</svg>
