<svg width="24" height="24" viewBox="0 0 24 24" fill="none" xmlns="http://www.w3.org/2000/svg">
<path fill-rule="evenodd" clip-rule="evenodd" d="M15 13.0453V5.41421L17.2929 7.70711C17.6834 8.09763 18.3166 8.09763 18.7071 7.70711C19.0976 7.31658 19.0976 6.68342 18.7071 6.29289L14.7071 2.29289C14.3166 1.90237 13.6834 1.90237 13.2929 2.29289L9.29289 6.29289C8.90237 6.68342 8.90237 7.31658 9.29289 7.70711C9.68342 8.09763 10.3166 8.09763 10.7071 7.70711L13 5.41421V13.0453C13 13.5726 13.4477 14 14 14C14.5523 14 15 13.5726 15 13.0453ZM9 10.9547V18.5858L6.70711 16.2929C6.31658 15.9024 5.68342 15.9024 5.29289 16.2929C4.90237 16.6834 4.90237 17.3166 5.29289 17.7071L9.29289 21.7071C9.68342 22.0976 10.3166 22.0976 10.7071 21.7071L14.7071 17.7071C15.0976 17.3166 15.0976 16.6834 14.7071 16.2929C14.3166 15.9024 13.6834 15.9024 13.2929 16.2929L11 18.5858V10.9547C11 10.4274 10.5523 10 10 10C9.44772 10 9 10.4274 9 10.9547Z" fill="#636363"/>
</svg>
