<svg width="24" height="24" viewBox="0 0 24 24" fill="none" xmlns="http://www.w3.org/2000/svg">
<path fill-rule="evenodd" clip-rule="evenodd" d="M2.5 15.5V4.5C2.5 3.94772 2.94772 3.5 3.5 3.5C4.05228 3.5 4.5 3.94772 4.5 4.5V14.5L17.0858 14.5L14.7929 12.2071C14.4024 11.8166 14.4024 11.1834 14.7929 10.7929C15.1834 10.4024 15.8166 10.4024 16.2071 10.7929L20.2071 14.7929C20.5976 15.1834 20.5976 15.8166 20.2071 16.2071L16.2071 20.2071C15.8166 20.5976 15.1834 20.5976 14.7929 20.2071C14.4024 19.8166 14.4024 19.1834 14.7929 18.7929L17.0858 16.5H3.45469C2.92743 16.5 2.5 16.0523 2.5 15.5Z" fill="#636363"/>
</svg>
