<svg width="24" height="24" viewBox="0 0 24 24" fill="none" xmlns="http://www.w3.org/2000/svg">
<path fill-rule="evenodd" clip-rule="evenodd" d="M12 3C11.4477 3 11 3.44772 11 4V20C11 20.5523 11.4477 21 12 21C12.5523 21 13 20.5523 13 20V4C13 3.44772 12.5523 3 12 3ZM8 6C7.44772 6 7 6.44772 7 7V17C7 17.5523 7.44772 18 8 18C8.55228 18 9 17.5523 9 17V7C9 6.44772 8.55228 6 8 6ZM3 10C3 9.44772 3.44772 9 4 9C4.55228 9 5 9.44772 5 10V14C5 14.5523 4.55228 15 4 15C3.44772 15 3 14.5523 3 14V10ZM15 10C15 9.44772 15.4477 9 16 9C16.5523 9 17 9.44772 17 10V14C17 14.5523 16.5523 15 16 15C15.4477 15 15 14.5523 15 14V10ZM19 7C19 6.44772 19.4477 6 20 6C20.5523 6 21 6.44772 21 7V17C21 17.5523 20.5523 18 20 18C19.4477 18 19 17.5523 19 17V7Z" fill="#636363"/>
</svg>
