<svg width="24" height="24" viewBox="0 0 24 24" fill="none" xmlns="http://www.w3.org/2000/svg">
<path fill-rule="evenodd" clip-rule="evenodd" d="M11.6001 2.3999C10.4955 2.3999 9.6001 3.29533 9.6001 4.3999V13.993C9.6001 13.9953 9.60009 13.9976 9.60009 13.9999V14.7999C9.60009 15.076 9.65606 15.3391 9.75727 15.5784C9.82675 15.7427 9.91755 15.8957 10.0262 16.0341C10.3924 16.5004 10.9612 16.7999 11.6001 16.7999H12.4001C12.4035 16.7999 12.4068 16.7999 12.4102 16.7999H22.0001C23.1047 16.7999 24.0001 15.9044 24.0001 14.7999V13.9999C24.0001 12.8953 23.1047 11.9999 22.0001 11.9999H14.4001V4.3999C14.4001 3.29533 13.5047 2.3999 12.4001 2.3999H11.6001Z" fill="#636363"/>
</svg>
