<svg width="24" height="24" viewBox="0 0 24 24" fill="none" xmlns="http://www.w3.org/2000/svg">
<path fill-rule="evenodd" clip-rule="evenodd" d="M17 4C16.4477 4 16 4.44772 16 5V19C16 19.5523 16.4477 20 17 20H19C19.5523 20 20 19.5523 20 19V5C20 4.44772 19.5523 4 19 4H17ZM10 11C10 10.4477 10.4477 10 11 10H13C13.5523 10 14 10.4477 14 11V19C14 19.5523 13.5523 20 13 20H11C10.4477 20 10 19.5523 10 19V11ZM4 17C4 16.4477 4.44772 16 5 16H7C7.55228 16 8 16.4477 8 17V19C8 19.5523 7.55228 20 7 20H5C4.44772 20 4 19.5523 4 19V17Z" fill="#636363"/>
</svg>
