<svg width="24" height="24" viewBox="0 0 24 24" fill="none" xmlns="http://www.w3.org/2000/svg">
<path fill-rule="evenodd" clip-rule="evenodd" d="M4 5C4 4.44772 4.44772 4 5 4H7C7.55228 4 8 4.44772 8 5V7C8 7.55228 7.55228 8 7 8H5C4.44772 8 4 7.55228 4 7V5ZM4 11C4 10.4477 4.44772 10 5 10H13C13.5523 10 14 10.4477 14 11V13C14 13.5523 13.5523 14 13 14H5C4.44772 14 4 13.5523 4 13V11ZM5 16C4.44772 16 4 16.4477 4 17V19C4 19.5523 4.44772 20 5 20H19C19.5523 20 20 19.5523 20 19V17C20 16.4477 19.5523 16 19 16H5Z" fill="#636363"/>
</svg>
