<svg width="24" height="24" viewBox="0 0 24 24" fill="none" xmlns="http://www.w3.org/2000/svg">
<path fill-rule="evenodd" clip-rule="evenodd"
      d="M17 4C16.4477 4 16 4.44772 16 5V9H20V5C20 4.44772 19.5523 4 19 4H17ZM10 8C10 7.44772 10.4477 7 11 7H13C13.5523 7 14 7.44772 14 8V11H10V8ZM5 10C4.44772 10 4 10.4477 4 11V13H8V11C8 10.4477 7.55228 10 7 10H5ZM4 14H8V16H4V14ZM4 17H8V19C8 19.5523 7.55228 20 7 20H5C4.44772 20 4 19.5523 4 19V17ZM10 16H14V19C14 19.5523 13.5523 20 13 20H11C10.4477 20 10 19.5523 10 19V16ZM14 12H10V15H14V12ZM20 15H16V19C16 19.5523 16.4477 20 17 20H19C19.5523 20 20 19.5523 20 19V15ZM16 10H20V14H16V10Z"
      fill="#636363"/>
</svg>
