<svg width="24" height="24" viewBox="0 0 24 24" fill="none" xmlns="http://www.w3.org/2000/svg">
<path fill-rule="evenodd" clip-rule="evenodd"
      d="M20 17C20 16.4477 19.5523 16 19 16L15 16L15 20L19 20C19.5523 20 20 19.5523 20 19L20 17ZM16 10C16.5523 10 17 10.4477 17 11L17 13C17 13.5523 16.5523 14 16 14L13 14L13 10L16 10ZM14 5C14 4.44771 13.5523 4 13 4L11 4L11 8L13 8C13.5523 8 14 7.55228 14 7L14 5ZM10 4L10 8L8 8L8 4L10 4ZM7 4L7 8L5 8C4.44771 8 4 7.55228 4 7L4 5C4 4.44771 4.44772 4 5 4L7 4ZM8 10L8 14L5 14C4.44771 14 4 13.5523 4 13L4 11C4 10.4477 4.44771 10 5 10L8 10ZM12 14L12 10L9 10L9 14L12 14ZM9 20L9 16L5 16C4.44771 16 4 16.4477 4 17L4 19C4 19.5523 4.44771 20 5 20L9 20ZM14 16L14 20L10 20L10 16L14 16Z"
      fill="#636363"/>
</svg>
