<svg width="24" height="24" viewBox="0 0 24 24" fill="none" xmlns="http://www.w3.org/2000/svg">
<path fill-rule="evenodd" clip-rule="evenodd" d="M13.9983 4.08268C13.9995 4.05526 14 4.02769 14 4C14 2.89543 13.1046 2 12 2C10.8955 2 10 2.89543 10 4C10 4.02769 10.0006 4.05526 10.0017 4.08268C7.16316 4.55806 5.00003 7.02642 5.00003 10V14L3.43877 18.6838C3.40478 18.7857 3.38745 18.8925 3.38745 19C3.38745 19.5523 3.83517 20 4.38745 20H10C10 21.1046 10.8955 22 12 22C13.1046 22 14 21.1046 14 20H19.6126C19.7201 20 19.8269 19.9827 19.9288 19.9487C20.4528 19.774 20.7359 19.2077 20.5613 18.6838L19 14L19 10C19 7.02642 16.8369 4.55806 13.9983 4.08268ZM17 14L17 10C17 7.79086 15.2092 6 13 6H12H11C8.79089 6 7.00003 7.79086 7.00003 10V14L6.00003 18H12H18L17 14ZM14.6465 10.6464C14.8417 10.4512 15.1583 10.4512 15.3536 10.6464C15.5488 10.8417 15.5488 11.1583 15.3536 11.3536L11 15.7071L8.64647 13.3536C8.45121 13.1583 8.45121 12.8417 8.64647 12.6464C8.84173 12.4512 9.15832 12.4512 9.35358 12.6464L11 14.2929L14.6465 10.6464Z" fill="#636363"/>
</svg>
