<svg xmlns="http://www.w3.org/2000/svg" xmlns:xlink="http://www.w3.org/1999/xlink" width="24" height="24" viewBox="0 0 24 24">
  <defs>
    <path id="bell-at-solid-a" d="M19,14 L20.5612574,18.6837722 C20.7359052,19.2077156 20.4527452,19.7740355 19.9288019,19.9486833 C19.8268354,19.9826721 19.7200562,20 19.6125741,20 L14,20 C14,21.1045695 13.1045695,22 12,22 C10.8954305,22 10,21.1045695 10,20 L4.38742589,20 C3.83514114,20 3.38742589,19.5522847 3.38742589,19 C3.38742589,18.8925179 3.40475377,18.7857387 3.43874259,18.6837722 L5,14 L5,10 C5,7.02641779 7.16313903,4.55806378 10.0016778,4.0826772 C10.0005629,4.05525681 10,4.02769414 10,4 C10,2.8954305 10.8954305,2 12,2 C13.1045695,2 14,2.8954305 14,4 C14,4.02769414 13.9994371,4.05525681 13.9983222,4.0826772 C16.836861,4.55806378 19,7.02641779 19,10 L19,14 Z M10.192,15.86 C10.7306694,16.1453348 11.3599964,16.288 12.08,16.288 C12.5013354,16.288 12.8879982,16.2426671 13.24,16.152 C13.5920018,16.0613329 13.871999,15.9546673 14.08,15.832 C14.2293341,15.7253328 14.304,15.5973341 14.304,15.448 C14.304,15.3359994 14.2613338,15.2373338 14.176,15.152 C14.0906662,15.0666662 13.9893339,15.024 13.872,15.024 C13.797333,15.024 13.7146671,15.0479998 13.624,15.096 C13.3786654,15.2240006 13.1400012,15.3159997 12.908,15.372 C12.6759988,15.4280003 12.4000016,15.456 12.08,15.456 C11.5519974,15.456 11.0946686,15.3506677 10.708,15.14 C10.3213314,14.9293323 10.0266677,14.6333352 9.824,14.252 C9.62133232,13.8706648 9.52,13.4240026 9.52,12.912 C9.52,12.3253304 9.62933224,11.8226688 9.848,11.404 C10.0666678,10.9853312 10.371998,10.6680011 10.764,10.452 C11.156002,10.2359989 11.6026642,10.128 12.104,10.128 C12.8986706,10.128 13.5053312,10.3146648 13.924,10.688 C14.3426688,11.0613352 14.552,11.5946632 14.552,12.288 C14.552,12.6186683 14.5213336,12.8906656 14.46,13.104 C14.3986664,13.3173344 14.3240004,13.4719995 14.236,13.568 C14.1479996,13.6640005 14.0613338,13.712 13.976,13.712 C13.842666,13.712 13.7480003,13.674667 13.692,13.6 C13.6359997,13.525333 13.608,13.4133341 13.608,13.264 C13.608,13.1573328 13.6213332,13.0160009 13.648,12.84 L13.856,11.68 C13.8666667,11.6159997 13.872,11.5706668 13.872,11.544 C13.872,11.4053326 13.8306671,11.2946671 13.748,11.212 C13.6653329,11.1293329 13.5520007,11.088 13.408,11.088 C13.2639993,11.088 13.1493338,11.1199997 13.064,11.184 C12.9786662,11.2480003 12.9253334,11.3386661 12.904,11.456 L12.904,11.472 L12.88,11.472 C12.7999996,11.3119992 12.6826674,11.1933337 12.528,11.116 C12.3733326,11.0386663 12.192001,11 11.984,11 C11.6639984,11 11.3773346,11.0879991 11.124,11.264 C10.8706654,11.4400009 10.6720007,11.6826651 10.528,11.992 C10.3839993,12.3013349 10.312,12.6479981 10.312,13.032 C10.312,13.4693355 10.4226656,13.8226653 10.644,14.092 C10.8653344,14.3613347 11.1839979,14.496 11.6,14.496 C11.8720014,14.496 12.0919992,14.4386672 12.26,14.324 C12.4280008,14.2093328 12.5866659,14.048001 12.736,13.84 L12.752,13.84 C12.8053336,14.0373343 12.9239991,14.1959994 13.108,14.316 C13.2920009,14.4360006 13.5226653,14.496 13.8,14.496 C14.141335,14.496 14.4386654,14.4053342 14.692,14.224 C14.9453346,14.0426658 15.1399993,13.785335 15.276,13.452 C15.4120007,13.118665 15.48,12.7306689 15.48,12.288 C15.48,11.7013304 15.346668,11.1840022 15.08,10.736 C14.813332,10.2879978 14.4266692,9.9373346 13.92,9.684 C13.4133308,9.4306654 12.8080035,9.304 12.104,9.304 C11.4106632,9.304 10.793336,9.44533192 10.252,9.728 C9.71066396,10.0106681 9.2866682,10.422664 8.98,10.964 C8.6733318,11.505336 8.52,12.1546629 8.52,12.912 C8.52,13.5680033 8.66399856,14.1519974 8.952,14.664 C9.24000144,15.1760026 9.65333064,15.5746652 10.192,15.86 Z M12.484,13.332 C12.3266659,13.5853346 12.1066681,13.712 11.824,13.712 C11.6639992,13.712 11.5413338,13.649334 11.456,13.524 C11.3706662,13.398666 11.328,13.2373343 11.328,13.04 C11.328,12.714665 11.4026659,12.4240013 11.552,12.168 C11.7013341,11.9119987 11.909332,11.784 12.176,11.784 C12.3466675,11.784 12.4799995,11.8399994 12.576,11.952 C12.6720005,12.0640006 12.72,12.2293322 12.72,12.448 C12.72,12.7840017 12.6413341,13.0786654 12.484,13.332 Z"/>
  </defs>
  <g fill="none" fill-rule="evenodd">
    <rect width="24" height="24"/>
    <use fill="#1C2025" xlink:href="#bell-at-solid-a"/>
  </g>
</svg>
