<svg width="24" height="24" viewBox="0 0 24 24" fill="none" xmlns="http://www.w3.org/2000/svg">
<path fill-rule="evenodd" clip-rule="evenodd" d="M19 14L20.5613 18.6838C20.7359 19.2077 20.4527 19.774 19.9288 19.9487C19.8268 19.9827 19.7201 20 19.6126 20H14C14 21.1046 13.1046 22 12 22C10.8954 22 9.99999 21.1046 9.99999 20H4.38742C3.83514 20 3.38742 19.5523 3.38742 19C3.38742 18.8925 3.40475 18.7857 3.43874 18.6838L4.99999 14V10C4.99999 7.02642 7.16313 4.55806 10.0017 4.08268C10.0006 4.05526 9.99999 4.02769 9.99999 4C9.99999 2.89543 10.8954 2 12 2C13.1046 2 14 2.89543 14 4C14 4.02769 13.9994 4.05526 13.9983 4.08268C16.8369 4.55806 19 7.02642 19 10V14Z" fill="#636363"/>
</svg>
