<svg width="24" height="24" viewBox="0 0 24 24" fill="none" xmlns="http://www.w3.org/2000/svg">
<path fill-rule="evenodd" clip-rule="evenodd" d="M14 4C14 4.02769 13.9995 4.05526 13.9983 4.08268C16.8369 4.55806 19 7.02642 19 10L19 14L20.5613 18.6838C20.7359 19.2077 20.4528 19.774 19.9288 19.9487C19.8269 19.9827 19.7201 20 19.6126 20H14C14 21.1046 13.1046 22 12 22C10.8955 22 10 21.1046 10 20H4.38745C3.83517 20 3.38745 19.5523 3.38745 19C3.38745 18.8925 3.40478 18.7857 3.43877 18.6838L5.00003 14V10C5.00003 7.02642 7.16316 4.55806 10.0017 4.08268C10.0006 4.05526 10 4.02769 10 4C10 2.89543 10.8955 2 12 2C13.1046 2 14 2.89543 14 4ZM17 10L17 14L18 18H12H6.00003L7.00003 14V10C7.00003 7.79086 8.79089 6 11 6H12H13C15.2092 6 17 7.79086 17 10ZM8.95203 14.664C9.24003 15.176 9.65336 15.5747 10.192 15.86C10.7307 16.1453 11.36 16.288 12.08 16.288C12.5014 16.288 12.888 16.2427 13.24 16.152C13.592 16.0613 13.872 15.9547 14.08 15.832C14.2294 15.7253 14.304 15.5973 14.304 15.448C14.304 15.336 14.2614 15.2373 14.176 15.152C14.0907 15.0667 13.9894 15.024 13.872 15.024C13.7974 15.024 13.7147 15.048 13.624 15.096C13.3787 15.224 13.14 15.316 12.908 15.372C12.676 15.428 12.4 15.456 12.08 15.456C11.552 15.456 11.0947 15.3507 10.708 15.14C10.3214 14.9293 10.0267 14.6333 9.82403 14.252C9.62136 13.8707 9.52003 13.424 9.52003 12.912C9.52003 12.3253 9.62936 11.8227 9.84803 11.404C10.0667 10.9853 10.372 10.668 10.764 10.452C11.156 10.236 11.6027 10.128 12.104 10.128C12.8987 10.128 13.5054 10.3147 13.924 10.688C14.3427 11.0613 14.552 11.5947 14.552 12.288C14.552 12.6187 14.5214 12.8907 14.46 13.104C14.3987 13.3173 14.324 13.472 14.236 13.568C14.148 13.664 14.0614 13.712 13.976 13.712C13.8427 13.712 13.748 13.6747 13.692 13.6C13.636 13.5253 13.608 13.4133 13.608 13.264C13.608 13.1573 13.6214 13.016 13.648 12.84L13.856 11.68C13.8667 11.616 13.872 11.5707 13.872 11.544C13.872 11.4053 13.8307 11.2947 13.748 11.212C13.6654 11.1293 13.552 11.088 13.408 11.088C13.264 11.088 13.1494 11.12 13.064 11.184C12.9787 11.248 12.9254 11.3387 12.904 11.456V11.472H12.88C12.8 11.312 12.6827 11.1933 12.528 11.116C12.3734 11.0387 12.192 11 11.984 11C11.664 11 11.3774 11.088 11.124 11.264C10.8707 11.44 10.672 11.6827 10.528 11.992C10.384 12.3013 10.312 12.648 10.312 13.032C10.312 13.4693 10.4227 13.8227 10.644 14.092C10.8654 14.3613 11.184 14.496 11.6 14.496C11.872 14.496 12.092 14.4387 12.26 14.324C12.428 14.2093 12.5867 14.048 12.736 13.84H12.752C12.8054 14.0373 12.924 14.196 13.108 14.316C13.292 14.436 13.5227 14.496 13.8 14.496C14.1414 14.496 14.4387 14.4053 14.692 14.224C14.9454 14.0427 15.14 13.7853 15.276 13.452C15.412 13.1187 15.48 12.7307 15.48 12.288C15.48 11.7013 15.3467 11.184 15.08 10.736C14.8134 10.288 14.4267 9.93733 13.92 9.684C13.4134 9.43067 12.808 9.304 12.104 9.304C11.4107 9.304 10.7934 9.44533 10.252 9.728C9.71069 10.0107 9.28669 10.4227 8.98003 10.964C8.67336 11.5053 8.52003 12.1547 8.52003 12.912C8.52003 13.568 8.66402 14.152 8.95203 14.664ZM12.72 12.448C12.72 12.784 12.6414 13.0787 12.484 13.332C12.3267 13.5853 12.1067 13.712 11.824 13.712C11.664 13.712 11.5414 13.6493 11.456 13.524C11.3707 13.3987 11.328 13.2373 11.328 13.04C11.328 12.7147 11.4027 12.424 11.552 12.168C11.7014 11.912 11.9094 11.784 12.176 11.784C12.3467 11.784 12.48 11.84 12.576 11.952C12.672 12.064 12.72 12.2293 12.72 12.448Z" fill="#636363"/>
</svg>
