<svg width="24" height="24" viewBox="0 0 24 24" fill="none" xmlns="http://www.w3.org/2000/svg">
<path fill-rule="evenodd" clip-rule="evenodd" d="M10 5.2C10 4.53726 10.5373 4 11.2 4H12.8C13.4628 4 14 4.53726 14 5.2V6.8C14 7.39461 13.5676 7.88821 13 7.98341V8.06188C16.9463 8.55397 20 11.9204 20 16H18C18 12.6863 15.3137 9.99999 12 9.99999C8.68632 9.99999 6.00002 12.6863 6.00002 16H4.00002C4.00002 11.9204 7.0537 8.554 11 8.06189V7.9834C10.4325 7.88818 10 7.39459 10 6.8V5.2ZM4.00002 16V18H20V16H4.00002ZM3 18C2.44772 18 2 18.4477 2 19C2 19.5523 2.44772 20 3 20H21C21.5523 20 22 19.5523 22 19C22 18.4477 21.5523 18 21 18H3Z" fill="#636363"/>
</svg>
