<svg xmlns="http://www.w3.org/2000/svg" xmlns:xlink="http://www.w3.org/1999/xlink" width="24" height="24" viewBox="0 0 24 24">
  <defs>
    <path id="briefacse-a" d="M11,14 L13,14 L13,12 L11,12 L11,14 Z M9,14 L9,12 L4,12 L4,10 L20,10 L20,12 L15,12 L15,14 C15,15.1045695 14.1045695,16 13,16 L11,16 C9.8954305,16 9,15.1045695 9,14 Z M6,6 L6,4 C6,2.8954305 6.8954305,2 8,2 L16,2 C17.1045695,2 18,2.8954305 18,4 L18,6 L20,6 C21.1045695,6 22,6.8954305 22,8 L22,20 C22,21.1045695 21.1045695,22 20,22 L4,22 C2.8954305,22 2,21.1045695 2,20 L2,8 C2,6.8954305 2.8954305,6 4,6 L6,6 Z M8,8 L4,8 L4,20 L20,20 L20,8 L16,8 L8,8 Z M8,4 L8,6 L16,6 L16,4 L8,4 Z"/>
  </defs>
  <g fill="none" fill-rule="evenodd">
    <rect width="24" height="24"/>
    <use fill="#1C2025" fill-rule="nonzero" xlink:href="#briefacse-a"/>
  </g>
</svg>
