<svg width="24" height="24" viewBox="0 0 24 24" fill="none" xmlns="http://www.w3.org/2000/svg">
<path fill-rule="evenodd" clip-rule="evenodd" d="M20 2.86613C20.2761 2.38784 20.8877 2.22397 21.366 2.50011C21.8443 2.77625 22.0082 3.38784 21.732 3.86613L18.058 10.2298C18.6428 10.8483 19 11.6668 19 12.6074C19 17.3311 16.1765 22.0548 14.2941 22.0548C12.4118 22.0548 3 20.8738 3 14.9692C6.11017 14.9692 7.82357 13.4119 9.50463 11.8839C10.8758 10.6375 12.2255 9.41072 14.2941 9.06465C15.0139 8.94424 15.7163 8.99603 16.3495 9.18897L20 2.86613ZM10.6284 19.4942C10.2631 19.3999 9.89794 19.2945 9.54262 19.1787L10.1003 18.2127C10.3765 17.7344 10.2126 17.1228 9.73429 16.8467C9.256 16.5706 8.64441 16.7344 8.36827 17.2127L7.67499 18.4135C6.69657 17.9112 5.98191 17.3367 5.53869 16.6877C7.34079 16.2356 8.81252 15.2145 10.7559 13.4492L10.9686 13.2559C12.6186 11.7578 13.4227 11.2382 14.6241 11.0372C15.2936 10.9252 15.9285 11.072 16.381 11.4065C16.7841 11.7045 17 12.116 17 12.6074C17 14.4832 16.4575 16.5253 15.5868 18.1641C15.2094 18.8742 14.7988 19.4484 14.4267 19.8115C14.312 19.9234 14.2125 20.0039 14.1371 20.0527C13.7371 20.0427 13.2417 19.9957 12.695 19.9148L14.4551 16.8661C14.7313 16.3878 14.5674 15.7763 14.0891 15.5001C13.6108 15.224 12.9992 15.3878 12.7231 15.8661L10.6284 19.4942ZM6 11.5001C6 12.3285 5.32843 13.0001 4.5 13.0001C3.67157 13.0001 3 12.3285 3 11.5001C3 10.6717 3.67157 10.0001 4.5 10.0001C5.32843 10.0001 6 10.6717 6 11.5001ZM3 8.00011C3.55228 8.00011 4 7.55239 4 7.00011C4 6.44782 3.55228 6.00011 3 6.00011C2.44772 6.00011 2 6.44782 2 7.00011C2 7.55239 2.44772 8.00011 3 8.00011ZM8 8.00011C8 8.55239 7.55228 9.00011 7 9.00011C6.44772 9.00011 6 8.55239 6 8.00011C6 7.44782 6.44772 7.00011 7 7.00011C7.55228 7.00011 8 7.44782 8 8.00011Z" fill="#636363"/>
</svg>
