<svg width="24" height="24" viewBox="0 0 24 24" fill="none" xmlns="http://www.w3.org/2000/svg">
<path fill-rule="evenodd" clip-rule="evenodd" d="M18 4H20C21.1046 4 22 4.89543 22 6V20C22 21.1046 21.1046 22 20 22H4C2.89543 22 2 21.1046 2 20V6C2 4.89543 2.89543 4 4 4H6V3C6 2.44772 6.44772 2 7 2C7.55228 2 8 2.44772 8 3V4H16V3C16 2.44772 16.4477 2 17 2C17.5523 2 18 2.44772 18 3V4ZM5 10H7V12H5V10ZM8 10H10V12H8V10ZM11 10H13V12H11V10ZM14 10H16V12H14V10ZM17 10H19V12H17V10ZM5 13H7V15H5V13ZM8 13H10V15H8V13ZM11 13H13V15H11V13ZM14 13H16V15H14V13ZM17 13H19V15H17V13ZM5 16H7V18H5V16ZM8 16H10V18H8V16ZM11 16H13V18H11V16ZM14 16H16V18H14V16ZM17 16H19V18H17V16ZM4 6H20V8H4V6Z" fill="#636363"/>
</svg>
