<svg width="24" height="24" viewBox="0 0 24 24" fill="none" xmlns="http://www.w3.org/2000/svg">
<path fill-rule="evenodd" clip-rule="evenodd" d="M6 3C6 2.44772 6.44772 2 7 2C7.55228 2 8 2.44772 8 3V4H16V3C16 2.44772 16.4477 2 17 2C17.5523 2 18 2.44772 18 3V4H20C21.1046 4 22 4.89543 22 6V20C22 21.1046 21.1046 22 20 22H4C2.89543 22 2 21.1046 2 20V6C2 4.89543 2.89543 4 4 4H6V3ZM4 20V6H20V20H4ZM16.5962 7.48959L18.0104 8.90381C18.7915 9.68485 18.7915 10.9512 18.0104 11.7322L12.432 17.3107L6.6967 18.8033L8.43934 12.818L13.7678 7.48959C14.5488 6.70854 15.8151 6.70854 16.5962 7.48959ZM16.5962 10.318L11.4022 15.5121L9.60157 15.9807L10.2162 13.8696L15.182 8.90381L16.5962 10.318Z" fill="#636363"/>
</svg>
