<svg width="24" height="24" viewBox="0 0 24 24" fill="none" xmlns="http://www.w3.org/2000/svg">
<path fill-rule="evenodd" clip-rule="evenodd" d="M6 3C6 2.44772 6.44772 2 7 2C7.55228 2 8 2.44772 8 3V4H16V3C16 2.44772 16.4477 2 17 2C17.5523 2 18 2.44772 18 3V4H20C21.1046 4 22 4.89543 22 6V20C22 21.1046 21.1046 22 20 22H4C2.89543 22 2 21.1046 2 20V6C2 4.89543 2.89543 4 4 4H6V3ZM4 20V6H20V20H4ZM12 8C11.4477 8 11 8.44772 11 9V12H8C7.44772 12 7 12.4477 7 13C7 13.5523 7.44772 14 8 14H11V17C11 17.5523 11.4477 18 12 18C12.5523 18 13 17.5523 13 17V14H16C16.5523 14 17 13.5523 17 13C17 12.4477 16.5523 12 16 12H13V9C13 8.44772 12.5523 8 12 8Z" fill="#636363"/>
</svg>
