<svg width="24" height="24" viewBox="0 0 24 24" fill="none" xmlns="http://www.w3.org/2000/svg">
<path fill-rule="evenodd" clip-rule="evenodd" d="M10 6C9.44772 6 9 6.44772 9 7V17C9 17.5523 9.44772 18 10 18C10.5523 18 11 17.5523 11 17V7C11 6.44772 10.5523 6 10 6ZM6 10C5.44772 10 5 10.4477 5 11V13C5 13.5523 5.44772 14 6 14C6.55228 14 7 13.5523 7 13V11C7 10.4477 6.55228 10 6 10ZM13 11C13 10.4477 13.4477 10 14 10C14.5523 10 15 10.4477 15 11V13C15 13.5523 14.5523 14 14 14C13.4477 14 13 13.5523 13 13V11ZM18 9C17.4477 9 17 9.44772 17 10V14C17 14.5523 17.4477 15 18 15C18.5523 15 19 14.5523 19 14V10C19 9.44772 18.5523 9 18 9Z" fill="#2B2B2B"/>
</svg>
