<svg width="24" height="24" viewBox="0 0 24 24" fill="none" xmlns="http://www.w3.org/2000/svg">
<path fill-rule="evenodd" clip-rule="evenodd" d="M6.46261 5H6.43739L3.73524 2.29786C3.33819 1.9008 2.69455 1.9007 2.29763 2.29763C1.9007 2.69455 1.9008 3.33819 2.29786 3.73524L3.80853 5.24592C2.74443 5.70689 2 6.76651 2 8V17C2 18.6569 3.34315 20 5 20H18.5626L20.2648 21.7021C20.6618 22.0992 21.3055 22.0993 21.7024 21.7024C22.0993 21.3055 22.0992 20.6618 21.7021 20.2648L20.8214 19.384C20.8262 19.3804 20.8309 19.3767 20.8356 19.373L15.464 14.0014C15.461 14.0068 15.4579 14.0121 15.4548 14.0174L13.9371 12.4997C13.9388 12.493 13.9405 12.4863 13.9421 12.4795L11.5205 10.0579C11.5137 10.0595 11.507 10.0612 11.5003 10.0629L9.98263 8.54524C9.98793 8.54213 9.99325 8.53904 9.99857 8.53596L6.46261 5ZM15.9847 11.6473C15.8162 9.71956 14.2804 8.18376 12.3527 8.01534L8.16869 3.83131L8.41421 3.58579C8.78929 3.21071 9.29799 3 9.82843 3H14.1716C14.702 3 15.2107 3.21071 15.5858 3.58579L17 5H19C20.6569 5 22 6.34315 22 8V17C22 17.2062 21.9792 17.4076 21.9396 17.6022L15.9847 11.6473ZM8 12C8 11.2642 8.19865 10.5749 8.54524 9.98263L10.0629 11.5003C10.0218 11.66 10 11.8275 10 12C10 13.1046 10.8954 14 12 14C12.1725 14 12.34 13.9782 12.4997 13.9371L14.0174 15.4548C13.4251 15.8014 12.7358 16 12 16C9.79086 16 8 14.2091 8 12Z" fill="#636363"/>
</svg>
