<svg width="24" height="24" viewBox="0 0 24 24" fill="none" xmlns="http://www.w3.org/2000/svg">
<path fill-rule="evenodd" clip-rule="evenodd" d="M6.46261 5H6.43739L3.73524 2.29786C3.33819 1.9008 2.69455 1.9007 2.29763 2.29763C1.9007 2.69455 1.9008 3.33819 2.29786 3.73524L3.80853 5.24592C2.74443 5.70689 2 6.76651 2 8V17C2 18.6569 3.34315 20 5 20H18.5626L20.2648 21.7021C20.6618 22.0992 21.3055 22.0993 21.7024 21.7024C22.0993 21.3055 22.0992 20.6618 21.7021 20.2648L20.8214 19.384C20.8262 19.3804 20.8309 19.3767 20.8356 19.373L19.3856 17.923C19.3796 17.9254 19.3736 17.9279 19.3676 17.9303L15.4548 14.0174C15.4579 14.0121 15.461 14.0068 15.464 14.0014L13.9421 12.4795C13.9405 12.4863 13.9388 12.493 13.9371 12.4997L11.5003 10.0629C11.507 10.0612 11.5137 10.0595 11.5205 10.0579L9.99857 8.53596C9.99325 8.53904 9.98793 8.54213 9.98263 8.54524L8.13291 6.69552L8.14552 6.68291L6.46261 5ZM12.3527 8.01534L15.9847 11.6473C15.8162 9.71956 14.2804 8.18376 12.3527 8.01534ZM20 15.6626V8C20 7.44772 19.5523 7 19 7H16.1716L14.1716 5H9.82843L9.58291 5.24552L8.16869 3.83131L8.41421 3.58579C8.78929 3.21071 9.29799 3 9.82843 3H14.1716C14.702 3 15.2107 3.21071 15.5858 3.58579L17 5H19C20.6569 5 22 6.34315 22 8V17C22 17.2062 21.9792 17.4076 21.9396 17.6022L20 15.6626ZM5 7H5.56261L8.54524 9.98263C8.19865 10.5749 8 11.2642 8 12C8 14.2091 9.79086 16 12 16C12.7358 16 13.4251 15.8014 14.0174 15.4548L16.5626 18H5C4.44772 18 4 17.5523 4 17V8C4 7.44772 4.44772 7 5 7ZM10 12C10 11.8275 10.0218 11.66 10.0629 11.5003L12.4997 13.9371C12.34 13.9782 12.1725 14 12 14C10.8954 14 10 13.1046 10 12Z" fill="#636363"/>
</svg>
