<svg width="24" height="24" viewBox="0 0 24 24" fill="none" xmlns="http://www.w3.org/2000/svg">
<path fill-rule="evenodd" clip-rule="evenodd" d="M20 4H4C2.89543 4 2 4.89543 2 6V18C2 19.1046 2.89543 20 4 20H20C21.1046 20 22 19.1046 22 18V6C22 4.89543 21.1046 4 20 4ZM4 18V6H20V18H4ZM10.9735 12.2595C11.6026 11.7096 12 10.9012 12 10C12 8.34315 10.6569 7 9 7C7.34315 7 6 8.34315 6 10C6 10.9012 6.39738 11.7096 7.02647 12.2595C5.53935 12.7442 5 13.9077 5 15.75C5 16.5833 5.33333 17 6 17H12C12.6667 17 13 16.5833 13 15.75C13 13.9077 12.4606 12.7442 10.9735 12.2595ZM14 10C14 9.44772 14.4477 9 15 9H18C18.5523 9 19 9.44772 19 10C19 10.5523 18.5523 11 18 11H15C14.4477 11 14 10.5523 14 10ZM15 13C14.4477 13 14 13.4477 14 14C14 14.5523 14.4477 15 15 15H18C18.5523 15 19 14.5523 19 14C19 13.4477 18.5523 13 18 13H15Z" fill="#636363"/>
</svg>
