<svg width="24" height="24" viewBox="0 0 24 24" fill="none" xmlns="http://www.w3.org/2000/svg">
<path fill-rule="evenodd" clip-rule="evenodd" d="M2 12C2 17.5228 6.47715 22 12 22C17.5228 22 22 17.5228 22 12C22 6.47715 17.5228 2 12 2C6.47715 2 2 6.47715 2 12ZM15.6667 16.8407V15.2255H16C16.5523 15.2255 17 14.7778 17 14.2255V9C17 8.44772 16.5523 8 16 8H8C7.44772 8 7 8.44772 7 9V14.2255C7 14.7778 7.44772 15.2255 8 15.2255H11.6373L13.9596 17.5478C14.1471 17.7353 14.4015 17.8407 14.6667 17.8407C15.219 17.8407 15.6667 17.393 15.6667 16.8407Z" fill="#636363"/>
</svg>
