<svg width="24" height="24" viewBox="0 0 24 24" fill="none" xmlns="http://www.w3.org/2000/svg">
<path fill-rule="evenodd" clip-rule="evenodd" d="M3.00024 6C6.98394 5.43301 9.02178 4.99756 12.0002 2C14.9843 5.00244 17.0165 5.43301 21.0002 6C22.6718 6.23792 19.537 22 12.0002 22C4.53417 22 1.32863 6.23792 3.00024 6ZM4.637 8.36108C4.81187 9.81222 5.27777 11.6472 5.94051 13.3718C7.52257 17.4888 9.76751 20 12.0002 20C14.2651 20 16.512 17.4928 18.0851 13.3754C18.7431 11.653 19.203 9.81954 19.3726 8.36824C19.3973 8.15658 19.4148 7.96011 19.4255 7.78268C15.9884 7.21549 14.0912 6.50001 12.0001 4.73139C9.91164 6.49687 8.01147 7.21449 4.58224 7.7814C4.59369 7.95727 4.61177 8.15175 4.637 8.36108ZM8.12625 11H8.00024C7.44795 11 7.00024 11.4477 7.00024 12C7.00024 12.5523 7.44795 13 8.00024 13H8.12625C8.48803 14.4056 9.59463 15.5122 11.0002 15.874V16C11.0002 16.5523 11.448 17 12.0002 17C12.5525 17 13.0002 16.5523 13.0002 16V15.874C14.4058 15.5122 15.5124 14.4056 15.8742 13H16.0002C16.5525 13 17.0002 12.5523 17.0002 12C17.0002 11.4477 16.5525 11 16.0002 11H15.8742C15.5124 9.59439 14.4058 8.4878 13.0002 8.12602V8C13.0002 7.44772 12.5525 7 12.0002 7C11.448 7 11.0002 7.44772 11.0002 8V8.12602C9.59463 8.4878 8.48803 9.59439 8.12625 11ZM12.0002 14C13.1048 14 14.0002 13.1046 14.0002 12C14.0002 10.8954 13.1048 10 12.0002 10C10.8957 10 10.0002 10.8954 10.0002 12C10.0002 13.1046 10.8957 14 12.0002 14ZM13.0002 12C13.0002 12.5523 12.5525 13 12.0002 13C11.448 13 11.0002 12.5523 11.0002 12C11.0002 11.4477 11.448 11 12.0002 11C12.5525 11 13.0002 11.4477 13.0002 12Z" fill="#636363"/>
</svg>
