<svg width="24" height="24" viewBox="0 0 24 24" fill="none" xmlns="http://www.w3.org/2000/svg">
<path fill-rule="evenodd" clip-rule="evenodd" d="M10.8964 8.34568L4.91997 15.2531L3.70711 14.0403C3.31658 13.6497 2.68342 13.6497 2.29289 14.0403C1.90237 14.4308 1.90237 15.064 2.29289 15.4545L4.26581 17.4274C4.6764 17.838 5.34921 17.8137 5.72915 17.3746L12.4088 9.65429C12.7702 9.23663 12.7246 8.60511 12.3069 8.24375C11.8893 7.88239 11.2577 7.92803 10.8964 8.34568ZM21.6543 8.24375C21.2366 7.88239 20.6051 7.92803 20.2438 8.34568L14.2674 15.2531L13.0545 14.0403C12.664 13.6497 12.0308 13.6497 11.6403 14.0403C11.2498 14.4308 11.2498 15.064 11.6403 15.4545L13.6132 17.4274C14.0238 17.838 14.6966 17.8137 15.0765 17.3746L21.7562 9.65429C22.1176 9.23663 22.072 8.60511 21.6543 8.24375Z" fill="#636363"/>
</svg>
