<svg width="24" height="24" viewBox="0 0 24 24" fill="none" xmlns="http://www.w3.org/2000/svg">
<path fill-rule="evenodd" clip-rule="evenodd" d="M12.0002 2C9.02178 4.99756 6.98394 5.43301 3.00024 6C1.32863 6.23792 4.53417 22 12.0002 22C19.537 22 22.6718 6.23792 21.0002 6C17.0165 5.43301 14.9843 5.00244 12.0002 2ZM8.12625 11H8.00024C7.44795 11 7.00024 11.4477 7.00024 12C7.00024 12.5523 7.44795 13 8.00024 13H8.12625C8.48803 14.4056 9.59463 15.5122 11.0002 15.874V16C11.0002 16.5523 11.448 17 12.0002 17C12.5525 17 13.0002 16.5523 13.0002 16V15.874C14.4058 15.5122 15.5124 14.4056 15.8742 13H16.0002C16.5525 13 17.0002 12.5523 17.0002 12C17.0002 11.4477 16.5525 11 16.0002 11H15.8742C15.5124 9.59439 14.4058 8.4878 13.0002 8.12602V8C13.0002 7.44772 12.5525 7 12.0002 7C11.448 7 11.0002 7.44772 11.0002 8V8.12602C9.59463 8.4878 8.48803 9.59439 8.12625 11ZM12.0002 14C13.1048 14 14.0002 13.1046 14.0002 12C14.0002 10.8954 13.1048 10 12.0002 10C10.8957 10 10.0002 10.8954 10.0002 12C10.0002 13.1046 10.8957 14 12.0002 14ZM13.0002 12C13.0002 12.5523 12.5525 13 12.0002 13C11.448 13 11.0002 12.5523 11.0002 12C11.0002 11.4477 11.448 11 12.0002 11C12.5525 11 13.0002 11.4477 13.0002 12Z" fill="#636363"/>
</svg>
