<svg width="24" height="24" viewBox="0 0 24 24" fill="none" xmlns="http://www.w3.org/2000/svg">
<path fill-rule="evenodd" clip-rule="evenodd" d="M22 12C22 17.5228 17.5228 22 12 22C6.47715 22 2 17.5228 2 12C2 6.47715 6.47715 2 12 2C14.4815 2 16.752 2.9039 18.5 4.40041V3C18.5 2.44772 18.9477 2 19.5 2C20.0523 2 20.5 2.44772 20.5 3V7C20.5 7.55228 20.0523 8 19.5 8H15.5C14.9477 8 14.5 7.55228 14.5 7C14.5 6.44772 14.9477 6 15.5 6H17.2918C15.8439 4.721 13.9811 4 12 4C7.58172 4 4 7.58172 4 12C4 16.4183 7.58172 20 12 20C16.4183 20 20 16.4183 20 12C20 11.4477 20.4477 11 21 11C21.5523 11 22 11.4477 22 12ZM12 8C11.4477 8 11 8.44772 11 9V13C11 13.5523 11.4477 14 12 14H15C15.5523 14 16 13.5523 16 13C16 12.4477 15.5523 12 15 12H13V9C13 8.44772 12.5523 8 12 8Z" fill="#636363"/>
</svg>
