<svg width="24" height="24" viewBox="0 0 24 24" fill="none" xmlns="http://www.w3.org/2000/svg">
<path fill-rule="evenodd" clip-rule="evenodd" d="M4.13538 8.7267C2.26758 9.7435 1 11.7237 1 14C1 17.3137 3.68629 20 7 20H17C20.3137 20 23 17.3137 23 14C23 10.6863 20.3137 8 17 8C16.5558 8 16.1228 8.04828 15.8164 8.10394L15.7061 8.13987C14.9232 5.73671 12.6644 4 10 4C7.1232 4 4.71928 6.02462 4.13538 8.7267ZM13.8044 8.75938L14.3657 10.4822L16.1354 10.0932C16.4164 10.0315 16.7055 10 17 10C19.2091 10 21 11.7909 21 14C21 16.2091 19.2091 18 17 18H7C4.79086 18 3 16.2091 3 14C3 12.5176 3.81196 11.1799 5.09163 10.4833L5.89666 10.045L6.09026 9.14914C6.48435 7.32543 8.10764 6 10 6C11.7447 6 13.2728 7.12748 13.8044 8.75938ZM9 14C9 14.5523 8.55228 15 8 15C7.44772 15 7 14.5523 7 14C7 13.4477 7.44772 13 8 13C8.55228 13 9 13.4477 9 14ZM10.8293 13C10.4175 11.8348 9.30622 11 8 11C6.34315 11 5 12.3431 5 14C5 15.6569 6.34315 17 8 17C9.30622 17 10.4175 16.1652 10.8293 15H13V16C13 16.5523 13.4477 17 14 17C14.5523 17 15 16.5523 15 16V15H16V16C16 16.5523 16.4477 17 17 17C17.5523 17 18 16.5523 18 16V14C18 13.4477 17.5523 13 17 13H14H10.8293Z" fill="#636363"/>
</svg>
