<svg width="24" height="24" viewBox="0 0 24 24" fill="none" xmlns="http://www.w3.org/2000/svg">
<path fill-rule="evenodd" clip-rule="evenodd" d="M1 14C1 11.7237 2.26758 9.7435 4.13538 8.7267C4.71928 6.02462 7.1232 4 10 4C12.6644 4 14.9232 5.73671 15.7061 8.13987L15.8164 8.10394C16.1228 8.04828 16.5558 8 17 8C20.3137 8 23 10.6863 23 14C23 17.3137 20.3137 20 17 20H7C3.68629 20 1 17.3137 1 14ZM5 14C5 15.6569 6.34315 17 8 17C9.30622 17 10.4175 16.1652 10.8293 15H13V16C13 16.5523 13.4477 17 14 17C14.5523 17 15 16.5523 15 16V15H16V16C16 16.5523 16.4477 17 17 17C17.5523 17 18 16.5523 18 16V14C18 13.4477 17.5523 13 17 13H14H10.8293C10.4175 11.8348 9.30622 11 8 11C6.34315 11 5 12.3431 5 14ZM9 14C9 14.5523 8.55228 15 8 15C7.44772 15 7 14.5523 7 14C7 13.4477 7.44772 13 8 13C8.55228 13 9 13.4477 9 14Z" fill="#636363"/>
</svg>
