<svg width="24" height="24" viewBox="0 0 24 24" fill="none" xmlns="http://www.w3.org/2000/svg">
<path fill-rule="evenodd" clip-rule="evenodd" d="M4 3H20C21.1046 3 22 3.89543 22 5V17C22 18.1046 21.1046 19 20 19H17C17.5523 19 18 19.4477 18 20C18 20.5523 17.5523 21 17 21H7C6.44771 21 6 20.5523 6 20C6 19.4477 6.44772 19 7 19H4C2.89543 19 2 18.1046 2 17V5C2 3.89543 2.89543 3 4 3ZM10.5262 12.5178L10.5262 12.5178C9.13447 11.1119 7.99786 8.38992 8.59399 7.42111C9.00509 6.75301 10.8387 6.83424 11.3319 7.34038C11.658 7.67502 11.915 9.12042 11.8305 9.54285C11.8044 9.67354 11.6194 9.85159 11.4705 9.9949C11.4391 10.0251 11.4093 10.0538 11.3829 10.0802C11.2348 10.2283 11.732 10.7319 12.022 11.022L12.0314 11.0314L12.0407 11.0407C12.3307 11.3306 12.8343 11.8279 12.9825 11.6798C13.0088 11.6534 13.0375 11.6236 13.0678 11.5922C13.2111 11.4433 13.3891 11.2583 13.5198 11.2321C13.9423 11.1477 15.3877 11.4047 15.7223 11.7308C16.2284 12.224 16.3097 14.0576 15.6416 14.4687C14.6728 15.0648 11.9507 13.9282 10.5449 12.5364L10.5449 12.5365L10.5355 12.5271L10.5262 12.5178Z" fill="#636363"/>
</svg>
