<svg width="24" height="24" viewBox="0 0 24 24" fill="none" xmlns="http://www.w3.org/2000/svg">
<path fill-rule="evenodd" clip-rule="evenodd" d="M4.46261 3H4.43739L3.73524 2.29786C3.33819 1.9008 2.69455 1.9007 2.29763 2.29763C1.9007 2.69455 1.9008 3.33819 2.29786 3.73524L2.384 3.82139C2.14253 4.15192 2 4.55931 2 5V17C2 18.1046 2.89543 19 4 19H7C6.44772 19 6 19.4477 6 20C6 20.5523 6.44771 21 7 21H17C17.5523 21 18 20.5523 18 20C18 19.4477 17.5523 19 17 19H17.5626L20.2648 21.7021C20.6618 22.0992 21.3055 22.0993 21.7024 21.7024C22.0993 21.3055 22.0992 20.6618 21.7021 20.2648L20.3978 18.9604C20.4048 18.959 20.4118 18.9576 20.4187 18.9561L4.46261 3ZM21.9153 17.5779C21.9704 17.3949 22 17.2009 22 17V5C22 3.89543 21.1046 3 20 3H7.33739L21.9153 17.5779Z" fill="#636363"/>
</svg>
