<svg width="24" height="24" viewBox="0 0 24 24" fill="none" xmlns="http://www.w3.org/2000/svg">
<path fill-rule="evenodd" clip-rule="evenodd" d="M6 9C4.34315 9 3 7.65685 3 6C3 4.34315 4.34315 3 6 3C7.30622 3 8.41746 3.83481 8.82929 5H11C12.1046 5 13 5.89543 13 7V17H15.1707C15.5825 15.8348 16.6938 15 18 15C19.6569 15 21 16.3431 21 18C21 19.6569 19.6569 21 18 21C16.6938 21 15.5825 20.1652 15.1707 19H13C11.8954 19 11 18.1046 11 17V7H8.82929C8.41746 8.16519 7.30622 9 6 9ZM7 6C7 6.55228 6.55228 7 6 7C5.44772 7 5 6.55228 5 6C5 5.44772 5.44772 5 6 5C6.55228 5 7 5.44772 7 6ZM19 18C19 18.5523 18.5523 19 18 19C17.4477 19 17 18.5523 17 18C17 17.4477 17.4477 17 18 17C18.5523 17 19 17.4477 19 18Z" fill="#636363"/>
</svg>
