<svg width="24" height="24" viewBox="0 0 24 24" fill="none" xmlns="http://www.w3.org/2000/svg">
<path fill-rule="evenodd" clip-rule="evenodd" d="M5 2H13H15H15.5858C15.851 2 16.1054 2.10536 16.2929 2.29289L19.7071 5.70711C19.8946 5.89464 20 6.149 20 6.41421V21C20 21.5523 19.5523 22 19 22H5C4.44772 22 4 21.5523 4 21V3C4 2.44772 4.44772 2 5 2ZM9.78577 12.0254C9.50336 11.7414 9.15998 11.5982 8.76125 11.5982C8.36253 11.5982 8.01915 11.7414 7.73674 12.0254C7.45445 12.3093 7.31213 12.6532 7.31213 13.0518V16.6509C7.31213 17.0495 7.45452 17.3928 7.73693 17.6752C8.01935 17.9576 8.36264 18.1 8.76125 18.1C9.15986 18.1 9.50316 17.9576 9.78558 17.6752C10.068 17.3928 10.2104 17.0495 10.2104 16.6509V16.1982L10.1104 16.0982H9.21389L9.11389 16.1982V16.6509C9.11389 16.7502 9.0806 16.8307 9.01194 16.8982C8.94287 16.9661 8.86116 16.9991 8.76125 16.9991C8.66158 16.9991 8.58087 16.9663 8.51336 16.8988C8.44585 16.8313 8.41301 16.7506 8.41301 16.6509V13.0518C8.41301 12.9518 8.44603 12.8701 8.51395 12.8011C8.58146 12.7324 8.66193 12.6991 8.76125 12.6991C8.86081 12.6991 8.94228 12.7326 9.01134 12.8017C9.08041 12.8707 9.11389 12.9522 9.11389 13.0518V13.5L9.21389 13.6H10.1104L10.2104 13.5V13.0518C10.2104 12.6532 10.0681 12.3093 9.78577 12.0254ZM10.5289 16.1982L10.6289 16.0982H11.5298L11.6298 16.1982V16.6509C11.6298 16.7502 11.6631 16.8307 11.7318 16.8982C11.8008 16.9661 11.8825 16.9991 11.9824 16.9991C12.0821 16.9991 12.1628 16.9663 12.2303 16.8988C12.2978 16.8313 12.3307 16.7506 12.3307 16.6509V15.75C12.3307 15.6503 12.2978 15.5696 12.2303 15.5021C12.1628 15.4346 12.0821 15.4018 11.9817 15.4018C11.5494 15.3986 11.1858 15.2358 10.8969 14.9154C10.6522 14.6394 10.5289 14.3155 10.5289 13.9482V13.0518C10.5289 12.6531 10.6721 12.3091 10.9559 12.0252C11.2398 11.7414 11.5838 11.5982 11.9824 11.5982C12.3812 11.5982 12.7245 11.7414 13.007 12.0254C13.2892 12.3093 13.4316 12.6532 13.4316 13.0518V13.5L13.3316 13.6H12.4307L12.3307 13.5V13.0518C12.3307 12.9518 12.2977 12.8701 12.2297 12.8011C12.1622 12.7324 12.0818 12.6991 11.9824 12.6991C11.8829 12.6991 11.8014 12.7326 11.7324 12.8017C11.6633 12.8707 11.6298 12.9522 11.6298 13.0518V13.9482C11.6298 14.0478 11.6633 14.1293 11.7324 14.1983C11.8014 14.2674 11.8829 14.3009 11.9824 14.3009C12.4121 14.3009 12.7746 14.4623 13.0636 14.7828C13.3083 15.0589 13.4316 15.3827 13.4316 15.75V16.6509C13.4316 17.0495 13.2892 17.3928 13.0068 17.6752C12.7244 17.9576 12.3811 18.1 11.9824 18.1C11.5839 18.1 11.24 17.9577 10.9561 17.6754C10.6721 17.393 10.5289 17.0496 10.5289 16.6509V16.1982ZM15.8507 11.707L15.9507 11.5982H16.856L16.9545 11.7158L15.8295 18.0263L15.731 18.1088H14.8257L14.7273 18.0263L13.6023 11.7158L13.7007 11.5982H14.606L14.706 11.6982L15.2747 14.8336L15.8507 11.707Z" fill="#636363"/>
</svg>
