<svg width="24" height="24" viewBox="0 0 24 24" fill="none" xmlns="http://www.w3.org/2000/svg">
<path fill-rule="evenodd" clip-rule="evenodd" d="M10 2H4C3.44772 2 3 2.44772 3 3V12C3 12.5523 3.44772 13 4 13H10C10.5523 13 11 12.5523 11 12V3C11 2.44772 10.5523 2 10 2ZM20 11H14C13.4477 11 13 11.4477 13 12V21C13 21.5523 13.4477 22 14 22H20C20.5523 22 21 21.5523 21 21V12C21 11.4477 20.5523 11 20 11ZM4 15H10C10.5523 15 11 15.4477 11 16V21C11 21.5523 10.5523 22 10 22H4C3.44772 22 3 21.5523 3 21V16C3 15.4477 3.44772 15 4 15ZM20 2H14C13.4477 2 13 2.44772 13 3V8C13 8.55228 13.4477 9 14 9H20C20.5523 9 21 8.55228 21 8V3C21 2.44772 20.5523 2 20 2Z" fill="#636363"/>
</svg>
