<svg width="24" height="24" viewBox="0 0 24 24" fill="none" xmlns="http://www.w3.org/2000/svg">
<path fill-rule="evenodd" clip-rule="evenodd" d="M10 2H4C3.44772 2 3 2.44772 3 3V12C3 12.5523 3.44772 13 4 13H10C10.5523 13 11 12.5523 11 12V3C11 2.44772 10.5523 2 10 2ZM5 11V4H9V11H5ZM14 11H20C20.5523 11 21 11.4477 21 12V21C21 21.5523 20.5523 22 20 22H14C13.4477 22 13 21.5523 13 21V12C13 11.4477 13.4477 11 14 11ZM15 20V13H19V20H15ZM4 15H10C10.5523 15 11 15.4477 11 16V21C11 21.5523 10.5523 22 10 22H4C3.44772 22 3 21.5523 3 21V16C3 15.4477 3.44772 15 4 15ZM5 20V17H9V20H5ZM14 2H20C20.5523 2 21 2.44772 21 3V8C21 8.55228 20.5523 9 20 9H14C13.4477 9 13 8.55228 13 8V3C13 2.44772 13.4477 2 14 2ZM15 7V4H19V7H15Z" fill="#636363"/>
</svg>
