<svg width="24" height="24" viewBox="0 0 24 24" fill="none" xmlns="http://www.w3.org/2000/svg">
<path fill-rule="evenodd" clip-rule="evenodd" d="M3 2H21C21.5523 2 22 2.44772 22 3V7C22 7.55228 21.5523 8 21 8H3C2.44772 8 2 7.55228 2 7V3C2 2.44772 2.44772 2 3 2ZM2 10C2 9.44772 2.44772 9 3 9H21C21.5523 9 22 9.44772 22 10V14C22 14.5523 21.5523 15 21 15H3C2.44772 15 2 14.5523 2 14V10ZM22 17C22 16.4477 21.5523 16 21 16H3C2.44772 16 2 16.4477 2 17V21C2 21.5523 2.44772 22 3 22H21C21.5523 22 22 21.5523 22 21V17ZM6 4H8V6H6V4ZM12 4H10V6H12V4ZM10 11H12V13H10V11ZM12 18H10V20H12V18ZM6 11H8V13H6V11ZM8 18H6V20H8V18Z" fill="#636363"/>
</svg>
