<svg width="24" height="24" viewBox="0 0 24 24" fill="none" xmlns="http://www.w3.org/2000/svg">
<path fill-rule="evenodd" clip-rule="evenodd" d="M21 2H3C2.44772 2 2 2.44772 2 3V7C2 7.55228 2.44772 8 3 8H21C21.5523 8 22 7.55228 22 7V3C22 2.44772 21.5523 2 21 2ZM4 6V4H6V6H4ZM8 6V4H10V6H8ZM12 6H20V4H12V6ZM2 10C2 9.44772 2.44772 9 3 9H21C21.5523 9 22 9.44772 22 10V14C22 14.5523 21.5523 15 21 15H3C2.44772 15 2 14.5523 2 14V10ZM4 13V11H6V13H4ZM8 13V11H10V13H8ZM12 13V11H20V13H12ZM2 17C2 16.4477 2.44772 16 3 16H21C21.5523 16 22 16.4477 22 17V21C22 21.5523 21.5523 22 21 22H3C2.44772 22 2 21.5523 2 21V17ZM4 20V18H6V20H4ZM8 20H10V18H8V20ZM12 20H20V18H12V20Z" fill="#636363"/>
</svg>
