<svg width="24" height="24" viewBox="0 0 24 24" fill="none" xmlns="http://www.w3.org/2000/svg">
<path fill-rule="evenodd" clip-rule="evenodd" d="M4 20V4H20V20H4ZM20 2H4C2.89543 2 2 2.89543 2 4V20C2 21.1046 2.89543 22 4 22H20C21.1046 22 22 21.1046 22 20V4C22 2.89543 21.1046 2 20 2ZM9 9C9 9.88149 9.38018 10.6742 9.98551 11.2231C7.78242 11.7958 7 13.4714 7 16.25C7 17.4167 7.41667 18 8.25 18H15.75C16.5833 18 17 17.4167 17 16.25C17 13.4714 16.2176 11.7958 14.0145 11.2231C14.6198 10.6742 15 9.88149 15 9C15 7.34315 13.6569 6 12 6C10.3431 6 9 7.34315 9 9ZM13 9C13 9.55228 12.5523 10 12 10C11.4477 10 11 9.55228 11 9C11 8.44772 11.4477 8 12 8C12.5523 8 13 8.44772 13 9ZM12 13C14.3607 13 14.9615 13.5876 14.9982 16H9.00183C9.03848 13.5876 9.63935 13 12 13Z" fill="#636363"/>
</svg>
