<svg xmlns="http://www.w3.org/2000/svg" xmlns:xlink="http://www.w3.org/1999/xlink" width="24" height="24" viewBox="0 0 24 24">
  <defs>
    <path id="directory-full-a" d="M8.17548392,12.2208987 C7.33280798,13.0947943 7,14.437828 7,16.25 C7,17.4166667 7.41666667,18 8.25,18 L15.75,18 C16.5833333,18 17,17.4166667 17,16.25 C17,14.437828 16.667192,13.0947943 15.8245161,12.2208987 C14.9073284,13.3088537 13.5343771,14 12,14 C10.4656229,14 9.09267165,13.3088537 8.17548392,12.2208987 Z M4,2 L20,2 C21.1045695,2 22,2.8954305 22,4 L22,20 C22,21.1045695 21.1045695,22 20,22 L4,22 C2.8954305,22 2,21.1045695 2,20 L2,4 C2,2.8954305 2.8954305,2 4,2 Z M12,12 C13.6568542,12 15,10.6568542 15,9 C15,7.34314575 13.6568542,6 12,6 C10.3431458,6 9,7.34314575 9,9 C9,10.6568542 10.3431458,12 12,12 Z"/>
  </defs>
  <g fill="none" fill-rule="evenodd">
    <rect width="24" height="24"/>
    <use fill="#1C2025" fill-rule="nonzero" xlink:href="#directory-full-a"/>
  </g>
</svg>
