<svg width="24" height="24" viewBox="0 0 24 24" fill="none" xmlns="http://www.w3.org/2000/svg">
<path fill-rule="evenodd" clip-rule="evenodd" d="M12.9999 4C11.0444 4 9.00701 5.86824 8.55466 8.19645C8.44932 8.73859 7.92444 9.0927 7.38229 8.98737C6.84014 8.88203 6.48604 8.35714 6.59137 7.815C7.21852 4.58712 10.0399 2 12.9999 2C16.8228 2 19.9999 4.77163 19.9999 9.15789C19.9999 14.0173 14.4985 22 10.6923 22C8.2013 22 6.74725 20.4456 6.21232 18.1371C6.08764 17.5991 6.42273 17.0619 6.96076 16.9372C7.49878 16.8125 8.03601 17.1476 8.16069 17.6857C8.50665 19.1786 9.27501 20 10.6923 20C13.2013 20 17.9999 13.0371 17.9999 9.15789C17.9999 5.94153 15.7744 4 12.9999 4ZM13.4446 6.00877C14.8904 6.20154 15.9999 7.51027 15.9999 9C15.9999 9.55228 15.5522 10 14.9999 10C14.4477 10 13.9999 9.55228 13.9999 9C13.9999 8.49935 13.6187 8.04968 13.1803 7.99123C12.6224 7.91684 11.9664 8.43744 11.4363 9.85112C11.0024 11.008 10.8413 11.7025 10.8663 12.0077C10.88 12.006 10.9154 12.0157 10.9959 12.0502C11.0983 12.0936 11.1667 12.1226 11.2259 12.1487C11.3332 12.196 11.4275 12.2409 11.5216 12.2911C11.7762 12.4269 12.0014 12.5872 12.2071 12.7929C12.9365 13.5224 13.2982 14.6075 13.1055 15.5711C12.8703 16.7475 11.8862 17.5 10.4999 17.5C9.94766 17.5 9.49995 17.0523 9.49995 16.5C9.49995 15.9477 9.94766 15.5 10.4999 15.5C10.9599 15.5 11.1019 15.3914 11.1444 15.1789C11.2017 14.8925 11.0634 14.4776 10.7928 14.2071C10.7368 14.1511 10.6706 14.1039 10.5804 14.0558C10.5593 14.0446 10.5479 14.0381 10.5363 14.032C10.5033 14.0146 10.4687 14.0002 10.2081 13.8885C8.65164 13.2215 8.47699 12.0466 9.56362 9.14888C10.3905 6.94392 11.8386 5.79463 13.4446 6.00877Z" fill="#636363"/>
</svg>
