<svg width="24" height="24" viewBox="0 0 24 24" fill="none" xmlns="http://www.w3.org/2000/svg">
<path fill-rule="evenodd" clip-rule="evenodd" d="M12 22C6.47715 22 2 17.5228 2 12C2 6.47715 6.47715 2 12 2C17.5228 2 22 6.47715 22 12C22 17.5228 17.5228 22 12 22ZM12 20C16.4183 20 20 16.4183 20 12C20 7.58172 16.4183 4 12 4C7.58172 4 4 7.58172 4 12C4 16.4183 7.58172 20 12 20ZM18 9C18 7.89543 17.1046 7 16 7H8C6.89543 7 6 7.89543 6 9V15C6 16.1046 6.89543 17 8 17H16C17.1046 17 18 16.1046 18 15V9ZM16 15V11L12 13L8 11V15H16ZM16 9H8L12 11L16 9Z" fill="#636363"/>
</svg>
