<svg width="24" height="24" viewBox="0 0 24 24" fill="none" xmlns="http://www.w3.org/2000/svg">
<path fill-rule="evenodd" clip-rule="evenodd" d="M4 4H20C21.1046 4 22 4.89543 22 6V15.6713C22.6254 16.4442 23 17.4284 23 18.5C23 20.9853 20.9853 23 18.5 23C16.5407 23 14.8738 21.7478 14.2561 20H4C2.89543 20 2 19.1046 2 18V6C2 4.89543 2.89543 4 4 4ZM20 8V14.2561C19.5308 14.0902 19.026 14 18.5 14C16.1837 14 14.2762 15.75 14.0275 18H4V8L12 12L20 8ZM4 6L12 10L20 6H4ZM15.6464 18.8536L16.3536 18.1464L17.9718 19.7647L20.6204 16.6746L21.3796 17.3254L18.0282 21.2353L15.6464 18.8536Z" fill="#636363"/>
</svg>
