<svg xmlns="http://www.w3.org/2000/svg" xmlns:xlink="http://www.w3.org/1999/xlink" width="24" height="24" viewBox="0 0 24 24">
  <defs>
    <path id="envelope-exclamation-a" d="M14.0275298,18 C14.2768275,15.7500248 16.1884363,14 18.5,14 C19.0259531,14 19.5308316,14.0904578 20,14.2565942 L20,7 L20,6 L12,10 L4,6 L4,8 L12,12 L20,8 L20,7 L20,6 L4,6 L4,18 L14.0275298,18 Z M22,15.6734493 C22.6253999,16.4466765 23,17.4305323 23,18.5 C23,20.9852814 20.9802243,23 18.5,23 C16.541418,23 14.8750829,21.7456015 14.2567649,20 L4,20 C2.8954305,20 2,19.1045695 2,18 L2,6 C2,4.8954305 2.8954305,4 4,4 L20,4 C21.1045695,4 22,4.8954305 22,6 L22,15.6734493 Z M18,16 L18,19 L19,19 L19,16 L18,16 Z M18,20 L18,21 L19,21 L19,20 L18,20 Z"/>
  </defs>
  <g fill="none" fill-rule="evenodd">
    <rect width="24" height="24"/>
    <use fill="#1C2025" fill-rule="nonzero" xlink:href="#envelope-exclamation-a"/>
  </g>
</svg>
