<svg width="24" height="24" viewBox="0 0 24 24" fill="none" xmlns="http://www.w3.org/2000/svg">
<path fill-rule="evenodd" clip-rule="evenodd" d="M21.8799 19.5904L12.8501 3.49281C12.7614 3.33478 12.6288 3.20471 12.4676 3.11779C11.9982 2.86464 11.4083 3.03254 11.1502 3.49281L2.1202 19.5904C2.04143 19.7308 2.00012 19.8885 2.00012 20.0488C2.00012 20.574 2.43443 20.9999 2.97017 20.9999H21.0299C21.1934 20.9999 21.3542 20.9594 21.4974 20.8821C21.9668 20.629 22.138 20.0507 21.8799 19.5904ZM4.61072 19.0976L12 5.92474L19.3892 19.0976H4.61072ZM11.0302 16.2444C11.0302 15.7192 11.456 15.2933 11.9813 15.2933H12.0191C12.5444 15.2933 12.9702 15.7192 12.9702 16.2444C12.9702 16.7697 12.5444 17.1956 12.0191 17.1956H11.9813C11.456 17.1956 11.0302 16.7697 11.0302 16.2444ZM12.0002 10.5377C11.4645 10.5377 11.0302 10.972 11.0302 11.5078V13.3722C11.0302 13.9079 11.4645 14.3422 12.0002 14.3422C12.5359 14.3422 12.9702 13.9079 12.9702 13.3722V11.5078C12.9702 10.972 12.5359 10.5377 12.0002 10.5377Z" fill="#636363"/>
</svg>
