<svg width="24" height="24" viewBox="0 0 24 24" fill="none" xmlns="http://www.w3.org/2000/svg">
<path fill-rule="evenodd" clip-rule="evenodd" d="M5.38386 3.98222L10.7319 9.33026C11.1014 9.69978 11.0872 10.3131 10.7001 10.7001C10.3131 11.0872 9.69978 11.1014 9.33026 10.7319L3.98222 5.38387V8.59768C3.98222 9.14506 3.53849 9.58879 2.99111 9.58879C2.44374 9.58879 2 9.14506 2 8.59768V2.99111C2 2.44374 2.44374 2 2.99111 2H8.59768C9.14506 2 9.58879 2.44374 9.58879 2.99111C9.58879 3.53849 9.14506 3.98222 8.59768 3.98222H5.38386ZM9.33026 13.2681L3.98222 18.6161V15.4023C3.98222 14.8549 3.53849 14.4112 2.99111 14.4112C2.44374 14.4112 2 14.8549 2 15.4023V21.0089C2 21.5563 2.44374 22 2.99111 22H8.59768C9.14506 22 9.58879 21.5563 9.58879 21.0089C9.58879 20.4615 9.14506 20.0178 8.59768 20.0178H5.38387L10.7319 14.6697C11.1014 14.3002 11.0872 13.6869 10.7001 13.2999C10.3131 12.9128 9.69978 12.8986 9.33026 13.2681ZM13.2681 14.6697L18.6161 20.0178H15.4023C14.8549 20.0178 14.4112 20.4615 14.4112 21.0089C14.4112 21.5563 14.8549 22 15.4023 22H21.0089C21.5563 22 22 21.5563 22 21.0089V15.4023C22 14.8549 21.5563 14.4112 21.0089 14.4112C20.4615 14.4112 20.0178 14.8549 20.0178 15.4023V18.6161L14.6697 13.2681C14.3002 12.8986 13.6869 12.9128 13.2999 13.2999C12.9128 13.6869 12.8986 14.3002 13.2681 14.6697ZM14.6697 10.7319L20.0178 5.38386V8.59768C20.0178 9.14506 20.4615 9.58879 21.0089 9.58879C21.5563 9.58879 22 9.14506 22 8.59768V2.99111C22 2.44374 21.5563 2 21.0089 2H15.4023C14.8549 2 14.4112 2.44374 14.4112 2.99111C14.4112 3.53849 14.8549 3.98222 15.4023 3.98222H18.6161L13.2681 9.33026C12.8986 9.69978 12.9128 10.3131 13.2999 10.7001C13.6869 11.0872 14.3002 11.1014 14.6697 10.7319Z" fill="#636363"/>
</svg>
