<svg width="24" height="24" viewBox="0 0 24 24" fill="none" xmlns="http://www.w3.org/2000/svg">
<path fill-rule="evenodd" clip-rule="evenodd" d="M16.2435 11.2046C16.2508 11.2128 16.2633 11.2134 16.2714 11.2061C17.0843 10.4745 17.1502 9.22243 16.4186 8.40954L12.0631 3.5701C12.0294 3.53262 11.9706 3.53262 11.9369 3.5701L6.92567 9.13812C6.55621 9.54863 6.58949 10.1809 7 10.5504C7.41051 10.9198 8.0428 10.8866 8.41226 10.476L11 7.60078V16C11 16.5523 11.4477 17 12 17C12.5523 17 13 16.5523 13 16V7.60078L16.2435 11.2046ZM21 22C21.5523 22 22 21.5523 22 21V20V15C22 14.4477 21.5523 14 21 14C20.4477 14 20 14.4477 20 15V20H4V15C4 14.4477 3.55228 14 3 14C2.44772 14 2 14.4477 2 15V21C2 21.5523 2.44772 22 3 22H4H21Z" fill="#636363"/>
</svg>
