<svg width="24" height="24" viewBox="0 0 24 24" fill="none" xmlns="http://www.w3.org/2000/svg">
<path fill-rule="evenodd" clip-rule="evenodd" d="M12 18C6.47715 18 2 13.7143 2 12C2 10.2857 6.47715 6 12 6C17.5228 6 22 10.2857 22 12C22 13.7143 17.5228 18 12 18ZM19.6426 11.5763C19.2385 11.063 18.6348 10.5006 17.9127 9.98754C17.2748 9.53432 16.5881 9.14609 15.8719 8.83618C16.577 9.69803 17 10.7996 17 12C17 13.2004 16.577 14.302 15.8719 15.1638C16.5881 14.8539 17.2748 14.4657 17.9127 14.0125C18.6348 13.4994 19.2385 12.937 19.6426 12.4237C19.7676 12.2649 19.8655 12.1206 19.9338 12C19.8655 11.8794 19.7676 11.7351 19.6426 11.5763ZM8.12808 15.1638C7.41187 14.8539 6.72521 14.4657 6.0873 14.0125C5.36515 13.4994 4.76146 12.937 4.35739 12.4237C4.23241 12.2649 4.13455 12.1206 4.06618 12C4.13455 11.8794 4.23241 11.7351 4.35739 11.5763C4.76146 11.063 5.36515 10.5006 6.0873 9.98754C6.72521 9.53432 7.41187 9.14609 8.12808 8.83618C7.423 9.69803 7 10.7996 7 12C7 13.2004 7.423 14.302 8.12808 15.1638ZM12 15C13.6569 15 15 13.6569 15 12C15 10.3431 13.6569 9 12 9C10.3431 9 9 10.3431 9 12C9 13.6569 10.3431 15 12 15ZM13 12C13 12.5523 12.5523 13 12 13C11.4477 13 11 12.5523 11 12C11 11.4477 11.4477 11 12 11C12.5523 11 13 11.4477 13 12Z" fill="#636363"/>
</svg>
