<svg width="24" height="24" viewBox="0 0 24 24" fill="none" xmlns="http://www.w3.org/2000/svg">
<path fill-rule="evenodd" clip-rule="evenodd" d="M8.14551 6.6829C8.1393 6.6851 8.1331 6.6873 8.1269 6.68951L3.73524 2.29786C3.33819 1.9008 2.69455 1.9007 2.29763 2.29763C1.9007 2.69455 1.9008 3.33819 2.29786 3.73524L6.14974 7.58712C3.63587 8.98798 2 10.9638 2 12C2 13.7143 6.47715 18 12 18C13.3733 18 14.6819 17.735 15.8731 17.3105L20.2648 21.7021C20.6618 22.0992 21.3055 22.0993 21.7024 21.7024C22.0993 21.3055 22.0992 20.6618 21.7021 20.2648L17.8503 16.4129C17.8557 16.4099 17.8611 16.4069 17.8665 16.4038L16.3874 14.9248C16.3818 14.9276 16.3761 14.9303 16.3705 14.9331L16.1808 14.7434C16.1842 14.7384 16.1875 14.7333 16.1908 14.7282L14.7231 13.2605C14.7205 13.2663 14.7178 13.272 14.7151 13.2777L10.7223 9.28491C10.728 9.28221 10.7337 9.27953 10.7395 9.27687L8.14551 6.6829ZM18.165 13.8276C18.7755 13.3664 19.2866 12.876 19.6426 12.4237C19.7676 12.2649 19.8655 12.1206 19.9338 12C19.8655 11.8794 19.7676 11.7351 19.6426 11.5763C19.2385 11.063 18.6348 10.5006 17.9127 9.98754C17.2748 9.53432 16.5881 9.14609 15.8719 8.83618C16.577 9.69803 17 10.7996 17 12C17 12.2113 16.9869 12.4196 16.9614 12.624L10.4488 6.11137C10.9543 6.03911 11.4724 6 12 6C17.5228 6 22 10.2857 22 12C22 12.7718 21.0925 14.0648 19.5907 15.2533L18.165 13.8276ZM7.81918 9.25657L7.62949 9.06688C7.0926 9.33169 6.57566 9.64057 6.0873 9.98754C5.36515 10.5006 4.76146 11.063 4.35739 11.5763C4.23241 11.7351 4.13455 11.8794 4.06618 12C4.13455 12.1206 4.23241 12.2649 4.35739 12.4237C4.76146 12.937 5.36515 13.4994 6.0873 14.0125C6.72521 14.4657 7.41187 14.8539 8.12808 15.1638C7.423 14.302 7 13.2004 7 12C7 10.9869 7.3013 10.0442 7.81918 9.25657ZM13.2777 14.7151L9.28491 10.7223C9.10217 11.1099 9 11.543 9 12C9 13.6569 10.3431 15 12 15C12.457 15 12.8901 14.8978 13.2777 14.7151Z" fill="#636363"/>
</svg>
