<svg width="24" height="24" viewBox="0 0 24 24" fill="none" xmlns="http://www.w3.org/2000/svg">
<path fill-rule="evenodd" clip-rule="evenodd" d="M3.7688 9.35779L11.5321 5.2478C11.8248 5.09285 12.1752 5.09285 12.4679 5.2478L20.2312 9.35779C20.7193 9.6162 20.9055 10.2214 20.6471 10.7095C20.5458 10.9009 20.3851 11.0542 20.1891 11.1464L18 12.1766L18 17.7271C18 17.937 17.9339 18.1416 17.8111 18.3119C16.9995 19.4374 15.0625 20.0001 12 20.0001C8.93743 20.0001 7.00038 19.4373 6.18885 18.3118C6.06607 18.1415 6 17.9369 6 17.727V13.9886C5.27571 14.745 5 15.6744 5 17.0001C5 17.5524 4.55228 18.0001 4 18.0001C3.44772 18.0001 3 17.5524 3 17.0001C3 14.5733 3.69827 13.0604 5.36376 11.8772L3.81089 11.1464C3.31117 10.9112 3.09671 10.3155 3.33187 9.81578C3.42408 9.61984 3.57741 9.45912 3.7688 9.35779ZM10.318 11.7993C10.4139 11.7671 10.5114 11.7348 10.6105 11.7023C11.1041 11.5407 11.3525 11.4592 11.6073 11.3739C12.0809 11.2155 12.4749 11.0775 12.8511 10.9364C13.3682 10.7425 13.6302 10.1661 13.4363 9.64898C13.2424 9.13186 12.666 8.86985 12.1489 9.06377C11.798 9.19533 11.4254 9.32581 10.9727 9.47727C10.7241 9.56046 10.4818 9.64004 9.98682 9.80203C9.10251 10.0922 8.31404 10.3778 7.61491 10.673L6.62901 10.2622L6.47337 10.1889L12 7.26308L17.5266 10.1889L17.3706 10.2624L12 12.5001L10.318 11.7993ZM8 17.3216C8.52994 17.6987 9.8545 18.0001 12 18.0001C14.1454 18.0001 15.47 17.6987 16 17.3216L16 13.0001L12 14.6668L8 13.0001V17.3216Z" fill="#636363"/>
</svg>
