<svg width="24" height="24" viewBox="0 0 24 24" fill="none" xmlns="http://www.w3.org/2000/svg">
<path fill-rule="evenodd" clip-rule="evenodd" d="M7.54493 12.9036C7.53731 12.9075 7.52971 12.9114 7.52213 12.9153C7.33925 13.0093 6.07407 13.9106 5.99053 13.9985C5.27331 14.7531 5 15.6802 5 17.0001C5 17.5524 4.55228 18.0001 4 18.0001C3.44772 18.0001 3 17.5524 3 17.0001C3 15.0819 3.43627 13.7347 4.44161 12.6699C4.51317 12.5941 4.72053 12.4092 4.92339 12.2355C5.09847 12.0855 5.2702 11.944 5.34836 11.8881C5.35348 11.8845 5.35862 11.8808 5.36376 11.8772L3.81089 11.1464C3.31117 10.9112 3.09671 10.3155 3.33187 9.81578C3.42408 9.61984 3.57741 9.45912 3.7688 9.35779L11.5321 5.2478C11.8248 5.09285 12.1752 5.09285 12.4679 5.2478L20.2312 9.35779C20.7193 9.6162 20.9055 10.2214 20.6471 10.7095C20.5458 10.9009 20.3851 11.0542 20.1891 11.1464L12.4258 14.7997C12.1561 14.9266 11.8439 14.9266 11.5742 14.7997L7.54493 12.9036ZM6 14.0001L12 17.0001L18.0001 14.0001L18 17.7271C18 17.937 17.9339 18.1416 17.8111 18.3119C16.9995 19.4374 15.0625 20.0001 12 20.0001C8.93743 20.0001 7.00038 19.4373 6.18885 18.3118C6.06607 18.1415 6 17.9369 6 17.727V14.0001ZM7.54493 12.9036C8.3349 12.5 9.34203 12.1186 10.6105 11.7023C11.1041 11.5407 11.3525 11.4592 11.6073 11.3739C12.0809 11.2155 12.4749 11.0775 12.8511 10.9364C13.3682 10.7425 13.6302 10.1661 13.4363 9.64898C13.2424 9.13186 12.666 8.86985 12.1489 9.06377C11.798 9.19533 10.4818 9.64004 9.98682 9.80203C7.97555 10.4621 6.4601 11.0982 5.36376 11.8772L7.54493 12.9036Z" fill="#636363"/>
</svg>
