<svg width="24" height="24" viewBox="0 0 24 24" fill="none" xmlns="http://www.w3.org/2000/svg">
<path fill-rule="evenodd" clip-rule="evenodd" d="M2.4855 7.70871L11.4855 2.30871C11.8022 2.1187 12.1978 2.1187 12.5145 2.30871L21.5145 7.70871C21.8157 7.88943 22 8.21494 22 8.5662V21C22 21.5523 21.5523 22 21 22H3C2.44772 22 2 21.5523 2 21V8.5662C2 8.21494 2.1843 7.88943 2.4855 7.70871ZM4 10.9558V20H20V10.9558L12.5855 16.3107C12.236 16.5631 11.764 16.5631 11.4145 16.3107L4 10.9558ZM4.48683 8.84029L12 14.2665L19.5132 8.84029L12 4.33239L4.48683 8.84029ZM9.87517 9.49917C9.4062 9.79085 8.78956 9.64712 8.49788 9.17814C8.2062 8.70916 8.34993 8.09253 8.81891 7.80085L11.4719 6.15085C11.7959 5.94931 12.2064 5.94976 12.53 6.15201L15.1774 7.80666C15.6458 8.09937 15.7881 8.71632 15.4954 9.18465C15.2027 9.65299 14.5858 9.79536 14.1174 9.50265L13 8.80426V12C13 12.5523 12.5523 13 12 13C11.4477 13 11 12.5523 11 12V8.79959L9.87517 9.49917Z" fill="#636363"/>
</svg>
