<svg width="24" height="24" viewBox="0 0 24 24" fill="none" xmlns="http://www.w3.org/2000/svg">
<path fill-rule="evenodd" clip-rule="evenodd" d="M2 19V5C2 3.89543 2.89543 3 4 3H9.36762C10.0701 3 10.7212 3.3686 11.0826 3.97101L12.3 6H18C19.1046 6 20 6.89543 20 8V10H20.5844C21.6889 10 22.5844 10.8954 22.5844 12C22.5844 12.1252 22.5726 12.2502 22.5492 12.3732L21.2196 19.3732C21.0404 20.317 20.2154 21 19.2548 21H18H5.0056H4C2.89543 21 2 20.1046 2 19ZM4 16.0153L5.79515 11.2898C6.0901 10.5133 6.83422 10 7.66479 10H18V8H4V16.0153ZM9.8 6H4V5H9.2L9.8 6Z" fill="#636363"/>
</svg>
