<svg xmlns="http://www.w3.org/2000/svg" xmlns:xlink="http://www.w3.org/1999/xlink" width="24" height="24" viewBox="0 0 24 24">
  <defs>
    <path id="folder-with-file-a" d="M17.9824272,6 L16.0181415,4 L8,4 L8,10 L18,10 L18,6.01789228 L18,8 L16,8 C14.8954305,8 14,7.1045695 14,6 L14,4 L16,4 L16,6 L17.9824272,6 Z M20,8 L20,10 L20.5843577,10 C21.6889272,10 22.5843577,10.8954305 22.5843577,12 C22.5843577,12.1252292 22.572596,12.2501817 22.5492275,12.3732113 L21.2196335,19.3732113 C21.0403701,20.3169911 20.2154174,21 19.2547637,21 L18,21 L4,21 C2.8954305,21 2,20.1045695 2,19 L2,8 C2,6.8954305 2.8954305,6 4,6 L6,6 L6,2.8 C6,2.35817221 6.35177628,2 6.78571429,2 L16.5316893,2 C16.7400737,2 16.9399232,2.08428547 17.0872732,2.23431458 L19.7698696,4.96568542 C19.9172196,5.11571453 20,5.31919766 20,5.53137085 L20,8 Z M6,8 L4,8 L4,16.0152675 L5.795147,11.289754 C5.84912762,11.1476563 5.91815316,11.014371 6,10.8914319 L6,8 Z M7.66478616,12 L5.00559815,19 L19.2547637,19 L20.5843577,12 L19.2142857,12 L7.66478616,12 Z"/>
  </defs>
  <g fill="none" fill-rule="evenodd">
    <rect width="24" height="24"/>
    <use fill="#1C2025" xlink:href="#folder-with-file-a"/>
  </g>
</svg>
