<svg width="24" height="24" viewBox="0 0 24 24" fill="none" xmlns="http://www.w3.org/2000/svg">
<path fill-rule="evenodd" clip-rule="evenodd" d="M2 5V19C2 20.1046 2.89543 21 4 21H20C21.1046 21 22 20.1046 22 19V8C22 6.89543 21.1046 6 20 6H12.3L11.0826 3.97101C10.7212 3.3686 10.0701 3 9.36762 3H4C2.89543 3 2 3.89543 2 5ZM4 19V8H20V19H4ZM4 6H9.8L9.2 5H4V6ZM13 16.0453V13.4142L14.0858 14.5C14.4763 14.8905 15.1095 14.8905 15.5 14.5C15.8905 14.1095 15.8905 13.4763 15.5 13.0858L12.7071 10.2929C12.3166 9.90237 11.6834 9.90237 11.2929 10.2929L8.58579 13.0858C8.19526 13.4763 8.19526 14.1095 8.58579 14.5C8.97631 14.8905 9.60948 14.8905 10 14.5L11 13.4142V16.0453C11 16.5726 11.4477 17 12 17C12.5523 17 13 16.5726 13 16.0453Z" fill="#636363"/>
</svg>
