<svg width="24" height="24" viewBox="0 0 24 24" fill="none" xmlns="http://www.w3.org/2000/svg">
<path fill-rule="evenodd" clip-rule="evenodd" d="M12 10.8L4.75725 6.45434C4.67954 6.40772 4.59062 6.38309 4.5 6.38309C4.22386 6.38309 4 6.60694 4 6.88309V17.1169C4 17.2075 4.02463 17.2964 4.07125 17.3741C4.21333 17.6109 4.52046 17.6877 4.75725 17.5456L12 13.2V17.0657C12 17.1644 12.0292 17.2609 12.084 17.3431C12.2372 17.5728 12.5476 17.6349 12.7774 17.4818L20.376 12.416C20.4309 12.3794 20.478 12.3323 20.5146 12.2773C20.6678 12.0476 20.6057 11.7371 20.376 11.584L12.7774 6.51823C12.6952 6.46347 12.5987 6.43425 12.5 6.43425C12.2239 6.43425 12 6.65811 12 6.93425V10.8Z" fill="#636363"/>
</svg>
