<svg width="24" height="24" viewBox="0 0 24 24" fill="none" xmlns="http://www.w3.org/2000/svg">
<path fill-rule="evenodd" clip-rule="evenodd" d="M20 12C20 16.4183 16.4183 20 12 20C7.58172 20 4 16.4183 4 12C4 7.58172 7.58172 4 12 4C13.9811 4 15.8439 4.721 17.2918 6H15.5C14.9477 6 14.5 6.44772 14.5 7C14.5 7.55228 14.9477 8 15.5 8H19.5C20.0523 8 20.5 7.55228 20.5 7V3C20.5 2.44772 20.0523 2 19.5 2C18.9477 2 18.5 2.44772 18.5 3V4.40041C16.752 2.9039 14.4815 2 12 2C6.47715 2 2 6.47715 2 12C2 17.5228 6.47715 22 12 22C17.5228 22 22 17.5228 22 12C22 11.4477 21.5523 11 21 11C20.4477 11 20 11.4477 20 12ZM11.992 14.408C11.992 14.216 11.936 14.072 11.824 13.976C11.712 13.88 11.536 13.832 11.296 13.832H10.64V10.04C10.64 9.82133 10.5747 9.648 10.444 9.52C10.3133 9.392 10.1413 9.328 9.928 9.328C9.72 9.328 9.49867 9.39467 9.264 9.528L7.984 10.272C7.79733 10.384 7.704 10.5493 7.704 10.768C7.704 10.928 7.75733 11.0733 7.864 11.204C7.97067 11.3347 8.09867 11.4 8.248 11.4C8.344 11.4 8.43733 11.3733 8.528 11.32L9.168 10.944V13.832H8.52C8.28 13.832 8.104 13.88 7.992 13.976C7.88 14.072 7.824 14.216 7.824 14.408C7.824 14.8027 8.056 15 8.52 15H11.296C11.76 15 11.992 14.8027 11.992 14.408ZM12.8 14.328C12.432 13.832 12.248 13.1147 12.248 12.176C12.248 11.2427 12.432 10.528 12.8 10.032C13.168 9.536 13.7013 9.288 14.4 9.288C15.0933 9.288 15.6253 9.536 15.996 10.032C16.3667 10.528 16.552 11.2427 16.552 12.176C16.552 13.1147 16.368 13.832 16 14.328C15.632 14.824 15.0987 15.072 14.4 15.072C13.7013 15.072 13.168 14.824 12.8 14.328ZM15.12 12.176C15.12 12.8107 15.064 13.2667 14.952 13.544C14.84 13.8213 14.656 13.96 14.4 13.96C14.144 13.96 13.96 13.8213 13.848 13.544C13.736 13.2667 13.68 12.8107 13.68 12.176C13.68 11.5413 13.736 11.0867 13.848 10.812C13.96 10.5373 14.144 10.4 14.4 10.4C14.656 10.4 14.84 10.5387 14.952 10.816C15.064 11.0933 15.12 11.5467 15.12 12.176Z" fill="#636363"/>
</svg>
