<svg width="24" height="24" viewBox="0 0 24 24" fill="none" xmlns="http://www.w3.org/2000/svg">
<path fill-rule="evenodd" clip-rule="evenodd" d="M9.19565 4.25078L9.82339 2.36754C10.0956 1.55086 10.8599 1 11.7208 1H12.2792C13.1401 1 13.9044 1.55086 14.1766 2.36754L14.8046 4.25145L15.5004 4.54062L17.2721 3.64973C18.0421 3.26474 18.972 3.41565 19.5807 4.02437L19.9756 4.41928C20.5843 5.028 20.7353 5.95794 20.3503 6.72792L19.4623 8.50392L19.7494 9.19875L21.6325 9.82339C22.4491 10.0956 23 10.8599 23 11.7208V12.2792C23 13.1401 22.4491 13.9044 21.6325 14.1766L19.7485 14.8046L19.4594 15.5004L20.3503 17.2721C20.7353 18.0421 20.5843 18.972 19.9756 19.5807L19.5807 19.9756C18.972 20.5843 18.0421 20.7353 17.2721 20.3503L15.4965 19.4625L14.8044 19.7492L14.1766 21.6325C13.9044 22.4491 13.1401 23 12.2792 23H11.7208C10.8599 23 10.0956 22.4491 9.82339 21.6325L9.19542 19.7485L8.49962 19.4594L6.72792 20.3503C5.95794 20.7353 5.028 20.5843 4.41928 19.9756L4.02437 19.5807C3.41565 18.972 3.26474 18.0421 3.64973 17.2721L4.5375 15.4965L4.25078 14.8044L2.36754 14.1766C1.55086 13.9044 1 13.1401 1 12.2792V11.7208C1 10.8599 1.55086 10.0956 2.36754 9.82339L4.25145 9.19542L4.54062 8.49962L3.64973 6.72792C3.26474 5.95794 3.41565 5.028 4.02437 4.41928L4.41928 4.02437C5.028 3.41565 5.95794 3.26474 6.72792 3.64973L8.50345 4.5375L9.19565 4.25078ZM16 12C16 14.2091 14.2091 16 12 16C9.79086 16 8 14.2091 8 12C8 9.79086 9.79086 8 12 8C14.2091 8 16 9.79086 16 12Z" fill="#636363"/>
</svg>
