<svg width="24" height="24" viewBox="0 0 24 24" fill="none" xmlns="http://www.w3.org/2000/svg">
<path fill-rule="evenodd" clip-rule="evenodd" d="M17.9904 19.2525C17.9848 19.2919 17.9799 19.3697 17.9733 19.4736C17.9619 19.6526 17.9456 19.9088 17.9128 20.1787C20.3912 18.3587 22 15.4239 22 12.1133C22 10.0274 21.3614 8.09066 20.2689 6.48797C20.1325 6.94994 19.9487 7.42951 19.9487 7.42951C19.3836 9.12462 18.5451 10.6363 17.494 11.9203C18.1793 14.1112 18.3722 16.5355 17.9904 19.2525ZM15.8673 13.5837C16.2273 15.2188 16.287 17.0021 16.0098 18.9741C16.0023 19.0279 15.9666 19.2148 15.9223 19.4468L15.9223 19.4468C15.8965 19.582 15.8677 19.7324 15.8399 19.8808C15.7218 19.8104 15.6508 19.7671 15.6508 19.7671C14.1932 18.9665 12.8053 17.6802 11.6217 15.9832C13.1823 15.4665 14.6183 14.6515 15.8673 13.5837ZM16.6183 9.74551C17.2083 8.86053 17.6927 7.87277 18.0513 6.79705C18.0513 6.79705 18.4729 5.51358 18.7678 4.75134C16.987 3.1134 14.6103 2.11328 12 2.11328C11.3334 2.11328 10.682 2.17851 10.0519 2.30293C10.312 2.49858 10.5261 2.68757 10.6579 2.80388L10.658 2.804C10.6886 2.83097 10.7147 2.85403 10.736 2.87235C10.7772 2.90794 10.8938 3.00775 11.0245 3.11975C11.1946 3.26543 11.3887 3.43175 11.4728 3.50427C11.792 3.77976 12.0648 4.02073 12.3354 4.2683C13.0378 4.91096 13.662 5.54221 14.2466 6.21979C15.1993 7.32398 15.9962 8.49464 16.6183 9.74551ZM15.2063 11.4726C13.9046 12.7768 12.313 13.7206 10.547 14.2198C9.23375 11.7485 8.31659 8.65845 8.06784 5.10111C8.06784 5.10111 7.96911 4.01411 7.90447 3.21199C8.24295 3.51397 8.75218 3.88583 9.09255 4.13439C9.25739 4.25477 9.38263 4.34623 9.42969 4.38682C9.4738 4.42486 9.59555 4.52916 9.7299 4.64425L9.73016 4.64446C9.89824 4.78845 10.086 4.94928 10.1661 5.01838C10.4718 5.2822 10.7307 5.51092 10.9853 5.74388C11.6333 6.33678 12.2035 6.91339 12.7324 7.52633C13.7874 8.74916 14.6222 10.0534 15.2063 11.4726ZM8.49385 14.5893C7.20285 11.9704 6.32218 8.80825 6.07271 5.24062C6.07271 5.24062 6.01078 4.68087 5.98111 4.12677C3.56296 5.95204 2 8.85013 2 12.1133C2 12.5579 2.02902 12.9957 2.08526 13.425C2.89233 13.7065 4.27472 14.1518 4.27472 14.1518C5.72039 14.5648 7.14108 14.7002 8.49385 14.5893ZM2.68542 15.7591C4.14253 19.479 7.76363 22.1133 12 22.1133C13.0276 22.1133 14.0191 21.9583 14.9522 21.6704C14.7944 21.5824 14.6879 21.5201 14.6879 21.5201C12.7773 20.4706 10.9985 18.7481 9.55441 16.4792C7.70452 16.762 5.73247 16.6483 3.72528 16.0748C3.72528 16.0748 3.21317 15.9305 2.68542 15.7591Z" fill="#636363"/>
</svg>
