<svg width="24" height="24" viewBox="0 0 24 24" fill="none" xmlns="http://www.w3.org/2000/svg">
<path fill-rule="evenodd" clip-rule="evenodd" d="M12.0006 8.38122C12.0019 8.89155 12.004 9.91427 12.0069 11.4494C12.8152 11.4494 15.3301 11.6478 15.3301 12.0747C15.3301 12.5015 15.2703 13.9647 15.4488 14.2325C15.9254 14.9472 17.6078 16.154 18.5395 16.1661C19.9486 16.1843 22.3253 13.9838 21.9629 12.4621C21.435 10.2456 15.9479 8 11.9991 8C11.9992 8.00002 11.9992 8.0015 11.9992 8.00443C8.0505 8.00471 2.56492 10.2456 2.03711 12.4619C1.67472 13.9836 4.05138 16.1841 5.46051 16.1659C6.39217 16.1539 8.07463 14.9471 8.55118 14.2323C8.72972 13.9645 8.6699 12.5014 8.6699 12.0745C8.6699 11.6477 11.1971 11.4482 12.0054 11.4482L12.0006 8.38122Z" fill="#636363"/>
</svg>
