<svg width="24" height="24" viewBox="0 0 24 24" fill="none" xmlns="http://www.w3.org/2000/svg">
<path fill-rule="evenodd" clip-rule="evenodd" d="M5 8C5 8.91157 5.30493 9.75193 5.81835 10.4246C3.00933 11.3313 2 13.6897 2 17.5C2 19.1667 2.58333 20 3.75 20H14.25C15.4167 20 16 19.1667 16 17.5C16 13.6897 14.9907 11.3313 12.1816 10.4246C12.6951 9.75193 13 8.91157 13 8C13 5.79086 11.2091 4 9 4C6.79086 4 5 5.79086 5 8ZM11 8C11 9.10457 10.1046 10 9 10C7.89543 10 7 9.10457 7 8C7 6.89543 7.89543 6 9 6C10.1046 6 11 6.89543 11 8ZM14 17.5C14 17.7139 13.9878 17.8803 13.9728 18H4.02718C4.01217 17.8803 4 17.7139 4 17.5C4 13.2936 5.13035 12 9 12C12.8697 12 14 13.2936 14 17.5ZM17 5C15.3431 5 14 6.34315 14 8C14 9.65685 15.3431 11 17 11V9C16.4477 9 16 8.55228 16 8C16 7.44772 16.4477 7 17 7V5ZM22 4C19.7909 4 18 5.79086 18 8C18 10.2091 19.7909 12 22 12V10C20.8954 10 20 9.10457 20 8C20 6.89543 20.8954 6 22 6V4Z" fill="#636363"/>
</svg>
