<svg width="24" height="24" viewBox="0 0 24 24" fill="none" xmlns="http://www.w3.org/2000/svg">
<path fill-rule="evenodd" clip-rule="evenodd" d="M20 11.9538L20.3458 12.2529C20.7635 12.6142 21.395 12.5685 21.7563 12.1508C22.1176 11.7331 22.0719 11.1016 21.6542 10.7403L12.4094 2.74368C12.0259 2.41199 11.4549 2.41977 11.0806 2.76177L2.32545 10.7618C1.91774 11.1343 1.88923 11.7668 2.26178 12.1746C2.63432 12.5823 3.26685 12.6108 3.67456 12.2382L4.00001 11.9409V20.5C4.00001 21.0523 4.44772 21.5 5.00001 21.5H6.00001H11H13H18H19C19.5523 21.5 20 21.0523 20 20.5V11.9538ZM11 19.5H13V14.5H11L11 19.5ZM15 19.5H18L18 10.2239L11.7734 4.83795L6.00001 10.1134L6.00001 19.5H9.00001V13.5C9.00001 12.9477 9.44772 12.5 10 12.5H11H13H14C14.5523 12.5 15 12.9477 15 13.5V19.5Z" fill="#636363"/>
</svg>
