<svg width="24" height="24" viewBox="0 0 24 24" fill="none" xmlns="http://www.w3.org/2000/svg">
<path fill-rule="evenodd" clip-rule="evenodd" d="M5.00001 22H19C19.5523 22 20 21.5523 20 21V12.4538L20.3458 12.7529C20.7635 13.1142 21.395 13.0685 21.7563 12.6508C22.1176 12.2331 22.0719 11.6016 21.6542 11.2403L12.4094 3.24368C12.0259 2.91199 11.4549 2.91977 11.0806 3.26177L2.32545 11.2618C1.91774 11.6343 1.88923 12.2668 2.26178 12.6746C2.63432 13.0823 3.26685 13.1108 3.67456 12.7382L4.00001 12.4409V21C4.00001 21.5523 4.44772 22 5.00001 22ZM13 15V20H11V15H13Z" fill="#636363"/>
</svg>
