<svg width="24" height="24" viewBox="0 0 24 24" fill="none" xmlns="http://www.w3.org/2000/svg">
<path d="M3.33333 7.33333H2V2.66667C2 2.48986 2.07024 2.32029 2.19526 2.19526C2.32029 2.07024 2.48986 2 2.66667 2H7.33333V3.33333H3.33333V7.33333Z" fill="#5E6D7A"/>
<path d="M22.0003 7.33333H20.667V3.33333H16.667V2H21.3337C21.5105 2 21.68 2.07024 21.8051 2.19526C21.9301 2.32029 22.0003 2.48986 22.0003 2.66667V7.33333Z" fill="#5E6D7A"/>
<path d="M7.33333 22H2.66667C2.48986 22 2.32029 21.9297 2.19526 21.8047C2.07024 21.6797 2 21.5101 2 21.3333V16.6666H3.33333V20.6666H7.33333V22Z" fill="#5E6D7A"/>
<path d="M21.3337 22H16.667V20.6666H20.667V16.6666H22.0003V21.3333C22.0003 21.5101 21.9301 21.6797 21.8051 21.8047C21.68 21.9297 21.5105 22 21.3337 22Z" fill="#5E6D7A"/>
<path d="M18.2108 18.0346L15.2948 17.0626C15.0796 16.9908 14.8863 16.8654 14.7331 16.6981C14.58 16.5308 14.472 16.3272 14.4195 16.1066L14.2348 15.3332C15.9421 14.2206 16.6668 11.8732 16.6668 9.97789V9.50722C16.6853 8.27009 16.225 7.07368 15.382 6.16799C14.5391 5.2623 13.3787 4.71743 12.1435 4.64722C11.5187 4.62802 10.8964 4.73454 10.3135 4.96045C9.73071 5.18636 9.19921 5.52706 8.75057 5.96233C8.30193 6.3976 7.94532 6.91856 7.70188 7.49429C7.45845 8.07003 7.33316 8.6888 7.33345 9.31389V9.98055C7.33345 11.8732 8.05812 14.2206 9.76545 15.3332L9.58079 16.1066C9.52824 16.3272 9.42028 16.5308 9.26711 16.6981C9.11394 16.8654 8.92062 16.9908 8.70545 17.0626L5.78945 18.0346C5.63962 18.0849 5.51254 18.1868 5.43087 18.3221C5.3492 18.4574 5.31826 18.6173 5.34356 18.7733C5.36887 18.9293 5.44878 19.0713 5.56904 19.1738C5.68929 19.2764 5.84207 19.3329 6.00012 19.3332H18.0001C18.1582 19.3329 18.3109 19.2764 18.4312 19.1738C18.5515 19.0713 18.6314 18.9293 18.6567 18.7733C18.682 18.6173 18.651 18.4574 18.5694 18.3221C18.4877 18.1868 18.3606 18.0849 18.2108 18.0346Z" fill="#5E6D7A"/>
</svg>
