<svg width="24" height="24" viewBox="0 0 24 24" fill="none" xmlns="http://www.w3.org/2000/svg">
<path fill-rule="evenodd" clip-rule="evenodd" d="M9 5C9 6.65685 10.3431 8 12 8C13.6569 8 15 6.65685 15 5C15 3.34315 13.6569 2 12 2C10.3431 2 9 3.34315 9 5ZM13 5C13 5.55228 12.5523 6 12 6C11.4477 6 11 5.55228 11 5C11 4.44772 11.4477 4 12 4C12.5523 4 13 4.44772 13 5ZM13 10C14.1046 10 15 10.8954 15 12V20C15 21.1046 14.1046 22 13 22H11C9.89543 22 9 21.1046 9 20V12C9 10.8954 9.89543 10 11 10H13ZM11 20V12H13V20H11Z" fill="#636363"/>
</svg>
