<svg width="24" height="24" viewBox="0 0 24 24" fill="none" xmlns="http://www.w3.org/2000/svg">
<path fill-rule="evenodd" clip-rule="evenodd" d="M4 2C3.44772 2 3 2.44772 3 3V21C3 21.5523 3.44772 22 4 22H5H13C13.5523 22 14 21.5523 14 21V20V17C14 16.4477 13.5523 16 13 16C12.4477 16 12 16.4477 12 17V20H5V4H12V7C12 7.55228 12.4477 8 13 8C13.5523 8 14 7.55228 14 7V4V3C14 2.44772 13.5523 2 13 2H5H4ZM10.9547 13H18.5858L16.2929 15.2929C15.9024 15.6834 15.9024 16.3166 16.2929 16.7071C16.6834 17.0976 17.3166 17.0976 17.7071 16.7071L21.7071 12.7071C22.0976 12.3166 22.0976 11.6834 21.7071 11.2929L17.7071 7.29289C17.3166 6.90237 16.6834 6.90237 16.2929 7.29289C15.9024 7.68342 15.9024 8.31658 16.2929 8.70711L18.5858 11H10.9547C10.4274 11 10 11.4477 10 12C10 12.5523 10.4274 13 10.9547 13Z" fill="#636363"/>
</svg>
