<svg width="24" height="24" viewBox="0 0 24 24" fill="none" xmlns="http://www.w3.org/2000/svg">
<path d="M12.6333 16.3313L17.7 13L20.2333 14.6663V2.625C20.2333 2.45924 20.1666 2.30027 20.0478 2.18306C19.9291 2.06585 19.768 2 19.6 2H3.13333C2.96536 2 2.80427 2.06585 2.6855 2.18306C2.56673 2.30027 2.5 2.45924 2.5 2.625V21.375C2.5 21.5408 2.56673 21.6997 2.6855 21.8169C2.80427 21.9342 2.96536 22 3.13333 22H12.6333V16.3313ZM6.3 7.625H16.4333V8.875H6.3V7.625ZM6.3 11.375H16.4333V12.625H6.3V11.375ZM11.3667 16.375H6.3V15.125H11.3667V16.375Z" fill="#5E6D7A"/>
<path d="M13.8999 17V21.375C13.8999 21.5408 13.9666 21.6997 14.0854 21.8169C14.2042 21.9342 14.3653 22 14.5332 22H16.4332V19.5H18.9666V22H20.8666C21.0345 22 21.1956 21.9342 21.3144 21.8169C21.4332 21.6997 21.4999 21.5408 21.4999 21.375V17L17.6999 14.5L13.8999 17Z" fill="#5E6D7A"/>
</svg>
