<svg width="24" height="24" viewBox="0 0 24 24" fill="none" xmlns="http://www.w3.org/2000/svg">
<path fill-rule="evenodd" clip-rule="evenodd" d="M20 6C21.1046 6 22 5.10457 22 4C22 2.89543 21.1046 2 20 2C18.8954 2 18 2.89543 18 4C18 4.22812 18.0382 4.44733 18.1085 4.65156L15.6516 7.10853C15.4473 7.03819 15.2281 7 15 7C14.5771 7 14.1848 7.13126 13.8618 7.35526L10.9874 5.77448C10.8754 4.77608 10.0283 4 9 4C7.89543 4 7 4.89543 7 6C7 6.12415 7.01131 6.24566 7.03296 6.36354L4.7181 8.13279C4.49522 8.04701 4.2531 8 4 8C2.89543 8 2 8.89543 2 10C2 11.1046 2.89543 12 4 12C5.10457 12 6 11.1046 6 10C6 9.88723 5.99067 9.77665 5.97273 9.66897L8.31426 7.87934C8.52815 7.95741 8.7591 8 9 8C9.44823 8 9.86202 7.85255 10.1955 7.60351L13.0055 9.14887C13.0816 10.1839 13.9455 11 15 11C16.1046 11 17 10.1046 17 9C17 8.87142 16.9879 8.74567 16.9647 8.62384L19.6238 5.96468C19.7457 5.98787 19.8714 6 20 6ZM22 14C22 15.1046 21.1046 16 20 16C19.8714 16 19.7457 15.9879 19.6238 15.9647L16.9647 18.6238C16.9879 18.7457 17 18.8714 17 19C17 20.1046 16.1046 21 15 21C13.9455 21 13.0816 20.1839 13.0055 19.1489L10.1955 17.6035C9.86202 17.8525 9.44823 18 9 18C8.7591 18 8.52815 17.9574 8.31426 17.8793L5.97273 19.669C5.99067 19.7766 6 19.8872 6 20C6 21.1046 5.10457 22 4 22C2.89543 22 2 21.1046 2 20C2 18.8954 2.89543 18 4 18C4.2531 18 4.49522 18.047 4.7181 18.1328L7.03296 16.3635C7.01131 16.2457 7 16.1241 7 16C7 14.8954 7.89543 14 9 14C10.0283 14 10.8754 14.7761 10.9874 15.7745L13.8618 17.3553C14.1848 17.1313 14.5771 17 15 17C15.2281 17 15.4473 17.0382 15.6516 17.1085L18.1085 14.6516C18.0382 14.4473 18 14.2281 18 14C18 12.8954 18.8954 12 20 12C21.1046 12 22 12.8954 22 14Z" fill="#636363"/>
</svg>
