<svg width="24" height="24" viewBox="0 0 24 24" fill="none" xmlns="http://www.w3.org/2000/svg">
<path fill-rule="evenodd" clip-rule="evenodd" d="M13.4142 9.17155L11.9999 10.5858C11.6094 10.1952 11.6094 9.56207 11.9999 9.17155C12.3905 8.78102 13.0236 8.78102 13.4142 9.17155ZM13.4142 9.17155L16.9497 12.7071C17.7307 13.4881 17.7307 14.7545 16.9497 15.5355L11.9999 10.5858L13.4142 9.17155ZM15.5355 14.1213L16.9497 15.5355L11.2928 21.1924L9.87863 19.7782L15.5355 14.1213ZM4.22177 14.1213L11.2928 21.1924C10.5118 21.9734 9.24546 21.9734 8.46441 21.1924L4.22177 16.9497C3.44072 16.1687 3.44072 14.9023 4.22177 14.1213ZM6.34309 13.4142C6.73362 13.8047 6.73362 14.4379 6.34309 14.8284L5.63599 15.5355L4.22177 14.1213L4.92888 13.4142C5.3194 13.0237 5.95257 13.0237 6.34309 13.4142ZM8.46441 9.87866L11.9999 13.4142L10.5857 14.8284L7.0502 11.2929L8.46441 9.87866ZM15.5355 2.80759L7.0502 11.2929C6.26915 10.5118 6.26915 9.24549 7.0502 8.46444L12.7071 2.80759C13.4881 2.02654 14.7544 2.02654 15.5355 2.80759ZM11.9999 13.4142C12.3905 13.8047 12.3905 14.4379 11.9999 14.8284C11.6094 15.2189 10.9763 15.2189 10.5857 14.8284L11.9999 13.4142ZM15.5355 2.80759L19.7781 7.05023L18.3639 8.46444L14.1213 4.2218L15.5355 2.80759ZM19.7781 7.05023C20.5592 7.83128 20.5592 9.09761 19.7781 9.87866L19.071 10.5858C18.6805 10.9763 18.0473 10.9763 17.6568 10.5858C17.2663 10.1952 17.2663 9.56207 17.6568 9.17155L19.7781 7.05023Z" fill="#636363"/>
</svg>
