<svg width="24" height="24" viewBox="0 0 24 24" fill="none" xmlns="http://www.w3.org/2000/svg">
<path fill-rule="evenodd" clip-rule="evenodd" d="M6 7C6 7.55228 5.55228 8 5 8C4.44772 8 4 7.55228 4 7C4 6.44772 4.44772 6 5 6C5.55228 6 6 6.44772 6 7ZM6 12C6 12.5523 5.55228 13 5 13C4.44772 13 4 12.5523 4 12C4 11.4477 4.44772 11 5 11C5.55228 11 6 11.4477 6 12ZM5 18C5.55228 18 6 17.5523 6 17C6 16.4477 5.55228 16 5 16C4.44772 16 4 16.4477 4 17C4 17.5523 4.44772 18 5 18ZM9 6C8.44772 6 8 6.44772 8 7C8 7.55228 8.44771 8 9 8H19C19.5523 8 20 7.55228 20 7C20 6.44772 19.5523 6 19 6H9ZM8 12C8 11.4477 8.44772 11 9 11H19C19.5523 11 20 11.4477 20 12C20 12.5523 19.5523 13 19 13H9C8.44771 13 8 12.5523 8 12ZM9 16C8.44772 16 8 16.4477 8 17C8 17.5523 8.44771 18 9 18H19C19.5523 18 20 17.5523 20 17C20 16.4477 19.5523 16 19 16H9Z" fill="#636363"/>
</svg>
