<svg width="24" height="24" viewBox="0 0 24 24" fill="none" xmlns="http://www.w3.org/2000/svg">
<path fill-rule="evenodd" clip-rule="evenodd" d="M13 4C13 5.10457 12.1046 6 11 6C9.89543 6 9 5.10457 9 4C9 2.89543 9.89543 2 11 2C12.1046 2 13 2.89543 13 4ZM21 6C21 7.65685 19.6569 9 18 9C16.3431 9 15 7.65685 15 6C15 4.34315 16.3431 3 18 3C19.6569 3 21 4.34315 21 6ZM20 15C21.1046 15 22 14.1046 22 13C22 11.8954 21.1046 11 20 11C18.8954 11 18 11.8954 18 13C18 14.1046 18.8954 15 20 15ZM5 14C5 14.5523 4.55228 15 4 15C3.44772 15 3 14.5523 3 14C3 13.4477 3.44772 13 4 13C4.55228 13 5 13.4477 5 14ZM4 11C4.55228 11 5 10.5523 5 10C5 9.44772 4.55228 9 4 9C3.44772 9 3 9.44772 3 10C3 10.5523 3.44772 11 4 11ZM8 6.5C8 7.32843 7.32843 8 6.5 8C5.67157 8 5 7.32843 5 6.5C5 5.67157 5.67157 5 6.5 5C7.32843 5 8 5.67157 8 6.5ZM17.5 19C18.3284 19 19 18.3284 19 17.5C19 16.6716 18.3284 16 17.5 16C16.6716 16 16 16.6716 16 17.5C16 18.3284 16.6716 19 17.5 19ZM15 20C15 20.5523 14.5523 21 14 21C13.4477 21 13 20.5523 13 20C13 19.4477 13.4477 19 14 19C14.5523 19 15 19.4477 15 20ZM6 18.5C6.55228 18.5 7 18.0523 7 17.5C7 16.9477 6.55228 16.5 6 16.5C5.44772 16.5 5 16.9477 5 17.5C5 18.0523 5.44772 18.5 6 18.5ZM10.5 20C10.5 20.5523 10.0523 21 9.5 21C8.94772 21 8.5 20.5523 8.5 20C8.5 19.4477 8.94772 19 9.5 19C10.0523 19 10.5 19.4477 10.5 20Z" fill="#636363"/>
</svg>
