<svg width="24" height="24" viewBox="0 0 24 24" fill="none" xmlns="http://www.w3.org/2000/svg">
<path fill-rule="evenodd" clip-rule="evenodd" d="M19.6469 9.64031L19.6432 9.64142C19.4818 9.11327 19.779 8.55422 20.3072 8.39275C20.8281 8.23347 21.3792 8.52055 21.549 9.03531L21.5529 9.03413C21.8435 9.97124 22 10.9673 22 12C22 17.5228 17.5228 22 12 22C6.47715 22 2 17.5228 2 12C2 6.47715 6.47715 2 12 2C12.5523 2 13 2.44772 13 3C13 3.55228 12.5523 4 12 4C7.58172 4 4 7.58172 4 12C4 16.4183 7.58172 20 12 20C16.4183 20 20 16.4183 20 12C20 11.1893 19.88 10.397 19.6469 9.64031Z" fill="#636363"/>
</svg>
