<svg width="24" height="25" viewBox="0 0 24 25" fill="none" xmlns="http://www.w3.org/2000/svg">
<path fill-rule="evenodd" clip-rule="evenodd" d="M12 0.574219C5.39848 0.574219 0.28125 5.40984 0.28125 11.9414C0.28125 15.3578 1.68141 18.31 3.96159 20.3491C4.15301 20.5205 4.26855 20.7605 4.27641 21.0173L4.34023 23.1019C4.36062 23.7668 5.04743 24.1995 5.65587 23.9309L7.98187 22.9041C8.17905 22.8171 8.4 22.8009 8.60777 22.8581C9.67664 23.152 10.8142 23.3086 12 23.3086C18.6015 23.3086 23.7188 18.473 23.7188 11.9414C23.7188 5.40984 18.6015 0.574219 12 0.574219Z" fill="#231F20"/>
<path fill-rule="evenodd" clip-rule="evenodd" d="M4.96327 15.2658L8.40566 9.80434C8.95323 8.9355 10.1258 8.71917 10.9474 9.33535L13.6853 11.3888C13.9365 11.5772 14.2821 11.5762 14.5323 11.3864L18.2299 8.58007C18.7235 8.20554 19.3677 8.79617 19.0374 9.3203L15.5951 14.7818C15.0474 15.6506 13.8749 15.8669 13.0533 15.2507L10.3153 13.1972C10.0642 13.0088 9.71851 13.0099 9.46838 13.1997L5.77069 16.006C5.27717 16.3805 4.63292 15.7899 4.96327 15.2658Z" fill="white"/>
</svg>
