<svg width="24" height="24" viewBox="0 0 24 24" fill="none" xmlns="http://www.w3.org/2000/svg">
<path fill-rule="evenodd" clip-rule="evenodd" d="M8 9.43739V12C8 13.8666 9.27853 15.4346 11.0076 15.8759C11.0026 15.9166 11 15.958 11 16V17.917C8.16229 17.441 6 14.973 6 12C6 11.4477 5.55228 11 5 11C4.44772 11 4 11.4477 4 12C4 16.0796 7.05369 19.446 11 19.9381V21C11 21.5523 11.4477 22 12 22C12.5523 22 13 21.5523 13 21V19.9381C14.455 19.7567 15.7886 19.1845 16.8926 18.33L20.2648 21.7021C20.6618 22.0992 21.3055 22.0993 21.7024 21.7024C22.0993 21.3055 22.0992 20.6618 21.7021 20.2648L18.33 16.8926C18.3337 16.8879 18.3373 16.8831 18.341 16.8784L16.9108 15.4482C16.9073 15.4531 16.9039 15.4581 16.9004 15.463L15.4548 14.0174C15.4579 14.0121 15.461 14.0068 15.464 14.0014L13.9421 12.4795C13.9405 12.4863 13.9388 12.493 13.9371 12.4997L10 8.56261V8.53739L8 6.53739V6.56261L3.73524 2.29786C3.33819 1.9008 2.69455 1.9007 2.29763 2.29763C1.9007 2.69455 1.9008 3.33819 2.29786 3.73524L8 9.43739ZM10 11.4374V12C10 13.1046 10.8954 14 12 14C12.1725 14 12.34 13.9782 12.4997 13.9371L10 11.4374ZM14.0174 15.4548C13.7009 15.64 13.3566 15.783 12.9924 15.8759C12.9974 15.9166 13 15.958 13 16V17.917C13.906 17.765 14.7431 17.41 15.463 16.9004L14.0174 15.4548ZM16 11.6626L14 9.66261V6C14 4.89543 13.1046 4 12 4C11.0019 4 10.1746 4.73109 10.0244 5.68697L8.4646 4.12721C9.13631 2.86181 10.4675 2 12 2C14.2091 2 16 3.79086 16 6V11.6626ZM17.8163 13.479L19.3949 15.0575C19.7848 14.1156 20 13.0829 20 12C20 11.4477 19.5523 11 19 11C18.4477 11 18 11.4477 18 12C18 12.5104 17.9363 13.0059 17.8163 13.479Z" fill="#636363"/>
</svg>
