<svg width="24" height="24" viewBox="0 0 24 24" fill="none" xmlns="http://www.w3.org/2000/svg">
<path fill-rule="evenodd" clip-rule="evenodd" d="M2.2681 3.66974L7.61614 9.01778H4.40232C3.85494 9.01778 3.41121 9.46151 3.41121 10.0089C3.41121 10.5563 3.85494 11 4.40232 11H10.0089C10.5563 11 11 10.5563 11 10.0089V4.40232C11 3.85494 10.5563 3.41121 10.0089 3.41121C9.46151 3.41121 9.01778 3.85494 9.01778 4.40232V7.61613L3.66974 2.2681C3.30022 1.89858 2.68691 1.9128 2.29985 2.29985C1.9128 2.68691 1.89858 3.30022 2.2681 3.66974ZM20.3303 2.2681L14.9822 7.61614V4.40232C14.9822 3.85494 14.5385 3.41121 13.9911 3.41121C13.4437 3.41121 13 3.85494 13 4.40232V10.0089C13 10.5563 13.4437 11 13.9911 11H19.5977C20.1451 11 20.5888 10.5563 20.5888 10.0089C20.5888 9.46151 20.1451 9.01778 19.5977 9.01778H16.3839L21.7319 3.66974C22.1014 3.30022 22.0872 2.68691 21.7001 2.29985C21.3131 1.9128 20.6998 1.89858 20.3303 2.2681ZM16.3839 14.9822L21.7319 20.3303C22.1014 20.6998 22.0872 21.3131 21.7001 21.7001C21.3131 22.0872 20.6998 22.1014 20.3303 21.7319L14.9822 16.3839V19.5977C14.9822 20.1451 14.5385 20.5888 13.9911 20.5888C13.4437 20.5888 13 20.1451 13 19.5977V13.9911C13 13.4437 13.4437 13 13.9911 13H19.5977C20.1451 13 20.5888 13.4437 20.5888 13.9911C20.5888 14.5385 20.1451 14.9822 19.5977 14.9822H16.3839ZM3.66974 21.7319L9.01778 16.3839L9.01778 19.5977C9.01778 20.1451 9.46151 20.5888 10.0089 20.5888C10.5563 20.5888 11 20.1451 11 19.5977V13.9911C11 13.4437 10.5563 13 10.0089 13H4.40232C3.85494 13 3.41121 13.4437 3.41121 13.9911C3.41121 14.5385 3.85494 14.9822 4.40232 14.9822H7.61614L2.2681 20.3303C1.89858 20.6998 1.9128 21.3131 2.29985 21.7001C2.68691 22.0872 3.30022 22.1014 3.66974 21.7319Z" fill="#636363"/>
</svg>
