<svg width="24" height="24" viewBox="0 0 24 24" fill="none" xmlns="http://www.w3.org/2000/svg">
<path d="M17 14.9238C17 15.9397 16.6504 16.7968 15.9513 17.4952C15.2647 18.1937 14.3346 18.6317 13.161 18.8095V20.0095C13.161 20.3016 13.0737 20.5365 12.8989 20.7143C12.7241 20.9048 12.4931 21 12.206 21C11.9189 21 11.6879 20.9048 11.5131 20.7143C11.3383 20.5365 11.2509 20.3016 11.2509 20.0095V18.8476C10.5393 18.7841 9.84644 18.6317 9.17228 18.3905C8.49813 18.1492 7.9176 17.8317 7.43071 17.4381C7.26841 17.3238 7.15605 17.1968 7.09363 17.0571C7.03121 16.9175 7 16.746 7 16.5429C7 16.2762 7.07491 16.0413 7.22472 15.8381C7.38702 15.6349 7.56804 15.5333 7.76779 15.5333C7.89263 15.5333 8.00499 15.5587 8.10487 15.6095C8.21723 15.6476 8.3608 15.7175 8.53558 15.819C9.10986 16.2 9.67166 16.4794 10.221 16.6571C10.7828 16.8349 11.3695 16.9238 11.9813 16.9238C12.8177 16.9238 13.4607 16.7587 13.9101 16.4286C14.372 16.0984 14.603 15.6222 14.603 15C14.603 14.6317 14.4782 14.3333 14.2285 14.1048C13.9788 13.8762 13.6667 13.6984 13.2921 13.5714C12.9176 13.4317 12.3933 13.273 11.7191 13.0952C10.7828 12.854 10.0212 12.6127 9.43446 12.3714C8.84769 12.1175 8.34207 11.7365 7.9176 11.2286C7.49313 10.7206 7.2809 10.0349 7.2809 9.17143C7.2809 8.14286 7.64295 7.26667 8.36704 6.54286C9.09114 5.81905 10.0399 5.36825 11.2135 5.19048V3.99048C11.2135 3.69841 11.3009 3.46349 11.4757 3.28571C11.6504 3.09524 11.8814 3 12.1685 3C12.4557 3 12.6866 3.09524 12.8614 3.28571C13.0362 3.46349 13.1236 3.69841 13.1236 3.99048V5.17143C14.3845 5.33651 15.4707 5.8 16.382 6.56191C16.6816 6.79048 16.8315 7.08889 16.8315 7.45714C16.8315 7.72381 16.7503 7.95873 16.588 8.16191C16.4382 8.36508 16.2572 8.46667 16.0449 8.46667C15.9326 8.46667 15.8202 8.44762 15.7079 8.40952C15.608 8.37143 15.4707 8.29524 15.2959 8.18095C14.784 7.8127 14.2971 7.53968 13.8352 7.36191C13.3858 7.17143 12.8489 7.07619 12.2247 7.07619C11.4507 7.07619 10.8327 7.25397 10.3708 7.60952C9.90886 7.95238 9.6779 8.42857 9.6779 9.03809C9.6779 9.45714 9.80899 9.8 10.0712 10.0667C10.3333 10.3206 10.6642 10.5175 11.0637 10.6571C11.4632 10.7968 12.0062 10.9556 12.6929 11.1333C13.6042 11.3619 14.3471 11.5968 14.9213 11.8381C15.4956 12.0794 15.9825 12.4476 16.382 12.9429C16.794 13.4254 17 14.0857 17 14.9238Z" fill="#636363"/>
</svg>
