<svg width="24" height="24" viewBox="0 0 24 24" fill="none" xmlns="http://www.w3.org/2000/svg">
<path fill-rule="evenodd" clip-rule="evenodd" d="M13 2H5C4.44772 2 4 2.44772 4 3V21C4 21.5523 4.44772 22 5 22H19C19.5523 22 20 21.5523 20 21V6.41421C20 6.149 19.8946 5.89464 19.7071 5.70711L16.2929 2.29289C16.1054 2.10536 15.851 2 15.5858 2H15H13ZM8.45468 15.0026H13.0405L11.1629 16.8633C10.7724 17.2537 10.7724 17.8868 11.1629 18.2772C11.5535 18.6676 12.1866 18.6676 12.5771 18.2772L16.1618 14.7098C16.5523 14.3193 16.5523 13.6863 16.1618 13.2959L12.5772 9.61282C12.1866 9.22239 11.5535 9.22239 11.1629 9.61282C10.7724 10.0032 10.7724 10.6363 11.1629 11.0267L13.0405 13.0031H8.45468C7.92743 13.0031 7.5 13.4507 7.5 14.0028C7.5 14.555 7.92743 15.0026 8.45468 15.0026Z" fill="#636363"/>
</svg>
