<svg width="24" height="24" viewBox="0 0 24 24" fill="none" xmlns="http://www.w3.org/2000/svg">
<path d="M3 2H21C21.5523 2 22 2.44772 22 3V21C22 21.5523 21.5523 22 21 22H3C2.44772 22 2 21.5523 2 21V3C2 2.44772 2.44772 2 3 2ZM5.15662 12.8354C5.15662 12.6553 5.12915 12.4905 5.07422 12.3411C5.01929 12.1916 4.93909 12.0627 4.83362 11.9543C4.72815 11.8459 4.60144 11.7625 4.45349 11.7039C4.30554 11.6453 4.14075 11.616 3.95911 11.616C3.78039 11.616 3.61707 11.6449 3.46912 11.7028C3.32117 11.7606 3.19519 11.843 3.09119 11.95C2.98718 12.0569 2.90735 12.1858 2.85168 12.3367C2.79602 12.4875 2.76819 12.6538 2.76819 12.8354C2.76819 13.0156 2.79565 13.1801 2.85059 13.3287C2.90552 13.4774 2.98608 13.6063 3.09229 13.7155C3.19849 13.8246 3.3241 13.9084 3.46912 13.967C3.61414 14.0256 3.77746 14.0549 3.95911 14.0549C4.14221 14.0549 4.30701 14.026 4.45349 13.9681C4.59998 13.9103 4.72595 13.8271 4.83142 13.7188C4.93689 13.6104 5.01746 13.4807 5.07312 13.3298C5.12878 13.179 5.15662 13.0142 5.15662 12.8354ZM4.55457 12.8354C4.55457 13.0771 4.50073 13.2665 4.39307 13.4034C4.2854 13.5404 4.14075 13.6089 3.95911 13.6089C3.83899 13.6089 3.73462 13.5778 3.646 13.5155C3.55737 13.4532 3.48926 13.3635 3.44165 13.2463C3.39404 13.1291 3.37024 12.9922 3.37024 12.8354C3.37024 12.6772 3.39441 12.5388 3.44275 12.4202C3.49109 12.3015 3.55994 12.2118 3.64929 12.151C3.73865 12.0902 3.84192 12.0598 3.95911 12.0598C4.14075 12.0598 4.2854 12.1279 4.39307 12.2642C4.50073 12.4004 4.55457 12.5908 4.55457 12.8354ZM6.17395 11.9478C6.17395 11.876 6.16113 11.8152 6.1355 11.7654C6.10986 11.7156 6.07581 11.6782 6.03333 11.6533C5.99084 11.6284 5.94324 11.616 5.8905 11.616C5.80408 11.616 5.73596 11.6442 5.68616 11.7006C5.63635 11.757 5.61145 11.8423 5.61145 11.9565V13.6902C5.61145 13.8074 5.63928 13.8975 5.69495 13.9604C5.75061 14.0234 5.82165 14.0549 5.90808 14.0549C5.99744 14.0549 6.07031 14.0245 6.12671 13.9637C6.18311 13.903 6.2113 13.8118 6.2113 13.6902V12.9387C6.2113 12.6941 6.22595 12.5271 6.25525 12.4377C6.29626 12.3264 6.36072 12.2389 6.44861 12.1752C6.5365 12.1115 6.63391 12.0796 6.74084 12.0796C6.90491 12.0796 7.0144 12.132 7.06934 12.2367C7.12427 12.3414 7.15173 12.4927 7.15173 12.6904V13.6902C7.15173 13.8074 7.17956 13.8975 7.23523 13.9604C7.29089 14.0234 7.3634 14.0549 7.45276 14.0549C7.54065 14.0549 7.61206 14.0242 7.66699 13.9626C7.72192 13.9011 7.74939 13.8103 7.74939 13.6902V12.574C7.74939 12.4421 7.74353 12.3337 7.73181 12.2488C7.72009 12.1638 7.69446 12.0847 7.65491 12.0115C7.59338 11.8855 7.50037 11.7881 7.37585 11.7192C7.25134 11.6504 7.10999 11.616 6.95178 11.616C6.78918 11.616 6.64526 11.6486 6.52002 11.7137C6.39477 11.7789 6.27942 11.8811 6.17395 12.0203V11.9478ZM10.0214 12.9827C10.1781 12.9827 10.2997 12.9603 10.3861 12.9156C10.4725 12.871 10.5157 12.7732 10.5157 12.6223C10.5157 12.4597 10.474 12.3 10.3905 12.1433C10.307 11.9866 10.1814 11.8588 10.0137 11.7599C9.84595 11.661 9.6449 11.6116 9.41052 11.6116C9.23035 11.6116 9.06629 11.6405 8.91833 11.6984C8.77038 11.7562 8.64587 11.8394 8.5448 11.9478C8.44373 12.0562 8.36682 12.1862 8.31409 12.3378C8.26135 12.4894 8.23499 12.6538 8.23499 12.8311C8.23499 13.2075 8.34192 13.5056 8.55579 13.7253C8.76965 13.9451 9.06921 14.0549 9.45447 14.0549C9.62293 14.0549 9.77197 14.033 9.90161 13.989C10.0313 13.9451 10.1389 13.8898 10.2246 13.8231C10.3103 13.7565 10.3744 13.6869 10.4169 13.6144C10.4594 13.5419 10.4806 13.4785 10.4806 13.4243C10.4806 13.3628 10.4615 13.3152 10.4235 13.2815C10.3854 13.2478 10.3356 13.231 10.274 13.231C10.2169 13.231 10.173 13.2441 10.1422 13.2705C10.0675 13.3408 10.0067 13.3965 9.95984 13.4375C9.91296 13.4785 9.86169 13.517 9.80603 13.5529C9.75037 13.5887 9.69287 13.6151 9.63354 13.632C9.57422 13.6488 9.50867 13.6572 9.43689 13.6572C9.32996 13.6572 9.23218 13.6309 9.14355 13.5781C9.05493 13.5254 8.98389 13.447 8.93042 13.343C8.87695 13.239 8.84949 13.1189 8.84802 12.9827H10.0214ZM8.84802 12.6421C8.86853 12.4399 8.92676 12.2872 9.02271 12.184C9.11865 12.0807 9.24133 12.0291 9.39075 12.0291C9.54749 12.0291 9.67383 12.08 9.76978 12.1818C9.86572 12.2836 9.92102 12.437 9.93567 12.6421H8.84802ZM11.0211 13.6902C11.0211 13.8074 11.0486 13.8975 11.1035 13.9604C11.1584 14.0234 11.2299 14.0549 11.3177 14.0549C11.4071 14.0549 11.48 14.0245 11.5364 13.9637C11.5928 13.903 11.621 13.8118 11.621 13.6902V11.0886C11.621 10.967 11.5931 10.8759 11.5375 10.8151C11.4818 10.7543 11.4086 10.7239 11.3177 10.7239C11.2269 10.7239 11.1548 10.7546 11.1013 10.8162C11.0479 10.8777 11.0211 10.9685 11.0211 11.0886V13.6902ZM14.4862 12.8354C14.4862 12.6553 14.4587 12.4905 14.4038 12.3411C14.3489 12.1916 14.2687 12.0627 14.1632 11.9543C14.0577 11.8459 13.931 11.7625 13.7831 11.7039C13.6351 11.6453 13.4703 11.616 13.2887 11.616C13.11 11.616 12.9467 11.6449 12.7987 11.7028C12.6508 11.7606 12.5248 11.843 12.4208 11.95C12.3168 12.0569 12.2369 12.1858 12.1813 12.3367C12.1256 12.4875 12.0978 12.6538 12.0978 12.8354C12.0978 13.0156 12.1252 13.1801 12.1802 13.3287C12.2351 13.4774 12.3157 13.6063 12.4219 13.7155C12.5281 13.8246 12.6537 13.9084 12.7987 13.967C12.9437 14.0256 13.1071 14.0549 13.2887 14.0549C13.4718 14.0549 13.6366 14.026 13.7831 13.9681C13.9296 13.9103 14.0555 13.8271 14.161 13.7188C14.2665 13.6104 14.347 13.4807 14.4027 13.3298C14.4584 13.179 14.4862 13.0142 14.4862 12.8354ZM13.8842 12.8354C13.8842 13.0771 13.8303 13.2665 13.7227 13.4034C13.615 13.5404 13.4703 13.6089 13.2887 13.6089C13.1686 13.6089 13.0642 13.5778 12.9756 13.5155C12.887 13.4532 12.8188 13.3635 12.7712 13.2463C12.7236 13.1291 12.6998 12.9922 12.6998 12.8354C12.6998 12.6772 12.724 12.5388 12.7723 12.4202C12.8207 12.3015 12.8895 12.2118 12.9789 12.151C13.0682 12.0902 13.1715 12.0598 13.2887 12.0598C13.4703 12.0598 13.615 12.1279 13.7227 12.2642C13.8303 12.4004 13.8842 12.5908 13.8842 12.8354ZM17.1647 12.0554C17.1647 11.9133 17.1456 11.8046 17.1075 11.7291C17.0695 11.6537 16.9926 11.616 16.8768 11.616C16.7963 11.616 16.7303 11.6445 16.6791 11.7017C16.6278 11.7588 16.6022 11.8394 16.6022 11.9434V12.0247C16.4952 11.8855 16.3795 11.7833 16.255 11.7181C16.1305 11.653 15.9833 11.6204 15.8134 11.6204C15.6713 11.6204 15.5409 11.6456 15.4222 11.6962C15.3036 11.7467 15.1989 11.8218 15.108 11.9214C15.0172 12.021 14.9473 12.1433 14.8982 12.2883C14.8491 12.4334 14.8246 12.5959 14.8246 12.7761C14.8246 13.0178 14.8649 13.231 14.9454 13.4155C15.026 13.6001 15.1414 13.7437 15.2915 13.8462C15.4417 13.9487 15.6171 14 15.8177 14C15.9847 14 16.1287 13.9663 16.2495 13.8989C16.3704 13.8315 16.4769 13.7334 16.5692 13.6045C16.5663 13.8008 16.5619 13.9432 16.556 14.0319C16.5502 14.1205 16.53 14.2036 16.4956 14.2812C16.4612 14.3589 16.4011 14.4193 16.3154 14.4625C16.2297 14.5057 16.1093 14.5273 15.954 14.5273C15.8778 14.5273 15.8104 14.5204 15.7518 14.5065C15.6932 14.4926 15.6431 14.4713 15.6013 14.4427C15.5596 14.4142 15.5215 14.3798 15.4871 14.3395C15.4526 14.2992 15.4193 14.2593 15.3871 14.2197C15.3212 14.1421 15.2443 14.1033 15.1564 14.1033C15.0861 14.1033 15.026 14.1263 14.9762 14.1725C14.9264 14.2186 14.9015 14.2783 14.9015 14.3516C14.9015 14.4482 14.9454 14.5424 15.0333 14.6339C15.1212 14.7255 15.2465 14.8002 15.4091 14.858C15.5717 14.9159 15.7562 14.9448 15.9628 14.9448C16.1884 14.9448 16.377 14.9221 16.5286 14.8767C16.6802 14.8313 16.8029 14.7617 16.8966 14.668C16.9904 14.5742 17.0585 14.4556 17.101 14.312C17.1434 14.1685 17.1647 13.9971 17.1647 13.7979V12.0554ZM15.4266 12.8157C15.4266 12.5754 15.4783 12.3901 15.5815 12.2598C15.6848 12.1294 15.8221 12.0642 15.9935 12.0642C16.1693 12.0642 16.311 12.1323 16.4187 12.2686C16.5264 12.4048 16.5802 12.5952 16.5802 12.8398C16.5802 12.9937 16.5524 13.1244 16.4967 13.2321C16.441 13.3397 16.3689 13.4203 16.2803 13.4738C16.1917 13.5272 16.0975 13.554 15.9979 13.554C15.8295 13.554 15.6921 13.4917 15.5859 13.3672C15.4797 13.2427 15.4266 13.0588 15.4266 12.8157ZM18.371 11.9565C18.371 11.8496 18.3424 11.7661 18.2853 11.7061C18.2281 11.646 18.1556 11.616 18.0677 11.616C17.9799 11.616 17.9084 11.646 17.8535 11.7061C17.7986 11.7661 17.7711 11.8555 17.7711 11.9741V13.6902C17.7711 13.8074 17.7986 13.8975 17.8535 13.9604C17.9084 14.0234 17.9799 14.0549 18.0677 14.0549C18.1556 14.0549 18.2281 14.0242 18.2853 13.9626C18.3424 13.9011 18.371 13.8103 18.371 13.6902V11.9565ZM18.0743 11.3369C18.1549 11.3369 18.2245 11.3109 18.2831 11.2589C18.3417 11.2069 18.371 11.1348 18.371 11.0425C18.371 10.9473 18.3409 10.8748 18.2809 10.825C18.2208 10.7751 18.152 10.7502 18.0743 10.7502C17.9938 10.7502 17.9231 10.7777 17.8623 10.8326C17.8015 10.8876 17.7711 10.9575 17.7711 11.0425C17.7711 11.1362 17.8008 11.2087 17.8601 11.26C17.9194 11.3113 17.9908 11.3369 18.0743 11.3369ZM19.5355 11.9478C19.5355 11.876 19.5227 11.8152 19.4971 11.7654C19.4714 11.7156 19.4374 11.6782 19.3949 11.6533C19.3524 11.6284 19.3048 11.616 19.2521 11.616C19.1656 11.616 19.0975 11.6442 19.0477 11.7006C18.9979 11.757 18.973 11.8423 18.973 11.9565V13.6902C18.973 13.8074 19.0009 13.8975 19.0565 13.9604C19.1122 14.0234 19.1832 14.0549 19.2697 14.0549C19.359 14.0549 19.4319 14.0245 19.4883 13.9637C19.5447 13.903 19.5729 13.8118 19.5729 13.6902V12.9387C19.5729 12.6941 19.5875 12.5271 19.6168 12.4377C19.6578 12.3264 19.7223 12.2389 19.8102 12.1752C19.8981 12.1115 19.9955 12.0796 20.1024 12.0796C20.2665 12.0796 20.376 12.132 20.4309 12.2367C20.4858 12.3414 20.5133 12.4927 20.5133 12.6904V13.6902C20.5133 13.8074 20.5411 13.8975 20.5968 13.9604C20.6525 14.0234 20.725 14.0549 20.8143 14.0549C20.9022 14.0549 20.9736 14.0242 21.0286 13.9626C21.0835 13.9011 21.111 13.8103 21.111 13.6902V12.574C21.111 12.4421 21.1051 12.3337 21.0934 12.2488C21.0817 12.1638 21.056 12.0847 21.0165 12.0115C20.955 11.8855 20.8619 11.7881 20.7374 11.7192C20.6129 11.6504 20.4716 11.616 20.3134 11.616C20.1508 11.616 20.0068 11.6486 19.8816 11.7137C19.7563 11.7789 19.641 11.8811 19.5355 12.0203V11.9478Z" fill="#636363"/>
</svg>
