<svg xmlns="http://www.w3.org/2000/svg" xmlns:xlink="http://www.w3.org/1999/xlink" width="24" height="24" viewBox="0 0 24 24">
  <defs>
    <path id="organisation-a" d="M13,13.2357861 L15.0786837,15.3144697 C15.3887568,13.9879637 16.5790027,13 18,13 C19.6568542,13 21,14.3431458 21,16 C21,16.5569854 20.8482104,17.0785184 20.5837402,17.5254899 C21.6112258,18.111014 22,19.1858507 22,20.75 C22,21.5833333 21.6666667,22 21,22 L15,22 C14.3333333,22 14,21.5833333 14,20.75 C14,19.4997164 14.2484037,18.5620746 14.8728614,17.9370746 L12.0034273,15.0676405 L9.13056094,17.9405069 C9.75250406,18.5655053 10,19.502003 10,20.75 C10,21.5833333 9.66666667,22 9,22 L3,22 C2.33333333,22 2,21.5833333 2,20.75 C2,19.1858507 2.38877418,18.111014 3.41625976,17.5254899 C3.15178964,17.0785184 3,16.5569854 3,16 C3,14.3431458 4.34314575,13 6,13 C7.42298207,13 8.61456777,13.9907256 8.9226105,15.3200302 L11,13.2426407 L11,11 L9,11 C8.33333333,11 8,10.5833333 8,9.75 C8,8.18585066 8.38877418,7.11101395 9.41625976,6.52548988 C9.15178964,6.07851838 9,5.55698538 9,5 C9,3.34314575 10.3431458,2 12,2 C13.6568542,2 15,3.34314575 15,5 C15,5.55698538 14.8482104,6.07851838 14.5837402,6.52548988 C15.6112258,7.11101395 16,8.18585066 16,9.75 C16,10.5833333 15.6666667,11 15,11 L13,11 L13,13.2357861 Z M12,6 C12.5522847,6 13,5.55228475 13,5 C13,4.44771525 12.5522847,4 12,4 C11.4477153,4 11,4.44771525 11,5 C11,5.55228475 11.4477153,6 12,6 Z M13.9645992,9 C13.8534693,8.14674901 13.4288887,8 12,8 C10.5711113,8 10.1465307,8.14674901 10.0354008,9 L13.9645992,9 Z M6,17 C6.55228475,17 7,16.5522847 7,16 C7,15.4477153 6.55228475,15 6,15 C5.44771525,15 5,15.4477153 5,16 C5,16.5522847 5.44771525,17 6,17 Z M7.96459922,20 C7.85346929,19.146749 7.42888866,19 6,19 C4.57111134,19 4.14653071,19.146749 4.03540078,20 L7.96459922,20 Z M18,17 C18.5522847,17 19,16.5522847 19,16 C19,15.4477153 18.5522847,15 18,15 C17.4477153,15 17,15.4477153 17,16 C17,16.5522847 17.4477153,17 18,17 Z M19.9645992,20 C19.8534693,19.146749 19.4288887,19 18,19 C16.5711113,19 16.1465307,19.146749 16.0354008,20 L19.9645992,20 Z"/>
  </defs>
  <g fill="none" fill-rule="evenodd">
    <rect width="24" height="24"/>
    <use fill="#1C2025" fill-rule="nonzero" xlink:href="#organisation-a"/>
  </g>
</svg>
