<svg width="24" height="24" viewBox="0 0 24 24" fill="none" xmlns="http://www.w3.org/2000/svg">
<path fill-rule="evenodd" clip-rule="evenodd" d="M13.111 10.6889L15.007 11.81L21.047 8.093H21.048V7.577C21.048 7.351 20.975 7.142 20.853 6.97L14.893 10.637L13.111 9.53698V10.6889ZM13.111 6.519H19.989C20.574 6.519 21.048 6.993 21.048 7.577V15.514C21.048 16.098 20.574 16.572 19.989 16.572H13.111V21.048L2 18.932V4.117L13.111 2V6.519ZM10.051 8.8C9.47 8.125 8.704 7.787 7.76 7.787C6.759 7.787 5.957 8.141 5.35 8.847C4.745 9.554 4.44 10.48 4.44 11.622C4.44 12.704 4.74 13.587 5.335 14.26C5.931 14.934 6.706 15.27 7.651 15.27C8.625 15.27 9.414 14.926 10.019 14.226C10.623 13.531 10.924 12.616 10.924 11.475C10.924 10.37 10.633 9.478 10.05 8.799L10.051 8.8ZM8.904 13.257C8.604 13.664 8.196 13.867 7.68 13.867C7.184 13.867 6.781 13.658 6.471 13.238C6.164 12.823 6.011 12.254 6.011 11.54C6.011 10.833 6.164 10.262 6.471 9.833C6.781 9.405 7.195 9.193 7.717 9.193C8.227 9.193 8.627 9.4 8.917 9.816C9.211 10.236 9.357 10.818 9.357 11.567C9.358 12.289 9.205 12.851 8.904 13.257Z" fill="#636363"/>
</svg>
