<svg width="24" height="24" viewBox="0 0 24 24" fill="none" xmlns="http://www.w3.org/2000/svg">
<path fill-rule="evenodd" clip-rule="evenodd" d="M6.0874 20.7125C5.79573 20.4208 5.6499 20.025 5.6499 19.525V4.9C5.6499 4.41666 5.7874 4.04167 6.0624 3.775C6.3374 3.50833 6.71657 3.375 7.1999 3.375H13.3499C15.2332 3.375 16.6999 3.84583 17.7499 4.7875C18.7999 5.72917 19.3249 7.04999 19.3249 8.75C19.3249 10.45 18.7999 11.775 17.7499 12.725C16.6999 13.675 15.2332 14.15 13.3499 14.15H8.8749V19.525C8.8749 20.025 8.72907 20.4208 8.4374 20.7125C8.14573 21.0042 7.7499 21.15 7.2499 21.15C6.76657 21.15 6.37907 21.0042 6.0874 20.7125ZM12.9499 11.675C15.1666 11.675 16.2749 10.7083 16.2749 8.775C16.2749 6.84166 15.1666 5.875 12.9499 5.875H8.8749V11.675H12.9499Z" fill="#636363"/>
</svg>
