<svg width="24" height="24" viewBox="0 0 24 24" fill="none" xmlns="http://www.w3.org/2000/svg">
<path fill-rule="evenodd" clip-rule="evenodd" d="M3.77778 2H16.2222C17.2041 2 18 2.80589 18 3.8V9H21C21.5523 9 22 9.44772 22 10V21C22 21.5523 21.5523 22 21 22H13C12.4477 22 12 21.5523 12 21V20H3.77778C2.79594 20 2 19.1941 2 18.2V3.8C2 2.80589 2.79594 2 3.77778 2ZM16 4V9H13C12.4477 9 12 9.44772 12 10V18H4V4H6V6C6 7.10457 6.89543 8 8 8H12C13.1046 8 14 7.10457 14 6V4H16ZM12 6V4H8V6H12ZM20 11H14V20H20V11Z" fill="#636363"/>
</svg>
