<svg width="24" height="24" viewBox="0 0 24 24" fill="none" xmlns="http://www.w3.org/2000/svg">
<path fill-rule="evenodd" clip-rule="evenodd" d="M15.5858 7.99992H5.95468C5.42743 7.99992 5 7.55221 5 6.99992C5 6.44764 5.42743 5.99992 5.95468 5.99992H15.5858L14 4.41414C13.6095 4.02361 13.6095 3.39045 14 2.99992C14.3905 2.6094 15.0237 2.6094 15.4142 2.99992L18.7071 6.29282C19.0976 6.68334 19.0976 7.31651 18.7071 7.70703L15.4142 10.9141C15.0237 11.3047 14.3905 11.3047 14 10.9141C13.6095 10.5236 13.6095 9.89045 14 9.49992L15.5858 7.99992ZM14.2622 17.6587C14.2622 17.2352 13.5081 17.0156 12 16.9999C10.4919 17.0156 9.73785 17.2352 9.73785 17.6587C9.73785 17.7817 9.7398 17.8993 9.74166 18.0108C9.74939 18.4752 9.75539 18.8352 9.61099 19.0518C9.13304 19.7686 6.72548 21.4493 5.79106 21.4614C4.37777 21.4796 1.66976 18.0014 2.03322 16.4752C2.56263 14.2522 8.03955 11.9999 12 11.9999C15.9605 11.9999 21.4374 14.2522 21.9668 16.4752C22.3302 18.0014 19.6222 21.4796 18.2089 21.4614C17.2745 21.4493 14.867 19.7686 14.389 19.0518C14.2446 18.8352 14.2506 18.4752 14.2583 18.0108L14.2583 18.0106C14.2602 17.8992 14.2622 17.7817 14.2622 17.6587ZM18.1322 19.3688C17.8745 19.2483 17.5556 19.0658 17.2258 18.8492C16.8401 18.5959 16.4749 18.3132 16.2567 18.13L16.2583 18.0277C16.2611 17.864 16.2622 17.7713 16.2622 17.6587C16.2622 16.3318 15.3875 15.5858 14.2559 15.2562C13.6692 15.0853 12.9414 15.0096 12.0208 15C11.0586 15.0096 10.3308 15.0853 9.74414 15.2562C8.61253 15.5858 7.73785 16.3318 7.73785 17.6587C7.73785 17.7713 7.73895 17.864 7.74166 18.0277L7.74325 18.13C7.5251 18.3132 7.15992 18.5959 6.77424 18.8492C6.44443 19.0658 6.12552 19.2483 5.85151 19.3764C5.82996 19.3607 5.80737 19.3437 5.78386 19.3255C5.48816 19.0956 5.14664 18.7411 4.8352 18.3334C4.52059 17.9215 4.26441 17.4919 4.11486 17.1324C4.06648 17.0162 4.03322 16.9166 4.01453 16.8406C4.50108 15.8329 8.81174 13.9999 12 13.9999C15.1883 13.9999 19.4989 15.8329 19.9855 16.8406C19.9668 16.9166 19.9335 17.0162 19.8851 17.1324C19.7356 17.4919 19.4794 17.9215 19.1648 18.3334C18.8534 18.7411 18.5118 19.0956 18.2161 19.3255C18.1926 19.3437 18.17 19.3607 18.1322 19.3688Z" fill="#636363"/>
</svg>
