<svg width="24" height="24" viewBox="0 0 24 24" fill="none" xmlns="http://www.w3.org/2000/svg">
<path fill-rule="evenodd" clip-rule="evenodd" d="M19.3245 4.44332L18.0001 1L16.6757 4.44332L13.0001 4.64197L15.8573 6.96869L14.9099 10.5349L18.0001 8.52993L21.0901 10.5349L20.1429 6.96869L23.0001 4.64197L19.3245 4.44332ZM7.51678 16.5949L7.46833 16.5462C3.84973 12.891 0.894551 5.81378 2.44447 3.29489C3.51333 1.55781 8.28072 1.76902 9.56308 3.08499C10.4109 3.95504 11.0791 7.7131 10.8595 8.81141C10.7916 9.1512 10.3105 9.61413 9.9234 9.98672L9.92339 9.98673C9.8417 10.0654 9.76418 10.14 9.6956 10.2085C9.31048 10.5937 10.6034 11.903 11.3572 12.6572L11.4058 12.7058C12.16 13.4597 13.4694 14.7526 13.8545 14.3675C13.9231 14.2989 13.9977 14.2214 14.0763 14.1397L14.0763 14.1397L14.0763 14.1397C14.4489 13.7525 14.9119 13.2715 15.2516 13.2036C16.35 12.9839 20.108 13.6521 20.9781 14.5C22.294 15.7823 22.5052 20.5497 20.7682 21.6186C18.2493 23.1685 11.172 20.2133 7.51678 16.5949ZM15.7156 15.3221C15.6958 15.3423 15.6417 15.3981 15.577 15.465L15.5767 15.4653C15.4661 15.5796 15.3245 15.7259 15.2687 15.7817C14.468 16.5824 13.5089 16.5829 12.6445 16.2217C12.2677 16.0643 11.9146 15.8364 11.5325 15.536C11.0621 15.1662 10.6487 14.7768 9.99172 14.1201L9.94269 14.0711C9.2862 13.4143 8.89683 13.0009 8.52703 12.5306C8.22664 12.1485 7.99876 11.7954 7.84132 11.4185C7.4802 10.5541 7.48061 9.59509 8.28139 8.79432C8.33717 8.73853 8.48368 8.59675 8.59797 8.48614L8.59811 8.486L8.59825 8.48587C8.66506 8.42121 8.72081 8.36725 8.74093 8.34742C8.80945 8.27989 8.86668 8.22173 8.91508 8.17032C8.90701 7.21972 8.37255 4.72899 8.13069 4.48079C7.5871 3.92296 4.40652 3.92261 4.14784 4.343C3.84066 4.84223 4.02942 6.59681 4.87993 8.7637C5.81233 11.1392 7.32986 13.5636 8.88742 15.1368L8.93099 15.1806C10.4994 16.7332 12.9238 18.2508 15.2993 19.1831C17.4662 20.0336 19.2208 20.2224 19.7201 19.9152C20.1404 19.6565 20.1401 16.476 19.5823 15.9324C19.3341 15.6905 16.8433 15.156 15.8927 15.148C15.8413 15.1964 15.7832 15.2536 15.7156 15.3221Z" fill="#636363"/>
</svg>
