<svg width="24" height="24" viewBox="0 0 24 24" fill="none" xmlns="http://www.w3.org/2000/svg">
<path fill-rule="evenodd" clip-rule="evenodd" d="M8 12C8.01571 10.4919 8.23531 9.73785 8.65882 9.73785C8.78182 9.73785 8.89934 9.7398 9.01084 9.74166C9.47524 9.74939 9.83526 9.75539 10.0518 9.61099C10.7687 9.13304 12.4494 6.72548 12.4614 5.79106C12.4797 4.37777 9.00148 1.66976 7.47525 2.03322C5.25224 2.56262 3 8.03955 3 12C3 15.9605 5.25224 21.4374 7.47525 21.9668C9.00148 22.3302 12.4797 19.6222 12.4614 18.2089C12.4494 17.2745 10.7687 14.867 10.0518 14.389C9.83526 14.2446 9.47524 14.2506 9.01084 14.2583C8.89934 14.2602 8.78182 14.2622 8.65882 14.2622C8.23531 14.2622 8.01571 13.5081 8 12ZM12.5 13H18.5858L16.2929 15.2929C15.9024 15.6834 15.9024 16.3166 16.2929 16.7071C16.6834 17.0976 17.3166 17.0976 17.7071 16.7071L21.7071 12.7071C22.0976 12.3166 22.0976 11.6834 21.7071 11.2929L17.7071 7.29289C17.3166 6.90237 16.6834 6.90237 16.2929 7.29289C15.9024 7.68342 15.9024 8.31658 16.2929 8.70711L18.5858 11H12.5C11.9727 11 11.5453 11.4477 11.5453 12C11.5453 12.5523 11.9727 13 12.5 13Z" fill="#636363"/>
</svg>
