<svg width="24" height="24" viewBox="0 0 24 24" fill="none" xmlns="http://www.w3.org/2000/svg">
<path fill-rule="evenodd" clip-rule="evenodd" d="M16.9998 1C16.4475 1 15.9998 1.44772 15.9998 2C15.9998 2.55228 16.4475 3 16.9998 3H19.5931L13.9176 8.6755C13.5271 9.06602 13.5271 9.69919 13.9176 10.0897C14.3081 10.4802 14.9413 10.4802 15.3318 10.0897L20.9998 4.42174V7C20.9998 7.55228 21.4475 8 21.9998 8C22.5521 8 22.9998 7.55228 22.9998 7V2C22.9998 1.44772 22.5521 1 21.9998 1H16.9998ZM2.44416 3.29489C3.51301 1.55781 8.28041 1.76902 9.56276 3.08499C10.4106 3.95504 11.0788 7.7131 10.8592 8.81141C10.7912 9.1512 10.3102 9.61413 9.92309 9.98672L9.92308 9.98673C9.84138 10.0654 9.76386 10.14 9.69529 10.2085C9.31016 10.5937 10.6031 11.903 11.3569 12.6572C12.1597 13.4597 13.4691 14.7526 13.8542 14.3675C13.9228 14.2989 13.9973 14.2214 14.0759 14.1397L14.076 14.1397L14.076 14.1397C14.4486 13.7525 14.9115 13.2715 15.2513 13.2036C16.3496 12.9839 20.1077 13.6521 20.9778 14.5C22.2937 15.7823 22.5049 20.5497 20.7678 21.6186C18.249 23.1685 11.1717 20.2133 7.51659 16.5947C3.84941 12.891 0.894234 5.81378 2.44416 3.29489ZM19.7197 19.9152C19.2205 20.2224 17.4659 20.0336 15.299 19.1831C12.9235 18.2508 10.4991 16.7332 8.88931 15.1391C7.32955 13.5636 5.81201 11.1392 4.87961 8.7637C4.0291 6.59681 3.84034 4.84223 4.14752 4.343C4.4062 3.92261 7.58679 3.92296 8.13038 4.48079C8.37223 4.72899 8.90669 7.21969 8.91477 8.1703C8.8843 8.20264 8.84963 8.23845 8.81084 8.27751C8.74226 8.34657 8.67658 8.41058 8.55015 8.53227C8.40039 8.67641 8.35348 8.72191 8.28107 8.79432C7.4803 9.59509 7.47988 10.5541 7.841 11.4185C7.99844 11.7954 8.22633 12.1485 8.52672 12.5306C8.89651 13.0009 9.28589 13.4143 9.94238 14.0711L9.99198 14.1207C10.6484 14.7768 11.0618 15.1662 11.5322 15.536C11.9142 15.8364 12.2674 16.0643 12.6442 16.2217C13.5086 16.5829 14.4676 16.5824 15.2684 15.7817C15.3408 15.7093 15.3863 15.6623 15.5305 15.5126C15.6522 15.3862 15.7162 15.3205 15.7852 15.2519C15.8243 15.2131 15.8601 15.1784 15.8924 15.148C16.8431 15.156 19.3338 15.6905 19.5819 15.9324C20.1398 16.476 20.1401 19.6565 19.7197 19.9152Z" fill="#636363"/>
</svg>
