<svg xmlns="http://www.w3.org/2000/svg" xmlns:xlink="http://www.w3.org/1999/xlink" width="24" height="24" viewBox="0 0 24 24">
  <defs>
    <path id="phone-with-users-a" d="M19.9298182,9 C19.764384,7.90800371 19.3046293,7.10892289 18.5309961,6.61130947 C18.8141075,6.16753224 18.9837083,5.64431074 18.998886,5.08255756 C19.2933591,5.02751919 19.6258991,5 20,5 C22.255127,5 23,6 23,8 C23,8.66666667 22.75,9 22.25,9 L19.9298182,9 Z M18.9875819,4.72519237 C18.9175148,3.95364043 18.5553173,3.26645414 18.0124994,2.7751436 C18.1242388,1.77642321 18.9714477,1 20,1 C21.1045695,1 22,1.8954305 22,3 C22,4.1045695 21.1045695,5 20,5 C19.6305752,5 19.2845442,4.89983918 18.9875819,4.72519237 Z M7.49431968,16.5498031 C7.48623048,16.5417139 7.47814449,16.5336075 7.44542652,16.500661 C3.82702794,12.8454095 0.872152429,5.76863014 2.42201109,3.24984135 C3.49086733,1.51276481 8.25826154,1.72397591 9.54061783,3.03993692 C10.3884586,3.9099957 11.0566538,7.66804971 10.8370442,8.76636646 C10.7547658,9.17785907 10.0666732,9.76995163 9.67314251,10.1634823 C9.28801853,10.5486063 10.5809325,11.8579746 11.3347837,12.6121849 L11.3833646,12.6607582 C12.1375711,13.4146132 13.4469394,14.7075272 13.8320633,14.3224032 C14.2255941,13.9288725 14.8176866,13.2407799 15.2291792,13.1585015 C16.327496,12.9388919 20.08555,13.6070871 20.9556088,14.4549279 C22.2715698,15.7372841 22.4827809,20.5046784 20.7457043,21.5735346 C18.2268138,23.1234558 11.1495647,20.1682791 7.49431968,16.5498031 Z M4.85746954,8.71864963 C5.78986889,11.0941627 7.30740085,13.5185048 8.85985508,15.0871135 L8.90154021,15.1283822 C10.4770429,16.6881437 12.9013838,18.2056762 15.2768967,19.1380759 C17.4437847,19.9885894 19.1983672,20.1773497 19.6975905,19.8701681 C20.1179876,19.6114898 20.1176379,16.4309026 19.5598023,15.887312 C19.3116067,15.6454544 16.8208716,15.1109933 15.8702718,15.1029222 C15.8188604,15.1513306 15.760707,15.2085557 15.6931727,15.277073 C15.6394051,15.3316232 15.334728,15.6481656 15.2462769,15.7366167 C14.4455014,16.5373922 13.4864743,16.5378072 12.6220736,16.1766858 C12.2452137,16.0192447 11.892098,15.7913618 11.5100133,15.4909702 C11.0396455,15.1211712 10.6262552,14.7317698 9.96934815,14.0751688 L9.92023332,14.0260616 C9.26374363,13.3692591 8.87436897,12.9558953 8.50457363,12.4855311 C8.20418258,12.1034462 7.97630027,11.7503309 7.81885956,11.3734715 C7.45773853,10.5090707 7.45815362,9.55004412 8.25892895,8.74926878 C8.34738009,8.66081765 8.66392254,8.35614058 8.71847268,8.30237302 C8.78698997,8.23483868 8.84421506,8.17668527 8.8926235,8.12527392 C8.88455244,7.17467414 8.35009133,4.68393901 8.10823366,4.43574335 C7.56464311,3.87790776 4.38405589,3.87755811 4.12537759,4.29795516 C3.81819599,4.79717847 4.00695618,6.55176097 4.85746954,8.71864963 Z M16,7 C14.8954305,7 14,6.1045695 14,5 C14,3.8954305 14.8954305,3 16,3 C17.1045695,3 18,3.8954305 18,5 C18,6.1045695 17.1045695,7 16,7 Z M13,10 C13,8 13.744873,7 16,7 C18.255127,7 19,8 19,10 C19,10.6666667 18.75,11 18.25,11 L13.75,11 C13.25,11 13,10.6666667 13,10 Z"/>
  </defs>
  <g fill="none" fill-rule="evenodd">
    <use fill="#1C2025" fill-rule="nonzero" xlink:href="#phone-with-users-a"/>
  </g>
</svg>
