<svg width="24" height="24" viewBox="0 0 24 24" fill="none" xmlns="http://www.w3.org/2000/svg">
<path fill-rule="evenodd" clip-rule="evenodd" d="M18.5 1C16.0147 1 14 3.01472 14 5.5C14 7.98528 16.0147 10 18.5 10C20.9853 10 23 7.98528 23 5.5C23 3.01472 20.9853 1 18.5 1ZM7.47595 16.5258C3.84752 12.8974 0.868971 5.79194 2.4206 3.27026C3.48588 1.53899 7.6917 1.70087 8.96977 3.01243C9.81478 3.87959 10.2519 6.53445 10.033 7.6291C9.9644 7.97209 8.97438 8.93013 8.4227 9.464L8.42268 9.46402L8.42267 9.46403L8.42266 9.46404C8.3147 9.56851 8.22353 9.65674 8.15934 9.72093C7.76712 10.1131 9.89567 12.6064 10.6384 13.3491C10.6384 13.3491 8.74627 15.2483 7.88917 16.1098L10.6387 13.3516C11.3814 14.0943 13.8869 16.2332 14.2791 15.841C14.3432 15.7769 14.4312 15.6859 14.5355 15.5782L14.5356 15.578L14.5359 15.5777L14.536 15.5776L14.536 15.5776C15.0699 15.0259 16.0279 14.0359 16.3709 13.9673C17.4656 13.7484 20.1204 14.1855 20.9876 15.0305C22.2991 16.3086 22.461 20.5144 20.7297 21.5797C18.2082 23.1312 11.1086 20.1498 7.47995 16.5216L7.47595 16.5258ZM19 5H21V6H19H18V3H19V5Z" fill="#636363"/>
</svg>
