<svg xmlns="http://www.w3.org/2000/svg" xmlns:xlink="http://www.w3.org/1999/xlink" width="24" height="24" viewBox="0 0 24 24">
  <defs>
    <path id="phone-with-users-solid-a" d="M18.998886,5.08255756 C19.2933591,5.02751919 19.6258991,5 20,5 C22.255127,5 23,6 23,8 C23,8.66666667 22.75,9 22.25,9 L19.9298182,9 C19.764384,7.90800371 19.3046293,7.10892289 18.5309961,6.61130947 C18.8141075,6.16753224 18.9837083,5.64431074 18.998886,5.08255756 Z M18.9875819,4.72519237 C18.9175148,3.95364043 18.5553173,3.26645414 18.0124994,2.7751436 C18.1242388,1.77642321 18.9714477,1 20,1 C21.1045695,1 22,1.8954305 22,3 C22,4.1045695 21.1045695,5 20,5 C19.6305752,5 19.2845442,4.89983918 18.9875819,4.72519237 Z M7.82493985,15.1741969 L10.6386684,12.3515851 C11.3813609,13.0942794 13.8868761,15.2331714 14.2790913,14.8409553 C14.6713065,14.4487392 15.9607956,13.0493166 16.3709127,12.967313 C17.465558,12.748437 20.1204191,13.1855134 20.9875695,14.0305219 C22.2991315,15.3085945 22.4610084,19.5144202 20.7297386,20.5797059 C18.2082275,22.1312432 11.1085761,19.1497732 7.47993735,15.5216345 C7.47727301,15.5243625 7.47594497,15.5257502 7.47595325,15.5257975 C3.84751907,11.897355 0.868970867,4.79193693 2.42060039,2.27026436 C3.48588365,0.538990538 7.69169962,0.700867828 8.96976923,2.01243286 C9.81477581,2.87958521 10.2518512,5.53445247 10.0329757,6.62910028 C9.95097233,7.0392183 8.55155297,8.3287104 8.15933775,8.72092652 C7.76712253,9.11314265 9.89567449,11.606431 10.6383671,12.3491252 C9.23045303,13.7623433 8.29264396,14.7040338 7.82493985,15.1741969 Z M16,7 C14.8954305,7 14,6.1045695 14,5 C14,3.8954305 14.8954305,3 16,3 C17.1045695,3 18,3.8954305 18,5 C18,6.1045695 17.1045695,7 16,7 Z M13,10 C13,8 13.744873,7 16,7 C18.255127,7 19,8 19,10 C19,10.6666667 18.75,11 18.25,11 L13.75,11 C13.25,11 13,10.6666667 13,10 Z"/>
  </defs>
  <g fill="none" fill-rule="evenodd">
    <use fill="#1C2025" fill-rule="nonzero" xlink:href="#phone-with-users-solid-a"/>
  </g>
</svg>
