<svg width="24" height="24" viewBox="0 0 24 24" fill="none" xmlns="http://www.w3.org/2000/svg">
<path fill-rule="evenodd" clip-rule="evenodd" d="M16.4076 9.38064H19.0004C19.5525 9.38064 20.0001 9.82823 20.0001 10.3804C20.0001 10.9325 19.5525 11.3801 19.0004 11.3801H14.0001H13.9998C13.4487 11.3801 13.0018 10.9342 13.0001 10.3835L13.0001 10.3801V5.38202C13.0001 4.82974 13.4478 4.38203 14.0001 4.38203C14.5524 4.38203 15.0001 4.82974 15.0001 5.38203V7.95973L20.6669 2.29289C21.0575 1.90237 21.6906 1.90237 22.0812 2.29289C22.4717 2.68342 22.4717 3.31658 22.0812 3.70711L16.4076 9.38064ZM20.7682 21.6186C18.2493 23.1685 11.172 20.2133 7.51678 16.5949L7.46789 16.5457C3.84949 12.8905 0.894613 5.81368 2.44447 3.29489C3.51333 1.55781 8.28072 1.76902 9.56308 3.08499C10.4109 3.95504 11.0791 7.7131 10.8595 8.81141C10.7916 9.1512 10.3105 9.61413 9.9234 9.98673L9.92339 9.98673L9.92332 9.9868C9.84165 10.0654 9.76416 10.14 9.6956 10.2085C9.31048 10.5937 10.6034 11.903 11.3572 12.6572L11.4058 12.7058C12.16 13.4597 13.4694 14.7526 13.8545 14.3675C13.9231 14.2989 13.9977 14.2214 14.0763 14.1397C14.4489 13.7525 14.9119 13.2715 15.2516 13.2035C16.35 12.9839 20.108 13.6521 20.9781 14.5C22.294 15.7823 22.5052 20.5497 20.7682 21.6186Z" fill="#636363"/>
</svg>
