<svg width="24" height="24" viewBox="0 0 24 24" fill="none" xmlns="http://www.w3.org/2000/svg">
<path fill-rule="evenodd" clip-rule="evenodd" d="M5.95468 7.99992H15.5858L14 9.49992C13.6095 9.89045 13.6095 10.5236 14 10.9141C14.3905 11.3047 15.0237 11.3047 15.4142 10.9141L18.7071 7.70703C19.0976 7.31651 19.0976 6.68334 18.7071 6.29282L15.4142 2.99992C15.0237 2.6094 14.3905 2.6094 14 2.99992C13.6095 3.39045 13.6095 4.02361 14 4.41414L15.5858 5.99992H5.95468C5.42743 5.99992 5 6.44764 5 6.99992C5 7.55221 5.42743 7.99992 5.95468 7.99992ZM12 16.9999C13.5081 17.0156 14.2622 17.2352 14.2622 17.6587C14.2622 17.7817 14.2602 17.8993 14.2583 18.0108C14.2506 18.4752 14.2446 18.8352 14.389 19.0518C14.867 19.7686 17.2745 21.4493 18.2089 21.4614C19.6222 21.4796 22.3302 18.0014 21.9668 16.4752C21.4374 14.2522 15.9605 11.9999 12 11.9999C8.03955 11.9999 2.56263 14.2522 2.03322 16.4752C1.66976 18.0014 4.37777 21.4796 5.79106 21.4614C6.72548 21.4493 9.13304 19.7686 9.61099 19.0518C9.75539 18.8352 9.74939 18.4752 9.74166 18.0108C9.7398 17.8993 9.73785 17.7817 9.73785 17.6587C9.73785 17.2352 10.4919 17.0156 12 16.9999Z" fill="#636363"/>
</svg>
