<svg width="24" height="24" viewBox="0 0 24 24" fill="none" xmlns="http://www.w3.org/2000/svg">
<path fill-rule="evenodd" clip-rule="evenodd" d="M14 10.9905L14 11C14.0007 10.9972 21.9995 10.9972 22 11C22 7 18.0011 3 14 3C14.0007 3 14 10.6833 14 10.9905ZM3 13C3 17.9706 7.02944 22 12 22C16.9706 22 21 17.9706 21 13H12V4C7.02944 4 3 8.02944 3 13ZM12 20C8.13401 20 5 16.866 5 13C5 9.82898 7.10851 7.15043 10 6.28988V8.5V15H16.5H18.7101C17.8496 17.8915 15.171 20 12 20ZM16.0003 5.45649L16.0003 7.00009L16.0002 8.92458L16.0002 8.99813L18.0001 8.99787L19.5428 8.99802C18.8661 7.48474 17.5138 6.13269 16.0003 5.45649Z" fill="#636363"/>
</svg>
