<svg width="24" height="24" viewBox="0 0 24 24" fill="none" xmlns="http://www.w3.org/2000/svg">
<path fill-rule="evenodd" clip-rule="evenodd" d="M2 12C2 17.5228 6.47715 22 12 22C17.5228 22 22 17.5228 22 12C22 6.47715 17.5228 2 12 2C6.47715 2 2 6.47715 2 12ZM20.1818 12C20.1818 16.5187 16.5187 20.1818 12 20.1818C7.48131 20.1818 3.81818 16.5187 3.81818 12C3.81818 7.48131 7.48131 3.81818 12 3.81818C16.5187 3.81818 20.1818 7.48131 20.1818 12ZM11.0909 12.9091V16.5455H12.9091V12.9091H16.5455V11.0909H12.9091V7.45455H11.0909V11.0909H7.45455V12.9091H11.0909Z" fill="#636363"/>
</svg>
