<svg width="24" height="24" viewBox="0 0 24 24" fill="none" xmlns="http://www.w3.org/2000/svg">
<path fill-rule="evenodd" clip-rule="evenodd" d="M8 2H20C21.1046 2 22 2.89543 22 4V16C22 17.1046 21.1046 18 20 18H18V20C18 21.1046 17.1046 22 16 22H4C2.89543 22 2 21.1046 2 20V8C2 6.89543 2.89543 6 4 6H6V4C6 2.89543 6.89543 2 8 2ZM6 16C6 17.1046 6.89543 18 8 18H16V20H4V8H6V16ZM12 6C11.4477 6 11 6.44772 11 7C11 7.55228 11.4477 8 12 8H14.5229L10.3059 12.217C9.89803 12.6249 9.89803 13.2862 10.3059 13.6941C10.7138 14.102 11.3751 14.102 11.783 13.6941L16 9.47709V12C16 12.5523 16.4477 13 17 13C17.5523 13 18 12.5523 18 12V7C18 6.44772 17.5523 6 17 6H16.9555H12Z" fill="#636363"/>
</svg>
