<svg width="24" height="24" viewBox="0 0 24 24" fill="none" xmlns="http://www.w3.org/2000/svg">
<path fill-rule="evenodd" clip-rule="evenodd" d="M7 2H17C17.5523 2 18 2.44772 18 3V6C20.2091 6 22 7.79086 22 10V16C22 16.5523 21.5523 17 21 17H17V21C17 21.5523 16.5523 22 16 22H8C7.44772 22 7 21.5523 7 21V17H3C2.44772 17 2 16.5523 2 16V10C2 7.79086 3.79086 6 6 6V3C6 2.44772 6.44772 2 7 2ZM6 8H7H17H18C19.1046 8 20 8.89543 20 10V15H17V14C17 13.4477 16.5523 13 16 13H8C7.44772 13 7 13.4477 7 14V15H4V10C4 8.89543 4.89543 8 6 8ZM15 20H9V17V15H15V17V20ZM8 6V4H16V6H8ZM18 11C18 11.5523 17.5523 12 17 12C16.4477 12 16 11.5523 16 11C16 10.4477 16.4477 10 17 10C17.5523 10 18 10.4477 18 11Z" fill="#636363"/>
</svg>
