<svg width="24" height="24" viewBox="0 0 24 24" fill="none" xmlns="http://www.w3.org/2000/svg">
<path fill-rule="evenodd" clip-rule="evenodd" d="M12 22C6.47715 22 2 17.5228 2 12C2 6.47715 6.47715 2 12 2C17.5228 2 22 6.47715 22 12C22 17.5228 17.5228 22 12 22ZM11.9297 18.1797C11.612 18.1797 11.3346 18.0768 11.0977 17.8711C10.8607 17.6654 10.7422 17.3776 10.7422 17.0078C10.7422 16.6797 10.8568 16.4036 11.0859 16.1797C11.3151 15.9557 11.5964 15.8438 11.9297 15.8438C12.2578 15.8438 12.5339 15.9557 12.7578 16.1797C12.9818 16.4036 13.0938 16.6797 13.0938 17.0078C13.0938 17.3724 12.9766 17.6589 12.7422 17.8672C12.5078 18.0755 12.237 18.1797 11.9297 18.1797ZM8.11719 9.61719C8.11719 9.12239 8.27604 8.6211 8.59375 8.11328C8.91146 7.60547 9.375 7.1849 9.98438 6.85156C10.5938 6.51823 11.3047 6.35156 12.1172 6.35156C12.8724 6.35156 13.5391 6.49088 14.1172 6.76953C14.6953 7.04818 15.1419 7.42708 15.457 7.90625C15.7721 8.38542 15.9297 8.90625 15.9297 9.46875C15.9297 9.91146 15.8398 10.2995 15.6602 10.6328C15.4805 10.9661 15.2669 11.2539 15.0195 11.4961C14.7721 11.7383 14.3281 12.1458 13.6875 12.7188C13.5104 12.8802 13.3685 13.0221 13.2617 13.1445C13.1549 13.2669 13.0755 13.3789 13.0234 13.4805C12.9714 13.582 12.931 13.6836 12.9023 13.7852C12.8737 13.8867 12.8307 14.0651 12.7734 14.3203C12.6745 14.862 12.3646 15.1328 11.8438 15.1328C11.5729 15.1328 11.3451 15.0443 11.1602 14.8672C10.9753 14.6901 10.8828 14.4271 10.8828 14.0781C10.8828 13.6406 10.9505 13.2617 11.0859 12.9414C11.2214 12.6211 11.401 12.3398 11.625 12.0977C11.849 11.8555 12.151 11.5677 12.5312 11.2344C12.8646 10.9427 13.1055 10.7227 13.2539 10.5742C13.4023 10.4258 13.5273 10.2604 13.6289 10.0781C13.7305 9.89583 13.7812 9.69792 13.7812 9.48438C13.7812 9.06771 13.6263 8.71615 13.3164 8.42969C13.0065 8.14323 12.6068 8 12.1172 8C11.5443 8 11.1224 8.14453 10.8516 8.43359C10.5807 8.72266 10.3516 9.14843 10.1641 9.71094C9.98698 10.2995 9.65104 10.5938 9.15625 10.5938C8.86458 10.5938 8.61849 10.4909 8.41797 10.2852C8.21745 10.0794 8.11719 9.85677 8.11719 9.61719Z" fill="#636363"/>
</svg>
