<svg width="24" height="24" viewBox="0 0 24 24" fill="none" xmlns="http://www.w3.org/2000/svg">
<path fill-rule="evenodd" clip-rule="evenodd" d="M18 2.55005C18 1.99776 18.4477 1.55005 19 1.55005C19.5523 1.55005 20 1.99776 20 2.55005V6.55005C20 7.10233 19.5523 7.55005 19 7.55005H15C14.4477 7.55005 14 7.10233 14 6.55005C14 5.99776 14.4477 5.55005 15 5.55005H16.7342C15.3798 4.55323 13.7353 4.00005 12 4.00005C7.58172 4.00005 4 7.58177 4 12C4 16.4183 7.58172 20 12 20C16.4183 20 20 16.4183 20 12C20 11.4478 20.4477 11 21 11C21.5523 11 22 11.4478 22 12C22 17.5229 17.5228 22 12 22C6.47715 22 2 17.5229 2 12C2 6.4772 6.47715 2.00005 12 2.00005C14.2512 2.00005 16.3287 2.74394 18 3.99932V2.55005Z" fill="#636363"/>
</svg>
