<svg width="24" height="24" viewBox="0 0 24 24" fill="none" xmlns="http://www.w3.org/2000/svg">
<path fill-rule="evenodd" clip-rule="evenodd" d="M20 9H19V4C19 3.44772 18.5523 3 18 3C17.4477 3 17 3.44772 17 4V9H16C15.4477 9 15 9.44772 15 10C15 10.5523 15.4477 11 16 11H17V12C17 12.5523 17.4477 13 18 13C18.5523 13 19 12.5523 19 12V11H20C20.5523 11 21 10.5523 21 10C21 9.44772 20.5523 9 20 9ZM14 13H13V4C13 3.44772 12.5523 3 12 3C11.4477 3 11 3.44772 11 4V13H10C9.44772 13 9 13.4477 9 14C9 14.5523 9.44772 15 10 15H11V20C11 20.5523 11.4477 21 12 21C12.5523 21 13 20.5523 13 20V15H14C14.5523 15 15 14.5523 15 14C15 13.4477 14.5523 13 14 13ZM8 7H7V4C7 3.44772 6.55228 3 6 3C5.44772 3 5 3.44772 5 4V7H4C3.44772 7 3 7.44772 3 8C3 8.55228 3.44772 9 4 9H5V20C5 20.5523 5.44772 21 6 21C6.55228 21 7 20.5523 7 20V9H8C8.55228 9 9 8.55228 9 8C9 7.44772 8.55228 7 8 7ZM21.4853 21.6414C22.1471 20.9795 22.5286 20.1434 22.6296 19.2807L20.6431 19.0482C20.5912 19.4922 20.3949 19.9033 20.0711 20.2272C19.29 21.0082 18.0237 21.0082 17.2426 20.2272C16.4616 19.4461 16.4616 18.1798 17.2426 17.3987C17.3939 17.2475 17.5644 17.1241 17.7481 17.0302L17.6617 17.2811C17.5178 17.6989 17.7399 18.1541 18.1577 18.298C18.5754 18.4418 19.0307 18.2198 19.1745 17.802L19.9559 15.5328C19.9753 15.4763 19.9881 15.4192 19.9946 15.3622C20.0527 14.9766 19.8212 14.5964 19.4371 14.479L17.142 13.7773C16.7195 13.6481 16.2722 13.8859 16.1431 14.3084C16.0139 14.731 16.2517 15.1782 16.6742 15.3074L16.7091 15.318C16.3935 15.4941 16.0966 15.7163 15.8284 15.9845C14.2663 17.5466 14.2663 20.0793 15.8284 21.6414C17.3905 23.2035 19.9232 23.2035 21.4853 21.6414Z" fill="#636363"/>
</svg>
