<svg width="24" height="24" viewBox="0 0 24 24" fill="none" xmlns="http://www.w3.org/2000/svg">
<path fill-rule="evenodd" clip-rule="evenodd" d="M12 11C10.6253 11 9.41249 10.3065 8.69248 9.25021C7.89232 9.95653 7.31998 10.915 7.09977 12.0012C9.26281 12.0542 11 13.8242 11 16C11 16.6452 10.8473 17.2547 10.576 17.7943C11.0273 17.9281 11.5052 18 12 18C12.4948 18 12.9727 17.9281 13.424 17.7943C13.1527 17.2547 13 16.6452 13 16C13 13.8242 14.7372 12.0542 16.9002 12.0012C16.68 10.915 16.1077 9.95653 15.3075 9.25021C14.5875 10.3065 13.3747 11 12 11ZM12 20C13.0228 20 13.9943 19.7806 14.8702 19.3864C15.4869 19.7751 16.2172 20 17 20C19.2091 20 21 18.2091 21 16C21 14.5129 20.1885 13.2154 18.9842 12.526C18.8381 10.3403 17.6886 8.42919 15.9924 7.24936C15.9974 7.16689 16 7.08375 16 7C16 4.79086 14.2091 3 12 3C9.79086 3 8 4.79086 8 7C8 7.08375 8.00257 7.16689 8.00765 7.24936C6.3114 8.42919 5.16193 10.3403 5.01579 12.526C3.81149 13.2154 3 14.5129 3 16C3 18.2091 4.79086 20 7 20C7.78284 20 8.51314 19.7751 9.12985 19.3864C10.0057 19.7806 10.9772 20 12 20ZM14 7C14 8.10457 13.1046 9 12 9C10.8954 9 10 8.10457 10 7C10 5.89543 10.8954 5 12 5C13.1046 5 14 5.89543 14 7ZM9 16C9 17.1046 8.10457 18 7 18C5.89543 18 5 17.1046 5 16C5 14.8954 5.89543 14 7 14C8.10457 14 9 14.8954 9 16ZM19 16C19 17.1046 18.1046 18 17 18C15.8954 18 15 17.1046 15 16C15 14.8954 15.8954 14 17 14C18.1046 14 19 14.8954 19 16Z" fill="#636363"/>
</svg>
