<svg width="24" height="24" viewBox="0 0 24 24" fill="none" xmlns="http://www.w3.org/2000/svg">
<path fill-rule="evenodd" clip-rule="evenodd" d="M8.69248 9.25021C9.41249 10.3065 10.6253 11 12 11C13.3747 11 14.5875 10.3065 15.3075 9.25021C16.1077 9.95653 16.68 10.915 16.9002 12.0012C14.7372 12.0542 13 13.8242 13 16C13 16.6452 13.1527 17.2547 13.424 17.7943C12.9727 17.9281 12.4948 18 12 18C11.5052 18 11.0273 17.9281 10.576 17.7943C10.8473 17.2547 11 16.6452 11 16C11 13.8242 9.26281 12.0542 7.09977 12.0012C7.31998 10.915 7.89232 9.95653 8.69248 9.25021ZM14.8702 19.3864C13.9943 19.7806 13.0228 20 12 20C10.9772 20 10.0057 19.7806 9.12985 19.3864C8.51314 19.7751 7.78284 20 7 20C4.79086 20 3 18.2091 3 16C3 14.5129 3.81149 13.2154 5.01579 12.526C5.16193 10.3403 6.3114 8.42919 8.00765 7.24936C8.00257 7.16689 8 7.08375 8 7C8 4.79086 9.79086 3 12 3C14.2091 3 16 4.79086 16 7C16 7.08375 15.9974 7.16689 15.9924 7.24936C17.6886 8.42919 18.8381 10.3403 18.9842 12.526C20.1885 13.2154 21 14.5129 21 16C21 18.2091 19.2091 20 17 20C16.2172 20 15.4869 19.7751 14.8702 19.3864Z" fill="#636363"/>
</svg>
