<svg width="24" height="24" viewBox="0 0 24 24" fill="none" xmlns="http://www.w3.org/2000/svg">
<path fill-rule="evenodd" clip-rule="evenodd" d="M16 5C16 6.10457 15.1045 7 14 7C12.8954 7 12 6.10457 12 5C12 3.89543 12.8954 3 14 3C15.1045 3 16 3.89543 16 5ZM7.66506 10.4055C7.41827 10.8996 6.81768 11.1 6.3236 10.8532C5.82952 10.6064 5.62906 10.0058 5.87585 9.51177C7.52121 6.21773 10.4146 6.0558 14.4878 7.92841C15.9524 8.6017 17.1455 8.11931 18.3527 6.22683C18.6498 5.76121 19.268 5.62455 19.7336 5.92157C20.1992 6.2186 20.3359 6.83683 20.0389 7.30245C18.5518 9.63352 16.6706 10.6157 14.5845 10.0803L12.7977 14.7258C13.6535 15.3536 14.288 15.8738 14.7071 16.2929C15.582 17.1678 16 18.4217 16 20C16 20.5523 15.5523 21 15 21C14.4477 21 14 20.5523 14 20C14 18.9116 13.7513 18.1655 13.2929 17.7071C12.7978 17.2121 11.846 16.4754 10.4543 15.5156C10.2589 15.9877 10.0594 16.4661 9.97244 16.6569C8.95647 18.8863 7.6695 19.6096 4.9192 19.1922C4.57142 19.1394 4.19452 19.0676 3.78304 18.9762C3.24391 18.8564 2.90398 18.3222 3.02378 17.7831C3.14359 17.2439 3.67777 16.904 4.2169 17.0238C4.58612 17.1059 4.91893 17.1692 5.21933 17.2148C7.07282 17.4962 7.50203 17.2549 8.1525 15.8275C8.21467 15.6911 8.35158 15.3648 8.50283 15.0004L8.49997 15L10.7219 8.77854C9.27268 8.5852 8.31951 9.09526 7.66506 10.4055Z" fill="#636363"/>
</svg>
