<svg width="24" height="24" viewBox="0 0 24 24" fill="none" xmlns="http://www.w3.org/2000/svg">
<path fill-rule="evenodd" clip-rule="evenodd" d="M4.57992 10.8778C3.09327 10.4738 2 9.11458 2 7.5C2 5.567 3.567 4 5.5 4C7.433 4 9 5.567 9 7.5C9 8.47125 8.60439 9.35011 7.96551 9.9842L10.5199 10.9263L19.3086 7.68481C20.3819 7.28897 21.5859 7.80404 21.9979 8.83524L13.4241 11.9975L21.9965 15.1592C21.5845 16.1904 20.3805 16.7054 19.3073 16.3096L10.5199 13.0686L7.96178 14.0121C8.60284 14.6465 9 15.5269 9 16.5C9 18.433 7.433 20 5.5 20C3.567 20 2 18.433 2 16.5C2 14.9064 3.06501 13.5616 4.52209 13.1384L7.61566 11.9975L4.57992 10.8778ZM7 7.5C7 8.32843 6.32843 9 5.5 9C4.67157 9 4 8.32843 4 7.5C4 6.67157 4.67157 6 5.5 6C6.32843 6 7 6.67157 7 7.5ZM5.5 18C6.32843 18 7 17.3284 7 16.5C7 15.6716 6.32843 15 5.5 15C4.67157 15 4 15.6716 4 16.5C4 17.3284 4.67157 18 5.5 18Z" fill="#636363"/>
</svg>
