<svg width="24" height="24" viewBox="0 0 24 24" fill="none" xmlns="http://www.w3.org/2000/svg">
<path fill-rule="evenodd" clip-rule="evenodd" d="M4.46261 3H4.43739L3.73524 2.29786C3.33819 1.9008 2.69455 1.9007 2.29763 2.29763C1.9007 2.69455 1.9008 3.33819 2.29786 3.73524L2.384 3.82139C2.14253 4.15192 2 4.55931 2 5V17C2 18.1046 2.89543 19 4 19H7C6.44772 19 6 19.4477 6 20C6 20.5523 6.44771 21 7 21H17C17.5523 21 18 20.5523 18 20C18 19.4477 17.5523 19 17 19H17.5626L20.2648 21.7021C20.6618 22.0992 21.3055 22.0993 21.7024 21.7024C22.0993 21.3055 22.0992 20.6618 21.7021 20.2648L20.3978 18.9604C20.4048 18.959 20.4118 18.9576 20.4187 18.9561L18.4626 17H18.4374L14.6431 13.2057L14.657 13.1944L10.71 9.24743C10.7033 9.24914 10.6966 9.25085 10.69 9.25258L6.43739 5H6.46261L4.46261 3ZM13 8.66261L16.2488 11.9114L17.517 10.8893C17.7653 10.6891 17.7653 10.3108 17.517 10.1107L13.8138 7.12586C13.4867 6.86223 13 7.09505 13 7.51516V8.66261ZM20 15.6626V5H9.33739L7.33739 3H20C21.1046 3 22 3.89543 22 5V17C22 17.2009 21.9704 17.3949 21.9153 17.5779L20 15.6626ZM4 17V5.43739L8.78177 10.2192C7.57875 11.2798 7 13.1094 7 16C8.12368 13.8112 9.68141 12.8159 10.928 12.3654L15.5626 17H4Z" fill="#636363"/>
</svg>
