<svg width="24" height="24" viewBox="0 0 24 24" fill="none" xmlns="http://www.w3.org/2000/svg">
<path fill-rule="evenodd" clip-rule="evenodd" d="M3 10C3 13.866 6.13401 17 10 17C11.5723 17 13.0236 16.4816 14.1922 15.6064L19.6468 21.061C19.8811 21.2953 20.261 21.2953 20.4953 21.061L21.061 20.4953C21.2953 20.261 21.2953 19.8811 21.061 19.6468L15.6064 14.1922C16.4816 13.0236 17 11.5723 17 10C17 6.13401 13.866 3 10 3C6.13401 3 3 6.13401 3 10ZM15 10C15 12.7614 12.7614 15 10 15C7.2386 15 5.00002 12.7614 5.00002 10C5.00002 7.23858 7.2386 5 10 5C12.7614 5 15 7.23858 15 10Z" fill="#636363"/>
</svg>
