<svg width="24" height="24" viewBox="0 0 24 24" fill="none" xmlns="http://www.w3.org/2000/svg">
<path fill-rule="evenodd" clip-rule="evenodd" d="M2.92875 11.0663L16 11.9999L2.92875 12.9336C2.40545 12.971 2 13.4064 2 13.931V18.5722C2 19.2662 2.68956 19.7492 3.34174 19.512L21.4156 12.9397C22.2932 12.6206 22.2932 11.3793 21.4156 11.0601L3.34174 4.48783C2.68956 4.25067 2 4.73366 2 5.42762V10.0688C2 10.5934 2.40545 11.0289 2.92875 11.0663ZM3 9.59107V5.92396C3 5.71697 3.20466 5.57217 3.39984 5.64106L17.6863 10.6833C18.0202 10.8012 17.9101 11.2988 17.5577 11.2649L3.27126 9.88969C3.11742 9.87488 3 9.74562 3 9.59107ZM3 18.0759V14.4088C3 14.2543 3.11742 14.125 3.27126 14.1102L17.5577 12.735C17.9101 12.7011 18.0202 13.1987 17.6863 13.3165L3.39984 18.3588C3.20466 18.4277 3 18.2829 3 18.0759Z" fill="#5E6D7A"/>
</svg>
