<svg width="24" height="24" viewBox="0 0 24 24" fill="none" xmlns="http://www.w3.org/2000/svg">
<path fill-rule="evenodd" clip-rule="evenodd" d="M6 9V20H18V9H18.4C19.2837 9 20 9.6467 20 10.4444V20.5556C20 21.3533 19.2837 22 18.4 22H5.6C4.71634 22 4 21.3533 4 20.5556V10.4444C4 9.6467 4.71634 9 5.6 9H6ZM13 5.41421V14.0453C13 14.5726 12.5523 15 12 15C11.4477 15 11 14.5726 11 14.0453V5.41421L8.70711 7.70711C8.31658 8.09763 7.68342 8.09763 7.29289 7.70711C6.90237 7.31658 6.90237 6.68342 7.29289 6.29289L11.2929 2.29289C11.6834 1.90237 12.3166 1.90237 12.7071 2.29289L16.7071 6.29289C17.0976 6.68342 17.0976 7.31658 16.7071 7.70711C16.3166 8.09763 15.6834 8.09763 15.2929 7.70711L13 5.41421Z" fill="#636363"/>
</svg>
