<svg width="24" height="24" viewBox="0 0 24 24" fill="none" xmlns="http://www.w3.org/2000/svg">
<path fill-rule="evenodd" clip-rule="evenodd" d="M13.4273 13.2326C13.3191 13.289 13.2068 13.3426 13.0904 13.3928C11.9208 13.8982 10.6576 13.9387 9.4882 13.6621C10.865 11.8497 11.1522 9.31467 9.87029 7.17546C8.22977 4.43791 4.29689 4.97329 3.36342 7.65951C2.53422 10.0457 3.6549 12.4066 5.64071 13.9721C4.66001 14.3458 3.79306 14.5177 3.04284 14.4966C2.49077 14.4811 2.03064 14.916 2.01512 15.4681C1.99959 16.0201 2.43454 16.4803 2.98661 16.4958C4.25718 16.5315 5.66365 16.1874 7.21177 15.4807C7.40016 15.3947 7.58209 15.3 7.75724 15.1973C9.65371 15.9662 11.8687 16.0994 13.8836 15.2288C14.5653 14.9343 15.1667 14.547 15.6688 14.0953C17.6204 14.4023 19.7896 13.7491 21.7332 12.0906C22.1533 11.7321 22.2033 11.101 21.8448 10.6808C21.4863 10.2607 20.8551 10.2107 20.435 10.5692C19.3084 11.5306 18.141 12.041 17.0532 12.1481C17.4532 11.132 17.4608 10.0241 16.9685 8.98674C15.7538 6.4269 12.4353 6.79314 11.7306 9.35132C11.3243 10.8261 12.06 12.3107 13.4273 13.2326ZM3 18.9999C2.44772 18.9999 2 19.4476 2 19.9999C2 20.5522 2.44772 20.9999 3 20.9999H21C21.5523 20.9999 22 20.5522 22 19.9999C22 19.4476 21.5523 18.9999 21 18.9999H3ZM15.1616 9.84417C14.7546 8.98636 13.879 9.083 13.6587 9.88252C13.4757 10.5471 13.9886 11.365 14.9901 11.8243C15.3775 11.1719 15.4541 10.4604 15.1616 9.84417ZM5.2526 8.31601C5.64153 7.19681 7.4074 6.95642 8.15474 8.20352C9.09114 9.7661 8.74267 11.6622 7.53796 12.8616C5.77833 11.7928 4.66673 10.002 5.2526 8.31601Z" fill="#636363"/>
</svg>
