<svg width="24" height="24" viewBox="0 0 24 24" fill="none" xmlns="http://www.w3.org/2000/svg">
<g clip-path="url(#clip0)">
<mask id="path-1-inside-1" fill="white">
<path fill-rule="evenodd" clip-rule="evenodd" d="M1.35849 5.06983L0 0L5.06995 1.35846L3.53564 2.89273L9.10823 8.46518L8.46538 9.10801L2.8928 3.53556L1.35849 5.06983ZM18.8614 1.50376L23.9313 0.145307L22.5729 5.21513L21.0385 3.68086L15.466 9.25331L14.8231 8.61048L20.3957 3.03803L18.8614 1.50376ZM22.6415 18.9302L24 24L18.93 22.6415L20.4644 21.1073L14.8231 15.4662L15.466 14.8234L21.1072 20.4644L22.6415 18.9302ZM0.0755018 24L1.43399 18.9302L2.9683 20.4644L8.60953 14.8234L9.25238 15.4662L3.61114 21.1073L5.14545 22.6415L0.0755018 24ZM12.0375 15.145C13.7533 15.145 15.1441 13.7541 15.1441 12.0384C15.1441 10.3227 13.7533 8.9319 12.0375 8.9319C10.3218 8.9319 8.93091 10.3227 8.93091 12.0384C8.93091 13.7541 10.3218 15.145 12.0375 15.145Z"/>
</mask>
<path fill-rule="evenodd" clip-rule="evenodd" d="M1.35849 5.06983L0 0L5.06995 1.35846L3.53564 2.89273L9.10823 8.46518L8.46538 9.10801L2.8928 3.53556L1.35849 5.06983ZM18.8614 1.50376L23.9313 0.145307L22.5729 5.21513L21.0385 3.68086L15.466 9.25331L14.8231 8.61048L20.3957 3.03803L18.8614 1.50376ZM22.6415 18.9302L24 24L18.93 22.6415L20.4644 21.1073L14.8231 15.4662L15.466 14.8234L21.1072 20.4644L22.6415 18.9302ZM0.0755018 24L1.43399 18.9302L2.9683 20.4644L8.60953 14.8234L9.25238 15.4662L3.61114 21.1073L5.14545 22.6415L0.0755018 24ZM12.0375 15.145C13.7533 15.145 15.1441 13.7541 15.1441 12.0384C15.1441 10.3227 13.7533 8.9319 12.0375 8.9319C10.3218 8.9319 8.93091 10.3227 8.93091 12.0384C8.93091 13.7541 10.3218 15.145 12.0375 15.145Z" fill="#0376DA"/>
<path d="M0 0L0.156861 -0.585426L-0.857127 -0.857116L-0.585424 0.156868L0 0ZM1.35849 5.06983L0.773065 5.2267L1.04476 6.24066L1.78704 5.49839L1.35849 5.06983ZM5.06995 1.35846L5.49851 1.78702L6.24082 1.04473L5.22681 0.773031L5.06995 1.35846ZM3.53564 2.89273L3.10709 2.46416L2.67851 2.89273L3.10709 3.32129L3.53564 2.89273ZM9.10823 8.46518L9.53678 8.89375L9.96536 8.46518L9.53678 8.03661L9.10823 8.46518ZM8.46538 9.10801L8.03683 9.53657L8.46538 9.96512L8.89394 9.53657L8.46538 9.10801ZM2.8928 3.53556L3.32135 3.10699L2.8928 2.67845L2.46424 3.10699L2.8928 3.53556ZM23.9313 0.145307L24.5168 0.302175L24.7885 -0.711809L23.7745 -0.440118L23.9313 0.145307ZM18.8614 1.50376L18.7045 0.918337L17.6905 1.19003L18.4328 1.93233L18.8614 1.50376ZM22.5729 5.21513L22.1443 5.6437L22.8866 6.38596L23.1583 5.372L22.5729 5.21513ZM21.0385 3.68086L21.4671 3.2523L21.0385 2.82375L20.61 3.2523L21.0385 3.68086ZM15.466 9.25331L15.0374 9.68188L15.466 10.1104L15.8945 9.68188L15.466 9.25331ZM14.8231 8.61048L14.3946 8.18192L13.966 8.61048L14.3946 9.03905L14.8231 8.61048ZM20.3957 3.03803L20.8243 3.4666L21.2528 3.03803L20.8243 2.60947L20.3957 3.03803ZM24 24L23.8431 24.5854L24.8571 24.8571L24.5854 23.8431L24 24ZM22.6415 18.9302L23.2269 18.7733L22.9552 17.7593L22.213 18.5016L22.6415 18.9302ZM18.93 22.6415L18.5015 22.213L17.7592 22.9553L18.7732 23.227L18.93 22.6415ZM20.4644 21.1073L20.8929 21.5358L21.3215 21.1073L20.8929 20.6787L20.4644 21.1073ZM14.8231 15.4662L14.3946 15.0376L13.966 15.4662L14.3946 15.8948L14.8231 15.4662ZM15.466 14.8234L15.8945 14.3948L15.466 13.9662L15.0374 14.3948L15.466 14.8234ZM21.1072 20.4644L20.6786 20.893L21.1072 21.3216L21.5358 20.893L21.1072 20.4644ZM1.43399 18.9302L1.86255 18.5016L1.12026 17.7593L0.848567 18.7733L1.43399 18.9302ZM0.0755018 24L-0.509922 23.8431L-0.781625 24.8571L0.232362 24.5854L0.0755018 24ZM2.9683 20.4644L2.53974 20.893L2.9683 21.3216L3.39686 20.893L2.9683 20.4644ZM8.60953 14.8234L9.03809 14.3948L8.60953 13.9662L8.18098 14.3948L8.60953 14.8234ZM9.25238 15.4662L9.68093 15.8948L10.1095 15.4662L9.68093 15.0376L9.25238 15.4662ZM3.61114 21.1073L3.18259 20.6787L2.75401 21.1073L3.18259 21.5358L3.61114 21.1073ZM5.14545 22.6415L5.30231 23.227L6.31632 22.9553L5.57401 22.213L5.14545 22.6415ZM-0.585424 0.156868L0.773065 5.2267L1.94391 4.91296L0.585424 -0.156868L-0.585424 0.156868ZM5.22681 0.773031L0.156861 -0.585426L-0.156861 0.585426L4.91309 1.94388L5.22681 0.773031ZM3.9642 3.32129L5.49851 1.78702L4.6414 0.92989L3.10709 2.46416L3.9642 3.32129ZM9.53678 8.03661L3.9642 2.46416L3.10709 3.32129L8.67967 8.89375L9.53678 8.03661ZM8.89394 9.53657L9.53678 8.89375L8.67967 8.03661L8.03683 8.67944L8.89394 9.53657ZM2.46424 3.96412L8.03683 9.53657L8.89394 8.67944L3.32135 3.10699L2.46424 3.96412ZM1.78704 5.49839L3.32135 3.96412L2.46424 3.10699L0.929934 4.64126L1.78704 5.49839ZM23.7745 -0.440118L18.7045 0.918337L19.0182 2.08919L24.0882 0.730733L23.7745 -0.440118ZM23.1583 5.372L24.5168 0.302175L23.3459 -0.0115604L21.9874 5.05826L23.1583 5.372ZM20.61 4.10943L22.1443 5.6437L23.0014 4.78657L21.4671 3.2523L20.61 4.10943ZM15.8945 9.68188L21.4671 4.10943L20.61 3.2523L15.0374 8.82474L15.8945 9.68188ZM14.3946 9.03905L15.0374 9.68188L15.8945 8.82474L15.2517 8.18192L14.3946 9.03905ZM19.9671 2.60947L14.3946 8.18192L15.2517 9.03905L20.8243 3.4666L19.9671 2.60947ZM18.4328 1.93233L19.9671 3.4666L20.8243 2.60947L19.2899 1.0752L18.4328 1.93233ZM24.5854 23.8431L23.2269 18.7733L22.0561 19.087L23.4146 24.1569L24.5854 23.8431ZM18.7732 23.227L23.8431 24.5854L24.1569 23.4146L19.0869 22.0561L18.7732 23.227ZM20.0358 20.6787L18.5015 22.213L19.3586 23.0701L20.8929 21.5358L20.0358 20.6787ZM14.3946 15.8948L20.0358 21.5358L20.8929 20.6787L15.2517 15.0376L14.3946 15.8948ZM15.0374 14.3948L14.3946 15.0376L15.2517 15.8948L15.8945 15.2519L15.0374 14.3948ZM21.5358 20.0359L15.8945 14.3948L15.0374 15.2519L20.6786 20.893L21.5358 20.0359ZM22.213 18.5016L20.6786 20.0359L21.5358 20.893L23.0701 19.3587L22.213 18.5016ZM0.848567 18.7733L-0.509922 23.8431L0.660926 24.1569L2.01941 19.087L0.848567 18.7733ZM3.39686 20.0359L1.86255 18.5016L1.00544 19.3587L2.53974 20.893L3.39686 20.0359ZM8.18098 14.3948L2.53974 20.0359L3.39686 20.893L9.03809 15.2519L8.18098 14.3948ZM9.68093 15.0376L9.03809 14.3948L8.18098 15.2519L8.82382 15.8948L9.68093 15.0376ZM4.0397 21.5358L9.68093 15.8948L8.82382 15.0376L3.18259 20.6787L4.0397 21.5358ZM5.57401 22.213L4.0397 20.6787L3.18259 21.5358L4.7169 23.0701L5.57401 22.213ZM0.232362 24.5854L5.30231 23.227L4.98859 22.0561L-0.0813589 23.4146L0.232362 24.5854ZM14.538 12.0384C14.538 13.4194 13.4185 14.5389 12.0375 14.5389V15.751C14.088 15.751 15.7502 14.0889 15.7502 12.0384H14.538ZM12.0375 9.53798C13.4185 9.53798 14.538 10.6575 14.538 12.0384H15.7502C15.7502 9.988 14.088 8.32583 12.0375 8.32583V9.53798ZM9.53699 12.0384C9.53699 10.6575 10.6565 9.53798 12.0375 9.53798V8.32583C9.98708 8.32583 8.32484 9.988 8.32484 12.0384H9.53699ZM12.0375 14.5389C10.6565 14.5389 9.53699 13.4194 9.53699 12.0384H8.32484C8.32484 14.0889 9.98708 15.751 12.0375 15.751V14.5389Z" fill="#0376DA" mask="url(#path-1-inside-1)"/>
</g>
<defs>
<clipPath id="clip0">
<rect width="24" height="24" fill="white"/>
</clipPath>
</defs>
</svg>
