<svg width="24" height="24" viewBox="0 0 24 24" fill="none" xmlns="http://www.w3.org/2000/svg">
<path d="M4.96871 3.718C6.55699 2.5719 8.80308 2.47347 10.4945 3.45394C12.4015 3.12347 14.4179 3.43753 16.1195 4.36487C18.0187 5.38519 19.5101 7.13753 20.2046 9.17972C20.682 10.5617 20.7929 12.0641 20.5445 13.5039C21.1554 14.5782 21.3671 15.8711 21.1195 17.0828C20.8578 18.4196 20.0336 19.6313 18.8937 20.3758C17.3156 21.4367 15.1476 21.4969 13.5039 20.5453C11.6734 20.8602 9.74293 20.5875 8.08668 19.7422C6.16168 18.775 4.62652 17.0641 3.87574 15.0446C3.33199 13.6016 3.19527 12.0141 3.45386 10.4953C2.82965 9.40237 2.6273 8.08128 2.89371 6.85159C3.15777 5.59534 3.91793 4.45394 4.96871 3.718ZM5.82808 4.73284C4.76558 5.42347 4.08746 6.66644 4.09918 7.93519C4.08355 8.76722 4.39683 9.56253 4.8398 10.2532C4.55308 11.5703 4.57418 12.9625 4.99839 14.2477C5.66011 16.3383 7.31089 18.0821 9.36011 18.8625C10.7484 19.4086 12.2937 19.4789 13.7453 19.161C14.1687 19.4071 14.5992 19.6563 15.0796 19.7727C16.2843 20.1016 17.6359 19.7875 18.5718 18.9625C19.5304 18.1438 20.0398 16.8328 19.8695 15.5821C19.8 14.918 19.5039 14.3086 19.1601 13.7453C19.4515 12.4071 19.4218 10.9899 18.9796 9.68831C18.2828 7.55315 16.55 5.793 14.4273 5.0594C13.0937 4.58206 11.6312 4.53831 10.2531 4.83909C9.89996 4.63675 9.54839 4.4219 9.15777 4.29769C8.05855 3.92347 6.79293 4.08519 5.82808 4.73284ZM10.8601 6.74769C12.1093 6.55862 13.4257 6.75003 14.5406 7.35472C15.0281 7.62503 15.5 7.99065 15.7265 8.51565C15.8742 8.86097 15.8906 9.31175 15.6179 9.60081C15.3226 9.90315 14.8406 9.99612 14.4445 9.86878C13.9859 9.67659 13.7578 9.19612 13.3687 8.91019C12.8796 8.50706 12.2211 8.39847 11.6046 8.4094C11.1539 8.42894 10.6711 8.53128 10.3421 8.86253C10.0382 9.18675 9.92574 9.74222 10.2218 10.1071C10.5015 10.4297 10.9336 10.55 11.3296 10.6602C12.0851 10.8492 12.8492 11.0016 13.6078 11.1805C14.3968 11.361 15.1937 11.7063 15.7148 12.3492C16.6132 13.5133 16.4109 15.3594 15.2937 16.3125C14.4 17.1039 13.157 17.3227 11.9992 17.3297C10.7632 17.3117 9.44214 17.0586 8.49215 16.2133C8.01558 15.7836 7.6148 15.1352 7.75855 14.4719C7.91558 13.8125 8.82105 13.5625 9.33433 13.968C9.72652 14.2828 9.93902 14.7617 10.3171 15.0907C10.7695 15.5055 11.4 15.6703 12.0031 15.6555C12.5945 15.6711 13.2226 15.4899 13.6281 15.0399C13.9039 14.736 14.05 14.2735 13.8711 13.8844C13.7242 13.5188 13.3468 13.3196 12.9859 13.2211C12.3203 13.0469 11.65 12.8883 10.9843 12.7125C10.2531 12.5336 9.49293 12.3703 8.86402 11.9344C8.37339 11.6086 8.00152 11.1 7.88199 10.5203C7.68121 9.61097 7.82496 8.56175 8.48589 7.86722C9.09058 7.19456 9.98746 6.88206 10.8601 6.74769Z" fill="#636363"/>
</svg>
