<svg width="24" height="24" viewBox="0 0 24 24" fill="none" xmlns="http://www.w3.org/2000/svg">
<path fill-rule="evenodd" clip-rule="evenodd" d="M12 3.0001C10.2817 3.0001 8.9249 2.72895 7.92968 2.18663C7.895 2.16773 7.85924 2.15091 7.82258 2.13624C7.30979 1.93113 6.72782 2.18055 6.5227 2.69333L4.79417 7.01468C4.5225 7.0616 4.27928 7.21944 4.12618 7.45476L2.17436 10.4548C2.06878 10.617 2.01257 10.8065 2.01257 11.0001C2.01257 11.5524 2.46029 12.0001 3.01257 12.0001H21.0122C21.2058 12.0001 21.3952 11.9439 21.5575 11.8383C22.0205 11.5371 22.1516 10.9177 21.8504 10.4548L19.8986 7.45476C19.7405 7.21183 19.4864 7.05147 19.2041 7.01048L17.4773 2.69333C17.4626 2.65667 17.4458 2.62091 17.4269 2.58623C17.1626 2.10127 16.5553 1.92235 16.0703 2.18663C15.0751 2.72895 13.7183 3.0001 12 3.0001ZM18.518 9.0001H5.5068L4.85619 10.0001H19.1686L18.518 9.0001ZM17.0459 7.0001L16.0056 4.39915C14.8718 4.80745 13.5367 5.0001 12 5.0001C10.4633 5.0001 9.12819 4.80745 7.99444 4.39915L6.95406 7.0001H17.0459ZM9 18.0001C9 19.1047 8.10457 20.0001 7 20.0001C5.89543 20.0001 5 19.1047 5 18.0001C5 16.8955 5.89543 16.0001 7 16.0001C8.10457 16.0001 9 16.8955 9 18.0001ZM10.0743 15.4409C9.34059 14.5605 8.23573 14.0001 7 14.0001C4.79086 14.0001 3 15.791 3 18.0001C3 20.2092 4.79086 22.0001 7 22.0001C9.20914 22.0001 11 20.2092 11 18.0001C11 17.7095 10.969 17.4262 10.9102 17.1532C11.2583 17.0612 11.6292 17.0001 12 17.0001C12.3708 17.0001 12.7417 17.0612 13.0898 17.1532C13.031 17.4262 13 17.7095 13 18.0001C13 20.2092 14.7909 22.0001 17 22.0001C19.2091 22.0001 21 20.2092 21 18.0001C21 15.791 19.2091 14.0001 17 14.0001C15.7643 14.0001 14.6594 14.5605 13.9257 15.4409C13.3814 15.2121 12.6907 15.0001 12 15.0001C11.3093 15.0001 10.6186 15.2121 10.0743 15.4409ZM15 18.0001C15 19.1047 15.8954 20.0001 17 20.0001C18.1046 20.0001 19 19.1047 19 18.0001C19 16.8955 18.1046 16.0001 17 16.0001C15.8954 16.0001 15 16.8955 15 18.0001Z" fill="#636363"/>
</svg>
