<svg xmlns="http://www.w3.org/2000/svg" xmlns:xlink="http://www.w3.org/1999/xlink" width="24" height="24" viewBox="0 0 24 24">
  <defs>
    <path id="stopwatch-a" d="M13,12 L15,12 C15.5522847,12 16,12.4477153 16,13 C16,13.5522847 15.5522847,14 15,14 L12,14 C11.4477153,14 11,13.5522847 11,13 L11,9 C11,8.44771525 11.4477153,8 12,8 C12.5522847,8 13,8.44771525 13,9 L13,12 Z M17.8239043,6.13811746 L16.8071072,5.12132034 C16.4165829,4.73079605 16.4165829,4.09763107 16.8071072,3.70710678 C17.1976315,3.31658249 17.8307964,3.31658249 18.2213207,3.70710678 L21.0497478,6.53553391 C21.4402721,6.9260582 21.4402721,7.55922318 21.0497478,7.94974747 C20.6592236,8.34027176 20.0260586,8.34027176 19.6355343,7.94974747 L18.8618825,7.17609572 C20.1954471,8.74578968 21,10.7789381 21,13 C21,17.9705627 16.9705627,22 12,22 C7.02943725,22 3,17.9705627 3,13 C3,8.02943725 7.02943725,4 12,4 C14.2210619,4 16.2542103,4.80455286 17.8239043,6.13811746 Z M12,20 C15.8659932,20 19,16.8659932 19,13 C19,9.13400675 15.8659932,6 12,6 C8.13400675,6 5,9.13400675 5,13 C5,16.8659932 8.13400675,20 12,20 Z M10,2 L14,2 C14.5522847,2 15,2.44771525 15,3 C15,3.55228475 14.5522847,4 14,4 L10,4 C9.44771525,4 9,3.55228475 9,3 C9,2.44771525 9.44771525,2 10,2 Z"/>
  </defs>
  <g fill="none" fill-rule="evenodd">
    <rect width="24" height="24"/>
    <use fill="#1C2025" fill-rule="nonzero" xlink:href="#stopwatch-a"/>
  </g>
</svg>
