<svg width="24" height="24" viewBox="0 0 24 24" fill="none" xmlns="http://www.w3.org/2000/svg">
<path fill-rule="evenodd" clip-rule="evenodd" d="M3.99248 2L7.04695 2.00041L10.1017 2.00082L10.2302 2.00046C11.2441 1.99624 11.6624 2.06357 12.1562 2.558L21.4898 11.891C22.1701 12.5713 22.1701 13.6748 21.4898 14.355L14.3557 21.489C13.6753 22.1703 12.5711 22.1703 11.8912 21.4894L2.55803 12.156C2.06368 11.6617 1.99618 11.239 2.00046 10.2271L2.00082 10.1013L2.00041 7.07093L2 3.99244C2 2.89193 2.89194 2 3.99248 2ZM19.99 13.123L10.7898 3.92346C10.8059 3.93958 10.7673 3.93876 10.6353 3.93596C10.5478 3.9341 10.4192 3.93138 10.2383 3.93213L10.1015 3.9325L7.07097 3.93209L3.99248 3.93168C3.9588 3.93168 3.93172 3.95877 3.93172 3.99244L3.93212 7.04639L3.93254 10.1011L3.93216 10.2353C3.9314 10.4167 3.93437 10.5465 3.9364 10.635C3.9394 10.766 3.94033 10.8065 3.92397 10.7901L13.1232 19.9896L19.99 13.123ZM7 5C8.10457 5 9 5.89543 9 7C9 8.10457 8.10457 9 7 9C5.89543 9 5 8.10457 5 7C5 5.89543 5.89543 5 7 5Z" fill="#636363"/>
</svg>
