<svg width="24" height="24" viewBox="0 0 24 24" fill="none" xmlns="http://www.w3.org/2000/svg">
<path fill-rule="evenodd" clip-rule="evenodd" d="M7.04695 2.00041L3.99248 2C2.89194 2 2 2.89193 2 3.99244L2.00041 7.07093L2.00082 10.1013L2.00046 10.2271C1.99618 11.239 2.06368 11.6617 2.55803 12.156L11.8912 21.4894C12.5711 22.1703 13.6753 22.1703 14.3557 21.489L21.4898 14.355C22.1701 13.6748 22.1701 12.5713 21.4898 11.891L12.1562 2.558C11.6624 2.06357 11.2441 1.99624 10.2302 2.00046L10.1017 2.00082L7.04695 2.00041ZM7 5C8.10457 5 9 5.89543 9 7C9 8.10457 8.10457 9 7 9C5.89543 9 5 8.10457 5 7C5 5.89543 5.89543 5 7 5Z" fill="#636363"/>
</svg>
