<svg width="24" height="24" viewBox="0 0 24 24" fill="none" xmlns="http://www.w3.org/2000/svg">
<path fill-rule="evenodd" clip-rule="evenodd" d="M4 10.2051C4 14.7367 11.6667 22 11.6667 22C11.6667 22 20 14.7367 20 10.2051C20 5.67356 16.4183 2 12 2C7.58172 2 4 5.67356 4 10.2051ZM6 10.1538C6 13.5525 11.75 19 11.75 19C11.75 19 18 13.5525 18 10.1538C18 6.75517 15.3137 4 12 4C8.68629 4 6 6.75517 6 10.1538ZM16 10C16 12.2091 14.2091 14 12 14C9.79086 14 8 12.2091 8 10C8 7.79086 9.79086 6 12 6C14.2091 6 16 7.79086 16 10ZM12 12C13.1046 12 14 11.1046 14 10C14 8.89543 13.1046 8 12 8C10.8954 8 10 8.89543 10 10C10 11.1046 10.8954 12 12 12Z" fill="#636363"/>
</svg>
