<svg width="24" height="24" viewBox="0 0 24 24" fill="none" xmlns="http://www.w3.org/2000/svg">
<path fill-rule="evenodd" clip-rule="evenodd" d="M18.7268 10.0004H19.4995C19.7757 10.0004 19.9995 10.2243 19.9995 10.5004C19.9995 10.7766 19.7757 11.0004 19.4995 11.0004H18.5017L18.4995 11.0004L16.9995 11.0004C16.4472 11.0004 15.9995 11.4481 15.9995 12.0004C15.9995 12.5527 16.4472 13.0004 16.9995 13.0004L18.4995 13.0004L18.5005 13.0004C18.7762 13.0009 18.9995 13.2246 18.9995 13.5004C18.9995 13.7467 18.8214 13.9514 18.587 13.9928L14.7132 13.4431L14.7143 13.4419C14.7143 13.4419 12.8307 13.1544 12.4513 13.2865C11.9214 13.4709 12.4943 14.8412 12.724 15.3411L12.7223 15.3419L13.1538 16.244C14.2326 18.4993 14.2137 19.586 13.5371 19.9096L13.494 19.9303C13.3467 20.0009 13.3062 20.0204 13.2788 20.0088C13.2685 20.0044 13.26 19.9956 13.2483 19.9834L13.2482 19.9834L13.2457 19.9808C13.1056 19.8357 12.9737 19.5599 12.7087 18.8625C12.3362 17.8818 12.1465 17.4853 11.7408 17.0652C10.9767 16.2739 9.80005 15.5568 8.20449 14.8849L6.74975 14.2661L6.72774 14.2567L6.50663 16.3399L7.28824 16.6691L7.42824 16.7281C8.79627 17.3042 9.75634 17.8893 10.3021 18.4545C10.4422 18.5996 10.5742 18.8754 10.8391 19.5728C11.2116 20.5534 11.4013 20.95 11.807 21.3701C12.4792 22.0662 13.4024 22.1912 14.4002 21.7138C16.3861 20.7638 16.4509 18.5649 15.0173 15.5063L18.4995 16.0004C19.8802 16.0004 20.9995 14.8811 20.9995 13.5004C20.9995 13.1878 20.9421 12.8886 20.8373 12.6127C21.5359 12.1694 21.9995 11.389 21.9995 10.5004C21.9995 9.61692 21.5412 8.84047 20.8494 8.39582C20.9464 8.11783 20.9995 7.81595 20.9995 7.50042C20.9995 6.57273 20.5402 5.76307 19.858 5.33161C19.9497 5.07157 19.9995 4.79181 19.9995 4.50042C19.9995 3.11971 18.8802 2.00042 17.4995 2.00042L9.49869 2.00591L9.20437 2.00612L9.19301 2.00612V2.00657V4.00612L9.19914 4.00612L17.4995 4.00042C17.7757 4.00042 17.9995 4.22427 17.9995 4.50042C17.9995 4.77656 17.7757 5.00042 17.4995 5.00042L16.9147 4.99021V5.00396C16.4021 5.04701 15.9995 5.4767 15.9995 6.00042C15.9995 6.5527 16.4472 7.00042 16.9995 7.00042L17.4995 7.00042H18.7268C18.8326 7.00042 18.9995 7.18399 18.9995 7.50042C18.9995 7.81684 18.8326 8.00042 18.7268 8.00042L16.9995 8.00042C16.4472 8.00042 15.9995 8.44813 15.9995 9.00042C15.9995 9.5527 16.4472 10.0004 16.9995 10.0004L18.7268 10.0004Z" fill="#636363"/>
</svg>
