<svg width="24" height="24" viewBox="0 0 24 24" fill="none" xmlns="http://www.w3.org/2000/svg">
<path d="M9.23832 3.74456L6.21279 4.10935L3.25503 7.95041V12.3338L6.52651 15.4392L7.4097 15.9549L7.30209 16.6734C4.23214 15.7341 1.99951 12.878 1.99951 9.50049C1.99951 7.5094 2.7754 5.69952 4.04131 4.35672C5.30723 3.01391 7.06318 2.13818 9.02331 2.01536L8.99951 2.00049L17.4995 2.00049C18.8802 2.00049 19.9995 3.11978 19.9995 4.50049C19.9995 4.79189 19.9497 5.07164 19.858 5.33168C20.5402 5.76314 20.9995 6.5728 20.9995 7.50049C20.9995 7.81602 20.9464 8.1179 20.8494 8.39589C21.5412 8.84054 21.9995 9.61699 21.9995 10.5005C21.9995 11.3891 21.5359 12.1694 20.8373 12.6128C20.9421 12.8887 20.9995 13.1879 20.9995 13.5005C20.9995 14.8812 19.8802 16.0005 18.4995 16.0005L15.0173 15.5064C16.4509 18.5649 16.3861 20.7639 14.4002 21.7139C13.4024 22.1912 12.4792 22.0662 11.807 21.3702C11.4013 20.9501 11.2116 20.5535 10.8391 19.5728C10.5742 18.8755 10.4422 18.5997 10.3021 18.4546C9.75634 17.8894 8.79627 17.3043 7.42824 16.7281L7.28824 16.6692C4.22543 15.7255 1.99951 12.873 1.99951 9.50049C1.99951 7.5094 2.7754 5.69952 4.04131 4.35672C5.40893 2.90604 7.34847 2.00049 9.49951 2.00049L9.23832 3.74456Z" fill="#636363"/>
</svg>
