<svg width="24" height="24" viewBox="0 0 24 24" fill="none" xmlns="http://www.w3.org/2000/svg">
<path d="M3.00001 2H10C10.5523 2 11 2.44773 11 3.00001V10C11 10.5523 10.5523 11 10 11H3.00001C2.44773 11 2 10.5523 2 10V3.00001C2 2.44773 2.44773 2 3.00001 2V2ZM3.00001 13H10C10.5523 13 11 13.4477 11 14V21C11 21.5523 10.5523 22 10 22H3.00001C2.44773 22 2 21.5523 2 21V14C2 13.4477 2.44773 13 3.00001 13V13ZM14 2H21C21.5523 2 22 2.44773 22 3.00001V10C22 10.5523 21.5523 11 21 11H14C13.4477 11 13 10.5523 13 10V3.00001C13 2.44773 13.4477 2 14 2V2ZM14 13H21C21.5523 13 22 13.4477 22 14V21C22 21.5523 21.5523 22 21 22H14C13.4477 22 13 21.5523 13 21V14C13 13.4477 13.4477 13 14 13V13Z" fill="#1C2025"/>
</svg>
