<svg width="24" height="24" viewBox="0 0 24 24" fill="none" xmlns="http://www.w3.org/2000/svg">
<path fill-rule="evenodd" clip-rule="evenodd" d="M8 2C6.89543 2 6 2.89543 6 4V6H4H3C2.44772 6 2 6.44772 2 7C2 7.55228 2.44772 8 3 8H4.125L4.8828 20.1248C4.94868 21.1788 5.82278 22 6.8789 22H17.1211C18.1772 22 19.0513 21.1788 19.1172 20.1248L19.875 8H21C21.5523 8 22 7.55228 22 7C22 6.44772 21.5523 6 21 6H20H18V4C18 2.89543 17.1046 2 16 2H8ZM8 4V6H16V4H8ZM6.1289 8H17.8711L17.1211 20H6.8789L6.1289 8ZM9 11C9 10.4477 9.44772 10 10 10C10.5523 10 11 10.4477 11 11V18C11 18.5523 10.5523 19 10 19C9.44772 19 9 18.5523 9 18V11ZM14 10C13.4477 10 13 10.4477 13 11V18C13 18.5523 13.4477 19 14 19C14.5523 19 15 18.5523 15 18V11C15 10.4477 14.5523 10 14 10Z" fill="#636363"/>
</svg>
