<svg width="24" height="24" viewBox="0 0 24 24" fill="none" xmlns="http://www.w3.org/2000/svg">
<path fill-rule="evenodd" clip-rule="evenodd" d="M4 2H20C21.1046 2 22 2.89543 22 4V20C22 21.1046 21.1046 22 20 22H4C2.89543 22 2 21.1046 2 20V4C2 2.89543 2.89543 2 4 2ZM13 8C13 7.44772 13.4477 7 14 7H18C18.5523 7 19 7.44772 19 8C19 8.55228 18.5523 9 18 9H14C13.4477 9 13 8.55228 13 8ZM14 15C13.4477 15 13 15.4477 13 16C13 16.5523 13.4477 17 14 17H18C18.5523 17 19 16.5523 19 16C19 15.4477 18.5523 15 18 15H14ZM5 8C5 7.44772 5.44772 7 6 7H10C10.5523 7 11 7.44772 11 8C11 8.55228 10.5523 9 10 9H6C5.44772 9 5 8.55228 5 8ZM6 15C5.44772 15 5 15.4477 5 16C5 16.5523 5.44772 17 6 17H10C10.5523 17 11 16.5523 11 16C11 15.4477 10.5523 15 10 15H6Z" fill="#636363"/>
</svg>
