<svg width="24" height="24" viewBox="0 0 24 24" fill="none" xmlns="http://www.w3.org/2000/svg">
<path fill-rule="evenodd" clip-rule="evenodd" d="M8 1C7.44772 1 7 1.44772 7 2V4C7 4.55228 7.44772 5 8 5C8.55228 5 9 4.55228 9 4V2C9 1.44772 8.55228 1 8 1ZM2.06802 3.33579C1.6775 2.94526 1.6775 2.3121 2.06802 1.92157C2.45854 1.53105 3.09171 1.53105 3.48223 1.92157L5.51777 3.95711C5.90829 4.34763 5.90829 4.9808 5.51777 5.37132C5.12724 5.76184 4.49408 5.76184 4.10355 5.37132L2.06802 3.33579ZM13.4142 9.17157L16.9497 12.7071C17.7308 13.4882 17.7308 14.7545 16.9497 15.5355L11.2929 21.1924C10.5118 21.9734 9.24551 21.9734 8.46447 21.1924L4.22183 16.9497C3.44078 16.1687 3.44078 14.9024 4.22183 14.1213L4.92893 13.4142C5.31946 13.0237 5.95262 13.0237 6.34315 13.4142C6.73367 13.8047 6.73367 14.4379 6.34315 14.8284L5.63604 15.5355L9.87868 19.7782L15.5355 14.1213L12 10.5858C11.6095 10.1953 11.6095 9.5621 12 9.17157C12.3905 8.78105 13.0237 8.78105 13.4142 9.17157ZM8.46447 9.87868L12 13.4142C12.3905 13.8047 12.3905 14.4379 12 14.8284C11.6095 15.219 10.9763 15.219 10.5858 14.8284L7.05025 11.2929C6.2692 10.5118 6.2692 9.24551 7.05025 8.46447L12.7071 2.80761C13.4882 2.02656 14.7545 2.02656 15.5355 2.80761L19.7782 7.05025C20.5592 7.8313 20.5592 9.09763 19.7782 9.87868L19.0711 10.5858C18.6805 10.9763 18.0474 10.9763 17.6569 10.5858C17.2663 10.1953 17.2663 9.5621 17.6569 9.17157L18.364 8.46447L14.1213 4.22183L8.46447 9.87868ZM18.269 18.1312C17.8785 18.5217 17.8785 19.1549 18.269 19.5454L20.3055 21.5819C20.696 21.9724 21.3291 21.9724 21.7197 21.5819C22.1102 21.1914 22.1102 20.5582 21.7197 20.1677L19.6832 18.1312C19.2927 17.7407 18.6595 17.7407 18.269 18.1312ZM15 20C15 19.4477 15.4477 19 16 19C16.5523 19 17 19.4477 17 20V22C17 22.5523 16.5523 23 16 23C15.4477 23 15 22.5523 15 22V20ZM19 16C19 15.4477 19.4477 15 20 15H22C22.5523 15 23 15.4477 23 16C23 16.5523 22.5523 17 22 17H20C19.4477 17 19 16.5523 19 16ZM2 7C1.44772 7 1 7.44772 1 8C1 8.55228 1.44772 9 2 9H4C4.55228 9 5 8.55228 5 8C5 7.44772 4.55228 7 4 7H2Z" fill="#636363"/>
</svg>
