<svg width="24" height="24" viewBox="0 0 24 24" fill="none" xmlns="http://www.w3.org/2000/svg">
<path fill-rule="evenodd" clip-rule="evenodd" d="M7 7V8H5C3.89543 8 3 8.89543 3 10V20C3 21.1046 3.89543 22 5 22H19C20.1046 22 21 21.1046 21 20V10C21 8.89543 20.1046 8 19 8H16.8818H16.8374H12H9V7C9 5.34315 10.3431 4 12 4C13.2108 4 14.2882 4.72339 14.7583 5.81698L16.5957 5.02716C15.8304 3.24676 14.0608 2 12 2C9.23858 2 7 4.23858 7 7ZM12.9686 15.7502C13.5837 15.4091 14 14.7532 14 14C14 12.8954 13.1046 12 12 12C10.8954 12 10 12.8954 10 14C10 14.7532 10.4163 15.4091 11.0314 15.7502C11.0109 15.8301 11 15.9138 11 16V17C11 17.5523 11.4477 18 12 18C12.5523 18 13 17.5523 13 17V16C13 15.9138 12.9891 15.8301 12.9686 15.7502Z" fill="#636363"/>
</svg>
