<svg width="24" height="24" viewBox="0 0 24 24" fill="none" xmlns="http://www.w3.org/2000/svg">
<path fill-rule="evenodd" clip-rule="evenodd" d="M9.64161 1H15.6416H17.6096H17.6416V1.00026C18.1329 1.0081 18.6046 1.1966 18.9662 1.53039L20.9982 3.40606C21.4083 3.78467 21.6416 4.31747 21.6416 4.87566V5V7V17C21.6416 17.5523 21.1939 18 20.6416 18H18.193L18.2489 18.2086C18.3918 18.742 18.0753 19.2904 17.5418 19.4333L7.88253 22.0215C7.34907 22.1644 6.80073 21.8479 6.65779 21.3144L3.03432 7.79143C2.89138 7.25797 3.20796 6.70963 3.74143 6.56669L8.64161 5.25369V2C8.64161 1.44772 9.08933 1 9.64161 1ZM19.6416 5V4.87566L17.6416 3.02951V5H19.6416ZM15.6416 5C15.6416 6.10457 16.537 7 17.6416 7H19.6416V16H15.6416H11.6416H10.6416V3H15.6416V5ZM8.64161 17V7.32424L5.22499 8.23972L8.33082 19.8308L15.1636 18H9.64161C9.08933 18 8.64161 17.5523 8.64161 17ZM12.6416 9H17.6416V11H12.6416V9ZM17.6416 12H12.6416V14H17.6416V12Z" fill="#636363"/>
</svg>
