<svg xmlns="http://www.w3.org/2000/svg" xmlns:xlink="http://www.w3.org/1999/xlink" width="24" height="24" viewBox="0 0 24 24">
  <defs>
    <path id="users-view-a" d="M21.9341755,15.5939354 C22.5990242,16.3786836 23,17.3935218 23,18.5 C23,20.9852814 20.9802243,23 18.5,23 C17.2482591,23 16.1158882,22.4876333 15.3001785,21.6621294 C15.0289555,21.8873765 14.678896,22 14.25,22 L3.75,22 C2.58333333,22 2,21.1666667 2,19.5 C2,15.6897103 3.00933427,13.3312514 5.8183508,12.4246232 C5.30492934,11.751927 5,10.9115735 5,10 C5,7.790861 6.790861,6 9,6 C11.209139,6 13,7.790861 13,10 C13,10.9115735 12.6950707,11.751927 12.1816492,12.4246232 C13.7489294,12.930473 14.7559614,13.8882836 15.3400212,15.2980548 C16.1533406,14.4954554 17.270054,14 18.5,14 C19.0238121,14 19.5267208,14.0897229 19.9942687,14.2545691 C19.9143933,10.9568714 18.9804949,10 16,10 C15.1873124,10 14.5267856,10.0711417 13.9942433,10.2414811 C13.9980724,10.1613021 14,10.0807903 14,10 C14,8.60164895 13.4259652,7.3373709 12.5006869,6.4299571 C12.5379958,4.52929093 14.0904054,3 16,3 C17.9329966,3 19.5,4.56700338 19.5,6.5 C19.5,7.22072547 19.2821551,7.89057052 18.9087186,8.44728177 C21.178512,9.3074744 22,11.4083805 22,14.75 C22,15.064224 21.9780585,15.3455358 21.9341755,15.5939354 Z M16,8 C16.8284271,8 17.5,7.32842712 17.5,6.5 C17.5,5.67157288 16.8284271,5 16,5 C15.1715729,5 14.5,5.67157288 14.5,6.5 C14.5,7.32842712 15.1715729,8 16,8 Z M9,12 C10.1045695,12 11,11.1045695 11,10 C11,8.8954305 10.1045695,8 9,8 C7.8954305,8 7,8.8954305 7,10 C7,11.1045695 7.8954305,12 9,12 Z M4.02718264,20 L13.9728174,20 C13.9878287,19.8803496 14,19.71391 14,19.5 C14,15.2935933 12.8696534,14 9,14 C5.13034659,14 4,15.2935933 4,19.5 C4,19.71391 4.01217132,19.8803496 4.02718264,20 Z M18.5,21 C20.4329966,21 22,19.8807119 22,18.5 C22,17.1192881 20.4329966,16 18.5,16 C16.5670034,16 15,17.1192881 15,18.5 C15,19.8807119 16.5670034,21 18.5,21 Z M18.5,21 C17.6715729,21 17,19.8807119 17,18.5 C17,17.1192881 17.6715729,16 18.5,16 C19.3284271,16 20,17.1192881 20,18.5 C20,19.8807119 19.3284271,21 18.5,21 Z"/>
  </defs>
  <g fill="none" fill-rule="evenodd">
    <rect width="24" height="24"/>
    <use fill="#1C2025" xlink:href="#users-view-a"/>
  </g>
</svg>
