<svg width="24" height="24" viewBox="0 0 24 24" fill="none" xmlns="http://www.w3.org/2000/svg">
<path fill-rule="evenodd" clip-rule="evenodd" d="M20.5 17H16.8238C16.7083 16.2635 16.5345 15.5973 16.2984 15H19.9936C19.9974 14.9283 20 14.845 20 14.75C20 11.0517 19.1248 10 16 10C15.1873 10 14.5268 10.0711 13.9942 10.2415C13.9981 10.1613 14 10.0808 14 10C14 8.60165 13.426 7.33737 12.5007 6.42996C12.538 4.52929 14.0904 3 16 3C17.933 3 19.5 4.567 19.5 6.5C19.5 7.22073 19.2822 7.89057 18.9087 8.44728C21.1785 9.30748 22 11.4084 22 14.75C22 16.25 21.5 17 20.5 17ZM17.5 6.5C17.5 7.32843 16.8284 8 16 8C15.1716 8 14.5 7.32843 14.5 6.5C14.5 5.67157 15.1716 5 16 5C16.8284 5 17.5 5.67157 17.5 6.5ZM3.75 22C2.58333 22 2 21.1667 2 19.5C2 15.6897 3.00933 13.3313 5.81835 12.4246C5.30493 11.7519 5 10.9116 5 10C5 7.79086 6.79086 6 9 6C11.2091 6 13 7.79086 13 10C13 10.9116 12.6951 11.7519 12.1816 12.4246C14.9907 13.3313 16 15.6897 16 19.5C16 21.1667 15.4167 22 14.25 22H3.75ZM11 10C11 11.1046 10.1046 12 9 12C7.89543 12 7 11.1046 7 10C7 8.89543 7.89543 8 9 8C10.1046 8 11 8.89543 11 10ZM14 19.5C14 19.7139 13.9878 19.8804 13.9728 20H4.02718C4.01217 19.8804 4 19.7139 4 19.5C4 15.2936 5.13035 14 9 14C12.8697 14 14 15.2936 14 19.5Z" fill="#636363"/>
</svg>
