<svg width="24" height="24" viewBox="0 0 24 24" fill="none" xmlns="http://www.w3.org/2000/svg">
<path fill-rule="evenodd" clip-rule="evenodd" d="M8.02382 6.56121C8.02299 6.5688 8.02218 6.5764 8.02139 6.58401L3.73524 2.29786C3.33819 1.9008 2.69455 1.9007 2.29763 2.29763C1.9007 2.69455 1.9008 3.33819 2.29786 3.73524L10.6075 12.0449C5.6755 12.3821 4.00005 14.6171 4.00005 18.75C4.00005 20.25 4.66672 21 6.00005 21H18C18.5088 21 18.9204 20.8908 19.2351 20.6725L20.2648 21.7021C20.6618 22.0992 21.3055 22.0993 21.7024 21.7024C22.0993 21.3055 22.0992 20.6618 21.7021 20.2648L19.9989 18.5615C19.9988 18.5529 19.9986 18.5444 19.9985 18.5359L17.5784 16.1158C17.5849 16.1306 17.5914 16.1454 17.5978 16.1604L16.0244 14.587C16.04 14.594 16.0555 14.6011 16.0709 14.6083L13.5165 12.0538C13.5074 12.0532 13.4983 12.0525 13.4892 12.0518L12.416 10.9786C12.4236 10.9778 12.4312 10.977 12.4388 10.9762L8.02382 6.56121ZM17.4221 13.0847L19.1739 14.8365C18.7658 14.1149 18.1921 13.531 17.4221 13.0847ZM14.4778 10.1404L13.0438 8.7064C13.6174 8.3548 14.0001 7.72209 14.0001 7C14.0001 5.89543 13.1046 5 12.0001 5C11.278 5 10.6453 5.38268 10.2937 5.95629L8.85963 4.52225C9.59219 3.59505 10.7266 3 12 3C14.2092 3 16 4.79086 16 7C16 8.27341 15.405 9.40783 14.4778 10.1404ZM12.0001 14C12.1955 14 12.385 14.002 12.5688 14.0062L17.5626 19H6.00705C6.00388 18.9414 6.00012 18.8592 6.00012 18.75C6.00012 15.1737 7.30244 14 12.0001 14Z" fill="#636363"/>
</svg>
