<svg width="24" height="24" viewBox="0 0 24 24" fill="none" xmlns="http://www.w3.org/2000/svg">
<path fill-rule="evenodd" clip-rule="evenodd" d="M8 7C8 9.20914 9.79086 11 12 11C14.2091 11 16 9.20914 16 7C16 4.79086 14.2091 3 12 3C9.79086 3 8 4.79086 8 7ZM13.729 20.5362L13.2428 21H18C19.3333 21 20 20.25 20 18.75C20 14.25 18.0137 12 12 12C5.98633 12 4 14.25 4 18.75C4 20.25 4.66667 21 6 21H10.7572L10.271 20.5362C10.0133 20.2904 9.90576 19.926 9.98874 19.5796L11.3255 14H12.6745L14.0113 19.5796C14.0942 19.926 13.9867 20.2904 13.729 20.5362Z" fill="#636363"/>
</svg>
