<svg width="24" height="24" viewBox="0 0 24 24" fill="none" xmlns="http://www.w3.org/2000/svg">
<path fill-rule="evenodd" clip-rule="evenodd" d="M4.5 6.5C4.5 7.22073 4.71785 7.89057 5.09128 8.44728C2.82149 9.30748 2 11.4084 2 14.75C2 16.25 2.5 17 3.5 17H4.17619C4.29174 16.2635 4.46552 15.5973 4.70164 15H4.00636C4.00255 14.9283 4 14.845 4 14.75C4 11.4812 4.68376 10.28 7.0002 10.0451L7 10C7 9.25006 7.1651 8.53868 7.46095 7.90023C6.89884 7.68369 6.5 7.13842 6.5 6.5C6.5 5.67157 7.17157 5 8 5C8.56768 5 9.0617 5.31535 9.31645 5.78042C9.87612 5.42374 10.5115 5.17535 11.1931 5.06476C10.6452 3.84748 9.42155 3 8 3C6.067 3 4.5 4.567 4.5 6.5ZM20.5 17H19.8238C19.7083 16.2635 19.5345 15.5973 19.2984 15H19.9936C19.9974 14.9283 20 14.845 20 14.75C20 11.4812 19.3162 10.28 16.9998 10.0451L17 10C17 9.25006 16.8349 8.53868 16.539 7.90023C17.1012 7.68369 17.5 7.13842 17.5 6.5C17.5 5.67157 16.8284 5 16 5C15.4323 5 14.9383 5.31535 14.6835 5.78042C14.1239 5.42374 13.4885 5.17535 12.8069 5.06476C13.3548 3.84748 14.5785 3 16 3C17.933 3 19.5 4.567 19.5 6.5C19.5 7.22073 19.2822 7.89057 18.9087 8.44728C21.1785 9.30748 22 11.4084 22 14.75C22 16.25 21.5 17 20.5 17ZM6.75 22C5.58333 22 5 21.1667 5 19.5C5 15.6897 6.00933 13.3313 8.81835 12.4246C8.30493 11.7519 8 10.9116 8 10C8 7.79086 9.79086 6 12 6C14.2091 6 16 7.79086 16 10C16 10.9116 15.6951 11.7519 15.1816 12.4246C17.9907 13.3313 19 15.6897 19 19.5C19 21.1667 18.4167 22 17.25 22H6.75ZM14 10C14 11.1046 13.1046 12 12 12C10.8954 12 10 11.1046 10 10C10 8.89543 10.8954 8 12 8C13.1046 8 14 8.89543 14 10ZM17 19.5C17 19.7139 16.9878 19.8804 16.9728 20H7.02718C7.01217 19.8804 7 19.7139 7 19.5C7 15.2936 8.13035 14 12 14C15.8697 14 17 15.2936 17 19.5Z" fill="#636363"/>
</svg>
