<svg width="24" height="24" viewBox="0 0 24 24" fill="none" xmlns="http://www.w3.org/2000/svg">
<path fill-rule="evenodd" clip-rule="evenodd" d="M8 7C8 9.20914 9.79086 11 12 11C14.2091 11 16 9.20914 16 7C16 4.79086 14.2091 3 12 3C9.79086 3 8 4.79086 8 7ZM12 9C13.1046 9 14 8.10457 14 7C14 5.89543 13.1046 5 12 5C10.8954 5 10 5.89543 10 7C10 8.10457 10.8954 9 12 9ZM11.3234 14.0089C7.17588 14.1228 6 15.3517 6 18.75C6 18.8592 6.00376 18.9414 6.00693 19H7C7.55228 19 8 19.4477 8 20C8 20.5523 7.55228 21 7 21H6C4.66667 21 4 20.25 4 18.75C4 14.25 5.98633 12 12 12C18.0137 12 20 14.25 20 18.75C20 20.25 19.3333 21 18 21H17C16.4477 21 16 20.5523 16 20C16 19.4477 16.4477 19 17 19H17.9931C17.9962 18.9414 18 18.8592 18 18.75C18 15.3517 16.8241 14.1228 12.6766 14.0089L14.0113 19.5796C14.0942 19.926 13.9867 20.2904 13.729 20.5362L12 22.1855L10.271 20.5362C10.0133 20.2904 9.90576 19.926 9.98874 19.5796L11.3234 14.0089Z" fill="#636363"/>
</svg>
