<svg xmlns="http://www.w3.org/2000/svg" xmlns:xlink="http://www.w3.org/1999/xlink" width="24" height="24" viewBox="0 0 24 24">
  <defs>
    <path id="user-groups-plus-a" d="M12,9 C13.1045695,9 14,8.1045695 14,7 C14,5.8954305 13.1045695,5 12,5 C10.8954305,5 10,5.8954305 10,7 C10,8.1045695 10.8954305,9 12,9 Z M18,18 L16,18 L16,19 L18,19 L18,21 L19,21 L19,19 L21,19 L21,18 L19,18 L19,16 L18,16 L18,18 Z M18.5700946,14.0005362 C21.0230529,14.0380864 23,16.0431351 23,18.5 C23,20.9852814 20.9802243,23 18.5,23 C16.9407517,23 15.5667273,22.2049717 14.7592649,21 L6,21 C4.66666667,21 4,20.25 4,18.75 C4,14.25 5.98632812,12 12,12 C15.2738671,12 17.3541273,12.6668454 18.5700946,14.0005362 Z M14.0275637,19 C14.0093506,18.835799 14,18.668968 14,18.5 C14,16.8705957 14.8681799,15.4434579 16.1651023,14.6537488 C15.2377171,14.1910203 13.8951577,14 12,14 C7.30232258,14 6,15.173695 6,18.75 C6,18.8591949 6.00375864,18.9414012 6.00693052,19 L14.0275637,19 Z M12,11 C9.790861,11 8,9.209139 8,7 C8,4.790861 9.790861,3 12,3 C14.209139,3 16,4.790861 16,7 C16,9.209139 14.209139,11 12,11 Z"/>
  </defs>
  <g fill="none" fill-rule="evenodd">
    <rect width="24" height="24"/>
    <use fill="#1C2025" fill-rule="nonzero" xlink:href="#user-groups-plus-a"/>
  </g>
</svg>
