<svg width="24" height="24" viewBox="0 0 24 24" fill="none" xmlns="http://www.w3.org/2000/svg">
<path fill-rule="evenodd" clip-rule="evenodd" d="M7.46261 6H7.43739L3.73524 2.29786C3.33819 1.9008 2.69455 1.9007 2.29763 2.29763C1.9007 2.69455 1.9008 3.33819 2.29786 3.73524L4.56261 6H4C2.89543 6 2 6.89543 2 8V16C2 17.1046 2.89543 18 4 18H15C15.4407 18 15.8481 17.8575 16.1786 17.616L20.2648 21.7021C20.6618 22.0992 21.3055 22.0993 21.7024 21.7024C22.0993 21.3055 22.0992 20.6618 21.7021 20.2648L17 15.5626V15.5374L7.46261 6ZM21.4875 17.1501C21.7933 16.9791 22 16.6521 22 16.2768V7.72318C22 7.54915 21.9546 7.37814 21.8682 7.22704C21.5942 6.74752 20.9834 6.58093 20.5039 6.85494L17 8.85714V8C17 6.89543 16.1046 6 15 6H10.3374L21.4875 17.1501Z" fill="#636363"/>
</svg>
