<svg width="24" height="24" viewBox="0 0 24 24" fill="none" xmlns="http://www.w3.org/2000/svg">
<path fill-rule="evenodd" clip-rule="evenodd" d="M15 6H4C2.89543 6 2 6.89543 2 8V16C2 17.1046 2.89543 18 4 18H15C16.1046 18 17 17.1046 17 16V15.1429L20.5039 17.1451C20.655 17.2314 20.826 17.2768 21 17.2768C21.5523 17.2768 22 16.8291 22 16.2768V7.72318C22 7.54915 21.9546 7.37814 21.8682 7.22704C21.5942 6.74752 20.9834 6.58093 20.5039 6.85494L17 8.85714V8C17 6.89543 16.1046 6 15 6ZM15 10V14V16H4V8H15V10ZM20 14.5536L17 12.8394V11.1606L20 9.44636V14.5536Z" fill="#636363"/>
</svg>
