<svg width="24" height="24" viewBox="0 0 24 24" fill="none" xmlns="http://www.w3.org/2000/svg">
<path fill-rule="evenodd" clip-rule="evenodd" d="M20 2H12C10.8954 2 10 2.89543 10 4V4.08296C10.7179 4.2034 11.3926 4.45134 12 4.80269V4H20V10H15C15 10.5112 14.9356 11.0133 14.8113 11.4968C15.7331 12.1353 16.4391 12.9706 16.9496 14H18C18.5523 14 19 13.5523 19 13C19 12.4477 18.5523 12 18 12H20C21.1046 12 22 11.1046 22 10V4C22 2.89543 21.1046 2 20 2ZM13 10C13 10.9102 12.696 11.7493 12.1841 12.4215C14.8715 13.2866 16 15.5235 16 19.5C16 19.7752 15.9851 20.0267 15.9573 20.249L15.7376 22H2.26242L2.04274 20.249C2.01485 20.0267 2 19.7752 2 19.5C2 15.5235 3.12848 13.2866 5.81595 12.4215C5.30398 11.7493 5 10.9102 5 10C5 7.79086 6.79086 6 9 6C11.2091 6 13 7.79086 13 10ZM11 10C11 11.1046 10.1046 12 9 12C7.89543 12 7 11.1046 7 10C7 8.89543 7.89543 8 9 8C10.1046 8 11 8.89543 11 10ZM14 19.5C14 19.7139 13.9878 19.8804 13.9728 20H4.02718C4.01217 19.8804 4 19.7139 4 19.5C4 15.2936 5.13035 14 9 14C12.8697 14 14 15.2936 14 19.5Z" fill="#636363"/>
</svg>
