<svg width="24" height="24" viewBox="0 0 24 24" fill="none" xmlns="http://www.w3.org/2000/svg">
<path fill-rule="evenodd" clip-rule="evenodd" d="M2.73699 2.73688C2.3453 3.12858 2.3453 3.76363 2.73699 4.15532L5.59752 7.01586C3.0243 7.22082 1 9.37395 1 11.9999C1 14.7613 3.23858 16.9999 6 16.9999H15.5816L19.8446 21.2629C20.2363 21.6546 20.8713 21.6546 21.263 21.2629C21.6547 20.8712 21.6547 20.2362 21.263 19.8445L4.15543 2.73688C3.76374 2.34519 3.12868 2.34519 2.73699 2.73688ZM13.5816 14.9999L10.984 12.4024C10.9068 13.3726 10.5525 14.2648 10.0004 14.9999H13.5816ZM23 11.9999C23 13.8388 22.0073 15.4458 20.5286 16.3143L19.032 14.8177C20.1804 14.3969 21 13.2941 21 11.9999C21 10.343 19.6569 8.99989 18 8.99989C16.7058 8.99989 15.603 9.81945 15.1822 10.9679L13.6856 9.47127C14.5541 7.99257 16.1611 6.99989 18 6.99989C20.7614 6.99989 23 9.23847 23 11.9999ZM9 11.9999C9 13.6567 7.65685 14.9999 6 14.9999C4.34315 14.9999 3 13.6567 3 11.9999C3 10.343 4.34315 8.99989 6 8.99989C7.65685 8.99989 9 10.343 9 11.9999Z" fill="#636363"/>
</svg>
