<svg width="24" height="24" viewBox="0 0 24 24" fill="none" xmlns="http://www.w3.org/2000/svg">
<path fill-rule="evenodd" clip-rule="evenodd" d="M16 2H4C2.89543 2 2 2.89543 2 4V20C2 21.1046 2.89543 22 4 22H16V22H20.8C21.4627 22 22 21.4628 22 20.8V20H18V20V6.00003H20V20H22V6.00003V6.00001V5.20003C22 4.53729 21.4627 4.00003 20.8 4.00003H18V4C18 2.89543 17.1046 2 16 2ZM4 4.00003V20H16V4.00003H4ZM5.6 5.00002C5.26863 5.00002 5 5.26865 5 5.60002V6.40002C5 6.73139 5.26863 7.00002 5.6 7.00002H14.4C14.7314 7.00002 15 6.73139 15 6.40002V5.60002C15 5.26865 14.7314 5.00002 14.4 5.00002H5.6ZM7 11C7 11.9012 7.3974 12.7096 8.02653 13.2596C6.53937 13.7442 6 14.9077 6 16.75C6 17.5834 6.33333 18 7 18H13C13.6667 18 14 17.5834 14 16.75C14 14.9077 13.4606 13.7442 11.9735 13.2596C12.6026 12.7096 13 11.9012 13 11C13 9.34313 11.6569 7.99999 10 7.99999C8.34315 7.99999 7 9.34313 7 11ZM11 11C11 11.5523 10.5523 12 10 12C9.44772 12 9 11.5523 9 11C9 10.4477 9.44772 10 10 10C10.5523 10 11 10.4477 11 11ZM9.9646 15C11.3935 15 11.8181 15.1468 11.9292 16H8C8.11113 15.1468 8.53571 15 9.9646 15Z" fill="#636363"/>
</svg>
