<svg width="24" height="24" viewBox="0 0 24 24" fill="none" xmlns="http://www.w3.org/2000/svg">
<path fill-rule="evenodd" clip-rule="evenodd" d="M16 2H4C2.89543 2 2 2.89543 2 4V20C2 21.1046 2.89543 22 4 22H16H20C21.1046 22 22 21.1046 22 20V6C22 4.89543 21.1046 4 20 4H18C18 2.89543 17.1046 2 16 2ZM4 4V20H16V4H4ZM6 5C5.44772 5 5 5.44772 5 6C5 6.55228 5.44772 7 6 7H14C14.5523 7 15 6.55228 15 6C15 5.44772 14.5523 5 14 5H6ZM8.02647 13.2595C7.39738 12.7096 7 11.9012 7 11C7 9.34315 8.34315 8 10 8C11.6569 8 13 9.34315 13 11C13 11.9012 12.6026 12.7096 11.9735 13.2595C13.4606 13.7442 14 14.9077 14 16.75C14 17.5833 13.6667 18 13 18H7C6.33333 18 6 17.5833 6 16.75C6 14.9077 6.53935 13.7442 8.02647 13.2595Z" fill="#636363"/>
</svg>
