<svg width="24" height="24" viewBox="0 0 24 24" fill="none" xmlns="http://www.w3.org/2000/svg">
<path fill-rule="evenodd" clip-rule="evenodd" d="M2.04718 2.36645C2.01681 2.43823 2.00002 2.51715 2.00002 2.6V3.4V6.5933L1.99999 6.6V7.4L2.00002 7.4067V20.5933C2 20.5955 1.99999 20.5978 1.99999 20.6V21.4C1.99999 21.7314 2.26862 22 2.59999 22H20.6H21.4C21.7314 22 22 21.7314 22 21.4V20.6V7.4V6.6V3.40666L22 3.4V2.6C22 2.26863 21.7314 2 21.4 2H3.40002H2.60002C2.4694 2 2.34852 2.04174 2.25 2.11262C2.16108 2.17659 2.09039 2.26429 2.04718 2.36645ZM20 20V8H4.00002V20H20ZM20 6H4.00002V4H20V6ZM6.6 10C6.26863 10 6 10.2686 6 10.6V11.4C6 11.7314 6.26863 12 6.6 12H17.4C17.7314 12 18 11.7314 18 11.4V10.6C18 10.2686 17.7314 10 17.4 10H6.6Z" fill="#636363"/>
</svg>
