<svg width="24" height="24" viewBox="0 0 24 24" fill="none" xmlns="http://www.w3.org/2000/svg">
<path fill-rule="evenodd" clip-rule="evenodd" d="M2.60001 2C2.47575 2 2.36031 2.03778 2.26455 2.10247C2.17317 2.16421 2.09971 2.25045 2.0536 2.35178C2.02321 2.41858 2.00471 2.49193 2.00079 2.56912C2.00027 2.57935 2.00001 2.58965 2.00001 2.6V3.4V20.5961L2 20.6L2.00001 21.4C2.00001 21.6071 2.10495 21.7897 2.26455 21.8975C2.36031 21.9622 2.47575 22 2.60001 22H3.40001L20.6 22H21.4C21.7314 22 22 21.7314 22 21.4V20.6V3.40375L22 3.4L22 2.6C22 2.47574 21.9622 2.3603 21.8975 2.26454C21.7897 2.10493 21.6071 2 21.4 2H20.6H3.40001H2.60001ZM20 20V4H4.00001V4H20V6L3.99999 6V8L4.00001 8H20V20L20 20ZM6.6 10C6.26863 10 6 10.2686 6 10.6V11.4C6 11.7314 6.26863 12 6.6 12H17.4C17.7314 12 18 11.7314 18 11.4V10.6C18 10.2686 17.7314 10 17.4 10H6.6Z" fill="#636363"/>
</svg>
