<svg width="24" height="24" viewBox="0 0 24 24" fill="none" xmlns="http://www.w3.org/2000/svg">
<path fill-rule="evenodd" clip-rule="evenodd" d="M3.5 20.5V8.75H20.5V20.5H3.5ZM3.5 7.25H20.5V3.5H3.5V7.25ZM22 2H20.5H3.5H2V3.5V20.5V22H3.5H20.5H22V20.5V3.5V2ZM11 11.4001V12.5275C15.0846 12.7634 17 14.5488 17 19.0001C15.2056 16.2609 12.4625 15.5946 11 15.4399V16.6001C11 16.7649 10.8118 16.859 10.68 16.7601L7.21333 14.1601C7.10666 14.0801 7.10666 13.9201 7.21333 13.8401L10.68 11.2401C10.8118 11.1412 11 11.2353 11 11.4001Z" fill="#636363"/>
</svg>
