<svg width="24" height="24" viewBox="0 0 24 24" fill="none" xmlns="http://www.w3.org/2000/svg">
<path fill-rule="evenodd" clip-rule="evenodd" d="M16.2703 9.08156H18.7599C19.2901 9.08156 19.7199 9.51101 19.7199 10.0408C19.7199 10.5705 19.2901 11 18.7599 11H13.9599C13.4298 11 13 10.5705 13 10.0408V5.24467C13 4.71491 13.4298 4.28545 13.9599 4.28545C14.4901 4.28545 14.9199 4.71491 14.9199 5.24467V7.71779L20.3611 2.28095C20.736 1.90635 21.3439 1.90635 21.7188 2.28095C22.0937 2.65555 22.0937 3.26289 21.7188 3.63749L16.2703 9.08156ZM4.99995 13C4.44767 13 3.99995 13.4477 3.99995 14C3.99995 14.5523 4.44767 15 4.99995 15H7.59327L1.91777 20.6755C1.52725 21.066 1.52725 21.6992 1.91777 22.0897C2.3083 22.4802 2.94146 22.4802 3.33198 22.0897L8.99995 16.4217V19C8.99995 19.5523 9.44767 20 9.99995 20C10.5522 20 11 19.5523 11 19V14.0014L11 14C11 13.4477 10.5522 13 9.99996 13H4.99995Z" fill="#636363"/>
</svg>
