<svg xmlns="http://www.w3.org/2000/svg" xmlns:xlink="http://www.w3.org/1999/xlink" width="24" height="24" viewBox="0 0 24 24">
  <defs>
    <path id="arrow-right-double-a" d="M12,11.125 L12,6.10188411 C12,5.98077254 12.0439591,5.86377756 12.1237117,5.77263181 C12.3055527,5.56481349 12.621434,5.54375474 12.8292523,5.72559577 L19.5699562,11.6237117 C19.5866616,11.6383289 19.602375,11.6540423 19.6169922,11.6707477 C19.7988332,11.878566 19.7777745,12.1944473 19.5699562,12.3762883 L12.8292523,18.2744042 C12.7381066,18.3541568 12.6211116,18.3981159 12.5,18.3981159 C12.2238576,18.3981159 12,18.1742583 12,17.8981159 L12,12.875 L5.8292523,18.2744042 C5.73810656,18.3541568 5.62111157,18.3981159 5.5,18.3981159 C5.22385763,18.3981159 5,18.1742583 5,17.8981159 L5,6.10188411 C5,5.98077254 5.04395912,5.86377756 5.12371165,5.77263181 C5.30555268,5.56481349 5.62143399,5.54375474 5.8292523,5.72559577 L12,11.125 Z"/>
  </defs>
  <g fill="none" fill-rule="evenodd">
    <rect width="24" height="24"/>
    <use fill="#1C2025" xlink:href="#arrow-right-double-a"/>
  </g>
</svg>
