<svg width="24" height="24" viewBox="0 0 24 24" fill="none" xmlns="http://www.w3.org/2000/svg">
<path fill-rule="evenodd" clip-rule="evenodd" d="M18.5356 5.7433L11.4948 12.08L18.5356 18.4167C18.9461 18.7862 18.9794 19.4185 18.61 19.829C18.2405 20.2395 17.6082 20.2728 17.1977 19.9033L9.33103 12.8233C8.88965 12.4261 8.88965 11.734 9.33103 11.3367L17.1977 4.25671C17.6082 3.88726 18.2405 3.92053 18.61 4.33104C18.9794 4.74155 18.9461 5.37384 18.5356 5.7433ZM6 4.00001C5.44772 4.00001 5 4.44773 5 5.00001V19C5 19.5523 5.44772 20 6 20C6.55228 20 7 19.5523 7 19V5.00001C7 4.44773 6.55228 4.00001 6 4.00001Z" fill="#636363"/>
</svg>
