<svg xmlns="http://www.w3.org/2000/svg" xmlns:xlink="http://www.w3.org/1999/xlink" width="24" height="24" viewBox="0 0 24 24">
  <defs>
    <path id="arrow-left-double-a" d="M12,11.125 L18.1707477,5.72559577 C18.378566,5.54375474 18.6944473,5.56481349 18.8762883,5.77263181 C18.9560409,5.86377756 19,5.98077254 19,6.10188411 L19,17.8981159 C19,18.1742583 18.7761424,18.3981159 18.5,18.3981159 C18.3788884,18.3981159 18.2618934,18.3541568 18.1707477,18.2744042 L12,12.875 L12,17.8981159 C12,18.1742583 11.7761424,18.3981159 11.5,18.3981159 C11.3788884,18.3981159 11.2618934,18.3541568 11.1707477,18.2744042 L4.43004383,12.3762883 C4.22222551,12.1944473 4.20116676,11.878566 4.38300778,11.6707477 C4.39762499,11.6540423 4.41333844,11.6383289 4.43004383,11.6237117 L11.1707477,5.72559577 C11.378566,5.54375474 11.6944473,5.56481349 11.8762883,5.77263181 C11.9560409,5.86377756 12,5.98077254 12,6.10188411 L12,11.125 Z"/>
  </defs>
  <g fill="none" fill-rule="evenodd">
    <rect width="24" height="24"/>
    <use fill="#1C2025" xlink:href="#arrow-left-double-a"/>
  </g>
</svg>
