<svg width="24" height="24" viewBox="0 0 24 24" fill="none" xmlns="http://www.w3.org/2000/svg">
<path fill-rule="evenodd" clip-rule="evenodd" d="M5.25769 19.828C4.88823 19.4175 4.92151 18.7852 5.33202 18.4157L12.3728 12.079L5.33202 5.74233C4.92151 5.37287 4.88823 4.74058 5.25769 4.33007C5.62715 3.91956 6.25944 3.88628 6.66995 4.25574L14.5366 11.3357C14.978 11.733 14.978 12.4251 14.5366 12.8223L6.66995 19.9023C6.25944 20.2718 5.62715 20.2385 5.25769 19.828ZM18 4.00002C17.4477 4.00002 17 4.44774 17 5.00002V19C17 19.5523 17.4477 20 18 20C18.5523 20 19 19.5523 19 19V5.00002C19 4.44774 18.5523 4.00002 18 4.00002Z" fill="#636363"/>
</svg>
