<svg width="24" height="24" viewBox="0 0 24 24" fill="none" xmlns="http://www.w3.org/2000/svg">
<path fill-rule="evenodd" clip-rule="evenodd" d="M5 13C5 12.2676 4.60629 11.6271 4.01895 11.2787C4.27918 6.43175 7.20621 4 12 4C16.7785 4 19.7185 6.44955 19.9808 11.2788C19.3936 11.6273 19 12.2677 19 13V15C19 15.7403 19.4022 16.3866 20 16.7324V18.2087C20 18.7185 19.6165 19.1467 19.1098 19.2027L11.8349 20.006C11.2859 20.0667 10.89 20.5608 10.9507 21.1098C11.0113 21.6587 11.5054 22.0546 12.0544 21.994L19.3293 21.1906C20.8495 21.0227 22 19.7381 22 18.2087V16.7324C22.5978 16.3866 23 15.7403 23 15V13C23 12.2525 22.5899 11.6008 21.9824 11.2575C21.6733 4.82806 17.3222 2 12 2C6.67683 2 2.3251 4.79822 2.01739 11.2576C1.41001 11.6009 1 12.2526 1 13V15C1 16.1046 1.89543 17 3 17C4.10457 17 5 16.1046 5 15V13ZM13 8C13 8.55228 12.5523 9 12 9C11.4477 9 11 8.55228 11 8C11 7.44772 11.4477 7 12 7C12.5523 7 13 7.44772 13 8ZM8 13C8.55228 13 9 12.5523 9 12C9 11.4477 8.55228 11 8 11C7.44772 11 7 11.4477 7 12C7 12.5523 7.44772 13 8 13ZM12 13C12.5523 13 13 12.5523 13 12C13 11.4477 12.5523 11 12 11C11.4477 11 11 11.4477 11 12C11 12.5523 11.4477 13 12 13ZM17 12C17 12.5523 16.5523 13 16 13C15.4477 13 15 12.5523 15 12C15 11.4477 15.4477 11 16 11C16.5523 11 17 11.4477 17 12ZM12 17C12.5523 17 13 16.5523 13 16C13 15.4477 12.5523 15 12 15C11.4477 15 11 15.4477 11 16C11 16.5523 11.4477 17 12 17ZM9 16C9 16.5523 8.55228 17 8 17C7.44772 17 7 16.5523 7 16C7 15.4477 7.44772 15 8 15C8.55228 15 9 15.4477 9 16ZM16 17C16.5523 17 17 16.5523 17 16C17 15.4477 16.5523 15 16 15C15.4477 15 15 15.4477 15 16C15 16.5523 15.4477 17 16 17ZM8 9C8.55228 9 9 8.55228 9 8C9 7.44772 8.55228 7 8 7C7.44772 7 7 7.44772 7 8C7 8.55228 7.44772 9 8 9ZM17 8C17 8.55228 16.5523 9 16 9C15.4477 9 15 8.55228 15 8C15 7.44772 15.4477 7 16 7C16.5523 7 17 7.44772 17 8Z" fill="#636363"/>
</svg>
