<svg width="24" height="24" viewBox="0 0 24 24" fill="none" xmlns="http://www.w3.org/2000/svg">
<path fill-rule="evenodd" clip-rule="evenodd" d="M11.5986 10.8L18.8414 6.45434C18.9191 6.40772 19.008 6.38309 19.0986 6.38309C19.3748 6.38309 19.5986 6.60694 19.5986 6.88309V17.1169C19.5986 17.2075 19.574 17.2964 19.5274 17.3741C19.3853 17.6109 19.0782 17.6877 18.8414 17.5456L11.5986 13.2V17.0657C11.5986 17.1644 11.5694 17.2609 11.5147 17.3431C11.3615 17.5728 11.051 17.6349 10.8213 17.4818L3.22267 12.416C3.16774 12.3794 3.12061 12.3323 3.084 12.2773C2.93082 12.0476 2.99291 11.7371 3.22267 11.584L10.8213 6.51823C10.9034 6.46347 10.9999 6.43425 11.0986 6.43425C11.3748 6.43425 11.5986 6.65811 11.5986 6.93425V10.8Z" fill="#636363"/>
</svg>
