<svg width="24" height="24" viewBox="0 0 24 24" fill="none" xmlns="http://www.w3.org/2000/svg">
<path fill-rule="evenodd" clip-rule="evenodd" d="M17.5986 14.4676L13.4859 12L17.5986 9.53237V14.4676ZM18.8414 6.45434L11.5986 10.8V6.93425C11.5986 6.65811 11.3748 6.43425 11.0986 6.43425C10.9999 6.43425 10.9034 6.46347 10.8213 6.51823L3.22267 11.584C2.99291 11.7371 2.93082 12.0476 3.084 12.2773C3.12061 12.3323 3.16774 12.3794 3.22267 12.416L10.8213 17.4818C11.051 17.6349 11.3615 17.5728 11.5147 17.3431C11.5694 17.2609 11.5986 17.1644 11.5986 17.0657V13.2L18.8414 17.5456C19.0782 17.6877 19.3853 17.6109 19.5274 17.3741C19.574 17.2964 19.5986 17.2075 19.5986 17.1169V6.88309C19.5986 6.60694 19.3748 6.38309 19.0986 6.38309C19.008 6.38309 18.9191 6.40772 18.8414 6.45434ZM6.20418 12L9.59863 14.263V9.73703L6.20418 12Z" fill="#636363"/>
</svg>
