<svg width="24" height="24" viewBox="0 0 24 24" fill="none" xmlns="http://www.w3.org/2000/svg">
<path fill-rule="evenodd" clip-rule="evenodd" d="M12 6C13.1046 6 14 5.10457 14 4C14 2.89543 13.1046 2 12 2C10.8955 2 10 2.89543 10 4C10 5.10457 10.8955 6 12 6ZM12 22C13.1046 22 14 21.1046 14 20H19.6126C19.7201 20 19.8269 19.9827 19.9288 19.9487C20.4528 19.774 20.7359 19.2077 20.5613 18.6838L19 14H17L18 18H12H6.00003L7.00003 14H5.00003L3.43877 18.6838C3.40478 18.7857 3.38745 18.8925 3.38745 19C3.38745 19.5523 3.83517 20 4.38745 20H10C10 21.1046 10.8955 22 12 22Z" fill="#5E6D7A"/>
<path fill-rule="evenodd" clip-rule="evenodd" d="M20.5613 18.6838L19 14V10C19 7.02642 16.8369 4.55806 13.9983 4.08268C13.9995 4.05526 14 4.02769 14 4C14 2.89543 13.1046 2 12 2C10.8955 2 10 2.89543 10 4C10 4.02769 10.0006 4.05526 10.0017 4.08268C7.16316 4.55806 5.00003 7.02642 5.00003 10V14L3.43877 18.6838C3.40478 18.7857 3.38745 18.8925 3.38745 19C3.38745 19.5523 3.83517 20 4.38745 20H10C10 21.1046 10.8955 22 12 22C13.1046 22 14 21.1046 14 20H19.6126C19.7201 20 19.8269 19.9827 19.9288 19.9487C20.4528 19.774 20.7359 19.2077 20.5613 18.6838ZM14.3704 15H9.62038V14.125L12.3704 10.4545H9.63175V9.18182H14.3817V10.0568L11.6317 13.7273H14.3704V15Z" fill="#5E6D7A"/>
<path d="M18.7733 6H22.2251V5.14347H20.1072L22.2272 2.23722V1.63636H18.7755V2.4929H20.8934L18.7733 5.39915V6Z" fill="#5E6D7A"/>
<path fill-rule="evenodd" clip-rule="evenodd" d="M19 14H17V10C17 7.79086 15.2091 6 13 6H11C8.79086 6 7 7.79086 7 10V14H5V10C5 6.68629 7.68629 4 11 4H13C16.3137 4 19 6.68629 19 10V14Z" fill="#5E6D7A"/>
</svg>
