<svg width="24" height="24" viewBox="0 0 24 24" fill="none" xmlns="http://www.w3.org/2000/svg">
<path fill-rule="evenodd" clip-rule="evenodd" d="M13.9984 4.08268C13.9995 4.05526 14 4.0277 14 4C14 2.89543 13.1046 2 12 2C10.8955 2 10 2.89543 10 4C10 4.02769 10.0006 4.05526 10.0017 4.08268C7.16318 4.55805 5.00002 7.02641 5.00002 10L5.00003 14L3.43877 18.6838C3.40478 18.7857 3.38745 18.8925 3.38745 19C3.38745 19.5523 3.83517 20 4.38745 20L10 20C10 21.1046 10.8955 22 12 22C13.1046 22 14 21.1046 14 20L19.6126 20C19.7201 20 19.8269 19.9827 19.9288 19.9487C20.4528 19.774 20.7359 19.2077 20.5613 18.6838L19 14L19 10C19 7.02643 16.8369 4.55808 13.9984 4.08268ZM17 14V10C17 7.79086 15.2092 6 13 6H11C8.79089 6 7.00002 7.79086 7.00002 10V14H17ZM6.44152 16L5.77485 18H18.2251L17.5585 16H6.44152Z" fill="#636363"/>
</svg>
