<svg width="24" height="24" viewBox="0 0 24 24" fill="none" xmlns="http://www.w3.org/2000/svg">
<path fill-rule="evenodd" clip-rule="evenodd" d="M11 8.06189V7.73244C10.4022 7.38663 10 6.74028 10 6C10 4.89543 10.8954 4 12 4C13.1046 4 14 4.89543 14 6C14 6.74028 13.5978 7.38663 13 7.73244V8.06189C16.9463 8.55399 20 11.9204 20 16V18H21C21.5523 18 22 18.4477 22 19C22 19.5523 21.5523 20 21 20H3C2.44772 20 2 19.5523 2 19C2 18.4477 2.44772 18 3 18H4V16C4 11.9204 7.05369 8.55399 11 8.06189Z" fill="#636363"/>
</svg>
