<svg width="24" height="24" viewBox="0 0 24 24" fill="none" xmlns="http://www.w3.org/2000/svg">
<path fill-rule="evenodd" clip-rule="evenodd" d="M7.54427 5.98166C7.52446 6.00361 7.50482 6.0257 7.48533 6.04794L3.73524 2.29786C3.33819 1.9008 2.69455 1.9007 2.29763 2.29763C1.9007 2.69455 1.9008 3.33819 2.29786 3.73524L6.40113 7.83852C6.14206 8.50914 6 9.23798 6 10V14L4.43874 18.6838C4.40475 18.7857 4.38743 18.8925 4.38743 19C4.38743 19.5523 4.83514 20 5.38743 20H11C11 21.1046 11.8954 22 13 22C14.1046 22 15 21.1046 15 20H18.5626L20.2648 21.7021C20.6618 22.0992 21.3055 22.0993 21.7024 21.7024C22.0993 21.3055 22.0992 20.6618 21.7021 20.2648L21.2268 19.7894C21.2503 19.7712 21.2729 19.7519 21.2944 19.7318L19.0564 17.4938L19.119 17.6816L17.4374 16H17.5626L15.5626 14H15.4374L8.90421 7.46682C8.92299 7.44389 8.94202 7.42118 8.96129 7.39868L7.54427 5.98166ZM18 13.5626V10C18 7.79086 16.2091 6 14 6H13H12C11.532 6 11.0828 6.08036 10.6654 6.22804L9.154 4.71661C9.72117 4.41045 10.3433 4.19295 11.0017 4.08268C11.0006 4.05526 11 4.02769 11 4C11 2.89543 11.8954 2 13 2C14.1046 2 15 2.89543 15 4C15 4.02769 14.9994 4.05526 14.9983 4.08268C17.8369 4.55806 20 7.02642 20 10V14L20.7813 16.3439L18 13.5626ZM8 10C8 9.82099 8.01176 9.64472 8.03455 9.47194L12.5626 14H8V10ZM7.44152 16H14.5626L16.5626 18H6.77485L7.44152 16Z" fill="#636363"/>
</svg>
