<svg width="24" height="24" viewBox="0 0 24 24" fill="none" xmlns="http://www.w3.org/2000/svg">
<path fill-rule="evenodd" clip-rule="evenodd" d="M11 3C11 2.44772 11.4477 2 12 2C12.5523 2 13 2.44772 13 3V4C13 4.02071 12.9994 4.04127 12.9981 4.06166C16.6184 4.51223 19.4878 7.38165 19.9383 11.0019C19.9587 11.0006 19.9793 11 20 11H21C21.5523 11 22 11.4477 22 12C22 12.5523 21.5523 13 21 13H20C19.9793 13 19.9587 12.9994 19.9383 12.9981C19.4878 16.6184 16.6184 19.4878 12.9981 19.9383C12.9994 19.9587 13 19.9793 13 20V21C13 21.5523 12.5523 22 12 22C11.4477 22 11 21.5523 11 21V20C11 19.9793 11.0006 19.9587 11.0019 19.9383C7.38165 19.4878 4.51223 16.6184 4.06166 12.9981C4.04127 12.9994 4.02071 13 4 13H3C2.44772 13 2 12.5523 2 12C2 11.4477 2.44772 11 3 11H4C4.02071 11 4.04127 11.0006 4.06166 11.0019C4.51223 7.38165 7.38164 4.51223 11.0019 4.06166C11.0006 4.04127 11 4.02071 11 4V3ZM15 12C15 13.6569 13.6569 15 12 15C10.3431 15 9 13.6569 9 12C9 10.3431 10.3431 9 12 9C13.6569 9 15 10.3431 15 12Z" fill="#636363"/>
</svg>
