<svg width="140" height="63" viewBox="0 0 140 63" fill="none" xmlns="http://www.w3.org/2000/svg">
<path fill-rule="evenodd" clip-rule="evenodd" d="M39.1824 31.5L39.2012 31.4773C39.8786 30.6594 45.3459 24.0574 45.3459 17.5946C45.3459 6.24324 35.8071 0 24.0671 0C9.39204 0.141892 2.93501 8.7973 2.93501 17.5946C2.93501 22.8446 5.28302 26.3919 8.65828 29.2297C6.75053 30.6486 0 36.1824 0 44.1284C0 53.777 8.07128 63 23.3333 63C38.8889 63 46.6667 53.777 46.6667 44.4122C46.6667 38.3108 43.4382 34.3378 39.1824 31.5ZM88.673 21.9767H73.836L70.4121 28.3902C69.9841 29.3878 69.1282 30.528 69.1282 30.528H68.9855C68.9855 30.528 68.2722 29.3878 67.7015 28.3902L64.4203 21.9767H49.5833L61.2817 40.2194L49.726 58.6047H64.2776L68.2722 51.051C68.7002 50.3384 69.2708 49.0557 69.2708 49.0557H69.4135C69.4135 49.0557 69.9841 50.3384 70.4121 51.051L74.4067 58.6047H88.9583L77.4026 40.2194L88.673 21.9767ZM29.1667 18.8575C29.1667 15.4546 26.8056 13.1861 22.9167 13.1861C19.1667 13.1861 17.5 15.3128 17.5 18.0068C17.5 21.9767 21.8056 24.1035 27.0833 26.3721C27.6389 25.3796 29.1667 22.5439 29.1667 18.8575ZM132.516 31.6425L132.534 31.6198C133.212 30.7982 138.679 24.1663 138.679 17.6742C138.679 6.2715 129.14 5.67117e-06 117.4 5.67117e-06C102.725 5.67117e-06 96.2683 8.69458 96.2683 17.5317C96.2683 22.8054 98.6163 26.3688 101.992 29.2195C100.084 30.6448 93.3333 36.2036 93.3333 44.043C93.3333 53.7353 101.405 63 116.667 63C132.222 63 140 53.7353 140 44.3281C140 38.4842 136.771 34.4932 132.516 31.6425ZM16.0417 42.632C16.0417 46.6539 19.2982 49.814 23.4042 49.814C27.9349 49.814 30.6251 47.6594 30.6251 43.4938C30.6251 40.3159 26.0528 38.2366 20.6796 35.793L20.6795 35.7929L20.6794 35.7929C20.224 35.5858 19.7628 35.376 19.2982 35.1628C17.8823 36.7428 16.0417 39.3283 16.0417 42.632ZM116.737 49.814C112.632 49.814 109.375 46.6539 109.375 42.632C109.375 39.3283 111.216 36.7428 112.632 35.1628C113.096 35.3761 113.557 35.5858 114.013 35.7929C119.386 38.2366 123.958 40.3159 123.958 43.4938C123.958 47.6594 121.268 49.814 116.737 49.814ZM122.5 18.8575C122.5 15.4546 120.139 13.1861 116.25 13.1861C112.5 13.1861 110.833 15.3128 110.833 18.0068C110.833 21.9767 115.139 24.1035 120.417 26.3721C120.972 25.3796 122.5 22.5439 122.5 18.8575Z" fill="#E52920"/>
</svg>
