<svg width="24" height="24" viewBox="0 0 24 24" fill="none" xmlns="http://www.w3.org/2000/svg">
<path fill-rule="evenodd" clip-rule="evenodd" d="M12 7.0001L18.5528 3.72371C19.0468 3.47672 19.6474 3.67695 19.8944 4.17093C19.9639 4.30978 20 4.46289 20 4.61814V9.0001C21.1046 9.0001 22 9.89554 22 11.0001C22 12.1047 21.1046 13.0001 20 13.0001V17.3821C20 17.9344 19.5523 18.3821 19 18.3821C18.8448 18.3821 18.6916 18.3459 18.5528 18.2765L12 15.0001H10.7857L13.2113 19.5279C13.4721 20.0147 13.2889 20.6208 12.8021 20.8816C12.6568 20.9594 12.4946 21.0001 12.3298 21.0001H8.88446C8.51581 21.0001 8.17706 20.7973 8.00298 20.4723L5.07143 15.0001H4C2.89543 15.0001 2 14.1047 2 13.0001V9.0001C2 7.89554 2.89543 7.0001 4 7.0001H12ZM12.4721 13.0001H9.71429H4V9.0001H12.4721L18 6.23617V11.0001V15.764L12.4721 13.0001ZM10.6597 19.0001H9.4832L7.34034 15.0001H8.5168L10.6597 19.0001Z" fill="#636363"/>
</svg>
