<svg width="24" height="24" viewBox="0 0 24 24" fill="none" xmlns="http://www.w3.org/2000/svg">
<path fill-rule="evenodd" clip-rule="evenodd" d="M7 2C6.44772 2 6 2.44772 6 3V4H4C2.89543 4 2 4.89543 2 6V20C2 21.1046 2.89543 22 4 22H20C21.1046 22 22 21.1046 22 20V6C22 4.89543 21.1046 4 20 4H18V3C18 2.44772 17.5523 2 17 2C16.4477 2 16 2.44772 16 3V4H8V3C8 2.44772 7.55228 2 7 2ZM4 6V20H20V6H4ZM6.29289 14.1071C5.90237 13.7166 5.90237 13.0834 6.29289 12.6929C6.68342 12.3024 7.31658 12.3024 7.70711 12.6929L10.2674 15.2532L16.2438 8.3457C16.6051 7.92804 17.2366 7.88241 17.6543 8.24377C18.072 8.60513 18.1176 9.23664 17.7562 9.6543L11.0765 17.3746C10.6966 17.8137 10.0238 17.838 9.6132 17.4274L6.29289 14.1071Z" fill="#636363"/>
</svg>
