<svg xmlns="http://www.w3.org/2000/svg" xmlns:xlink="http://www.w3.org/1999/xlink" width="24" height="24" viewBox="0 0 24 24">
  <defs>
    <path id="callibration-a" d="M18.8112177,14.3424788 L19.2751907,13.9391532 C19.4586299,13.779692 19.4780678,13.5017162 19.3186066,13.3182771 C19.1591453,13.1348379 18.8811696,13.1153999 18.6977304,13.2748612 L17.3243066,14.4687603 C17.1408674,14.6282215 17.1214294,14.9061973 17.2808907,15.0896364 L17.2841412,15.0933346 L17.2873871,15.0971097 L18.4293148,16.4107473 C18.5923639,16.5983138 18.8765941,16.6181891 19.0641607,16.45514 C19.2517272,16.2920909 19.2716026,16.0078607 19.1085534,15.8202941 L18.696517,15.3463005 C19.7383109,15.6479048 20.5,16.6089956 20.5,17.7479885 C20.5,18.4014581 20.248568,19.0120755 19.8120621,19.4705607 L20.167848,20.4959769 C20.9792562,19.8549934 21.5,18.862304 21.5,17.7479885 C21.5,16.0942432 20.3530487,14.7083827 18.8112177,14.3424788 Z M16.9205578,19.9325067 C15.8192505,19.6711464 15,18.6812463 15,17.5 C15,16.8465304 15.251432,16.235913 15.6879379,15.7774278 L15.332152,14.7520115 C14.5207438,15.3929951 14,16.3856844 14,17.5 C14,19.1262247 15.1090952,20.4934063 16.6121392,20.8863983 L16.153307,21.2076761 C15.9542044,21.3470892 15.9058166,21.6215103 16.0452297,21.8206128 C16.1846428,22.0197153 16.4590639,22.0681032 16.6581664,21.9286901 L18.1488629,20.8848932 C18.3479654,20.7454801 18.3963533,20.471059 18.2569402,20.2719564 L18.2540941,20.2679388 L18.2512605,20.263845 L17.252901,18.8380398 C17.1103511,18.6344575 16.8297555,18.5849809 16.6261732,18.7275308 C16.4225908,18.8700807 16.3731142,19.1506763 16.5156641,19.3542586 L16.9205578,19.9325067 Z M14,13.2592815 C14.5793166,12.7805007 15.2580302,12.4180272 16,12.2076503 L16,5 C16,4.44771525 16.4477153,4 17,4 L19,4 C19.5522847,4 20,4.44771525 20,5 L20,12.6008555 C21.780838,13.5126429 23,15.3670063 23,17.5 C23,20.5375661 20.5313853,23 17.5,23 C15.3637461,23 13.5119527,21.7790228 12.6011017,20 L11,20 C10.4477153,20 10,19.5522847 10,19 L10,11 C10,10.4477153 10.4477153,10 11,10 L13,10 C13.5522847,10 14,10.4477153 14,11 L14,13.2592815 Z M5,16 L7,16 C7.55228475,16 8,16.4477153 8,17 L8,19 C8,19.5522847 7.55228475,20 7,20 L5,20 C4.44771525,20 4,19.5522847 4,19 L4,17 C4,16.4477153 4.44771525,16 5,16 Z"/>
  </defs>
  <g fill="none" fill-rule="evenodd">
    <rect width="24" height="24"/>
    <use fill="#1C2025" xlink:href="#callibration-a"/>
  </g>
</svg>
