<svg width="24" height="24" viewBox="0 0 24 24" fill="none" xmlns="http://www.w3.org/2000/svg">
<path fill-rule="evenodd" clip-rule="evenodd" d="M23 15C23 12.2386 20.7614 10 18 10L6 10C3.23857 10 1 12.2386 1 15C1 17.7614 3.23857 20 6 20C8.76142 20 11 17.7614 11 15C11 13.8744 10.6281 12.8357 10.0004 12H13.9996C13.3719 12.8357 13 13.8744 13 15C13 17.7614 15.2386 20 18 20C20.7614 20 23 17.7614 23 15ZM18 12C16.3431 12 15 13.3431 15 15C15 16.6569 16.3431 18 18 18C19.6569 18 21 16.6569 21 15C21 13.3431 19.6569 12 18 12ZM6 12C4.34315 12 3 13.3431 3 15C3 16.6569 4.34315 18 6 18C7.65685 18 9 16.6569 9 15C9 13.3431 7.65685 12 6 12ZM20 8H18V2H20L20 8ZM15 8L17 8V2H15V8Z" fill="#636363"/>
</svg>
