<svg width="24" height="24" viewBox="0 0 24 24" fill="none" xmlns="http://www.w3.org/2000/svg">
<path fill-rule="evenodd" clip-rule="evenodd" d="M4 9V18C4 18.5523 4.44772 19 5 19H19C19.5523 19 20 18.5523 20 18V9C20 8.44772 19.5523 8 19 8H16.1716L14.1716 6H9.82843L7.82843 8H5C4.44772 8 4 8.44772 4 9ZM7 6L8.41421 4.58579C8.78929 4.21071 9.29799 4 9.82843 4H14.1716C14.702 4 15.2107 4.21071 15.5858 4.58579L17 6H19C20.6569 6 22 7.34315 22 9V18C22 19.6569 20.6569 21 19 21H5C3.34315 21 2 19.6569 2 18V9C2 7.34315 3.34315 6 5 6H7ZM5.2 14L8.2 11L11.2 14H9.17173C9.58284 15.1558 10.6864 15.9832 11.9832 15.9832C12.7094 15.9832 13.3901 15.7233 13.9213 15.2685L15.2969 16.722C14.4163 17.5065 13.2554 17.9832 11.9832 17.9832C9.57357 17.9832 7.56338 16.2729 7.10036 14H5.2ZM19 12L16 15L13 12H14.8342C14.4278 10.8355 13.3199 10 12.0168 10C11.3287 10 10.6813 10.2312 10.1562 10.6511C10.1301 10.6719 8.90719 9.089 8.90719 9.089C9.75956 8.40749 10.8406 8 12.0168 8C14.4323 8 16.4465 9.71873 16.903 12H19Z" fill="#636363"/>
</svg>
