<svg width="24" height="24" viewBox="0 0 24 24" fill="none" xmlns="http://www.w3.org/2000/svg">
<path fill-rule="evenodd" clip-rule="evenodd" d="M7 5L8.41421 3.58579C8.78929 3.21071 9.29799 3 9.82843 3H14.1716C14.702 3 15.2107 3.21071 15.5858 3.58579L17 5H19C20.6569 5 22 6.34315 22 8V17C22 18.6569 20.6569 20 19 20H5C3.34315 20 2 18.6569 2 17V8C2 6.34315 3.34315 5 5 5H7ZM4 8V17C4 17.5523 4.44772 18 5 18H19C19.5523 18 20 17.5523 20 17V8C20 7.44772 19.5523 7 19 7H16.1716L14.1716 5H14V7H12V5H9.82843L7.82843 7H5C4.44772 7 4 7.44772 4 8ZM16 11V14H8V11H16ZM6 9H18V16H6V9Z" fill="#636363"/>
</svg>
