<svg width="24" height="24" viewBox="0 0 24 24" fill="none" xmlns="http://www.w3.org/2000/svg">
<path fill-rule="evenodd" clip-rule="evenodd" d="M7 5L8.41421 3.58579C8.78929 3.21071 9.29799 3 9.82843 3H14.1716C14.702 3 15.2107 3.21071 15.5858 3.58579L17 5H19C20.6569 5 22 6.34315 22 8V17C22 18.6569 20.6569 20 19 20H5C3.34315 20 2 18.6569 2 17V8C2 6.34315 3.34315 5 5 5H7ZM5.2 13L8.2 10L11.2 13H9.17173C9.58284 14.1558 10.6864 14.9832 11.9832 14.9832C12.7094 14.9832 13.3901 14.7233 13.9213 14.2685L15.2969 15.722C14.4163 16.5065 13.2554 16.9832 11.9832 16.9832C9.57357 16.9832 7.56338 15.2729 7.10036 13H5.2ZM19 11L16 14L13 11H14.8342C14.4278 9.83548 13.3199 9 12.0168 9C11.3287 9 10.6813 9.23118 10.1562 9.65108C10.1301 9.67191 8.90719 8.089 8.90719 8.089C9.75956 7.40749 10.8406 7 12.0168 7C14.4323 7 16.4465 8.71873 16.903 11H19Z" fill="#636363"/>
</svg>
