<svg width="24" height="24" viewBox="0 0 24 24" fill="none" xmlns="http://www.w3.org/2000/svg">
<path fill-rule="evenodd" clip-rule="evenodd" d="M8.41421 3.58579L7 5H5C3.34315 5 2 6.34315 2 8V17C2 18.6569 3.34315 20 5 20H19C20.6569 20 22 18.6569 22 17V8C22 6.34315 20.6569 5 19 5H17L15.5858 3.58579C15.2107 3.21071 14.702 3 14.1716 3H9.82843C9.29799 3 8.78929 3.21071 8.41421 3.58579ZM4 17V8C4 7.44772 4.44772 7 5 7H7.82843L9.82843 5H14.1716L16.1716 7H19C19.5523 7 20 7.44772 20 8V17C20 17.5523 19.5523 18 19 18H5C4.44772 18 4 17.5523 4 17ZM12 14C13.1046 14 14 13.1046 14 12C14 10.8954 13.1046 10 12 10C10.8954 10 10 10.8954 10 12C10 13.1046 10.8954 14 12 14ZM8 12C8 14.2091 9.79086 16 12 16C14.2091 16 16 14.2091 16 12C16 9.79086 14.2091 8 12 8C9.79086 8 8 9.79086 8 12Z" fill="#636363"/>
</svg>
