<svg width="24" height="24" viewBox="0 0 24 24" fill="none" xmlns="http://www.w3.org/2000/svg">
<path fill-rule="evenodd" clip-rule="evenodd" d="M21 13H19V17.1492C19 17.7015 18.5523 18.1492 18 18.1492C17.6962 18.1492 17.4089 18.0111 17.2191 17.7739L13.4 13H8C7.44772 13 7 12.5523 7 12V3C7 2.44772 7.44772 2 8 2H21C21.5523 2 22 2.44772 22 3V12C22 12.5523 21.5523 13 21 13ZM8 15H12.4388L14.0388 17H10.6L6.78087 21.7739C6.5911 22.0111 6.30378 22.1492 6 22.1492C5.44772 22.1492 5 21.7015 5 21.1492V17H3C2.44772 17 2 16.5523 2 16V7C2 6.44772 2.44772 6 3 6H5V12C5 13.6569 6.34315 15 8 15Z" fill="#636363"/>
</svg>
