<svg width="24" height="24" viewBox="0 0 24 24" fill="none" xmlns="http://www.w3.org/2000/svg">
<path fill-rule="evenodd" clip-rule="evenodd" d="M2 12C2 17.5228 6.47715 22 12 22C17.5228 22 22 17.5228 22 12C22 6.47715 17.5228 2 12 2C6.47715 2 2 6.47715 2 12ZM20 12C20 16.4183 16.4183 20 12 20C7.58172 20 4 16.4183 4 12C4 7.58172 7.58172 4 12 4C16.4183 4 20 7.58172 20 12ZM15.6667 15.2255V16.8407C15.6667 17.393 15.219 17.8407 14.6667 17.8407C14.4015 17.8407 14.1471 17.7353 13.9596 17.5478L11.6373 15.2255H8C7.44772 15.2255 7 14.7778 7 14.2255V9C7 8.44772 7.44772 8 8 8H16C16.5523 8 17 8.44772 17 9V14.2255C17 14.7778 16.5523 15.2255 16 15.2255H15.6667ZM9 13.2255V10H15V13.2255H13.6667V14.4265L12.4657 13.2255H9Z" fill="#636363"/>
</svg>
