<svg width="24" height="24" viewBox="0 0 24 24" fill="none" xmlns="http://www.w3.org/2000/svg">
<path fill-rule="evenodd" clip-rule="evenodd" d="M17 22.0319C17.5523 22.0319 18 21.5841 18 21.0319V18H21C21.5523 18 22 17.5523 22 17V3C22 2.44772 21.5523 2 21 2H3C2.44772 2 2 2.44772 2 3V17C2 17.5523 2.44772 18 3 18H13.2045L16.2284 21.668C16.4184 21.8984 16.7014 22.0319 17 22.0319ZM4 4H20V16H16V18.2468L14.1477 16H4V4ZM17.3612 9.16914C17.7584 8.72655 18 8.14149 18 7.5C18 6.11929 16.8807 5 15.5 5C14.863 5 14.2816 5.23824 13.8402 5.63048C14.5459 6.17938 15 7.03666 15 8C15 8.59303 14.8279 9.14586 14.531 9.61131C15.5241 10.2501 16 11.3857 16 13H18.25C18.25 13 19 13 19 12C19 10.4749 18.5669 9.53127 17.3612 9.16914ZM8 13H5.75C5.75 13 5 13 5 12C5 10.4749 5.43314 9.53127 6.63879 9.16914C6.24161 8.72655 6 8.14149 6 7.5C6 6.11929 7.11929 5 8.5 5C9.137 5 9.71836 5.23824 10.1598 5.63048C9.45406 6.17938 9 7.03666 9 8C9 8.59303 9.17207 9.14586 9.46901 9.61131C8.47588 10.2501 8 11.3857 8 13ZM12 10C13.1046 10 14 9.10457 14 8C14 6.89543 13.1046 6 12 6C10.8954 6 10 6.89543 10 8C10 9.10457 10.8954 10 12 10ZM12 10C9.74487 10 9 11 9 13C9 13.6667 9.25 14 9.75 14H14.25C14.75 14 15 13.6667 15 13C15 11 14.2551 10 12 10Z" fill="#636363"/>
</svg>
