<svg width="24" height="24" viewBox="0 0 24 24" fill="none" xmlns="http://www.w3.org/2000/svg">
<path fill-rule="evenodd" clip-rule="evenodd" d="M19 17.1492V13H21C21.5523 13 22 12.5523 22 12V3C22 2.44772 21.5523 2 21 2H8C7.44772 2 7 2.44772 7 3V12C7 12.5523 7.44772 13 8 13H13.4L17.2191 17.7739C17.4089 18.0111 17.6962 18.1492 18 18.1492C18.5523 18.1492 19 17.7015 19 17.1492ZM5 6H3C2.44772 6 2 6.44772 2 7V16C2 16.5523 2.44772 17 3 17H5V21.1492C5 21.7015 5.44772 22.1492 6 22.1492C6.30378 22.1492 6.5911 22.0111 6.78087 21.7739L10.6 17H14.0388L12.4388 15H9.63875L7 18.2984V15H4V8H5V6ZM20 4V11H17V14.2984L14.3612 11H9V4H20Z" fill="#636363"/>
</svg>
