<svg width="24" height="24" viewBox="0 0 24 24" fill="none" xmlns="http://www.w3.org/2000/svg">
<path fill-rule="evenodd" clip-rule="evenodd" d="M17 22.0319C17.5523 22.0319 18 21.5841 18 21.0319V18H21C21.5523 18 22 17.5523 22 17V3C22 2.44772 21.5523 2 21 2H3C2.44772 2 2 2.44772 2 3V17C2 17.5523 2.44772 18 3 18H13.2045L16.2284 21.668C16.4184 21.8984 16.7014 22.0319 17 22.0319ZM9.5 13.5L14.0178 9.38386V12.5977C14.0178 13.1451 14.4615 13.5888 15.0089 13.5888C15.5563 13.5888 16 13.1451 16 12.5977V6.99111C16 6.44374 15.5563 6 15.0089 6H9.40232C8.85494 6 8.41121 6.44374 8.41121 6.99111C8.41121 7.53849 8.85494 7.98222 9.40232 7.98222H12.6161L8.09836 12.0984C7.72884 12.4679 7.74306 13.0812 8.13012 13.4682C8.51717 13.8553 9.13049 13.8695 9.5 13.5Z" fill="#636363"/>
</svg>
