<svg width="24" height="24" viewBox="0 0 24 24" fill="none" xmlns="http://www.w3.org/2000/svg">
<path fill-rule="evenodd" clip-rule="evenodd" d="M12 22C6.47715 22 2 17.5228 2 12C2 6.47715 6.47715 2 12 2C17.5228 2 22 6.47715 22 12C22 17.5228 17.5228 22 12 22ZM12 20C16.4183 20 20 16.4183 20 12C20 7.58172 16.4183 4 12 4C7.58172 4 4 7.58172 4 12C4 16.4183 7.58172 20 12 20ZM17.6543 8.24377C17.2366 7.88241 16.6051 7.92804 16.2438 8.3457L10.2674 15.2532L7.70711 12.6929C7.31658 12.3024 6.68342 12.3024 6.29289 12.6929C5.90237 13.0834 5.90237 13.7166 6.29289 14.1071L9.6132 17.4274C10.0238 17.838 10.6966 17.8137 11.0765 17.3746L17.7562 9.6543C18.1176 9.23664 18.072 8.60513 17.6543 8.24377Z" fill="#636363"/>
</svg>
