<svg width="24" height="24" viewBox="0 0 24 24" fill="none" xmlns="http://www.w3.org/2000/svg">
<path fill-rule="evenodd" clip-rule="evenodd" d="M6 4C4.89543 4 4 4.89543 4 6V18C4 19.1046 4.89543 20 6 20H18C19.1046 20 20 19.1046 20 18V6C20 4.89543 19.1046 4 18 4H6ZM17.6417 9.25527V9.38642C17.6417 9.4114 17.6354 9.43638 17.623 9.46136C17.6105 9.48634 17.598 9.50507 17.5855 9.51756C17.5605 9.54254 17.5418 9.5644 17.5293 9.58314C17.5168 9.60187 17.498 9.62373 17.4731 9.64871C17.2108 9.91101 16.9485 10.1702 16.6862 10.4262C16.4239 10.6823 16.1616 10.9415 15.8993 11.2037C15.637 11.4536 15.3778 11.7065 15.1218 11.9625L14.3443 12.74C14.082 12.9899 13.8228 13.2459 13.5667 13.5082C13.3107 13.7705 13.0515 14.0265 12.7892 14.2763C12.5394 14.5386 12.2865 14.7978 12.0304 15.0539L11.2529 15.8314C11.203 15.8813 11.153 15.9188 11.103 15.9438C11.0531 15.9688 11.0031 15.9813 10.9532 15.9813C10.9032 15.9813 10.8564 15.9688 10.8126 15.9438C10.7689 15.9188 10.7221 15.8813 10.6721 15.8314C10.5347 15.6815 10.3942 15.5316 10.2506 15.3817C10.1069 15.2318 9.96019 15.082 9.8103 14.9321L9.36066 14.4824C9.21077 14.3326 9.06714 14.1827 8.92974 14.0328L8.48009 13.5831C8.33021 13.4333 8.18657 13.2834 8.04918 13.1335C7.8993 12.9836 7.75254 12.8306 7.6089 12.6745C7.46526 12.5183 7.3185 12.3653 7.16862 12.2155C7.14364 12.1905 7.1249 12.1686 7.11241 12.1499C7.09992 12.1311 7.08119 12.1155 7.05621 12.103C7.04372 12.0906 7.03123 12.0749 7.01874 12.0562C7.00625 12.0375 7 12.0156 7 11.9906V11.822C7.01249 11.797 7.0281 11.7752 7.04684 11.7564C7.06557 11.7377 7.08119 11.7158 7.09368 11.6909C7.11866 11.6659 7.14052 11.6409 7.15925 11.6159C7.17799 11.5909 7.1936 11.566 7.20609 11.541C7.28103 11.4785 7.35285 11.4161 7.42155 11.3536C7.49024 11.2912 7.55582 11.235 7.61827 11.185C7.68072 11.1226 7.74629 11.0632 7.81499 11.007C7.88369 10.9508 7.94926 10.8977 8.01171 10.8478C8.06167 10.7978 8.11163 10.7635 8.16159 10.7447C8.21155 10.726 8.26151 10.7166 8.31148 10.7166C8.34895 10.7166 8.39266 10.7322 8.44262 10.7635C8.49258 10.7947 8.54254 10.8353 8.59251 10.8852C8.76737 11.0601 8.94223 11.2381 9.1171 11.4192C9.29196 11.6003 9.46682 11.7783 9.64169 11.9532L10.1475 12.459C10.3224 12.6339 10.4973 12.8025 10.6721 12.9649C10.7346 13.0148 10.7877 13.0554 10.8314 13.0867C10.8751 13.1179 10.9219 13.1335 10.9719 13.1335C11.0094 13.1335 11.0531 13.1179 11.103 13.0867C11.153 13.0554 11.203 13.0148 11.2529 12.9649L11.8525 12.3653C12.0523 12.1655 12.2584 11.9657 12.4707 11.7658L13.0703 11.1663C13.2701 10.9664 13.4762 10.7666 13.6885 10.5667C13.8884 10.3669 14.0882 10.1639 14.2881 9.95785C14.4879 9.75176 14.6877 9.54879 14.8876 9.34895C15.0874 9.1491 15.2904 8.94926 15.4965 8.74941C15.7026 8.54957 15.9055 8.34973 16.1054 8.14988C16.1553 8.09992 16.2053 8.06245 16.2553 8.03747C16.3052 8.01249 16.3489 8 16.3864 8C16.4239 8 16.4676 8.01249 16.5176 8.03747C16.5675 8.06245 16.6175 8.09992 16.6674 8.14988C16.7424 8.23732 16.8111 8.31538 16.8735 8.38408C16.936 8.45277 17.0047 8.52459 17.0796 8.59953L17.4731 8.99297C17.498 9.01795 17.5168 9.03981 17.5293 9.05855C17.5418 9.07728 17.5605 9.09914 17.5855 9.12412C17.598 9.1491 17.6105 9.17096 17.623 9.1897C17.6354 9.20843 17.6417 9.23029 17.6417 9.25527Z" fill="#5E6D7A"/>
</svg>
