<svg width="24" height="24" viewBox="0 0 24 24" fill="none" xmlns="http://www.w3.org/2000/svg">
<path fill-rule="evenodd" clip-rule="evenodd" d="M20.6609 4.24955C20.2464 3.88454 19.6145 3.92463 19.2495 4.3391L12.274 12.2598L9.70711 9.69291C9.31658 9.30238 8.68342 9.30238 8.29289 9.69291C7.90237 10.0834 7.90237 10.7166 8.29289 11.1071L11.6132 14.4274C12.0213 14.8356 12.6893 14.8144 13.0708 14.3812L20.7505 5.66092C21.1155 5.24645 21.0754 4.61456 20.6609 4.24955ZM4 18C4 19.1046 4.89543 20 6 20H18C19.1046 20 20 19.1046 20 18V12C20 11.4477 19.5523 11 19 11C18.4477 11 18 11.4477 18 12V18H6V6.00001H14C14.5523 6.00001 15 5.5523 15 5.00001C15 4.44773 14.5523 4.00001 14 4.00001H6C4.89543 4.00001 4 4.89544 4 6.00001V18Z" fill="#636363"/>
</svg>
