<svg width="24" height="24" viewBox="0 0 24 24" fill="none" xmlns="http://www.w3.org/2000/svg">
<path fill-rule="evenodd" clip-rule="evenodd" d="M13.4142 12L19.0711 6.34315C19.4616 5.95263 19.4616 5.31946 19.0711 4.92894C18.6805 4.53842 18.0474 4.53842 17.6568 4.92894L12 10.5858L6.34314 4.92894C5.95261 4.53842 5.31945 4.53842 4.92893 4.92894C4.5384 5.31946 4.5384 5.95263 4.92893 6.34315L10.5858 12L4.92893 17.6569C4.5384 18.0474 4.5384 18.6806 4.92893 19.0711C5.31945 19.4616 5.95261 19.4616 6.34314 19.0711L12 13.4142L17.6568 19.0711C18.0474 19.4616 18.6805 19.4616 19.0711 19.0711C19.4616 18.6806 19.4616 18.0474 19.0711 17.6569L13.4142 12Z" fill="#636363"/>
</svg>
