<svg width="24" height="24" viewBox="0 0 24 24" fill="none" xmlns="http://www.w3.org/2000/svg">
<path fill-rule="evenodd" clip-rule="evenodd" d="M23 14C23 10.6863 20.3137 8 17 8C16.5558 8 16.1228 8.04828 15.7061 8.13987C14.9232 5.73671 12.6644 4 10 4C7.1232 4 4.71928 6.02462 4.13538 8.7267C2.26758 9.7435 1 11.7237 1 14C1 17.3137 3.68629 20 7 20H17C20.3137 20 23 17.3137 23 14ZM14.3657 10.4822L16.1354 10.0932C16.4164 10.0315 16.7055 10 17 10C19.2091 10 21 11.7909 21 14C21 16.2091 19.2091 18 17 18H7C4.79086 18 3 16.2091 3 14C3 12.5176 3.81196 11.1799 5.09163 10.4833L5.89666 10.045L6.09026 9.14914C6.48435 7.32543 8.10764 6 10 6C11.7447 6 13.2728 7.12748 13.8044 8.75938L14.3657 10.4822ZM6 12H8V16H6V12ZM11 9H9V16H11V9ZM12 12H14V16H12V12ZM17 14H15V16H17V14Z" fill="#636363"/>
</svg>
