<svg width="24" height="24" viewBox="0 0 24 24" fill="none" xmlns="http://www.w3.org/2000/svg">
<path fill-rule="evenodd" clip-rule="evenodd" d="M5.21429 5.80852C6.595 5.80852 7.71429 4.73209 7.71429 3.40426C7.71429 2.07642 6.595 1 5.21429 1C3.83357 1 2.71429 2.07642 2.71429 3.40426C2.71429 4.73209 3.83357 5.80852 5.21429 5.80852ZM15.5714 8.21307V6.49575H3.78571C3.31211 6.49575 2.85791 6.67668 2.52302 6.99874C2.18814 7.3208 2 7.75761 2 8.21307V22.9821H3.78571L4.14286 16.1128H5.57143L5.92857 22.9821H7.71429V8.55654L15.5714 8.21307ZM9.14282 3.06108H21.2857C21.4751 3.06108 21.6568 3.13345 21.7908 3.26228C21.9247 3.3911 22 3.56583 22 3.74801V16.1128C22 16.295 21.9247 16.4697 21.7908 16.5985C21.6568 16.7273 21.4751 16.7997 21.2857 16.7997H17.5L20.4814 21.962C20.5303 22.041 20.5622 22.1287 20.5751 22.2197C20.5882 22.3108 20.582 22.4035 20.5571 22.4923C20.5321 22.581 20.4889 22.6641 20.43 22.7365C20.3711 22.8089 20.2977 22.8692 20.2141 22.9138C20.1305 22.9584 20.0384 22.9864 19.9434 22.9962C19.8483 23.006 19.7522 22.9973 19.6607 22.9707C19.5692 22.944 19.4841 22.9 19.4106 22.8412C19.3372 22.7824 19.2767 22.71 19.2328 22.6283L15.8657 16.7997H9.14282V15.4258H20.5714V4.43494H9.14282V3.06108Z" fill="#5E6D7A"/>
</svg>
