<svg xmlns="http://www.w3.org/2000/svg" xmlns:xlink="http://www.w3.org/1999/xlink" width="24" height="24" viewBox="0 0 24 24">
  <defs>
    <path id="coffee-cup-solid-a" d="M17.7453107,17 C16.4803646,18.8134841 14.3787451,20 12,20 L17,20 C17.5522847,20 18,20.4477153 18,21 C18,21.5522847 17.5522847,22 17,22 L5,22 C4.44771525,22 4,21.5522847 4,21 C4,20.4477153 4.44771525,20 5,20 L10,20 C6.13400675,20 3,16.8659932 3,13 L3,11 C3,10.4477153 3.44771525,10 4,10 L18,10 C18.5522847,10 19,10.4477153 19,11 L20,11 C21.6568542,11 23,12.3431458 23,14 C23,15.6568542 21.6568542,17 20,17 L17.7453107,17 Z M7,4 C7.55228475,4 8,4.44771525 8,5 L8,7 C8,7.55228475 7.55228475,8 7,8 C6.44771525,8 6,7.55228475 6,7 L6,5 C6,4.44771525 6.44771525,4 7,4 Z M15,4 C15.5522847,4 16,4.44771525 16,5 L16,7 C16,7.55228475 15.5522847,8 15,8 C14.4477153,8 14,7.55228475 14,7 L14,5 C14,4.44771525 14.4477153,4 15,4 Z M11,2 C11.5522847,2 12,2.44771525 12,3 L12,7 C12,7.55228475 11.5522847,8 11,8 C10.4477153,8 10,7.55228475 10,7 L10,3 C10,2.44771525 10.4477153,2 11,2 Z M19,13 L19,15 L20,15 C20.5522847,15 21,14.5522847 21,14 C21,13.4477153 20.5522847,13 20,13 L19,13 Z"/>
  </defs>
  <g fill="none" fill-rule="evenodd">
    <rect width="24" height="24"/>
    <use fill="#1C2025" fill-rule="nonzero" xlink:href="#coffee-cup-solid-a"/>
  </g>
</svg>
