<svg width="24" height="24" viewBox="0 0 24 24" fill="none" xmlns="http://www.w3.org/2000/svg">
<path fill-rule="evenodd" clip-rule="evenodd" d="M4 5C4 4.44772 4.44772 4 5 4H7C7.55228 4 8 4.44772 8 5V19C8 19.5523 7.55228 20 7 20H5C4.44772 20 4 19.5523 4 19V5ZM10 5C10 4.44772 10.4477 4 11 4H13C13.5523 4 14 4.44772 14 5V19C14 19.5523 13.5523 20 13 20H11C10.4477 20 10 19.5523 10 19V5ZM17 4C16.4477 4 16 4.44772 16 5V19C16 19.5523 16.4477 20 17 20H19C19.5523 20 20 19.5523 20 19V5C20 4.44772 19.5523 4 19 4H17Z" fill="#636363"/>
</svg>
