<svg width="24" height="24" viewBox="0 0 24 24" fill="none" xmlns="http://www.w3.org/2000/svg">
<path fill-rule="evenodd" clip-rule="evenodd" d="M4 2H6C7.10457 2 8 2.89543 8 4V20C8 21.1046 7.10457 22 6 22H4C2.89543 22 2 21.1046 2 20V4C2 2.89543 2.89543 2 4 2ZM4 4V20H6V4H4ZM11 2C9.89543 2 9 2.89543 9 4V20C9 21.1046 9.89543 22 11 22H13C14.1046 22 15 21.1046 15 20V4C15 2.89543 14.1046 2 13 2H11ZM18 2H20C21.1046 2 22 2.89543 22 4V20C22 21.1046 21.1046 22 20 22H18C16.8954 22 16 21.1046 16 20V4C16 2.89543 16.8954 2 18 2ZM18 20V4H20V20H18Z" fill="#636363"/>
</svg>
