<svg width="24" height="24" viewBox="0 0 24 24" fill="none" xmlns="http://www.w3.org/2000/svg">
<path fill-rule="evenodd" clip-rule="evenodd"
      d="M4 4H20V20H4V4ZM2 4C2 2.89543 2.89543 2 4 2H20C21.1046 2 22 2.89543 22 4V20C22 21.1046 21.1046 22 20 22H4C2.89543 22 2 21.1046 2 20V4ZM8.421 15.507C7.635 15.507 7.035 15.228 6.621 14.67C6.207 14.112 6 13.305 6 12.249C6 11.199 6.207 10.395 6.621 9.837C7.035 9.279 7.635 9 8.421 9C9.201 9 9.798 9.279 10.212 9.837C10.632 10.395 10.842 11.199 10.842 12.249C10.842 13.305 10.635 14.112 10.221 14.67C9.807 15.228 9.207 15.507 8.421 15.507ZM8.421 14.256C8.709 14.256 8.916 14.1 9.042 13.788C9.168 13.476 9.231 12.963 9.231 12.249C9.231 11.541 9.168 11.031 9.042 10.719C8.916 10.407 8.709 10.251 8.421 10.251C8.133 10.251 7.926 10.407 7.8 10.719C7.674 11.025 7.611 11.535 7.611 12.249C7.611 12.963 7.674 13.476 7.8 13.788C7.926 14.1 8.133 14.256 8.421 14.256ZM12.3415 12.654C12.0895 12.654 11.8795 12.57 11.7115 12.402C11.5495 12.234 11.4685 12.027 11.4685 11.781C11.4685 11.535 11.5495 11.328 11.7115 11.16C11.8795 10.992 12.0895 10.908 12.3415 10.908C12.5875 10.908 12.7915 10.992 12.9535 11.16C13.1215 11.328 13.2055 11.535 13.2055 11.781C13.2055 12.027 13.1215 12.234 12.9535 12.402C12.7915 12.57 12.5875 12.654 12.3415 12.654ZM12.3415 15.48C12.0895 15.48 11.8795 15.396 11.7115 15.228C11.5495 15.06 11.4685 14.853 11.4685 14.607C11.4685 14.361 11.5495 14.154 11.7115 13.986C11.8795 13.818 12.0895 13.734 12.3415 13.734C12.5875 13.734 12.7915 13.818 12.9535 13.986C13.1215 14.154 13.2055 14.361 13.2055 14.607C13.2055 14.853 13.1215 15.06 12.9535 15.228C12.7915 15.396 12.5875 15.48 12.3415 15.48ZM14.4696 14.67C14.8836 15.228 15.4836 15.507 16.2696 15.507C17.0556 15.507 17.6556 15.228 18.0696 14.67C18.4836 14.112 18.6906 13.305 18.6906 12.249C18.6906 11.199 18.4806 10.395 18.0606 9.837C17.6466 9.279 17.0496 9 16.2696 9C15.4836 9 14.8836 9.279 14.4696 9.837C14.0556 10.395 13.8486 11.199 13.8486 12.249C13.8486 13.305 14.0556 14.112 14.4696 14.67ZM16.8906 13.788C16.7646 14.1 16.5576 14.256 16.2696 14.256C15.9816 14.256 15.7746 14.1 15.6486 13.788C15.5226 13.476 15.4596 12.963 15.4596 12.249C15.4596 11.535 15.5226 11.025 15.6486 10.719C15.7746 10.407 15.9816 10.251 16.2696 10.251C16.5576 10.251 16.7646 10.407 16.8906 10.719C17.0166 11.031 17.0796 11.541 17.0796 12.249C17.0796 12.963 17.0166 13.476 16.8906 13.788Z"
      fill="#636363"/>
</svg>
