<svg width="24" height="24" viewBox="0 0 24 24" fill="none" xmlns="http://www.w3.org/2000/svg">
<path fill-rule="evenodd" clip-rule="evenodd" d="M11 2C11 1.44772 11.4477 1 12 1C12.5523 1 13 1.44772 13 2V3.05493C17.1716 3.51608 20.4839 6.82838 20.9451 11H22C22.5523 11 23 11.4477 23 12C23 12.5523 22.5523 13 22 13H20.9451C20.4839 17.1716 17.1716 20.4839 13 20.9451V22C13 22.5523 12.5523 23 12 23C11.4477 23 11 22.5523 11 22V20.9451C6.82838 20.4839 3.51608 17.1716 3.05493 13H2C1.44772 13 1 12.5523 1 12C1 11.4477 1.44772 11 2 11H3.05493C3.51608 6.82838 6.82838 3.51608 11 3.05493V2ZM5.07089 13H6C6.55228 13 7 12.5523 7 12C7 11.4477 6.55228 11 6 11H5.07089C5.5094 7.93431 7.93431 5.5094 11 5.07089V6C11 6.55228 11.4477 7 12 7C12.5523 7 13 6.55228 13 6V5.07089C16.0657 5.5094 18.4906 7.93431 18.9291 11H18C17.4477 11 17 11.4477 17 12C17 12.5523 17.4477 13 18 13H18.9291C18.4906 16.0657 16.0657 18.4906 13 18.9291V18C13 17.4477 12.5523 17 12 17C11.4477 17 11 17.4477 11 18V18.9291C7.93431 18.4906 5.5094 16.0657 5.07089 13ZM12 12C13.1046 12 14 11.1046 14 10C14 8.89543 13.1046 8 12 8C10.8954 8 10 8.89543 10 10C10 11.1046 10.8954 12 12 12ZM12 12C13.6569 12 15 13.3431 15 15C15 15.5523 14.5523 16 14 16H10C9.44772 16 9 15.5523 9 15C9 13.3431 10.3431 12 12 12Z" fill="#636363"/>
</svg>
