<svg width="24" height="24" viewBox="0 0 24 24" fill="none" xmlns="http://www.w3.org/2000/svg">
<path fill-rule="evenodd" clip-rule="evenodd" d="M15 9C13.8955 9 13 8.10457 13 7V4H6.00004V20H18V9L15 9ZM18 7V6.82842L15.1716 4H15V7H18ZM15.5858 2L15 2H13L5 2C4.44772 2 4 2.44772 4 3V21C4 21.5523 4.44772 22 5 22H19C19.5523 22 20 21.5523 20 21V6.41422C20 6.149 19.8946 5.89465 19.7071 5.70711L16.2929 2.2929C16.1054 2.10536 15.851 2 15.5858 2ZM9.78581 12.0254C9.5034 11.7414 9.16002 11.5982 8.76129 11.5982C8.36256 11.5982 8.01919 11.7414 7.73677 12.0254C7.45449 12.3093 7.31217 12.6532 7.31217 13.0517V16.6509C7.31217 17.0495 7.45455 17.3928 7.73697 17.6752C8.01938 17.9576 8.36268 18.1 8.76129 18.1C9.1599 18.1 9.5032 17.9576 9.78562 17.6752C10.068 17.3928 10.2104 17.0495 10.2104 16.6509V16.1982L10.1104 16.0982H9.21393L9.11393 16.1982V16.6509C9.11393 16.7502 9.08063 16.8307 9.01198 16.8982C8.94291 16.9661 8.8612 16.9991 8.76129 16.9991C8.66161 16.9991 8.58091 16.9663 8.5134 16.8988C8.44589 16.8313 8.41305 16.7505 8.41305 16.6509V13.0517C8.41305 12.9518 8.44607 12.8701 8.51399 12.8011C8.5815 12.7324 8.66196 12.6991 8.76129 12.6991C8.86085 12.6991 8.94232 12.7326 9.01138 12.8017C9.08045 12.8707 9.11393 12.9522 9.11393 13.0517V13.5L9.21393 13.6H10.1104L10.2104 13.5V13.0517C10.2104 12.6532 10.0681 12.3093 9.78581 12.0254ZM10.529 16.1982L10.629 16.0982H11.5298L11.6298 16.1982V16.6509C11.6298 16.7502 11.6631 16.8307 11.7318 16.8982C11.8009 16.9661 11.8826 16.9991 11.9825 16.9991C12.0822 16.9991 12.1629 16.9663 12.2304 16.8988C12.2979 16.8313 12.3307 16.7505 12.3307 16.6509V15.75C12.3307 15.6503 12.2979 15.5696 12.2304 15.5021C12.1629 15.4346 12.0822 15.4017 11.9818 15.4017C11.5494 15.3986 11.1858 15.2358 10.8969 14.9154C10.6522 14.6394 10.529 14.3155 10.529 13.9482V13.0517C10.529 12.6531 10.6721 12.3091 10.956 12.0252C11.2398 11.7414 11.5838 11.5982 11.9825 11.5982C12.3812 11.5982 12.7246 11.7414 13.007 12.0254C13.2893 12.3093 13.4316 12.6532 13.4316 13.0517V13.5L13.3316 13.6H12.4307L12.3307 13.5V13.0517C12.3307 12.9518 12.2977 12.8701 12.2298 12.8011C12.1623 12.7324 12.0818 12.6991 11.9825 12.6991C11.8829 12.6991 11.8015 12.7326 11.7324 12.8017C11.6633 12.8707 11.6298 12.9522 11.6298 13.0517V13.9482C11.6298 14.0478 11.6633 14.1293 11.7324 14.1983C11.8015 14.2674 11.8829 14.3009 11.9825 14.3009C12.4122 14.3009 12.7746 14.4623 13.0637 14.7828C13.3084 15.0589 13.4316 15.3827 13.4316 15.75V16.6509C13.4316 17.0495 13.2892 17.3928 13.0068 17.6752C12.7244 17.9576 12.3811 18.1 11.9825 18.1C11.5839 18.1 11.24 17.9577 10.9562 17.6754C10.6722 17.393 10.529 17.0496 10.529 16.6509V16.1982ZM15.8508 11.707L15.9508 11.5982H16.856L16.9545 11.7158L15.8295 18.0263L15.731 18.1088H14.8258L14.7273 18.0263L13.6023 11.7158L13.7008 11.5982H14.606L14.706 11.6982L15.2748 14.8335L15.8508 11.707Z" fill="#636363"/>
</svg>
