<svg width="24" height="24" viewBox="0 0 24 24" fill="none" xmlns="http://www.w3.org/2000/svg">
<path fill-rule="evenodd" clip-rule="evenodd" d="M2 11.9999C2 6.81459 5.94668 2.55104 11 2.04932V4.06183C7.05369 4.55393 4 7.92032 4 11.9999C4 16.4182 7.58172 19.9999 12 19.9999C14.557 19.9999 16.8339 18.8003 18.2984 16.9331L20.0445 17.9412C18.223 20.4035 15.2979 21.9999 12 21.9999C6.47715 21.9999 2 17.5228 2 11.9999ZM21.0675 16.2224C21.6658 14.9396 22 13.5088 22 11.9999C22 6.81459 18.0533 2.55104 13 2.04932V4.06183C16.9463 4.55393 20 7.92032 20 11.9999C20 13.1445 19.7597 14.2328 19.3267 15.2174L21.0675 16.2224Z" fill="#636363"/>
</svg>
