<svg width="24" height="24" viewBox="0 0 24 24" fill="none" xmlns="http://www.w3.org/2000/svg">
<path fill-rule="evenodd" clip-rule="evenodd" d="M9.5 6C10.3284 6 11 5.32843 11 4.5C11 3.67157 10.3284 3 9.5 3C8.67157 3 8 3.67157 8 4.5C8 5.32843 8.67157 6 9.5 6ZM11 9.5C11 10.3284 10.3284 11 9.5 11C8.67157 11 8 10.3284 8 9.5C8 8.67157 8.67157 8 9.5 8C10.3284 8 11 8.67157 11 9.5ZM11 14.5C11 15.3284 10.3284 16 9.5 16C8.67157 16 8 15.3284 8 14.5C8 13.6716 8.67157 13 9.5 13C10.3284 13 11 13.6716 11 14.5ZM11 19.5C11 20.3284 10.3284 21 9.5 21C8.67157 21 8 20.3284 8 19.5C8 18.6716 8.67157 18 9.5 18C10.3284 18 11 18.6716 11 19.5ZM14.5 16C15.3284 16 16 15.3284 16 14.5C16 13.6716 15.3284 13 14.5 13C13.6716 13 13 13.6716 13 14.5C13 15.3284 13.6716 16 14.5 16ZM16 9.5C16 10.3284 15.3284 11 14.5 11C13.6716 11 13 10.3284 13 9.5C13 8.67157 13.6716 8 14.5 8C15.3284 8 16 8.67157 16 9.5ZM14.5 6C15.3284 6 16 5.32843 16 4.5C16 3.67157 15.3284 3 14.5 3C13.6716 3 13 3.67157 13 4.5C13 5.32843 13.6716 6 14.5 6ZM16 19.5C16 20.3284 15.3284 21 14.5 21C13.6716 21 13 20.3284 13 19.5C13 18.6716 13.6716 18 14.5 18C15.3284 18 16 18.6716 16 19.5Z" fill="#636363"/>
</svg>
