<svg width="24" height="24" viewBox="0 0 24 24" fill="none" xmlns="http://www.w3.org/2000/svg">
<path fill-rule="evenodd" clip-rule="evenodd" d="M20 4H4C2.89543 4 2 4.89543 2 6V18C2 19.1046 2.89543 20 4 20H14.2561C14.8738 21.7478 16.5407 23 18.5 23C20.9853 23 23 20.9853 23 18.5C23 17.4284 22.6254 16.4442 22 15.6713V6C22 4.89543 21.1046 4 20 4ZM12 10L4 6V8L12 12L20 8V6L12 10ZM15.6464 18.8536L16.3536 18.1464L17.9718 19.7647L20.6204 16.6746L21.3796 17.3254L18.0282 21.2353L15.6464 18.8536Z" fill="#636363"/>
</svg>
