<svg width="24" height="24" viewBox="0 0 24 24" fill="none" xmlns="http://www.w3.org/2000/svg">
<path fill-rule="evenodd" clip-rule="evenodd" d="M5 2H13H15H15.5858C15.851 2 16.1054 2.10536 16.2929 2.29289L19.7071 5.70711C19.8946 5.89464 20 6.149 20 6.41421V21C20 21.5523 19.5523 22 19 22H5C4.44772 22 4 21.5523 4 21V3C4 2.44772 4.44772 2 5 2ZM6 4H13V7C13 8.10457 13.8954 9 15 9H18V20H6V4ZM18 7H15V4H15.1716L18 6.82843V7ZM9 10L11 13.2L8 18H10H13L12 16.5H10.9375L12 14.8L14 18H16L13 13.2L15 10H13L12 11.6L11 10H9Z" fill="#636363"/>
</svg>
