<svg width="24" height="24" viewBox="0 0 24 24" fill="none" xmlns="http://www.w3.org/2000/svg">
<path fill-rule="evenodd" clip-rule="evenodd" d="M13.5 16H14.3633C14.6406 15.9297 16.8105 13.0605 16.4629 12.7793C16.1816 12.5 15.2715 14.0391 14.1523 14.8809H13.5V16ZM13.5 12.0145C14.1947 12.4861 14.8627 12.852 14.9902 12.6914C15.2114 12.4718 14.3055 11.8619 13.5 11.0671V12.0145ZM13.5 9.12109H14.3613L14.7812 9.54297C14.8516 9.61328 14.9219 9.61328 14.9902 9.54297L15.2715 9.19141C15.3418 9.12109 15.3418 9.05273 15.2715 8.98242L14.3613 8.07227C14.3008 8.00195 14.1836 8.00195 14.1133 8.00195H13.5V9.12109ZM13.5 6.5H20C20.5527 6.5 21 6.94727 21 7.5V16.5C21 17.0527 20.5527 17.5 20 17.5H13.5V21L3 19V5L13.5 3V6.5ZM19.5 9.12109V8.21094C19.5 8.07227 19.4297 8.00195 19.2891 8.00195H16.9082C16.6309 8.07031 14.4609 10.9414 14.8086 11.2207C15.0898 11.502 16 9.96094 17.1191 9.12109H18.3789V10.5918L17.9609 11.0117C17.8887 11.0801 17.8887 11.1504 17.9609 11.2207L18.3086 11.502C18.3789 11.5723 18.4492 11.5723 18.5195 11.502L19.4297 10.5918C19.5 10.5312 19.5 10.4121 19.5 10.3418V9.12109ZM18.3809 16H19.2891C19.4297 16 19.5 15.9297 19.5 15.7891V13.4082C19.4297 13.1309 16.5605 10.959 16.2793 11.3086C16 11.5898 17.5391 12.5 18.3809 13.6191V14.8789H16.9102L16.4902 14.459C16.4199 14.3887 16.3496 14.3887 16.2793 14.459L16 14.8086C15.9297 14.8789 15.9297 14.9492 16 15.0195L16.9102 15.9297C16.9707 16 17.0879 16 17.1582 16H18.3809ZM10 16.4062V14.8633L7.47461 14.7246V12.8965H9.65039V11.3555L7.47461 11.4258V9.66992L9.85938 9.52734V7.98633L6 8.4043V16.0566L10 16.4062Z" fill="#636363"/>
</svg>
