<svg width="24" height="24" viewBox="0 0 24 24" fill="none" xmlns="http://www.w3.org/2000/svg">
<path fill-rule="evenodd" clip-rule="evenodd" d="M12.8501 3.49281L21.8799 19.5904C22.138 20.0507 21.9668 20.629 21.4974 20.8821C21.3542 20.9594 21.1934 20.9999 21.0299 20.9999H2.97017C2.43443 20.9999 2.00012 20.574 2.00012 20.0488C2.00012 19.8885 2.04143 19.7308 2.1202 19.5904L11.1502 3.49281C11.4083 3.03254 11.9982 2.86464 12.4676 3.11779C12.6288 3.20471 12.7614 3.33478 12.8501 3.49281ZM11.0302 16.2441C11.0302 15.7188 11.456 15.293 11.9813 15.293H12.0191C12.5444 15.293 12.9702 15.7188 12.9702 16.2441C12.9702 16.7694 12.5444 17.1953 12.0191 17.1953H11.9813C11.456 17.1953 11.0302 16.7694 11.0302 16.2441ZM12.0002 10.5375C11.4645 10.5375 11.0302 10.9718 11.0302 11.5075V13.3719C11.0302 13.9076 11.4645 14.3419 12.0002 14.3419C12.5359 14.3419 12.9702 13.9076 12.9702 13.3719V11.5075C12.9702 10.9718 12.5359 10.5375 12.0002 10.5375Z" fill="#636363"/>
</svg>
