<svg width="24" height="24" viewBox="0 0 24 24" fill="none" xmlns="http://www.w3.org/2000/svg">
<path fill-rule="evenodd" clip-rule="evenodd" d="M18.1322 11.3689C17.8745 11.2484 17.5556 11.0659 17.2258 10.8493C16.8401 10.5959 16.4749 10.3133 16.2567 10.1301L16.2583 10.0277C16.2611 9.86409 16.2622 9.7714 16.2622 9.65882C16.2622 8.33184 15.3875 7.58583 14.2559 7.25626C13.6692 7.0854 12.9414 7.0097 12.0208 7.00011C11.0586 7.0097 10.3308 7.0854 9.74414 7.25626C8.61253 7.58583 7.73785 8.33184 7.73785 9.65882C7.73785 9.7714 7.73895 9.86409 7.74166 10.0277L7.74325 10.1301C7.5251 10.3133 7.15992 10.5959 6.77424 10.8493C6.44443 11.0659 6.12552 11.2484 5.85151 11.3765C5.82996 11.3608 5.80737 11.3438 5.78386 11.3255C5.48816 11.0957 5.14664 10.7412 4.8352 10.3335C4.52059 9.92159 4.26441 9.49196 4.11486 9.13252C4.06648 9.01623 4.03322 8.91665 4.01453 8.84069C4.50108 7.833 8.81174 6 12 6C15.1883 6 19.4989 7.833 19.9855 8.84069C19.9668 8.91665 19.9335 9.01623 19.8851 9.13252C19.7356 9.49196 19.4794 9.92159 19.1648 10.3335C18.8534 10.7412 18.5118 11.0957 18.2161 11.3255C18.1926 11.3438 18.17 11.3608 18.1322 11.3689ZM8 16C8.55228 16 9 15.5523 9 15C9 14.4477 8.55228 14 8 14C7.44772 14 7 14.4477 7 15C7 15.5523 7.44772 16 8 16ZM12 16C12.5523 16 13 15.5523 13 15C13 14.4477 12.5523 14 12 14C11.4477 14 11 14.4477 11 15C11 15.5523 11.4477 16 12 16ZM17 15C17 15.5523 16.5523 16 16 16C15.4477 16 15 15.5523 15 15C15 14.4477 15.4477 14 16 14C16.5523 14 17 14.4477 17 15ZM12 20C12.5523 20 13 19.5523 13 19C13 18.4477 12.5523 18 12 18C11.4477 18 11 18.4477 11 19C11 19.5523 11.4477 20 12 20ZM9 19C9 19.5523 8.55228 20 8 20C7.44772 20 7 19.5523 7 19C7 18.4477 7.44772 18 8 18C8.55228 18 9 18.4477 9 19ZM16 20C16.5523 20 17 19.5523 17 19C17 18.4477 16.5523 18 16 18C15.4477 18 15 18.4477 15 19C15 19.5523 15.4477 20 16 20ZM14.2622 9.65882C14.2622 9.23531 13.5081 9.01571 12 9C10.4919 9.01571 9.73785 9.23531 9.73785 9.65882C9.73785 10.2941 9.79006 10.7833 9.61099 11.0518C9.13304 11.7687 6.72548 13.4494 5.79106 13.4614C4.37777 13.4797 1.66976 10.0015 2.03322 8.47525C2.56263 6.25224 8.03955 4 12 4C15.9605 4 21.4374 6.25224 21.9668 8.47525C22.3302 10.0015 19.6222 13.4797 18.2089 13.4614C17.2745 13.4494 14.867 11.7687 14.389 11.0518C14.2099 10.7833 14.2622 10.2941 14.2622 9.65882Z" fill="#636363"/>
</svg>
