<svg width="24" height="24" viewBox="0 0 24 24" fill="none" xmlns="http://www.w3.org/2000/svg">
<path fill-rule="evenodd" clip-rule="evenodd" d="M9 15C9 15.5523 8.55228 16 8 16C7.44772 16 7 15.5523 7 15C7 14.4477 7.44772 14 8 14C8.55228 14 9 14.4477 9 15ZM13 15C13 15.5523 12.5523 16 12 16C11.4477 16 11 15.5523 11 15C11 14.4477 11.4477 14 12 14C12.5523 14 13 14.4477 13 15ZM16 16C16.5523 16 17 15.5523 17 15C17 14.4477 16.5523 14 16 14C15.4477 14 15 14.4477 15 15C15 15.5523 15.4477 16 16 16ZM13 19C13 19.5523 12.5523 20 12 20C11.4477 20 11 19.5523 11 19C11 18.4477 11.4477 18 12 18C12.5523 18 13 18.4477 13 19ZM8 20C8.55228 20 9 19.5523 9 19C9 18.4477 8.55228 18 8 18C7.44772 18 7 18.4477 7 19C7 19.5523 7.44772 20 8 20ZM17 19C17 19.5523 16.5523 20 16 20C15.4477 20 15 19.5523 15 19C15 18.4477 15.4477 18 16 18C16.5523 18 17 18.4477 17 19ZM14.2622 9.65882C14.2622 9.23531 13.5081 9.01571 12 9C10.4919 9.01571 9.73785 9.23531 9.73785 9.65882C9.73785 10.2941 9.79006 10.7833 9.61099 11.0518C9.13304 11.7687 6.72548 13.4494 5.79106 13.4614C4.37777 13.4797 1.66976 10.0015 2.03322 8.47525C2.56263 6.25224 8.03955 4 12 4C15.9605 4 21.4374 6.25224 21.9668 8.47525C22.3302 10.0015 19.6222 13.4797 18.2089 13.4614C17.2745 13.4494 14.867 11.7687 14.389 11.0518C14.2099 10.7833 14.2622 10.2941 14.2622 9.65882Z" fill="#636363"/>
</svg>
