<svg width="24" height="24" viewBox="0 0 24 24" fill="none" xmlns="http://www.w3.org/2000/svg">
<path fill-rule="evenodd" clip-rule="evenodd" d="M8.14551 6.6829C8.1393 6.6851 8.1331 6.6873 8.1269 6.68951L3.73524 2.29786C3.33819 1.9008 2.69455 1.9007 2.29763 2.29763C1.9007 2.69455 1.9008 3.33819 2.29786 3.73524L6.14974 7.58712C3.63587 8.98798 2 10.9638 2 12C2 13.7143 6.47715 18 12 18C13.3733 18 14.6819 17.735 15.8731 17.3105L20.2648 21.7021C20.6618 22.0992 21.3055 22.0993 21.7024 21.7024C22.0993 21.3055 22.0992 20.6618 21.7021 20.2648L17.8503 16.4129C17.8557 16.4099 17.8611 16.4069 17.8665 16.4038L14.7231 13.2605C14.7205 13.2663 14.7178 13.272 14.7151 13.2777L10.7223 9.28491C10.728 9.28221 10.7337 9.27953 10.7395 9.27687L8.14551 6.6829ZM19.5907 15.2533C21.0925 14.0648 22 12.7718 22 12C22 10.2857 17.5228 6 12 6C11.4724 6 10.9543 6.03911 10.4488 6.11137L19.5907 15.2533ZM9 12C9 11.543 9.10217 11.1099 9.28491 10.7223L13.2777 14.7151C12.8901 14.8978 12.457 15 12 15C10.3431 15 9 13.6569 9 12Z" fill="#636363"/>
</svg>
