<svg width="24" height="24" viewBox="0 0 24 24" fill="none" xmlns="http://www.w3.org/2000/svg">
<path fill-rule="evenodd" clip-rule="evenodd" d="M10 4C10 3.44772 10.4477 3 11 3H19C19.5523 3 20 3.44772 20 4V12H21C21.5523 12 22 12.4477 22 13V21C22 21.5523 21.5523 22 21 22H10.5H9H5C3.89543 22 3 21.1046 3 20V18C2.44772 18 2 17.5523 2 17V6C2 5.44772 2.44772 5 3 5H5C5.55228 5 6 5.44772 6 6V17C6 17.5523 5.55228 18 5 18V20H8V13C8 12.4477 8.44772 12 9 12H10V4ZM12.5 5C12.2239 5 12 5.22386 12 5.5V11.5C12 11.7761 12.2239 12 12.5 12H17.5C17.7761 12 18 11.7761 18 11.5V5.5C18 5.22386 17.7761 5 17.5 5H12.5ZM10 15C10 14.4477 10.4477 14 11 14C11.5523 14 12 14.4477 12 15C12 15.5523 11.5523 16 11 16C10.4477 16 10 15.5523 10 15ZM15 14C14.4477 14 14 14.4477 14 15C14 15.5523 14.4477 16 15 16C15.5523 16 16 15.5523 16 15C16 14.4477 15.5523 14 15 14ZM18 15C18 14.4477 18.4477 14 19 14C19.5523 14 20 14.4477 20 15C20 15.5523 19.5523 16 19 16C18.4477 16 18 15.5523 18 15ZM11 18C10.4477 18 10 18.4477 10 19C10 19.5523 10.4477 20 11 20C11.5523 20 12 19.5523 12 19C12 18.4477 11.5523 18 11 18ZM14 19C14 18.4477 14.4477 18 15 18C15.5523 18 16 18.4477 16 19C16 19.5523 15.5523 20 15 20C14.4477 20 14 19.5523 14 19ZM19 18C18.4477 18 18 18.4477 18 19C18 19.5523 18.4477 20 19 20C19.5523 20 20 19.5523 20 19C20 18.4477 19.5523 18 19 18Z" fill="#636363"/>
</svg>
