<svg width="24" height="24" viewBox="0 0 24 24" fill="none" xmlns="http://www.w3.org/2000/svg">
<path fill-rule="evenodd" clip-rule="evenodd" d="M11.4855 2.30871L2.4855 7.70871C2.1843 7.88943 2 8.21494 2 8.5662V21C2 21.5523 2.44772 22 3 22H21C21.5523 22 22 21.5523 22 21V8.5662C22 8.21494 21.8157 7.88943 21.5145 7.70871L12.5145 2.30871C12.1978 2.1187 11.8022 2.1187 11.4855 2.30871ZM8.49788 9.17814C8.78956 9.64712 9.4062 9.79085 9.87517 9.49917L11 8.79959V12C11 12.5523 11.4477 13 12 13C12.5523 13 13 12.5523 13 12V8.80426L14.1174 9.50265C14.5858 9.79536 15.2027 9.65299 15.4954 9.18465C15.7881 8.71632 15.6458 8.09937 15.1774 7.80666L12.53 6.15201C12.2064 5.94976 11.7959 5.94931 11.4719 6.15085L8.81891 7.80085C8.34993 8.09253 8.2062 8.70916 8.49788 9.17814ZM20.4145 8.18933L20.5066 10.5899L12.5855 16.3107C12.236 16.5631 11.764 16.5631 11.4145 16.3107L3.5484 10.6296L3.58549 8.18933L12 14.2665L20.4145 8.18933Z" fill="#636363"/>
</svg>
