<svg width="24" height="24" viewBox="0 0 24 24" fill="none" xmlns="http://www.w3.org/2000/svg">
<path d="M11.0313 2.00197C10.6939 2.06504 10.4424 2.35336 10.4157 2.69875C10.1938 5.2396 8.74373 6.90347 7.19602 8.72952C5.64832 10.5556 4 12.5708 4 15.5772C4 17.6525 4.92625 19.2894 6.13068 20.3586C7.33511 21.4278 8.78812 21.9924 10.0606 21.9924C10.3329 21.9954 10.5874 21.8513 10.7264 21.611C10.8626 21.3707 10.8626 21.0764 10.7264 20.8361C10.5874 20.5958 10.3329 20.4517 10.0606 20.4547C9.24976 20.4547 8.05125 20.0312 7.125 19.2053C6.19875 18.3794 5.51515 17.199 5.51515 15.5772C5.51515 13.1355 6.81724 11.5557 8.35606 9.73865C9.65814 8.20093 11.0638 6.48 11.6468 4.14037C16.9261 8.05076 19.1515 11.9521 19.1515 14.7843C19.1515 17.5955 17.4263 19.848 15.8371 20.5027C15.4435 20.6619 15.2541 21.1124 15.411 21.5119C15.5678 21.9113 16.0117 22.1035 16.4053 21.9444C18.7106 20.9953 20.6667 18.2112 20.6667 14.7843C20.6667 10.9851 17.8731 6.46198 11.5994 2.14613C11.4544 2.04101 11.2798 1.98995 11.1023 2.00197C11.0786 2.00197 11.0549 2.00197 11.0313 2.00197ZM12.5227 7.9126C12.3126 7.93663 12.1203 8.04776 11.993 8.22195C11.8687 8.39615 11.8184 8.61539 11.8598 8.82563C12.0877 10.1561 12.1439 11.2313 12.0729 12.0212C12.0019 12.8111 11.7799 13.2826 11.6468 13.4388C11.5136 13.595 11.5994 13.58 11.3864 13.4869C11.1733 13.3938 10.7412 13.0514 10.2973 12.3576C10.1642 12.1504 9.93928 12.0212 9.69366 12.0122C9.451 12.0032 9.21721 12.1143 9.06629 12.3095C7.59553 14.3218 7.61032 16.0668 8.16667 17.187C8.72301 18.3073 9.70549 18.8209 9.70549 18.8209C9.94519 18.992 10.2589 19.0071 10.5163 18.8629C10.7708 18.7157 10.9188 18.4334 10.8981 18.1361C10.8774 17.8387 10.688 17.5835 10.4157 17.4753C10.4157 17.4753 9.8357 17.154 9.5161 16.5143C9.27344 16.0277 9.32079 15.2378 9.80019 14.2077C10.102 14.517 10.4424 14.7513 10.7945 14.9045C11.4633 15.1958 12.3304 15.0066 12.8068 14.4479C13.2833 13.8893 13.4786 13.1385 13.5644 12.1654C13.5999 11.7749 13.4845 11.1863 13.4697 10.7238C14.1444 11.5317 14.6948 12.3726 14.9375 13.2466C15.3252 14.6492 15.1476 16.0818 13.9905 17.6916C13.742 18.037 13.8159 18.5205 14.1563 18.7728C14.4966 19.0251 14.973 18.95 15.2216 18.6046C16.6065 16.6825 16.9113 14.6342 16.4053 12.8141C15.8993 10.9941 14.6564 9.41429 13.0909 8.10482C12.9548 7.98168 12.7772 7.9126 12.5938 7.9126C12.5701 7.9126 12.5464 7.9126 12.5227 7.9126Z" fill="#A4B8D1"/>
</svg>
