<svg width="24" height="24" viewBox="0 0 24 24" fill="none" xmlns="http://www.w3.org/2000/svg">
<path fill-rule="evenodd" clip-rule="evenodd" d="M2 5V19C2 20.1046 2.89543 21 4 21H5.0056H18H19.2548C20.2154 21 21.0404 20.317 21.2196 19.3732L22.5492 12.3732C22.5726 12.2502 22.5844 12.1252 22.5844 12C22.5844 10.8954 21.6889 10 20.5844 10H20V8C20 6.89543 19.1046 6 18 6H12.3L11.0826 3.97101C10.7212 3.3686 10.0701 3 9.36762 3H4C2.89543 3 2 3.89543 2 5ZM5.79515 11.2898L4 16.0153V8H18V10H7.66479C6.83422 10 6.0901 10.5133 5.79515 11.2898ZM4 6H9.8L9.2 5H4V6ZM5.0056 19L7.66479 12H20.5844L19.2548 19H5.0056Z" fill="#636363"/>
</svg>
