<svg width="24" height="24" viewBox="0 0 24 24" fill="none" xmlns="http://www.w3.org/2000/svg">
<path fill-rule="evenodd" clip-rule="evenodd" d="M6 14.4676L10.1127 12L6 9.53237V14.4676ZM4.75725 6.45434L12 10.8V6.93425C12 6.65811 12.2239 6.43425 12.5 6.43425C12.5987 6.43425 12.6952 6.46347 12.7774 6.51823L20.376 11.584C20.6057 11.7371 20.6678 12.0476 20.5146 12.2773C20.478 12.3323 20.4309 12.3794 20.376 12.416L12.7774 17.4818C12.5476 17.6349 12.2372 17.5728 12.084 17.3431C12.0292 17.2609 12 17.1644 12 17.0657V13.2L4.75725 17.5456C4.52046 17.6877 4.21333 17.6109 4.07125 17.3741C4.02463 17.2964 4 17.2075 4 17.1169V6.88309C4 6.60694 4.22386 6.38309 4.5 6.38309C4.59062 6.38309 4.67954 6.40772 4.75725 6.45434ZM17.3944 12L14 14.263V9.73703L17.3944 12Z" fill="#636363"/>
</svg>
