<svg width="24" height="24" viewBox="0 0 24 24" fill="none" xmlns="http://www.w3.org/2000/svg">
<path fill-rule="evenodd" clip-rule="evenodd" d="M9.82339 2.36754L9.19565 4.25078L8.50345 4.5375L6.72792 3.64973C5.95794 3.26474 5.028 3.41565 4.41928 4.02437L4.02437 4.41928C3.41565 5.028 3.26474 5.95794 3.64973 6.72792L4.54062 8.49962L4.25145 9.19542L2.36754 9.82339C1.55086 10.0956 1 10.8599 1 11.7208V12.2792C1 13.1401 1.55086 13.9044 2.36754 14.1766L4.25078 14.8044L4.5375 15.4965L3.64973 17.2721C3.26474 18.0421 3.41565 18.972 4.02437 19.5807L4.41928 19.9756C5.028 20.5843 5.95794 20.7353 6.72792 20.3503L8.49962 19.4594L9.19542 19.7485L9.82339 21.6325C10.0956 22.4491 10.8599 23 11.7208 23H12.2792C13.1401 23 13.9044 22.4491 14.1766 21.6325L14.8044 19.7492L15.4965 19.4625L17.2721 20.3503C18.0421 20.7353 18.972 20.5843 19.5807 19.9756L19.9756 19.5807C20.5843 18.972 20.7353 18.0421 20.3503 17.2721L19.4594 15.5004L19.7485 14.8046L21.6325 14.1766C22.4491 13.9044 23 13.1401 23 12.2792V11.7208C23 10.8599 22.4491 10.0956 21.6325 9.82339L19.7494 9.19875L19.4623 8.50392L20.3503 6.72792C20.7353 5.95794 20.5843 5.028 19.9756 4.41928L19.5807 4.02437C18.972 3.41565 18.0421 3.26474 17.2721 3.64973L15.5004 4.54062L14.8046 4.25145L14.1766 2.36754C13.9044 1.55086 13.1401 1 12.2792 1H11.7208C10.8599 1 10.0956 1.55086 9.82339 2.36754ZM8.42548 6.73458L10.8044 5.74922L11.7208 3H12.2792L13.1954 5.74855L15.5796 6.73938L18.1665 5.43859L18.5614 5.83349L17.2657 8.42501L18.2506 10.8088L21 11.7208V12.2792L18.2515 13.1954L17.2606 15.5796L18.5614 18.1665L18.1665 18.5614L15.5745 17.2654L13.1956 18.2508L12.2792 21H11.7208L10.8046 18.2515L8.42038 17.2606L5.83349 18.5614L5.43859 18.1665L6.73458 15.5745L5.74922 13.1956L3 12.2792V11.7208L5.74855 10.8046L6.73938 8.42038L5.43859 5.83349L5.83349 5.43859L8.42548 6.73458ZM12 17C9.23858 17 7 14.7614 7 12C7 9.23858 9.23858 7 12 7C14.7614 7 17 9.23858 17 12C17 14.7614 14.7614 17 12 17ZM15 12C15 13.6569 13.6569 15 12 15C10.3431 15 9 13.6569 9 12C9 10.3431 10.3431 9 12 9C13.6569 9 15 10.3431 15 12Z" fill="#636363"/>
</svg>
