<svg width="24" height="24" viewBox="0 0 24 24" fill="none" xmlns="http://www.w3.org/2000/svg">
<path fill-rule="evenodd" clip-rule="evenodd" d="M12 22C6.47715 22 2 17.5228 2 12C2 6.47715 6.47715 2 12 2C17.5228 2 22 6.47715 22 12C22 17.5228 17.5228 22 12 22ZM12 20C12.2138 20 12.4257 19.9916 12.6353 19.9751C11.5091 19.0106 10.4652 17.7969 9.55441 16.3659C8.17892 16.5762 6.73588 16.5672 5.26107 16.3131C6.68327 18.5306 9.17003 20 12 20ZM11.6217 15.8699C12.6685 17.3707 13.875 18.5503 15.1482 19.3568C15.4425 19.2306 15.7278 19.0874 16.0027 18.9282C16.0043 18.9058 16.0067 18.8834 16.0098 18.8608C16.287 16.8888 16.2273 15.1055 15.8673 13.4705C14.6183 14.5382 13.1823 15.3532 11.6217 15.8699ZM15.2063 11.3594C13.9046 12.6636 12.313 13.6073 10.547 14.1065C9.23892 11.6449 8.32381 8.56947 8.0708 5.02978C8.53818 4.76575 9.03476 4.54736 9.5545 4.38068C9.60555 4.42444 9.66631 4.47649 9.7299 4.53097C9.89806 4.67501 10.086 4.83596 10.1661 4.9051C10.4718 5.16892 10.7307 5.39764 10.9853 5.6306C11.6333 6.2235 12.2035 6.80011 12.7324 7.41305C13.7874 8.63588 14.6222 9.94013 15.2063 11.3594ZM16.6183 9.63222C15.9962 8.38135 15.1993 7.2107 14.2466 6.10651C13.662 5.42893 13.0378 4.79768 12.3354 4.15502C12.2793 4.10375 12.2232 4.05277 12.1666 4.0017C14.5058 4.04948 16.5985 5.10133 18.0311 6.74383C17.6746 7.79628 17.1973 8.76374 16.6183 9.63222ZM17.494 11.807C18.0021 13.4314 18.2395 15.1841 18.1727 17.0893C19.3142 15.7064 20 13.9333 20 12C20 10.875 19.7678 9.80425 19.3487 8.83304C18.8454 9.92338 18.2205 10.9196 17.494 11.807ZM4.27472 14.0385C5.72039 14.4515 7.14108 14.587 8.49385 14.4761C7.36964 12.1954 6.55658 9.50293 6.20052 6.48943C4.83685 7.92415 4 9.86434 4 12C4 12.7128 4.09322 13.4038 4.26813 14.0615L4.27472 14.0385Z" fill="#636363"/>
</svg>
