<svg width="24" height="24" viewBox="0 0 24 24" fill="none" xmlns="http://www.w3.org/2000/svg">
<path fill-rule="evenodd" clip-rule="evenodd" d="M12.9998 3.5L12.9998 5.27273L12.9998 12L12.9998 13C12.9998 13.5523 13.4476 14 13.9998 14C14.5521 14 14.9998 13.5523 14.9998 13L14.9998 12L14.9998 5.27273C14.9998 5.16688 15.1834 5 15.4998 5C15.8163 5 15.9998 5.16688 15.9998 5.27273V7.5V13C15.9998 13.5523 16.4476 14 16.9998 14C17.5521 14 17.9998 13.5523 17.9998 13V7.5C17.9998 7.22386 18.2237 7 18.4998 7C18.776 7 18.9998 7.22386 18.9998 7.5V15.0415C18.7276 17.8249 16.3547 20 13.4998 20C11.6255 20 9.91945 19.0555 8.91291 17.5367L8.90933 17.5376L5.09663 11.8045C4.91369 11.5424 4.96867 11.2306 5.19487 11.0722C5.42107 10.9139 5.73285 10.9688 5.89124 11.195L7.17033 13.1073L7.16904 13.1081C7.47788 13.566 8.09941 13.6868 8.55728 13.378C8.83366 13.1916 8.98723 12.8912 8.99762 12.5817L8.99984 12.5823V5.5C8.99984 5.22386 9.2237 5 9.49984 5C9.77598 5 9.99984 5.22386 9.99984 5.5V12V13C9.99984 13.5523 10.4476 14 10.9998 14C11.5521 14 11.9998 13.5523 11.9998 13V12V5.5V3.5C11.9998 3.22386 12.2237 3 12.4998 3C12.776 3 12.9998 3.22386 12.9998 3.5ZM20.9821 15.0203L20.9998 15.0115L20.9998 14.5L20.9998 7.5C20.9998 6.11929 19.8806 5 18.4998 5C18.3245 5 18.1534 5.01805 17.9882 5.05239C17.8664 3.90059 16.7988 3 15.4998 3C15.3145 3 15.1339 3.01834 14.96 3.05312C14.7493 1.88564 13.728 1 12.4998 1C11.2699 1 10.2474 1.88823 10.0387 3.05823C9.86518 3.0201 9.68486 3 9.49984 3C8.11913 3 6.99984 4.11929 6.99984 5.5V9.49474C6.15743 8.85077 4.9626 8.79334 4.04772 9.43394C2.91671 10.2259 2.64184 11.7847 3.43378 12.9158L7.03503 18.3045C8.33939 20.5162 10.7463 22 13.4998 22C17.4671 22 20.7149 18.9197 20.9821 15.0203Z" fill="#636363"/>
</svg>
