<svg width="24" height="24" viewBox="0 0 24 24" fill="none" xmlns="http://www.w3.org/2000/svg">
<path fill-rule="evenodd" clip-rule="evenodd" d="M17.9882 5.05239C18.1534 5.01805 18.3245 5 18.4998 5C19.8806 5 20.9998 6.11929 20.9998 7.5V15.0115L20.9821 15.0203C20.7149 18.9197 17.4671 22 13.4998 22C10.7463 22 8.33939 20.5162 7.03503 18.3045L3.43378 12.9158C2.64184 11.7847 2.91671 10.2259 4.04772 9.43394C4.9626 8.79334 6.15743 8.85077 6.99984 9.49474V5.5C6.99984 4.11929 8.11913 3 9.49984 3C9.68486 3 9.86518 3.0201 10.0387 3.05823C10.2474 1.88823 11.2699 1 12.4998 1C13.728 1 14.7493 1.88564 14.96 3.05312C15.1339 3.01834 15.3145 3 15.4998 3C16.7988 3 17.8664 3.90059 17.9882 5.05239Z" fill="#636363"/>
</svg>
