<svg width="24" height="24" viewBox="0 0 24 24" fill="none" xmlns="http://www.w3.org/2000/svg">
<path fill-rule="evenodd" clip-rule="evenodd" d="M7 2C6.44772 2 6 2.44772 6 3V6H3C2.44772 6 2 6.44772 2 7V8C2 8.55228 2.44772 9 3 9H6V15H3C2.44772 15 2 15.4477 2 16V17C2 17.5523 2.44772 18 3 18H6V21C6 21.5523 6.44772 22 7 22H8C8.55228 22 9 21.5523 9 21V18H15V21C15 21.5523 15.4477 22 16 22H17C17.5523 22 18 21.5523 18 21V18H21C21.5523 18 22 17.5523 22 17V16C22 15.4477 21.5523 15 21 15H18V9H21C21.5523 9 22 8.55228 22 8V7C22 6.44772 21.5523 6 21 6H18V3C18 2.44772 17.5523 2 17 2H16C15.4477 2 15 2.44772 15 3V6H9V3C9 2.44772 8.55228 2 8 2H7ZM15 15V9H9V15H15Z" fill="#636363"/>
</svg>
