<svg width="24" height="24" viewBox="0 0 24 24" fill="none" xmlns="http://www.w3.org/2000/svg">
<path fill-rule="evenodd" clip-rule="evenodd" d="M5.0214 10.2801C5.60738 10.6289 6 11.2686 6 12V15C6 16.1046 5.10457 17 4 17C2.89543 17 2 16.1046 2 15V12C2 11.2517 2.41094 10.5994 3.01946 10.2565C3.32656 4.49662 7.22991 2 12 2C16.7691 2 20.6719 4.52313 20.9804 10.2563C21.589 10.5993 22 11.2516 22 12V15C22 15.7403 21.5978 16.3866 21 16.7324V17.2344C21 18.7474 19.8734 20.0236 18.3721 20.2113L14 20.7578V21C14 21.5523 13.5523 22 13 22H11C10.4477 22 10 21.5523 10 21V19C10 18.4477 10.4477 18 11 18H13C13.4646 18 13.8552 18.3169 13.9675 18.7463L18.124 18.2267C18.6245 18.1642 19 17.7388 19 17.2344V16.7324C18.4022 16.3866 18 15.7403 18 15V12C18 11.2687 18.3925 10.6291 18.9783 10.2803C18.7204 6.09869 16.1709 4 12 4C7.81532 4 5.27722 6.08308 5.0214 10.2801Z" fill="#636363"/>
</svg>
