<svg width="24" height="24" viewBox="0 0 24 24" fill="none" xmlns="http://www.w3.org/2000/svg">
<path fill-rule="evenodd" clip-rule="evenodd" d="M9 13C7.28489 13 5.77147 12.1364 4.87082 10.8204C2.77849 11.9272 2 14.1537 2 17.5C2 19.1667 2.58333 20 3.75 20H14.25C15.4167 20 16 19.1667 16 17.5C16 14.1537 15.2215 11.9272 13.1292 10.8204C12.2285 12.1364 10.7151 13 9 13ZM17 11C15.3431 11 14 9.65685 14 8C14 6.34315 15.3431 5 17 5V7C16.4477 7 16 7.44772 16 8C16 8.55228 16.4477 9 17 9V11ZM22 4C19.7909 4 18 5.79086 18 8C18 10.2091 19.7909 12 22 12V10C20.8954 10 20 9.10457 20 8C20 6.89543 20.8954 6 22 6V4ZM5 8C5 10.2091 6.79086 12 9 12C11.2091 12 13 10.2091 13 8C13 5.79086 11.2091 4 9 4C6.79086 4 5 5.79086 5 8Z" fill="#636363"/>
</svg>
