<svg width="24" height="24" viewBox="0 0 24 24" fill="none" xmlns="http://www.w3.org/2000/svg">
<path fill-rule="evenodd" clip-rule="evenodd" d="M4 3C4 2.44772 4.44772 2 5 2H19C19.5523 2 20 2.44772 20 3C20 3.55228 19.5523 4 19 4H18V6.17157C18 6.96722 17.6839 7.73028 17.1213 8.29289L13.4142 12L17.1213 15.7071C17.6839 16.2697 18 17.0328 18 17.8284V20H19C19.5523 20 20 20.4477 20 21C20 21.5523 19.5523 22 19 22H5C4.44772 22 4 21.5523 4 21C4 20.4477 4.44772 20 5 20H6V17.8284C6 17.0328 6.31607 16.2697 6.87868 15.7071L10.5858 12L6.87868 8.29289C6.31607 7.73028 6 6.96722 6 6.17157V4H5C4.44772 4 4 3.55228 4 3ZM8 18.6667V17.8284C8 17.5632 8.10536 17.3089 8.29289 17.1213L12 13.4142L15.7071 17.1213C15.8946 17.3089 16 17.5632 16 17.8284V18.6667L15.5038 18.3359C15.1753 18.1169 14.7893 18 14.3944 18H9.60555C9.2107 18 8.82469 18.1169 8.49615 18.3359L8 18.6667ZM8 4H16V6.17157C16 6.43679 15.8946 6.69114 15.7071 6.87868L14.5858 8H9.41421L8.29289 6.87868C8.10536 6.69114 8 6.43679 8 6.17157V4Z" fill="#636363"/>
</svg>
