<svg width="24" height="24" viewBox="0 0 24 24" fill="none" xmlns="http://www.w3.org/2000/svg">
<path fill-rule="evenodd" clip-rule="evenodd" d="M6 20V17.8284C6 17.0328 6.31607 16.2697 6.87868 15.7071L10.5858 12L6.87868 8.29289C6.31607 7.73028 6 6.96722 6 6.17157V4H5C4.44772 4 4 3.55228 4 3C4 2.44772 4.44772 2 5 2H19C19.5523 2 20 2.44772 20 3C20 3.55228 19.5523 4 19 4H18V6.17157C18 6.96722 17.6839 7.73028 17.1213 8.29289L13.4142 12L17.1213 15.7071C17.6839 16.2697 18 17.0328 18 17.8284V20H19C19.5523 20 20 20.4477 20 21C20 21.5523 19.5523 22 19 22H5C4.44772 22 4 21.5523 4 21C4 20.4477 4.44772 20 5 20H6ZM15 8L12 11L9 8H15ZM10.2361 18C9.47852 18 8.786 18.428 8.44721 19.1056L8 20H16L15.5528 19.1056C15.214 18.428 14.5215 18 13.7639 18H10.2361Z" fill="#636363"/>
</svg>
