<svg width="24" height="24" viewBox="0 0 24 24" fill="none" xmlns="http://www.w3.org/2000/svg">
<path fill-rule="evenodd" clip-rule="evenodd" d="M4 2H20C21.1046 2 22 2.89543 22 4V20C22 21.1046 21.1046 22 20 22H4C2.89543 22 2 21.1046 2 20V4C2 2.89543 2.89543 2 4 2ZM9 12C7.34315 12 6 10.6569 6 9C6 7.34315 7.34315 6 9 6C10.6569 6 12 7.34315 12 9C12 10.6569 10.6569 12 9 12ZM14.4268 10.5207L11.2425 17.8716L9.09577 14.7606C9.02691 14.6608 8.94046 14.5744 8.84066 14.5055C8.3861 14.1918 7.76332 14.3061 7.44965 14.7606L4.91622 18.432C4.4586 19.0952 4.93304 19.9995 5.73878 19.9999L19.2408 20.0067C19.978 20.0071 20.4622 19.2368 20.1422 18.5726L16.2361 10.4656C16.1305 10.2577 15.9557 10.0933 15.7419 10.0006C15.2351 9.78109 14.6463 10.014 14.4268 10.5207Z" fill="#636363"/>
</svg>
