<svg width="24" height="24" viewBox="0 0 24 24" fill="none" xmlns="http://www.w3.org/2000/svg">
<path fill-rule="evenodd" clip-rule="evenodd" d="M12 22C6.47715 22 2 17.5228 2 12C2 6.47715 6.47715 2 12 2C17.5228 2 22 6.47715 22 12C22 17.5228 17.5228 22 12 22ZM12 20C16.4183 20 20 16.4183 20 12C20 9.39838 18.7581 7.08682 16.8349 5.62576L8.89635 19.3757C9.8507 19.7777 10.8994 20 12 20ZM7.16513 18.3742C5.24186 16.9132 4 14.6016 4 12C4 7.58172 7.58172 4 12 4C13.1006 4 14.1493 4.22225 15.1036 4.62433L7.16513 18.3742Z" fill="#636363"/>
</svg>
