<svg width="24" height="24" viewBox="0 0 24 24" fill="none" xmlns="http://www.w3.org/2000/svg">
<path fill-rule="evenodd" clip-rule="evenodd" d="M2.04932 13C2.55104 18.0533 6.81459 22 11.9999 22C17.5228 22 21.9999 17.5228 21.9999 12C21.9999 6.47715 17.5228 2 11.9999 2C6.81459 2 2.55104 5.94668 2.04932 11H12.6468L10.3539 8.70711C9.96334 8.31658 9.96334 7.68342 10.3539 7.29289C10.7444 6.90237 11.3776 6.90237 11.7681 7.29289L15.7681 11.2929C16.1586 11.6834 16.1586 12.3166 15.7681 12.7071L11.7681 16.7071C11.3776 17.0976 10.7444 17.0976 10.3539 16.7071C9.96334 16.3166 9.96334 15.6834 10.3539 15.2929L12.6468 13H2.04932Z" fill="#636363"/>
</svg>
