<svg width="24" height="24" viewBox="0 0 24 24" fill="none" xmlns="http://www.w3.org/2000/svg">
<path fill-rule="evenodd" clip-rule="evenodd" d="M11.9926 2C12.2486 2 12.5045 2.09862 12.6997 2.29587L16.9424 6.58161C17.3329 6.9761 17.3329 7.6157 16.9424 8.01019C16.5519 8.40468 15.9187 8.40468 15.5282 8.01019L13.0123 5.46871C13.0436 7.05643 13.1427 8.17714 13.3909 9.44062C14.2389 13.7579 16.4922 16.1414 21 16.1414C21.5523 16.1414 22 16.5937 22 17.1516C22 17.7094 21.5523 18.1617 21 18.1617C16.2342 18.1617 13.3682 15.8641 12 11.9637C10.6318 15.8641 7.76585 18.1617 3 18.1617C2.44771 18.1617 2 17.7094 2 17.1516C2 16.5937 2.44771 16.1414 3 16.1414C7.50776 16.1414 9.76113 13.7579 10.6091 9.44062C10.8581 8.17312 10.957 7.04929 10.988 5.45353L8.4571 8.01019C8.06658 8.40468 7.43342 8.40468 7.04289 8.01019C6.65237 7.6157 6.65237 6.9761 7.04289 6.58161L11.2855 2.29587C11.4808 2.09862 11.7367 2 11.9926 2ZM9.59638 18.1625C9.34984 18.1625 9.20854 18.4434 9.35551 18.6414L11.7591 21.8787C11.8791 22.0403 12.1209 22.0403 12.2409 21.8787L14.6445 18.6414C14.7914 18.4434 14.6502 18.1625 14.4036 18.1625H9.59638Z" fill="#636363"/>
</svg>
