<svg width="24" height="24" viewBox="0 0 24 24" fill="none" xmlns="http://www.w3.org/2000/svg">
<path fill-rule="evenodd" clip-rule="evenodd" d="M13.0001 7C14.1046 7 15.0001 6.10457 15.0001 5C15.0001 3.89543 14.1046 3 13.0001 3C11.8955 3 11.0001 3.89543 11.0001 5C11.0001 6.10457 11.8955 7 13.0001 7ZM9.92873 7.92635C10.0254 7.68489 9.92041 7.41052 9.68778 7.29421L9.09937 7C9.09937 7 8.00986 7.17901 6.09937 11C5.59937 12 7.50005 14 8.09937 12.5C8.66707 11.0791 9.55806 8.85255 9.92873 7.92635ZM17.0001 9L15.8229 10.1771C15.6401 10.36 15.3487 10.3745 15.1465 10.2132C14.3234 9.55652 12.2891 8 11.5001 8C10.7027 8 9.58754 11.8144 9.16825 13.3605C9.06294 13.7488 9.20936 14.157 9.53123 14.3984L12.2001 16.4C12.7037 16.7777 13.0001 17.3705 13.0001 18V22H15.0001V17.0292C15.0001 16.3833 14.6881 15.7772 14.1625 15.4018L12.1388 13.9563C11.7638 13.6884 11.6204 13.199 11.7916 12.7711L12.5001 11L15.1777 12.3388C15.3702 12.4351 15.6027 12.3974 15.7549 12.2452L17.0001 11V22H18.0001V7H17.0001V9ZM8.00005 22L9.25005 16L11.0001 17L10.0001 22H8.00005Z" fill="#636363"/>
</svg>
