<svg width="24" height="24" viewBox="0 0 24 24" fill="none" xmlns="http://www.w3.org/2000/svg">
<path fill-rule="evenodd" clip-rule="evenodd" d="M9 12C6.23858 12 4 9.76142 4 7C4 4.23858 6.23858 2 9 2C11.7614 2 14 4.23858 14 7C14 8.01908 13.6951 8.96696 13.1716 9.75739L20 16.5858C20.3111 16.8969 20.3744 17.3621 20.1897 17.7358C20.142 17.8767 20.062 18.009 19.9497 18.1213L17.1213 20.9497C16.7308 21.3403 16.0976 21.3403 15.7071 20.9497C15.3166 20.5592 15.3166 19.9261 15.7071 19.5355L17.9142 17.3284L16.3284 15.7426L15.2426 16.8284C14.8521 17.219 14.219 17.219 13.8284 16.8284C13.4379 16.4379 13.4379 15.8047 13.8284 15.4142L14.9142 14.3284L11.7574 11.1716C10.967 11.6951 10.0191 12 9 12ZM9 10C10.6569 10 12 8.65685 12 7C12 5.34315 10.6569 4 9 4C7.34315 4 6 5.34315 6 7C6 8.65685 7.34315 10 9 10Z" fill="#636363"/>
</svg>
