<svg xmlns="http://www.w3.org/2000/svg" xmlns:xlink="http://www.w3.org/1999/xlink" width="24" height="24" viewBox="0 0 24 24">
  <defs>
    <path id="lightbulb-a" d="M16,17.472213 L16,21 C16,21.5522847 15.5522847,22 15,22 L9,22 C8.44771525,22 8,21.5522847 8,21 L8,17.472213 C6.77250128,16.3735719 6,14.7769996 6,13 C6,9.6862915 8.6862915,7 12,7 C15.3137085,7 18,9.6862915 18,13 C18,14.7769996 17.2274987,16.3735719 16,17.472213 Z M12,17 C14.209139,17 16,15.209139 16,13 C16,10.790861 14.209139,9 12,9 C9.790861,9 8,10.790861 8,13 C8,15.209139 9.790861,17 12,17 Z M12,2 C12.5522847,2 13,2.44771525 13,3 L13,5 C13,5.55228475 12.5522847,6 12,6 C11.4477153,6 11,5.55228475 11,5 L11,3 C11,2.44771525 11.4477153,2 12,2 Z M16.7071068,6.12132034 L18.1213203,4.70710678 C18.5118446,4.31658249 19.1450096,4.31658249 19.5355339,4.70710678 C19.9260582,5.09763107 19.9260582,5.73079605 19.5355339,6.12132034 L18.1213203,7.53553391 C17.7307961,7.9260582 17.0976311,7.9260582 16.7071068,7.53553391 C16.3165825,7.14500961 16.3165825,6.51184464 16.7071068,6.12132034 Z M6,4.70710678 L7.41421356,6.12132034 C7.80473785,6.51184464 7.80473785,7.14500961 7.41421356,7.53553391 C7.02368927,7.9260582 6.39052429,7.9260582 6,7.53553391 L4.58578644,6.12132034 C4.19526215,5.73079605 4.19526215,5.09763107 4.58578644,4.70710678 C4.97631073,4.31658249 5.60947571,4.31658249 6,4.70710678 Z"/>
  </defs>
  <g fill="none" fill-rule="evenodd">
    <rect width="24" height="24"/>
    <use fill="#1C2025" xlink:href="#lightbulb-a"/>
  </g>
</svg>
