<svg width="24" height="24" viewBox="0 0 24 24" fill="none" xmlns="http://www.w3.org/2000/svg">
    <path fill-rule="evenodd" clip-rule="evenodd"
          d="M20 6C21.1046 6 22 5.10457 22 4C22 2.89543 21.1046 2 20 2C18.8954 2 18 2.89543 18 4C18 4.21602 18.0342 4.42404 18.0976 4.61892L17.085 5.58569L18.4992 6.99991L19.5905 5.95804C19.7227 5.98554 19.8597 6 20 6ZM9 8C9.48857 8 9.93623 7.82481 10.2836 7.53383L10.6273 7.72171L11.3033 5.83941L10.9708 5.65769C10.8084 4.7162 9.98786 4 9 4C7.89543 4 7 4.89543 7 6C7 6.12394 7.01127 6.24525 7.03285 6.36295L6.08594 7.08582L7.50015 8.50003L8.31355 7.87909C8.52764 7.95731 8.75883 8 9 8ZM4 12C5.10457 12 6 11.1046 6 10C6 9.89414 5.99177 9.79019 5.97593 9.68878L6.76495 9.11355L5.35074 7.69934L4.74286 8.1425C4.51319 8.05057 4.2625 8 4 8C2.89543 8 2 8.89543 2 10C2 11.1046 2.89543 12 4 12ZM14.0449 7.24236L12.6758 6.61764L11.9999 8.49994L13.0005 8.95652C13.0002 8.97098 13 8.98547 13 9C13 10.1046 13.8954 11 15 11C16.1046 11 17 10.1046 17 9C17 8.84182 16.9816 8.68792 16.9469 8.54033L17.639 7.75026L16.2248 6.33605L15.5708 7.08263C15.3899 7.02887 15.1983 7 15 7C14.6541 7 14.3287 7.08781 14.0449 7.24236ZM20 16C21.1046 16 22 15.1046 22 14C22 12.8954 21.1046 12 20 12C18.8954 12 18 12.8954 18 14C18 14.216 18.0342 14.424 18.0976 14.6189L17.085 15.5857L18.4992 16.9999L19.5905 15.958C19.7227 15.9855 19.8597 16 20 16ZM9 18C9.48857 18 9.93623 17.8248 10.2836 17.5338L10.6273 17.7217L11.3033 15.8394L10.9708 15.6577C10.8084 14.7162 9.98786 14 9 14C7.89543 14 7 14.8954 7 16C7 16.1239 7.01127 16.2452 7.03285 16.3629L6.08594 17.0858L7.50015 18.5L8.31355 17.8791C8.52764 17.9573 8.75883 18 9 18ZM4 22C5.10457 22 6 21.1046 6 20C6 19.8941 5.99177 19.7902 5.97593 19.6888L6.76495 19.1136L5.35074 17.6993L4.74286 18.1425C4.51319 18.0506 4.2625 18 4 18C2.89543 18 2 18.8954 2 20C2 21.1046 2.89543 22 4 22ZM14.0449 17.2424L12.6756 16.6177L11.9996 18.5L13.0005 18.9566C13.0002 18.971 13 18.9855 13 19C13 20.1046 13.8954 21 15 21C16.1046 21 17 20.1046 17 19C17 18.8418 16.9816 18.6879 16.9469 18.5403L17.639 17.7503L16.2248 16.336L15.5708 17.0826C15.3899 17.0289 15.1983 17 15 17C14.6541 17 14.3287 17.0878 14.0449 17.2424Z"
          fill="#636363"/>
</svg>
