<svg width="24" height="24" viewBox="0 0 24 24" fill="none" xmlns="http://www.w3.org/2000/svg">
<path fill-rule="evenodd" clip-rule="evenodd" d="M6.16667 2H17.8333C20.135 2 22 3.86583 22 6.16667V17.8333C22 20.1342 20.135 22 17.8333 22H6.16667C3.86583 22 2 20.1342 2 17.8333V6.16667C2 3.86583 3.86583 2 6.16667 2ZM6 18H8V9H6V18ZM7.5 8C6.672 8 6 7.32823 6 6.5C6 5.67177 6.672 5 7.5 5C8.328 5 9 5.67177 9 6.5C9 7.32823 8.32886 8 7.5 8ZM15.6 18H18V12.4701C18 8.17227 13.5168 8.32854 12.4 10.4443V9.00025H10V18H12.4V13.415C12.4 10.8681 15.6 10.6595 15.6 13.415V18Z" fill="#636363"/>
</svg>
