<svg width="24" height="24" viewBox="0 0 24 24" fill="none" xmlns="http://www.w3.org/2000/svg">
<path fill-rule="evenodd" clip-rule="evenodd" d="M20 3H4C2.89543 3 2 3.89543 2 5V17C2 18.1046 2.89543 19 4 19H6.59735C6.2672 19.0014 6 19.2695 6 19.6V20.4C6 20.7314 6.26863 21 6.6 21H17.4C17.7314 21 18 20.7314 18 20.4V19.6C18 19.2695 17.7328 19.0014 17.4026 19H20C21.1046 19 22 18.1046 22 17V5C22 3.89543 21.1046 3 20 3ZM3.99998 17V5.00001H20V17H3.99998ZM6 11C6 13.2091 8.68629 15 12 15C15.3137 15 18 13.2091 18 11C18 8.79085 15.3137 6.99999 12 6.99999C8.68629 6.99999 6 8.79085 6 11ZM13.591 12.8182C15.057 12.4675 16 11.6731 16 11C16 10.3269 15.057 9.53246 13.5909 9.18183C13.8476 9.6863 14 10.3165 14 11C14 11.6835 13.8476 12.3137 13.591 12.8182ZM10.409 12.8182C10.1524 12.3137 9.99998 11.6835 9.99998 11C9.99998 10.3165 10.1524 9.68631 10.409 9.18183C8.94296 9.53247 7.99999 10.327 7.99999 11C7.99999 11.673 8.94296 12.4675 10.409 12.8182Z" fill="#636363"/>
</svg>
