<svg width="24" height="24" viewBox="0 0 24 24" fill="none" xmlns="http://www.w3.org/2000/svg">
<path fill-rule="evenodd" clip-rule="evenodd" d="M4 3H20C21.1046 3 22 3.89543 22 5V17C22 18.1046 21.1046 19 20 19H17C17.5523 19 18 19.4477 18 20C18 20.5523 17.5523 21 17 21H7C6.44771 21 6 20.5523 6 20C6 19.4477 6.44772 19 7 19H4C2.89543 19 2 18.1046 2 17V5C2 3.89543 2.89543 3 4 3ZM6 11C6 13.2091 8.68629 15 12 15C15.3137 15 18 13.2091 18 11C18 8.79086 15.3137 7 12 7C8.68629 7 6 8.79086 6 11ZM14 11C14 12.6569 13.1046 14 12 14C10.8954 14 10 12.6569 10 11C10 9.34315 10.8954 8 12 8C13.1046 8 14 9.34315 14 11Z" fill="#636363"/>
</svg>
