<svg width="24" height="24" viewBox="0 0 24 24" fill="none" xmlns="http://www.w3.org/2000/svg">
<path fill-rule="evenodd" clip-rule="evenodd" d="M10.7813 4H13.2209C13.6798 4 14.0798 4.31228 14.1911 4.75743L17.6916 18.7574C17.8256 19.2932 17.4998 19.8362 16.964 19.9701C16.8847 19.99 16.8032 20 16.7214 20H7.28079C6.72851 20 6.28079 19.5523 6.28079 19C6.28079 18.9182 6.29082 18.8368 6.31066 18.7574L9.81116 4.75743C9.92246 4.31228 10.3224 4 10.7813 4ZM5.5 9C6.32843 9 7 8.32843 7 7.5C7 6.67158 6.32843 6 5.5 6C4.67157 6 4 6.67158 4 7.5C4 8.32843 4.67157 9 5.5 9ZM20 7.5C20 8.32843 19.3284 9 18.5 9C17.6716 9 17 8.32843 17 7.5C17 6.67158 17.6716 6 18.5 6C19.3284 6 20 6.67158 20 7.5ZM20 16C21.1046 16 22 15.1046 22 14C22 12.8954 21.1046 12 20 12C18.8954 12 18 12.8954 18 14C18 15.1046 18.8954 16 20 16ZM6 14C6 15.1046 5.10457 16 4 16C2.89543 16 2 15.1046 2 14C2 12.8954 2.89543 12 4 12C5.10457 12 6 12.8954 6 14Z" fill="#636363"/>
</svg>
