<svg width="24" height="24" viewBox="0 0 24 24" fill="none" xmlns="http://www.w3.org/2000/svg">
<path fill-rule="evenodd" clip-rule="evenodd" d="M12 2C14.2091 2 16 3.79086 16 6V12C16 13.8666 14.7215 15.4346 12.9924 15.8759C12.9974 15.9166 13 15.958 13 16V17.917C13.3744 17.8542 13.737 17.7568 14.0844 17.628C14.4351 15.8422 15.8422 14.4351 17.628 14.0844C17.8686 13.4352 18 12.7329 18 12C18 11.4477 18.4477 11 19 11C19.5523 11 20 11.4477 20 12C20 12.7495 19.8969 13.475 19.7042 14.1629C21.6048 14.6895 23 16.4318 23 18.5C23 20.9853 20.9853 23 18.5 23C16.4318 23 14.6895 21.6048 14.1629 19.7042C13.7858 19.8098 13.3974 19.8885 13 19.9381V21C13 21.5523 12.5523 22 12 22C11.4477 22 11 21.5523 11 21V19.9381C7.05369 19.446 4 16.0796 4 12C4 11.4477 4.44772 11 5 11C5.55228 11 6 11.4477 6 12C6 14.973 8.16229 17.441 11 17.917V16C11 15.958 11.0026 15.9166 11.0076 15.8759C9.27853 15.4346 8 13.8666 8 12V6C8 3.79086 9.79086 2 12 2ZM18 16H19V18H21V19H19V21H18V19H16V18H18V16Z" fill="#636363"/>
</svg>
