<svg width="24" height="24" viewBox="0 0 24 24" fill="none" xmlns="http://www.w3.org/2000/svg">
<path fill-rule="evenodd" clip-rule="evenodd" d="M16 6C16 3.79086 14.2091 2 12 2C9.79086 2 8 3.79086 8 6V12C8 13.8666 9.27853 15.4346 11.0076 15.8759C11.0026 15.9166 11 15.958 11 16V17.917C8.16229 17.441 6 14.973 6 12C6 11.4477 5.55228 11 5 11C4.44772 11 4 11.4477 4 12C4 16.0796 7.05369 19.446 11 19.9381V21C11 21.5523 11.4477 22 12 22C12.5523 22 13 21.5523 13 21V19.9381C13.3974 19.8885 13.7858 19.8098 14.1629 19.7042C14.6895 21.6048 16.4318 23 18.5 23C20.9853 23 23 20.9853 23 18.5C23 16.4318 21.6048 14.6895 19.7042 14.1629C19.8969 13.475 20 12.7495 20 12C20 11.4477 19.5523 11 19 11C18.4477 11 18 11.4477 18 12C18 12.7329 17.8686 13.4352 17.628 14.0844C15.8422 14.4351 14.4351 15.8422 14.0844 17.628C13.737 17.7568 13.3744 17.8542 13 17.917V16C13 15.958 12.9974 15.9166 12.9924 15.8759C14.7215 15.4346 16 13.8666 16 12V6ZM10 6C10 4.89543 10.8954 4 12 4C13.1046 4 14 4.89543 14 6V12C14 13.1046 13.1046 14 12 14C10.8954 14 10 13.1046 10 12V6ZM18 16H19V18H21V19H19V21H18V19H16V18H18V16Z" fill="#636363"/>
</svg>
