<svg width="24" height="24" viewBox="0 0 24 24" fill="none" xmlns="http://www.w3.org/2000/svg">
<path fill-rule="evenodd" clip-rule="evenodd" d="M3 8C3 7.44772 3.44772 7 4 7H10C10.5523 7 11 7.44772 11 8C11 8.55228 10.5523 9 10 9H6.41421L13 15.5858L20.2929 8.29289C20.6834 7.90237 21.3166 7.90237 21.7071 8.29289C22.0976 8.68342 22.0976 9.31658 21.7071 9.70711L13.7071 17.7071C13.3166 18.0976 12.6834 18.0976 12.2929 17.7071L5 10.4142V14C5 14.5523 4.55228 15 4 15C3.44772 15 3 14.5523 3 14V8Z" fill="#636363"/>
</svg>
