<svg width="24" height="24" viewBox="0 0 24 24" fill="none" xmlns="http://www.w3.org/2000/svg">
<path fill-rule="evenodd" clip-rule="evenodd" d="M7.99976 4.84721C7.99976 4.35837 8.35318 3.94118 8.83537 3.86082L18.8354 2.19415C19.4449 2.09256 19.9998 2.56261 19.9998 3.18055V4.00008V6.00008V16.0001H19.9818C19.893 17.1715 19.0589 18.4197 17.7139 19.1962C15.8007 20.3008 13.5782 20.033 12.7498 18.5982C11.9213 17.1633 12.8007 15.1047 14.7139 14.0001C15.8149 13.3644 17.0185 13.1832 17.9998 13.4175V6.33342L9.99976 7.66675V18.0001H9.98246C10.0788 19.2789 9.21426 20.7319 7.71387 21.5982C5.8007 22.7027 3.57819 22.435 2.74977 21.0001C1.92134 19.5652 2.8007 17.5066 4.71387 16.402C5.81495 15.7663 7.01849 15.5852 7.99976 15.8194V8.00008V6.00008V4.84721ZM17.9459 15.5982C18.1493 15.9505 17.761 16.8596 16.7139 17.4642C15.6667 18.0688 14.6852 17.9505 14.4818 17.5982C14.2784 17.2458 14.6667 16.3367 15.7139 15.7321C16.761 15.1276 17.7425 15.2458 17.9459 15.5982ZM7.94592 18C8.14934 18.3523 7.76101 19.2614 6.71387 19.866C5.66672 20.4706 4.68524 20.3523 4.48182 20C4.27839 19.6476 4.66672 18.7385 5.71387 18.134C6.76101 17.5294 7.74249 17.6476 7.94592 18Z" fill="#636363"/>
</svg>
