<svg width="24" height="24" viewBox="0 0 24 24" fill="none" xmlns="http://www.w3.org/2000/svg">
<path fill-rule="evenodd" clip-rule="evenodd" d="M3 4C3 3.44772 3.44772 3 4 3H9C9.55228 3 10 3.44772 10 4C10 4.55228 9.55228 5 9 5H5V19H19V15C19 14.4477 19.4477 14 20 14C20.5523 14 21 14.4477 21 15V20C21 20.5523 20.5523 21 20 21H4C3.44772 21 3 20.5523 3 20V4ZM13 4C13 3.44772 13.4477 3 14 3H20C20.5523 3 21 3.44772 21 4V10C21 10.5523 20.5523 11 20 11C19.4477 11 19 10.5523 19 10V6.31371L13.1213 12.1924C12.7308 12.5829 12.0976 12.5829 11.7071 12.1924C11.3166 11.8019 11.3166 11.1687 11.7071 10.7782L17.4853 5H14C13.4477 5 13 4.55228 13 4Z" fill="#636363"/>
</svg>
