<svg width="24" height="24" viewBox="0 0 24 24" fill="none" xmlns="http://www.w3.org/2000/svg">
<path fill-rule="evenodd" clip-rule="evenodd" d="M15.5858 2H15H13H5C4.44772 2 4 2.44772 4 3V21C4 21.5523 4.44772 22 5 22H19C19.5523 22 20 21.5523 20 21V6.41421C20 6.149 19.8946 5.89464 19.7071 5.70711L16.2929 2.29289C16.1054 2.10536 15.851 2 15.5858 2ZM13 7V4H6V20H18V9H15C13.8954 9 13 8.10457 13 7ZM15 7H18V6.82843L15.1716 4H15V7ZM11 11C11 10.4477 11.4477 10 12 10C12.5523 10 13 10.4477 13 11V13H15C15.5523 13 16 13.4477 16 14C16 14.5523 15.5523 15 15 15H13V17C13 17.5523 12.5523 18 12 18C11.4477 18 11 17.5523 11 17V15H9C8.44772 15 8 14.5523 8 14C8 13.4477 8.44772 13 9 13H11V11Z" fill="#636363"/>
</svg>
