<svg width="24" height="24" viewBox="0 0 24 24" fill="none" xmlns="http://www.w3.org/2000/svg">
<path d="M3 2H21C21.5523 2 22 2.44772 22 3V21C22 21.5523 21.5523 22 21 22H3C2.44772 22 2 21.5523 2 21V3C2 2.44772 2.44772 2 3 2ZM5.34229 10.6276C4.10214 10.6276 3.09686 11.6329 3.09686 12.873C3.09686 14.1131 4.10214 15.1184 5.34229 15.1184C6.58243 15.1184 7.58771 14.1131 7.58771 12.873C7.58771 11.6329 6.58229 10.6276 5.34229 10.6276ZM5.34229 13.9957C4.72229 13.9957 4.21957 13.493 4.21957 12.873C4.21957 12.253 4.72229 11.7503 5.34229 11.7503C5.96229 11.7503 6.465 12.253 6.465 12.873C6.465 13.493 5.96229 13.9957 5.34229 13.9957ZM9.285 13.6257C9.285 13.4483 9.50071 13.3603 9.62471 13.4871C10.1849 14.06 11.1149 15.0394 11.1206 15.0449C11.1347 15.0586 11.1466 15.0806 11.201 15.0967C11.2247 15.1037 11.2607 15.1061 11.2971 15.1061L12.31 15.1057C12.492 15.1057 12.5481 14.895 12.4617 14.789L10.7837 13.0689L10.6964 12.9774C10.5056 12.7496 10.526 12.661 10.7441 12.43L12.0776 10.949C12.164 10.8429 12.1089 10.6353 11.9217 10.6353H11.0043C10.9679 10.6353 10.9406 10.6354 10.9169 10.6424C10.8624 10.6586 10.8419 10.6801 10.8279 10.6939C10.8223 10.6993 10.0861 11.4926 9.63329 11.9804C9.50943 12.1139 9.28629 12.0263 9.28629 11.8441L9.28571 9.29786C9.28571 9.16786 9.179 9.11943 9.09314 9.11943H8.34229C8.21214 9.11943 8.14829 9.206 8.14829 9.28229V14.9329C8.14829 15.0629 8.257 15.0984 8.34286 15.0984H9.09314C9.20943 15.0984 9.28514 15.0149 9.28514 14.9281V14.8706V13.6257H9.285ZM15.4111 14.904L15.3309 14.1523C15.3199 14.0494 15.2249 13.9784 15.1227 13.9944C15.0661 14.0033 15.008 14.008 14.949 14.008C14.3493 14.008 13.8624 13.5377 13.831 12.9457C13.83 12.9257 13.8324 12.9056 13.8324 12.8853V11.9689C13.8324 11.849 13.9209 11.752 14.0407 11.752L15.0454 11.7527C15.1187 11.7527 15.2219 11.692 15.2219 11.5587V10.8473C15.2219 10.711 15.1331 10.6354 15.0541 10.6354H14.0421C13.9251 10.6354 13.8303 10.5496 13.83 10.4326L13.828 9.29657C13.828 9.22686 13.7764 9.11957 13.634 9.11957H12.8867C12.7923 9.11957 12.7027 9.17686 12.7027 9.29214C12.7027 9.29214 12.7021 12.9274 12.7027 12.9476C12.7349 14.1597 13.729 15.1316 14.9489 15.1316C15.0504 15.1316 15.1504 15.1241 15.2483 15.111C15.3497 15.0973 15.422 15.0056 15.4111 14.904ZM20.818 13.962C20.1821 13.962 20.0871 13.7361 20.0857 12.8806C20.0857 12.8779 20.0853 12.8751 20.0853 12.8723L20.0839 10.8254C20.0839 10.7557 20.032 10.6353 19.8894 10.6353H19.1407C19.0463 10.6353 18.9459 10.7101 18.9459 10.8254L18.9461 10.9207C18.6194 10.7351 18.2419 10.6277 17.8393 10.6277C16.5991 10.6277 15.5939 11.6326 15.5939 12.8727C15.5939 14.1129 16.5991 15.1179 17.8393 15.1179C18.3961 15.1179 18.9051 14.9146 19.2976 14.579C19.509 14.9004 19.8483 15.1139 20.3779 15.1179C20.4684 15.1186 20.9483 15.1339 20.9483 14.9097V14.1111C20.9481 14.0369 20.8924 13.962 20.818 13.962ZM17.84 13.9953C17.22 13.9953 16.7173 13.4926 16.7173 12.8726C16.7173 12.2526 17.22 11.7499 17.84 11.7499C18.46 11.7499 18.9627 12.2526 18.9627 12.8726C18.9627 13.4927 18.46 13.9953 17.84 13.9953Z" fill="#636363"/>
</svg>
