<svg xmlns="http://www.w3.org/2000/svg" xmlns:xlink="http://www.w3.org/1999/xlink" width="24" height="24" viewBox="0 0 24 24">
  <defs>
    <path id="onedrive-a" d="M16.6182967,8.33120222 C16.4801455,8.35652412 16.3439192,8.38994684 16.210175,8.4312294 C15.3549813,7.63793145 14.2393785,7.18181818 13.0526316,7.18181818 C11.0017971,7.18181818 9.2331583,8.53952374 8.58203809,10.4639109 C6.6686594,10.6021958 5.15789474,12.254617 5.15789474,14.2727273 C5.15789474,14.8583258 5.28510055,15.4131334 5.51243745,15.9090909 L4.63157895,15.9090909 C3.17819803,15.9090909 2,14.6880493 2,13.1818182 C2,11.8622297 2.90429905,10.761532 4.10569164,10.5090107 C4.10540635,10.490891 4.10526316,10.4727356 4.10526316,10.4545455 C4.10526316,8.64706809 5.51910079,7.18181818 7.26315789,7.18181818 C7.7806867,7.18181818 8.26913845,7.31083887 8.70019938,7.53953688 C9.36668893,6.04051189 10.8292537,5 12.5263158,5 C14.5085166,5 16.1707999,6.41953741 16.6182967,8.33120222 Z M19.8947368,12.0909091 C19.8947368,12.2779461 19.8765696,12.4605856 19.841964,12.6370357 C19.8595026,12.6365885 19.8770944,12.6363636 19.8947368,12.6363636 C21.0574416,12.6363636 22,13.6131969 22,14.8181818 C22,16.0231667 21.0574416,17 19.8947368,17 L8.84210526,17 C7.38872434,17 6.21052632,15.7789584 6.21052632,14.2727273 C6.21052632,12.7664961 7.38872434,11.5454545 8.84210526,11.5454545 C9.03275314,11.5454545 9.21866594,11.566465 9.39780545,11.6063736 C9.62753599,9.72642412 11.1762759,8.27272727 13.0526316,8.27272727 C14.2267419,8.27272727 15.2725742,8.84192263 15.9472286,9.72858072 C16.3343304,9.49647874 16.783775,9.36363636 17.2631579,9.36363636 C18.7165388,9.36363636 19.8947368,10.584678 19.8947368,12.0909091 Z"/>
  </defs>
  <g fill="none" fill-rule="evenodd">
    <rect width="24" height="24"/>
    <use fill="#1C2025" xlink:href="#onedrive-a"/>
  </g>
</svg>
