<svg width="24" height="24" viewBox="0 0 24 24" fill="none" xmlns="http://www.w3.org/2000/svg">
<path fill-rule="evenodd" clip-rule="evenodd" d="M9 5C9 5.55699 9.15179 6.07852 9.41626 6.52549C8.38877 7.11101 8 8.18585 8 9.75C8 10.5833 8.33333 11 9 11H11V13.2426L8.92261 15.32C8.61457 13.9907 7.42298 13 6 13C4.34315 13 3 14.3431 3 16C3 16.557 3.15179 17.0785 3.41626 17.5255C2.38878 18.111 2 19.1859 2 20.75C2 21.5833 2.33333 22 3 22H9C9.66667 22 10 21.5833 10 20.75C10 19.502 9.7525 18.5655 9.13056 17.9405L12.0034 15.0676L14.8729 17.9371C14.2484 18.5621 14 19.4997 14 20.75C14 21.5833 14.3333 22 15 22H21C21.6667 22 22 21.5833 22 20.75C22 19.1859 21.6112 18.111 20.5837 17.5255C20.8482 17.0785 21 16.557 21 16C21 14.3431 19.6569 13 18 13C16.579 13 15.3888 13.988 15.0787 15.3145L13 13.2358V11H15C15.6667 11 16 10.5833 16 9.75C16 8.18585 15.6112 7.11102 14.5837 6.52549C14.8482 6.07852 15 5.55699 15 5C15 3.34315 13.6569 2 12 2C10.3431 2 9 3.34315 9 5Z" fill="#636363"/>
</svg>
