<svg width="24" height="24" viewBox="0 0 24 24" fill="none" xmlns="http://www.w3.org/2000/svg">
<path fill-rule="evenodd" clip-rule="evenodd" d="M20.0208 5.05025C17.2871 2.31658 12.855 2.31658 10.1213 5.05025L4.46447 10.7071C2.51184 12.6597 2.51184 15.8256 4.46447 17.7782C6.41709 19.7308 9.58291 19.7308 11.5355 17.7782L17.1924 12.1213C18.364 10.9497 18.364 9.05025 17.1924 7.87868C16.0208 6.70711 14.1213 6.70711 12.9497 7.87868L7.29289 13.5355C6.90237 13.9261 6.90237 14.5592 7.29289 14.9497C7.68342 15.3403 8.31658 15.3403 8.70711 14.9497L14.364 9.29289C14.7545 8.90237 15.3876 8.90237 15.7782 9.29289C16.1687 9.68342 16.1687 10.3166 15.7782 10.7071L10.1213 16.364C8.94975 17.5355 7.05025 17.5355 5.87868 16.364C4.70711 15.1924 4.70711 13.2929 5.87868 12.1213L11.5355 6.46447C13.4882 4.51184 16.654 4.51184 18.6066 6.46447C20.5592 8.41709 20.5592 11.5829 18.6066 13.5355L12.9497 19.1924C12.5592 19.5829 12.5592 20.2161 12.9497 20.6066C13.3403 20.9971 13.9734 20.9971 14.364 20.6066L20.0208 14.9497C22.7545 12.2161 22.7545 7.78392 20.0208 5.05025Z" fill="#636363"/>
</svg>
