<svg width="24" height="24" viewBox="0 0 24 24" fill="none" xmlns="http://www.w3.org/2000/svg">
<path fill-rule="evenodd" clip-rule="evenodd" d="M3.00516 3.89776C3.05637 3.3935 3.48223 3 4 3H14C14.5523 3 15 3.44772 15 4C15 4.55228 14.5523 5 14 5H5V19H19V10C19 9.44771 19.4477 9 20 9C20.5523 9 21 9.44772 21 10V20C21 20.5523 20.5523 21 20 21H4C3.44772 21 3 20.5523 3 20V4C3 3.96548 3.00175 3.93137 3.00516 3.89776ZM18.5717 6.85068L12.1708 13.2516L9.30466 14.9713C9.20939 15.0285 9.08583 14.9976 9.02867 14.9023C8.99044 14.8386 8.99044 14.759 9.02867 14.6953L10.7483 11.8292L17.1493 5.42825L18.5717 6.85068ZM20.7054 3.2946C21.0982 3.68739 21.0982 4.32424 20.7054 4.71703L19.283 6.13947L17.8605 4.71703L19.283 3.2946C19.6758 2.9018 20.3126 2.9018 20.7054 3.2946Z" fill="#636363"/>
</svg>
