<svg width="24" height="24" viewBox="0 0 24 24" fill="none" xmlns="http://www.w3.org/2000/svg">
<path fill-rule="evenodd" clip-rule="evenodd" d="M18.5 1C16.0147 1 14 3.01472 14 5.5C14 7.98528 16.0147 10 18.5 10C20.9853 10 23 7.98528 23 5.5C23 3.01472 20.9853 1 18.5 1ZM2.39051 3.31168C3.42889 1.55622 8.19924 1.68419 9.50437 2.97757C10.3673 3.8327 11.1009 7.57852 10.9005 8.6805C10.8385 9.02143 10.3657 9.49268 9.98508 9.87198L9.98502 9.87203C9.90473 9.95205 9.82855 10.028 9.7612 10.0977C9.38285 10.4895 10.6984 11.7761 11.4653 12.517C12.282 13.3053 13.6137 14.5752 13.9921 14.1834C14.0594 14.1137 14.1327 14.0349 14.2099 13.9518C14.5756 13.5582 15.0301 13.0692 15.3687 12.9953C16.463 12.7566 20.2321 13.3591 21.1168 14.1916C22.455 15.4508 22.7494 20.2138 21.0312 21.3128C18.5397 22.9064 11.412 20.0752 7.69429 16.521C3.96303 12.8818 0.884787 5.85724 2.39051 3.31168ZM15.5207 18.9732C17.7021 19.7857 19.4597 19.9438 19.9535 19.628C20.3693 19.362 20.3135 16.1819 19.7462 15.6481C19.4939 15.4106 16.9942 14.9197 16.0436 14.9283C16.0118 14.9593 15.9766 14.9946 15.9382 15.034C15.8704 15.1038 15.8075 15.1706 15.6881 15.2991C15.5466 15.4514 15.5019 15.4991 15.4307 15.5727C14.6441 16.3874 13.6852 16.4045 12.8146 16.0585C12.4351 15.9077 12.078 15.686 11.6908 15.3923C11.214 15.0308 10.7939 14.6487 10.1261 14.0041L10.0757 13.9554C9.40781 13.3102 9.01128 12.9036 8.63333 12.4398C8.32632 12.063 8.09231 11.7139 7.92832 11.3399C7.55216 10.4819 7.53584 9.52303 8.32252 8.7084C8.39365 8.63475 8.43976 8.58843 8.58698 8.4417C8.71127 8.31783 8.77582 8.25268 8.84318 8.18243C8.88128 8.1427 8.91533 8.10629 8.94523 8.07342C8.92056 7.1231 8.34272 4.6421 8.09657 4.39817C7.54332 3.8499 4.36321 3.90506 4.11191 4.32991C3.81349 4.83442 4.03284 6.58544 4.92104 8.73715C5.89476 11.096 7.45437 13.4935 9.04139 15.0416C10.6788 16.6074 13.1293 18.0824 15.5207 18.9732ZM19 5H21V6H19H18V3H19V5Z" fill="#636363"/>
</svg>
