<svg width="24" height="24" viewBox="0 0 24 24" fill="none" xmlns="http://www.w3.org/2000/svg">
<path fill-rule="evenodd" clip-rule="evenodd" d="M20.7457 21.5735C18.2268 23.1235 11.1496 20.1683 7.49432 16.5498L7.44543 16.5007C3.82703 12.8454 0.872152 5.76863 2.42201 3.24984C3.49087 1.51276 8.25826 1.72398 9.54062 3.03994C10.3885 3.91 11.0567 7.66805 10.837 8.76637C10.7691 9.10615 10.2881 9.56909 9.90094 9.94168L9.90093 9.94168C9.81923 10.0203 9.74172 10.0949 9.67314 10.1635C9.28802 10.5486 10.5809 11.858 11.3348 12.6122L11.3834 12.6608C12.1376 13.4146 13.4469 14.7075 13.8321 14.3224C13.9006 14.2538 13.9752 14.1763 14.0539 14.0946C14.4265 13.7075 14.8894 13.2264 15.2292 13.1585C16.3275 12.9389 20.0856 13.6071 20.9556 14.4549C22.2716 15.7373 22.4828 20.5047 20.7457 21.5735ZM4.12538 4.29796C3.8182 4.79718 4.00696 6.55176 4.85747 8.71865C5.78987 11.0942 7.3074 13.5185 8.85986 15.0871L8.90154 15.1284C10.477 16.6881 12.9014 18.2057 15.2769 19.1381C17.4438 19.9886 19.1984 20.1773 19.6976 19.8702C20.118 19.6115 20.1176 16.4309 19.5598 15.8873C19.3116 15.6455 16.8209 15.111 15.8703 15.1029C15.8189 15.1513 15.7607 15.2086 15.6932 15.2771C15.6734 15.2971 15.62 15.3523 15.5558 15.4187L15.5551 15.4193L15.5546 15.4199C15.4439 15.5342 15.3021 15.6808 15.2463 15.7366C14.4455 16.5374 13.4865 16.5378 12.6221 16.1767C12.2452 16.0192 11.8921 15.7914 11.51 15.491C11.0396 15.1212 10.6263 14.7318 9.96935 14.0752L9.92023 14.0261C9.26374 13.3693 8.87437 12.9559 8.50457 12.4855C8.20418 12.1034 7.9763 11.7503 7.81886 11.3735C7.45774 10.5091 7.45815 9.55004 8.25893 8.74927C8.31471 8.69349 8.46122 8.5517 8.57551 8.44109L8.57565 8.44096L8.57579 8.44082C8.6426 8.37616 8.69835 8.3222 8.71847 8.30237C8.78699 8.23484 8.84421 8.17669 8.89262 8.12527C8.88455 7.17467 8.35009 4.68394 8.10823 4.43574C7.56464 3.87791 4.38406 3.87756 4.12538 4.29796ZM14.4142 8.29289L13 6.87868C14.1716 5.70711 16.0711 5.70711 17.2426 6.87868C18.4142 8.05025 18.4142 9.94975 17.2426 11.1213L15.8284 9.70711C16.219 9.31658 16.219 8.68342 15.8284 8.29289C15.4379 7.90237 14.8047 7.90237 14.4142 8.29289ZM15 3.17157L16.4142 4.58579C17.1953 3.80474 18.4616 3.80474 19.2426 4.58579C20.0237 5.36683 20.0237 6.63316 19.2426 7.41421L20.6569 8.82843C22.219 7.26633 22.219 4.73367 20.6569 3.17157C19.0948 1.60948 16.5621 1.60948 15 3.17157Z" fill="#636363"/>
</svg>
