<svg width="24" height="24" viewBox="0 0 24 24" fill="none" xmlns="http://www.w3.org/2000/svg">
<path fill-rule="evenodd" clip-rule="evenodd" d="M2.4206 3.27026C0.868971 5.79194 3.84752 12.8974 7.47595 16.5258L7.47995 16.5216C11.1086 20.1498 18.2082 23.1312 20.7297 21.5797C22.461 20.5144 22.2991 16.3086 20.9876 15.0305C20.1204 14.1855 17.4656 13.7484 16.3709 13.9673C16.0279 14.0359 15.0699 15.0259 14.536 15.5776L14.536 15.5776L14.5359 15.5777L14.5356 15.578C14.4313 15.6858 14.3432 15.7768 14.2791 15.841C13.8869 16.2332 11.3814 14.0943 10.6387 13.3516L7.88917 16.1098C8.74627 15.2483 10.6384 13.3491 10.6384 13.3491C9.89567 12.6064 7.76712 10.1131 8.15934 9.72093C8.22352 9.65675 8.31466 9.56854 8.4226 9.4641L8.42267 9.46402C8.97435 8.93016 9.96439 7.97209 10.033 7.6291C10.2519 6.53445 9.81478 3.87959 8.96977 3.01243C7.6917 1.70087 3.48588 1.53899 2.4206 3.27026ZM14.4142 8.29289L13 6.87868C14.1716 5.70711 16.0711 5.70711 17.2426 6.87868C18.4142 8.05025 18.4142 9.94975 17.2426 11.1213L15.8284 9.70711C16.219 9.31658 16.219 8.68342 15.8284 8.29289C15.4379 7.90237 14.8047 7.90237 14.4142 8.29289ZM15 3.17157L16.4142 4.58579C17.1953 3.80474 18.4616 3.80474 19.2426 4.58579C20.0237 5.36683 20.0237 6.63316 19.2426 7.41421L20.6569 8.82843C22.219 7.26633 22.219 4.73367 20.6569 3.17157C19.0948 1.60948 16.5621 1.60948 15 3.17157Z" fill="#636363"/>
</svg>
