<svg width="24" height="24" viewBox="0 0 24 24" fill="none" xmlns="http://www.w3.org/2000/svg">
<path fill-rule="evenodd" clip-rule="evenodd" d="M12 22C6.47715 22 2 17.5228 2 12C2 6.47715 6.47715 2 12 2C17.5228 2 22 6.47715 22 12C22 17.5228 17.5228 22 12 22ZM9.73998 14.2608C11.5543 16.0749 15.1041 17.5656 16.3649 16.7899C17.2305 16.2572 17.1496 14.1543 16.4938 13.5153C16.0602 13.0928 14.7328 12.8742 14.1855 12.9837C14.014 13.0179 13.5349 13.513 13.268 13.7888L13.268 13.7888C13.2157 13.8428 13.1716 13.8884 13.1395 13.9205C12.9434 14.1166 11.6907 13.0471 11.3193 12.6758L9.94475 14.0547C10.3734 13.6239 11.3192 12.6746 11.3192 12.6746C10.9478 12.3032 9.88356 11.0566 10.0797 10.8605C10.1118 10.8284 10.1574 10.7842 10.2113 10.732C10.4872 10.4651 10.9822 9.98605 11.0165 9.81455C11.1259 9.26723 10.9074 7.93979 10.4849 7.50622C9.84585 6.85043 7.74294 6.7695 7.2103 7.63513C6.43449 8.89597 7.92376 12.4487 9.73798 14.2629C9.73797 14.2629 9.73865 14.2622 9.73998 14.2608Z" fill="#636363"/>
</svg>
