<svg width="24" height="24" viewBox="0 0 24 24" fill="none" xmlns="http://www.w3.org/2000/svg">
<path fill-rule="evenodd" clip-rule="evenodd" d="M16.4076 9.38064H19.0004C19.5525 9.38064 20.0001 9.82823 20.0001 10.3804C20.0001 10.9325 19.5525 11.3801 19.0004 11.3801H14.0001H13.9998C13.4487 11.3801 13.0018 10.9342 13.0001 10.3835L13.0001 10.3801V5.38202C13.0001 4.82974 13.4478 4.38203 14.0001 4.38203C14.5524 4.38203 15.0001 4.82974 15.0001 5.38203V7.95973L20.6669 2.29289C21.0575 1.90237 21.6906 1.90237 22.0812 2.29289C22.4717 2.68342 22.4717 3.31658 22.0812 3.70711L16.4076 9.38064ZM7.51678 16.5949C11.172 20.2133 18.2493 23.1685 20.7682 21.6186C22.5052 20.5497 22.294 15.7823 20.9781 14.5C20.108 13.6521 16.35 12.9839 15.2516 13.2035C14.9119 13.2715 14.4489 13.7525 14.0763 14.1397C13.9977 14.2214 13.9231 14.2989 13.8545 14.3675C13.4694 14.7526 12.16 13.4597 11.4058 12.7058L11.3572 12.6572C10.6034 11.903 9.31048 10.5937 9.6956 10.2085C9.76418 10.14 9.8417 10.0654 9.92339 9.98673L9.9234 9.98673L9.9234 9.98672C10.3105 9.61413 10.7916 9.1512 10.8595 8.81141C11.0791 7.7131 10.4109 3.95504 9.56308 3.08499C8.28072 1.76902 3.51333 1.55781 2.44447 3.29489C0.894613 5.81368 3.84949 12.8905 7.46789 16.5457L7.51678 16.5949ZM15.2994 19.1831C17.4662 20.0336 19.2208 20.2224 19.7201 19.9152C20.1404 19.6565 20.1401 16.476 19.5823 15.9324C19.3341 15.6905 16.8433 15.156 15.8927 15.148C15.8413 15.1964 15.7832 15.2536 15.7156 15.3221C15.6959 15.3421 15.6426 15.3972 15.5785 15.4634L15.5771 15.4649L15.577 15.465L15.5768 15.4652C15.4662 15.5794 15.3245 15.7259 15.2687 15.7817C14.468 16.5824 13.5089 16.5829 12.6445 16.2217C12.2677 16.0643 11.9146 15.8364 11.5325 15.536C11.0621 15.1662 10.6487 14.7768 9.99181 14.1202L9.94269 14.0711C9.2862 13.4143 8.89683 13.0009 8.52703 12.5306C8.22664 12.1485 7.99876 11.7954 7.84132 11.4185C7.4802 10.5541 7.48061 9.59509 8.28139 8.79432C8.33717 8.73853 8.48368 8.59675 8.59797 8.48614L8.59811 8.486L8.59825 8.48587C8.66506 8.42121 8.72081 8.36725 8.74093 8.34742C8.80945 8.27989 8.86668 8.22173 8.91508 8.17032C8.90701 7.21972 8.37255 4.72899 8.13069 4.48079C7.5871 3.92296 4.40652 3.92261 4.14784 4.343C3.84066 4.84223 4.02942 6.59681 4.87993 8.7637C5.81233 11.1392 7.32986 13.5636 8.88963 15.1391C10.4995 16.7332 12.9238 18.2507 15.2994 19.1831Z" fill="#636363"/>
</svg>
