<svg width="24" height="24" viewBox="0 0 24 24" fill="none" xmlns="http://www.w3.org/2000/svg">
<path fill-rule="evenodd" clip-rule="evenodd" d="M9.39597 3.1182C8.09085 1.82482 3.32049 1.69684 2.28211 3.45231C0.776389 5.99786 3.85463 13.0225 7.58589 16.6616C11.3036 20.2159 18.4314 23.0471 20.9228 21.4534C22.641 20.3544 22.3466 15.5914 21.0084 14.3322C20.1237 13.4997 16.3546 12.8972 15.2603 13.1359C14.9217 13.2098 14.4672 13.6988 14.1015 14.0924C14.0243 14.1755 13.951 14.2543 13.8837 14.324C13.5053 14.7158 12.1736 13.446 11.3569 12.6577C10.59 11.9167 9.27446 10.6301 9.6528 10.2383C9.72017 10.1686 9.79637 10.0926 9.87668 10.0126C10.2573 9.63331 10.7301 9.16205 10.7921 8.82113C10.9925 7.71915 10.2589 3.97333 9.39597 3.1182ZM19.8451 19.7686C19.3513 20.0844 17.5937 19.9263 15.4123 19.1138C13.0209 18.223 10.5704 16.748 8.93299 15.1822C7.34597 13.6341 5.78636 11.2367 4.81264 8.87778C3.92444 6.72606 3.70509 4.97504 4.00351 4.47053C4.25481 4.04569 7.43492 3.99053 7.98817 4.53879C8.23432 4.78273 8.81216 7.26372 8.83683 8.21405C8.80693 8.24691 8.77288 8.28332 8.73478 8.32306C8.66742 8.3933 8.60287 8.45845 8.47858 8.58232C8.33136 8.72906 8.28525 8.77537 8.21412 8.84903C7.42744 9.66366 7.44377 10.6225 7.81992 11.4805C7.98391 11.8546 8.21792 12.2037 8.52493 12.5804C8.90288 13.0443 9.29941 13.4508 9.96727 14.096L10.0177 14.1447C10.6855 14.7893 11.1056 15.1714 11.5824 15.533C11.9696 15.8266 12.3267 16.0483 12.7062 16.1992C13.5768 16.5451 14.5357 16.528 15.3224 15.7134C15.3935 15.6397 15.4382 15.592 15.5797 15.4398C15.6991 15.3112 15.762 15.2444 15.8298 15.1747C15.8682 15.1352 15.9034 15.0999 15.9352 15.0689C16.8858 15.0604 19.3855 15.5513 19.6378 15.7888C20.2051 16.3225 20.2609 19.5026 19.8451 19.7686Z" fill="#636363"/>
</svg>
