<svg width="24" height="24" viewBox="0 0 24 24" fill="none" xmlns="http://www.w3.org/2000/svg">
<path fill-rule="evenodd" clip-rule="evenodd" d="M8.65882 9.73785C8.23531 9.73785 8.01571 10.4919 8 12C8.01571 13.5081 8.23531 14.2622 8.65882 14.2622C8.78177 14.2622 8.89924 14.2602 9.0107 14.2583L9.01084 14.2583C9.47524 14.2506 9.83526 14.2446 10.0518 14.389C10.7687 14.867 12.4494 17.2745 12.4614 18.2089C12.4797 19.6222 9.00148 22.3302 7.47525 21.9668C5.25224 21.4374 3 15.9605 3 12C3 8.03955 5.25224 2.56263 7.47525 2.03322C9.00148 1.66976 12.4797 4.37777 12.4614 5.79106C12.4494 6.72548 10.7687 9.13304 10.0518 9.61099C9.83526 9.75539 9.47524 9.7494 9.01084 9.74166C8.89934 9.7398 8.78182 9.73785 8.65882 9.73785ZM9.84926 6.77424C10.0659 6.44443 10.2484 6.12552 10.3689 5.86782C10.3608 5.82996 10.3438 5.80737 10.3255 5.78387C10.0957 5.48816 9.74116 5.14664 9.33346 4.8352C8.92159 4.52059 8.49196 4.26441 8.13252 4.11486C8.01623 4.06648 7.91665 4.03322 7.84069 4.01453C6.833 4.50108 5 8.81174 5 12C5 15.1883 6.833 19.4989 7.84069 19.9855C7.91665 19.9668 8.01623 19.9335 8.13252 19.8851C8.49196 19.7356 8.92159 19.4794 9.33346 19.1648C9.74116 18.8534 10.0957 18.5118 10.3255 18.2161C10.3438 18.1926 10.3608 18.17 10.3765 18.1485C10.2484 17.8745 10.0659 17.5556 9.84926 17.2258C9.59594 16.8401 9.31332 16.4749 9.1301 16.2567L9.02773 16.2583C8.86409 16.2611 8.7714 16.2622 8.65882 16.2622C7.33184 16.2622 6.58583 15.3875 6.25626 14.2559C6.0854 13.6692 6.0097 12.9414 6.00011 11.9792C6.0097 11.0586 6.0854 10.3308 6.25626 9.74414C6.58583 8.61253 7.33184 7.73785 8.65882 7.73785C8.7714 7.73785 8.86409 7.73895 9.02773 7.74167L9.1301 7.74326C9.31332 7.5251 9.59594 7.15992 9.84926 6.77424ZM12.5 13H18.5858L16.2929 15.2929C15.9024 15.6834 15.9024 16.3166 16.2929 16.7071C16.6834 17.0976 17.3166 17.0976 17.7071 16.7071L21.7071 12.7071C22.0976 12.3166 22.0976 11.6834 21.7071 11.2929L17.7071 7.29289C17.3166 6.90237 16.6834 6.90237 16.2929 7.29289C15.9024 7.68342 15.9024 8.31658 16.2929 8.70711L18.5858 11H12.5C11.9727 11 11.5453 11.4477 11.5453 12C11.5453 12.5523 11.9727 13 12.5 13Z" fill="#636363"/>
</svg>
