<svg width="24" height="24" viewBox="0 0 24 24" fill="none" xmlns="http://www.w3.org/2000/svg">
<path fill-rule="evenodd" clip-rule="evenodd" d="M3.23313 21.7518L8.38078 17.9326L10.7116 20.2635C11.4927 21.0445 12.759 21.0445 13.54 20.2635L14.2471 19.5563C15.0282 18.7753 15.0282 17.509 14.2471 16.7279L13.8936 16.3744L14.7229 14.9922C14.8752 14.7383 15.0821 14.5214 15.3285 14.3571L17.4998 12.9095L17.7827 13.1924C18.5637 13.9734 19.8301 13.9734 20.6111 13.1924L21.3182 12.4853C22.0993 11.7042 22.0993 10.4379 21.3182 9.65685L14.2471 2.58579C13.4661 1.80474 12.1998 1.80474 11.4187 2.58579L10.7116 3.29289C9.93056 4.07394 9.93056 5.34027 10.7116 6.12132L11.1359 6.54558L9.97056 8.70973C9.76322 9.0948 9.43537 9.40129 9.03723 9.58227L7.70641 10.1872L7.17608 9.65685C6.39503 8.87581 5.1287 8.87581 4.34765 9.65685L3.64054 10.364C2.85949 11.145 2.85949 12.4113 3.64054 13.1924L5.97138 15.5232L2.15216 20.6709C1.92394 20.9785 1.95549 21.4068 2.22633 21.6777C2.49716 21.9485 2.92553 21.9801 3.23313 21.7518ZM17.7547 10.336L14.2191 12.693C13.7263 13.0216 13.3126 13.4554 13.0079 13.9633L11.3752 16.6844L12.8329 18.1421L12.1258 18.8492L5.05476 11.7782L5.76186 11.0711L7.27224 12.5814L9.86483 11.403C10.6611 11.041 11.3168 10.4281 11.7315 9.65793L13.6023 6.18359L12.1258 4.70711L12.8329 4L19.904 11.0711L19.1969 11.7782L17.7547 10.336Z" fill="#636363"/>
</svg>
