<svg width="24" height="24" viewBox="0 0 24 24" fill="none" xmlns="http://www.w3.org/2000/svg">
<path d="M8.38078 17.9326L3.23313 21.7518C2.92553 21.9801 2.49716 21.9485 2.22633 21.6777C1.95549 21.4068 1.92394 20.9785 2.15216 20.6709L5.97138 15.5232L3.64054 13.1924C2.85949 12.4113 2.85949 11.145 3.64054 10.364L4.34765 9.65685C5.1287 8.87581 6.39503 8.87581 7.17608 9.65685L7.70641 10.1872L9.03723 9.58227C9.43537 9.40129 9.76322 9.0948 9.97056 8.70973L11.1359 6.54558L10.7116 6.12132C9.93056 5.34027 9.93056 4.07394 10.7116 3.29289L11.4187 2.58579C12.1998 1.80474 13.4661 1.80474 14.2471 2.58579L21.3182 9.65685C22.0993 10.4379 22.0993 11.7042 21.3182 12.4853L20.6111 13.1924C19.8301 13.9734 18.5637 13.9734 17.7827 13.1924L17.4998 12.9095L15.3285 14.3571C15.0821 14.5214 14.8752 14.7383 14.7229 14.9922L13.8936 16.3744L14.2471 16.7279C15.0282 17.509 15.0282 18.7753 14.2471 19.5563L13.54 20.2635C12.759 21.0445 11.4927 21.0445 10.7116 20.2635L8.38078 17.9326Z" fill="#636363"/>
</svg>
