<svg width="24" height="24" viewBox="0 0 24 24" fill="none" xmlns="http://www.w3.org/2000/svg">
<path fill-rule="evenodd" clip-rule="evenodd" d="M2 12C2 17.5228 6.47715 22 12 22C17.5228 22 22 17.5228 22 12C22 6.47715 17.5228 2 12 2C6.47715 2 2 6.47715 2 12ZM10.6 16.8L15.9333 12.8C16.0091 12.7431 16.0765 12.6758 16.1333 12.6C16.4647 12.1582 16.3752 11.5314 15.9333 11.2L10.6 7.2C10.4269 7.07018 10.2164 7 10 7C9.44772 7 9 7.44772 9 8V16C9 16.2164 9.07018 16.4269 9.2 16.6C9.53137 17.0418 10.1582 17.1314 10.6 16.8Z" fill="#636363"/>
</svg>
