<svg width="24" height="24" viewBox="0 0 24 24" fill="none" xmlns="http://www.w3.org/2000/svg">
<path fill-rule="evenodd" clip-rule="evenodd" d="M12 22C6.47715 22 2 17.5228 2 12C2 6.47715 6.47715 2 12 2C17.5228 2 22 6.47715 22 12C22 13.0978 21.8231 14.1543 21.4963 15.1425C22.4191 15.9666 23 17.1654 23 18.5C23 20.9853 20.9853 23 18.5 23C17.1654 23 15.9666 22.4191 15.1425 21.4963C14.1543 21.8231 13.0978 22 12 22ZM20 12C20 12.7495 19.8969 13.475 19.7042 14.1629C19.3209 14.0567 18.9171 14 18.5 14C16.0147 14 14 16.0147 14 18.5C14 18.9171 14.0567 19.3209 14.1629 19.7042C13.475 19.8969 12.7495 20 12 20C7.58172 20 4 16.4183 4 12C4 7.58172 7.58172 4 12 4C16.4183 4 20 7.58172 20 12ZM10.6 16.8L15.9333 12.8C16.4667 12.4 16.4667 11.6 15.9333 11.2L10.6 7.2C9.94076 6.70557 9 7.17595 9 8V16C9 16.824 9.94076 17.2944 10.6 16.8ZM18.5024 18.2073L18.5002 17.1334L18.5019 18.2069C18.219 18.2069 17.3345 18.2767 17.3345 18.4261C17.3345 18.4505 17.335 18.4847 17.3357 18.5252C17.3391 18.7319 17.3452 19.1029 17.2929 19.1813C17.1261 19.4315 16.5373 19.8539 16.2112 19.8581C15.718 19.8644 14.8862 19.0943 15.013 18.5617C15.1977 17.786 17.1177 17.0016 18.4997 17.0016L18.4997 17C19.8818 17 21.8023 17.786 21.987 18.5617C22.1138 19.0943 21.282 19.8645 20.7888 19.8581C20.4627 19.8539 19.8739 19.4315 19.7071 19.1814C19.6548 19.103 19.6609 18.732 19.6643 18.5252C19.665 18.4848 19.6655 18.4506 19.6655 18.4261C19.6655 18.2767 18.7853 18.2073 18.5024 18.2073Z" fill="#636363"/>
</svg>
