<svg width="24" height="24" viewBox="0 0 24 24" fill="none" xmlns="http://www.w3.org/2000/svg">
<path fill-rule="evenodd" clip-rule="evenodd" d="M22 4C22 2.89543 21.1046 2 20 2H10C8.89543 2 8 2.89543 8 4V6H4C2.89543 6 2 6.89543 2 8V20C2 21.1046 2.89543 22 4 22H16C17.1046 22 18 21.1046 18 20V18H20C21.1046 18 22 17.1046 22 16V4ZM10 6V4H20V16H18V8C18 6.89543 17.1046 6 16 6H10ZM8 14.5229V12C8 11.4477 7.55228 11 7 11C6.44772 11 6 11.4477 6 12V16.9555V17C6 17.5523 6.44772 18 7 18H12C12.5523 18 13 17.5523 13 17C13 16.4477 12.5523 16 12 16H9.47709L13.6941 11.783C14.102 11.3751 14.102 10.7138 13.6941 10.3059C13.2862 9.89803 12.6249 9.89803 12.217 10.3059L8 14.5229Z" fill="#636363"/>
</svg>
