<svg width="24" height="24" viewBox="0 0 24 24" fill="none" xmlns="http://www.w3.org/2000/svg">
<path fill-rule="evenodd" clip-rule="evenodd" d="M20 2H8C6.89543 2 6 2.89543 6 4V6H4C2.89543 6 2 6.89543 2 8V20C2 21.1046 2.89543 22 4 22H16C17.1046 22 18 21.1046 18 20V18H20C21.1046 18 22 17.1046 22 16V4C22 2.89543 21.1046 2 20 2ZM16 20V18H8C6.89543 18 6 17.1046 6 16V8H4V20H16ZM8 4V16H20V4H8ZM12 6C11.4477 6 11 6.44772 11 7C11 7.55228 11.4477 8 12 8H14.5229L10.3059 12.217C9.89803 12.6249 9.89803 13.2862 10.3059 13.6941C10.7138 14.102 11.3751 14.102 11.783 13.6941L16 9.47709V12C16 12.5523 16.4477 13 17 13C17.5523 13 18 12.5523 18 12V7C18 6.44772 17.5523 6 17 6H16.9555H12Z" fill="#636363"/>
</svg>
