<svg width="24" height="24" viewBox="0 0 24 24" fill="none" xmlns="http://www.w3.org/2000/svg">
<path fill-rule="evenodd" clip-rule="evenodd" d="M6.17578 8.42578C6.17578 7.68359 6.41406 6.93164 6.89062 6.16992C7.36719 5.4082 8.0625 4.77735 8.97656 4.27734C9.89063 3.77734 10.957 3.52734 12.1758 3.52734C13.3086 3.52734 14.3086 3.73633 15.1758 4.1543C16.043 4.57227 16.7129 5.14062 17.1855 5.85938C17.6582 6.57813 17.8945 7.35937 17.8945 8.20312C17.8945 8.86719 17.7598 9.44922 17.4902 9.94922C17.2207 10.4492 16.9004 10.8809 16.5293 11.2441C16.1582 11.6074 15.4922 12.2187 14.5312 13.0781C14.2656 13.3203 14.0527 13.5332 13.8926 13.7168C13.7324 13.9004 13.6133 14.0684 13.5352 14.2207C13.457 14.373 13.3965 14.5254 13.3535 14.6777C13.3105 14.8301 13.2461 15.0977 13.1602 15.4805C13.0117 16.293 12.5469 16.6992 11.7656 16.6992C11.3594 16.6992 11.0176 16.5664 10.7402 16.3008C10.4629 16.0352 10.3242 15.6406 10.3242 15.1172C10.3242 14.4609 10.4258 13.8926 10.6289 13.4121C10.832 12.9316 11.1016 12.5098 11.4375 12.1465C11.7734 11.7832 12.2266 11.3516 12.7969 10.8516C13.2969 10.4141 13.6582 10.084 13.8809 9.86133C14.1035 9.63867 14.291 9.39063 14.4434 9.11719C14.5957 8.84375 14.6719 8.54688 14.6719 8.22656C14.6719 7.60156 14.4395 7.07422 13.9746 6.64453C13.5098 6.21484 12.9102 6 12.1758 6C11.3164 6 10.6836 6.21679 10.2773 6.65039C9.87109 7.08399 9.52735 7.72265 9.24609 8.56641C8.98047 9.44922 8.47657 9.89062 7.73438 9.89062C7.29687 9.89062 6.92774 9.73633 6.62695 9.42773C6.32617 9.11914 6.17578 8.78516 6.17578 8.42578ZM11.8945 21.2695C11.418 21.2695 11.002 21.1152 10.6465 20.8066C10.291 20.498 10.1133 20.0664 10.1133 19.5117C10.1133 19.0195 10.2852 18.6055 10.6289 18.2695C10.9727 17.9336 11.3945 17.7656 11.8945 17.7656C12.3867 17.7656 12.8008 17.9336 13.1367 18.2695C13.4727 18.6055 13.6406 19.0195 13.6406 19.5117C13.6406 20.0586 13.4648 20.4883 13.1133 20.8008C12.7617 21.1133 12.3555 21.2695 11.8945 21.2695Z" fill="#636363"/>
</svg>
