<svg width="24" height="24" viewBox="0 0 24 24" fill="none" xmlns="http://www.w3.org/2000/svg">
<path d="M4.48683 8.84023L12 14.2664L19.5132 8.84023L12 4.33233L4.48683 8.84023ZM20 10.9557L12.5855 16.3106C12.236 16.5631 11.764 16.5631 11.4145 16.3106L4 10.9557V19.9999H20V10.9557ZM2.4855 7.70864L11.4855 2.30864C11.8022 2.11864 12.1978 2.11864 12.5145 2.30864L21.5145 7.70864C21.8157 7.88937 22 8.21487 22 8.56614V20.9999C22 21.5522 21.5523 21.9999 21 21.9999H3C2.44772 21.9999 2 21.5522 2 20.9999V8.56614C2 8.21487 2.1843 7.88937 2.4855 7.70864Z" fill="#636363"/>
</svg>
