<svg width="24" height="24" viewBox="0 0 24 24" fill="none" xmlns="http://www.w3.org/2000/svg">
<path d="M2 11.5294L10 4V8.70588C15.3333 8.70588 22 10.7765 22 20C19.4286 15.6706 17.1429 14.3529 10 14.3529V19.0588L2 11.5294Z" fill="#5E6D7A"/>
<path d="M2 11.5294L1.31464 10.8012C1.11385 10.9902 1 11.2537 1 11.5294C1 11.8051 1.11385 12.0686 1.31464 12.2576L2 11.5294ZM10 4H11C11 3.60105 10.7629 3.24026 10.3966 3.08202C10.0304 2.92378 9.60515 2.99837 9.31464 3.2718L10 4ZM10 8.70588H9C9 9.25817 9.44772 9.70588 10 9.70588V8.70588ZM22 20L21.1402 20.5107C21.3702 20.8978 21.8305 21.0835 22.2648 20.9643C22.699 20.8451 23 20.4503 23 20H22ZM10 14.3529V13.3529C9.44772 13.3529 9 13.8007 9 14.3529H10ZM10 19.0588L9.31464 19.787C9.60515 20.0605 10.0304 20.135 10.3966 19.9768C10.7629 19.8186 11 19.4578 11 19.0588H10ZM2.68536 12.2576L10.6854 4.7282L9.31464 3.2718L1.31464 10.8012L2.68536 12.2576ZM9 4V8.70588H11V4H9ZM10 9.70588C12.5656 9.70588 15.3248 10.2086 17.4179 11.7072C19.452 13.1636 21 15.6625 21 20H23C23 15.1139 21.2147 11.9658 18.5821 10.081C16.0085 8.23842 12.7677 7.70588 10 7.70588V9.70588ZM22.8598 19.4893C21.5324 17.2544 20.1935 15.6491 18.1525 14.6541C16.1522 13.6789 13.6021 13.3529 10 13.3529V15.3529C13.5408 15.3529 15.7049 15.6858 17.2761 16.4518C18.8065 17.198 19.8962 18.4162 21.1402 20.5107L22.8598 19.4893ZM9 14.3529V19.0588H11V14.3529H9ZM10.6854 18.3306L2.68536 10.8012L1.31464 12.2576L9.31464 19.787L10.6854 18.3306Z" fill="#5E6D7A"/>
</svg>
