<svg width="24" height="24" viewBox="0 0 24 24" fill="none" xmlns="http://www.w3.org/2000/svg">
<path fill-rule="evenodd" clip-rule="evenodd" d="M15.8251 3.48499C15.9493 2.94686 16.4863 2.61133 17.0244 2.73557L20.921 3.63516C20.9213 3.63523 20.9216 3.6353 20.9219 3.63537C20.9892 3.6509 21.0533 3.67288 21.1137 3.7005C21.5367 3.89387 21.78 4.36383 21.6713 4.83469L20.7715 8.73217C20.6473 9.2703 20.1103 9.60583 19.5722 9.48159C19.0341 9.35736 18.6985 8.8204 18.8228 8.28227L19.1512 6.85984C16.3242 8.33562 14.6207 10.5372 13.7458 13.3808C13.2867 14.8726 13.095 16.2017 13.0291 18.0499L13.1819 18.0516C13.1744 18.7418 13.1174 19.4513 13.0096 20.1806L12.9843 20.1769C12.9009 20.6449 12.4919 21.0003 11.9998 21.0003C11.4476 21.0003 10.9998 20.5526 10.9998 20.0003C10.9998 18.4722 11.0357 17.2533 11.15 16.1512L11.0539 16.1659C10.9598 15.5515 10.8148 14.9617 10.6211 14.3948L11.4834 14.1002C11.5809 13.6704 11.6968 13.2392 11.8342 12.7926C12.8639 9.44616 14.9171 6.80491 18.2541 5.07206L16.5745 4.68431C16.0364 4.56007 15.7009 4.02312 15.8251 3.48499ZM3.86768 4.79311L2.86768 6.52516C3.66019 6.98272 4.05291 7.21513 4.55198 7.52997L5.61909 5.83844C5.09139 5.50553 4.68191 5.26321 3.86768 4.79311ZM7.33748 7.01759L6.13493 8.61568C6.6535 9.0059 7.13499 9.40867 7.58123 9.83018L8.9546 8.37627C8.45186 7.90138 7.91348 7.45103 7.33748 7.01759ZM8.85011 11.2029L10.4135 9.95567C10.8686 10.5261 11.2727 11.1235 11.6226 11.7507L9.87601 12.7251C9.58079 12.1959 9.23817 11.6894 8.85011 11.2029Z" fill="#636363"/>
</svg>
