<svg width="24" height="24" viewBox="0 0 24 24" fill="none" xmlns="http://www.w3.org/2000/svg">
<path fill-rule="evenodd" clip-rule="evenodd" d="M18 2.54999C18 1.9977 18.4477 1.54999 19 1.54999C19.5523 1.54999 20 1.9977 20 2.54999V6.54999C20 7.10227 19.5523 7.54999 19 7.54999H15C14.4477 7.54999 14 7.10227 14 6.54999C14 5.9977 14.4477 5.54999 15 5.54999H16.7342C15.3798 4.55317 13.7353 3.99999 12 3.99999C7.92478 3.99999 4.56125 7.0471 4.06349 10.9872C4.06327 10.9914 4.06292 10.9956 4.06242 11C4 11.555 4 12 4 12C4 12.5523 3.55228 13 3 13C2.44772 13 2 12.5523 2 12C2 6.47714 6.47715 1.99999 12 1.99999C14.2512 1.99999 16.3287 2.74388 18 3.99925V2.54999ZM20 12C20 11.4477 20.4477 11 21 11C21.5523 11 22 11.4477 22 12C22 17.5228 17.5228 22 12 22C9.74879 22 7.67132 21.2561 6 20.0007V21.45C6 22.0023 5.55228 22.45 5 22.45C4.44772 22.45 4 22.0023 4 21.45V17.45C4 16.8977 4.44772 16.45 5 16.45H9C9.55228 16.45 10 16.8977 10 17.45C10 18.0023 9.55228 18.45 9 18.45H7.26576C8.62021 19.4468 10.2647 20 12 20C16.0752 20 19.4388 16.9529 19.9365 13.0127C19.9367 13.0086 19.9371 13.0044 19.9376 13C20 12.445 20 12 20 12Z" fill="#636363"/>
</svg>
