<svg width="24" height="24" viewBox="0 0 24 24" fill="none" xmlns="http://www.w3.org/2000/svg">
<path fill-rule="evenodd" clip-rule="evenodd" d="M16 2C15.4477 2 15 2.44772 15 3C15 3.55228 15.4477 4 16 4H18.5933L12.9178 9.6755C12.5273 10.066 12.5273 10.6992 12.9178 11.0897C13.3083 11.4802 13.9415 11.4802 14.332 11.0897L20 5.42174V8C20 8.55228 20.4477 9 21 9C21.5523 9 22 8.55228 22 8V3C22 2.44772 21.5523 2 21 2H16ZM2.95999 22H7.75995C8.29014 22 8.71994 21.5705 8.71994 21.0408C8.71994 20.511 8.29014 20.0816 7.75995 20.0816H5.27039L10.7188 14.6375C11.0937 14.2629 11.0937 13.6556 10.7188 13.281C10.3439 12.9064 9.73609 12.9064 9.36119 13.281L3.91998 18.7178V16.2447C3.91998 15.7149 3.49018 15.2854 2.95999 15.2854C2.4298 15.2854 2 15.7149 2 16.2447V21.0408C2 21.5374 2.37776 21.9459 2.86184 21.995C2.89411 21.9983 2.92686 22 2.95999 22Z" fill="#636363"/>
</svg>
