<svg width="24" height="24" viewBox="0 0 24 24" fill="none" xmlns="http://www.w3.org/2000/svg">
<path d="M12.2293 4.0576L15.9571 2.6052L12.8163 0.151367L12.5778 1.73873C11.212 1.65304 9.80637 1.83731 8.43779 2.3269C6.94163 2.86214 5.64926 3.70523 4.6076 4.75721L5.29307 5.41579C6.2363 4.46321 7.40682 3.69921 8.76466 3.21345C9.97994 2.77869 11.2253 2.60973 12.437 2.67536L12.2293 4.0576Z" fill="#0376DA"/>
<path d="M19.6915 12.2487L21.1854 12.5177C21.2864 11.2566 21.1218 9.9538 20.6538 8.68438C20.1606 7.34687 19.385 6.19388 18.418 5.26477L19.0865 4.58956C20.1545 5.61562 21.0104 6.88865 21.5538 8.36241C22.0814 9.79341 22.2597 11.2655 22.1318 12.6882L23.635 12.9589L21.0388 15.9678L19.6915 12.2487Z" fill="#0376DA"/>
<path d="M19.2567 18.8517L18.5713 18.1931C17.628 19.1457 16.4575 19.9097 15.0997 20.3955C13.9497 20.8069 12.7727 20.9803 11.6229 20.9421L11.6127 19.4754L8.15479 21.4732L11.6402 23.4241L11.6295 21.886C12.8868 21.923 14.1722 21.7307 15.4265 21.282C16.9227 20.7468 18.2151 19.9037 19.2567 18.8517Z" fill="#0376DA"/>
<path d="M4.7778 19.0194C3.70983 17.9933 2.85392 16.7203 2.31055 15.2465C1.82729 13.9358 1.63706 12.5906 1.70683 11.2805L0.362244 10.5796L3.75773 8.48054L3.9055 12.4266L2.65046 11.7724C2.64663 12.818 2.82636 13.8825 3.21057 14.9245C3.70371 16.2621 4.47933 17.4151 5.44638 18.3442L4.7778 19.0194Z" fill="#0376DA"/>
</svg>
