<svg width="24" height="24" viewBox="0 0 24 24" fill="none" xmlns="http://www.w3.org/2000/svg">
<path d="M10.3245 7.25365C10.9688 6.58224 11.866 6.16585 12.8581 6.16585C14.177 6.16585 15.3277 6.9013 15.9405 7.99308C16.473 7.75514 17.0625 7.6228 17.6826 7.6228C20.0615 7.6228 21.99 9.56814 21.99 11.9677C21.99 14.3676 20.0615 16.313 17.6826 16.313C17.3923 16.313 17.1086 16.2839 16.8342 16.2284C16.2946 17.191 15.2663 17.8413 14.086 17.8413C13.5919 17.8413 13.1245 17.7272 12.7084 17.5243C12.1614 18.811 10.8869 19.7133 9.40147 19.7133C7.85459 19.7133 6.53625 18.7345 6.0302 17.3618C5.80906 17.4087 5.57994 17.4332 5.34485 17.4332C3.5031 17.4332 2.01001 15.9247 2.01001 14.0636C2.01001 12.8165 2.68085 11.7275 3.67757 11.1449C3.47236 10.6727 3.35823 10.1516 3.35823 9.60372C3.35823 7.46341 5.09581 5.7284 7.23896 5.7284C8.49725 5.7284 9.6155 6.32666 10.3245 7.25365Z" fill="#636363"/>
</svg>
