<svg width="24" height="24" viewBox="0 0 24 24" fill="none" xmlns="http://www.w3.org/2000/svg">
<path d="M3 2H21C21.5523 2 22 2.44772 22 3V21C22 21.5523 21.5523 22 21 22H3C2.44772 22 2 21.5523 2 21V3C2 2.44772 2.44772 2 3 2ZM3.92627 13.998V14.501C3.92627 14.9144 4.07357 15.2676 4.36816 15.5605C4.66276 15.8535 5.01676 16 5.43018 16C5.84359 16 6.19678 15.8535 6.48975 15.5605C6.78272 15.2676 6.9292 14.9144 6.9292 14.501V13.5C6.9292 13.1191 6.80225 12.7855 6.54834 12.499C6.24886 12.167 5.87614 12.001 5.43018 12.001C5.2902 12.001 5.17139 11.9521 5.07373 11.8545C4.97607 11.7568 4.92725 11.638 4.92725 11.498V10.502C4.92725 10.362 4.97607 10.2432 5.07373 10.1455C5.17139 10.0479 5.2902 9.99902 5.43018 9.99902C5.57015 9.99902 5.68815 10.0479 5.78418 10.1455C5.88021 10.2432 5.92822 10.362 5.92822 10.502V11H6.9292V10.502C6.9292 10.0885 6.78272 9.73454 6.48975 9.43994C6.19678 9.14534 5.84359 8.99805 5.43018 8.99805C5.01676 8.99805 4.66276 9.14534 4.36816 9.43994C4.07357 9.73454 3.92627 10.0885 3.92627 10.502V11.498C3.92627 11.8789 4.05322 12.2126 4.30713 12.499C4.60661 12.8311 4.98095 12.9987 5.43018 13.002C5.57015 13.002 5.68815 13.05 5.78418 13.146C5.88021 13.242 5.92822 13.36 5.92822 13.5V14.501C5.92822 14.641 5.88021 14.759 5.78418 14.855C5.68815 14.951 5.57015 14.999 5.43018 14.999C5.2902 14.999 5.17139 14.951 5.07373 14.855C4.97607 14.759 4.92725 14.641 4.92725 14.501V13.998H3.92627ZM8.72607 8.99805L7.22705 16H8.21826L8.51611 14.4912L9.92725 14.501L10.2251 16H11.2163L9.71729 8.99805H8.72607ZM9.21924 11H9.229L9.72705 13.5098H8.71631L9.21924 11ZM13.4673 14.501H14.4683L15.2153 12.25V16H16.2163V8.99805H15.2153L13.9653 12.748L12.7153 8.99805H11.7144V16H12.7153V12.25L13.4673 14.501ZM17.1733 16H20.1763V14.999H18.1743V8.99805H17.1733V16Z" fill="#636363"/>
</svg>
