<svg width="24" height="24" viewBox="0 0 24 24" fill="none" xmlns="http://www.w3.org/2000/svg">
<path fill-rule="evenodd" clip-rule="evenodd" d="M4 3H20C21.1046 3 22 3.89543 22 5V17C22 18.1046 21.1046 19 20 19H17C17.5523 19 18 19.4477 18 20C18 20.5523 17.5523 21 17 21H7C6.44771 21 6 20.5523 6 20C6 19.4477 6.44772 19 7 19H4C2.89543 19 2 18.1046 2 17V5C2 3.89543 2.89543 3 4 3ZM4 5V17H20V5H4ZM13 9C8.90909 9 7 10.75 7 16C9.18182 11.75 13 12 13 12V13.4848C13 13.9049 13.4867 14.1377 13.8138 13.8741L17.517 10.8893C17.7653 10.6891 17.7653 10.3108 17.517 10.1107L13.8138 7.12586C13.4867 6.86223 13 7.09505 13 7.51516V9Z" fill="#636363"/>
</svg>
