<svg width="24" height="24" viewBox="0 0 24 24" fill="none" xmlns="http://www.w3.org/2000/svg">
<path fill-rule="evenodd" clip-rule="evenodd" d="M4.46261 3H4.43739L3.73524 2.29786C3.33819 1.9008 2.69455 1.9007 2.29763 2.29763C1.9007 2.69455 1.9008 3.33819 2.29786 3.73524L2.38402 3.82141C2.14255 4.15193 2.00002 4.55932 2.00002 5V17C2.00002 18.1046 2.89546 19 4.00002 19H6.60002C6.26865 19 6.00002 19.2686 6.00002 19.6V20.4C6.00002 20.7314 6.26865 21 6.60002 21H17.4C17.7314 21 18 20.7314 18 20.4V19.6C18 19.5317 17.9886 19.4662 17.9676 19.405L20.2648 21.7021C20.6618 22.0992 21.3055 22.0993 21.7024 21.7024C22.0993 21.3055 22.0992 20.6618 21.7021 20.2648L20.3978 18.9604C20.4048 18.959 20.4118 18.9576 20.4187 18.9561L14.6571 13.1945L14.6431 13.2057L10.69 9.25259C10.6967 9.25087 10.7034 9.24915 10.7101 9.24745L4.46261 3ZM16.2489 11.9115L17.7103 10.7336C17.8593 10.6135 17.8593 10.3865 17.7103 10.2664L13.4883 6.8635C13.2921 6.70533 13.0001 6.84502 13.0001 7.09708L13.0001 8.66269L7.33739 3H20C21.1046 3 22 3.89543 22 5V17C22 17.2009 21.9704 17.3949 21.9153 17.5779L16.2489 11.9115ZM7.00007 16C7.00007 13.1094 7.57881 11.2798 8.7818 10.2192L10.9281 12.3654C9.68143 12.816 8.12374 13.8112 7.00007 16ZM17.4 19H17.5626L17.595 19.0324C17.5339 19.0114 17.4683 19 17.4 19Z" fill="#636363"/>
</svg>
