<svg width="24" height="24" viewBox="0 0 24 24" fill="none" xmlns="http://www.w3.org/2000/svg">
<path fill-rule="evenodd" clip-rule="evenodd" d="M20 3H4C2.89543 3 2 3.89543 2 5V17C2 18.1046 2.89543 19 4 19H6.59735C6.2672 19.0014 6 19.2695 6 19.6V20.4C6 20.7314 6.26863 21 6.6 21H17.4C17.7314 21 18 20.7314 18 20.4V19.6C18 19.2695 17.7328 19.0014 17.4026 19H20C21.1046 19 22 18.1046 22 17V5C22 3.89543 21.1046 3 20 3ZM13 9C8.90907 9 6.99998 10.75 6.99998 16C9.18179 11.75 13 12 13 12L13 13.9029C13 14.1549 13.292 14.2946 13.4882 14.1364L17.7102 10.7335C17.8592 10.6135 17.8592 10.3865 17.7102 10.2664L13.4882 6.8635C13.292 6.70532 13 6.84501 13 7.09707L13 9Z" fill="#636363"/>
</svg>
