<svg width="24" height="24" viewBox="0 0 24 24" fill="none" xmlns="http://www.w3.org/2000/svg">
<path fill-rule="evenodd" clip-rule="evenodd" d="M7.43 3.36263C7.41753 4.37878 6.58366 5.19243 5.56749 5.17996C4.55133 5.16749 3.73767 4.33363 3.75014 3.31747C3.76261 2.30132 4.59649 1.48767 5.61265 1.50014C6.62882 1.51261 7.44247 2.34648 7.43 3.36263ZM7.43 21.267C7.41753 22.2832 6.58366 23.0968 5.56749 23.0844C4.55133 23.0719 3.73767 22.238 3.75014 21.2219C3.76261 20.2057 4.59649 19.3921 5.61265 19.4045C6.62882 19.417 7.44247 20.2509 7.43 21.267ZM10.3924 3.77429C12.5804 3.77429 14.6788 4.64348 16.226 6.19063C17.7732 7.73779 18.6423 9.83618 18.6423 12.0242C18.6423 14.2122 17.7732 16.3106 16.226 17.8577C15.8844 18.1993 15.5159 18.5079 15.1256 18.7813L14.5381 16.6137L10.3924 20.7833L16.0762 22.2888L15.4068 19.8189C15.9585 19.464 16.4751 19.0489 16.9461 18.5779C18.6843 16.8397 19.6608 14.4823 19.6608 12.0242C19.6608 9.56607 18.6843 7.20864 16.9461 5.4705C15.2079 3.73236 12.8505 2.75588 10.3924 2.75588V3.77429Z" fill="#0376DA"/>
</svg>
