<svg width="24" height="24" viewBox="0 0 24 24" fill="none" xmlns="http://www.w3.org/2000/svg">
<path fill-rule="evenodd" clip-rule="evenodd" d="M18 16.8431C17.24 16.8431 16.56 17.1594 16.04 17.6559L8.91 13.2799C8.96 13.0374 9 12.7949 9 12.5419C9 12.2889 8.96 12.0464 8.91 11.804L15.96 7.47114C16.5 7.99825 17.21 8.32506 18 8.32506C19.66 8.32506 21 6.91241 21 5.16241C21 3.41241 19.66 1.99976 18 1.99976C16.34 1.99976 15 3.41241 15 5.16241C15 5.41542 15.04 5.65789 15.09 5.90036L8.04 10.2332C7.5 9.70608 6.79 9.37927 6 9.37927C4.34 9.37927 3 10.7919 3 12.5419C3 14.2919 4.34 15.7046 6 15.7046C6.79 15.7046 7.5 15.3778 8.04 14.8507L15.16 19.2373C15.11 19.4576 15.08 19.6895 15.08 19.9214C15.08 21.6187 16.39 22.9998 18 22.9998C19.61 22.9998 20.92 21.6187 20.92 19.9214C20.92 18.2252 19.61 16.8431 18 16.8431Z" fill="#636363"/>
</svg>
