<svg width="24" height="24" viewBox="0 0 24 24" fill="none" xmlns="http://www.w3.org/2000/svg">
<path fill-rule="evenodd" clip-rule="evenodd" d="M7 7H8C8.55228 7 9 7.44772 9 8C9 8.55228 8.55228 9 8 9H7V20C7 20.5523 6.55228 21 6 21C5.44772 21 5 20.5523 5 20V9H4C3.44772 9 3 8.55228 3 8C3 7.44772 3.44772 7 4 7H5V4C5 3.44772 5.44772 3 6 3C6.55228 3 7 3.44772 7 4V7ZM19 9H20C20.5523 9 21 9.44772 21 10C21 10.5523 20.5523 11 20 11H19V20C19 20.5523 18.5523 21 18 21C17.4477 21 17 20.5523 17 20V11H16C15.4477 11 15 10.5523 15 10C15 9.44772 15.4477 9 16 9H17V4C17 3.44772 17.4477 3 18 3C18.5523 3 19 3.44772 19 4V9ZM13 13H14C14.5523 13 15 13.4477 15 14C15 14.5523 14.5523 15 14 15H13V20C13 20.5523 12.5523 21 12 21C11.4477 21 11 20.5523 11 20V15H10C9.44772 15 9 14.5523 9 14C9 13.4477 9.44772 13 10 13H11V4C11 3.44772 11.4477 3 12 3C12.5523 3 13 3.44772 13 4V13Z" fill="#636363"/>
</svg>
