<svg width="24" height="24" viewBox="0 0 24 24" fill="none" xmlns="http://www.w3.org/2000/svg">
<path fill-rule="evenodd" clip-rule="evenodd" d="M7.92965 2.18663C8.92487 2.72895 10.2816 3.0001 12 3.0001C13.7183 3.0001 15.0751 2.72895 16.0703 2.18663C16.5552 1.92235 17.1626 2.10127 17.4269 2.58623C17.4458 2.62091 17.4626 2.65667 17.4773 2.69333L19.2041 7.01048C19.4864 7.05147 19.7405 7.21183 19.8985 7.45476L21.8504 10.4548C22.1516 10.9177 22.0204 11.5371 21.5575 11.8383C21.3952 11.9439 21.2058 12.0001 21.0122 12.0001H3.01254C2.46026 12.0001 2.01254 11.5524 2.01254 11.0001C2.01254 10.8065 2.06875 10.617 2.17433 10.4548L4.12615 7.45476C4.27925 7.21944 4.52247 7.0616 4.79414 7.01468L6.52268 2.69333C6.72779 2.18055 7.30976 1.93113 7.82255 2.13624C7.85921 2.15091 7.89497 2.16773 7.92965 2.18663ZM8.99992 18.0001C8.99992 19.1047 8.10449 20.0001 6.99992 20.0001C5.89535 20.0001 4.99992 19.1047 4.99992 18.0001C4.99992 16.8955 5.89535 16.0001 6.99992 16.0001C8.10449 16.0001 8.99992 16.8955 8.99992 18.0001ZM6.99997 22.0001C4.79083 22.0001 2.99997 20.2092 2.99997 18.0001C2.99997 15.791 4.79083 14.0001 6.99997 14.0001C8.2357 14.0001 9.34056 14.5605 10.0743 15.4409C10.6185 15.2121 11.3093 15.0001 12 15.0001C12.6907 15.0001 13.3814 15.2121 13.9256 15.4409C14.6594 14.5605 15.7642 14.0001 16.9999 14.0001C19.2091 14.0001 20.9999 15.791 20.9999 18.0001C20.9999 20.2092 19.2091 22.0001 16.9999 22.0001C14.7908 22.0001 12.9999 20.2092 12.9999 18.0001C12.9999 17.7095 13.0309 17.4262 13.0898 17.1532C12.7416 17.0612 12.3708 17.0001 12 17.0001C11.6291 17.0001 11.2583 17.0612 10.9101 17.1532C10.969 17.4262 11 17.7095 11 18.0001C11 20.2092 9.20911 22.0001 6.99997 22.0001ZM15 18.0001C15 19.1047 15.8954 20.0001 17 20.0001C18.1045 20.0001 19 19.1047 19 18.0001C19 16.8955 18.1045 16.0001 17 16.0001C15.8954 16.0001 15 16.8955 15 18.0001Z" fill="#636363"/>
</svg>
