<svg width="24" height="24" viewBox="0 0 24 24" fill="none" xmlns="http://www.w3.org/2000/svg">
<path fill-rule="evenodd" clip-rule="evenodd" d="M19.411 20.3006H5.13434C2.60411 20.3006 0.54541 18.2209 0.54541 15.665C0.54541 13.6761 1.80418 11.9284 3.64951 11.2924C4.03466 7.0725 7.53064 3.81836 11.7628 3.81836C15.8874 3.81836 19.355 6.95908 19.8512 11.0505C22.1758 11.275 24 13.2589 24 15.665C24 18.2209 21.9413 20.3006 19.411 20.3006ZM11.5454 9.90921V13.091C11.5454 13.2116 11.5933 13.3272 11.6785 13.4124C11.7638 13.4977 11.8794 13.5456 11.9999 13.5456H15.1818V12.6365H12.4545V9.90921H11.5454ZM8.14474 9.23556C9.16732 8.21297 10.5538 7.63779 12 7.63623C12.8646 7.63565 13.717 7.84063 14.4868 8.23426C15.2566 8.62788 15.9219 9.19888 16.4276 9.90016C16.9334 10.6014 17.2652 11.4129 17.3957 12.2676C17.5261 13.1223 17.4516 13.9958 17.1781 14.8161C16.9046 15.6363 16.44 16.3798 15.8227 16.9852C15.2054 17.5906 14.453 18.0405 13.6276 18.298C12.8022 18.5554 11.9274 18.6129 11.0753 18.4658C10.2233 18.3186 9.4185 17.971 8.72723 17.4517L7.90905 18.5453L6.81814 15.4544L10.0909 15.6362L9.27268 16.7271C10.0929 17.3433 11.0972 17.6644 12.1228 17.6384C13.1484 17.6124 14.1351 17.2407 14.923 16.5837C15.7109 15.9266 16.2538 15.0228 16.4637 14.0186C16.6735 13.0143 16.5381 11.9687 16.0793 11.0511C15.6205 10.1335 14.8652 9.39776 13.936 8.96314C13.0067 8.52853 11.9578 8.42052 10.9595 8.65662C9.96109 8.89272 9.07173 9.4591 8.43556 10.2639C7.79938 11.0688 7.45368 12.0649 7.4545 13.0908H6.54541C6.54697 11.6446 7.12215 10.2581 8.14474 9.23556Z" fill="#5E6D7A"/>
</svg>
