<svg width="24" height="24" viewBox="0 0 24 24" fill="none" xmlns="http://www.w3.org/2000/svg">
<path fill-rule="evenodd" clip-rule="evenodd" d="M2 3.2C2 2.53726 2.53726 2 3.2 2H20.8C21.4627 2 22 2.53726 22 3.2V4H2V3.2ZM2.00002 4H4.00002V6L20 6V4H22V6V8V10V12V20V20.8C22 21.4627 21.4628 22 20.8 22L13 22H11L3.20003 22C2.53728 22 2.00002 21.4627 2.00002 20.8V20V12V10H11V8H13V10H20V8H2.00002V6V4ZM4.00002 10V8H2.00002V10H4.00002ZM4.00002 12V20L11 20V12L4.00002 12ZM13 20V12H20V20H13Z" fill="#636363"/>
</svg>
