<svg width="24" height="24" viewBox="0 0 24 24" fill="none" xmlns="http://www.w3.org/2000/svg">
<path fill-rule="evenodd" clip-rule="evenodd" d="M18.7268 13.9996H19.4996C19.7757 13.9996 19.9996 13.7757 19.9996 13.4996C19.9996 13.2234 19.7757 12.9996 19.4996 12.9996H18.5018L18.4996 12.9996L16.9996 12.9996C16.4473 12.9996 15.9996 12.5519 15.9996 11.9996C15.9996 11.4473 16.4473 10.9996 16.9996 10.9996L18.4996 10.9996L18.5006 10.9996C18.7762 10.9991 18.9996 10.7754 18.9996 10.4996C18.9996 10.2533 18.8215 10.0486 18.587 10.0072L14.7132 10.5569L14.7143 10.5581C14.7143 10.5581 12.8307 10.8456 12.4514 10.7135C11.9214 10.5291 12.4944 9.15882 12.7241 8.6589L12.7223 8.65806L13.1539 7.75596C14.2327 5.50072 14.2137 4.41401 13.5372 4.09036L13.494 4.06969C13.3467 3.99905 13.3063 3.97965 13.2789 3.99121C13.2685 3.99559 13.26 4.00441 13.2483 4.01657L13.2483 4.01658L13.2458 4.01922C13.1056 4.16431 12.9737 4.44011 12.7088 5.13749C12.3362 6.11816 12.1465 6.51474 11.7409 6.93482C10.9768 7.72606 9.80011 8.44318 8.20455 9.11514L6.74981 9.73389L6.7278 9.74326L6.50669 7.66006L7.2883 7.33089L7.4283 7.27193C8.79633 6.69579 9.75641 6.11066 10.3022 5.5455C10.4423 5.40042 10.5742 5.12462 10.8391 4.42723C11.2117 3.44657 11.4014 3.04999 11.8071 2.62991C12.4793 1.93382 13.4024 1.80885 14.4002 2.28616C16.3862 3.23618 16.451 5.43515 15.0174 8.49372L18.4996 7.99958C19.8803 7.99958 20.9996 9.11887 20.9996 10.4996C20.9996 10.8122 20.9422 11.1114 20.8374 11.3873C21.5359 11.8306 21.9996 12.611 21.9996 13.4996C21.9996 14.3831 21.5413 15.1595 20.8495 15.6042C20.9464 15.8822 20.9996 16.184 20.9996 16.4996C20.9996 17.4273 20.5402 18.2369 19.8581 18.6684C19.9497 18.9284 19.9996 19.2082 19.9996 19.4996C19.9996 20.8803 18.8803 21.9996 17.4996 21.9996L9.49875 21.9941L9.20443 21.9939L9.19307 21.9939V21.9934V19.9939L9.1992 19.9939L17.4996 19.9996C17.7757 19.9996 17.9996 19.7757 17.9996 19.4996C17.9996 19.2234 17.7757 18.9996 17.4996 18.9996L16.9148 19.0098V18.996C16.4022 18.953 15.9996 18.5233 15.9996 17.9996C15.9996 17.4473 16.4473 16.9996 16.9996 16.9996H17.4996H18.7268C18.8327 16.9996 18.9996 16.816 18.9996 16.4996C18.9996 16.1832 18.8327 15.9996 18.7268 15.9996L16.9996 15.9996C16.4473 15.9996 15.9996 15.5519 15.9996 14.9996C15.9996 14.4473 16.4473 13.9996 16.9996 13.9996L18.7268 13.9996Z" fill="#636363"/>
</svg>
