<svg width="24" height="24" viewBox="0 0 24 24" fill="none" xmlns="http://www.w3.org/2000/svg">
<path d="M9.24251 20.2833L9.49954 21.9996C7.3485 21.9996 5.40896 21.094 4.04134 19.6434C2.77543 18.3005 1.99954 16.4907 1.99954 14.4996C1.99954 11.1271 4.22546 8.27455 7.28827 7.33089L7.42827 7.27193C8.7963 6.69579 9.75638 6.11066 10.3021 5.5455C10.4423 5.40042 10.5742 5.12462 10.8391 4.42723C11.2117 3.44657 11.4014 3.04999 11.807 2.62991C12.4792 1.93382 13.4024 1.80885 14.4002 2.28616C16.3861 3.23618 16.451 5.43515 15.0174 8.49372L18.4995 7.99958C19.8803 7.99958 20.9995 9.11887 20.9995 10.4996C20.9995 10.8122 20.9422 11.1114 20.8374 11.3873C21.5359 11.8306 21.9995 12.611 21.9995 13.4996C21.9995 14.3831 21.5413 15.1595 20.8494 15.6042C20.9464 15.8822 20.9995 16.1841 20.9995 16.4996C20.9995 17.4273 20.5402 18.2369 19.858 18.6684C19.9497 18.9284 19.9995 19.2082 19.9995 19.4996C19.9995 20.8803 18.8803 21.9996 17.4995 21.9996H8.99954L9.02334 21.9847C7.06321 21.8619 5.30726 20.9862 4.04134 19.6434C2.77543 18.3005 1.99954 16.4907 1.99954 14.4996C1.99954 11.122 4.23217 8.26596 7.30212 7.32664L7.39153 7.9237L6.30023 8.56089L3.02874 11.6662V16.0497L5.98651 19.8907L9.24251 20.2833Z" fill="#636363"/>
</svg>
