<svg width="24" height="24" viewBox="0 0 24 24" fill="none" xmlns="http://www.w3.org/2000/svg">
<path fill-rule="evenodd" clip-rule="evenodd" d="M4 2C2.89543 2 2 2.89543 2 4V14C2 15.1046 2.89543 16 4 16H6V18C6 19.1046 6.89543 20 8 20H10C10 21.1046 10.8954 22 12 22H20C21.1046 22 22 21.1046 22 20V10C22 8.89543 21.1046 8 20 8H14V4C14 2.89543 13.1046 2 12 2H4ZM10 18V16H8V18H10ZM10 11.25V10C10 8.89543 10.8954 8 12 8V4H4V14H10V12.75C9.22496 12.75 8.42066 12.3279 7.69958 11.6843C7.09905 12.1198 6.43656 12.4784 5.73737 12.7115C5.34442 12.8425 4.91968 12.6301 4.78869 12.2372C4.6577 11.8442 4.87007 11.4195 5.26303 11.2885C5.76363 11.1216 6.24293 10.8692 6.68469 10.565C5.83779 9.42868 5.26248 8.05974 5.26248 7H5C4.72386 7 4.5 6.77614 4.5 6.5C4.5 6.22386 4.72386 6 5 6H7.25V5.75C7.25 5.33579 7.58579 5 8 5C8.41421 5 8.75 5.33579 8.75 5.75V6H11C11.2761 6 11.5 6.22386 11.5 6.5C11.5 6.77614 11.2761 7 11 7H10.7502C10.7502 8.0598 10.0073 9.4959 8.83745 10.6979C9.23948 11.0371 9.64556 11.25 10 11.25ZM6.76248 7C6.76248 7.70779 7.21774 8.72178 7.83287 9.5818C8.69924 8.67405 9.2502 7.65017 9.2502 7H8H6.76248ZM19.3075 17.316C19.3075 17.514 19.228 17.682 19.069 17.82C18.91 17.958 18.7285 18.027 18.5245 18.027C18.3865 18.027 18.2605 17.991 18.1465 17.919C18.0325 17.847 17.9425 17.739 17.8765 17.595L17.4715 16.686H14.5555L14.1415 17.595C14.0755 17.739 13.984 17.847 13.867 17.919C13.75 17.991 13.6225 18.027 13.4845 18.027C13.2805 18.027 13.096 17.958 12.931 17.82C12.766 17.682 12.6835 17.514 12.6835 17.316C12.6835 17.208 12.7105 17.097 12.7645 16.983L15.1405 12.105C15.2185 11.943 15.334 11.8185 15.487 11.7315C15.64 11.6445 15.8095 11.601 15.9955 11.601C16.1755 11.601 16.3435 11.6445 16.4995 11.7315C16.6555 11.8185 16.7725 11.943 16.8505 12.105L19.2265 16.983C19.2805 17.097 19.3075 17.208 19.3075 17.316ZM16.9135 15.444H15.1135L16.0135 13.437L16.9135 15.444Z" fill="#636363"/>
</svg>
