<svg width="24" height="24" viewBox="0 0 24 24" fill="none" xmlns="http://www.w3.org/2000/svg">
<path fill-rule="evenodd" clip-rule="evenodd" d="M4.66974 10.7319L10.0178 5.38386L10.0178 8.59768C10.0178 9.14506 10.4615 9.58879 11.0089 9.58879C11.5563 9.58879 12 9.14506 12 8.59768V2.99111C12 2.44374 11.5563 2 11.0089 2H5.40232C4.85494 2 4.41121 2.44374 4.41121 2.99111C4.41121 3.53849 4.85494 3.98222 5.40232 3.98222H8.61614L3.2681 9.33026C2.89858 9.69978 2.9128 10.3131 3.29985 10.7001C3.68691 11.0872 4.30022 11.1014 4.66974 10.7319ZM16 9C16 8.44772 16.4477 8 17 8H19C19.5523 8 20 8.44772 20 9V21C20 21.5523 19.5523 22 19 22H17C16.4477 22 16 21.5523 16 21V9ZM11 13C10.4477 13 10 13.4477 10 14V21C10 21.5523 10.4477 22 11 22H13C13.5523 22 14 21.5523 14 21V14C14 13.4477 13.5523 13 13 13H11ZM5 17C4.44772 17 4 17.4477 4 18V21C4 21.5523 4.44772 22 5 22H7C7.55228 22 8 21.5523 8 21V18C8 17.4477 7.55228 17 7 17H5Z" fill="#636363"/>
</svg>
