<svg width="24" height="24" viewBox="0 0 24 24" fill="none" xmlns="http://www.w3.org/2000/svg">
<path fill-rule="evenodd" clip-rule="evenodd" d="M8.50791 13.5899C8.70331 13.7528 8.99996 13.6138 8.99996 13.3595V10H15C17.2461 10 19 11.6077 19 13.5C19 15.3923 17.2461 17 15 17V19C18.3137 19 21 16.5376 21 13.5C21 10.4624 18.3137 8 15 8H8.99996V4.64051C8.99996 4.38616 8.70331 4.24721 8.50791 4.41004L3.27652 8.76953C3.1326 8.88947 3.1326 9.11052 3.27652 9.23046L8.50791 13.5899ZM3.99994 18C3.99994 17.4477 4.44766 17 4.99994 17H14.9999V19H4.99994C4.44766 19 3.99994 18.5523 3.99994 18Z" fill="#636363"/>
</svg>
