<svg width="24" height="24" viewBox="0 0 24 24" fill="none" xmlns="http://www.w3.org/2000/svg">
<path fill-rule="evenodd" clip-rule="evenodd" d="M9.00001 2H15H16.968H17V2.00026C17.4913 2.0081 17.963 2.1966 18.3246 2.53039L20.3566 4.40606C20.7667 4.78467 21 5.31747 21 5.87566V6V8V18C21 18.5523 20.5523 19 20 19H17.5514L17.6073 19.2086C17.7502 19.742 17.4337 20.2904 16.9002 20.4333L7.24093 23.0215C6.70747 23.1644 6.15913 22.8479 6.01619 22.3144L2.39272 8.79143C2.24978 8.25797 2.56636 7.70963 3.09983 7.56669L8.00001 6.25369V3C8.00001 2.44772 8.44772 2 9.00001 2ZM8.00001 18V8.32424L4.58339 9.23972L7.68922 20.8308L14.522 19H9.00001C8.44772 19 8.00001 18.5523 8.00001 18ZM12 10H17V12H12V10ZM17 13H12V15H17V13Z" fill="#636363"/>
</svg>
