<svg width="24" height="24" viewBox="0 0 24 24" fill="none" xmlns="http://www.w3.org/2000/svg">
<path fill-rule="evenodd" clip-rule="evenodd" d="M21 12H20.5527C20.3415 11.2516 20.0523 10.5846 19.6784 10H19.996C19.9984 9.97133 20 9.93799 20 9.9C20 8.70374 19.6423 8.19974 18.4726 8.05067C18.4908 7.86871 18.5 7.68497 18.5 7.5C18.5 6.87389 18.3954 6.27222 18.2027 5.71151C18.3862 5.53021 18.5 5.27839 18.5 5C18.5 4.44772 18.0523 4 17.5 4C17.4192 4 17.3407 4.00957 17.2655 4.02764C16.8128 3.47216 16.2537 3.00679 15.6193 2.66256C16.1338 2.24809 16.7879 2 17.5 2C19.1569 2 20.5 3.34315 20.5 5C20.5 5.50179 20.3768 5.9748 20.159 6.39045C21.5058 7.01383 22 8.38368 22 10.5C22 11.5 21.6667 12 21 12ZM18.8903 18H17.8914C17.7427 16.6627 17.4385 15.5157 16.9614 14.5523C16.8012 12.3453 16.1147 11.3864 14.4048 11.0989C14.5496 10.6035 14.625 10.0849 14.625 9.55556C14.625 9.02289 14.5491 8.50773 14.4074 8.02006C14.4673 7.85804 14.5 7.68284 14.5 7.5C14.5 6.79505 14.0137 6.20368 13.3583 6.04305C12.7976 5.36531 12.0781 4.82076 11.2559 4.46483C11.7694 4.16914 12.3649 4 13 4C14.933 4 16.5 5.567 16.5 7.5C16.5 8.21944 16.2829 8.88818 15.9107 9.4443C18.0921 10.2694 19 12.2774 19 15.75C19 15.8744 18.9968 15.993 18.9908 16.106L18.8903 18ZM3.75 22C2.58333 22 2 21.1667 2 19.5C2 15.6897 3.00933 13.3313 5.81835 12.4246C5.30493 11.7519 5 10.9116 5 10C5 7.79086 6.79086 6 9 6C11.2091 6 13 7.79086 13 10C13 10.9116 12.6951 11.7519 12.1816 12.4246C14.9907 13.3313 16 15.6897 16 19.5C16 21.1667 15.4167 22 14.25 22H3.75ZM11 10C11 11.1046 10.1046 12 9 12C7.89543 12 7 11.1046 7 10C7 8.89543 7.89543 8 9 8C10.1046 8 11 8.89543 11 10ZM14 19.5C14 19.7139 13.9878 19.8804 13.9728 20H4.02718C4.01217 19.8804 4 19.7139 4 19.5C4 15.2936 5.13035 14 9 14C12.8697 14 14 15.2936 14 19.5Z" fill="#636363"/>
</svg>
