<svg xmlns="http://www.w3.org/2000/svg" xmlns:xlink="http://www.w3.org/1999/xlink" width="24" height="24" viewBox="0 0 24 24">
  <defs>
    <path id="users-view-solid-a" d="M13.1296012,12.8206286 C14.1685382,13.3703013 14.8834921,14.1961101 15.3400212,15.2980548 C15.5854747,15.0558366 15.8585608,14.8415925 16.1540527,14.6604988 C15.6022507,13.4511997 14.7670557,12.5494025 13.6095155,11.9399713 C13.8107379,11.462234 13.9374059,10.9525594 13.9819881,10.426546 C14.6079477,10.7459825 15.296965,10.9076343 16.0458917,10.9076343 C17.5729422,10.9076343 18.8479096,10.2355204 19.8436955,8.92427506 C21.4087949,9.97327191 22,11.9151802 22,14.75 C22,15.064224 21.9780585,15.3455358 21.9341755,15.5939354 C22.5990242,16.3786836 23,17.3935218 23,18.5 C23,20.9852814 20.9802243,23 18.5,23 C17.2482591,23 16.1158882,22.4876333 15.3001785,21.6621294 C15.0289555,21.8873765 14.678896,22 14.25,22 L3.75,22 C2.58333333,22 2,21.1666667 2,19.5 C2,16.1224922 2.79307041,13.8857404 4.92968094,12.7897443 C6.00384771,14.2507548 7.38620271,15 9.04623413,15 C10.694547,15 12.0657797,14.2612374 13.1296012,12.8206286 Z M12.3020167,12.2582579 C11.4257268,13.431222 10.3501632,14 9.04623413,14 C7.56196336,14 6.36902034,13.2629301 5.42523797,11.736993 L5.40260094,11.7509939 C5.14470953,11.2221464 5,10.6279726 5,10 C5,7.790861 6.790861,6 9,6 C11.209139,6 13,7.790861 13,10 C13,10.8378876 12.7423754,11.6156037 12.3020167,12.2582579 Z M19.1378656,8.05217276 C18.432749,9.32027886 17.3701359,9.96424816 16.0458917,9.96424816 C15.2648198,9.96424816 14.5692641,9.74788917 13.9523201,9.30668994 C13.7969132,8.18635757 13.270301,7.18471211 12.5006869,6.4299571 C12.5379958,4.52929093 14.0904054,3 16,3 C17.9329966,3 19.5,4.56700338 19.5,6.5 C19.5,7.0574275 19.369688,7.584419 19.1378656,8.05217276 Z M18.5,21 C20.4329966,21 22,19.8807119 22,18.5 C22,17.1192881 20.4329966,16 18.5,16 C16.5670034,16 15,17.1192881 15,18.5 C15,19.8807119 16.5670034,21 18.5,21 Z M18.5,21 C17.6715729,21 17,19.8807119 17,18.5 C17,17.1192881 17.6715729,16 18.5,16 C19.3284271,16 20,17.1192881 20,18.5 C20,19.8807119 19.3284271,21 18.5,21 Z"/>
  </defs>
  <g fill="none" fill-rule="evenodd">
    <rect width="24" height="24"/>
    <use fill="#1C2025" xlink:href="#users-view-solid-a"/>
  </g>
</svg>
