<svg xmlns="http://www.w3.org/2000/svg" xmlns:xlink="http://www.w3.org/1999/xlink" width="24" height="24" viewBox="0 0 24 24">
  <defs>
    <path id="user-solid-slash-a" d="M8.02379434,6.56118303 L12.438817,10.9762057 C12.4312228,10.9770339 12.4236226,10.9778413 12.4160161,10.9786273 L13.5442429,12.1068541 C13.5540981,12.1082751 13.5639397,12.1097092 13.573768,12.1111567 L19.9940529,18.5314416 C19.9945252,18.5403214 19.9949691,18.5491729 19.9953847,18.5579959 L21.7021447,20.2647559 C22.0991954,20.6618067 22.0992982,21.3054503 21.7023743,21.7023743 C21.3054503,22.0992982 20.6618067,22.0991954 20.2647559,21.7021447 L19.2350487,20.6724375 C18.9204214,20.8908125 18.5087385,21 18,21 L6,21 C4.66666667,21 4,20.25 4,18.75 C4,14.617105 5.67546249,12.382079 10.6075332,12.044922 L2.29785531,3.73524409 C1.90080457,3.33819335 1.90070178,2.69454969 2.29762574,2.29762574 C2.69454969,1.90070178 3.33819335,1.90080457 3.73524409,2.29785531 L8.0213727,6.58398392 C8.02215873,6.57637739 8.02296608,6.56877719 8.02379469,6.56118338 Z M8.85962118,4.5222323 C9.59217964,3.59503865 10.7266005,3 12,3 C14.209139,3 16,4.790861 16,7 C16,8.27339954 15.4049614,9.40782036 14.4777677,10.1403788 L8.85962118,4.5222323 Z"/>
  </defs>
  <g fill="none" fill-rule="evenodd">
    <rect width="24" height="24"/>
    <use fill="#1C2025" fill-rule="nonzero" xlink:href="#user-solid-slash-a"/>
  </g>
</svg>
