<svg width="24" height="24" viewBox="0 0 24 24" fill="none" xmlns="http://www.w3.org/2000/svg">
<path fill-rule="evenodd" clip-rule="evenodd" d="M12 11C9.79086 11 8 9.20914 8 7C8 4.79086 9.79086 3 12 3C14.2091 3 16 4.79086 16 7C16 9.20914 14.2091 11 12 11ZM4 18.75C4 14.25 5.98633 12 12 12C15.2739 12 17.3541 12.6668 18.5701 14.0005C21.0231 14.038 23 16.0381 23 18.5C23 20.9853 20.9853 23 18.5 23C16.9398 23 15.565 22.206 14.7578 21H6C4.66667 21 4 20.25 4 18.75ZM19 18H21V19H19V21H18V19H16V18H18V16H19V18Z" fill="#636363"/>
</svg>
