<svg width="24" height="24" viewBox="0 0 24 24" fill="none" xmlns="http://www.w3.org/2000/svg">
<path fill-rule="evenodd" clip-rule="evenodd" d="M12.8069 5.06476C15.1846 5.45054 17 7.51327 17 10C17 10.6768 16.8647 11.3341 16.6095 11.94C18.4192 12.8928 19.441 14.5602 19.8238 17H20.5C21.5 17 22 16.25 22 14.75C22 11.4084 21.1785 9.30748 18.9087 8.44728C19.2822 7.89057 19.5 7.22073 19.5 6.5C19.5 4.567 17.933 3 16 3C14.5785 3 13.3548 3.84748 12.8069 5.06476ZM4.17619 17H3.5C2.5 17 2 16.25 2 14.75C2 11.4084 2.82149 9.30748 5.09128 8.44728C4.71785 7.89057 4.5 7.22073 4.5 6.5C4.5 4.567 6.067 3 8 3C9.42155 3 10.6452 3.84748 11.1931 5.06476C8.81537 5.45054 7 7.51327 7 10C7 10.6768 7.13528 11.3341 7.39048 11.94C5.58078 12.8928 4.55897 14.5602 4.17619 17ZM5 19.5C5 21.1667 5.58333 22 6.75 22H17.25C18.4167 22 19 21.1667 19 19.5C19 16.1539 18.2216 13.9275 16.1296 12.8206C15.0658 14.2612 13.6945 15 12.0462 15C10.3862 15 9.00385 14.2508 7.92968 12.7897C5.79307 13.8857 5 16.1225 5 19.5ZM8.4026 11.751C8.14471 11.2221 8 10.628 8 10C8 7.79086 9.79086 6 12 6C14.2091 6 16 7.79086 16 10C16 10.8379 15.7424 11.6156 15.302 12.2583C14.4257 13.4312 13.3502 14 12.0462 14C10.562 14 9.36902 13.2629 8.42524 11.737L8.4026 11.751Z" fill="#636363"/>
</svg>
