<svg width="24" height="24" viewBox="0 0 24 24" fill="none" xmlns="http://www.w3.org/2000/svg">
<path fill-rule="evenodd" clip-rule="evenodd" d="M21 12H20.5527C20.1432 10.5488 19.4405 9.40406 18.3953 8.57141C18.4645 8.2218 18.5 7.86327 18.5 7.5C18.5 5.41073 17.3351 3.59355 15.6193 2.66256C16.1338 2.24809 16.7879 2 17.5 2C19.1569 2 20.5 3.34315 20.5 5C20.5 5.50179 20.3768 5.9748 20.159 6.39045C21.5058 7.01383 22 8.38368 22 10.5C22 11.5 21.6667 12 21 12ZM14.625 9.55556C14.625 7.27968 13.2394 5.32344 11.2559 4.46483C11.7694 4.16914 12.3649 4 13 4C14.933 4 16.5 5.567 16.5 7.5C16.5 8.21944 16.2829 8.88818 15.9107 9.4443C18.0921 10.2694 19 12.2774 19 15.75C19 15.8744 18.9968 15.993 18.9908 16.106L18.8903 18H17.8914C17.5493 14.9237 16.3844 12.8544 14.1857 11.7111C14.4728 11.0379 14.625 10.3076 14.625 9.55556ZM3.75 22C2.58333 22 2 21.1667 2 19.5C2 16.1225 2.79307 13.8857 4.92968 12.7897C6.00385 14.2508 7.3862 15 9.04623 15C10.6945 15 12.0658 14.2612 13.1296 12.8206C15.2216 13.9275 16 16.1539 16 19.5C16 21.1667 15.4167 22 14.25 22H3.75ZM12.302 12.2583C12.7424 11.6156 13 10.8379 13 10C13 7.79086 11.2091 6 9 6C6.79086 6 5 7.79086 5 10C5 10.628 5.14471 11.2221 5.4026 11.751L5.42524 11.737C6.36902 13.2629 7.56196 14 9.04623 14C10.3502 14 11.4257 13.4312 12.302 12.2583Z" fill="#636363"/>
</svg>
