<svg width="24" height="24" viewBox="0 0 24 24" fill="none" xmlns="http://www.w3.org/2000/svg">
<path fill-rule="evenodd" clip-rule="evenodd" d="M19.1379 8.05218C19.3697 7.58442 19.5 7.05743 19.5 6.5C19.5 4.567 17.933 3 16 3C14.4929 3 13.2083 3.95254 12.7154 5.28843C14.0628 6.35242 14.9429 7.98208 14.9973 9.81904C15.3283 9.91614 15.6776 9.96425 16.0459 9.96425C17.3701 9.96425 18.4327 9.32028 19.1379 8.05218ZM19.8437 8.92428C18.8479 10.2355 17.5729 10.9076 16.0459 10.9076C15.6647 10.9076 15.299 10.8657 14.9492 10.7825C14.9176 11.0242 14.8715 11.2627 14.8113 11.4968C16.5065 12.6711 17.4719 14.5109 17.8337 17H20.5C20.5 17 22 17 22 14.75C22 11.9152 21.4088 9.97327 19.8437 8.92428ZM4.92968 12.7897C2.79307 13.8857 2 16.1225 2 19.5C2 21.1667 2.58333 22 3.75 22H14.25C15.4167 22 16 21.1667 16 19.5C16 16.1539 15.2216 13.9275 13.1296 12.8206C12.0658 14.2612 10.6945 15 9.04623 15C7.3862 15 6.00385 14.2508 4.92968 12.7897ZM5.4026 11.751C5.14471 11.2221 5 10.628 5 10C5 7.79086 6.79086 6 9 6C11.2091 6 13 7.79086 13 10C13 10.8379 12.7424 11.6156 12.302 12.2583C11.4257 13.4312 10.3502 14 9.04623 14C7.56196 14 6.36902 13.2629 5.42524 11.737L5.4026 11.751Z" fill="#636363"/>
</svg>
