<svg xmlns="http://www.w3.org/2000/svg" xmlns:xlink="http://www.w3.org/1999/xlink" width="24" height="24" viewBox="0 0 24 24">
  <defs>
    <path id="user-groups-plus-solid-a" d="M18,18 L16,18 L16,19 L18,19 L18,21 L19,21 L19,19 L21,19 L21,18 L19,18 L19,16 L18,16 L18,18 Z M18.5700946,14.0005362 C21.0230529,14.0380864 23,16.0431351 23,18.5 C23,20.9852814 20.9802243,23 18.5,23 C16.9407517,23 15.5667273,22.2049717 14.7592649,21 L6,21 C4.66666667,21 4,20.25 4,18.75 C4,14.25 5.98632812,12 12,12 C15.2738671,12 17.3541273,12.6668454 18.5700946,14.0005362 Z M12,11 C9.790861,11 8,9.209139 8,7 C8,4.790861 9.790861,3 12,3 C14.209139,3 16,4.790861 16,7 C16,9.209139 14.209139,11 12,11 Z"/>
  </defs>
  <g fill="none" fill-rule="evenodd">
    <rect width="24" height="24"/>
    <use fill="#1C2025" fill-rule="nonzero" xlink:href="#user-groups-plus-solid-a"/>
  </g>
</svg>
