<svg width="24" height="24" viewBox="0 0 24 24" fill="none" xmlns="http://www.w3.org/2000/svg">
<path fill-rule="evenodd" clip-rule="evenodd" d="M15 4H4C2.89543 4 2 5.19391 2 6.66667V17.3333C2 18.8061 2.89543 20 4 20H15C16.1046 20 17 18.8061 17 17.3333V15.5736L20.5039 17.8502C20.655 17.9484 20.826 18 21 18C21.5523 18 22 17.4909 22 16.863V7.13722C22 6.93935 21.9546 6.7449 21.8682 6.5731C21.5942 6.02787 20.9834 5.83845 20.5039 6.15001L17 8.42657V6.66667C17 5.19391 16.1046 4 15 4ZM15 9.72604V14.2742V18H4V6H15V9.72604ZM20 15L17 12.9861V11.0139L20 9V15Z" fill="#5E6D7A"/>
</svg>
