<svg width="24" height="24" viewBox="0 0 24 24" fill="none" xmlns="http://www.w3.org/2000/svg">
<path fill-rule="evenodd" clip-rule="evenodd" d="M7.46261 6H7.43739L3.73524 2.29786C3.33819 1.9008 2.69455 1.9007 2.29763 2.29763C1.9007 2.69455 1.9008 3.33819 2.29786 3.73524L4.56261 6H4C2.89543 6 2 6.89543 2 8V16C2 17.1046 2.89543 18 4 18H15C15.4407 18 15.8481 17.8575 16.1786 17.616L20.2648 21.7021C20.6618 22.0992 21.3055 22.0993 21.7024 21.7024C22.0993 21.3055 22.0992 20.6618 21.7021 20.2648L17 15.5626V15.5374L15 13.5374V13.5626L9.43739 8H9.46261L7.46261 6ZM15 10.6626V10V8H12.3374L10.3374 6H15C16.1046 6 17 6.89543 17 8V8.85714L20.5039 6.85494C20.9834 6.58093 21.5942 6.74752 21.8682 7.22704C21.9546 7.37814 22 7.54915 22 7.72318V16.2768C22 16.6521 21.7933 16.9791 21.4875 17.1501L17.4124 13.075L20 14.5536V9.44636L17 11.1606V12.6626L15 10.6626ZM4 8H6.56261L14.5626 16H4V8Z" fill="#636363"/>
</svg>
