<svg width="24" height="24" viewBox="0 0 24 24" fill="none" xmlns="http://www.w3.org/2000/svg">
<path fill-rule="evenodd" clip-rule="evenodd" d="M12 2H20C21.1046 2 22 2.89543 22 4V10C22 11.1046 21.1046 12 20 12H18C18.5523 12 19 12.4477 19 13C19 13.5523 18.5523 14 18 14H16.9496C16.4391 12.9706 15.7331 12.1353 14.8113 11.4968C14.9356 11.0133 15 10.5112 15 10H20V4H12V4.80269C11.3926 4.45134 10.7179 4.2034 10 4.08296V4C10 2.89543 10.8954 2 12 2ZM2.04274 20.249L2.26242 22H15.7376L15.9573 20.249C15.9851 20.0267 16 19.7752 16 19.5C16 16.0274 15.1394 13.8814 13.1314 12.8171C12.231 14.135 10.7165 15 9 15C7.28347 15 5.76897 14.135 4.86859 12.8171C2.86063 13.8814 2 16.0274 2 19.5C2 19.7752 2.01485 20.0267 2.04274 20.249ZM5 10C5 12.2091 6.79086 14 9 14C11.2091 14 13 12.2091 13 10C13 7.79086 11.2091 6 9 6C6.79086 6 5 7.79086 5 10Z" fill="#636363"/>
</svg>
