<svg width="24" height="24" viewBox="0 0 24 24" fill="none" xmlns="http://www.w3.org/2000/svg">
<path fill-rule="evenodd" clip-rule="evenodd" d="M6 8L11.1799 3.68341C11.392 3.50662 11.7073 3.53529 11.8841 3.74743C11.959 3.83728 12 3.95055 12 4.06752V19.9325C12 20.2086 11.7761 20.4325 11.5 20.4325C11.383 20.4325 11.2698 20.3915 11.1799 20.3166L6 16H3C2.44772 16 2 15.5523 2 15V9C2 8.44771 2.44772 8 3 8H6ZM14 8C16.2091 8 18 9.79086 18 12C18 14.2091 16.2091 16 14 16V14C15.1046 14 16 13.1046 16 12C16 10.8954 15.1046 10 14 10V8ZM14 4C18.4183 4 22 7.58172 22 12C22 16.4183 18.4183 20 14 20V18C17.3137 18 20 15.3137 20 12C20 8.68629 17.3137 6 14 6V4Z" fill="#636363"/>
</svg>
