<svg width="24" height="24" viewBox="0 0 24 24" fill="none" xmlns="http://www.w3.org/2000/svg">
<path fill-rule="evenodd" clip-rule="evenodd" d="M20 3H4C2.89543 3 2 3.89543 2 5V17C2 18.1046 2.89543 19 4 19H6V20C6 20.5523 6.44771 21 7 21H17C17.5523 21 18 20.5523 18 20V19H20C21.1046 19 22 18.1046 22 17V5C22 3.89543 21.1046 3 20 3ZM4 17V5H20V17H4ZM12 6C11.4477 6 11 6.44772 11 7C11 7.55228 11.4477 8 12 8H13.5933L9 12.5933V11C9 10.4477 8.55228 10 8 10C7.44772 10 7 10.4477 7 11V15C7 15.5523 7.44772 16 8 16H12C12.5523 16 13 15.5523 13 15C13 14.4477 12.5523 14 12 14H10.4217L15 9.42174V11C15 11.5523 15.4477 12 16 12C16.5523 12 17 11.5523 17 11V7C17 6.44772 16.5523 6 16 6H12Z" fill="#636363"/>
</svg>
