<svg width="24" height="24" viewBox="0 0 24 24" fill="none" xmlns="http://www.w3.org/2000/svg">
<path d="M9.70703 2.29297L8.29297 3.70703L11 6.41406V10.1953L7.79297 8.18945L6.93555 4.45898L4.98633 4.9082L5.71484 8.06836L2.55469 8.79688L3.00391 10.7461L6.73242 9.88672L10.1133 12L6.73242 14.1133L3.00391 13.2539L2.55469 15.2031L5.71484 15.9316L4.98633 19.0918L6.93555 19.541L7.79297 15.8105L11 13.8066V17.5859L8.29297 20.293L9.70703 21.707L12 19.4141L14.293 21.707L15.707 20.293L13 17.5859V13.8066L16.207 15.8105L17.0645 19.541L19.0137 19.0918L18.2852 15.9316L21.4453 15.2031L20.9961 13.2539L17.2676 14.1133L13.8867 12L17.2676 9.88672L20.9961 10.7461L21.4453 8.79688L18.2852 8.06836L19.0137 4.9082L17.0645 4.45898L16.207 8.18945L13 10.1953V6.41406L15.707 3.70703L14.293 2.29297L12 4.58594L9.70703 2.29297Z" fill="#A4B8D1"/>
</svg>
