<svg width="24" height="24" viewBox="0 0 24 24" fill="none" xmlns="http://www.w3.org/2000/svg">
<path d="M22.0491 14.6412C21.3728 13.8853 20.0765 13.5364 18.2166 13.5364C17.2021 13.5364 16.1312 13.6527 15.1167 13.8272C14.4404 13.1876 13.8768 12.4317 13.3132 11.6757C12.9187 11.0943 12.5242 10.5128 12.186 9.87318C12.7496 8.24506 13.0878 6.50065 13.2005 4.75624C13.2005 3.18626 12.5805 1.5 10.8897 1.5C10.3261 1.5 9.76248 1.84888 9.48068 2.37221C8.74799 3.65144 9.02979 6.26806 10.2134 9.00097C9.81884 10.2221 9.36795 11.4432 8.86071 12.7805C8.40982 13.9435 7.90258 15.0483 7.28261 16.0949C5.53543 16.7927 1.87198 18.5371 1.53382 20.4559C1.4211 21.0374 1.59018 21.6189 2.04106 21.9678C2.43559 22.3167 2.99919 22.5492 3.5628 22.4911C5.76087 22.4911 7.95894 19.3512 9.48068 16.6182C10.3261 16.3275 11.1715 16.0368 12.0733 15.8042C13.0314 15.5716 13.9332 15.339 14.7786 15.1646C17.1457 17.2579 19.2311 17.6067 20.2456 17.6067C21.6546 17.6067 22.2182 16.9671 22.3873 16.4438C22.6127 15.8042 22.5 15.1064 22.0491 14.6412ZM20.5274 15.746C20.471 16.1531 20.0201 16.4438 19.4565 16.4438C19.2874 16.4438 19.1184 16.4438 18.9493 16.3857C17.8221 16.0949 16.7512 15.5134 15.8494 14.7575C16.5821 14.6412 17.3712 14.5831 18.1039 14.5831C18.6111 14.5831 19.1184 14.6412 19.6256 14.6994C20.1329 14.8157 20.6965 15.0483 20.5274 15.746ZM10.4388 2.89553C10.5515 2.72109 10.7206 2.60479 10.9461 2.54665C11.5097 2.54665 11.6224 3.18627 11.6224 3.76774C11.566 5.10512 11.3406 6.38435 10.9461 7.66359C9.98792 5.16327 10.1006 3.477 10.4388 2.89553ZM13.595 14.0598C12.975 14.1761 12.3551 14.3505 11.7351 14.5249C11.2842 14.6412 10.8333 14.8157 10.3261 14.932C10.5515 14.4087 10.777 13.8853 11.0024 13.4202C11.2842 12.7805 11.5097 12.1409 11.7351 11.5013C11.9605 11.8502 12.1296 12.1409 12.3551 12.4317C12.7496 13.0131 13.2005 13.5364 13.595 14.0598ZM6.77536 17.4323C5.36635 19.7582 3.95733 21.27 3.16828 21.27C3.05556 21.27 2.88647 21.2119 2.83011 21.1537C2.66103 21.0374 2.60467 20.8048 2.66103 20.6304C2.77375 19.7582 4.40821 18.5371 6.77536 17.4323Z" fill="#292929"/>
</svg>
