<svg width="24" height="24" viewBox="0 0 24 24" fill="none" xmlns="http://www.w3.org/2000/svg">
<path d="M12 1.5C6.20101 1.5 1.5 6.20101 1.5 12C1.5 17.799 6.20101 22.5 12 22.5C17.799 22.5 22.5 17.799 22.5 12C22.5 11.5858 22.1642 11.25 21.75 11.25C21.3358 11.25 21 11.5858 21 12C21 16.9706 16.9706 21 12 21C7.02944 21 3 16.9706 3 12C3 7.02944 7.02944 3 12 3C12.4142 3 12.75 2.66421 12.75 2.25C12.75 1.83579 12.4142 1.5 12 1.5Z" fill="#292929"/>
<path d="M8.25 11.25C9.07843 11.25 9.75 10.5784 9.75 9.75C9.75 8.92157 9.07843 8.25 8.25 8.25C7.42157 8.25 6.75 8.92157 6.75 9.75C6.75 10.5784 7.42157 11.25 8.25 11.25Z" fill="#292929"/>
<path d="M16.4958 14.996C16.7448 15.245 16.783 15.6401 16.5536 15.9073C15.4532 17.1886 13.8213 18.0001 12 18.0001C10.1786 18.0001 8.54675 17.1886 7.44636 15.9073C7.21689 15.6401 7.25509 15.245 7.50413 14.996C7.83689 14.6632 8.39391 14.7331 8.71568 15.0764C9.53675 15.9527 10.7044 16.5001 12 16.5001C13.2955 16.5001 14.4632 15.9527 15.2842 15.0764C15.606 14.7331 16.163 14.6632 16.4958 14.996Z" fill="#292929"/>
<path d="M15.75 11.25C16.5784 11.25 17.25 10.5784 17.25 9.75C17.25 8.92157 16.5784 8.25 15.75 8.25C14.9216 8.25 14.25 8.92157 14.25 9.75C14.25 10.5784 14.9216 11.25 15.75 11.25Z" fill="#292929"/>
<path d="M18.75 2.25C18.75 1.83579 19.0858 1.5 19.5 1.5C19.9142 1.5 20.25 1.83579 20.25 2.25V3.75H21.75C22.1642 3.75 22.5 4.08579 22.5 4.5C22.5 4.91421 22.1642 5.25 21.75 5.25H20.25V6.75C20.25 7.16421 19.9142 7.5 19.5 7.5C19.0858 7.5 18.75 7.16421 18.75 6.75V5.25H17.25C16.8358 5.25 16.5 4.91421 16.5 4.5C16.5 4.08579 16.8358 3.75 17.25 3.75H18.75V2.25Z" fill="#292929"/>
</svg>
