<svg width="24" height="24" viewBox="0 0 24 24" fill="none" xmlns="http://www.w3.org/2000/svg">
<path d="M8.37467 1.67348L7.81702 3.16056C7.78991 3.23286 7.73286 3.28991 7.66056 3.31702L6.17348 3.87467C5.94217 3.96141 5.94217 4.28859 6.17348 4.37533L7.66056 4.93298C7.73286 4.9601 7.78991 5.01714 7.81702 5.08944L8.37467 6.57652C8.46141 6.80783 8.78859 6.80783 8.87533 6.57652L9.43298 5.08944C9.4601 5.01714 9.51714 4.9601 9.58944 4.93298L11.0765 4.37533C11.3078 4.28859 11.3078 3.96141 11.0765 3.87467L9.58944 3.31702C9.51714 3.28991 9.4601 3.23286 9.43298 3.16056L8.87533 1.67348C8.78859 1.44217 8.46141 1.44217 8.37467 1.67348Z" fill="#26252A"/>
<path fill-rule="evenodd" clip-rule="evenodd" d="M15.0654 4.22299L4.90673 15.0371C4.64545 15.3152 4.5 15.6825 4.5 16.0641V18.47C4.5 19.2984 5.17157 19.97 6 19.97H8.37868C8.7765 19.97 9.15803 19.812 9.43934 19.5307L19.9393 9.03068C20.5251 8.44489 20.5251 7.49514 19.9393 6.90936L17.2193 4.18934C16.6206 3.59057 15.6452 3.60581 15.0654 4.22299ZM18.8787 7.97002L16.3447 10.504L13.7038 7.86321L16.1587 5.25L18.8787 7.97002ZM8.37868 18.47L15.284 11.5647L12.6763 8.95701L6 16.0641V18.47L8.37868 18.47Z" fill="#26252A"/>
<path d="M19.067 18.9106L19.6247 17.4235C19.7114 17.1922 20.0386 17.1922 20.1253 17.4235L20.683 18.9106C20.7101 18.9829 20.7671 19.0399 20.8394 19.067L22.3265 19.6247C22.5578 19.7114 22.5578 20.0386 22.3265 20.1253L20.8394 20.683C20.7671 20.7101 20.7101 20.7671 20.683 20.8394L20.1253 22.3265C20.0386 22.5578 19.7114 22.5578 19.6247 22.3265L19.067 20.8394C19.0399 20.7671 18.9829 20.7101 18.9106 20.683L17.4235 20.1253C17.1922 20.0386 17.1922 19.7114 17.4235 19.6247L18.9106 19.067C18.9829 19.0399 19.0399 18.9829 19.067 18.9106Z" fill="#26252A"/>
<path d="M3 11.25C3.82843 11.25 4.5 10.5784 4.5 9.75C4.5 8.92157 3.82843 8.25 3 8.25C2.17157 8.25 1.5 8.92157 1.5 9.75C1.5 10.5784 2.17157 11.25 3 11.25Z" fill="#26252A"/>
<path d="M15 21C15 21.8284 14.3284 22.5 13.5 22.5C12.6716 22.5 12 21.8284 12 21C12 20.1716 12.6716 19.5 13.5 19.5C14.3284 19.5 15 20.1716 15 21Z" fill="#26252A"/>
<path d="M21 15C21.8284 15 22.5 14.3284 22.5 13.5C22.5 12.6716 21.8284 12 21 12C20.1716 12 19.5 12.6716 19.5 13.5C19.5 14.3284 20.1716 15 21 15Z" fill="#26252A"/>
</svg>
