<svg width="24" height="24" viewBox="0 0 24 24" fill="none" xmlns="http://www.w3.org/2000/svg">
<path d="M7.5 9.75C7.5 10.1642 7.83579 10.5 8.25 10.5H15.75C16.1642 10.5 16.5 10.1642 16.5 9.75C16.5 9.33579 16.1642 9 15.75 9H8.25C7.83579 9 7.5 9.33579 7.5 9.75Z" fill="#292929"/>
<path fill-rule="evenodd" clip-rule="evenodd" d="M1.5 4.5C1.5 5.32843 2.17157 6 3 6L3 21C3 21.8284 3.67157 22.5 4.5 22.5H19.5C20.3284 22.5 21 21.8284 21 21V6C21.8284 6 22.5 5.32843 22.5 4.5V3C22.5 2.17157 21.8284 1.5 21 1.5H3C2.17157 1.5 1.5 2.17157 1.5 3V4.5ZM21 3H3V4.5H21V3ZM4.5 6H19.5V21H4.5L4.5 6Z" fill="#292929"/>
</svg>
