<svg width="24" height="24" viewBox="0 0 24 24" fill="none" xmlns="http://www.w3.org/2000/svg">
<path d="M20.7803 3.21967C21.0732 3.51256 21.0732 3.98744 20.7803 4.28033L5.56066 19.5H9.75C10.1642 19.5 10.5 19.8358 10.5 20.25C10.5 20.6642 10.1642 21 9.75 21H3.75L3.74775 21C3.55806 20.9994 3.36854 20.9273 3.22311 20.7837L3.2148 20.7754C3.14531 20.7046 3.09268 20.6235 3.05691 20.5371C3.02024 20.4486 3 20.3517 3 20.25V14.25C3 13.8358 3.33579 13.5 3.75 13.5C4.16421 13.5 4.5 13.8358 4.5 14.25V18.4393L19.7197 3.21967C20.0126 2.92678 20.4874 2.92678 20.7803 3.21967Z" fill="#292929"/>
</svg>
