<svg width="24" height="24" viewBox="0 0 24 24" fill="none" xmlns="http://www.w3.org/2000/svg">
<path d="M3.21894 20.7796C2.92604 20.4867 2.92604 20.0118 3.21894 19.7189L18.4386 4.49928H14.2493C13.8351 4.49928 13.4993 4.1635 13.4993 3.74929C13.4993 3.33507 13.8351 2.99929 14.2493 2.99929H20.2493L20.2515 2.99929C20.4412 2.99986 20.6307 3.07194 20.7762 3.21555L20.7845 3.22388C20.854 3.29463 20.9066 3.37575 20.9424 3.4622C20.979 3.55063 20.9993 3.64759 20.9993 3.74929V9.74927C20.9993 10.1635 20.6635 10.4993 20.2493 10.4993C19.8351 10.4993 19.4993 10.1635 19.4993 9.74927V5.55994L4.2796 20.7796C3.98671 21.0725 3.51183 21.0725 3.21894 20.7796Z" fill="#292929"/>
</svg>
