<svg width="24" height="24" viewBox="0 0 24 24" fill="none" xmlns="http://www.w3.org/2000/svg">
<path d="M11.0303 12.9696C11.3232 13.2625 11.3232 13.7374 11.0303 14.0303L4.81066 20.2499H9C9.41422 20.2499 9.75 20.5857 9.75 20.9999C9.75 21.4141 9.41422 21.7499 9 21.7499H3L2.99775 21.7499C2.80806 21.7494 2.61854 21.6773 2.47311 21.5337L2.4648 21.5253C2.39531 21.4546 2.34268 21.3735 2.30691 21.287C2.27024 21.1986 2.25 21.1016 2.25 20.9999V15C2.25 14.5857 2.58579 14.25 3 14.25C3.41421 14.25 3.75 14.5857 3.75 15V19.1893L9.96967 12.9696C10.2626 12.6767 10.7374 12.6767 11.0303 12.9696Z" fill="#292929"/>
<path d="M12.9697 11.0303C12.6768 10.7374 12.6768 10.2626 12.9697 9.96967L19.1893 3.75H15C14.5858 3.75 14.25 3.41421 14.25 3C14.25 2.58579 14.5858 2.25 15 2.25L21 2.25L21.0022 2.25C21.1919 2.25057 21.3815 2.32265 21.5269 2.46626L21.5352 2.47459C21.6047 2.54535 21.6573 2.62646 21.6931 2.71291C21.7298 2.80134 21.75 2.89831 21.75 3V9C21.75 9.41421 21.4142 9.75 21 9.75C20.5858 9.75 20.25 9.41421 20.25 9V4.81066L14.0303 11.0303C13.7374 11.3232 13.2626 11.3232 12.9697 11.0303Z" fill="#292929"/>
</svg>
