<svg width="24" height="24" viewBox="0 0 24 24" fill="none" xmlns="http://www.w3.org/2000/svg">
<path d="M9.75 2.25C9.75 1.83579 9.41421 1.5 9 1.5C8.58579 1.5 8.25 1.83579 8.25 2.25V21.75C8.25 22.1642 8.58579 22.5 9 22.5C9.41421 22.5 9.75 22.1642 9.75 21.75V2.25Z" fill="#292929"/>
<path d="M6 6C6.41421 6 6.75 6.33579 6.75 6.75V18.75C6.75 19.1642 6.41421 19.5 6 19.5C5.58579 19.5 5.25 19.1642 5.25 18.75V6.75C5.25 6.33579 5.58579 6 6 6Z" fill="#292929"/>
<path d="M3 10.5C3.41421 10.5 3.75 10.8358 3.75 11.25V14.25C3.75 14.6642 3.41421 15 3 15C2.58579 15 2.25 14.6642 2.25 14.25V11.25C2.25 10.8358 2.58579 10.5 3 10.5Z" fill="#292929"/>
<path d="M12 6C12.4142 6 12.75 6.33579 12.75 6.75V18.75C12.75 19.1642 12.4142 19.5 12 19.5C11.5858 19.5 11.25 19.1642 11.25 18.75V6.75C11.25 6.33579 11.5858 6 12 6Z" fill="#292929"/>
<path d="M15.75 11.25C15.75 10.8358 15.4142 10.5 15 10.5C14.5858 10.5 14.25 10.8358 14.25 11.25V14.25C14.25 14.6642 14.5858 15 15 15C15.4142 15 15.75 14.6642 15.75 14.25V11.25Z" fill="#292929"/>
<path d="M18 6C18.4142 6 18.75 6.33579 18.75 6.75V18.75C18.75 19.1642 18.4142 19.5 18 19.5C17.5858 19.5 17.25 19.1642 17.25 18.75V6.75C17.25 6.33579 17.5858 6 18 6Z" fill="#292929"/>
<path d="M21.75 2.25C21.75 1.83579 21.4142 1.5 21 1.5C20.5858 1.5 20.25 1.83579 20.25 2.25V21.75C20.25 22.1642 20.5858 22.5 21 22.5C21.4142 22.5 21.75 22.1642 21.75 21.75V2.25Z" fill="#292929"/>
</svg>
