<svg width="24" height="24" viewBox="0 0 24 24" fill="none" xmlns="http://www.w3.org/2000/svg">
<path fill-rule="evenodd" clip-rule="evenodd" d="M3 7.875C3 6.63236 4.00736 5.625 5.25 5.625C5.51298 5.625 5.76542 5.67012 6 5.75303V5.25C6 4.00736 7.00736 3 8.25 3C8.54269 3 8.82232 3.05589 9.07881 3.15757C9.33884 2.20235 10.2124 1.5 11.25 1.5C12.2876 1.5 13.1612 2.20235 13.4212 3.15757C13.6777 3.05589 13.9573 3 14.25 3C15.4926 3 16.5 4.00736 16.5 5.25V11.6425L18.0673 11.0155C19.0818 10.6096 20.2381 11.0491 20.7267 12.0265C21.2034 12.9799 21.0922 14.1221 20.4404 14.9656L16.6449 19.8776C15.3667 21.5318 13.3942 22.5004 11.3037 22.5004H9.57175C7.55949 22.5004 5.66336 21.558 4.44825 19.9541C3.50856 18.7137 3 17.2002 3 15.6441V7.875ZM10.5 3.75C10.5 3.33579 10.8358 3 11.25 3C11.6642 3 12 3.33579 12 3.75V13.5C12 13.9142 12.3358 14.25 12.75 14.25C13.1642 14.25 13.5 13.9142 13.5 13.5V5.25C13.5 4.83579 13.8358 4.5 14.25 4.5C14.6642 4.5 15 4.83579 15 5.25V12.7334C14.9997 12.7448 14.9997 12.7564 15 12.7679V13.875C15 14.2892 15.3358 14.625 15.75 14.625C16.1642 14.625 16.5 14.2892 16.5 13.875V13.2581L18.6245 12.4081C18.9146 12.292 19.2453 12.4178 19.3851 12.6973C19.6042 13.1356 19.5531 13.6606 19.2535 14.0484L15.458 18.9604C14.4638 20.247 12.9296 21.0004 11.3037 21.0004H9.57175C8.02908 21.0004 6.57544 20.278 5.64388 19.0483C4.90168 18.0686 4.5 16.8732 4.5 15.6441V7.875C4.5 7.46079 4.83579 7.125 5.25 7.125C5.66421 7.125 6 7.46079 6 7.875V13.5C6 13.9142 6.33579 14.25 6.75 14.25C7.16421 14.25 7.5 13.9142 7.5 13.5V5.25C7.5 4.83579 7.83579 4.5 8.25 4.5C8.66421 4.5 9 4.83579 9 5.25V13.5C9 13.9142 9.33579 14.25 9.75 14.25C10.1642 14.25 10.5 13.9142 10.5 13.5V3.75Z" fill="#292929"/>
</svg>
