<svg width="24" height="24" viewBox="0 0 24 24" fill="none" xmlns="http://www.w3.org/2000/svg">
<path fill-rule="evenodd" clip-rule="evenodd" d="M12.1002 1.5C11.6031 1.5 11.2002 1.90294 11.2002 2.4V9.6C11.2002 10.0971 11.6031 10.5 12.1002 10.5C12.5973 10.5 13.0002 10.0971 13.0002 9.6V2.4C13.0002 1.90294 12.5973 1.5 12.1002 1.5ZM9.5 3.42635C6.58702 4.45594 4.5 7.23404 4.5 10.4996V12.0945C4.5 12.9848 4.10453 13.8291 3.42055 14.3991L3.07702 14.6854C2.55299 15.1221 2.25 15.769 2.25 16.4511C2.25 17.7205 3.27906 18.7496 4.54846 18.7496H8.25C8.25 20.8207 9.92893 22.4996 12 22.4996C14.0711 22.4996 15.75 20.8207 15.75 18.7496H19.3635C20.6815 18.7496 21.75 17.6811 21.75 16.3631C21.75 15.7302 21.4986 15.1232 21.051 14.6756L20.3787 14.0033C19.8161 13.4407 19.5 12.6776 19.5 11.8819V10.4996C19.5 7.30927 17.508 4.5842 14.7 3.50028V5.13996C16.6575 6.12805 18 8.15704 18 10.4996V12.5033C18 13.2989 18.3161 14.062 18.8787 14.6246L19.9904 15.7363C20.1566 15.9025 20.25 16.128 20.25 16.3631C20.25 16.8527 19.8531 17.2496 19.3635 17.2496H4.54846C4.10748 17.2496 3.75 16.8921 3.75 16.4511C3.75 16.2142 3.85526 15.9894 4.0373 15.8377L4.92055 15.1017C5.60453 14.5317 6 13.6874 6 12.797V10.4996C6 8.07809 7.43447 5.99163 9.5 5.04363V3.42635ZM11.2908 2.00502C11.4295 1.72087 11.7135 1.52063 12.0461 1.50098L12.0477 1.50108C11.7144 1.52016 11.4296 1.72065 11.2907 2.00534L11.2908 2.00502ZM9.75 18.7496C9.75 19.9922 10.7574 20.9996 12 20.9996C13.2426 20.9996 14.25 19.9922 14.25 18.7496H9.75ZM12.1003 14.5C12.7907 14.5 13.3503 13.9404 13.3503 13.25C13.3503 12.5596 12.7907 12 12.1003 12C11.41 12 10.8503 12.5596 10.8503 13.25C10.8503 13.9404 11.41 14.5 12.1003 14.5Z" fill="#292929"/>
</svg>
