<svg width="24" height="24" viewBox="0 0 24 24" fill="none" xmlns="http://www.w3.org/2000/svg">
<path fill-rule="evenodd" clip-rule="evenodd" d="M6.59833 11.5066C6.30544 11.2137 6.30544 10.7389 6.59833 10.446L7.66232 9.38198C6.93399 8.44914 6.50001 7.2753 6.50001 6.0001C6.50001 2.96253 8.96244 0.500098 12 0.500098C13.2752 0.500098 14.4491 0.934079 15.3819 1.6624L16.4433 0.601018C16.7362 0.308124 17.211 0.308125 17.5039 0.601018C17.7968 0.893911 17.7968 1.36878 17.5039 1.66168L16.4282 2.73742C17.1018 3.65017 17.5 4.77863 17.5 6.0001C17.5 9.03766 15.0376 11.5001 12 11.5001C10.7785 11.5001 9.65008 11.1019 8.73733 10.4283L7.65899 11.5066C7.3661 11.7995 6.89123 11.7995 6.59833 11.5066ZM12 10.0001C11.1936 10.0001 10.4429 9.76145 9.81469 9.35093L15.3508 3.81478C15.7614 4.44297 16 5.19366 16 6.0001C16 8.20924 14.2091 10.0001 12 10.0001ZM8.73411 8.31019L14.3101 2.7342C13.6576 2.27184 12.8606 2.0001 12 2.0001C9.79087 2.0001 8.00001 3.79096 8.00001 6.0001C8.00001 6.86064 8.27175 7.65771 8.73411 8.31019ZM6.14844 20.5939C6.14844 20.1681 6.0332 19.8419 5.80273 19.6154C5.57227 19.3888 5.15625 19.1681 4.55469 18.9532C3.95312 18.7384 3.49219 18.5138 3.17188 18.2794C2.85547 18.0411 2.61719 17.7716 2.45703 17.4708C2.30078 17.1661 2.22266 16.8185 2.22266 16.4279C2.22266 15.7521 2.44727 15.1954 2.89648 14.7579C3.34961 14.3204 3.94141 14.1017 4.67188 14.1017C5.17188 14.1017 5.61719 14.215 6.00781 14.4415C6.39844 14.6642 6.69922 14.9747 6.91016 15.3732C7.12109 15.7716 7.22656 16.2091 7.22656 16.6857H6.14844C6.14844 16.1583 6.02148 15.7501 5.76758 15.4611C5.51367 15.172 5.14844 15.0275 4.67188 15.0275C4.23828 15.0275 3.90234 15.1486 3.66406 15.3907C3.42578 15.6329 3.30664 15.9728 3.30664 16.4103C3.30664 16.7697 3.43555 17.0704 3.69336 17.3126C3.95117 17.5548 4.34961 17.7716 4.88867 17.963C5.72852 18.2404 6.32812 18.5822 6.6875 18.9884C7.05078 19.3947 7.23242 19.9259 7.23242 20.5822C7.23242 21.2736 7.00781 21.8282 6.55859 22.2462C6.10938 22.6603 5.49805 22.8673 4.72461 22.8673C4.22852 22.8673 3.76953 22.7599 3.34766 22.545C2.92969 22.3263 2.59961 22.0216 2.35742 21.631C2.11914 21.2365 2 20.7853 2 20.2775H3.07812C3.07812 20.8048 3.22461 21.215 3.51758 21.5079C3.81445 21.8009 4.2168 21.9474 4.72461 21.9474C5.19727 21.9474 5.55273 21.8263 5.79102 21.5841C6.0293 21.3419 6.14844 21.0118 6.14844 20.5939ZM9.96922 14.2189L12.1958 21.1798L14.4223 14.2189H15.8052V22.7501H14.7329V19.4279L14.8325 16.0997L12.6001 22.7501H11.7798L9.55906 16.1232L9.65867 19.4279V22.7501H8.58641V14.2189H9.96922ZM20.9795 19.6154C21.2099 19.8419 21.3252 20.1681 21.3252 20.5939C21.3252 21.0118 21.206 21.3419 20.9677 21.5841C20.7295 21.8263 20.374 21.9474 19.9013 21.9474C19.3935 21.9474 18.9912 21.8009 18.6943 21.5079C18.4013 21.215 18.2548 20.8048 18.2548 20.2775H17.1767C17.1767 20.7853 17.2959 21.2365 17.5341 21.631C17.7763 22.0216 18.1064 22.3263 18.5244 22.545C18.9463 22.7599 19.4052 22.8673 19.9013 22.8673C20.6748 22.8673 21.2861 22.6603 21.7353 22.2462C22.1845 21.8282 22.4091 21.2736 22.4091 20.5822C22.4091 19.9259 22.2275 19.3947 21.8642 18.9884C21.5048 18.5822 20.9052 18.2404 20.0654 17.963C19.5263 17.7716 19.1279 17.5548 18.8701 17.3126C18.6123 17.0704 18.4834 16.7697 18.4834 16.4103C18.4834 15.9728 18.6025 15.6329 18.8408 15.3907C19.0791 15.1486 19.415 15.0275 19.8486 15.0275C20.3252 15.0275 20.6904 15.172 20.9443 15.4611C21.1982 15.7501 21.3252 16.1583 21.3252 16.6857H22.4033C22.4033 16.2091 22.2978 15.7716 22.0869 15.3732C21.8759 14.9747 21.5752 14.6642 21.1845 14.4415C20.7939 14.215 20.3486 14.1017 19.8486 14.1017C19.1181 14.1017 18.5263 14.3204 18.0732 14.7579C17.624 15.1954 17.3994 15.7521 17.3994 16.4279C17.3994 16.8185 17.4775 17.1661 17.6338 17.4708C17.7939 17.7716 18.0322 18.0411 18.3486 18.2794C18.6689 18.5138 19.1298 18.7384 19.7314 18.9532C20.333 19.1681 20.749 19.3888 20.9795 19.6154Z" fill="#292929"/>
</svg>
