<svg width="24" height="24" viewBox="0 0 24 24" fill="none" xmlns="http://www.w3.org/2000/svg">
<path fill-rule="evenodd" clip-rule="evenodd" d="M12.4705 11.5006C12.1385 11.1687 12.1385 10.6305 12.4705 10.2985L13.4543 9.31471C12.8541 8.48982 12.5 7.47432 12.5 6.37612C12.5 3.6147 14.7386 1.37612 17.5 1.37612C18.5982 1.37612 19.6137 1.73017 20.4386 2.33036L21.4204 1.34857C21.7524 1.01662 22.2905 1.01662 22.6225 1.34857C22.9544 1.68051 22.9544 2.2187 22.6225 2.55065L21.6244 3.54873C22.1768 4.35293 22.5 5.32677 22.5 6.37612C22.5 9.13755 20.2615 11.3761 17.5 11.3761C16.4507 11.3761 15.4768 11.0529 14.6726 10.5005L13.6725 11.5006C13.3406 11.8325 12.8024 11.8325 12.4705 11.5006ZM17.5 9.87612C16.8665 9.87612 16.2723 9.70781 15.7597 9.41345L20.5374 4.63578C20.8317 5.1484 21 5.7426 21 6.37612C21 8.30912 19.433 9.87612 17.5 9.87612ZM14.5339 8.23503L19.3589 3.41003C18.8203 3.07175 18.183 2.87612 17.5 2.87612C15.567 2.87612 14 4.44313 14 6.37612C14 7.05911 14.1957 7.69641 14.5339 8.23503ZM8.84439 9.9999C9.2905 9.25968 9.44711 8.84524 9.34305 8.22161C9.24883 7.66264 7.77455 5.65601 7.07729 4.97642C6.71038 4.61867 6.30134 4.39645 5.82048 4.37669L5.79603 4.37614C4.57881 4.37089 2.7995 5.89942 2.11795 6.98152C1.37973 7.95959 1.31374 9.21862 1.86211 10.6497L1.94897 10.8657C3.38909 14.731 9.16104 20.4628 13.0298 21.9361C14.5061 22.5738 15.8484 22.53 16.9384 21.7287C17.8911 21.1604 19.4903 19.3362 19.4986 18.088C19.4783 17.5754 19.2556 17.1657 18.8983 16.7991C18.2198 16.1027 16.212 14.6275 15.655 14.5333C15.0825 14.4372 14.6863 14.5608 14.0541 14.9257L13.8192 15.0651C13.3691 15.3357 13.2102 15.3854 13.0054 15.3188C10.8465 14.5139 9.36233 13.0299 8.54768 10.8462C8.49552 10.6839 8.53072 10.5387 8.73614 10.1823L8.84439 9.9999ZM14.594 16.3623C14.3745 16.4941 14.0833 16.6631 13.7704 16.7608C13.3431 16.8941 12.9315 16.8836 12.5381 16.7557L12.5076 16.7458L12.4775 16.7345C9.90529 15.7754 8.09886 13.9659 7.13205 11.3742L7.11988 11.3416L7.10923 11.3085C6.9924 10.945 6.98313 10.5675 7.08902 10.1844C7.17133 9.88671 7.31549 9.62143 7.42701 9.4279L7.43189 9.41942L7.55028 9.21999C7.76234 8.86811 7.82811 8.71559 7.85237 8.63441C7.86099 8.60557 7.8623 8.59159 7.86279 8.58178C7.86304 8.57693 7.86327 8.5687 7.86271 8.55616C7.83783 8.50532 7.79906 8.4327 7.7434 8.33762C7.61117 8.11174 7.42347 7.82667 7.20558 7.52071C6.75573 6.88903 6.27446 6.3038 6.0227 6.05843C5.9266 5.96472 5.85946 5.92273 5.82306 5.90477C5.80321 5.89497 5.78916 5.89041 5.7769 5.88823C5.76269 5.88993 5.73664 5.89408 5.69768 5.90424C5.63129 5.92155 5.54251 5.95236 5.43215 6.00284C5.2081 6.10533 4.94533 6.26572 4.66843 6.47547C4.09811 6.90747 3.6202 7.43145 3.39642 7.78675L3.36239 7.84078L3.32392 7.89175C2.99775 8.32389 2.84606 8.98794 3.26882 10.0982L3.35802 10.3199L3.36481 10.3382C3.97287 11.9702 5.59745 14.1861 7.64542 16.2279C9.69134 18.2677 11.9231 19.8979 13.5675 20.5241L13.5984 20.5359L13.6289 20.5491C14.7594 21.0374 15.5011 20.91 16.0434 20.5113L16.1019 20.4683L16.1644 20.431C16.4233 20.2766 16.9246 19.8339 17.3704 19.2482C17.583 18.9689 17.7506 18.6985 17.86 18.4642C17.914 18.3487 17.9478 18.2546 17.9674 18.1828C17.9767 18.1484 17.9818 18.1229 17.9845 18.1056C17.9805 18.0834 17.9739 18.0658 17.9651 18.0476C17.9482 18.0127 17.9091 17.9488 17.8164 17.8537C17.5716 17.6025 16.9863 17.1211 16.3544 16.671C16.0484 16.453 15.7633 16.2651 15.5374 16.1327C15.4424 16.077 15.3698 16.0382 15.319 16.0133L15.3073 16.013L15.2969 16.013C15.2854 16.0134 15.2741 16.0146 15.2548 16.0195C15.2032 16.0329 15.0872 16.0744 14.8169 16.2299L14.594 16.3623Z" fill="#292929"/>
</svg>
