<svg width="24" height="24" viewBox="0 0 24 24" fill="none" xmlns="http://www.w3.org/2000/svg">
<path d="M5.25 6.75C4.83579 6.75 4.5 7.08579 4.5 7.5C4.5 7.91421 4.83579 8.25 5.25 8.25H6.75C7.16421 8.25 7.5 7.91421 7.5 7.5C7.5 7.08579 7.16421 6.75 6.75 6.75H5.25Z" fill="#292929"/>
<path d="M4.5 10.5C4.5 10.0858 4.83579 9.75 5.25 9.75H9C9.41421 9.75 9.75 10.0858 9.75 10.5C9.75 10.9142 9.41421 11.25 9 11.25H5.25C4.83579 11.25 4.5 10.9142 4.5 10.5Z" fill="#292929"/>
<path d="M5.25 12.75C4.83579 12.75 4.5 13.0858 4.5 13.5C4.5 13.9142 4.83579 14.25 5.25 14.25H9C9.41421 14.25 9.75 13.9142 9.75 13.5C9.75 13.0858 9.41421 12.75 9 12.75H5.25Z" fill="#292929"/>
<path fill-rule="evenodd" clip-rule="evenodd" d="M11.345 19.5944L11.6727 19.7473C11.7538 19.7868 11.8421 19.8119 11.9335 19.8202C11.9758 19.8241 12.0179 19.8242 12.0594 19.8209C12.1533 19.8133 12.2441 19.7878 12.3273 19.7473L12.655 19.5944C13.8467 19.0382 15.1458 18.75 16.4609 18.75H21C21.8284 18.75 22.5 18.0784 22.5 17.25V5.25C22.5 4.42157 21.8284 3.75 21 3.75H16.4609C15.1458 3.75 13.8467 4.03821 12.655 4.59435L12 4.9L11.345 4.59435C10.1533 4.03821 8.85418 3.75 7.53907 3.75H3C2.17157 3.75 1.5 4.42157 1.5 5.25V17.25C1.5 18.0784 2.17157 18.75 3 18.75H7.53907C8.85418 18.75 10.1533 19.0382 11.345 19.5944ZM11.25 6.20529L10.7107 5.95363C9.7176 5.49018 8.63499 5.25 7.53907 5.25H3L3 17.25H7.53907C8.80898 17.25 10.0661 17.4803 11.25 17.9276V6.20529ZM16.4609 17.25C15.191 17.25 13.9339 17.4803 12.75 17.9276V6.20529L13.2893 5.95363C14.2824 5.49018 15.365 5.25 16.4609 5.25H21V17.25H16.4609Z" fill="#292929"/>
</svg>
