<svg width="24" height="24" viewBox="0 0 24 24" fill="none" xmlns="http://www.w3.org/2000/svg">
<path fill-rule="evenodd" clip-rule="evenodd" d="M9.1294 1.27077C9.9197 1.2798 10.7041 1.52635 11.3706 2.00246C11.6084 2.17235 11.8184 2.37204 11.9998 2.59279C12.1811 2.37204 12.3919 2.17308 12.6296 2.00319C13.8148 1.15664 15.3714 1.0347 16.6741 1.68605L16.7195 1.70876C17.7471 2.22273 18.3393 3.32912 18.1968 4.46925L18.1455 4.88014C18.3644 4.85243 18.5814 4.92434 18.741 5.06764C20.2593 5.38101 21.2889 7.09977 20.4944 8.68874L20.4607 8.75685C21.7278 9.79349 21.83 11.6318 20.8599 12.8152C20.8444 12.9905 20.7676 13.1585 20.635 13.2869C21.7626 14.1878 21.7309 15.9351 20.5383 16.7871L20.1567 17.0596C20.8944 18.4184 19.9819 20.1386 18.4055 20.2442L17.9448 20.9341C17.2927 21.912 16.1949 22.4999 15.0195 22.5C13.8495 22.5 12.7421 21.9752 11.9998 21.0733C11.9642 21.1164 11.9293 21.16 11.8921 21.2014C11.1527 22.0251 10.0945 22.4991 8.98071 22.4993C7.87855 22.4992 6.84433 21.9827 6.18213 21.1121C6.13808 21.0542 6.09537 20.9944 6.05469 20.9334L5.594 20.2434C4.90418 20.1972 4.34148 19.8421 3.98853 19.3433C3.93813 19.272 3.8917 19.198 3.8501 19.1214C3.7877 19.0064 3.73536 18.886 3.69409 18.7617C3.65283 18.6374 3.6225 18.5091 3.60401 18.3787C3.58549 18.2481 3.57902 18.1152 3.58496 17.9817C3.58694 17.9373 3.59042 17.8929 3.59522 17.8484C3.61445 17.6703 3.65642 17.4919 3.72339 17.3174C3.75686 17.2301 3.79665 17.1438 3.84278 17.0589L3.46118 16.7864C3.42286 16.759 3.38578 16.7306 3.34986 16.7014C3.20628 16.5848 3.08163 16.4546 2.97632 16.314C2.94994 16.2787 2.92486 16.2428 2.90088 16.2063C2.8051 16.0607 2.72836 15.906 2.6709 15.7456C2.64222 15.6656 2.61825 15.5841 2.59912 15.5017C2.52253 15.1719 2.52258 14.8274 2.59912 14.4976C2.61829 14.415 2.64213 14.3332 2.6709 14.2529C2.72838 14.0926 2.80508 13.9378 2.90088 13.7923C2.92476 13.756 2.95006 13.7204 2.97632 13.6853C3.08171 13.5446 3.20612 13.4138 3.34986 13.2971C3.38578 13.268 3.42286 13.2396 3.46118 13.2122L3.50147 13.1829C3.25011 12.9705 3.0446 12.7228 2.88623 12.4527C2.83337 12.3625 2.78579 12.2697 2.74341 12.1751C2.61641 11.8914 2.53638 11.5899 2.50464 11.2837C2.49408 11.1818 2.48915 11.0793 2.48926 10.9768C2.48943 10.8228 2.50142 10.6687 2.52588 10.5161C2.54218 10.4145 2.5639 10.3134 2.59107 10.2136C2.74046 9.66495 3.05482 9.15197 3.53882 8.75612L3.50513 8.688C3.43306 8.54382 3.37751 8.39812 3.33447 8.25294C3.32888 8.23406 3.32275 8.21542 3.31763 8.19655C3.30835 8.16239 3.30048 8.12813 3.29273 8.09401C3.28866 8.07611 3.28393 8.05842 3.28028 8.04054C3.27189 7.99949 3.26527 7.95842 3.25904 7.9175C3.25713 7.90501 3.25488 7.89261 3.25318 7.88014C3.24867 7.84713 3.24533 7.81415 3.24219 7.78126C3.23971 7.75532 3.23724 7.72948 3.2356 7.70363C3.23398 7.67818 3.23275 7.6528 3.23194 7.62746C3.23141 7.61107 3.23067 7.59472 3.23047 7.57838V7.50954L3.2334 7.42311C3.23402 7.41111 3.23553 7.39919 3.23633 7.38722C3.23837 7.35659 3.24048 7.32606 3.24365 7.29567C3.24557 7.2773 3.24792 7.25901 3.25025 7.24074C3.2545 7.20736 3.2593 7.17416 3.26489 7.14113C3.26784 7.12373 3.2711 7.10642 3.27442 7.08913C3.28148 7.05227 3.28916 7.01563 3.29785 6.97926C3.30232 6.96058 3.30761 6.94214 3.3125 6.9236C3.31947 6.89716 3.32592 6.87063 3.33374 6.8445C3.34229 6.81591 3.35203 6.78774 3.36157 6.75954C3.36846 6.73918 3.37542 6.71889 3.38281 6.69875C3.39249 6.67237 3.40304 6.64638 3.41358 6.62038C3.42329 6.59641 3.43244 6.57224 3.44287 6.5486C3.47908 6.46652 3.52 6.38674 3.56446 6.3091C3.61094 6.22793 3.66193 6.14958 3.7168 6.07399C3.75942 6.01526 3.8035 5.95758 3.85083 5.9026C3.87632 5.87301 3.90315 5.84461 3.92993 5.81618C3.93598 5.80976 3.9414 5.80276 3.94751 5.7964C3.97156 5.77139 3.99645 5.7472 4.02149 5.72316C4.03506 5.71012 4.04865 5.69709 4.0625 5.68434C4.08045 5.66783 4.09902 5.65201 4.11743 5.636C4.13966 5.61668 4.16194 5.59743 4.18482 5.57887C4.2006 5.56607 4.21634 5.55322 4.23242 5.54079C4.25741 5.52147 4.2829 5.50279 4.3086 5.48439C4.33028 5.46886 4.35233 5.45384 4.37451 5.43898C4.38976 5.42877 4.40519 5.41884 4.42066 5.40895C4.44936 5.3906 4.47835 5.37269 4.50781 5.35548C4.52433 5.34583 4.54087 5.3362 4.55762 5.32692C4.57224 5.31882 4.58678 5.31056 4.60156 5.30275L4.66602 5.27052C4.67503 5.26609 4.68405 5.26167 4.69312 5.25734C4.72168 5.2437 4.75042 5.23037 4.77954 5.21779C4.79984 5.20902 4.82051 5.20112 4.84107 5.19289C4.86923 5.1816 4.89738 5.1702 4.92603 5.15993C4.94831 5.15194 4.97085 5.14459 4.99341 5.13722C5.01797 5.12921 5.04251 5.12104 5.06738 5.11378C5.09593 5.10546 5.12487 5.09839 5.15381 5.09108C5.17719 5.08517 5.20049 5.07873 5.22412 5.0735C5.25053 5.06766 5.27726 5.06311 5.30396 5.05812C5.32927 5.05339 5.35456 5.04814 5.38013 5.0442C5.41452 5.0389 5.4493 5.0356 5.48413 5.03175C5.50195 5.02979 5.51968 5.02674 5.5376 5.02516C5.54091 5.02487 5.54454 5.02471 5.54785 5.02443C5.63798 4.95672 5.74317 4.91028 5.85401 4.8882L5.80274 4.46852C5.78494 4.32605 5.7784 4.18404 5.78296 4.04372C5.79437 3.69275 5.87375 3.35176 6.01221 3.0381C6.06754 2.91274 6.13271 2.79187 6.2063 2.67629C6.4273 2.3292 6.72792 2.03099 7.09253 1.81129C7.15329 1.77468 7.2158 1.74015 7.28003 1.70802L7.32544 1.68532C7.40666 1.64471 7.48923 1.60713 7.57227 1.57253C7.90534 1.43375 8.25188 1.34328 8.60205 1.30006C8.68952 1.28926 8.77722 1.28153 8.86499 1.27663C8.95311 1.27172 9.04128 1.26975 9.1294 1.27077ZM16.0032 3.02785C15.1974 2.62498 14.235 2.70056 13.502 3.22414C13.0337 3.55868 12.7539 4.09721 12.7498 4.67213C12.7498 4.67628 12.7505 4.68043 12.7505 4.68459V11.231C12.836 11.1701 12.9028 11.1173 12.9658 11.0559C13.1337 10.8923 13.3055 10.6588 13.6887 10.084C13.9185 9.73937 14.3841 9.64623 14.7288 9.87599C15.0733 10.1058 15.1665 10.5714 14.9368 10.916C14.5702 11.4658 14.3139 11.8365 14.0132 12.1297C13.7032 12.4317 13.3671 12.6304 12.9241 12.8914C12.8684 12.9242 12.8099 12.9482 12.7505 12.9653V14.3064C13.3691 14.4288 13.9599 14.6051 14.4131 14.937C14.996 15.364 15.2692 15.9806 15.2693 16.7446C15.2693 17.1589 14.9335 17.4946 14.5193 17.4946C14.1051 17.4946 13.7693 17.1589 13.7693 16.7446C13.7692 16.384 13.6675 16.25 13.5269 16.147C13.3747 16.0356 13.1323 15.9353 12.7505 15.8423V19.6121L13.1365 20.0947C13.5941 20.6665 14.2871 21 15.0195 21C15.6934 20.9999 16.3229 20.6627 16.6968 20.1021L17.2358 19.2942L17.3274 19.1726C17.5577 18.906 17.8945 18.7501 18.2517 18.75C18.7868 18.7499 19.1055 18.1394 18.7893 17.6961C18.398 17.1482 18.5229 16.3837 19.0735 15.9902L19.666 15.5669C20.0547 15.2893 20.0544 14.7109 19.666 14.4331L19.1021 14.0303C19.1005 14.0292 19.0992 14.0277 19.0977 14.0266C18.8762 14.084 18.6466 14.1282 18.4128 14.1497C17.5662 14.2274 16.595 14.0426 15.8333 13.281C15.5405 12.9883 15.5408 12.5127 15.8333 12.2197C16.1261 11.9269 16.6016 11.927 16.8945 12.2197C17.2575 12.5826 17.7397 12.7054 18.2751 12.6563C18.4814 12.6373 18.6848 12.5925 18.875 12.5325C18.9684 12.4095 19.0907 12.3034 19.2434 12.2271C20.1966 11.7502 20.2793 10.4214 19.3928 9.82985L19.198 9.70021C18.8182 9.44683 18.6865 8.94997 18.8904 8.54152L19.1526 8.01784C19.5647 7.19364 18.7743 6.2822 17.9001 6.5735C17.8362 6.59483 17.7717 6.60671 17.7083 6.61525C17.4341 6.72413 17.2121 6.83102 17.022 6.96608C16.7291 7.17434 16.4888 7.46809 16.3416 8.05666C16.2409 8.45822 15.8336 8.70267 15.4319 8.60231C15.0305 8.5017 14.7862 8.09484 14.8862 7.69337C15.1139 6.78301 15.5481 6.17344 16.1541 5.74294C16.2828 5.6515 16.4188 5.56951 16.5584 5.49464C16.559 5.48809 16.559 5.48144 16.5598 5.47487L16.7085 4.28322C16.7721 3.77415 16.5074 3.28011 16.0486 3.05055L16.0032 3.02785ZM9.11182 2.77077C8.7318 2.76644 8.34944 2.85103 7.99707 3.02712L7.95166 3.04982C7.49273 3.27929 7.22818 3.77335 7.29175 4.28249L7.42652 5.36647C7.65612 5.47335 7.87915 5.59604 8.08496 5.7422C8.69099 6.17269 9.12514 6.78225 9.35279 7.69264C9.45293 8.09416 9.20849 8.50089 8.80713 8.60158C8.40537 8.70196 7.99798 8.45765 7.89746 8.05592C7.75021 7.46731 7.51001 7.1736 7.21704 6.96535C7.02876 6.83162 6.80923 6.72596 6.53882 6.61818C6.50519 6.62199 6.47136 6.62367 6.43701 6.62404C6.43238 6.62411 6.42775 6.62403 6.4231 6.62404C6.39393 6.62395 6.36474 6.62305 6.33521 6.62038C6.31497 6.61867 6.29478 6.61602 6.27442 6.61305C6.25739 6.61047 6.24023 6.60848 6.22315 6.605C6.18218 6.59685 6.14049 6.58647 6.09937 6.57277C5.99017 6.53639 5.88223 6.5192 5.77783 6.51784C5.04668 6.50858 4.48714 7.29602 4.84766 8.0171L5.10987 8.54079C5.25801 8.83723 5.22783 9.1797 5.05567 9.4424C5.0434 9.46112 5.03056 9.47947 5.01685 9.49733C4.95792 9.57408 4.88663 9.64311 4.80225 9.69948L4.60742 9.82912C3.72062 10.4206 3.80351 11.7495 4.75684 12.2263C4.84688 12.2714 4.92681 12.3268 4.99634 12.3897C5.27877 12.5198 5.61702 12.6237 5.96387 12.6555C6.49934 12.7046 6.98148 12.5818 7.34448 12.219C7.6374 11.9265 8.11299 11.9263 8.40576 12.219C8.69832 12.5118 8.69833 12.9875 8.40576 13.2803C7.64405 14.0419 6.6728 14.2267 5.82617 14.1489C5.52885 14.1216 5.23804 14.0595 4.96265 13.9761C4.94155 13.9937 4.92109 14.0132 4.8982 14.0296L4.33423 14.4324C3.94546 14.7101 3.94546 15.2885 4.33423 15.5662L4.92676 15.9895C5.47717 16.3829 5.60191 17.1475 5.21094 17.6953C4.8942 18.1388 5.21325 18.7493 5.74854 18.7493C6.10555 18.7495 6.4427 18.9054 6.67285 19.1719L6.76441 19.2935L7.30347 20.1013C7.65404 20.6271 8.22882 20.9565 8.85474 20.9956C8.89628 20.9982 8.93805 20.9985 8.97998 20.9986C9.07153 20.9985 9.16251 20.9941 9.25244 20.9839C9.29739 20.9788 9.34208 20.9725 9.38648 20.9649C9.51973 20.9421 9.65026 20.9081 9.77686 20.8638C9.86129 20.8342 9.9439 20.7999 10.0244 20.7612C10.2659 20.6452 10.4882 20.4891 10.6807 20.2976C10.745 20.2337 10.8057 20.1656 10.863 20.094L11.2498 19.6106V18.9566C10.593 18.8334 9.9606 18.6576 9.48169 18.3069C8.89875 17.8799 8.6255 17.2634 8.62549 16.4993C8.62559 16.0852 8.96134 15.7493 9.37549 15.7493C9.78941 15.7496 10.1254 16.0853 10.1255 16.4993C10.1255 16.8601 10.2272 16.9939 10.3679 17.0969C10.5336 17.2182 10.8063 17.326 11.2498 17.4258V10.3132C11.2241 10.3349 11.1984 10.3568 11.1729 10.3792C10.8118 10.6955 10.531 11.0313 10.3936 11.2603C10.1805 11.6153 9.71961 11.7302 9.3645 11.5173C9.0094 11.3042 8.89433 10.8434 9.10742 10.4883C9.34505 10.0924 9.73929 9.64014 10.1841 9.2505C10.4941 8.979 10.8594 8.71132 11.2498 8.50856V4.68459C11.2497 4.43099 11.1958 4.18437 11.0959 3.95876C11.0531 3.86198 11.0021 3.76902 10.9429 3.68117C10.9034 3.62263 10.8603 3.56645 10.814 3.51271C10.7677 3.459 10.7181 3.40788 10.6653 3.35963C10.6124 3.31135 10.5566 3.26555 10.4976 3.2234C10.0853 2.92902 9.60048 2.7764 9.11182 2.77077Z" fill="#26252A"/>
</svg>
