<svg width="24" height="24" viewBox="0 0 24 24" fill="none" xmlns="http://www.w3.org/2000/svg">
<path fill-rule="evenodd" clip-rule="evenodd" d="M6.75 6C6.75 4.34315 8.09315 3 9.75 3H14.25C15.9069 3 17.25 4.34315 17.25 6H19.5C21.1569 6 22.5 7.34315 22.5 9V18C22.5 19.6569 21.1569 21 19.5 21H4.5C2.84315 21 1.5 19.6569 1.5 18V9C1.5 7.34315 2.84315 6 4.5 6H6.75ZM9.75 4.5H14.25C15.0784 4.5 15.75 5.17157 15.75 6H8.25C8.25 5.17157 8.92157 4.5 9.75 4.5ZM4.5 7.5C3.67157 7.5 3 8.17157 3 9V18C3 18.8284 3.67157 19.5 4.5 19.5H19.5C20.3284 19.5 21 18.8284 21 18V9C21 8.17157 20.3284 7.5 19.5 7.5H4.5Z" fill="#292929"/>
</svg>
