<svg width="24" height="24" viewBox="0 0 24 24" fill="none" xmlns="http://www.w3.org/2000/svg">
<path fill-rule="evenodd" clip-rule="evenodd" d="M15.75 13.5C15.75 15.5711 14.0711 17.25 12 17.25C9.92893 17.25 8.25 15.5711 8.25 13.5C8.25 11.4289 9.92893 9.75 12 9.75C14.0711 9.75 15.75 11.4289 15.75 13.5ZM14.25 13.5C14.25 14.7426 13.2426 15.75 12 15.75C10.7574 15.75 9.75 14.7426 9.75 13.5C9.75 12.2574 10.7574 11.25 12 11.25C13.2426 11.25 14.25 12.2574 14.25 13.5Z" fill="#292929"/>
<path fill-rule="evenodd" clip-rule="evenodd" d="M7.91457 4.99377L7.03646 6.75H4.5C2.84315 6.75 1.5 8.09315 1.5 9.75V17.25C1.5 18.9069 2.84315 20.25 4.5 20.25H19.5C21.1569 20.25 22.5 18.9069 22.5 17.25V9.75C22.5 8.09315 21.1569 6.75 19.5 6.75H16.9635L16.0854 4.99377C15.7043 4.23151 14.9252 3.75 14.0729 3.75H9.92703C9.0748 3.75 8.2957 4.2315 7.91457 4.99377ZM9.92703 5.25C9.64295 5.25 9.38326 5.4105 9.25621 5.66459L8.71351 6.75H15.2865L14.7438 5.66459C14.6167 5.4105 14.357 5.25 14.0729 5.25H9.92703ZM7.51507 8.25C7.50464 8.25022 7.49419 8.25022 7.48373 8.25H4.5C3.67157 8.25 3 8.92157 3 9.75V17.25C3 18.0784 3.67157 18.75 4.5 18.75H19.5C20.3284 18.75 21 18.0784 21 17.25V9.75C21 8.92157 20.3284 8.25 19.5 8.25H16.5162C16.5058 8.25022 16.4953 8.25022 16.4849 8.25H7.51507Z" fill="#292929"/>
</svg>
