<svg width="24" height="24" viewBox="0 0 24 24" fill="none" xmlns="http://www.w3.org/2000/svg">
<path d="M14.25 9.75C13.8358 9.75 13.5 10.0858 13.5 10.5C13.5 10.9142 13.8358 11.25 14.25 11.25C14.6642 11.25 15 10.9142 15 10.5C15 10.0858 14.6642 9.75 14.25 9.75Z" fill="#292929"/>
<path d="M6 7.5C6 7.08579 6.33579 6.75 6.75 6.75H17.25C17.6642 6.75 18 7.08579 18 7.5C18 7.91421 17.6642 8.25 17.25 8.25H6.75C6.33579 8.25 6 7.91421 6 7.5Z" fill="#292929"/>
<path d="M6.75 9.75C6.33579 9.75 6 10.0858 6 10.5C6 10.9142 6.33579 11.25 6.75 11.25H11.25C11.6642 11.25 12 10.9142 12 10.5C12 10.0858 11.6642 9.75 11.25 9.75H6.75Z" fill="#292929"/>
<path d="M14.25 15.75C13.8358 15.75 13.5 16.0858 13.5 16.5C13.5 16.9142 13.8358 17.25 14.25 17.25C14.6642 17.25 15 16.9142 15 16.5C15 16.0858 14.6642 15.75 14.25 15.75Z" fill="#292929"/>
<path d="M6 13.5C6 13.0858 6.33579 12.75 6.75 12.75H17.25C17.6642 12.75 18 13.0858 18 13.5C18 13.9142 17.6642 14.25 17.25 14.25H6.75C6.33579 14.25 6 13.9142 6 13.5Z" fill="#292929"/>
<path d="M6.75 15.75C6.33579 15.75 6 16.0858 6 16.5C6 16.9142 6.33579 17.25 6.75 17.25H11.25C11.6642 17.25 12 16.9142 12 16.5C12 16.0858 11.6642 15.75 11.25 15.75H6.75Z" fill="#292929"/>
<path fill-rule="evenodd" clip-rule="evenodd" d="M18 3H6C4.34315 3 3 4.34315 3 6V18C3 19.6569 4.34315 21 6 21H18C19.6569 21 21 19.6569 21 18V6C21 4.34315 19.6569 3 18 3ZM6 1.5C3.51472 1.5 1.5 3.51472 1.5 6V18C1.5 20.4853 3.51472 22.5 6 22.5H18C20.4853 22.5 22.5 20.4853 22.5 18V6C22.5 3.51472 20.4853 1.5 18 1.5H6Z" fill="#292929"/>
</svg>
