<svg width="24" height="24" viewBox="0 0 24 24" fill="none" xmlns="http://www.w3.org/2000/svg">
<path fill-rule="evenodd" clip-rule="evenodd" d="M8.25 11.25C9.49264 11.25 10.5 10.2426 10.5 9C10.5 7.75736 9.49264 6.75 8.25 6.75C7.00736 6.75 6 7.75736 6 9C6 10.2426 7.00736 11.25 8.25 11.25ZM8.25 9.75C8.66421 9.75 9 9.41421 9 9C9 8.58579 8.66421 8.25 8.25 8.25C7.83579 8.25 7.5 8.58579 7.5 9C7.5 9.41421 7.83579 9.75 8.25 9.75Z" fill="#292929"/>
<path fill-rule="evenodd" clip-rule="evenodd" d="M12 15C12 16.2426 10.3211 17.25 8.25 17.25C6.17893 17.25 4.5 16.2426 4.5 15C4.5 13.7574 6.17893 12.75 8.25 12.75C10.3211 12.75 12 13.7574 12 15ZM10.1299 14.6952C10.3647 14.8361 10.4541 14.9458 10.4866 15C10.4541 15.0542 10.3647 15.1639 10.1299 15.3048C9.72148 15.5498 9.06041 15.75 8.25 15.75C7.43959 15.75 6.77852 15.5498 6.37009 15.3048C6.13533 15.1639 6.04588 15.0542 6.01343 15C6.04588 14.9458 6.13533 14.8361 6.37009 14.6952C6.77852 14.4502 7.43959 14.25 8.25 14.25C9.06041 14.25 9.72148 14.4502 10.1299 14.6952ZM5.99751 14.9677C5.99686 14.9643 5.9963 14.9627 5.99618 14.9628C5.99614 14.9628 5.99612 14.9624 5.99618 14.9628C5.99622 14.963 5.99632 14.9638 5.99641 14.9641L5.99751 14.9677ZM5.99751 15.0323C5.99639 15.0355 5.99607 15.0372 5.99618 15.0372C5.99625 15.0373 5.99647 15.0367 5.99678 15.0356L5.99751 15.0323Z" fill="#292929"/>
<path d="M13.5 13.5C13.5 13.0858 13.8358 12.75 14.25 12.75H18.75C19.1642 12.75 19.5 13.0858 19.5 13.5C19.5 13.9142 19.1642 14.25 18.75 14.25H14.25C13.8358 14.25 13.5 13.9142 13.5 13.5Z" fill="#292929"/>
<path d="M13.5 9.75C13.0858 9.75 12.75 10.0858 12.75 10.5C12.75 10.9142 13.0858 11.25 13.5 11.25H18.75C19.1642 11.25 19.5 10.9142 19.5 10.5C19.5 10.0858 19.1642 9.75 18.75 9.75H13.5Z" fill="#292929"/>
<path fill-rule="evenodd" clip-rule="evenodd" d="M3 3.75C2.17157 3.75 1.5 4.42157 1.5 5.25V18.75C1.5 19.5784 2.17157 20.25 3 20.25H21C21.8284 20.25 22.5 19.5784 22.5 18.75V5.25C22.5 4.42157 21.8284 3.75 21 3.75H3ZM21 5.25H3V18.75H21V5.25Z" fill="#292929"/>
</svg>
