<svg width="24" height="24" viewBox="0 0 24 24" fill="none" xmlns="http://www.w3.org/2000/svg">
<path fill-rule="evenodd" clip-rule="evenodd" d="M6 1.5C4.75736 1.5 3.75 2.50736 3.75 3.75V4.5H3C2.17157 4.5 1.5 5.17157 1.5 6V20.25C1.5 21.4926 2.50736 22.5 3.75 22.5H20.25C21.4926 22.5 22.5 21.4926 22.5 20.25V9.75C22.5 8.50736 21.4926 7.5 20.25 7.5V3.75C20.25 2.50736 19.2426 1.5 18 1.5H6ZM18.75 7.5V3.75C18.75 3.33579 18.4142 3 18 3H6C5.58579 3 5.25 3.33579 5.25 3.75V4.5H8.51344C9.04695 4.5 9.5403 4.78337 9.80911 5.24419L11.125 7.5H18.75ZM3 6H8.51344L9.38844 7.5H3V6ZM3 9V20.25C3 20.6642 3.33579 21 3.75 21H20.25C20.6642 21 21 20.6642 21 20.25V9.75C21 9.33579 20.6642 9 20.25 9H3Z" fill="#292929"/>
</svg>
