<svg width="24" height="24" viewBox="0 0 24 24" fill="none" xmlns="http://www.w3.org/2000/svg">
<path fill-rule="evenodd" clip-rule="evenodd" d="M7.5 3C5.01472 3 3 5.01472 3 7.5V16.5C3 18.9853 5.01472 21 7.5 21H16.5C18.9853 21 21 18.9853 21 16.5V7.5C21 5.01472 18.9853 3 16.5 3H7.5ZM17.0303 9.53033C17.3232 9.23744 17.3232 8.76256 17.0303 8.46967C16.7374 8.17678 16.2626 8.17678 15.9697 8.46967L10.125 14.3143L8.03033 12.2197C7.73744 11.9268 7.26256 11.9268 6.96967 12.2197C6.67678 12.5126 6.67678 12.9874 6.96967 13.2803L9.59467 15.9053C9.88756 16.1982 10.3624 16.1982 10.6553 15.9053L17.0303 9.53033Z" fill="#292929"/>
</svg>
