<svg width="24" height="24" viewBox="0 0 24 24" fill="none" xmlns="http://www.w3.org/2000/svg">
<path fill-rule="evenodd" clip-rule="evenodd" d="M12 21C16.9706 21 21 16.9706 21 12C21 7.02944 16.9706 3 12 3C7.02944 3 3 7.02944 3 12C3 16.9706 7.02944 21 12 21ZM12 22.5C17.799 22.5 22.5 17.799 22.5 12C22.5 6.20101 17.799 1.5 12 1.5C6.20101 1.5 1.5 6.20101 1.5 12C1.5 17.799 6.20101 22.5 12 22.5Z" fill="#292929"/>
<path fill-rule="evenodd" clip-rule="evenodd" d="M12 6C12.4142 6 12.75 6.33579 12.75 6.75V11.6522L16.2831 15.2225C16.5745 15.5169 16.572 15.9917 16.2775 16.2831C15.9831 16.5745 15.5083 16.572 15.2169 16.2775L11.4669 12.4881C11.3279 12.3477 11.25 12.1581 11.25 11.9605V6.75C11.25 6.33579 11.5858 6 12 6Z" fill="#292929"/>
</svg>
