<svg width="24" height="24" viewBox="0 0 24 24" fill="none" xmlns="http://www.w3.org/2000/svg">
<path d="M13.8248 4.76137C12.6912 4.648 11.6517 5.39992 11.4045 6.51211L11.2321 7.28784C11.1457 7.67697 10.7699 7.93047 10.3767 7.86494L9.10121 7.65236C7.96367 7.46277 6.9568 8.40577 7.07155 9.55328C7.13551 10.1929 6.74788 10.7914 6.1381 10.9947L4.94265 11.3932C4.23041 11.6306 3.75 12.2971 3.75 13.0479C3.75 13.5791 3.99211 14.0814 4.4077 14.4124L4.73282 14.6712C5.05685 14.9293 5.11036 15.4011 4.85234 15.7252C4.59431 16.0492 4.12246 16.1027 3.79843 15.8447L3.47331 15.5858C2.70033 14.9702 2.25 14.036 2.25 13.0479C2.25 11.6515 3.14356 10.4117 4.46831 9.97014L5.57051 9.60273C5.42453 7.51745 7.26862 5.82623 9.34781 6.17276L9.92207 6.26848L9.94025 6.18671C10.3522 4.33306 12.0846 3.07987 13.9741 3.26881L14.1567 3.28707C16.8233 3.55373 18.6202 6.05435 18.1313 8.60226L19.4269 9.25007C20.8507 9.96194 21.75 11.4171 21.75 13.0089C21.75 14.4953 21.0743 15.9011 19.9136 16.8297L19.5935 17.0858C19.2701 17.3446 18.7981 17.2921 18.5393 16.9687C18.2806 16.6452 18.333 16.1732 18.6565 15.9145L18.9766 15.6584C19.7815 15.0145 20.25 14.0396 20.25 13.0089C20.25 11.9853 19.6717 11.0495 18.7561 10.5917L16.9146 9.67096C16.5808 9.50405 16.4205 9.11706 16.5385 8.76297L16.555 8.71342C17.1632 6.88868 15.9214 4.97102 14.0075 4.77963L13.8248 4.76137Z" fill="#292929"/>
<path d="M16.2803 13.2806C16.5732 12.9877 16.5732 12.5128 16.2803 12.2199C15.9874 11.927 15.5126 11.927 15.2197 12.2199L10.5 16.9396L8.03033 14.4699C7.73744 14.177 7.26256 14.177 6.96967 14.4699C6.67678 14.7628 6.67678 15.2377 6.96967 15.5306L9.96967 18.5306C10.2626 18.8235 10.7374 18.8235 11.0303 18.5306L16.2803 13.2806Z" fill="#292929"/>
</svg>
