<svg width="24" height="24" viewBox="0 0 24 24" fill="none" xmlns="http://www.w3.org/2000/svg">
<path d="M10.2803 7.28033C10.5732 6.98744 10.5732 6.51256 10.2803 6.21967C9.98744 5.92678 9.51256 5.92678 9.21967 6.21967L6.75 8.68934L6.75 2.25C6.75 1.83579 6.41421 1.5 6 1.5C5.58579 1.5 5.25 1.83579 5.25 2.25L5.25 8.68934L2.78033 6.21967C2.48744 5.92678 2.01256 5.92678 1.71967 6.21967C1.42678 6.51256 1.42678 6.98744 1.71967 7.28033L5.46967 11.0303C5.76256 11.3232 6.23744 11.3232 6.53033 11.0303L10.2803 7.28033Z" fill="#292929"/>
<path fill-rule="evenodd" clip-rule="evenodd" d="M13.5 21.75C12.6716 21.75 12 21.0784 12 20.25V3C12 2.17157 12.6716 1.5 13.5 1.5H21C21.8284 1.5 22.5 2.17157 22.5 3V20.25C22.5 21.0784 21.8284 21.75 21 21.75H13.5ZM13.5 3H16.5V20.25H13.5V3ZM18 20.25H21V3H18V20.25Z" fill="#292929"/>
<path fill-rule="evenodd" clip-rule="evenodd" d="M3 14.25C3 13.4216 3.67157 12.75 4.5 12.75H7.5C8.32843 12.75 9 13.4216 9 14.25V21.75C9 22.5784 8.32843 23.25 7.5 23.25H4.5C3.67157 23.25 3 22.5784 3 21.75V14.25ZM4.5 14.25H7.5V21.75H4.5V14.25Z" fill="#292929"/>
</svg>
