<svg width="24" height="24" viewBox="0 0 24 24" fill="none" xmlns="http://www.w3.org/2000/svg">
<path fill-rule="evenodd" clip-rule="evenodd" d="M1.5 3C1.5 2.17157 2.17157 1.5 3 1.5H9.75C10.5784 1.5 11.25 2.17157 11.25 3V13.5C11.25 14.3284 10.5784 15 9.75 15H3C2.17157 15 1.5 14.3284 1.5 13.5V3ZM3 3H9.75V13.5H3L3 3Z" fill="#292929"/>
<path fill-rule="evenodd" clip-rule="evenodd" d="M12.75 3C12.75 2.17157 13.4216 1.5 14.25 1.5H21C21.8284 1.5 22.5 2.17157 22.5 3V6C22.5 6.82843 21.8284 7.5 21 7.5H14.25C13.4216 7.5 12.75 6.82843 12.75 6V3ZM14.25 3H21V6H14.25V3Z" fill="#292929"/>
<path fill-rule="evenodd" clip-rule="evenodd" d="M14.25 9C13.4216 9 12.75 9.67157 12.75 10.5V21C12.75 21.8284 13.4216 22.5 14.25 22.5H21C21.8284 22.5 22.5 21.8284 22.5 21V10.5C22.5 9.67157 21.8284 9 21 9H14.25ZM21 10.5H14.25V21H21V10.5Z" fill="#292929"/>
<path fill-rule="evenodd" clip-rule="evenodd" d="M1.5 18C1.5 17.1716 2.17157 16.5 3 16.5H9.75C10.5784 16.5 11.25 17.1716 11.25 18V21C11.25 21.8284 10.5784 22.5 9.75 22.5H3C2.17157 22.5 1.5 21.8284 1.5 21V18ZM3 18H9.75V21H3L3 18Z" fill="#292929"/>
</svg>
