<svg width="24" height="24" viewBox="0 0 24 24" fill="none" xmlns="http://www.w3.org/2000/svg">
<path fill-rule="evenodd" clip-rule="evenodd" d="M9 6.75C9 5.92157 9.67157 5.25 10.5 5.25H18C18.8284 5.25 19.5 5.92157 19.5 6.75V8.25C19.5 9.07843 18.8284 9.75 18 9.75H10.5C9.67157 9.75 9 9.07843 9 8.25V6.75ZM10.5 6.75H18V8.25H10.5V6.75Z" fill="#292929"/>
<path d="M11.25 12.75C11.6642 12.75 12 12.4142 12 12C12 11.5858 11.6642 11.25 11.25 11.25C10.8358 11.25 10.5 11.5858 10.5 12C10.5 12.4142 10.8358 12.75 11.25 12.75Z" fill="#292929"/>
<path d="M15 12C15 12.4142 14.6642 12.75 14.25 12.75C13.8358 12.75 13.5 12.4142 13.5 12C13.5 11.5858 13.8358 11.25 14.25 11.25C14.6642 11.25 15 11.5858 15 12Z" fill="#292929"/>
<path d="M17.25 12.75C17.6642 12.75 18 12.4142 18 12C18 11.5858 17.6642 11.25 17.25 11.25C16.8358 11.25 16.5 11.5858 16.5 12C16.5 12.4142 16.8358 12.75 17.25 12.75Z" fill="#292929"/>
<path d="M12 15C12 15.4142 11.6642 15.75 11.25 15.75C10.8358 15.75 10.5 15.4142 10.5 15C10.5 14.5858 10.8358 14.25 11.25 14.25C11.6642 14.25 12 14.5858 12 15Z" fill="#292929"/>
<path d="M14.25 15.75C14.6642 15.75 15 15.4142 15 15C15 14.5858 14.6642 14.25 14.25 14.25C13.8358 14.25 13.5 14.5858 13.5 15C13.5 15.4142 13.8358 15.75 14.25 15.75Z" fill="#292929"/>
<path d="M18 15C18 15.4142 17.6642 15.75 17.25 15.75C16.8358 15.75 16.5 15.4142 16.5 15C16.5 14.5858 16.8358 14.25 17.25 14.25C17.6642 14.25 18 14.5858 18 15Z" fill="#292929"/>
<path d="M11.25 18.75C11.6642 18.75 12 18.4142 12 18C12 17.5858 11.6642 17.25 11.25 17.25C10.8358 17.25 10.5 17.5858 10.5 18C10.5 18.4142 10.8358 18.75 11.25 18.75Z" fill="#292929"/>
<path d="M15 18C15 18.4142 14.6642 18.75 14.25 18.75C13.8358 18.75 13.5 18.4142 13.5 18C13.5 17.5858 13.8358 17.25 14.25 17.25C14.6642 17.25 15 17.5858 15 18Z" fill="#292929"/>
<path d="M17.25 18.75C17.6642 18.75 18 18.4142 18 18C18 17.5858 17.6642 17.25 17.25 17.25C16.8358 17.25 16.5 17.5858 16.5 18C16.5 18.4142 16.8358 18.75 17.25 18.75Z" fill="#292929"/>
<path fill-rule="evenodd" clip-rule="evenodd" d="M5.25 1.5C5.91637 1.5 6.51509 1.78969 6.92708 2.25H19.5C21.1569 2.25 22.5 3.59315 22.5 5.25V18.75C22.5 20.4069 21.1569 21.75 19.5 21.75H6.92708C6.51509 22.2103 5.91637 22.5 5.25 22.5H3.75C2.50736 22.5 1.5 21.4926 1.5 20.25V3.75C1.5 2.50736 2.50736 1.5 3.75 1.5H5.25ZM3.75 3H5.25C5.66421 3 6 3.33579 6 3.75V20.25C6 20.6642 5.66421 21 5.25 21H3.75C3.33579 21 3 20.6642 3 20.25V3.75C3 3.33579 3.33579 3 3.75 3ZM7.5 20.25V3.75H19.5C20.3284 3.75 21 4.42157 21 5.25V18.75C21 19.5784 20.3284 20.25 19.5 20.25H7.5Z" fill="#292929"/>
</svg>
