<svg width="24" height="24" viewBox="0 0 24 24" fill="none" xmlns="http://www.w3.org/2000/svg">
<path fill-rule="evenodd" clip-rule="evenodd" d="M15.75 8.25C15.75 9.90685 14.4069 11.25 12.75 11.25C11.0931 11.25 9.75 9.90685 9.75 8.25C9.75 6.59315 11.0931 5.25 12.75 5.25C14.4069 5.25 15.75 6.59315 15.75 8.25ZM14.25 8.25C14.25 9.07843 13.5784 9.75 12.75 9.75C11.9216 9.75 11.25 9.07843 11.25 8.25C11.25 7.42157 11.9216 6.75 12.75 6.75C13.5784 6.75 14.25 7.42157 14.25 8.25Z" fill="#292929"/>
<path fill-rule="evenodd" clip-rule="evenodd" d="M12.75 18.75C15.2353 18.75 17.25 17.4069 17.25 15.75C17.25 14.0931 15.2353 12.75 12.75 12.75C10.2647 12.75 8.25 14.0931 8.25 15.75C8.25 17.4069 10.2647 18.75 12.75 18.75ZM15.0999 16.6232C15.6461 16.2591 15.75 15.9209 15.75 15.75C15.75 15.5791 15.6461 15.2409 15.0999 14.8768C14.5643 14.5196 13.7378 14.25 12.75 14.25C11.7622 14.25 10.9357 14.5196 10.4001 14.8768C9.85391 15.2409 9.75 15.5791 9.75 15.75C9.75 15.9209 9.85391 16.2591 10.4001 16.6232C10.9357 16.9804 11.7622 17.25 12.75 17.25C13.7378 17.25 14.5643 16.9804 15.0999 16.6232Z" fill="#292929"/>
<path fill-rule="evenodd" clip-rule="evenodd" d="M3 12.75V15H2.25C1.83579 15 1.5 15.3358 1.5 15.75C1.5 16.1642 1.83579 16.5 2.25 16.5H3V18C3 20.4853 5.01472 22.5 7.5 22.5H18C20.4853 22.5 22.5 20.4853 22.5 18V6C22.5 3.51472 20.4853 1.5 18 1.5H7.5C5.01472 1.5 3 3.51472 3 6V7.5H2.25C1.83579 7.5 1.5 7.83579 1.5 8.25C1.5 8.66421 1.83579 9 2.25 9H3V11.25H2.25C1.83579 11.25 1.5 11.5858 1.5 12C1.5 12.4142 1.83579 12.75 2.25 12.75H3ZM7.5 3H18C19.6569 3 21 4.34315 21 6V18C21 19.6569 19.6569 21 18 21H7.5C5.84315 21 4.5 19.6569 4.5 18V6C4.5 4.34315 5.84315 3 7.5 3Z" fill="#292929"/>
</svg>
