<svg width="24" height="24" viewBox="0 0 24 24" fill="none" xmlns="http://www.w3.org/2000/svg">
<path d="M12 1C13.3668 1 14.5152 1.93503 14.8408 3.2002H17.1338C19.1585 3.20044 20.7996 4.84153 20.7998 6.86621V9.15918C22.065 9.48481 23 10.6332 23 12C23 13.3668 22.065 14.5152 20.7998 14.8408V17.1338C20.7996 19.1585 19.1585 20.7996 17.1338 20.7998H14.8408C14.5152 22.065 13.3668 23 12 23C10.6332 23 9.48481 22.065 9.15918 20.7998H6.86621C4.84153 20.7996 3.20044 19.1585 3.2002 17.1338V14.8408C1.93503 14.5152 1 13.3668 1 12C1 10.6332 1.93503 9.48481 3.2002 9.15918V6.86621C3.20044 4.84153 4.84153 3.20044 6.86621 3.2002H9.15918C9.48481 1.93503 10.6332 1 12 1ZM12 18.5996C11.4572 18.5996 10.9831 18.8947 10.7295 19.333C10.6047 19.5487 10.5332 19.7994 10.5332 20.0664C10.5332 20.3194 10.5972 20.5579 10.71 20.7656C10.9583 21.2228 11.4431 21.5332 12 21.5332C12.5429 21.5332 13.0169 21.2382 13.2705 20.7998C13.3952 20.5841 13.4668 20.3335 13.4668 20.0664C13.4668 19.8134 13.4029 19.5749 13.29 19.3672C13.0417 18.9101 12.5568 18.5996 12 18.5996ZM6.86621 4.66699C5.65155 4.66724 4.66724 5.65155 4.66699 6.86621V9.15918C5.93199 9.48493 6.86621 10.6333 6.86621 12C6.86621 13.3667 5.93199 14.5151 4.66699 14.8408V17.1338C4.66724 18.3485 5.65155 19.3328 6.86621 19.333H9.15918C9.48493 18.068 10.6333 17.1338 12 17.1338C13.3667 17.1338 14.5151 18.068 14.8408 19.333H17.1338C18.3485 19.3328 19.3328 18.3485 19.333 17.1338V14.8408C18.068 14.5151 17.1338 13.3667 17.1338 12C17.1338 10.6333 18.068 9.48493 19.333 9.15918V6.86621C19.3328 5.65155 18.3485 4.66724 17.1338 4.66699H14.8408C14.5151 5.93199 13.3667 6.86621 12 6.86621C10.6333 6.86621 9.48493 5.93199 9.15918 4.66699H6.86621ZM12 8.33301C14.025 8.33301 15.667 9.97496 15.667 12C15.667 14.025 14.025 15.667 12 15.667C9.97496 15.667 8.33301 14.025 8.33301 12C8.33301 9.97496 9.97496 8.33301 12 8.33301ZM12 9.7998C10.785 9.7998 9.7998 10.785 9.7998 12C9.7998 13.215 10.785 14.2002 12 14.2002C13.215 14.2002 14.2002 13.215 14.2002 12C14.2002 10.785 13.215 9.7998 12 9.7998ZM3.93359 10.5332C3.66652 10.5332 3.41588 10.6048 3.2002 10.7295C2.76181 10.9831 2.4668 11.4571 2.4668 12C2.4668 12.5429 2.76181 13.0169 3.2002 13.2705C3.41588 13.3952 3.66652 13.4668 3.93359 13.4668C4.20064 13.4668 4.45134 13.3953 4.66699 13.2705C5.10526 13.0169 5.40039 12.5428 5.40039 12C5.40039 11.4572 5.10526 10.9831 4.66699 10.7295C4.45134 10.6047 4.20064 10.5332 3.93359 10.5332ZM20.0664 10.5332C19.7994 10.5332 19.5487 10.6047 19.333 10.7295C18.8947 10.9831 18.5996 11.4572 18.5996 12C18.5996 12.5568 18.9101 13.0417 19.3672 13.29C19.5749 13.4029 19.8134 13.4668 20.0664 13.4668C20.3335 13.4668 20.5841 13.3952 20.7998 13.2705C21.2382 13.0169 21.5332 12.5429 21.5332 12C21.5332 11.4431 21.2228 10.9583 20.7656 10.71C20.5579 10.5972 20.3194 10.5332 20.0664 10.5332ZM12 2.4668C11.4571 2.4668 10.9831 2.76181 10.7295 3.2002C10.723 3.21146 10.7162 3.22293 10.71 3.23438C10.5972 3.44213 10.5332 3.68057 10.5332 3.93359C10.5332 4.20064 10.6047 4.45134 10.7295 4.66699C10.9831 5.10526 11.4572 5.40039 12 5.40039C12.5428 5.40039 13.0169 5.10526 13.2705 4.66699C13.277 4.65572 13.2838 4.64427 13.29 4.63281C13.4029 4.42507 13.4668 4.18663 13.4668 3.93359C13.4668 3.66652 13.3952 3.41588 13.2705 3.2002C13.0169 2.7618 12.5429 2.4668 12 2.4668Z" fill="#26252A"/>
</svg>
