<svg width="24" height="24" viewBox="0 0 24 24" fill="none" xmlns="http://www.w3.org/2000/svg">
<path d="M17.25 2.25C19.3211 2.25 21 3.92893 21 6V18C21 20.0711 19.3211 21.75 17.25 21.75H12.375C10.511 21.75 9 20.239 9 18.375C9 17.9608 9.33579 17.625 9.75 17.625C10.1642 17.625 10.5 17.9608 10.5 18.375C10.5 19.4105 11.3395 20.25 12.375 20.25H17.25C18.4926 20.25 19.5 19.2426 19.5 18V6C19.5 4.75736 18.4926 3.75 17.25 3.75H12.75C11.5074 3.75 10.5 4.75736 10.5 6C10.5 6.41421 10.1642 6.75 9.75 6.75C9.33579 6.75 9 6.41421 9 6C9 3.92893 10.6789 2.25 12.75 2.25H17.25Z" fill="#292929"/>
<path d="M13.9054 7.71967C13.6125 7.42678 13.1376 7.42678 12.8447 7.71967C12.5518 8.01256 12.5518 8.48744 12.8447 8.78033L15.3144 11.25H4.125C3.77982 11.25 3.5 11.5858 3.5 12C3.5 12.4142 3.77982 12.75 4.125 12.75H15.3144L12.8447 15.2197C12.5518 15.5126 12.5518 15.9874 12.8447 16.2803C13.1376 16.5732 13.6125 16.5732 13.9054 16.2803L17.6553 12.5303C17.9482 12.2374 17.9482 11.7626 17.6553 11.4697L13.9054 7.71967Z" fill="#292929"/>
</svg>
