<svg width="24" height="24" viewBox="0 0 24 24" fill="none" xmlns="http://www.w3.org/2000/svg">
<path fill-rule="evenodd" clip-rule="evenodd" d="M5.25 4.5C3.17893 4.5 1.5 6.17893 1.5 8.25V15.75C1.5 17.8211 3.17893 19.5 5.25 19.5H18C18.4142 19.5 18.75 19.1642 18.75 18.75C18.75 18.3358 18.4142 18 18 18H5.25C4.00736 18 3 16.9926 3 15.75V8.25C3 8.07187 3.0207 7.89857 3.05983 7.73238L10.2 13.0875C11.2667 13.8875 12.7334 13.8875 13.8 13.0875L20.9402 7.73244C20.9793 7.89861 21 8.07189 21 8.25V10.5C21 10.9142 21.3358 11.25 21.75 11.25C22.1642 11.25 22.5 10.9142 22.5 10.5V8.25C22.5 6.17893 20.8211 4.5 18.75 4.5H5.25ZM18.75 6H5.25C4.73223 6 4.25531 6.17489 3.87508 6.46882L11.1 11.8875C11.6334 12.2875 12.3667 12.2875 12.9 11.8875L20.125 6.46886C19.7447 6.1749 19.2678 6 18.75 6Z" fill="#292929"/>
<path d="M22.5 21.75C22.5 22.1642 22.1642 22.5 21.75 22.5C21.3358 22.5 21 22.1642 21 21.75C21 21.3358 21.3358 21 21.75 21C22.1642 21 22.5 21.3358 22.5 21.75Z" fill="#292929"/>
<path d="M21.75 13.5C21.3358 13.5 21 13.8358 21 14.25V18.75C21 19.1642 21.3358 19.5 21.75 19.5C22.1642 19.5 22.5 19.1642 22.5 18.75V14.25C22.5 13.8358 22.1642 13.5 21.75 13.5Z" fill="#292929"/>
</svg>
