<svg width="24" height="24" viewBox="0 0 24 24" fill="none" xmlns="http://www.w3.org/2000/svg">
<path d="M15.5303 7.71967C15.2374 7.42678 14.7626 7.42678 14.4697 7.71967C14.1768 8.01256 14.1768 8.48744 14.4697 8.78033L15.4393 9.75L14.4697 10.7197C14.1768 11.0126 14.1768 11.4874 14.4697 11.7803C14.7626 12.0732 15.2374 12.0732 15.5303 11.7803L17.0303 10.2803C17.3232 9.98744 17.3232 9.51256 17.0303 9.21967L15.5303 7.71967Z" fill="#292929"/>
<path fill-rule="evenodd" clip-rule="evenodd" d="M19.9394 11.871L15.9182 15.8922L15.9053 15.9053L15.8922 15.9182L13.8103 18H21C21.4142 18 21.75 18.3358 21.75 18.75C21.75 19.1642 21.4142 19.5 21 19.5H3C2.58579 19.5 2.25 19.1642 2.25 18.75C2.25 18.3358 2.58579 18 3 18H4.18971L4.06069 17.871C2.88911 16.6994 2.88911 14.7999 4.06069 13.6283L12.8787 4.81032C14.0503 3.63875 15.9498 3.63875 17.1213 4.81032L19.9394 7.62834C21.1109 8.79992 21.1109 10.6994 19.9394 11.871ZM13.9394 5.87098C14.5252 5.28519 15.4749 5.28519 16.0607 5.87098L18.8787 8.689C19.4645 9.27479 19.4645 10.2245 18.8787 10.8103L15.3748 14.3142L10.4355 9.37484L13.9394 5.87098ZM9.37484 10.4355L14.3142 15.3748L11.689 18H6.31103L5.12135 16.8103C4.53556 16.2245 4.53556 15.2748 5.12135 14.689L9.37484 10.4355Z" fill="#292929"/>
</svg>
