<svg width="24" height="24" viewBox="0 0 24 24" fill="none" xmlns="http://www.w3.org/2000/svg">
<path d="M11.9999 9.00049C11.5857 9.00049 11.2499 9.33628 11.2499 9.75049V15.0005C11.2499 15.4147 11.5857 15.7505 11.9999 15.7505C12.4142 15.7505 12.7499 15.4147 12.7499 15.0005V9.75049C12.7499 9.33628 12.4142 9.00049 11.9999 9.00049Z" fill="#292929"/>
<path d="M12.7499 18.0005C12.7499 18.4147 12.4142 18.7505 11.9999 18.7505C11.5857 18.7505 11.2499 18.4147 11.2499 18.0005C11.2499 17.5863 11.5857 17.2505 11.9999 17.2505C12.4142 17.2505 12.7499 17.5863 12.7499 18.0005Z" fill="#292929"/>
<path fill-rule="evenodd" clip-rule="evenodd" d="M21.952 19.5007L13.2991 4.50237C12.7219 3.50181 11.2778 3.50181 10.7006 4.50237L2.04768 19.5007C1.47076 20.5007 2.19248 21.7503 3.34696 21.7503H20.6527C21.8072 21.7503 22.5289 20.5007 21.952 19.5007ZM11.9998 5.25195L20.6527 20.2503H3.34696L11.9998 5.25195Z" fill="#292929"/>
</svg>
