<svg width="24" height="24" viewBox="0 0 24 24" fill="none" xmlns="http://www.w3.org/2000/svg">
<path d="M14.1967 3.74996C14.1967 3.33575 14.5325 2.99996 14.9467 2.99996L20.25 2.99998C20.6642 2.99997 21 3.33576 21 3.74998L21 9.05326C21 9.46748 20.6642 9.80326 20.25 9.80326C19.8358 9.80326 19.5 9.46748 19.5 9.05326L19.5 5.56062L12.6837 12.3768C12.4396 12.6209 12.0043 12.5813 11.7114 12.2884C11.4186 11.9955 11.379 11.5602 11.6231 11.3162L18.4393 4.49996L14.9467 4.49996C14.5325 4.49996 14.1967 4.16418 14.1967 3.74996Z" fill="#292929"/>
<path d="M6.75 3C4.67893 3 3 4.67893 3 6.75V17.25C3 19.3211 4.67893 21 6.75 21H17.25C19.3211 21 21 19.3211 21 17.25V12.6875C21 12.2733 20.6642 11.9375 20.25 11.9375C19.8358 11.9375 19.5 12.2733 19.5 12.6875V17.25C19.5 18.4926 18.4926 19.5 17.25 19.5H6.75C5.50736 19.5 4.5 18.4926 4.5 17.25V6.75C4.5 5.50736 5.50736 4.5 6.75 4.5H11.3125C11.7267 4.5 12.0625 4.16421 12.0625 3.75C12.0625 3.33579 11.7267 3 11.3125 3H6.75Z" fill="#292929"/>
</svg>
