<svg width="24" height="24" viewBox="0 0 24 24" fill="none" xmlns="http://www.w3.org/2000/svg">
<path fill-rule="evenodd" clip-rule="evenodd" d="M8.10458 2.03319C8.19044 1.71839 8.47637 1.5 8.80266 1.5C9.27977 1.5 9.62627 1.95366 9.50074 2.41396L8.72727 5.25L13.2273 5.25L14.1046 2.03319C14.1904 1.71839 14.4764 1.5 14.8027 1.5C15.2798 1.5 15.6263 1.95366 15.5007 2.41396L14.7273 5.25H17.25C17.6642 5.25 18 5.58579 18 6C18 6.41421 17.6642 6.75 17.25 6.75H14.3182L12.6818 12.75H15C15.4142 12.75 15.75 13.0858 15.75 13.5C15.75 13.9142 15.4142 14.25 15 14.25H12.2727L11.5731 16.9336C11.4872 17.2484 11.2013 17.4668 10.875 17.4668C10.3979 17.4668 10.0514 17.0131 10.1769 16.5529L10.7727 14.25H6.27273L5.39542 17.4668C5.30956 17.7816 5.02363 18 4.69734 18C4.22023 18 3.87373 17.5463 3.99926 17.086L4.77273 14.25H2.25C1.83579 14.25 1.5 13.9142 1.5 13.5C1.5 13.0858 1.83579 12.75 2.25 12.75H5.18182L6.81818 6.75H3.75C3.33579 6.75 3 6.41421 3 6C3 5.58579 3.33579 5.25 3.75 5.25H7.22727L8.10458 2.03319ZM6.68182 12.75L8.31818 6.75H12.8182L11.1818 12.75L6.68182 12.75Z" fill="#292929"/>
<path d="M18.5303 22.2803C18.2374 22.5732 17.7626 22.5732 17.4697 22.2803C17.1768 21.9874 17.1768 21.5126 17.4697 21.2197L19.9393 18.75H14.25C13.8358 18.75 13.5 18.4142 13.5 18C13.5 17.5858 13.8358 17.25 14.25 17.25H19.9393L17.4697 14.7803C17.1768 14.4874 17.1768 14.0126 17.4697 13.7197C17.7626 13.4268 18.2374 13.4268 18.5303 13.7197L22.2803 17.4697C22.5732 17.7626 22.5732 18.2374 22.2803 18.5303L18.5303 22.2803Z" fill="#292929"/>
</svg>
