<svg width="24" height="24" viewBox="0 0 24 24" fill="none" xmlns="http://www.w3.org/2000/svg">
<path d="M9.75 9.75C9.75 10.5784 9.07843 11.25 8.25 11.25C7.42157 11.25 6.75 10.5784 6.75 9.75C6.75 8.92157 7.42157 8.25 8.25 8.25C9.07843 8.25 9.75 8.92157 9.75 9.75Z" fill="#292929"/>
<path d="M15.75 11.25C16.5784 11.25 17.25 10.5784 17.25 9.75C17.25 8.92157 16.5784 8.25 15.75 8.25C14.9216 8.25 14.25 8.92157 14.25 9.75C14.25 10.5784 14.9216 11.25 15.75 11.25Z" fill="#292929"/>
<path fill-rule="evenodd" clip-rule="evenodd" d="M22.5 12C22.5 17.799 17.799 22.5 12 22.5C6.20101 22.5 1.5 17.799 1.5 12C1.5 6.20101 6.20101 1.5 12 1.5C17.799 1.5 22.5 6.20101 22.5 12ZM21 12C21 16.9706 16.9706 21 12 21C7.02944 21 3 16.9706 3 12C3 7.02944 7.02944 3 12 3C16.9706 3 21 7.02944 21 12Z" fill="#292929"/>
<path d="M8.25 15.75C8.25 15.3358 8.58579 15 9 15H15C15.4142 15 15.75 15.3358 15.75 15.75C15.75 16.1642 15.4142 16.5 15 16.5H9C8.58579 16.5 8.25 16.1642 8.25 15.75Z" fill="#292929"/>
</svg>
