<svg width="24" height="24" viewBox="0 0 24 24" fill="none" xmlns="http://www.w3.org/2000/svg">
<path d="M9.75 9.75C9.75 10.5784 9.07843 11.25 8.25 11.25C7.42157 11.25 6.75 10.5784 6.75 9.75C6.75 8.92157 7.42157 8.25 8.25 8.25C9.07843 8.25 9.75 8.92157 9.75 9.75Z" fill="#26252A"/>
<path d="M15.75 11.25C16.5784 11.25 17.25 10.5784 17.25 9.75C17.25 8.92157 16.5784 8.25 15.75 8.25C14.9216 8.25 14.25 8.92157 14.25 9.75C14.25 10.5784 14.9216 11.25 15.75 11.25Z" fill="#26252A"/>
<path d="M8.03033 16.2803C8.416 15.8947 8.74273 15.5711 9.08316 15.3354C9.41069 15.1086 9.70091 15 10 15C10.7926 15 11.1642 15.3507 11.6735 15.89L11.7439 15.9648C12.2486 16.5024 12.9504 17.25 14.25 17.25C15.0149 17.25 15.6862 16.8331 16.147 16.4343C16.6149 16.0294 17.0052 15.5224 17.1854 15.1171C17.3536 14.7386 17.1831 14.2954 16.8046 14.1271C16.4261 13.9589 15.9829 14.1294 15.8146 14.5079C15.7448 14.6651 15.5101 15.0018 15.1655 15.3001C14.8138 15.6044 14.4851 15.75 14.25 15.75C13.6111 15.75 13.3165 15.4451 12.764 14.86C12.2108 14.2743 11.4574 13.5 10 13.5C9.29909 13.5 8.71431 13.7664 8.22934 14.1021C7.76703 14.4222 7.35154 14.8377 6.99236 15.197L6.96967 15.2197C6.67678 15.5126 6.67678 15.9874 6.96967 16.2803C7.26256 16.5732 7.73744 16.5732 8.03033 16.2803Z" fill="#26252A"/>
<path fill-rule="evenodd" clip-rule="evenodd" d="M12 22.5C17.799 22.5 22.5 17.799 22.5 12C22.5 6.20101 17.799 1.5 12 1.5C6.20101 1.5 1.5 6.20101 1.5 12C1.5 17.799 6.20101 22.5 12 22.5ZM12 21C16.9706 21 21 16.9706 21 12C21 7.02944 16.9706 3 12 3C7.02944 3 3 7.02944 3 12C3 16.9706 7.02944 21 12 21Z" fill="#26252A"/>
</svg>
