<svg width="24" height="24" viewBox="0 0 24 24" fill="none" xmlns="http://www.w3.org/2000/svg">
<path d="M9.75 9.75C9.75 10.5784 9.07843 11.25 8.25 11.25C7.42157 11.25 6.75 10.5784 6.75 9.75C6.75 8.92157 7.42157 8.25 8.25 8.25C9.07843 8.25 9.75 8.92157 9.75 9.75Z" fill="#292929"/>
<path d="M15.75 11.25C16.5784 11.25 17.25 10.5784 17.25 9.75C17.25 8.92157 16.5784 8.25 15.75 8.25C14.9216 8.25 14.25 8.92157 14.25 9.75C14.25 10.5784 14.9216 11.25 15.75 11.25Z" fill="#292929"/>
<path d="M7.44645 16.1222C7.21698 16.3894 7.25517 16.7845 7.50422 17.0336C7.83697 17.3663 8.394 17.2965 8.71577 16.9531C9.53684 16.0769 10.7045 15.5294 12 15.5294C13.2956 15.5294 14.4632 16.0769 15.2843 16.9531C15.6061 17.2965 16.1631 17.3663 16.4959 17.0336C16.7449 16.7845 16.7831 16.3894 16.5536 16.1222C15.4533 14.841 13.8214 14.0294 12 14.0294C10.1787 14.0294 8.54683 14.841 7.44645 16.1222Z" fill="#292929"/>
<path fill-rule="evenodd" clip-rule="evenodd" d="M12 22.5C17.799 22.5 22.5 17.799 22.5 12C22.5 6.20101 17.799 1.5 12 1.5C6.20101 1.5 1.5 6.20101 1.5 12C1.5 17.799 6.20101 22.5 12 22.5ZM12 21C16.9706 21 21 16.9706 21 12C21 7.02944 16.9706 3 12 3C7.02944 3 3 7.02944 3 12C3 16.9706 7.02944 21 12 21Z" fill="#292929"/>
</svg>
