<svg width="24" height="24" viewBox="0 0 24 24" fill="none" xmlns="http://www.w3.org/2000/svg">
<path d="M1.5 12.0528C1.5 17.2764 5.28 21.603 10.2675 22.5L10.3299 22.4487C10.3265 22.4481 10.3232 22.4475 10.3198 22.4468V15.0071H7.69482V12.0524H10.3198V9.73076C10.3198 7.09257 11.9998 5.61519 14.4148 5.61519C15.1498 5.61519 15.9898 5.72071 16.7248 5.82624V8.5172H15.3598C14.0998 8.5172 13.7848 9.15036 13.7848 9.99458V12.0524H16.5673L16.0948 15.0071H13.7848V22.4468C13.7528 22.4527 13.7207 22.4584 13.6886 22.4639L13.7325 22.5C18.72 21.603 22.5 17.2764 22.5 12.0528C22.5 6.24874 17.775 1.5 12 1.5C6.225 1.5 1.5 6.24874 1.5 12.0528Z" fill="#292929"/>
</svg>
