<svg width="24" height="24" viewBox="0 0 24 24" fill="none" xmlns="http://www.w3.org/2000/svg">
<path d="M12.75 16.5C12.75 16.9142 12.4142 17.25 12 17.25C11.5858 17.25 11.25 16.9142 11.25 16.5C11.25 16.0858 11.5858 15.75 12 15.75C12.4142 15.75 12.75 16.0858 12.75 16.5Z" fill="#292929"/>
<path d="M12 7.5C11.1716 7.5 10.5 8.17157 10.5 9C10.5 9.41421 10.1642 9.75 9.75 9.75C9.33579 9.75 9 9.41421 9 9C9 7.34315 10.3431 6 12 6H12.4874C14.0822 6 15.375 7.29282 15.375 8.8876V9.13498C15.375 10.2778 14.6174 11.2822 13.5185 11.5961C13.0636 11.7261 12.75 12.1419 12.75 12.615V12.75C12.75 13.1642 12.4142 13.5 12 13.5C11.5858 13.5 11.25 13.1642 11.25 12.75V12.615C11.25 11.4722 12.0076 10.4678 13.1065 10.1539C13.5614 10.0239 13.875 9.60809 13.875 9.13498V8.8876C13.875 8.12125 13.2537 7.5 12.4874 7.5H12Z" fill="#292929"/>
<path fill-rule="evenodd" clip-rule="evenodd" d="M12 22.5C17.799 22.5 22.5 17.799 22.5 12C22.5 6.20101 17.799 1.5 12 1.5C6.20101 1.5 1.5 6.20101 1.5 12C1.5 17.799 6.20101 22.5 12 22.5ZM12 21C16.9706 21 21 16.9706 21 12C21 7.02944 16.9706 3 12 3C7.02944 3 3 7.02944 3 12C3 16.9706 7.02944 21 12 21Z" fill="#292929"/>
</svg>
