<svg width="24" height="24" viewBox="0 0 24 24" fill="none" xmlns="http://www.w3.org/2000/svg">
<path fill-rule="evenodd" clip-rule="evenodd" d="M3.75 8.25C3.33579 8.25 3 8.58579 3 9V15C3 15.4142 3.33579 15.75 3.75 15.75H4.125C4.53921 15.75 4.875 16.0858 4.875 16.5C4.875 16.9142 4.53921 17.25 4.125 17.25H3.75C2.50736 17.25 1.5 16.2426 1.5 15V9C1.5 7.75736 2.50736 6.75 3.75 6.75H20.25C21.4926 6.75 22.5 7.75736 22.5 9V15C22.5 16.2426 21.4926 17.25 20.25 17.25H19.875C19.4608 17.25 19.125 16.9142 19.125 16.5C19.125 16.0858 19.4608 15.75 19.875 15.75H20.25C20.6642 15.75 21 15.4142 21 15V9C21 8.58579 20.6642 8.25 20.25 8.25H3.75Z" fill="#292929"/>
<path fill-rule="evenodd" clip-rule="evenodd" d="M6.75 3C6.33579 3 6 3.33579 6 3.75V7.5C6 7.91421 5.66421 8.25 5.25 8.25C4.83579 8.25 4.5 7.91421 4.5 7.5V3.75C4.5 2.50736 5.50736 1.5 6.75 1.5H17.25C18.4926 1.5 19.5 2.50736 19.5 3.75V7.5C19.5 7.91421 19.1642 8.25 18.75 8.25C18.3358 8.25 18 7.91421 18 7.5V3.75C18 3.33579 17.6642 3 17.25 3H6.75Z" fill="#292929"/>
<path fill-rule="evenodd" clip-rule="evenodd" d="M4.5 10.5C4.5 10.0858 4.83579 9.75 5.25 9.75H7.5C7.91421 9.75 8.25 10.0858 8.25 10.5C8.25 10.9142 7.91421 11.25 7.5 11.25H5.25C4.83579 11.25 4.5 10.9142 4.5 10.5Z" fill="#292929"/>
<path d="M9.75 10.5C9.75 10.0858 10.0858 9.75 10.5 9.75C10.9142 9.75 11.25 10.0858 11.25 10.5C11.25 10.9142 10.9142 11.25 10.5 11.25C10.0858 11.25 9.75 10.9142 9.75 10.5Z" fill="#292929"/>
<path fill-rule="evenodd" clip-rule="evenodd" d="M10.5 9.75C10.0858 9.75 9.75 10.0858 9.75 10.5C9.75 10.9142 10.0858 11.25 10.5 11.25C10.9142 11.25 11.25 10.9142 11.25 10.5C11.25 10.0858 10.9142 9.75 10.5 9.75Z" fill="#292929"/>
<path fill-rule="evenodd" clip-rule="evenodd" d="M6 15C6 13.7574 7.00736 12.75 8.25 12.75H15.75C16.9926 12.75 18 13.7574 18 15V20.25C18 21.4926 16.9926 22.5 15.75 22.5H8.25C7.00736 22.5 6 21.4926 6 20.25V15ZM8.25 14.25C7.83579 14.25 7.5 14.5858 7.5 15V20.25C7.5 20.6642 7.83579 21 8.25 21H15.75C16.1642 21 16.5 20.6642 16.5 20.25V15C16.5 14.5858 16.1642 14.25 15.75 14.25H8.25Z" fill="#292929"/>
</svg>
