<svg width="24" height="24" viewBox="0 0 24 24" fill="none" xmlns="http://www.w3.org/2000/svg">
<path fill-rule="evenodd" clip-rule="evenodd" d="M14.713 3.05711C14.9932 2.94103 15.3158 3.00519 15.5303 3.21969L22.2803 9.96969C22.5732 10.2626 22.5732 10.7375 22.2803 11.0304L15.5303 17.7804C15.3158 17.9949 14.9932 18.059 14.713 17.9429C14.4327 17.8268 14.25 17.5534 14.25 17.25V12.7841C11.4534 13.0232 6.03454 14.6177 2.91494 20.5969C2.75516 20.9032 2.40688 21.0607 2.0714 20.9784C1.73592 20.8962 1.5 20.5954 1.5 20.25C1.5 14.4305 6.01712 7.89245 14.25 7.51699V3.75002C14.25 3.44668 14.4327 3.1732 14.713 3.05711ZM15.75 8.25002C15.75 8.66424 15.4142 9.00002 15 9.00002C8.82844 9.00002 4.90511 12.7603 3.54029 16.9359C7.38643 12.2666 12.6345 11.25 15 11.25C15.4142 11.25 15.75 11.5858 15.75 12V15.4394L20.6893 10.5L15.75 5.56068V8.25002Z" fill="#292929"/>
</svg>
