<svg width="24" height="24" viewBox="0 0 24 24" fill="none" xmlns="http://www.w3.org/2000/svg">
<path d="M3 12C3 7.02944 7.02944 3 12 3C14.6651 3 17.0595 4.15768 18.7083 6H16.5C16.0858 6 15.75 6.33579 15.75 6.75C15.75 7.16421 16.0858 7.5 16.5 7.5H19.5C20.3284 7.5 21 6.82843 21 6V3C21 2.58579 20.6642 2.25 20.25 2.25C19.8358 2.25 19.5 2.58579 19.5 3V4.65157C17.595 2.70761 14.9383 1.5 12 1.5C6.20101 1.5 1.5 6.20101 1.5 12C1.5 17.799 6.20101 22.5 12 22.5C17.799 22.5 22.5 17.799 22.5 12C22.5 11.5858 22.1642 11.25 21.75 11.25C21.3358 11.25 21 11.5858 21 12C21 16.9706 16.9706 21 12 21C7.02944 21 3 16.9706 3 12Z" fill="#292929"/>
<path d="M11.25 6.75C11.6642 6.75 12 7.08579 12 7.5V11.3787C12 11.5776 12.079 11.7684 12.2197 11.909L15.5303 15.2197C15.8232 15.5126 15.8232 15.9874 15.5303 16.2803C15.2374 16.5732 14.7626 16.5732 14.4697 16.2803L11.159 12.9697C10.7371 12.5477 10.5 11.9754 10.5 11.3787V7.5C10.5 7.08579 10.8358 6.75 11.25 6.75Z" fill="#292929"/>
</svg>
