<svg width="24" height="24" viewBox="0 0 24 24" fill="none" xmlns="http://www.w3.org/2000/svg">
<path d="M16.161 7.24634C15.0809 6.21543 13.7284 5.68089 12.2068 5.68089C9.52057 5.68089 7.23822 7.52316 6.42108 10.005C6.21445 10.635 6.09218 11.3032 6.09218 12C6.09218 12.6968 6.21429 13.365 6.42092 13.995L6.40861 14.0046H6.42108C7.23822 16.4864 9.52057 18.3287 12.2068 18.3287C13.5968 18.3287 14.7708 17.9469 15.6912 17.317C16.7901 16.5724 17.5227 15.4649 17.7669 14.1572H12.2066V10.0909H21.9372C22.0593 10.7781 22.125 11.494 22.125 12.2386C22.125 15.4363 20.9979 18.1281 19.0443 19.9608C17.3349 21.5644 14.9963 22.5 12.2068 22.5C8.16807 22.5 4.68349 20.1423 2.98347 16.7155V16.7058C2.27904 15.2931 1.875 13.6991 1.875 12C1.875 10.3009 2.27887 8.70685 2.9833 7.29413C4.68333 3.85778 8.16807 1.5 12.2068 1.5C14.9963 1.5 17.3257 2.54045 19.1196 4.23953L16.161 7.24634Z" fill="#292929"/>
</svg>
