<svg width="24" height="24" viewBox="0 0 24 24" fill="none" xmlns="http://www.w3.org/2000/svg">
<path d="M18.3752 1.5C17.9905 1.5 17.6252 1.58272 17.2961 1.73135C17.7095 2.08292 18.0526 2.51459 18.3016 3.00237C18.3259 3.0008 18.3505 3 18.3752 3C18.9965 3 19.5002 3.50368 19.5002 4.125C19.5002 4.61925 19.1814 5.03906 18.7383 5.1901C18.6962 5.74805 18.543 6.27502 18.3009 6.74897C18.3256 6.74965 18.3503 6.75 18.3752 6.75C19.8249 6.75 21.0002 5.57475 21.0002 4.125C21.0002 2.67525 19.8249 1.5 18.3752 1.5Z" fill="#292929"/>
<path d="M22.5002 9.75C22.5002 10.7037 21.4125 11.5187 19.8768 11.8463C20.118 11.4284 20.2502 10.9745 20.2502 10.5C20.2502 10.3931 20.2435 10.2872 20.2303 10.1826C20.3567 10.1332 20.4716 10.0799 20.5737 10.0241C20.7868 9.9079 20.8984 9.81221 20.9552 9.75C20.8984 9.68779 20.7868 9.5921 20.5737 9.47585C20.3902 9.37577 20.1658 9.2835 19.9071 9.20737C19.5321 8.5266 18.8694 7.93844 18.0173 7.50835C18.1353 7.50282 18.2546 7.5 18.3752 7.5C20.6533 7.5 22.5002 8.50736 22.5002 9.75Z" fill="#292929"/>
<path fill-rule="evenodd" clip-rule="evenodd" d="M9.41721 8.31329C9.52052 8.93241 9.36504 9.34386 8.92215 10.0787L8.81469 10.2598C8.61075 10.6137 8.57581 10.7577 8.62759 10.9189C9.43635 13.0868 10.9098 14.5601 13.0531 15.3592C13.2564 15.4253 13.4141 15.3759 13.861 15.1073L14.0942 14.9689C14.7218 14.6067 15.1152 14.484 15.6835 14.5794C16.2365 14.6729 18.2298 16.1374 18.9034 16.8288C19.2581 17.1927 19.4792 17.5995 19.4994 18.1084C19.4911 19.3476 17.9035 21.1585 16.9576 21.7227C15.8756 22.5182 14.5429 22.5617 13.0773 21.9287C9.23651 20.466 3.5063 14.7756 2.07658 10.9382L1.99035 10.7239C1.44595 9.3031 1.51146 8.05317 2.24434 7.08217C2.92096 6.00789 4.68742 4.49041 5.89583 4.49562L5.92011 4.49617C6.39749 4.51578 6.80358 4.7364 7.16783 5.09156C7.86005 5.76624 9.32367 7.75837 9.41721 8.31329ZM13.8125 16.7907C14.1232 16.6938 14.4123 16.526 14.6302 16.3951L14.8515 16.2637C15.1198 16.1093 15.235 16.0681 15.2863 16.0549C15.3054 16.0499 15.3166 16.0487 15.3281 16.0484C15.3329 16.0483 15.34 16.0482 15.35 16.0487C15.4004 16.0734 15.4725 16.1119 15.5668 16.1672C15.791 16.2986 16.0741 16.4851 16.3779 16.7016C17.0052 17.1485 17.5863 17.6264 17.8293 17.8758C17.9213 17.9702 17.9602 18.0336 17.9769 18.0682C17.9857 18.0863 17.9922 18.1038 17.9962 18.1258C17.9935 18.143 17.9885 18.1683 17.9792 18.2024C17.9598 18.2737 17.9262 18.3672 17.8726 18.4819C17.764 18.7144 17.5976 18.9828 17.3865 19.2602C16.9439 19.8416 16.4463 20.2811 16.1892 20.4345L16.1272 20.4714L16.0691 20.5142C15.5308 20.91 14.7944 21.0364 13.672 20.5516L13.6418 20.5386L13.6111 20.5269C11.9786 19.9052 9.76299 18.2868 7.73185 16.2617C5.69869 14.2346 4.08585 12.0348 3.48219 10.4145L3.47544 10.3964L3.38689 10.1763C2.96719 9.07408 3.11778 8.41484 3.44159 7.98582L3.47979 7.93522L3.51357 7.88158C3.73573 7.52885 4.21019 7.00865 4.77638 6.57977C5.05128 6.37154 5.31215 6.21231 5.53458 6.11057C5.64415 6.06045 5.73229 6.02986 5.79819 6.01267C5.83687 6.00259 5.86273 5.99846 5.87684 5.99678C5.88901 5.99895 5.90297 6.00348 5.92267 6.0132C5.95881 6.03103 6.02546 6.07272 6.12087 6.16575C6.3708 6.40935 6.8486 6.99035 7.29519 7.61746C7.5115 7.92121 7.69785 8.20422 7.82913 8.42847C7.88438 8.52285 7.92287 8.59495 7.94758 8.64543C7.94813 8.65787 7.9479 8.66604 7.94766 8.67086C7.94716 8.68059 7.94587 8.69447 7.93731 8.72311C7.91322 8.8037 7.84793 8.95511 7.6374 9.30445L7.51987 9.50245L7.51502 9.51086C7.40431 9.70299 7.26119 9.96635 7.17948 10.2619C7.07435 10.6422 7.08355 11.017 7.19954 11.3778L7.21012 11.4108L7.2222 11.4431C8.18202 14.016 9.97538 15.8125 12.529 16.7647L12.5589 16.7758L12.5892 16.7857C12.9798 16.9127 13.3883 16.9231 13.8125 16.7907Z" fill="#292929"/>
<path fill-rule="evenodd" clip-rule="evenodd" d="M14.6251 12.75C16.9033 12.75 18.7501 11.7426 18.7501 10.5C18.7501 9.25736 16.9033 8.25 14.6251 8.25C12.3469 8.25 10.5001 9.25736 10.5001 10.5C10.5001 11.7426 12.3469 12.75 14.6251 12.75ZM17.2052 10.5C17.1483 10.4378 17.0368 10.3421 16.8237 10.2259C16.3372 9.96051 15.5627 9.75 14.6251 9.75C13.6876 9.75 12.913 9.96051 12.4266 10.2259C12.2135 10.3421 12.1019 10.4378 12.0451 10.5C12.1019 10.5622 12.2135 10.6579 12.4266 10.7741C12.913 11.0395 13.6876 11.25 14.6251 11.25C15.5627 11.25 16.3372 11.0395 16.8237 10.7741C17.0368 10.6579 17.1483 10.5622 17.2052 10.5ZM11.9896 10.4216L11.9901 10.4226C11.9905 10.4235 11.9911 10.4251 11.9918 10.4273L11.9901 10.4226C11.9898 10.4217 11.9895 10.4216 11.9896 10.4216Z" fill="#292929"/>
<path fill-rule="evenodd" clip-rule="evenodd" d="M17.2501 4.875C17.2501 6.32475 16.0749 7.5 14.6251 7.5C13.1754 7.5 12.0001 6.32475 12.0001 4.875C12.0001 3.42525 13.1754 2.25 14.6251 2.25C16.0749 2.25 17.2501 3.42525 17.2501 4.875ZM15.7501 4.875C15.7501 5.49632 15.2464 6 14.6251 6C14.0038 6 13.5001 5.49632 13.5001 4.875C13.5001 4.25368 14.0038 3.75 14.6251 3.75C15.2464 3.75 15.7501 4.25368 15.7501 4.875Z" fill="#292929"/>
</svg>
