<svg width="24" height="24" viewBox="0 0 24 24" fill="none" xmlns="http://www.w3.org/2000/svg">
  <path fill-rule="evenodd" clip-rule="evenodd" d="M7.61642 2.52342C7.67338 2.5378 7.72928 2.55891 7.78299 2.58695C8.02579 2.70844 8.90188 3.1124 10.4206 3.72497C11.1585 4.0226 11.5091 4.06716 11.7181 4.05135C11.9132 4.03659 12.0562 3.97127 12.4297 3.7834C13.1195 3.20827 13.9896 2.88986 14.8922 2.88986L18.6355 2.88986C18.9654 2.88986 19.2471 3.09833 19.358 3.39177L22.4297 10.7481C22.4636 10.8229 22.4855 10.9024 22.4948 10.9835C22.4972 11.0036 22.4987 11.0238 22.4995 11.044C22.5063 11.2279 22.4478 11.4081 22.3372 11.5519L20.4289 14.1175L20.5346 14.2241C21.37 15.0665 21.37 16.4323 20.5346 17.2747C20.092 17.721 19.5038 17.9308 18.9243 17.9043C18.8425 18.1247 18.7137 18.3314 18.5379 18.5087C17.8918 19.1602 16.9898 19.3963 16.1582 19.217C16.0783 19.3835 15.9698 19.5396 15.8327 19.6778C15.2152 20.3005 14.3637 20.5437 13.5635 20.4073L13.3854 20.5869C12.2279 21.7541 10.3688 21.8092 9.14535 20.7125L4.74866 16.7997C3.54218 15.7183 2.88303 14.8099 2.88303 13.1822C2.88303 12.4045 2.62237 12.081 2.20353 11.5612C2.12658 11.4657 2.04429 11.3636 1.9573 11.2508L1.66284 10.9355C1.41537 10.6147 1.45572 10.1602 1.74469 9.88802C1.75506 9.87093 1.76616 9.8541 1.77798 9.83759L6.79222 2.83674C6.88591 2.69951 7.01808 2.60019 7.16627 2.54635C7.3082 2.49479 7.46483 2.48493 7.61642 2.52342ZM20.8424 10.9636L18.122 4.44859L14.8922 4.44859C14.2772 4.44859 13.6875 4.69493 13.2526 5.13341L9.747 8.66834C9.30183 9.11724 9.30183 9.84504 9.747 10.2939C10.1922 10.7428 10.9139 10.7428 11.3591 10.2939L13.4485 8.18703L13.4515 8.18401L13.4545 8.18102L14.3845 7.24324C14.6744 6.95092 15.0676 6.78669 15.4776 6.78669L15.9303 6.78669C16.3572 6.78669 16.7032 7.13563 16.7032 7.56606C16.7032 7.99649 16.3572 8.34543 15.9303 8.34543L15.4776 8.34543L15.0911 8.73512L19.3247 13.0042L20.8424 10.9636ZM3.27106 10.4152L7.68184 4.25692C8.15908 4.47153 8.8814 4.78295 9.84648 5.17221C10.1672 5.30158 10.4576 5.40328 10.7266 5.47622L10.7132 5.48967C10.7132 5.48967 10.4742 5.70296 10.1723 6.00732C9.87049 6.31169 9.62016 6.59186 9.62016 6.59186L8.65395 7.56615C7.6051 8.62377 7.6051 10.3385 8.65395 11.3961C9.7028 12.4537 11.4033 12.4537 12.4522 11.3961L13.9981 9.83731L19.4415 15.3263C19.6733 15.56 19.6733 15.9388 19.4415 16.1725C19.2098 16.4062 18.8341 16.4062 18.6023 16.1725L16.4768 14.0293C16.4391 13.9912 16.3984 13.9579 16.3556 13.9294C16.0556 13.7297 15.6479 13.763 15.3838 14.0293C15.0819 14.3336 15.0819 14.8271 15.3838 15.1315L17.4449 17.2098C17.4987 17.2641 17.4987 17.3522 17.4449 17.4065C17.0353 17.8196 16.3712 17.8196 15.9616 17.4065L14.1581 15.588C13.8563 15.2836 13.3669 15.2836 13.0651 15.588C13.0273 15.626 12.9943 15.667 12.966 15.7103C12.7679 16.0128 12.801 16.4239 13.0651 16.6902L14.7397 18.3788C14.7936 18.4332 14.7936 18.5212 14.7397 18.5756C14.3301 18.9886 13.666 18.9886 13.2564 18.5756L11.0665 16.3674C10.7647 16.063 10.2753 16.063 9.97349 16.3674C9.67165 16.6718 9.67165 17.1652 9.97349 17.4696L10.359 17.8584L10.3599 17.8592L12.1204 19.6345C11.5417 20.0684 10.7266 20.0443 10.1723 19.5475L5.77564 15.6347C4.89917 14.8491 4.42883 14.3647 4.42883 13.1822C4.42883 11.967 3.98763 11.3462 3.27106 10.4152Z" fill="#292929"/>
</svg>
  