<svg width="24" height="24" viewBox="0 0 24 24" fill="none" xmlns="http://www.w3.org/2000/svg">
<path d="M9 8.25C9 7.83579 9.33579 7.5 9.75 7.5C10.1642 7.5 10.5 7.83579 10.5 8.25V15.75C10.5 16.1642 10.1642 16.5 9.75 16.5C9.33579 16.5 9 16.1642 9 15.75V8.25Z" fill="#292929"/>
<path d="M14.25 7.5C13.8358 7.5 13.5 7.83579 13.5 8.25V15.75C13.5 16.1642 13.8358 16.5 14.25 16.5C14.6642 16.5 15 16.1642 15 15.75V8.25C15 7.83579 14.6642 7.5 14.25 7.5Z" fill="#292929"/>
<path fill-rule="evenodd" clip-rule="evenodd" d="M12 22.5C17.799 22.5 22.5 17.799 22.5 12C22.5 6.20101 17.799 1.5 12 1.5C6.20101 1.5 1.5 6.20101 1.5 12C1.5 17.799 6.20101 22.5 12 22.5ZM12 21C16.9706 21 21 16.9706 21 12C21 7.02944 16.9706 3 12 3C7.02944 3 3 7.02944 3 12C3 16.9706 7.02944 21 12 21Z" fill="#292929"/>
</svg>
