<svg width="24" height="24" viewBox="0 0 24 24" fill="none" xmlns="http://www.w3.org/2000/svg">
<path fill-rule="evenodd" clip-rule="evenodd" d="M22.5 12C22.5 17.799 17.799 22.5 12 22.5C6.20101 22.5 1.5 17.799 1.5 12C1.5 6.20101 6.20101 1.5 12 1.5C17.799 1.5 22.5 6.20101 22.5 12ZM17.5699 19.0699C16.0377 20.2787 14.1031 21 12 21C7.02944 21 3 16.9706 3 12C3 9.89693 3.72134 7.96234 4.9301 6.43015L17.5699 19.0699ZM18.6671 18.0458L5.95422 5.33294C7.55186 3.8833 9.67278 3 12 3C16.9706 3 21 7.02944 21 12C21 14.3272 20.1167 16.4481 18.6671 18.0458Z" fill="#292929"/>
</svg>
