<svg width="24" height="24" viewBox="0 0 24 24" fill="none" xmlns="http://www.w3.org/2000/svg">
<path d="M21.7501 8.25C21.7501 8.66421 21.4143 9 21.0001 9L16.1251 9C15.5038 9 15.0001 8.49632 15.0001 7.875V3C15.0001 2.58579 15.3359 2.25 15.7501 2.25C16.1643 2.25 16.5001 2.58579 16.5001 3V6.43934L21.2198 1.71967C21.5127 1.42678 21.9876 1.42678 22.2805 1.71967C22.5733 2.01256 22.5733 2.48744 22.2805 2.78033L17.5608 7.5L21.0001 7.5C21.4143 7.5 21.7501 7.83579 21.7501 8.25Z" fill="#292929"/>
<path fill-rule="evenodd" clip-rule="evenodd" d="M9.67215 9.32873C10.115 8.59386 10.2705 8.18241 10.1672 7.56329C10.0737 7.00837 8.61005 5.01624 7.91783 4.34156C7.55358 3.9864 7.14749 3.76578 6.67011 3.74617L6.64583 3.74562C5.43742 3.74041 3.67096 5.25789 2.99434 6.33217C2.26146 7.30317 2.19595 8.5531 2.74035 9.97387L2.82658 10.1883C4.2563 14.0256 9.98651 19.716 13.8273 21.1787C15.2929 21.8117 16.6256 21.7682 17.7076 20.9727C18.6535 20.4085 20.2411 18.5976 20.2494 17.3584C20.2292 16.8495 20.0081 16.4427 19.6534 16.0788C18.9798 15.3874 16.9865 13.9229 16.4335 13.8294C15.8652 13.734 15.4718 13.8567 14.8442 14.2189L14.611 14.3573C14.1641 14.6259 14.0064 14.6753 13.8031 14.6092C11.6598 13.8101 10.1864 12.3368 9.37759 10.1689C9.32581 10.0077 9.36075 9.86368 9.56469 9.50977L9.67215 9.32873ZM15.3802 15.6451C15.1623 15.776 14.8732 15.9438 14.5625 16.0407C14.1383 16.1731 13.7298 16.1627 13.3392 16.0357L13.3089 16.0258L13.279 16.0147C10.7254 15.0625 8.93202 13.266 7.9722 10.6931L7.96012 10.6608L7.94954 10.6278C7.83355 10.267 7.82435 9.89218 7.92948 9.51192C8.01119 9.21635 8.15431 8.95299 8.26502 8.76086L8.26987 8.75245L8.3874 8.55445C8.59793 8.20512 8.66322 8.0537 8.68731 7.97311C8.69587 7.94447 8.69716 7.9306 8.69766 7.92086C8.6979 7.91604 8.69813 7.90787 8.69758 7.89543C8.67287 7.84495 8.63438 7.77285 8.57913 7.67847C8.44785 7.45422 8.2615 7.17121 8.04519 6.86746C7.5986 6.24035 7.1208 5.65935 6.87087 5.41575C6.77546 5.32272 6.70881 5.28103 6.67267 5.2632C6.65296 5.25348 6.63901 5.24895 6.62684 5.24678C6.61273 5.24846 6.58687 5.25259 6.54819 5.26267C6.48229 5.27986 6.39415 5.31045 6.28458 5.36057C6.06215 5.46231 5.80128 5.62154 5.52638 5.82977C4.96019 6.25865 4.48573 6.77885 4.26357 7.13158L4.22979 7.18522L4.19159 7.23582C3.86778 7.66484 3.71719 8.32408 4.13689 9.42628L4.22544 9.64644L4.23219 9.66455C4.83585 11.2848 6.44869 13.4846 8.48185 15.5117C10.513 17.5368 12.7286 19.1552 14.3611 19.7769L14.3918 19.7886L14.422 19.8016C15.5444 20.2864 16.2808 20.16 16.8191 19.7642L16.8772 19.7214L16.9392 19.6845C17.1963 19.5311 17.6939 19.0916 18.1365 18.5102C18.3476 18.2328 18.514 17.9644 18.6226 17.7319C18.6762 17.6172 18.7098 17.5237 18.7292 17.4524C18.7385 17.4183 18.7435 17.393 18.7462 17.3758C18.7422 17.3538 18.7357 17.3363 18.7269 17.3182C18.7102 17.2836 18.6713 17.2202 18.5793 17.1258C18.3363 16.8764 17.7552 16.3985 17.1279 15.9516C16.8241 15.7351 16.541 15.5486 16.3168 15.4172C16.2225 15.3619 16.1504 15.3234 16.1 15.2987C16.09 15.2982 16.0829 15.2983 16.0781 15.2984C16.0666 15.2987 16.0554 15.2999 16.0363 15.3049C15.985 15.3181 15.8698 15.3593 15.6015 15.5137L15.3802 15.6451Z" fill="#292929"/>
</svg>
