<svg width="24" height="24" viewBox="0 0 24 24" fill="none" xmlns="http://www.w3.org/2000/svg">
<path d="M21.75 8.25C21.75 8.66421 21.4142 9 21 9L16.125 9C15.5037 9 15 8.49632 15 7.875V3C15 2.58579 15.3358 2.25 15.75 2.25C16.1642 2.25 16.5 2.58579 16.5 3V6.43934L21.2197 1.71967C21.5126 1.42678 21.9874 1.42678 22.2803 1.71967C22.5732 2.01256 22.5732 2.48744 22.2803 2.78033L17.5607 7.5L21 7.5C21.4142 7.5 21.75 7.83579 21.75 8.25Z" fill="#292929"/>
<path d="M12.75 4.5H5.25C3.17893 4.5 1.5 6.17893 1.5 8.25V15.75C1.5 17.8211 3.17893 19.5 5.25 19.5H18.75C20.8211 19.5 22.5 17.8211 22.5 15.75V11.25C22.5 10.8358 22.1642 10.5 21.75 10.5C21.3358 10.5 21 10.8358 21 11.25V15.75C21 16.9926 19.9926 18 18.75 18H5.25C4.00736 18 3 16.9926 3 15.75V8.25C3 8.07187 3.0207 7.89857 3.05983 7.73238L10.2 13.0875C11.2667 13.8875 12.7334 13.8875 13.8 13.0875L14.7792 12.3531C15.2252 12.0186 15.1633 11.3316 14.6646 11.0823C14.4105 10.9553 14.1064 10.9827 13.8792 11.1531L13.7208 11.2719L13.713 11.2778L12.9 11.8875C12.3667 12.2875 11.6334 12.2875 11.1 11.8875L3.87508 6.46882C4.25531 6.17489 4.73223 6 5.25 6H12.75C13.1642 6 13.5 5.66421 13.5 5.25C13.5 4.83579 13.1642 4.5 12.75 4.5Z" fill="#292929"/>
</svg>
