<svg width="24" height="24" viewBox="0 0 24 24" fill="none" xmlns="http://www.w3.org/2000/svg">
<path d="M18.5303 1.71967C18.2374 1.42678 17.7626 1.42678 17.4697 1.71967L13.7197 5.46967C13.4268 5.76256 13.4268 6.23744 13.7197 6.53033L17.4697 10.2803C17.7626 10.5732 18.2374 10.5732 18.5303 10.2803C18.8232 9.98744 18.8232 9.51256 18.5303 9.21967L16.0607 6.75L21.75 6.75C22.1642 6.75 22.5 6.41421 22.5 6C22.5 5.58579 22.1642 5.25 21.75 5.25L16.0607 5.25L18.5303 2.78033C18.8232 2.48744 18.8232 2.01256 18.5303 1.71967Z" fill="#292929"/>
<path fill-rule="evenodd" clip-rule="evenodd" d="M4.5247 8.38692C4.83661 4.53154 8.06428 1.5 12 1.5L12.0445 1.50002C12.6499 1.49972 13.6754 1.49923 14.5854 1.95421C14.9559 2.13945 15.1061 2.58996 14.9208 2.96044C14.7356 3.33092 14.2851 3.48109 13.9146 3.29585C13.3472 3.01218 12.6513 3.00003 12 3.00003C11.9979 3.00003 11.9958 3.00002 11.9936 3C8.68286 3.00344 6 5.68841 6 9V13.5C6 14.7426 4.99264 15.75 3.75 15.75C2.50736 15.75 1.5 14.7426 1.5 13.5V10.5C1.5 9.25736 2.50736 8.25 3.75 8.25C4.02223 8.25 4.28317 8.29835 4.5247 8.38692ZM4.5 10.5C4.5 10.0858 4.16421 9.75 3.75 9.75C3.33579 9.75 3 10.0858 3 10.5V13.5C3 13.9142 3.33579 14.25 3.75 14.25C4.16421 14.25 4.5 13.9142 4.5 13.5V10.5Z" fill="#292929"/>
<path fill-rule="evenodd" clip-rule="evenodd" d="M18 17.25V12.75C18 12.3358 18.3358 12 18.75 12C19.1642 12 19.5 12.3358 19.5 12.75V13.5C19.5 13.9142 19.8358 14.25 20.25 14.25C20.6642 14.25 21 13.9142 21 13.5V9.75C21 9.33579 21.3358 9 21.75 9C22.1642 9 22.5 9.33579 22.5 9.75V13.5C22.5 14.7426 21.4926 15.75 20.25 15.75C19.987 15.75 19.7346 15.7049 19.5 15.622V17.25C19.5 18.9069 18.1569 20.25 16.5 20.25H14.9055C14.5725 21.5439 13.3979 22.5 12 22.5C10.3431 22.5 9 21.1569 9 19.5C9 17.8431 10.3431 16.5 12 16.5C13.3979 16.5 14.5725 17.4561 14.9055 18.75H16.5C17.3284 18.75 18 18.0784 18 17.25ZM13.5 19.5C13.5 20.3284 12.8284 21 12 21C11.1716 21 10.5 20.3284 10.5 19.5C10.5 18.6716 11.1716 18 12 18C12.8284 18 13.5 18.6716 13.5 19.5Z" fill="#292929"/>
</svg>
