<svg width="24" height="24" viewBox="0 0 24 24" fill="none" xmlns="http://www.w3.org/2000/svg">
<path fill-rule="evenodd" clip-rule="evenodd" d="M16.5 4.5H7.5C5.84315 4.5 4.5 5.84315 4.5 7.5V16.5C4.5 18.1569 5.84315 19.5 7.5 19.5H16.5C18.1569 19.5 19.5 18.1569 19.5 16.5V7.5C19.5 5.84315 18.1569 4.5 16.5 4.5ZM7.5 3C5.01472 3 3 5.01472 3 7.5V16.5C3 18.9853 5.01472 21 7.5 21H16.5C18.9853 21 21 18.9853 21 16.5V7.5C21 5.01472 18.9853 3 16.5 3H7.5Z" fill="#292929"/>
<path d="M7.5 12C7.5 11.5858 7.83579 11.25 8.25 11.25H15.75C16.1642 11.25 16.5 11.5858 16.5 12C16.5 12.4142 16.1642 12.75 15.75 12.75H8.25C7.83579 12.75 7.5 12.4142 7.5 12Z" fill="#292929"/>
</svg>
