<svg width="24" height="24" viewBox="0 0 24 24" fill="none" xmlns="http://www.w3.org/2000/svg">
<path d="M12.75 3C12.75 2.58579 12.4142 2.25 12 2.25C11.5858 2.25 11.25 2.58579 11.25 3V6C11.25 6.41421 11.5858 6.75 12 6.75C12.4142 6.75 12.75 6.41421 12.75 6V3Z" fill="#292929"/>
<path d="M2.25 11.25C1.83579 11.25 1.5 11.5858 1.5 12C1.5 12.4142 1.83579 12.75 2.25 12.75H5.25C5.66421 12.75 6 12.4142 6 12C6 11.5858 5.66421 11.25 5.25 11.25H2.25Z" fill="#292929"/>
<path d="M18 12C18 11.5858 18.3358 11.25 18.75 11.25H21.75C22.1642 11.25 22.5 11.5858 22.5 12C22.5 12.4142 22.1642 12.75 21.75 12.75H18.75C18.3358 12.75 18 12.4142 18 12Z" fill="#292929"/>
<path d="M5.63597 4.57538C5.34308 4.28249 4.86821 4.28249 4.57531 4.57538C4.28242 4.86828 4.28242 5.34315 4.57531 5.63604L6.69663 7.75736C6.98953 8.05026 7.4644 8.05026 7.75729 7.75736C8.05019 7.46447 8.05019 6.9896 7.75729 6.6967L5.63597 4.57538Z" fill="#292929"/>
<path d="M16.2427 7.75702C15.9498 7.46413 15.9498 6.98926 16.2427 6.69636L18.364 4.57504C18.6569 4.28215 19.1318 4.28215 19.4247 4.57504C19.7176 4.86794 19.7176 5.34281 19.4247 5.6357L17.3033 7.75702C17.0104 8.04992 16.5356 8.04992 16.2427 7.75702Z" fill="#292929"/>
<path fill-rule="evenodd" clip-rule="evenodd" d="M16.5 12.75C16.5 14.4156 15.5951 15.8699 14.25 16.648V21C14.25 21.8284 13.5784 22.5 12.75 22.5H11.25C10.4216 22.5 9.75 21.8284 9.75 21V16.648C8.40495 15.8699 7.5 14.4156 7.5 12.75C7.5 10.2647 9.51472 8.25 12 8.25C14.4853 8.25 16.5 10.2647 16.5 12.75ZM11.25 15.6555V12.75C11.25 12.3358 11.5858 12 12 12C12.4142 12 12.75 12.3358 12.75 12.75V15.6555C14.0439 15.3225 15 14.1479 15 12.75C15 11.0931 13.6569 9.75 12 9.75C10.3431 9.75 9 11.0931 9 12.75C9 14.1479 9.95608 15.3225 11.25 15.6555ZM11.25 17.25V21H12.75V17.25H11.25Z" fill="#292929"/>
</svg>
