<svg width="24" height="24" viewBox="0 0 24 24" fill="none" xmlns="http://www.w3.org/2000/svg">
<path d="M6.75 2.25C4.67893 2.25 3 3.92893 3 6V18C3 20.0711 4.67893 21.75 6.75 21.75H11.625C13.489 21.75 15 20.239 15 18.375C15 17.9608 14.6642 17.625 14.25 17.625C13.8358 17.625 13.5 17.9608 13.5 18.375C13.5 19.4105 12.6605 20.25 11.625 20.25H6.75C5.50736 20.25 4.5 19.2426 4.5 18V6C4.5 4.75736 5.50736 3.75 6.75 3.75H11.25C12.4926 3.75 13.5 4.75736 13.5 6C13.5 6.41421 13.8358 6.75 14.25 6.75C14.6642 6.75 15 6.41421 15 6C15 3.92893 13.3211 2.25 11.25 2.25H6.75Z" fill="#292929"/>
<path d="M17.6554 7.71967C17.3625 7.42678 16.8876 7.42678 16.5947 7.71967C16.3018 8.01256 16.3018 8.48744 16.5947 8.78033L19.0644 11.25H7.875C7.52982 11.25 7.25 11.5858 7.25 12C7.25 12.4142 7.52982 12.75 7.875 12.75H19.0644L16.5947 15.2197C16.3018 15.5126 16.3018 15.9874 16.5947 16.2803C16.8876 16.5732 17.3625 16.5732 17.6554 16.2803L21.4053 12.5303C21.6982 12.2374 21.6982 11.7626 21.4053 11.4697L17.6554 7.71967Z" fill="#292929"/>
</svg>
