<svg width="24" height="24" viewBox="0 0 24 24" fill="none" xmlns="http://www.w3.org/2000/svg">
<path fill-rule="evenodd" clip-rule="evenodd" d="M7.5 7.5C7.5 9.15685 6.15685 10.5 4.5 10.5C2.84315 10.5 1.5 9.15685 1.5 7.5C1.5 5.84315 2.84315 4.5 4.5 4.5C6.15685 4.5 7.5 5.84315 7.5 7.5ZM6 7.5C6 8.32843 5.32843 9 4.5 9C3.67157 9 3 8.32843 3 7.5C3 6.67157 3.67157 6 4.5 6C5.32843 6 6 6.67157 6 7.5Z" fill="#292929"/>
<path fill-rule="evenodd" clip-rule="evenodd" d="M7.5 16.5C7.5 18.1569 6.15685 19.5 4.5 19.5C2.84315 19.5 1.5 18.1569 1.5 16.5C1.5 14.8431 2.84315 13.5 4.5 13.5C6.15685 13.5 7.5 14.8431 7.5 16.5ZM6 16.5C6 17.3284 5.32843 18 4.5 18C3.67157 18 3 17.3284 3 16.5C3 15.6716 3.67157 15 4.5 15C5.32843 15 6 15.6716 6 16.5Z" fill="#292929"/>
<path d="M10.5 7.5C10.5 7.08579 10.8358 6.75 11.25 6.75H21.75C22.1642 6.75 22.5 7.08579 22.5 7.5C22.5 7.91421 22.1642 8.25 21.75 8.25H11.25C10.8358 8.25 10.5 7.91421 10.5 7.5Z" fill="#292929"/>
<path d="M11.25 15.75C10.8358 15.75 10.5 16.0858 10.5 16.5C10.5 16.9142 10.8358 17.25 11.25 17.25H21.75C22.1642 17.25 22.5 16.9142 22.5 16.5C22.5 16.0858 22.1642 15.75 21.75 15.75H11.25Z" fill="#292929"/>
</svg>
