<svg width="24" height="24" viewBox="0 0 24 24" fill="none" xmlns="http://www.w3.org/2000/svg">
<path d="M12.75 16.2993C13.1984 16.04 13.5 15.5552 13.5 15C13.5 14.1716 12.8284 13.5 12 13.5C11.1716 13.5 10.5 14.1716 10.5 15C10.5 15.5552 10.8016 16.04 11.25 16.2993V17.25C11.25 17.6642 11.5858 18 12 18C12.4142 18 12.75 17.6642 12.75 17.25V16.2993Z" fill="#292929"/>
<path fill-rule="evenodd" clip-rule="evenodd" d="M6 9.75V8.25C6 4.93629 8.68629 2.25 12 2.25C15.3137 2.25 18 4.93629 18 8.25V9.75H18.75C19.5784 9.75 20.25 10.4216 20.25 11.25V20.25C20.25 21.0784 19.5784 21.75 18.75 21.75H5.25C4.42157 21.75 3.75 21.0784 3.75 20.25V11.25C3.75 10.4216 4.42157 9.75 5.25 9.75H6ZM16.5 8.25V9.75H7.5V8.25C7.5 5.76472 9.51472 3.75 12 3.75C14.4853 3.75 16.5 5.76472 16.5 8.25ZM5.25 11.25L5.25 20.25H18.75V11.25H5.25Z" fill="#292929"/>
</svg>
