<svg width="24" height="24" viewBox="0 0 24 24" fill="none" xmlns="http://www.w3.org/2000/svg">
<path d="M14.2501 1.5C13.8359 1.5 13.5001 1.83579 13.5001 2.25C13.5001 2.66421 13.8359 3 14.2501 3C14.6643 3 15.0001 2.66421 15.0001 2.25C15.0001 1.83579 14.6643 1.5 14.2501 1.5Z" fill="#292929"/>
<path d="M16.5001 2.25C16.5001 1.83579 16.8359 1.5 17.2501 1.5H21.7501C22.1643 1.5 22.5001 1.83579 22.5001 2.25C22.5001 2.66421 22.1643 3 21.7501 3H17.2501C16.8359 3 16.5001 2.66421 16.5001 2.25Z" fill="#292929"/>
<path d="M16.5001 5.25C16.5001 4.83579 16.8359 4.5 17.2501 4.5H21.7501C22.1643 4.5 22.5001 4.83579 22.5001 5.25C22.5001 5.66421 22.1643 6 21.7501 6H17.2501C16.8359 6 16.5001 5.66421 16.5001 5.25Z" fill="#292929"/>
<path d="M13.5001 5.25C13.5001 4.83579 13.8359 4.5 14.2501 4.5C14.6643 4.5 15.0001 4.83579 15.0001 5.25C15.0001 5.66421 14.6643 6 14.2501 6C13.8359 6 13.5001 5.66421 13.5001 5.25Z" fill="#292929"/>
<path d="M17.2501 7.5C16.8359 7.5 16.5001 7.83579 16.5001 8.25C16.5001 8.66421 16.8359 9 17.2501 9H21.7501C22.1643 9 22.5001 8.66421 22.5001 8.25C22.5001 7.83579 22.1643 7.5 21.7501 7.5H17.2501Z" fill="#292929"/>
<path d="M13.5001 8.25C13.5001 7.83579 13.8359 7.5 14.2501 7.5C14.6643 7.5 15.0001 7.83579 15.0001 8.25C15.0001 8.66421 14.6643 9 14.2501 9C13.8359 9 13.5001 8.66421 13.5001 8.25Z" fill="#292929"/>
<path fill-rule="evenodd" clip-rule="evenodd" d="M9.67215 9.328C10.115 8.59312 10.2705 8.18168 10.1672 7.56256C10.0737 7.00763 8.61005 5.01551 7.91783 4.34083C7.55358 3.98566 7.14749 3.76505 6.67011 3.74544L6.64583 3.74489C5.43742 3.73967 3.67096 5.25715 2.99434 6.33144C2.26146 7.30243 2.19595 8.55237 2.74035 9.97314L2.82658 10.1875C4.2563 14.0249 9.98651 19.7153 13.8273 21.1779C15.2929 21.811 16.6256 21.7675 17.7076 20.972C18.6535 20.4078 20.2411 18.5968 20.2494 17.3576C20.2292 16.8488 20.0081 16.4419 19.6534 16.0781C18.9798 15.3867 16.9865 13.9221 16.4335 13.8286C15.8652 13.7333 15.4718 13.8559 14.8442 14.2182L14.611 14.3565C14.1641 14.6252 14.0064 14.6746 13.8031 14.6085C11.6598 13.8093 10.1864 12.3361 9.37759 10.1681C9.32581 10.007 9.36075 9.86295 9.56469 9.50904L9.67215 9.328ZM15.3802 15.6444C15.1623 15.7753 14.8732 15.943 14.5625 16.04C14.1383 16.1723 13.7298 16.162 13.3392 16.035L13.3089 16.0251L13.279 16.014C10.7254 15.0618 8.93202 13.2653 7.9722 10.6924L7.96012 10.66L7.94954 10.6271C7.83355 10.2662 7.82435 9.89144 7.92948 9.51118C8.01119 9.21562 8.15431 8.95226 8.26502 8.76013L8.26987 8.75172L8.3874 8.55372C8.59793 8.20438 8.66322 8.05297 8.68731 7.97238C8.69587 7.94374 8.69716 7.92986 8.69766 7.92012C8.6979 7.91531 8.69813 7.90714 8.69758 7.89469C8.67287 7.84422 8.63438 7.77212 8.57913 7.67774C8.44785 7.45349 8.2615 7.17048 8.04519 6.86673C7.5986 6.23962 7.1208 5.65862 6.87087 5.41501C6.77546 5.32198 6.70881 5.2803 6.67267 5.26247C6.65296 5.25274 6.63901 5.24821 6.62684 5.24605C6.61273 5.24773 6.58687 5.25185 6.54819 5.26194C6.48229 5.27912 6.39415 5.30972 6.28458 5.35984C6.06215 5.46158 5.80128 5.62081 5.52638 5.82904C4.96019 6.25792 4.48573 6.77811 4.26357 7.13084L4.22979 7.18449L4.19159 7.23509C3.86778 7.6641 3.71719 8.32335 4.13689 9.42555L4.22544 9.64571L4.23219 9.66382C4.83585 11.284 6.44869 13.4839 8.48185 15.511C10.513 17.536 12.7286 19.1544 14.3611 19.7761L14.3918 19.7878L14.422 19.8009C15.5444 20.2857 16.2808 20.1592 16.8191 19.7634L16.8772 19.7207L16.9392 19.6837C17.1963 19.5304 17.6939 19.0909 18.1365 18.5094C18.3476 18.2321 18.514 17.9637 18.6226 17.7311C18.6762 17.6165 18.7098 17.523 18.7292 17.4517C18.7385 17.4176 18.7435 17.3922 18.7462 17.3751C18.7422 17.3531 18.7357 17.3355 18.7269 17.3175C18.7102 17.2829 18.6713 17.2195 18.5793 17.125C18.3363 16.8757 17.7552 16.3977 17.1279 15.9508C16.8241 15.7344 16.541 15.5479 16.3168 15.4165C16.2225 15.3612 16.1504 15.3227 16.1 15.2979C16.09 15.2975 16.0829 15.2975 16.0781 15.2977C16.0666 15.298 16.0554 15.2992 16.0363 15.3041C15.985 15.3174 15.8698 15.3586 15.6015 15.513L15.3802 15.6444Z" fill="#292929"/>
</svg>
