<svg width="24" height="24" viewBox="0 0 24 24" fill="none" xmlns="http://www.w3.org/2000/svg">
<path d="M9.00928 9.92947L6.14522 14.4734C5.87036 14.9094 6.40638 15.4008 6.81699 15.0892L9.89347 12.7544C10.1016 12.5964 10.3892 12.5956 10.5981 12.7524L12.8761 14.4608C13.5597 14.9735 14.5352 14.7935 14.9909 14.0707L17.8549 9.52676C18.1297 9.09068 17.5937 8.59928 17.1831 8.91089L14.1066 11.2457C13.8985 11.4037 13.6109 11.4045 13.4019 11.2477L11.124 9.53928C10.4404 9.02662 9.46486 9.20661 9.00928 9.92947Z" fill="#292929"/>
<path fill-rule="evenodd" clip-rule="evenodd" d="M8.65692 20.8284C8.82097 20.7561 9.0048 20.7426 9.17767 20.7902C10.067 21.0347 11.0135 21.165 12 21.165C17.4925 21.165 21.75 17.1418 21.75 11.7075C21.75 6.27324 17.4925 2.25 12 2.25C6.50753 2.25 2.25 6.27324 2.25 11.7075C2.25 14.55 3.41493 17.0062 5.31205 18.7027C5.4713 18.8453 5.56744 19.045 5.57397 19.2587L5.62707 20.993C5.64403 21.5462 6.21546 21.9062 6.72168 21.6827L8.65692 20.8284ZM7.07327 19.2128C7.05371 18.5737 6.76646 17.9914 6.31244 17.5851C4.73358 16.1731 3.75 14.1232 3.75 11.7075C3.75 7.15534 7.28125 3.75 12 3.75C16.7188 3.75 20.25 7.15534 20.25 11.7075C20.25 16.2597 16.7188 19.665 12 19.665C11.1459 19.665 10.3332 19.5523 9.57536 19.3439C9.06997 19.2049 8.53137 19.2444 8.05115 19.4562L7.09366 19.8789L7.07327 19.2128Z" fill="#292929"/>
</svg>
