<svg width="24" height="24" viewBox="0 0 24 24" fill="none" xmlns="http://www.w3.org/2000/svg">
<path d="M2.25 6.75C1.83579 6.75 1.5 7.08579 1.5 7.5V13.5C1.5 13.9142 1.83579 14.25 2.25 14.25C2.66421 14.25 3 13.9142 3 13.5V9.31066L10.9393 17.25C11.5251 17.8358 12.4749 17.8358 13.0607 17.25L22.2803 8.03033C22.5732 7.73744 22.5732 7.26256 22.2803 6.96967C21.9874 6.67678 21.5126 6.67678 21.2197 6.96967L12 16.1893L4.06066 8.25H8.25C8.66421 8.25 9 7.91421 9 7.5C9 7.08579 8.66421 6.75 8.25 6.75H2.25Z" fill="#292929"/>
</svg>
