<svg width="24" height="24" viewBox="0 0 24 24" fill="none" xmlns="http://www.w3.org/2000/svg">
<path d="M3 15V12.75H2.25C1.83579 12.75 1.5 12.4142 1.5 12C1.5 11.5858 1.83579 11.25 2.25 11.25H3V9H2.25C1.83579 9 1.5 8.66421 1.5 8.25C1.5 7.83579 1.83579 7.5 2.25 7.5H3V6C3 3.51472 5.01472 1.5 7.5 1.5H18C20.4853 1.5 22.5 3.51472 22.5 6V12.75C22.5 13.1642 22.1642 13.5 21.75 13.5C21.3358 13.5 21 13.1642 21 12.75V6C21 4.34315 19.6569 3 18 3H7.5C5.84315 3 4.5 4.34315 4.5 6V18C4.5 19.6569 5.84315 21 7.5 21H12.75C13.1642 21 13.5 21.3358 13.5 21.75C13.5 22.1642 13.1642 22.5 12.75 22.5H7.5C5.01472 22.5 3 20.4853 3 18V16.5H2.25C1.83579 16.5 1.5 16.1642 1.5 15.75C1.5 15.3358 1.83579 15 2.25 15H3Z" fill="#292929"/>
<path d="M16.1371 14.7753C16.4444 14.5119 16.4854 14.045 16.1657 13.7968C15.3404 13.1559 14.1163 12.75 12.75 12.75C10.2647 12.75 8.25 14.0931 8.25 15.75C8.25 17.2368 9.87232 18.4709 12.0012 18.7087C12.4129 18.7546 12.75 18.4142 12.75 18C12.75 17.5858 12.4123 17.2564 12.0024 17.1968C11.3453 17.1012 10.7941 16.8859 10.4001 16.6232C9.85391 16.2591 9.75 15.9209 9.75 15.75C9.75 15.5791 9.85391 15.2409 10.4001 14.8768C10.9357 14.5196 11.7622 14.25 12.75 14.25C13.7378 14.25 14.5643 14.5196 15.0999 14.8768C15.3753 15.0604 15.7614 15.0974 16.0127 14.882L16.1371 14.7753Z" fill="#292929"/>
<path fill-rule="evenodd" clip-rule="evenodd" d="M12.75 11.25C14.4069 11.25 15.75 9.90685 15.75 8.25C15.75 6.59315 14.4069 5.25 12.75 5.25C11.0931 5.25 9.75 6.59315 9.75 8.25C9.75 9.90685 11.0931 11.25 12.75 11.25ZM12.75 9.75C13.5784 9.75 14.25 9.07843 14.25 8.25C14.25 7.42157 13.5784 6.75 12.75 6.75C11.9216 6.75 11.25 7.42157 11.25 8.25C11.25 9.07843 11.9216 9.75 12.75 9.75Z" fill="#292929"/>
<path d="M18.75 15C18.3358 15 18 15.3358 18 15.75V18H15.75C15.3358 18 15 18.3358 15 18.75C15 19.1642 15.3358 19.5 15.75 19.5H18V21.75C18 22.1642 18.3358 22.5 18.75 22.5C19.1642 22.5 19.5 22.1642 19.5 21.75V19.5H21.75C22.1642 19.5 22.5 19.1642 22.5 18.75C22.5 18.3358 22.1642 18 21.75 18H19.5V15.75C19.5 15.3358 19.1642 15 18.75 15Z" fill="#292929"/>
</svg>
