<svg width="24" height="24" viewBox="0 0 24 24" fill="none" xmlns="http://www.w3.org/2000/svg">
<path fill-rule="evenodd" clip-rule="evenodd" d="M18.0654 1.75326L7.90673 12.5673C7.64545 12.8455 7.5 13.2127 7.5 13.5943V16.0003C7.5 16.8287 8.17157 17.5003 9 17.5003H11.3787C11.7765 17.5003 12.158 17.3423 12.4393 17.061L22.9393 6.56095C23.5251 5.97516 23.5251 5.02542 22.9393 4.43963L20.2193 1.71962C19.6206 1.12085 18.6452 1.13608 18.0654 1.75326ZM21.8787 5.50029L19.3447 8.03431L16.7038 5.39348L19.1587 2.78027L21.8787 5.50029ZM11.3787 16.0003L18.284 9.09497L15.6763 6.48729L9 13.5943V16.0003L11.3787 16.0003ZM19.5 18V12.1856L21 10.7153V18C21 19.6569 19.6569 21 18 21H6C4.34315 21 3 19.6569 3 18V6C3 4.34315 4.34315 3 6 3H14.6455L13.208 4.5H6C5.17157 4.5 4.5 5.17157 4.5 6V18C4.5 18.8284 5.17157 19.5 6 19.5H18C18.8284 19.5 19.5 18.8284 19.5 18Z" fill="#292929"/>
</svg>
