<svg width="24" height="24" viewBox="0 0 24 24" fill="none" xmlns="http://www.w3.org/2000/svg">
<path d="M16.5 1.5C16.0858 1.5 15.75 1.83579 15.75 2.25C15.75 2.66421 16.0858 3 16.5 3L19.9393 3L15.2197 7.71967C14.9268 8.01256 14.9268 8.48744 15.2197 8.78033C15.5126 9.07323 15.9874 9.07323 16.2803 8.78033L21 4.06066V7.5C21 7.91421 21.3358 8.25 21.75 8.25C22.1642 8.25 22.5 7.91421 22.5 7.5V2.625C22.5 2.00368 21.9963 1.5 21.375 1.5H16.5Z" fill="#292929"/>
<path d="M5.25 4.5H12.75C13.1642 4.5 13.5 4.83579 13.5 5.25C13.5 5.66421 13.1642 6 12.75 6H5.25C4.73223 6 4.25531 6.17489 3.87508 6.46882L11.1 11.8875C11.6334 12.2875 12.3667 12.2875 12.9 11.8875L13.713 11.2778L13.7208 11.2719L13.8792 11.1531C14.1064 10.9827 14.4105 10.9553 14.6646 11.0823C15.1633 11.3316 15.2252 12.0186 14.7792 12.3531L13.8 13.0875C12.7334 13.8875 11.2667 13.8875 10.2 13.0875L3.05983 7.73238C3.0207 7.89857 3 8.07187 3 8.25V15.75C3 16.9926 4.00736 18 5.25 18H18.75C19.9926 18 21 16.9926 21 15.75V11.25C21 10.8358 21.3358 10.5 21.75 10.5C22.1642 10.5 22.5 10.8358 22.5 11.25V15.75C22.5 17.8211 20.8211 19.5 18.75 19.5H5.25C3.17893 19.5 1.5 17.8211 1.5 15.75V8.25C1.5 6.17893 3.17893 4.5 5.25 4.5Z" fill="#292929"/>
</svg>
