<svg width="24" height="24" viewBox="0 0 24 24" fill="none" xmlns="http://www.w3.org/2000/svg">
<path fill-rule="evenodd" clip-rule="evenodd" d="M4.43249 9.94346C4.63729 9.53414 4.9658 9.19553 5.37222 8.96798L5.37796 8.96476C5.81415 8.73049 6.30868 8.61389 6.80799 8.62583C7.27495 8.61785 7.73668 8.72949 8.14367 8.95043L8.14785 8.9527C8.53949 9.1718 8.85859 9.49496 9.06314 9.88587L9.06398 9.88747C9.27572 10.2969 9.38251 10.7488 9.37449 11.2062C9.38343 11.6808 9.27435 12.1501 9.05708 12.5763L9.05607 12.5783C8.84745 12.9816 8.51944 13.315 8.116 13.5403L8.11104 13.5431C7.69044 13.7697 7.21379 13.8836 6.73202 13.8745C6.25622 13.8838 5.78545 13.7712 5.3702 13.5471L5.3662 13.545C4.97214 13.3261 4.64994 13.0035 4.44121 12.6126L4.44036 12.611C4.22657 12.206 4.11816 11.7575 4.1254 11.3031C4.11768 10.8339 4.22263 10.3698 4.4314 9.94566L4.43249 9.94346ZM7.28288 10.2576C7.41693 10.3591 7.51386 10.4921 7.56581 10.6385L7.5667 10.641C7.64001 10.8431 7.67604 11.0549 7.67364 11.2674L7.67365 11.2769C7.67653 11.4832 7.63898 11.6887 7.56237 11.8834C7.50684 12.0247 7.40729 12.1516 7.27219 12.2462C7.12289 12.342 6.9419 12.3917 6.75631 12.3848L6.74494 12.3844L6.73356 12.3846C6.56227 12.3887 6.39605 12.3414 6.25908 12.2525C6.12053 12.1568 6.01632 12.0291 5.95484 11.886C5.78898 11.4798 5.78957 11.0317 5.95646 10.6259C6.01937 10.4794 6.12644 10.349 6.26878 10.252C6.41148 10.1607 6.5838 10.1124 6.76112 10.1167L6.77314 10.117L6.78515 10.1165C6.96593 10.1093 7.14153 10.1604 7.28288 10.2576Z" fill="#292929"/>
<path fill-rule="evenodd" clip-rule="evenodd" d="M7.5 2.25C6.67157 2.25 6 2.92157 6 3.75V6H3.75C2.50736 6 1.5 7.00736 1.5 8.25V14.25C1.5 15.4926 2.50736 16.5 3.75 16.5H4.5V20.25C4.5 21.0784 5.17157 21.75 6 21.75H21C21.8284 21.75 22.5 21.0784 22.5 20.25V11.25C22.5 10.4216 21.8284 9.75 21 9.75V3.75C21 2.92157 20.3284 2.25 19.5 2.25H7.5ZM19.5 3.75L7.5 3.75V6H9.75C10.9926 6 12 7.00736 12 8.25V14.25C12 14.4644 11.97 14.6719 11.914 14.8684L13.6788 15.7508L19.5 12.5067V3.75ZM21 12.5067C21 13.0508 20.7054 13.5522 20.2302 13.817L15.3029 16.5628L21 19.4114V12.5067ZM19.3232 20.25L11.0277 16.1023C10.6648 16.3531 10.2245 16.5 9.75 16.5H6V20.25H19.3232ZM3 8.25C3 7.83579 3.33579 7.5 3.75 7.5H9.75C10.1642 7.5 10.5 7.83579 10.5 8.25V14.25C10.5 14.6642 10.1642 15 9.75 15H3.75C3.33579 15 3 14.6642 3 14.25V8.25Z" fill="#292929"/>
</svg>
