<svg width="24" height="24" viewBox="0 0 24 24" fill="none" xmlns="http://www.w3.org/2000/svg">
<path fill-rule="evenodd" clip-rule="evenodd" d="M17.0328 4.73642C15.6944 3.42119 13.6263 3.42119 12.2879 4.73642L5.22379 11.6783C3.25874 13.6094 3.25874 16.8653 5.22379 18.7963C7.19615 20.7346 10.5322 20.7346 12.5045 18.7963L20.4743 10.9644C20.7698 10.6741 21.2446 10.6783 21.5349 10.9737C21.8253 11.2691 21.8211 11.744 21.5257 12.0343L13.5559 19.8662C10.9999 22.3779 6.72838 22.3779 4.17243 19.8662C1.60919 17.3473 1.60919 13.1273 4.17243 10.6084L11.2366 3.66654C13.1586 1.77782 16.1622 1.77782 18.0842 3.66654C20.0135 5.56244 20.0135 8.53645 18.0842 10.4323L18.0804 10.436L11.5634 16.7513C11.5627 16.7519 11.5621 16.7526 11.5614 16.7533C10.3848 17.9074 8.45668 17.9525 7.32831 16.7375C6.15886 15.5736 6.11644 13.6656 7.35524 12.5536L12.7762 7.2265C13.0716 6.93617 13.5465 6.94031 13.8368 7.23575C14.1272 7.53119 14.123 8.00605 13.8276 8.29637L8.37955 13.6501L8.36479 13.6632C7.81337 14.1509 7.77031 15.0689 8.39361 15.6814L8.40768 15.6952L8.42102 15.7098C8.92411 16.2591 9.88185 16.3007 10.5121 15.6814L10.5158 15.6777L17.0328 9.36247C17.0334 9.3619 17.034 9.36134 17.0345 9.36077C18.3639 8.05267 18.3633 6.04392 17.0328 4.73642Z" fill="#292929"/>
</svg>
