<svg width="24" height="24" viewBox="0 0 24 24" fill="none" xmlns="http://www.w3.org/2000/svg">
<path fill-rule="evenodd" clip-rule="evenodd" d="M8.25 4.5H7.5V19.5H9V13.5H11.61C12.1717 13.5 13.2006 13.3966 14.1072 12.7518C15.0604 12.0739 15.75 10.8904 15.75 9C15.75 7.10958 15.0604 5.92611 14.1072 5.24819C13.2006 4.60342 12.1717 4.5 11.61 4.5H9H8.25ZM9 6V12H11.61C12.0283 12 12.6944 11.9159 13.2378 11.5294C13.7346 11.1761 14.25 10.4846 14.25 9C14.25 7.51542 13.7346 6.82389 13.2378 6.47056C12.6944 6.08408 12.0283 6 11.61 6H9Z" fill="#292929"/>
</svg>
