<svg width="24" height="24" viewBox="0 0 24 24" fill="none" xmlns="http://www.w3.org/2000/svg">
<path fill-rule="evenodd" clip-rule="evenodd" d="M4.5 19.5V4.5H8.61C9.17173 4.5 10.2006 4.60342 11.1072 5.24819C12.0604 5.92611 12.75 7.10958 12.75 9C12.75 10.8904 12.0604 12.0739 11.1072 12.7518C10.2006 13.3966 9.17173 13.5 8.61 13.5H6V19.5H4.5ZM6 12V6H8.61C9.02827 6 9.69439 6.08408 10.2378 6.47056C10.7346 6.82389 11.25 7.51542 11.25 9C11.25 10.4846 10.7346 11.1761 10.2378 11.5294C9.69439 11.9159 9.02827 12 8.61 12H6Z" fill="#292929"/>
<path d="M15.9697 20.7803C16.2626 21.0732 16.7374 21.0732 17.0303 20.7803C17.3232 20.4874 17.3232 20.0126 17.0303 19.7197L14.5607 17.25H20.375C20.7202 17.25 21 16.9142 21 16.5C21 16.0858 20.7202 15.75 20.375 15.75H14.5607L17.0303 13.2803C17.3232 12.9874 17.3232 12.5126 17.0303 12.2197C16.7374 11.9268 16.2626 11.9268 15.9697 12.2197L12.2197 15.9697C11.9268 16.2626 11.9268 16.7374 12.2197 17.0303L15.9697 20.7803Z" fill="#292929"/>
</svg>
