<svg width="24" height="24" viewBox="0 0 24 24" fill="none" xmlns="http://www.w3.org/2000/svg">
<path fill-rule="evenodd" clip-rule="evenodd" d="M11.1719 8.04105C11.6148 7.30617 11.7703 6.89473 11.667 6.27561C11.5735 5.72068 10.1098 3.72856 9.41761 3.05388C9.05336 2.69871 8.64727 2.4781 8.16989 2.45849L8.14561 2.45794C6.9372 2.45272 5.17074 3.9702 4.49412 5.04449C3.76124 6.01548 3.69573 7.26542 4.24013 8.68619L4.32636 8.90057C5.75608 12.7379 11.4863 18.4283 15.3271 19.891C16.7927 20.524 18.1253 20.4806 19.2074 19.685C20.1532 19.1208 21.7409 17.3099 21.7491 16.0707C21.729 15.5618 21.5079 15.155 21.1532 14.7911C20.4796 14.0998 18.4863 12.6352 17.9333 12.5417C17.3649 12.4463 16.9716 12.569 16.344 12.9312L16.1108 13.0696C15.6639 13.3383 15.5062 13.3877 15.3028 13.3215C13.1596 12.5224 11.6861 11.0491 10.8774 8.88118C10.8256 8.72006 10.8605 8.576 11.0645 8.22209L11.1719 8.04105ZM16.8799 14.3574C16.6621 14.4883 16.373 14.6561 16.0623 14.753C15.6381 14.8854 15.2295 14.875 14.839 14.748L14.8087 14.7381L14.7788 14.727C12.2252 13.7748 10.4318 11.9783 9.47198 9.40546L9.4599 9.37307L9.44932 9.34016C9.33333 8.97928 9.32413 8.60449 9.42926 8.22423C9.51097 7.92867 9.65409 7.66531 9.7648 7.47318L9.76965 7.46477L9.88718 7.26677C10.0977 6.91743 10.163 6.76602 10.1871 6.68543C10.1956 6.65679 10.1969 6.64291 10.1974 6.63317C10.1977 6.62836 10.1979 6.62019 10.1974 6.60774C10.1727 6.55727 10.1342 6.48517 10.0789 6.39079C9.94763 6.16654 9.76128 5.88353 9.54497 5.57978C9.09838 4.95267 8.62058 4.37167 8.37065 4.12806C8.27524 4.03503 8.20859 3.99335 8.17245 3.97552C8.15275 3.96579 8.13879 3.96126 8.12662 3.9591C8.11251 3.96078 8.08665 3.9649 8.04797 3.97499C7.98207 3.99217 7.89393 4.02277 7.78436 4.07289C7.56193 4.17463 7.30106 4.33386 7.02616 4.54209C6.45997 4.97097 5.98551 5.49116 5.76335 5.84389L5.72957 5.89754L5.69138 5.94814C5.36757 6.37716 5.21697 7.0364 5.63667 8.1386L5.72522 8.35876L5.73197 8.37687C6.33563 9.99708 7.94847 12.197 9.98164 14.224C12.0128 16.2491 14.2283 17.8675 15.8609 18.4892L15.8916 18.5009L15.9218 18.5139C17.0442 18.9987 17.7805 18.8723 18.3189 18.4765L18.377 18.4337L18.439 18.3968C18.6961 18.2434 19.1937 17.8039 19.6363 17.2225C19.8474 16.9452 20.0138 16.6767 20.1224 16.4442C20.1759 16.3295 20.2096 16.236 20.229 16.1647C20.2383 16.1306 20.2433 16.1053 20.246 16.0882C20.242 16.0661 20.2355 16.0486 20.2267 16.0305C20.2099 15.9959 20.1711 15.9325 20.079 15.8381C19.8361 15.5887 19.255 15.1108 18.6277 14.6639C18.3239 14.4475 18.0408 14.2609 17.8166 14.1295C17.7223 14.0743 17.6502 14.0357 17.5998 14.011C17.5898 14.0105 17.5826 14.0106 17.5778 14.0107C17.5663 14.0111 17.5552 14.0122 17.5361 14.0172C17.4848 14.0304 17.3696 14.0716 17.1013 14.226L16.8799 14.3574Z" fill="#292929"/>
</svg>
