<svg width="24" height="24" viewBox="0 0 24 24" fill="none" xmlns="http://www.w3.org/2000/svg">
<path d="M15.5305 9.53033C15.2376 9.82322 14.7627 9.82322 14.4698 9.53033L11.4698 6.53033C11.1769 6.23744 11.1769 5.76256 11.4698 5.46967L14.4698 2.46967C14.7627 2.17678 15.2376 2.17678 15.5305 2.46967C15.8233 2.76256 15.8233 3.23744 15.5305 3.53033L13.8108 5.25H13.8744C13.8741 5.25 13.8746 5.25 13.8744 5.25L18.7501 5.25C20.8212 5.25 22.5001 6.92893 22.5001 9C22.5001 11.0711 20.8212 12.75 18.7501 12.75H18.0001C17.5859 12.75 17.2501 12.4142 17.2501 12C17.2501 11.5858 17.5859 11.25 18.0001 11.25H18.7501C19.9928 11.25 21.0001 10.2426 21.0001 9C21.0001 7.75736 19.9928 6.75 18.7501 6.75L13.8108 6.75L15.5305 8.46967C15.8233 8.76256 15.8233 9.23744 15.5305 9.53033Z" fill="#292929"/>
<path fill-rule="evenodd" clip-rule="evenodd" d="M10.1672 7.56256C10.2705 8.18168 10.115 8.59312 9.67215 9.328L9.56469 9.50904C9.36075 9.86295 9.32581 10.007 9.37759 10.1681C10.1864 12.3361 11.6598 13.8093 13.8031 14.6085C14.0064 14.6746 14.1641 14.6252 14.611 14.3565L14.8442 14.2182C15.4718 13.8559 15.8652 13.7333 16.4335 13.8286C16.9865 13.9221 18.9798 15.3867 19.6534 16.0781C20.0081 16.4419 20.2292 16.8488 20.2494 17.3576C20.2411 18.5968 18.6535 20.4078 17.7076 20.972C16.6256 21.7675 15.2929 21.811 13.8273 21.1779C9.98651 19.7153 4.2563 14.0249 2.82658 10.1875L2.74035 9.97314C2.19595 8.55237 2.26146 7.30243 2.99434 6.33144C3.67096 5.25715 5.43742 3.73967 6.64583 3.74489L6.67011 3.74544C7.14749 3.76505 7.55358 3.98566 7.91783 4.34083C8.61005 5.01551 10.0737 7.00763 10.1672 7.56256ZM14.5625 16.04C14.8732 15.943 15.1623 15.7753 15.3802 15.6444L15.6015 15.513C15.8698 15.3586 15.985 15.3174 16.0363 15.3041C16.0554 15.2992 16.0666 15.298 16.0781 15.2977C16.0829 15.2975 16.09 15.2975 16.1 15.2979C16.1504 15.3227 16.2225 15.3612 16.3168 15.4165C16.541 15.5479 16.8241 15.7344 17.1279 15.9508C17.7552 16.3977 18.3363 16.8757 18.5793 17.125C18.6713 17.2195 18.7102 17.2829 18.7269 17.3175C18.7357 17.3355 18.7422 17.3531 18.7462 17.3751C18.7435 17.3922 18.7385 17.4176 18.7292 17.4517C18.7098 17.523 18.6762 17.6165 18.6226 17.7311C18.514 17.9637 18.3476 18.2321 18.1365 18.5094C17.6939 19.0909 17.1963 19.5304 16.9392 19.6837L16.8772 19.7207L16.8191 19.7634C16.2808 20.1592 15.5444 20.2857 14.422 19.8009L14.3918 19.7878L14.3611 19.7761C12.7286 19.1544 10.513 17.536 8.48185 15.511C6.44869 13.4839 4.83585 11.284 4.23219 9.66382L4.22544 9.64571L4.13689 9.42555C3.71719 8.32335 3.86778 7.6641 4.19159 7.23509L4.22979 7.18449L4.26357 7.13084C4.48573 6.77811 4.96019 6.25792 5.52638 5.82904C5.80128 5.62081 6.06215 5.46158 6.28458 5.35984C6.39415 5.30972 6.48229 5.27912 6.54819 5.26194C6.58687 5.25185 6.61273 5.24773 6.62684 5.24605C6.63901 5.24821 6.65296 5.25274 6.67267 5.26247C6.70881 5.2803 6.77546 5.32198 6.87087 5.41501C7.1208 5.65862 7.5986 6.23962 8.04519 6.86673C8.2615 7.17048 8.44785 7.45349 8.57913 7.67774C8.63438 7.77212 8.67287 7.84422 8.69758 7.89469C8.69813 7.90714 8.6979 7.91531 8.69766 7.92012C8.69716 7.92986 8.69587 7.94374 8.68731 7.97238C8.66322 8.05297 8.59793 8.20438 8.3874 8.55372L8.26987 8.75172L8.26502 8.76013C8.15431 8.95226 8.01119 9.21562 7.92948 9.51118C7.82435 9.89144 7.83355 10.2662 7.94954 10.6271L7.96012 10.66L7.9722 10.6924C8.93202 13.2653 10.7254 15.0618 13.279 16.014L13.3089 16.0251L13.3392 16.035C13.7298 16.162 14.1383 16.1723 14.5625 16.04Z" fill="#292929"/>
</svg>
