<svg width="24" height="24" viewBox="0 0 24 24" fill="none" xmlns="http://www.w3.org/2000/svg">
<path d="M3 3.75C2.58579 3.75 2.25 4.08579 2.25 4.5C2.25 4.91421 2.58579 5.25 3 5.25H16.5C16.9142 5.25 17.25 4.91421 17.25 4.5C17.25 4.08579 16.9142 3.75 16.5 3.75H3Z" fill="#292929"/>
<path fill-rule="evenodd" clip-rule="evenodd" d="M14.9438 12.6574C13.9452 12.1363 12.75 12.8609 12.75 13.9873V20.4602C12.75 21.6108 13.992 22.3329 14.992 21.7638L20.9255 18.3866C21.9575 17.7992 21.9302 16.3024 20.8773 15.7531L14.9438 12.6574ZM14.25 13.9873L20.1835 17.083L14.25 20.4602V13.9873Z" fill="#292929"/>
<path d="M2.25 9C2.25 8.58579 2.58579 8.25 3 8.25H16.5C16.9142 8.25 17.25 8.58579 17.25 9C17.25 9.41421 16.9142 9.75 16.5 9.75H3C2.58579 9.75 2.25 9.41421 2.25 9Z" fill="#292929"/>
<path d="M3 12.75C2.58579 12.75 2.25 13.0858 2.25 13.5C2.25 13.9142 2.58579 14.25 3 14.25H8.25C8.66421 14.25 9 13.9142 9 13.5C9 13.0858 8.66421 12.75 8.25 12.75H3Z" fill="#292929"/>
</svg>
