<svg width="24" height="24" viewBox="0 0 24 24" fill="none" xmlns="http://www.w3.org/2000/svg">
<path fill-rule="evenodd" clip-rule="evenodd" d="M18.1262 4.37377C19.0803 3.41968 20.6277 3.41968 21.5818 4.37377L21.6682 4.46459C22.5348 5.42363 22.5053 6.90431 21.5811 7.8286L17.7776 11.6313C17.8435 11.8063 17.8985 11.99 17.9351 12.1843C18.1665 13.4154 17.7111 14.8251 16.342 16.5854C14.1872 19.356 12.9159 20.776 12.0977 21.6142C11.2534 22.479 9.86065 22.7561 8.79151 21.938C7.68124 21.0882 6.28476 19.7472 5.01074 18.2612C3.74113 16.7803 2.54864 15.1034 1.8877 13.5767C1.45408 12.5745 2.25499 11.5988 3.24927 11.6475C5.1628 11.7412 7.33596 11.9443 9.63159 9.93578C10.9633 8.77071 12.2672 8.2971 13.4592 8.33837C13.677 8.34592 13.8873 8.37083 14.0898 8.41015L18.1262 4.37377ZM9.87989 11.6496C7.42351 13.4056 5.0546 13.2429 3.34156 13.154C3.70423 13.9438 4.23731 14.8028 4.86573 15.6655C5.51104 15.5243 6.30032 15.2741 7.08423 14.7515C7.42886 14.5218 7.89454 14.6149 8.12427 14.9595C8.35372 15.304 8.26068 15.7698 7.91626 15.9995C7.20534 16.4735 6.49538 16.7628 5.87061 16.9517C5.96308 17.0629 6.05532 17.1749 6.14966 17.2849C6.61519 17.8279 7.09544 18.3468 7.5669 18.8245C8.21971 18.554 9.08148 18.1226 9.85572 17.3215C10.1436 17.0237 10.6184 17.0154 10.9163 17.3032C11.214 17.591 11.2223 18.0659 10.9346 18.3638C10.1975 19.1264 9.40317 19.6132 8.73804 19.9399C9.08047 20.2457 9.40498 20.5187 9.70337 20.7471C10.0636 21.0226 10.6108 20.9892 11.0239 20.5662C11.7389 19.8338 12.8589 18.5896 14.7358 16.2024L9.87989 11.6496ZM13.4072 9.83764C12.7788 9.8159 11.9868 10.0194 11.0642 10.7041L15.6411 14.9954C16.4544 13.7728 16.5595 12.9879 16.4607 12.4619C16.3777 12.0203 16.1385 11.6516 15.7957 11.2607L14.9695 10.4346C14.5464 10.0959 14.0163 9.85879 13.4072 9.83764ZM20.5212 5.43432C20.1529 5.06601 19.5551 5.06601 19.1868 5.43432L15.6389 8.9829L15.9685 9.31249C16.0783 9.40355 16.183 9.4977 16.2805 9.5952C16.4697 9.78437 16.6835 9.99873 16.8965 10.2397L16.9727 10.3159L20.5205 6.76806C20.8887 6.39983 20.8893 5.80264 20.5212 5.43432Z" fill="#26252A"/>
</svg>
