<svg width="24" height="24" viewBox="0 0 24 24" fill="none" xmlns="http://www.w3.org/2000/svg">
<path fill-rule="evenodd" clip-rule="evenodd" d="M3 2.25C3 1.83579 3.33579 1.5 3.75 1.5H20.25C20.6642 1.5 21 1.83579 21 2.25C21 2.66421 20.6642 3 20.25 3H18.7501V3.8402C18.7501 5.90894 17.6843 7.83176 15.9301 8.92819L15.4095 9.25355C14.2282 9.99184 13.9948 11.6152 14.9203 12.6564L17.2345 15.2599C18.2108 16.3582 18.7501 17.7766 18.7501 19.246V21H20.25C20.6642 21 21 21.3358 21 21.75C21 22.1642 20.6642 22.5 20.25 22.5H3.75C3.33579 22.5 3 22.1642 3 21.75C3 21.3358 3.33579 21 3.75 21H5.24994V19.246C5.24994 17.7766 5.78921 16.3582 6.76549 15.2599L9.0797 12.6564C10.0052 11.6152 9.77179 9.99184 8.59053 9.25355L8.06995 8.92819C6.31566 7.83176 5.24994 5.90894 5.24994 3.8402V3H3.75C3.33579 3 3 2.66421 3 2.25ZM17.2501 21H6.74994V19.4156L11.7777 17.7397C11.9271 17.6899 12.0883 17.6884 12.2386 17.7353L17.2501 19.3014V21ZM16.9525 17.6369L12.686 16.3036C12.2352 16.1627 11.7515 16.1673 11.3034 16.3166L7.00625 17.749C7.19867 17.2036 7.496 16.6958 7.8866 16.2564L10.2008 13.6529C11.7433 11.9177 11.3543 9.21204 9.38553 7.98156L8.86495 7.65619C7.54923 6.83387 6.74994 5.39176 6.74994 3.8402V3H17.2501V3.8402C17.2501 5.39176 16.4508 6.83387 15.1351 7.65619L14.6145 7.98156C12.6457 9.21204 12.2567 11.9177 13.7992 13.6529L16.1134 16.2564C16.4771 16.6656 16.7599 17.134 16.9525 17.6369Z" fill="#292929"/>
</svg>
