<svg width="24" height="24" viewBox="0 0 24 24" fill="none" xmlns="http://www.w3.org/2000/svg">
<path d="M12.2999 16.4999C11.1228 16.4999 10.2467 16.0839 9.6714 15.252C9.10499 14.4201 8.82178 13.2386 8.82178 11.7075C8.82178 10.1764 9.10499 8.99485 9.6714 8.16293C10.2467 7.331 11.1228 6.91504 12.2999 6.91504C12.7513 6.91504 13.1407 6.97699 13.4682 7.10089C13.8045 7.21595 14.0921 7.37968 14.3311 7.59208C14.57 7.79564 14.7692 8.03902 14.9285 8.32223C15.0966 8.59659 15.2338 8.89307 15.34 9.21168L13.9992 9.66305C13.9284 9.45064 13.8487 9.25151 13.7602 9.06565C13.6717 8.8798 13.5611 8.72049 13.4283 8.58774C13.2956 8.45499 13.1363 8.34878 12.9504 8.26913C12.7734 8.18948 12.5522 8.14965 12.2867 8.14965C11.6317 8.14965 11.1538 8.40188 10.8529 8.90635C10.552 9.40196 10.4016 10.0746 10.4016 10.9242V12.4907C10.4016 13.3403 10.552 14.0174 10.8529 14.5218C11.1538 15.0175 11.6317 15.2653 12.2867 15.2653C12.5522 15.2653 12.7734 15.2254 12.9504 15.1458C13.1363 15.0661 13.2956 14.9599 13.4283 14.8272C13.5611 14.6944 13.6717 14.5351 13.7602 14.3493C13.8487 14.1634 13.9284 13.9643 13.9992 13.7519L15.34 14.2032C15.2338 14.5218 15.0966 14.8228 14.9285 15.106C14.7692 15.3803 14.57 15.6237 14.3311 15.8361C14.0921 16.0397 13.8045 16.2034 13.4682 16.3273C13.1407 16.4424 12.7513 16.4999 12.2999 16.4999Z" fill="#26252A"/>
<path d="M19.2383 16.4999C18.4329 16.4999 17.7558 16.3583 17.2071 16.0751C16.6584 15.7919 16.207 15.4157 15.853 14.9467L16.8089 14.0307C17.1629 14.4555 17.539 14.7697 17.9373 14.9732C18.3355 15.1679 18.7869 15.2653 19.2914 15.2653C19.8755 15.2653 20.3224 15.1325 20.6322 14.867C20.9508 14.6015 21.1101 14.2209 21.1101 13.7253C21.1101 13.3271 20.995 13.0217 20.7649 12.8093C20.5348 12.5881 20.141 12.4288 19.5834 12.3314L18.5745 12.1721C18.132 12.1013 17.7603 11.9862 17.4594 11.8269C17.1584 11.6588 16.9151 11.4641 16.7292 11.2428C16.5433 11.0127 16.4062 10.7605 16.3177 10.4861C16.238 10.2029 16.1982 9.90643 16.1982 9.59667C16.1982 8.72049 16.4814 8.05672 17.0478 7.60536C17.6142 7.14515 18.3931 6.91504 19.3843 6.91504C20.1189 6.91504 20.7428 7.03452 21.2561 7.27347C21.7783 7.50358 22.1987 7.83104 22.5173 8.25585L21.588 9.18513C21.3313 8.87537 21.026 8.62757 20.672 8.44171C20.3268 8.247 19.8976 8.14965 19.3843 8.14965C18.8356 8.14965 18.4152 8.26913 18.1231 8.50809C17.8399 8.73819 17.6983 9.07893 17.6983 9.53029C17.6983 9.91085 17.8089 10.2118 18.0302 10.433C18.2603 10.6454 18.663 10.8003 19.2383 10.8977L20.2206 11.0702C21.0526 11.2207 21.6588 11.526 22.0394 11.9862C22.4199 12.4376 22.6102 12.9907 22.6102 13.6457C22.6102 14.0705 22.535 14.4599 22.3845 14.8139C22.2429 15.1679 22.0261 15.4688 21.734 15.7166C21.4508 15.9644 21.0968 16.1591 20.672 16.3007C20.256 16.4335 19.7781 16.4999 19.2383 16.4999Z" fill="#26252A"/>
<path fill-rule="evenodd" clip-rule="evenodd" d="M1.88428 16.3406H3.35785V12.5969H4.59246L6.55722 16.3406H8.20337L6.06603 12.4642C6.7121 12.3579 7.20771 12.0747 7.55287 11.6145C7.89803 11.1543 8.07061 10.5702 8.07061 9.86217C8.07061 8.99485 7.83608 8.31338 7.36702 7.81776C6.9068 7.32215 6.23418 7.07434 5.34916 7.07434H1.88428V16.3406ZM6.51739 10.141C6.51739 10.9817 6.05718 11.4021 5.13675 11.4021H3.35785V8.30895H5.13675C6.05718 8.30895 6.51739 8.72934 6.51739 9.57012V10.141Z" fill="#26252A"/>
</svg>
