<svg width="24" height="24" viewBox="0 0 24 24" fill="none" xmlns="http://www.w3.org/2000/svg">
<path fill-rule="evenodd" clip-rule="evenodd" d="M11.2285 9.71341C10.2287 9.15797 9 9.88092 9 11.0246V15.9754C9 17.1191 10.2287 17.8421 11.2285 17.2866L15.6841 14.8112C16.7128 14.2397 16.7128 12.7603 15.6841 12.1888L11.2285 9.71341ZM10.5 11.0246L14.9557 13.5L10.5 15.9754L10.5 11.0246Z" fill="#292929"/>
<path fill-rule="evenodd" clip-rule="evenodd" d="M3 3C2.17157 3 1.5 3.67157 1.5 4.5V18.75C1.5 19.9926 2.50736 21 3.75 21H20.25C21.4926 21 22.5 19.9926 22.5 18.75V8.25C22.5 7.00736 21.4926 6 20.25 6H11.125L9.80911 3.74419C9.5403 3.28337 9.04695 3 8.51344 3H3ZM8.51344 4.5H3V6H9.38844L8.51344 4.5ZM3 18.75V7.5H20.25C20.6642 7.5 21 7.83579 21 8.25V18.75C21 19.1642 20.6642 19.5 20.25 19.5H3.75C3.33579 19.5 3 19.1642 3 18.75Z" fill="#292929"/>
</svg>
