<svg width="24" height="24" viewBox="0 0 24 24" fill="none" xmlns="http://www.w3.org/2000/svg">
<path fill-rule="evenodd" clip-rule="evenodd" d="M9.28701 3.05711C9.00676 2.94103 8.68417 3.00519 8.46967 3.21969L1.71967 9.96969C1.42678 10.2626 1.42678 10.7375 1.71967 11.0304L8.46967 17.7804C8.68417 17.9949 9.00676 18.059 9.28701 17.9429C9.56727 17.8268 9.75 17.5534 9.75 17.25V12.7841C12.5466 13.0232 17.9655 14.6177 21.0851 20.5969C21.2448 20.9032 21.5931 21.0607 21.9286 20.9784C22.2641 20.8962 22.5 20.5954 22.5 20.25C22.5 14.4305 17.9829 7.89245 9.75 7.51699V3.75002C9.75 3.44668 9.56727 3.1732 9.28701 3.05711ZM8.25 8.25002C8.25 8.66424 8.58579 9.00002 9 9.00002C15.1716 9.00002 19.0949 12.7603 20.4597 16.9359C16.6136 12.2666 11.3655 11.25 9 11.25C8.58579 11.25 8.25 11.5858 8.25 12V15.4394L3.31066 10.5L8.25 5.56068V8.25002Z" fill="#292929"/>
</svg>
