<svg width="24" height="24" viewBox="0 0 24 24" fill="none" xmlns="http://www.w3.org/2000/svg">
<path fill-rule="evenodd" clip-rule="evenodd" d="M13.7869 3.05711C14.0672 3.1732 14.2499 3.44668 14.2499 3.75002V7.52489C15.6304 7.61944 17.4992 8.03138 19.1199 9.53824C21.0638 11.3455 22.4999 14.5846 22.4999 20.25C22.4999 20.5936 22.2664 20.8933 21.9332 20.9773C21.6001 21.0613 21.2524 20.9081 21.0895 20.6056C20.0438 18.6636 18.8579 16.6642 17.5386 15.1564C16.4494 13.9117 15.3525 13.097 14.2499 12.8385V17.25C14.2499 17.5534 14.0672 17.8268 13.7869 17.9429C13.5066 18.059 13.1841 17.9949 12.9696 17.7804L6.21956 11.0304C5.92666 10.7375 5.92666 10.2626 6.21956 9.96969L12.9696 3.21969C13.1841 3.00519 13.5066 2.94103 13.7869 3.05711ZM7.81055 10.5L12.7499 15.4394V12C12.7499 11.5858 13.0857 11.25 13.4999 11.25C15.5195 11.25 17.247 12.5453 18.6674 14.1686C19.4413 15.0531 20.1614 16.0777 20.8259 17.1409C20.4095 13.705 19.3001 11.7539 18.0986 10.6368C16.5683 9.21403 14.7365 9.00002 13.4999 9.00002C13.0857 9.00002 12.7499 8.66424 12.7499 8.25002V5.56068L7.81055 10.5Z" fill="#292929"/>
<path fill-rule="evenodd" clip-rule="evenodd" d="M9.53022 3.21969C9.82311 3.51258 9.82311 3.98746 9.53022 4.28035L3.31055 10.5L9.53022 16.7197C9.82311 17.0126 9.82311 17.4875 9.53022 17.7804C9.23732 18.0732 8.76245 18.0732 8.46956 17.7804L2.24989 11.5607C1.6641 10.9749 1.6641 10.0251 2.24989 9.43936L8.46956 3.21969C8.76245 2.9268 9.23732 2.9268 9.53022 3.21969Z" fill="#292929"/>
</svg>
