<svg width="24" height="24" viewBox="0 0 24 24" fill="none" xmlns="http://www.w3.org/2000/svg">
<path d="M14.9999 2.25C14.9999 1.83579 15.3357 1.5 15.7499 1.5H20.2499C21.0783 1.5 21.7499 2.17157 21.7499 3V8.25C21.7499 8.66421 21.4141 9 20.9999 9C20.5857 9 20.2499 8.66421 20.2499 8.25V3.9711C17.663 6.30856 15.8838 8.06299 14.6932 10.3617C13.3806 12.896 12.7499 16.1696 12.7499 21.7504C12.7499 21.7504 12.7499 21.7504 12.7499 21.7504C12.7499 22.1646 12.4141 22.5005 11.9999 22.5005C11.5857 22.5005 11.2499 22.1647 11.2499 21.7505C11.2499 21.7505 11.2499 21.7505 11.2499 21.7505C11.2499 21.4722 11.2481 21.1997 11.2446 20.9327C11.244 20.8839 11.248 20.8363 11.2563 20.79C11.2726 19.594 11.3202 18.4964 11.4015 17.4823C11.1968 17.3676 11.0488 17.1589 11.0218 16.9079C10.9615 16.3482 10.8896 15.8216 10.8066 15.3246C10.7384 14.916 11.0143 14.5295 11.4228 14.4613C11.5472 14.4405 11.6696 14.4516 11.7816 14.4887C12.1253 12.6087 12.644 11.0567 13.3613 9.67179C14.657 7.17007 16.5749 5.27397 19.0868 3H15.7499C15.3357 3 14.9999 2.66421 14.9999 2.25Z" fill="#292929"/>
<path d="M5.47598 6.03691C5.16597 5.76219 5.13737 5.28818 5.41208 4.97817C5.6868 4.66817 6.16081 4.63956 6.47082 4.91428C6.89805 5.29289 7.30936 5.67023 7.70204 6.05506C7.99787 6.34498 8.00266 6.81983 7.71274 7.11567C7.42282 7.4115 6.94797 7.41629 6.65213 7.12637C6.28283 6.76444 5.89117 6.40484 5.47598 6.03691Z" fill="#292929"/>
<path d="M9.07933 10.1635C8.87205 9.80487 8.99475 9.34612 9.35337 9.13884C9.712 8.93157 10.1707 9.05427 10.378 9.41289C10.6583 9.89787 10.915 10.4129 11.1474 10.9669C11.3075 11.3489 11.1277 11.7884 10.7458 11.9486C10.3638 12.1088 9.92425 11.929 9.76406 11.547C9.55611 11.0511 9.32763 10.5931 9.07933 10.1635Z" fill="#292929"/>
</svg>
