<svg width="24" height="24" viewBox="0 0 24 24" fill="none" xmlns="http://www.w3.org/2000/svg">
<path fill-rule="evenodd" clip-rule="evenodd" d="M6.15308 4.50809C6.90956 4.58479 7.49997 5.22332 7.5 6.00003V18L7.49194 18.1531C7.42035 18.8593 6.85924 19.4204 6.15308 19.492L6 19.5H4.5L4.34692 19.492C3.64076 19.4204 3.07965 18.8593 3.00806 18.1531L3 18V6.00003C3.00003 5.22332 3.59044 4.58479 4.34692 4.50809L4.5 4.50003H6L6.15308 4.50809ZM4.5 18H6V6.00003H4.5V18Z" fill="#26252A"/>
<path fill-rule="evenodd" clip-rule="evenodd" d="M9 5.96341C9.00016 4.79671 10.3029 4.10073 11.2756 4.74759L20.3481 10.7842C21.2173 11.3626 21.2173 12.6375 20.3481 13.2159L11.2756 19.2517L11.1833 19.3089C10.2536 19.8374 9.07886 19.2103 9.00366 18.1451L9 18.0367V5.96341ZM10.5 18L19.5 12L10.5 6.00003V18Z" fill="#26252A"/>
</svg>
