<svg width="24" height="24" viewBox="0 0 24 24" fill="none" xmlns="http://www.w3.org/2000/svg">
<path d="M21 12C21 7.02944 16.9706 3 12 3C9.33489 3 6.94054 4.15768 5.29166 6H7.5C7.91421 6 8.25 6.33579 8.25 6.75C8.25 7.16421 7.91421 7.5 7.5 7.5H4.5C3.67157 7.5 3 6.82843 3 6V3C3 2.58579 3.33579 2.25 3.75 2.25C4.16421 2.25 4.5 2.58579 4.5 3V4.65157C6.40504 2.70761 9.06166 1.5 12 1.5C17.799 1.5 22.5 6.20101 22.5 12C22.5 17.799 17.799 22.5 12 22.5C6.20101 22.5 1.5 17.799 1.5 12C1.5 11.5858 1.83579 11.25 2.25 11.25C2.66421 11.25 3 11.5858 3 12C3 16.9706 7.02944 21 12 21C16.9706 21 21 16.9706 21 12Z" fill="#292929"/>
<path d="M12 7.5C12 7.08579 11.6642 6.75 11.25 6.75C10.8358 6.75 10.5 7.08579 10.5 7.5V11.3787C10.5 11.9754 10.7371 12.5477 11.159 12.9697L14.4697 16.2803C14.7626 16.5732 15.2374 16.5732 15.5303 16.2803C15.8232 15.9874 15.8232 15.5126 15.5303 15.2197L12.2197 11.909C12.079 11.7684 12 11.5776 12 11.3787V7.5Z" fill="#292929"/>
</svg>
