<svg width="24" height="24" viewBox="0 0 24 24" fill="none" xmlns="http://www.w3.org/2000/svg">
<path d="M12 3C16.9706 3 21 7.02944 21 12C21 16.9706 16.9706 21 12 21C7.02944 21 3 16.9706 3 12C3 11.5858 2.66421 11.25 2.25 11.25C1.83579 11.25 1.5 11.5858 1.5 12C1.5 17.799 6.20101 22.5 12 22.5C17.799 22.5 22.5 17.799 22.5 12C22.5 6.20101 17.799 1.5 12 1.5C9.06166 1.5 6.40504 2.70761 4.5 4.65157V3C4.5 2.58579 4.16421 2.25 3.75 2.25C3.33579 2.25 3 2.58579 3 3V6C3 6.82843 3.67157 7.5 4.5 7.5H7.5C7.91421 7.5 8.25 7.16421 8.25 6.75C8.25 6.33579 7.91421 6 7.5 6H5.29166C6.94054 4.15768 9.33489 3 12 3Z" fill="#292929"/>
<path d="M9 8.25L8.99515 8.25002C8.97829 8.25012 8.96157 8.25078 8.94499 8.25199C8.83751 8.25978 8.73632 8.29022 8.64615 8.33856L7.16457 9.07934C6.79409 9.26459 6.64392 9.71509 6.82916 10.0856C7.0144 10.4561 7.46491 10.6062 7.83539 10.421L8.25 10.2137V15C8.25 15.4142 8.58579 15.75 9 15.75C9.41421 15.75 9.75 15.4142 9.75 15V9.01434C9.75104 8.96184 9.74655 8.90889 9.73626 8.85635C9.7132 8.73747 9.66206 8.62861 9.59003 8.53695C9.55198 8.48838 9.5086 8.44542 9.46118 8.40851C9.33397 8.30918 9.1739 8.25 9 8.25Z" fill="#292929"/>
<path fill-rule="evenodd" clip-rule="evenodd" d="M11.25 10.875C11.25 9.42525 12.4253 8.25 13.875 8.25C15.3247 8.25 16.5 9.42525 16.5 10.875V13.125C16.5 14.5747 15.3247 15.75 13.875 15.75C12.4253 15.75 11.25 14.5747 11.25 13.125V10.875ZM13.875 9.75C14.4963 9.75 15 10.2537 15 10.875V13.125C15 13.7463 14.4963 14.25 13.875 14.25C13.2537 14.25 12.75 13.7463 12.75 13.125V10.875C12.75 10.2537 13.2537 9.75 13.875 9.75Z" fill="#292929"/>
</svg>
