<svg width="24" height="24" viewBox="0 0 24 24" fill="none" xmlns="http://www.w3.org/2000/svg">
<path d="M8.46967 7.72016C8.76256 7.42727 9.23744 7.42727 9.53033 7.72016L12 10.1898L14.4697 7.72016C14.7626 7.42726 15.2374 7.42726 15.5303 7.72016C15.8232 8.01305 15.8232 8.48792 15.5303 8.78082L13.0607 11.2505L15.5303 13.7202C15.8232 14.0131 15.8232 14.4879 15.5303 14.7808C15.2374 15.0737 14.7626 15.0737 14.4697 14.7808L12 12.3111L9.53033 14.7808C9.23744 15.0737 8.76256 15.0737 8.46967 14.7808C8.17678 14.4879 8.17678 14.0131 8.46967 13.7202L10.9393 11.2505L8.46967 8.78082C8.17678 8.48793 8.17678 8.01305 8.46967 7.72016Z" fill="#292929"/>
<path fill-rule="evenodd" clip-rule="evenodd" d="M11.408 1.63397C11.7956 1.52826 12.2044 1.52826 12.592 1.63397L19.342 3.47488C20.3209 3.74185 21 4.63096 21 5.6456V15.6765C21 16.4458 20.607 17.1617 19.958 17.5747L13.208 21.8702C12.4709 22.3392 11.5291 22.3392 10.792 21.8702L4.04203 17.5747C3.39302 17.1617 3 16.4458 3 15.6765V5.6456C3 4.63096 3.6791 3.74185 4.65799 3.47488L11.408 1.63397ZM12.1973 3.08111C12.0681 3.04588 11.9319 3.04588 11.8027 3.08111L5.05266 4.92202C4.72637 5.01101 4.5 5.30738 4.5 5.6456V15.6765C4.5 15.9329 4.63101 16.1716 4.84734 16.3092L11.5973 20.6047C11.843 20.761 12.157 20.761 12.4027 20.6047L19.1527 16.3092C19.369 16.1716 19.5 15.9329 19.5 15.6765V5.6456C19.5 5.30738 19.2736 5.01101 18.9473 4.92202L12.1973 3.08111Z" fill="#292929"/>
</svg>
