<svg width="24" height="24" viewBox="0 0 24 24" fill="none" xmlns="http://www.w3.org/2000/svg">
<path d="M16.2803 9.53082C16.5732 9.23793 16.5732 8.76305 16.2803 8.47016C15.9874 8.17726 15.5126 8.17726 15.2197 8.47016L10.5 13.1898L8.78033 11.4702C8.48744 11.1773 8.01256 11.1773 7.71967 11.4702C7.42678 11.7631 7.42678 12.2379 7.71967 12.5308L9.43934 14.2505C10.0251 14.8363 10.9749 14.8363 11.5607 14.2505L16.2803 9.53082Z" fill="#292929"/>
<path fill-rule="evenodd" clip-rule="evenodd" d="M12.592 1.63397C12.2044 1.52826 11.7956 1.52826 11.408 1.63397L4.65799 3.47488C3.6791 3.74185 3 4.63096 3 5.6456V15.6765C3 16.4458 3.39302 17.1617 4.04203 17.5747L10.792 21.8702C11.5291 22.3392 12.4709 22.3392 13.208 21.8702L19.958 17.5747C20.607 17.1617 21 16.4458 21 15.6765V5.6456C21 4.63096 20.3209 3.74185 19.342 3.47488L12.592 1.63397ZM11.8027 3.08111C11.9319 3.04588 12.0681 3.04588 12.1973 3.08111L18.9473 4.92202C19.2736 5.01101 19.5 5.30738 19.5 5.6456V15.6765C19.5 15.9329 19.369 16.1716 19.1527 16.3092L12.4027 20.6047C12.157 20.761 11.843 20.761 11.5973 20.6047L4.84734 16.3092C4.63101 16.1716 4.5 15.9329 4.5 15.6765V5.6456C4.5 5.30738 4.72637 5.01101 5.05266 4.92202L11.8027 3.08111Z" fill="#292929"/>
</svg>
