<svg width="24" height="24" viewBox="0 0 24 24" fill="none" xmlns="http://www.w3.org/2000/svg">
<path d="M8.79391 6.96967C9.10692 6.67678 9.61442 6.67678 9.92743 6.96967L14.1698 10.9393C14.7958 11.5251 14.7958 12.4749 14.1698 13.0607L9.92743 17.0303C9.61442 17.3232 9.10692 17.3232 8.79391 17.0303C8.48089 16.7374 8.48089 16.2626 8.79391 15.9697L12.2348 12.75H4.55152C4.10885 12.75 3.75 12.4142 3.75 12C3.75 11.5858 4.10885 11.25 4.55152 11.25H12.2348L8.79391 8.03033C8.48089 7.73744 8.48089 7.26256 8.79391 6.96967Z" fill="#292929"/>
<path d="M15.5381 6.96967C15.2251 6.67678 14.7176 6.67678 14.4046 6.96967C14.0916 7.26256 14.0916 7.73744 14.4046 8.03033L18.647 12L14.4046 15.9697C14.0916 16.2626 14.0916 16.7374 14.4046 17.0303C14.7176 17.3232 15.2251 17.3232 15.5381 17.0303L19.7805 13.0607C20.4065 12.4749 20.4065 11.5251 19.7805 10.9393L15.5381 6.96967Z" fill="#292929"/>
</svg>
