<svg width="24" height="24" viewBox="0 0 24 24" fill="none" xmlns="http://www.w3.org/2000/svg">
<path d="M5.94678 13.5938C5.94678 13.168 5.83154 12.8418 5.60107 12.6152C5.37061 12.3887 4.95459 12.168 4.35303 11.9531C3.75146 11.7383 3.29053 11.5137 2.97021 11.2793C2.65381 11.041 2.41553 10.7715 2.25537 10.4707C2.09912 10.166 2.021 9.81836 2.021 9.42773C2.021 8.75195 2.24561 8.19531 2.69482 7.75781C3.14795 7.32031 3.73975 7.10156 4.47021 7.10156C4.97021 7.10156 5.41553 7.21484 5.80615 7.44141C6.19678 7.66406 6.49756 7.97461 6.7085 8.37305C6.91943 8.77148 7.0249 9.20898 7.0249 9.68555H5.94678C5.94678 9.1582 5.81982 8.75 5.56592 8.46094C5.31201 8.17188 4.94678 8.02734 4.47021 8.02734C4.03662 8.02734 3.70068 8.14844 3.4624 8.39062C3.22412 8.63281 3.10498 8.97266 3.10498 9.41016C3.10498 9.76953 3.23389 10.0703 3.4917 10.3125C3.74951 10.5547 4.14795 10.7715 4.68701 10.9629C5.52686 11.2402 6.12646 11.582 6.48584 11.9883C6.84912 12.3945 7.03076 12.9258 7.03076 13.582C7.03076 14.2734 6.80615 14.8281 6.35693 15.2461C5.90771 15.6602 5.29639 15.8672 4.52295 15.8672C4.02686 15.8672 3.56787 15.7598 3.146 15.5449C2.72803 15.3262 2.39795 15.0215 2.15576 14.6309C1.91748 14.2363 1.79834 13.7852 1.79834 13.2773H2.87646C2.87646 13.8047 3.02295 14.2148 3.31592 14.5078C3.61279 14.8008 4.01514 14.9473 4.52295 14.9473C4.99561 14.9473 5.35107 14.8262 5.58936 14.584C5.82764 14.3418 5.94678 14.0117 5.94678 13.5938Z" fill="#292929"/>
<path d="M9.76756 7.21875L11.9941 14.1797L14.2207 7.21875H15.6035V15.75H14.5312V12.4277L14.6308 9.09961L12.3984 15.75H11.5781L9.3574 9.12305L9.45701 12.4277V15.75H8.38475V7.21875H9.76756Z" fill="#292929"/>
<path d="M21.1235 13.5938C21.1235 13.168 21.0083 12.8418 20.7778 12.6152C20.5473 12.3887 20.1313 12.168 19.5297 11.9531C18.9282 11.7383 18.4672 11.5137 18.1469 11.2793C17.8305 11.041 17.5922 10.7715 17.4321 10.4707C17.2758 10.166 17.1977 9.81836 17.1977 9.42773C17.1977 8.75195 17.4223 8.19531 17.8715 7.75781C18.3247 7.32031 18.9165 7.10156 19.6469 7.10156C20.1469 7.10156 20.5922 7.21484 20.9829 7.44141C21.3735 7.66406 21.6743 7.97461 21.8852 8.37305C22.0962 8.77148 22.2016 9.20898 22.2016 9.68555H21.1235C21.1235 9.1582 20.9965 8.75 20.7426 8.46094C20.4887 8.17188 20.1235 8.02734 19.6469 8.02734C19.2133 8.02734 18.8774 8.14844 18.6391 8.39062C18.4008 8.63281 18.2817 8.97266 18.2817 9.41016C18.2817 9.76953 18.4106 10.0703 18.6684 10.3125C18.9262 10.5547 19.3247 10.7715 19.8637 10.9629C20.7036 11.2402 21.3032 11.582 21.6626 11.9883C22.0258 12.3945 22.2075 12.9258 22.2075 13.582C22.2075 14.2734 21.9829 14.8281 21.5337 15.2461C21.0844 15.6602 20.4731 15.8672 19.6997 15.8672C19.2036 15.8672 18.7446 15.7598 18.3227 15.5449C17.9047 15.3262 17.5747 15.0215 17.3325 14.6309C17.0942 14.2363 16.9751 13.7852 16.9751 13.2773H18.0532C18.0532 13.8047 18.1997 14.2148 18.4926 14.5078C18.7895 14.8008 19.1919 14.9473 19.6997 14.9473C20.1723 14.9473 20.5278 14.8262 20.7661 14.584C21.0044 14.3418 21.1235 14.0117 21.1235 13.5938Z" fill="#292929"/>
</svg>
