<svg width="24" height="24" viewBox="0 0 24 24" fill="none" xmlns="http://www.w3.org/2000/svg">
<path d="M3.21967 8.46967C2.92678 8.76256 2.92678 9.23744 3.21967 9.53033C3.51256 9.82322 3.98744 9.82322 4.28033 9.53033L6.75 7.06066L6.75 21.75C6.75 22.1642 7.08579 22.5 7.5 22.5C7.91421 22.5 8.25 22.1642 8.25 21.75L8.25 7.06066L10.7197 9.53033C11.0126 9.82322 11.4874 9.82322 11.7803 9.53033C12.0732 9.23744 12.0732 8.76256 11.7803 8.46967L8.03033 4.71967C7.73744 4.42678 7.26256 4.42678 6.96967 4.71967L3.21967 8.46967Z" fill="#292929"/>
<path d="M20.7803 14.4697C21.0732 14.7626 21.0732 15.2374 20.7803 15.5303L17.0303 19.2803C16.7374 19.5732 16.2626 19.5732 15.9697 19.2803L12.2197 15.5303C11.9268 15.2374 11.9268 14.7626 12.2197 14.4697C12.5126 14.1768 12.9874 14.1768 13.2803 14.4697L15.75 16.9393L15.75 2.25C15.75 1.83579 16.0858 1.5 16.5 1.5C16.9142 1.5 17.25 1.83579 17.25 2.25L17.25 16.9393L19.7197 14.4697C20.0126 14.1768 20.4874 14.1768 20.7803 14.4697Z" fill="#292929"/>
</svg>
