<svg width="24" height="24" viewBox="0 0 24 24" fill="none" xmlns="http://www.w3.org/2000/svg">
<path fill-rule="evenodd" clip-rule="evenodd" d="M6.75 8.25C6.75 5.35051 9.1005 3 12 3C14.1464 3 15.992 4.28809 16.8059 6.13345L15.6308 7.30851C15.2132 5.69313 13.7459 4.5 12 4.5C9.92893 4.5 8.25 6.17893 8.25 8.25V10.875C8.25 11.4963 8.75368 12 9.375 12H9.75C10.0716 12 10.3459 12.2024 10.4525 12.4868L9.43934 13.5H9.375C8.75368 13.5 8.25 14.0037 8.25 14.625V14.6893L6.70252 16.2368C6.59593 15.9524 6.32161 15.75 6 15.75C5.58579 15.75 5.25 16.0858 5.25 16.5V17.6893L1.71967 21.2197C1.42678 21.5126 1.42678 21.9874 1.71967 22.2803C2.01256 22.5732 2.48744 22.5732 2.78033 22.2803L2.97412 22.0865C3.00146 22.0452 3.03332 22.0061 3.06971 21.9697L22.3759 2.66345C22.5687 2.37227 22.5368 1.97618 22.2803 1.71967C21.9874 1.42678 21.5126 1.42678 21.2197 1.71967L17.9252 5.01409C16.7792 2.92006 14.5554 1.5 12 1.5C8.27208 1.5 5.25 4.52208 5.25 8.25C5.25 8.66421 5.58579 9 6 9C6.41421 9 6.75 8.66421 6.75 8.25ZM14.3375 8.60185L11.5455 11.3938C11.1347 10.8508 10.4833 10.5 9.75 10.5V8.25C9.75 7.00736 10.7574 6 12 6C13.2426 6 14.25 7.00736 14.25 8.25C14.25 8.37716 14.2816 8.49692 14.3375 8.60185Z" fill="#292929"/>
<path d="M18.75 8.4107L17.0495 10.1112C16.796 11.067 16.308 11.9535 15.6192 12.6853L15.4497 12.8653C14.3576 14.0257 13.6071 15.4651 13.2809 17.0249L12.9725 18.4992C12.6678 19.9563 11.3831 21 9.89455 21C8.87598 21 7.97052 20.5157 7.39586 19.7648L6.32887 20.8318C7.18085 21.8514 8.46196 22.5 9.89455 22.5C12.0932 22.5 13.9906 20.9584 14.4407 18.8063L14.7491 17.3319C15.0188 16.0425 15.6392 14.8526 16.542 13.8934L16.7115 13.7133C18.0209 12.3221 18.75 10.4836 18.75 8.5731V8.4107Z" fill="#292929"/>
</svg>
