<svg width="24" height="24" viewBox="0 0 24 24" fill="none" xmlns="http://www.w3.org/2000/svg">
<path fill-rule="evenodd" clip-rule="evenodd" d="M15.75 9.75C15.75 11.8211 14.0711 13.5 12 13.5C9.92893 13.5 8.25 11.8211 8.25 9.75C8.25 7.67893 9.92893 6 12 6C14.0711 6 15.75 7.67893 15.75 9.75ZM14.25 9.75C14.25 10.9926 13.2426 12 12 12C10.7574 12 9.75 10.9926 9.75 9.75C9.75 8.50736 10.7574 7.5 12 7.5C13.2426 7.5 14.25 8.50736 14.25 9.75Z" fill="#292929"/>
<path fill-rule="evenodd" clip-rule="evenodd" d="M20.25 9.5C20.25 11.3919 19.5728 13.1304 18.4405 14.5C17.3973 15.7619 14.7276 19.091 13.1725 21.0338C12.5712 21.7851 11.4288 21.7851 10.8275 21.0339C9.2724 19.091 6.60266 15.7619 5.55946 14.5C4.42724 13.1304 3.75 11.3919 3.75 9.5C3.75 5.08172 7.44365 1.5 12 1.5C16.5563 1.5 20.25 5.08172 20.25 9.5ZM5.25 9.5C5.25 5.95332 8.22823 3 12 3C15.7718 3 18.75 5.95332 18.75 9.5C18.75 11.0259 18.2055 12.4301 17.2844 13.5443C16.2317 14.8177 13.5528 18.1583 12.0014 20.0965L12.0008 20.0973L12 20.0973L11.9992 20.0973L11.9986 20.0965C10.4472 18.1583 7.76826 14.8177 6.71557 13.5443C5.7945 12.4301 5.25 11.0259 5.25 9.5Z" fill="#292929"/>
</svg>
