<svg width="24" height="24" viewBox="0 0 24 24" fill="none" xmlns="http://www.w3.org/2000/svg">
<path fill-rule="evenodd" clip-rule="evenodd" d="M17.0723 2.2506C17.4843 1.78994 18.0832 1.5 18.7499 1.5H20.2499C21.4925 1.5 22.4999 2.50736 22.4999 3.75V13.5C22.4999 14.7426 21.4925 15.75 20.2499 15.75H18.7499C17.9358 15.75 17.2227 15.3176 16.8277 14.67H16.5329C14.9868 14.67 13.694 15.8449 13.5465 17.384L13.1827 21.1827C13.1111 21.9297 12.4836 22.5 11.7331 22.5C9.6242 22.5 7.97361 20.6838 8.17469 18.5844L8.54964 14.67L4.26231 14.67C2.36139 14.67 0.939732 12.9246 1.32436 11.063L2.4602 5.56551C2.85694 3.64529 4.45137 2.203 6.40163 2.00018L7.85626 1.84889C10.1174 1.61373 12.3983 1.64298 14.6527 1.93606L17.0723 2.2506ZM18.7499 3H20.2499C20.6641 3 20.9999 3.33579 20.9999 3.75V13.5C20.9999 13.9142 20.6641 14.25 20.2499 14.25H18.7499C18.3357 14.25 17.9999 13.9142 17.9999 13.5V3.75C17.9999 3.33579 18.3357 3 18.7499 3ZM16.4999 13.1701V3.68881L14.4593 3.42354C12.3206 3.1455 10.1566 3.11774 8.01143 3.34085L6.5568 3.49213C5.25662 3.62735 4.19367 4.58887 3.92918 5.86902L2.79333 11.3665C2.60102 12.2973 3.31185 13.17 4.26231 13.17H8.54964C9.43457 13.17 10.1272 13.9321 10.0428 14.813L9.66786 18.7274C9.55242 19.9326 10.4885 20.9771 11.6934 20.9996L12.0534 17.2409C12.2735 14.9434 14.1954 13.1867 16.4999 13.1701Z" fill="#26252A"/>
</svg>
