<svg width="24" height="24" viewBox="0 0 24 24" fill="none" xmlns="http://www.w3.org/2000/svg">
<path fill-rule="evenodd" clip-rule="evenodd" d="M7.17226 9.33H7.46703C9.01308 9.33 10.3059 8.15505 10.4534 6.61605L10.8172 2.81734C10.8888 2.07031 11.5163 1.5 12.2668 1.5C14.3757 1.5 16.0263 3.31625 15.8252 5.41558L15.4503 9.33L19.7376 9.33C21.6385 9.33 23.0602 11.0754 22.6755 12.937L21.5397 18.4345C21.143 20.3547 19.5485 21.797 17.5983 21.9998L16.1436 22.1511C13.8825 22.3863 11.6016 22.357 9.34719 22.0639L6.92762 21.7494C6.51561 22.2101 5.91666 22.5 5.25 22.5H3.75C2.50736 22.5 1.5 21.4926 1.5 20.25V10.5C1.5 9.25736 2.50736 8.25 3.75 8.25H5.25C6.0641 8.25 6.77722 8.68237 7.17226 9.33ZM11.9465 6.75907L12.3066 3.00037C13.5115 3.02292 14.4475 4.06736 14.3321 5.27255L13.9571 9.18698C13.8727 10.0679 14.5653 10.83 15.4503 10.83H19.7376C20.6881 10.83 21.3989 11.7027 21.2066 12.6335L20.0707 18.131C19.8062 19.4111 18.7433 20.3727 17.4431 20.5079L15.9885 20.6592C13.8433 20.8823 11.6793 20.8545 9.54056 20.5765L7.5 20.3112V10.8299C9.80446 10.8133 11.7265 9.05663 11.9465 6.75907ZM6 10.5C6 10.0858 5.66421 9.75 5.25 9.75H3.75C3.33579 9.75 3 10.0858 3 10.5V20.25C3 20.6642 3.33579 21 3.75 21H5.25C5.66421 21 6 20.6642 6 20.25V10.5Z" fill="#26252A"/>
</svg>
