<svg width="24" height="24" viewBox="0 0 24 24" fill="none" xmlns="http://www.w3.org/2000/svg">
<path d="M9 9.75C9 9.33579 9.33579 9 9.75 9C10.1642 9 10.5 9.33579 10.5 9.75V17.25C10.5 17.6642 10.1642 18 9.75 18C9.33579 18 9 17.6642 9 17.25V9.75Z" fill="#292929"/>
<path d="M14.25 9C13.8358 9 13.5 9.33579 13.5 9.75V17.25C13.5 17.6642 13.8358 18 14.25 18C14.6642 18 15 17.6642 15 17.25V9.75C15 9.33579 14.6642 9 14.25 9Z" fill="#292929"/>
<path fill-rule="evenodd" clip-rule="evenodd" d="M15.75 4.5C15.75 2.84315 14.4069 1.5 12.75 1.5H11.25C9.59315 1.5 8.25 2.84315 8.25 4.5H3.75C3.33579 4.5 3 4.83579 3 5.25C3 5.66421 3.33579 6 3.75 6L4.5 6V19.5C4.5 21.1569 5.84315 22.5 7.5 22.5H16.5C18.1569 22.5 19.5 21.1569 19.5 19.5V6H20.25C20.6642 6 21 5.66421 21 5.25C21 4.83579 20.6642 4.5 20.25 4.5H15.75ZM12.75 3H11.25C10.4216 3 9.75 3.67157 9.75 4.5H14.25C14.25 3.67157 13.5784 3 12.75 3ZM18 6H6V19.5C6 20.3284 6.67157 21 7.5 21H16.5C17.3284 21 18 20.3284 18 19.5V6Z" fill="#292929"/>
</svg>
