<svg width="24" height="24" viewBox="0 0 24 24" fill="none" xmlns="http://www.w3.org/2000/svg">
<path d="M8.94 18.7055C10.2069 18.7134 11.4627 18.4698 12.6346 17.9887C13.8066 17.5075 14.8714 16.7985 15.7672 15.9027C16.663 15.0069 17.3721 13.9421 17.8532 12.7701C18.3343 11.5982 18.578 10.3423 18.57 9.07548C18.57 8.92548 18.57 8.78298 18.57 8.63298C19.2267 8.15184 19.7951 7.56061 20.25 6.88548C19.6316 7.15592 18.9773 7.33529 18.3075 7.41798C19.0177 6.99481 19.5506 6.32873 19.8075 5.54298C19.1456 5.94006 18.4199 6.2192 17.6625 6.36798C17.1524 5.8245 16.4775 5.46427 15.7421 5.34302C15.0067 5.22176 14.2518 5.34625 13.5943 5.69722C12.9368 6.04818 12.4132 6.60606 12.1047 7.28453C11.7962 7.96301 11.7198 8.72425 11.8875 9.45048C10.542 9.38443 9.22553 9.03574 8.02377 8.42711C6.822 7.81847 5.7619 6.96354 4.9125 5.91798C4.48419 6.66136 4.35437 7.53972 4.54932 8.37522C4.74427 9.21072 5.24942 9.94092 5.9625 10.418C5.43646 10.3977 4.92259 10.2538 4.4625 9.99798V10.0355C4.45783 10.8124 4.71954 11.5674 5.20403 12.1747C5.68851 12.782 6.3665 13.2049 7.125 13.373C6.63573 13.5046 6.12322 13.5251 5.625 13.433C5.84459 14.0955 6.26376 14.6739 6.82503 15.0888C7.38631 15.5037 8.06219 15.7348 8.76 15.7505C7.56691 16.7109 6.08407 17.2395 4.5525 17.2505C4.28397 17.2427 4.01606 17.2202 3.75 17.183C5.30022 18.1706 7.1019 18.6914 8.94 18.683" fill="#292929"/>
</svg>
