<svg width="24" height="24" viewBox="0 0 24 24" fill="none" xmlns="http://www.w3.org/2000/svg">
<path fill-rule="evenodd" clip-rule="evenodd" d="M13.1054 5.37977C12.7759 5.04538 12.2378 5.04141 11.9034 5.37089C11.569 5.70038 11.565 6.23856 11.8945 6.57294L14.6524 9.37187C15.4126 10.1434 16.6699 10.0997 17.3748 9.27738L22.6668 3.10338C22.9723 2.74696 22.931 2.21035 22.5746 1.90484C22.2182 1.59933 21.6816 1.64061 21.376 1.99704L16.0841 8.17104C16.0269 8.23771 15.925 8.24125 15.8633 8.1787L13.1054 5.37977ZM8.84439 10.0263C9.2905 9.28604 9.44711 8.8716 9.34305 8.24797C9.24883 7.689 7.77455 5.68237 7.07729 5.00278C6.71038 4.64503 6.30134 4.42281 5.82048 4.40305L5.79603 4.4025C4.57881 4.39725 2.7995 5.92578 2.11795 7.00788C1.37973 7.98595 1.31374 9.24499 1.86211 10.6761L1.94897 10.892C3.38909 14.7573 9.16104 20.4892 13.0298 21.9625C14.5061 22.6001 15.8484 22.5563 16.9384 21.755C17.8911 21.1867 19.4903 19.3626 19.4986 18.1144C19.4783 17.6018 19.2556 17.192 18.8983 16.8255C18.2198 16.1291 16.212 14.6539 15.655 14.5597C15.0825 14.4636 14.6863 14.5872 14.0541 14.952L13.8192 15.0914C13.3691 15.362 13.2102 15.4118 13.0054 15.3452C10.8465 14.5402 9.36233 13.0563 8.54768 10.8725C8.49552 10.7102 8.53072 10.5651 8.73614 10.2086L8.84439 10.0263ZM14.594 16.3886C14.3745 16.5205 14.0833 16.6895 13.7704 16.7871C13.3431 16.9204 12.9315 16.91 12.5381 16.7821L12.5076 16.7721L12.4775 16.7609C9.90529 15.8018 8.09886 13.9922 7.13205 11.4006L7.11988 11.368L7.10923 11.3348C6.9924 10.9713 6.98313 10.5938 7.08902 10.2108C7.17133 9.91307 7.31549 9.64779 7.42701 9.45426L7.43189 9.44578L7.55028 9.24635C7.76234 8.89447 7.82811 8.74195 7.85237 8.66077C7.86099 8.63193 7.8623 8.61795 7.86279 8.60814C7.86304 8.60329 7.86327 8.59506 7.86271 8.58252C7.83783 8.53168 7.79906 8.45906 7.7434 8.36399C7.61117 8.13811 7.42347 7.85303 7.20558 7.54707C6.75573 6.91539 6.27446 6.33016 6.0227 6.08479C5.9266 5.99108 5.85946 5.94909 5.82306 5.93113C5.80321 5.92134 5.78916 5.91677 5.7769 5.91459C5.76269 5.91629 5.73664 5.92044 5.69768 5.9306C5.63129 5.94791 5.54251 5.97873 5.43215 6.02921C5.2081 6.13169 4.94533 6.29208 4.66843 6.50183C4.09811 6.93383 3.6202 7.45781 3.39642 7.81311L3.36239 7.86714L3.32392 7.91811C2.99775 8.35025 2.84606 9.0143 3.26882 10.1245L3.35802 10.3463L3.36481 10.3645C3.97287 11.9965 5.59745 14.2124 7.64542 16.2543C9.69134 18.2941 11.9231 19.9242 13.5675 20.5505L13.5984 20.5623L13.6289 20.5754C14.7594 21.0637 15.5011 20.9364 16.0434 20.5377L16.1019 20.4946L16.1644 20.4574C16.4233 20.3029 16.9246 19.8602 17.3704 19.2746C17.583 18.9952 17.7506 18.7248 17.86 18.4906C17.914 18.3751 17.9478 18.2809 17.9674 18.2091C17.9767 18.1748 17.9818 18.1492 17.9845 18.132C17.9805 18.1098 17.9739 18.0921 17.9651 18.0739C17.9482 18.0391 17.9091 17.9752 17.8164 17.8801C17.5716 17.6289 16.9863 17.1475 16.3544 16.6973C16.0484 16.4793 15.7633 16.2915 15.5374 16.1591C15.4424 16.1034 15.3698 16.0646 15.319 16.0397L15.3073 16.0393L15.2969 16.0394C15.2854 16.0398 15.2741 16.0409 15.2548 16.0459C15.2032 16.0592 15.0872 16.1008 14.8169 16.2563L14.594 16.3886Z" fill="#292929"/>
</svg>
