<svg width="24" height="24" viewBox="0 0 24 24" fill="none" xmlns="http://www.w3.org/2000/svg">
<path d="M12.75 16.2995C13.1984 16.0401 13.5 15.5554 13.5 15.0002C13.5 14.1717 12.8284 13.5002 12 13.5002C11.1716 13.5002 10.5 14.1717 10.5 15.0002C10.5 15.5554 10.8016 16.0401 11.25 16.2995V17.2502C11.25 17.6644 11.5858 18.0002 12 18.0002C12.4142 18.0002 12.75 17.6644 12.75 17.2502V16.2995Z" fill="#292929"/>
<path fill-rule="evenodd" clip-rule="evenodd" d="M8.08013 9.75017H18.75C19.5784 9.75017 20.25 10.4217 20.25 11.2502V20.2502C20.25 21.0786 19.5784 21.7502 18.75 21.7502H5.25C4.42157 21.7502 3.75 21.0786 3.75 20.2502V11.2502C3.75 10.4217 4.42157 9.75017 5.25 9.75017H6.40537C5.26089 7.00742 6.30389 3.77567 8.94616 2.25016C11.8159 0.593308 15.4855 1.57656 17.1423 4.44631L17.5173 5.09583C17.7244 5.45455 17.6015 5.91325 17.2428 6.12035C16.8841 6.32746 16.4254 6.20455 16.2183 5.84583L15.8433 5.19631C14.6006 3.044 11.8485 2.30656 9.69616 3.5492C7.54384 4.79184 6.8064 7.544 8.04904 9.69631L8.08013 9.75017ZM5.25 11.2502H18.75V20.2502H5.25L5.25 11.2502Z" fill="#292929"/>
</svg>
