<svg width="24" height="24" viewBox="0 0 24 24" fill="none" xmlns="http://www.w3.org/2000/svg">
<path d="M18.5303 10.2803C18.2374 10.5732 17.7626 10.5732 17.4697 10.2803C17.1768 9.98744 17.1768 9.51256 17.4697 9.21967L19.9393 6.75L14.25 6.75C13.8358 6.75 13.5 6.41421 13.5 6C13.5 5.58579 13.8358 5.25 14.25 5.25L19.9393 5.25L17.4697 2.78033C17.1768 2.48744 17.1768 2.01256 17.4697 1.71967C17.7626 1.42678 18.2374 1.42678 18.5303 1.71967L22.2803 5.46967C22.5732 5.76256 22.5732 6.23744 22.2803 6.53033L18.5303 10.2803Z" fill="#292929"/>
<path fill-rule="evenodd" clip-rule="evenodd" d="M7.5 13.5C9.57107 13.5 11.25 11.8211 11.25 9.75C11.25 7.67893 9.57107 6 7.5 6C5.42893 6 3.75 7.67893 3.75 9.75C3.75 11.8211 5.42893 13.5 7.5 13.5ZM7.5 12C8.74264 12 9.75 10.9926 9.75 9.75C9.75 8.50736 8.74264 7.5 7.5 7.5C6.25736 7.5 5.25 8.50736 5.25 9.75C5.25 10.9926 6.25736 12 7.5 12Z" fill="#292929"/>
<path fill-rule="evenodd" clip-rule="evenodd" d="M7.5 22.5C10.8137 22.5 13.5 20.8211 13.5 18.75C13.5 16.6789 10.8137 15 7.5 15C4.18629 15 1.5 16.6789 1.5 18.75C1.5 20.8211 4.18629 22.5 7.5 22.5ZM10.9476 20.1297C11.7807 19.609 12 19.0817 12 18.75C12 18.4183 11.7807 17.891 10.9476 17.3703C10.1357 16.8629 8.9207 16.5 7.5 16.5C6.0793 16.5 4.86428 16.8629 4.05236 17.3703C3.21929 17.891 3 18.4183 3 18.75C3 19.0817 3.21929 19.609 4.05236 20.1297C4.86428 20.6371 6.0793 21 7.5 21C8.9207 21 10.1357 20.6371 10.9476 20.1297Z" fill="#292929"/>
</svg>
