<svg width="24" height="24" viewBox="0 0 24 24" fill="none" xmlns="http://www.w3.org/2000/svg">
<path d="M12.75 7.875C12.7584 7.72419 12.8906 7.60854 13.0453 7.61669C13.3946 7.61669 14.0549 7.75004 14.4592 8.0522C14.8015 8.39892 14.9682 8.88246 14.9995 9.46218C15.0076 9.613 14.8888 9.74171 14.7341 9.74965C14.5793 9.75758 14.4473 9.64175 14.4392 9.49093C14.4122 8.99205 14.2731 8.65246 14.0549 8.43149C13.8757 8.25 13.5067 8.18874 13.015 8.16283C12.8603 8.15468 12.7416 8.02581 12.75 7.875Z" fill="#292929"/>
<path d="M12.3322 6.52482C12.1621 6.51416 12.0133 6.61501 11.9999 6.75008C11.9864 6.88516 12.1135 7.0033 12.2836 7.01396C13.4388 7.01396 14.3582 7.3191 15 7.875C15.6152 8.41012 15.91 9.41535 15.8801 10.2478C15.8752 10.3833 16.0095 10.4962 16.1801 10.5001C16.3506 10.5039 16.4929 10.3973 16.4977 10.2618C16.5319 9.31193 16.1872 8.17981 15.4557 7.54364C14.6866 6.87741 13.5982 6.52482 12.3322 6.52482Z" fill="#292929"/>
<path d="M11.25 5.5173C11.25 5.36967 11.3891 5.25 11.5608 5.25C13.3789 5.25 14.9095 5.77388 16.1318 6.79603C17.3631 7.82564 18 9.23096 18 10.9827C18 11.1303 17.8609 11.25 17.6892 11.25C17.5176 11.25 17.3785 11.1303 17.3785 10.9827C17.3785 9.34977 16.7897 8.09175 15.6986 7.17933C14.5986 6.25946 13.2261 5.78459 11.5608 5.78459C11.3891 5.78459 11.25 5.66492 11.25 5.5173Z" fill="#292929"/>
<path d="M13.6202 13.4221C13.4279 13.6695 13.0431 13.642 13.0431 13.642C10.3225 12.9275 9.6355 10.2069 9.6355 10.2069C9.6355 10.2069 9.60802 9.82214 9.85535 9.62977L10.35 9.24504C10.5698 9.05268 10.7347 8.5855 10.4874 8.14581C10.426 8.05373 10.3494 7.93498 10.2675 7.80801C10.1293 7.59393 9.9761 7.35647 9.85535 7.18398C9.6355 6.88169 9.14084 6.2771 9.14084 6.2771C8.89351 5.97481 8.53626 5.91985 8.15153 6.11221C7.79428 6.33206 7.4645 6.60687 7.16221 6.93664C6.91489 7.21145 6.77748 7.48626 6.75 7.76107V7.871C6.75 8.00838 6.77748 8.11829 6.80495 8.2282C6.91488 8.6679 7.21718 9.35496 7.84924 10.5092C8.26145 11.2511 8.70115 11.8832 9.11336 12.4053C9.33321 12.6802 9.58054 12.955 9.88283 13.2572L9.99275 13.3672C10.2676 13.6695 10.5699 13.9168 10.8447 14.1366C11.3668 14.5489 11.9989 14.9886 12.7408 15.4008C13.9225 16.0328 14.6095 16.3351 15.0218 16.445C15.1317 16.4725 15.2691 16.5 15.379 16.5H15.4889C15.7637 16.445 16.0386 16.3351 16.3134 16.0878C16.6706 15.7855 16.9454 15.4557 17.1378 15.0985C17.3302 14.7137 17.2752 14.3565 16.9729 14.1092C16.9729 14.1092 16.3683 13.6145 16.066 13.3947C15.7912 13.1748 15.3515 12.9 15.1042 12.7626C14.637 12.5153 14.1973 12.6802 14.005 12.9275L13.6202 13.4221Z" fill="#292929"/>
<path fill-rule="evenodd" clip-rule="evenodd" d="M19.5702 3.55376C19.0572 3.08532 17.0051 1.54221 12.3878 1.51466C12.3878 1.51466 6.9605 1.18399 4.31434 3.66398C2.82926 5.17953 2.31623 7.35642 2.26222 10.0844C2.20822 12.8124 2.12722 17.9102 6.9605 19.3155V21.4373C6.9605 21.4373 6.9335 22.2915 7.47353 22.4568C8.02218 22.636 8.37462 22.2327 8.83529 21.7055C8.94137 21.5841 9.05334 21.456 9.17463 21.327C9.52565 20.9413 10.0117 20.3902 10.3627 19.9493C13.6569 20.2248 16.195 19.5911 16.4921 19.4808C16.5513 19.4615 16.6343 19.44 16.7369 19.4135C17.8021 19.1378 20.9748 18.3167 21.5413 13.6666C22.1894 8.37597 21.2713 5.04176 19.5702 3.55376ZM20.1373 13.2533C19.6696 17.1466 17.093 17.7199 16.2114 17.9161C16.1258 17.9352 16.0562 17.9506 16.006 17.9653C15.763 18.0479 13.5489 18.5991 10.7407 18.4337C10.7407 18.4337 8.6616 20.9964 7.98656 21.6853C7.87855 21.7955 7.77055 21.823 7.68954 21.823C7.58153 21.7955 7.55453 21.6577 7.55453 21.4648C7.55453 21.1893 7.58154 17.9377 7.58154 17.9377C3.67328 16.8284 3.73459 12.782 3.77017 10.4342C3.7717 10.3327 3.77319 10.2343 3.77431 10.1395C3.82832 7.85241 4.23335 6.0062 5.47542 4.73864C7.71655 2.67198 12.3338 2.97509 12.3338 2.97509C16.222 3.00265 18.0851 4.18753 18.5172 4.60087C19.9213 5.86842 20.6503 8.87197 20.1373 13.2533Z" fill="#292929"/>
</svg>
