<svg width="24" height="24" viewBox="0 0 24 24" fill="none" xmlns="http://www.w3.org/2000/svg">
<path fill-rule="evenodd" clip-rule="evenodd" d="M9.35416 10.5C10.0667 9.70387 10.5 8.65253 10.5 7.5C10.5 5.01472 8.48528 3 6 3C3.51472 3 1.5 5.01472 1.5 7.5C1.5 9.98528 3.51472 12 6 12H18C20.4853 12 22.5 9.98528 22.5 7.5C22.5 5.01472 20.4853 3 18 3C15.5147 3 13.5 5.01472 13.5 7.5C13.5 8.65253 13.9333 9.70387 14.6458 10.5H9.35416ZM9 7.5C9 9.15685 7.65685 10.5 6 10.5C4.34315 10.5 3 9.15685 3 7.5C3 5.84315 4.34315 4.5 6 4.5C7.65685 4.5 9 5.84315 9 7.5ZM21 7.5C21 9.15685 19.6569 10.5 18 10.5C16.3431 10.5 15 9.15685 15 7.5C15 5.84315 16.3431 4.5 18 4.5C19.6569 4.5 21 5.84315 21 7.5Z" fill="#292929"/>
<path d="M18.5303 22.2803C18.2374 22.5732 17.7626 22.5732 17.4697 22.2803C17.1768 21.9874 17.1768 21.5126 17.4697 21.2197L19.9393 18.75H14.25C13.8358 18.75 13.5 18.4142 13.5 18C13.5 17.5858 13.8358 17.25 14.25 17.25H19.9393L17.4697 14.7803C17.1768 14.4874 17.1768 14.0126 17.4697 13.7197C17.7626 13.4268 18.2374 13.4268 18.5303 13.7197L22.2803 17.4697C22.5732 17.7626 22.5732 18.2374 22.2803 18.5303L18.5303 22.2803Z" fill="#292929"/>
</svg>
