<svg width="24" height="24" viewBox="0 0 24 24" fill="none" xmlns="http://www.w3.org/2000/svg">
<path fill-rule="evenodd" clip-rule="evenodd" d="M10.5 12C10.5 13.1525 10.0667 14.2039 9.35416 15H14.6458C13.9333 14.2039 13.5 13.1525 13.5 12C13.5 9.51472 15.5147 7.5 18 7.5C20.4853 7.5 22.5 9.51472 22.5 12C22.5 14.4853 20.4853 16.5 18 16.5H6C3.51472 16.5 1.5 14.4853 1.5 12C1.5 9.51472 3.51472 7.5 6 7.5C8.48528 7.5 10.5 9.51472 10.5 12ZM6 15C7.65685 15 9 13.6569 9 12C9 10.3431 7.65685 9 6 9C4.34315 9 3 10.3431 3 12C3 13.6569 4.34315 15 6 15ZM18 15C19.6569 15 21 13.6569 21 12C21 10.3431 19.6569 9 18 9C16.3431 9 15 10.3431 15 12C15 13.6569 16.3431 15 18 15Z" fill="#292929"/>
</svg>
