<svg width="24" height="24" viewBox="0 0 24 24" fill="none" xmlns="http://www.w3.org/2000/svg">
<path fill-rule="evenodd" clip-rule="evenodd" d="M18.9018 5.08468C17.0728 3.25511 14.6341 2.25 12.0372 2.25C6.68986 2.25 2.33377 6.58539 2.32912 11.9074C2.32912 13.6119 2.77589 15.2701 3.62291 16.7384L2.25 21.7454L7.39726 20.4021C8.81671 21.171 10.413 21.5786 12.0372 21.5786H12.0419C17.3893 21.5786 21.7453 17.2432 21.75 11.9166C21.7453 9.3367 20.7354 6.90962 18.9018 5.08468ZM12.0372 19.9436C10.5852 19.9436 9.16575 19.5545 7.9278 18.8227L7.63461 18.6467L4.58162 19.4433L5.39606 16.479L5.20525 16.1733C4.39547 14.8949 3.97196 13.4173 3.97196 11.9027C3.97196 7.48397 7.59272 3.8804 12.0419 3.8804C14.1967 3.8804 16.2211 4.71876 17.7476 6.23337C19.2695 7.75261 20.1072 9.76746 20.1072 11.912C20.1025 16.3447 16.4817 19.9436 12.0372 19.9436ZM16.4631 13.9315C16.2211 13.811 15.0297 13.2274 14.8063 13.1441C14.5829 13.0653 14.42 13.0236 14.2618 13.2645C14.0989 13.5053 13.6335 14.0519 13.4939 14.2094C13.3543 14.3715 13.21 14.39 12.968 14.2696C12.726 14.1492 11.9442 13.8944 11.018 13.0699C10.2967 12.4308 9.81265 11.6387 9.66838 11.3979C9.52876 11.157 9.65442 11.0273 9.77542 10.9069C9.88246 10.8004 10.0174 10.6243 10.1384 10.4854C10.2594 10.3464 10.3013 10.2445 10.3804 10.0824C10.4595 9.92031 10.4223 9.78135 10.3618 9.66092C10.3013 9.5405 9.8173 8.35012 9.61253 7.86841C9.41706 7.39596 9.21695 7.46081 9.06802 7.45617C8.9284 7.44691 8.76551 7.44691 8.60263 7.44691C8.43974 7.44691 8.17912 7.50712 7.95573 7.74798C7.73234 7.98883 7.10871 8.57244 7.10871 9.76282C7.10871 10.9532 7.979 12.0973 8.1 12.2594C8.221 12.4215 9.808 14.8578 12.242 15.9046C12.8191 16.1547 13.2705 16.303 13.6242 16.4141C14.206 16.5994 14.7319 16.5716 15.1507 16.5114C15.6161 16.4419 16.5841 15.9278 16.7889 15.3627C16.989 14.7976 16.989 14.3159 16.9285 14.214C16.868 14.1121 16.7051 14.0519 16.4631 13.9315Z" fill="#292929"/>
</svg>
