<svg width="24" height="24" viewBox="0 0 24 24" fill="none" xmlns="http://www.w3.org/2000/svg">
<path d="M3.51526 10.0889H6.94692C8.79733 10.0889 10.5231 10.9998 11.537 12.5116L15.3052 18.1304C15.5294 18.4648 15.5294 18.8973 15.305 19.2317L13.7213 21.5919C12.9088 22.8028 11.0915 22.8027 10.2791 21.5917L3.08497 10.8666C2.86085 10.5325 3.10628 10.0889 3.51526 10.0889Z" fill="#292929"/>
<path d="M20.4847 10.0889H15.7103C14.6978 10.0889 13.7535 10.5873 13.1988 11.4145C13.0759 11.5977 13.0761 11.8347 13.1993 12.0177L16.246 16.5454C16.4494 16.8476 16.9033 16.8473 17.1062 16.5448L20.915 10.8666C21.1392 10.5325 20.8937 10.0889 20.4847 10.0889Z" fill="#292929"/>
<path d="M15.6745 5.08602C15.6745 7.06653 14.0294 8.67204 12 8.67204C9.97065 8.67204 8.32553 7.06653 8.32553 5.08602C8.32553 3.10552 9.97065 1.5 12 1.5C14.0294 1.5 15.6745 3.10552 15.6745 5.08602Z" fill="#292929"/>
</svg>
