<svg width="24" height="24" viewBox="0 0 24 24" fill="none" xmlns="http://www.w3.org/2000/svg">
<path d="M17.7803 9.53033C18.0732 9.23744 18.0732 8.76256 17.7803 8.46967C17.4874 8.17678 17.0126 8.17678 16.7197 8.46967L10.125 15.0643L7.28033 12.2197C6.98744 11.9268 6.51256 11.9268 6.21967 12.2197C5.92678 12.5126 5.92678 12.9874 6.21967 13.2803L9.06434 16.125C9.65013 16.7108 10.5999 16.7108 11.1857 16.125L17.7803 9.53033Z" fill="#292929"/>
<path fill-rule="evenodd" clip-rule="evenodd" d="M23.25 11.625C23.25 17.6311 18.3811 22.5 12.375 22.5C6.3689 22.5 1.5 17.6311 1.5 11.625C1.5 5.6189 6.3689 0.75 12.375 0.75C18.3811 0.75 23.25 5.6189 23.25 11.625ZM21.75 11.625C21.75 16.8027 17.5527 21 12.375 21C7.19733 21 3 16.8027 3 11.625C3 6.44733 7.19733 2.25 12.375 2.25C17.5527 2.25 21.75 6.44733 21.75 11.625Z" fill="#292929"/>
</svg>
